<?xml version="1.0" encoding="utf-8"?><svg viewBox="0 0 88 87" xmlns="http://www.w3.org/2000/svg" xmlns:xlink="http://www.w3.org/1999/xlink"><style>:root>svg{display:none}:root>svg:target{display:block}</style><svg viewBox="0 0 27 27" fill="none" id="address" xmlns="http://www.w3.org/2000/svg"><path fill-rule="evenodd" clip-rule="evenodd" d="M9.5 9.703a4 4 0 1 1 8 0 4 4 0 0 1-8 0Zm4-2a2 2 0 1 0 0 4 2 2 0 0 0 0-4Z" fill="currentColor"/><path fill-rule="evenodd" clip-rule="evenodd" d="M4.5 9.703a9 9 0 0 1 18 0c0 .992-.467 2.293-1.063 3.566-.62 1.319-1.458 2.769-2.355 4.114-.895 1.342-1.867 2.61-2.762 3.555-.446.47-.895.884-1.324 1.188-.392.278-.92.577-1.496.577-.575 0-1.104-.299-1.496-.577-.43-.304-.878-.718-1.324-1.188-.895-.945-1.867-2.213-2.762-3.555-.897-1.345-1.736-2.795-2.355-4.114C4.967 11.995 4.5 10.694 4.5 9.703Zm9-7a7 7 0 0 0-7 7c0 .509.283 1.457.874 2.716.569 1.212 1.355 2.574 2.208 3.854.855 1.283 1.758 2.453 2.55 3.29.398.42.746.732 1.028.932.185.13.295.18.34.198.045-.018.155-.068.34-.198.282-.2.63-.512 1.028-.933.792-.836 1.695-2.006 2.55-3.289.853-1.28 1.64-2.642 2.208-3.854.59-1.26.874-2.207.874-2.716a7 7 0 0 0-7-7Z" fill="currentColor"/><path d="M5.786 19.68a1 1 0 1 0-.572-1.917c-1.285.384-2.404.873-3.224 1.472-.8.584-1.49 1.407-1.49 2.468 0 .99.603 1.774 1.324 2.343.733.577 1.73 1.053 2.874 1.434 2.299.766 5.41 1.223 8.802 1.223 3.391 0 6.503-.457 8.802-1.223 1.143-.381 2.142-.857 2.874-1.434.721-.569 1.324-1.353 1.324-2.343 0-1.061-.69-1.884-1.49-2.468-.82-.598-1.94-1.088-3.224-1.472a1 1 0 0 0-.572 1.917c1.17.349 2.051.758 2.617 1.17.586.428.669.73.669.853 0 .115-.069.383-.562.772-.482.38-1.241.765-2.269 1.108-2.045.681-4.933 1.12-8.169 1.12-3.236 0-6.124-.439-8.17-1.12-1.027-.343-1.786-.728-2.268-1.108-.493-.389-.562-.657-.562-.772 0-.123.083-.425.669-.852.566-.413 1.447-.822 2.617-1.171Z" fill="currentColor"/></svg><svg fill="none" viewBox="0 0 11 6" id="arr" xmlns="http://www.w3.org/2000/svg"><path fill-rule="evenodd" clip-rule="evenodd" d="M9.5 6 5.177 1.823 1 6l-.884-.677 5.06-5.06 5.062 5.06L9.5 6Z" fill="currentColor"/></svg><svg viewBox="0 0 12 22" fill="none" id="arr-breadcrumbs" xmlns="http://www.w3.org/2000/svg"><path d="m1-3 10 14L1 25" stroke="#E2E2E2" stroke-width="2" stroke-linecap="round" stroke-linejoin="round"/></svg><svg viewBox="0 0 12 22" fill="none" id="arr-breadcrumbs-yellow" xmlns="http://www.w3.org/2000/svg"><path d="m1-3 10 14L1 25" stroke="#FFE800" stroke-width="2" stroke-linecap="round" stroke-linejoin="round"/></svg><svg fill="none" viewBox="0 0 13 6" id="arr-down" xmlns="http://www.w3.org/2000/svg"><path d="M6.5 6 .87 0h11.26L6.5 6Z" fill="#C7BCE2"/></svg><svg viewBox="0 0 12 7" fill="none" id="arr-spoiler" xmlns="http://www.w3.org/2000/svg"><path fill-rule="evenodd" clip-rule="evenodd" d="m10 6.56-.53-.53L6 2.56 2.53 6.03 2 6.56.94 5.5l.53-.53 4-4L6 .44l.53.53 4 4 .53.53L10 6.56Z" fill="#fff"/></svg><svg viewBox="0 0 12 8" fill="none" id="arr-spoiler-grey" xmlns="http://www.w3.org/2000/svg"><path fill-rule="evenodd" clip-rule="evenodd" d="m10 .94-.53.53L6 4.94 2.53 1.47 2 .94.94 2l.53.53 4 4 .53.53.53-.53 4-4 .53-.53L10 .94Z" fill="#979797"/></svg><svg fill="none" viewBox="0 0 12 8" id="arr-spoiler-purple" xmlns="http://www.w3.org/2000/svg"><path fill-rule="evenodd" clip-rule="evenodd" d="m10 .94-.53.53L6 4.94 2.53 1.47 2 .94.94 2l.53.53 4 4 .53.53.53-.53 4-4 .53-.53L10 .94Z" fill="#583F99"/></svg><svg fill="none" viewBox="0 0 20 17" id="burger" xmlns="http://www.w3.org/2000/svg"><path stroke="currentColor" stroke-width="3" stroke-linecap="round" d="M1.5 1.5h17M1.5 8.5h17M1.5 15.5h17"/></svg><svg viewBox="0 0 32 28" fill="none" id="cart" xmlns="http://www.w3.org/2000/svg"><path d="M1 1h4.528l3.397 18 19.245-1.688L31 3.813H13.453" stroke="currentColor" stroke-width="2" stroke-linecap="round" stroke-linejoin="round"/><circle cx="13" cy="25" r="2" fill="currentColor" stroke="currentColor" stroke-width="2"/><circle cx="24" cy="25" r="2" fill="currentColor" stroke="currentColor" stroke-width="2"/></svg><svg viewBox="0 0 30 30" fill="none" id="catalog-view-1" xmlns="http://www.w3.org/2000/svg"><rect x="1" y="1" width="11.5" height="11.5" rx="1" stroke="currentColor" stroke-width="2"/><rect x="1" y="17.5" width="11.5" height="11.5" rx="1" stroke="currentColor" stroke-width="2"/><rect x="17.5" y="1" width="11.5" height="11.5" rx="1" stroke="currentColor" stroke-width="2"/><rect x="17.5" y="17.5" width="11.5" height="11.5" rx="1" stroke="currentColor" stroke-width="2"/></svg><svg viewBox="0 0 28 28" fill="none" id="catalog-view-2" xmlns="http://www.w3.org/2000/svg"><rect x=".85" y=".85" width="6.197" height="6.197" rx="1.15" stroke="currentColor" stroke-width="1.7"/><rect x=".85" y="10.901" width="6.197" height="6.197" rx="1.15" stroke="currentColor" stroke-width="1.7"/><rect x=".85" y="20.953" width="6.197" height="6.197" rx="1.15" stroke="currentColor" stroke-width="1.7"/><rect x="10.901" y=".85" width="6.197" height="6.197" rx="1.15" stroke="currentColor" stroke-width="1.7"/><rect x="10.901" y="10.901" width="6.197" height="6.197" rx="1.15" stroke="currentColor" stroke-width="1.7"/><rect x="10.901" y="20.953" width="6.197" height="6.197" rx="1.15" stroke="currentColor" stroke-width="1.7"/><rect x="20.953" y=".85" width="6.197" height="6.197" rx="1.15" stroke="currentColor" stroke-width="1.7"/><rect x="20.953" y="10.901" width="6.197" height="6.197" rx="1.15" stroke="currentColor" stroke-width="1.7"/><rect x="20.953" y="20.953" width="6.197" height="6.197" rx="1.15" stroke="currentColor" stroke-width="1.7"/></svg><svg viewBox="0 0 13 11" fill="none" id="check" xmlns="http://www.w3.org/2000/svg"><path d="m1 5 4 4 7-8" stroke="#000" stroke-width="2"/></svg><svg viewBox="0 0 26 25" fill="none" id="clock" xmlns="http://www.w3.org/2000/svg"><path d="M.293 6.113a1 1 0 0 1 0-1.414l4-4a1 1 0 0 1 1.414 1.414l-4 4a1 1 0 0 1-1.414 0ZM14 8.406a1 1 0 1 0-2 0v5a1 1 0 0 0 .293.707l3.5 3.5a1 1 0 0 0 1.414-1.414L14 12.992V8.406Z" fill="currentColor"/><path fill-rule="evenodd" clip-rule="evenodd" d="M13 2.406c-6.075 0-11 4.925-11 11s4.925 11 11 11 11-4.925 11-11-4.925-11-11-11Zm-9 11a9 9 0 1 1 18 0 9 9 0 0 1-18 0Z" fill="currentColor"/><path d="M25.707 4.7a1 1 0 0 1-1.414 1.413l-4-4A1 1 0 0 1 21.707.7l4 4Z" fill="currentColor"/></svg><svg viewBox="0 0 28 28" fill="none" id="close" xmlns="http://www.w3.org/2000/svg"><path d="m2.45 27.65-2.1-2.1L11.9 14 .35 2.45l2.1-2.1L14 11.9 25.55.35l2.1 2.1L16.1 14l11.55 11.55-2.1 2.1L14 16.1 2.45 27.65Z" fill="currentColor"/></svg><svg viewBox="0 0 16 16" fill="none" id="close-circle" xmlns="http://www.w3.org/2000/svg"><path fill-rule="evenodd" clip-rule="evenodd" d="M16 8A8 8 0 1 1 0 8a8 8 0 0 1 16 0Zm-3.293-4.707a1 1 0 0 1 0 1.414L9.414 8l3.293 3.293a1 1 0 0 1-1.414 1.414L8 9.414l-3.293 3.293a1 1 0 0 1-1.414-1.414L6.586 8 3.293 4.707a1 1 0 0 1 1.414-1.414L8 6.586l3.293-3.293a1 1 0 0 1 1.414 0Z" fill="currentColor"/></svg><svg viewBox="0 0 33 25" fill="none" id="cloud-message" xmlns="http://www.w3.org/2000/svg"><path clip-rule="evenodd" d="M2.194 1h27.954c.657 0 1.202.524 1.202 1.166v15.278c0 .639-.545 1.162-1.203 1.162h-2.066l.06 4.565a.522.522 0 0 1-.302.496c-.19.1-.416.1-.589-.034l-6.59-5.027H2.194c-.658 0-1.194-.524-1.194-1.162V2.166C1 1.524 1.536 1 2.194 1Z" stroke="currentColor" stroke-width="2" stroke-miterlimit="10"/><path fill-rule="evenodd" clip-rule="evenodd" d="M10.133 8.385c.804 0 1.46.633 1.46 1.419 0 .785-.657 1.422-1.46 1.422-.803 0-1.462-.638-1.462-1.422 0-.785.649-1.42 1.462-1.42ZM21.36 8.385c.804 0 1.462.633 1.462 1.419 0 .785-.658 1.422-1.462 1.422-.804 0-1.471-.638-1.471-1.422 0-.785.657-1.42 1.47-1.42ZM15.747 8.385c.805 0 1.462.633 1.462 1.419 0 .785-.657 1.422-1.462 1.422-.805 0-1.47-.638-1.47-1.422 0-.785.658-1.42 1.47-1.42Z" fill="currentColor"/></svg><svg viewBox="0 0 33 25" fill="none" id="cloud-question" xmlns="http://www.w3.org/2000/svg"><path clip-rule="evenodd" d="M2.194 1h27.954c.657 0 1.202.524 1.202 1.166v15.278c0 .639-.545 1.162-1.203 1.162h-2.066l.06 4.565a.522.522 0 0 1-.302.496c-.19.1-.416.1-.589-.034l-6.59-5.027H2.194c-.658 0-1.194-.524-1.194-1.162V2.166C1 1.524 1.536 1 2.194 1Z" stroke="currentColor" stroke-width="2" stroke-miterlimit="10"/><path fill-rule="evenodd" clip-rule="evenodd" d="M15.054 12.001h2.307c.003-.281.04-.595.162-.853.128-.262.376-.466.63-.62l.002-.004a3.626 3.626 0 0 0 1.326-1.09c.342-.454.519-.953.519-1.51 0-.84-.276-1.574-.953-2.134-.724-.601-1.68-.79-2.622-.79-.887 0-1.787.169-2.504.689-.693.504-.931 1.242-.92 2.048l.318.004h1.938c.015-.3.103-.595.345-.802.232-.2.513-.285.824-.285.356 0 .694.09.938.346s.33.585.33.924c0 .339-.082.68-.279.977a2.27 2.27 0 0 1-.76.705c-.265.176-.53.364-.772.57a3.174 3.174 0 0 0-.484.496c-.27.364-.338.889-.345 1.33Zm1.153.837c-.632 0-1.146.484-1.146 1.081 0 .598.514 1.081 1.146 1.081.633 0 1.146-.484 1.146-1.08 0-.597-.513-1.082-1.146-1.082Z" fill="currentColor"/></svg><svg viewBox="0 0 36 29" fill="none" id="compare" xmlns="http://www.w3.org/2000/svg"><path fill-rule="evenodd" clip-rule="evenodd" d="m15.497 4.91-5.9.914 6.266 14.485a.996.996 0 0 1 .148.524v.004a7.828 7.828 0 0 1-7.833 7.83c-4.33 0-7.845-3.514-7.845-7.834a.997.997 0 0 1 .091-.417L7.242 4.652a1.002 1.002 0 0 1 .78-.608l7.156-1.108a2.834 2.834 0 0 1 5.254-.814L27.738.991l.043-.006.017-.002a.996.996 0 0 1 1.028.617l6.816 15.76a.993.993 0 0 1 .091.418A7.828 7.828 0 0 1 27.9 25.61a7.828 7.828 0 0 1-7.832-7.673 1.004 1.004 0 0 1 .136-.685l6.06-14.01-5.539.858a2.834 2.834 0 0 1-5.228.81Zm6.655 13.868A5.83 5.83 0 0 0 27.9 23.61a5.83 5.83 0 0 0 5.748-4.833H22.152Zm11.06-2H22.588l5.31-12.281 5.312 12.28Zm-19.734 3.055L8.167 7.553l-5.312 12.28h10.623Zm-11.059 2a5.85 5.85 0 0 0 5.759 4.834 5.83 5.83 0 0 0 5.748-4.834H2.419Z" fill="currentColor"/></svg><svg viewBox="0 0 27 27" fill="none" id="dislike" xmlns="http://www.w3.org/2000/svg"><path d="M1.027 15.06c0 .48.179.9.537 1.26.359.36.777.54 1.255.54h8.932l-1.345 6.33v.3c0 .258.03.48.09.66.06.18.15.318.269.42l1.165.93 8.305-8.64H26V1.5H6.971c-.454 0-.884.15-1.296.444-.413.3-.705.66-.885 1.086l-3.763 8.7c-.06.138 0 3.33 0 3.33Z" stroke="currentColor" stroke-width="2" stroke-miterlimit="10" stroke-linejoin="round"/></svg><svg fill="none" viewBox="0 0 11 11" id="download" xmlns="http://www.w3.org/2000/svg"><path d="M9.104 4.398 5.748 7.146 2.396 4.398M5.748 7.146V.712M1.438 9.583h8.624" stroke="currentColor" stroke-linecap="round" stroke-linejoin="round"/></svg><svg viewBox="0 0 26 21" fill="none" id="email" xmlns="http://www.w3.org/2000/svg"><path d="M5.53 4.558a1 1 0 1 0-1.06 1.696l8 5a1 1 0 0 0 1.06 0l8-5a1 1 0 0 0-1.06-1.696L13 9.227 5.53 4.558ZM8.6 10.606a1 1 0 0 1 .2 1.4l-3 4a1 1 0 0 1-1.6-1.2l3-4a1 1 0 0 1 1.4-.2ZM17.2 12.006a1 1 0 0 1 1.6-1.2l3 4a1 1 0 0 1-1.6 1.2l-3-4Z" fill="currentColor"/><path fill-rule="evenodd" clip-rule="evenodd" d="M4 .406a4 4 0 0 0-4 4v12a4 4 0 0 0 4 4h18a4 4 0 0 0 4-4v-12a4 4 0 0 0-4-4H4Zm-2 4a2 2 0 0 1 2-2h18a2 2 0 0 1 2 2v12a2 2 0 0 1-2 2H4a2 2 0 0 1-2-2v-12Z" fill="currentColor"/></svg><svg viewBox="0 0 30 27" fill="none" id="heart" xmlns="http://www.w3.org/2000/svg"><path d="m2.725 2.712.743.669-.743-.67Zm12 2.5-.781.624a1 1 0 0 0 1.561 0l-.78-.624Zm-9 11.5-.708.707.708-.707Zm9 9-.707.707a1 1 0 0 0 1.414 0l-.707-.707Zm9-9 .707.707-.707-.707Zm3-14-.744.669.744-.67ZM3.468 3.38C4.898 1.792 6.894 1.705 9 2.454c2.12.754 4.059 2.277 4.943 3.382l1.561-1.249C14.39 3.192 12.143 1.449 9.671.569 7.185-.315 4.18-.402 1.98 2.043L3.468 3.38Zm2.964 12.624c-.943-.943-2.723-3.084-3.718-5.543-.991-2.45-1.133-4.985.754-7.081L1.98 2.043C-.632 4.946-.274 8.41.861 11.212c1.129 2.79 3.1 5.15 4.156 6.207l1.415-1.414Zm9 9-9-9-1.415 1.414 9 9 1.415-1.414Zm0 1.414 9-9-1.415-1.414-9 9 1.415 1.414Zm9-9c1.057-1.057 3.027-3.417 4.157-6.207 1.134-2.801 1.492-6.266-1.121-9.17L25.98 3.382c1.887 2.096 1.745 4.632.754 7.08-.995 2.46-2.775 4.6-3.718 5.544l1.415 1.414Zm3.036-15.376c-2.2-2.445-5.204-2.358-7.69-1.474-2.472.88-4.718 2.623-5.834 4.018l1.561 1.25c.885-1.106 2.823-2.629 4.943-3.383 2.107-.75 4.104-.662 5.533.927l1.487-1.338Z" fill="currentColor"/></svg><svg viewBox="0 0 32 32" fill="none" id="instagram" xmlns="http://www.w3.org/2000/svg"><path d="M15.728 0c-4.272 0-4.809.018-6.486.094-1.675.077-2.818.344-3.818.73A7.703 7.703 0 0 0 2.638 2.64 7.674 7.674 0 0 0 .825 5.428c-.39 1-.654 2.146-.73 3.818C.017 10.924 0 11.46 0 15.732s.018 4.809.094 6.486c.077 1.675.344 2.818.73 3.818.402 1.035.94 1.913 1.814 2.786a7.685 7.685 0 0 0 2.786 1.813c1 .39 2.145.654 3.818.73 1.677.077 2.214.095 6.486.095s4.808-.018 6.486-.095c1.675-.075 2.818-.343 3.818-.73a7.723 7.723 0 0 0 2.788-1.813 7.714 7.714 0 0 0 1.813-2.786c.387-1 .654-2.145.73-3.818.076-1.677.095-2.214.095-6.486 0-4.271-.019-4.808-.095-6.486-.076-1.675-.343-2.818-.73-3.818A7.753 7.753 0 0 0 28.82 2.64 7.674 7.674 0 0 0 26.032.827c-1-.39-2.145-.654-3.818-.73C20.536.02 20 .002 15.728.002V0Zm0 2.834c4.2 0 4.698.016 6.357.092 1.534.07 2.368.327 2.921.542a4.873 4.873 0 0 1 1.809 1.177c.548.55.89 1.074 1.175 1.809.214.555.472 1.387.542 2.921.076 1.66.092 2.157.092 6.357s-.016 4.698-.092 6.357c-.07 1.535-.328 2.367-.542 2.922a4.897 4.897 0 0 1-1.175 1.809c-.55.55-1.074.891-1.809 1.177-.553.214-1.387.472-2.921.541-1.66.076-2.157.093-6.357.093s-4.698-.017-6.357-.093c-1.535-.069-2.367-.327-2.922-.541A4.873 4.873 0 0 1 4.64 26.82a4.873 4.873 0 0 1-1.177-1.81c-.214-.554-.472-1.386-.541-2.92-.076-1.66-.093-2.157-.093-6.358 0-4.2.017-4.698.093-6.357.069-1.534.327-2.366.541-2.921A4.873 4.873 0 0 1 4.64 4.645a4.873 4.873 0 0 1 1.81-1.177c.554-.215 1.386-.473 2.92-.542 1.66-.076 2.157-.092 6.358-.092Z" fill="currentColor"/><path d="M15.728 20.977a5.244 5.244 0 1 1 0-10.489 5.244 5.244 0 0 1 0 10.489Zm0-13.323a8.08 8.08 0 0 0 0 16.157 8.079 8.079 0 0 0 0-16.157ZM26.013 7.334a1.888 1.888 0 0 1-3.774 0 1.888 1.888 0 0 1 3.774 0Z" fill="currentColor"/></svg><svg viewBox="0 0 27 27" fill="none" id="like" xmlns="http://www.w3.org/2000/svg"><path d="M25.973 11.94c0-.48-.179-.9-.537-1.26-.359-.36-.777-.54-1.255-.54H15.25l1.344-6.33v-.3c0-.258-.03-.48-.09-.66a.913.913 0 0 0-.268-.42L15.07 1.5l-8.305 8.64H1V25.5h19.029c.454 0 .884-.15 1.296-.444.413-.3.705-.66.884-1.086l3.764-8.7c.06-.138 0-3.33 0-3.33Z" stroke="currentColor" stroke-width="2" stroke-miterlimit="10" stroke-linejoin="round"/></svg><svg fill="none" viewBox="0 0 27 30" id="login" xmlns="http://www.w3.org/2000/svg"><path d="M1.192 28.723c1.577-3.383 6.374-5.846 12.056-5.846 5.683 0 10.44 2.44 12.033 5.797M13.15 17.772a8.276 8.276 0 1 0 .001-16.552 8.276 8.276 0 0 0 0 16.552ZM2.558 9.496h21.186M13.135 1.22V5.73M17.2 2.78v2.951M9.07 2.78v2.951" stroke="currentColor" stroke-width="2" stroke-linecap="round" stroke-linejoin="round"/></svg><svg viewBox="0 0 27 27" fill="none" id="map" xmlns="http://www.w3.org/2000/svg"><path fill-rule="evenodd" clip-rule="evenodd" d="M17.5 4.703a4.002 4.002 0 0 1-3 3.874v8.126a1 1 0 1 1-2 0V8.577a4.002 4.002 0 0 1 1-7.874 4 4 0 0 1 4 4Zm-4-2a2 2 0 1 0 0 4 2 2 0 0 0 0-4Z" fill="currentColor"/><path fill-rule="evenodd" clip-rule="evenodd" d="M10.5 22.01v-9.932a1 1 0 0 0 .351-1.936l-.995-.373a1.002 1.002 0 0 0-.712 0l-7.995 2.998a1 1 0 0 0-.649.936v12a1 1 0 0 0 1.351.937L9.5 23.77l7.644 2.866.022.009a1 1 0 0 0 .69-.009l7.995-2.997a1 1 0 0 0 .649-.937v-12a1 1 0 0 0-1.351-.936L17.5 12.635l-.649-.243a1 1 0 1 0-.702 1.873l.351.131v9.864l-6-2.25Zm-2-9.864v9.864l-6 2.25v-9.864l6-2.25Zm16 9.864-6 2.25v-9.864l6-2.25v9.864Z" fill="currentColor"/></svg><svg viewBox="0 0 24 30" fill="none" id="marker" xmlns="http://www.w3.org/2000/svg"><path fill-rule="evenodd" clip-rule="evenodd" d="M12.009 29.992 12 30v-.008l-.023-.02c-4.016-3.418-7.016-6.591-8.992-9.525C.998 17.508 0 14.794 0 12.29c0-3.741 1.208-6.725 3.615-8.952C6.03 1.11 8.828 0 12 0c3.172 0 5.97 1.11 8.378 3.337C22.793 5.564 24 8.547 24 12.297c0 2.497-.997 5.219-2.977 8.158-1.728 2.555-4.226 5.29-7.494 8.212-.49.438-.996.88-1.52 1.325ZM2 12.29C2 9.021 3.033 6.6 4.972 4.806 7.03 2.909 9.347 2 12 2c2.653 0 4.97.91 7.02 2.805l.002.002C20.967 6.601 22 9.02 22 12.297c0 1.961-.787 4.295-2.636 7.04-1.64 2.424-4.075 5.093-7.36 8.01-3.29-2.92-5.727-5.592-7.36-8.017l-.002-.003C2.787 16.583 2 14.257 2 12.29ZM12 15a3 3 0 1 0 0-6 3 3 0 0 0 0 6Z" fill="currentColor"/></svg><svg fill="none" viewBox="0 0 20 33" id="menu-activity" xmlns="http://www.w3.org/2000/svg"><path d="M6.915 1 1 16.622h9.153L5.573 32 19 10.679h-8.235L14.706 1H6.915Z" stroke="currentColor" stroke-width="1.8" stroke-linecap="round" stroke-linejoin="round"/></svg><svg fill="none" viewBox="0 0 34 23" id="menu-clothes" xmlns="http://www.w3.org/2000/svg"><path d="M17.003 5.131v16.91h7.125l.506-11.91 3.602 9.496 4.388-1.572-5.899-13.553M16.886 5.139c-2.832 0-3.654-1.909-3.602-4.139h-1.028C9.916 1 8.31 2.362 7.282 4.502L1.376 18.055l4.388 1.572 3.601-9.504.507 11.911h7.131V5.131c-.044 0-.073.015-.117.015v-.007Z" stroke="currentColor" stroke-width="1.8" stroke-linecap="round" stroke-linejoin="round"/><path d="M26.725 4.502C25.698 2.355 24.091 1 21.751 1h-1.028c.052 2.238-.77 4.139-3.602 4.139l-.118-.015" stroke="currentColor" stroke-width="1.8" stroke-linecap="round" stroke-linejoin="round"/><path d="M20.724 1s-1.85.344-3.72.344c-1.871 0-3.72-.344-3.72-.344" stroke="currentColor" stroke-width="1.8" stroke-linecap="round" stroke-linejoin="round"/></svg><svg fill="none" viewBox="0 0 19 31" id="menu-gloves" xmlns="http://www.w3.org/2000/svg"><path d="M8.096 3.163c0-.623-.626-1.236-1.633-1.236-1.007 0-1.485 1.028-1.485 1.911v10.723M14.336 4.706v-1.22c0-.832-.595-1.575-1.409-1.658-.93-.088-1.713.654-1.713 1.584v-.748c0-.83-.596-1.574-1.41-1.657-.93-.088-1.713.655-1.713 1.585" stroke="currentColor" stroke-width="1.8" stroke-linecap="round" stroke-linejoin="round"/><path d="m4.973 12.898-1.078-2.706a1.484 1.484 0 0 0-2.172-.759 1.542 1.542 0 0 0-.62 1.865l2.95 7.284c1.17 3.06 1.007 4.02 1.007 4.02s.025.91-.199 2.188L4.15 30H16.93l-.483-5.444c-.117-1.21-.148-1.761-.148-1.761 0-2.748.885-4.364.885-6.878V5.475c0-.759-.544-1.434-1.281-1.507-.85-.083-1.562.598-1.562 1.444M14.336 4.706v7.22M11.213 3.418v8.509M8.096 2.602v9.325M5.161 24.69h4.603" stroke="currentColor" stroke-width="1.8" stroke-linecap="round" stroke-linejoin="round"/></svg><svg viewBox="0 0 34 27" fill="none" id="menu-new" xmlns="http://www.w3.org/2000/svg"><path d="M30.386 14.82 3.124 25.409C2.012 25.84.84 24.92 1.018 23.75l1.627-10.844c.081-.546.45-1.006.969-1.206L30.876 1.11c1.112-.433 2.283.488 2.106 1.658L31.355 13.61a1.535 1.535 0 0 1-.969 1.206v.003Z" stroke="currentColor" stroke-width="1.8" stroke-miterlimit="10"/><path d="m10.737 19.77-2.999-3.694-.072.028.178 4.791-1.593.62-.281-7.932 1.356-.526 2.97 3.664.073-.028-.175-4.75 1.592-.619.286 7.93-1.335.519v-.003ZM18.362 16.804l-4.706 1.83-.281-7.931 4.697-1.828.058 1.538-3.005 1.169.058 1.697 2.83-1.101.05 1.389-2.83 1.101.06 1.768 3.015-1.174.054 1.54v.002ZM20.857 15.835l-2.029-7.252 1.757-.684 1.099 5.123.086-.035.959-5.923 1.351-.526 1.396 5.007.087-.035.696-5.821L28.027 5l-1.461 8.61-1.61.627-1.391-4.543-.073.028-1.005 5.475-1.635.636.005.002Z" fill="currentColor"/></svg><svg fill="none" viewBox="0 0 28 31" id="menu-other" xmlns="http://www.w3.org/2000/svg"><path d="M22.982 25.694 17.718 2.33A1.704 1.704 0 0 0 16.058 1h-4.111a1.7 1.7 0 0 0-1.659 1.33l-5.27 23.364" stroke="currentColor" stroke-width="1.8" stroke-linecap="round" stroke-linejoin="round"/><path d="M6.806 25.694H1v4.183h26v-4.183H15.788M21.476 19.018H6.912M19.57 10.541H8.435" stroke="currentColor" stroke-width="1.8" stroke-linecap="round" stroke-linejoin="round"/></svg><svg fill="none" viewBox="0 0 34 35" id="menu-outlet" xmlns="http://www.w3.org/2000/svg"><path d="M16.008 31.992a3 3 0 0 1-4.242 0l-9.258-9.257a3 3 0 0 1 0-4.243l13.99-13.99a3 3 0 0 1 2.182-.879l9.252.183a3 3 0 0 1 2.94 2.991l.027 9.053a3 3 0 0 1-.879 2.13L16.008 31.992Z" stroke="currentColor" stroke-width="1.8" stroke-linecap="round" stroke-linejoin="round"/><path d="M21.677 12.826a2.18 2.18 0 1 0 3.082-3.083 2.18 2.18 0 0 0-3.082 3.083Z" stroke="currentColor" stroke-width="1.8" stroke-linecap="round" stroke-linejoin="round"/></svg><svg fill="none" viewBox="0 0 30 33" id="menu-profession" xmlns="http://www.w3.org/2000/svg"><path d="M19.767 21.887c-.42-.569-.76-1.316-.424-2.838M9.99 19.045c.335 1.522-.175 2.51-.333 2.837" stroke="currentColor" stroke-width="1.8" stroke-linecap="round" stroke-linejoin="round"/><path d="M7.96 11.802c.416 5.924 2.382 7.849 3.382 8.848.543.544 1.904.818 3.277.822h.1c1.373-.005 2.733-.278 3.277-.822 1.016-1.016 3.028-2.995 3.397-9.122M28.42 31.365c-.075-.605-.212-3.434-.448-4.355-.763-2.97-8.205-5.128-8.205-5.128s.083 3.485-5.057 3.485c-5.14 0-5.057-3.485-5.057-3.485s-7.442 2.153-8.205 5.128c-.236.92-.373 3.75-.448 4.355M16.27 1.299c0-.096-.058-.183-.145-.208 0 0-.473-.091-1.452-.091-.98 0-1.452.091-1.452.091-.087.025-.145.108-.145.208v8.047M18.912 5.795v-2.72c-.526-.387-1.472-.868-2.256-.955" stroke="currentColor" stroke-width="1.8" stroke-linecap="round" stroke-linejoin="round"/><path d="M9.662 3.73C7.567 5.8 7.06 7.438 6.944 8.59l-.05.49H6.34c-.568 0-.41 2.203.871 2.203h.133c.162 0 .323.05.464.14.112.075.22.154.332.233.913.651 1.398 1.46 6.534 1.46h.004c5.135 0 5.62-.809 6.533-1.46.112-.079.22-.158.332-.232a.849.849 0 0 1 .465-.141h.133c1.281 0 1.439-2.203.87-2.203h-.555l-.05-.49c-.112-1.153-.618-2.787-2.717-4.861" stroke="currentColor" stroke-width="1.8" stroke-linecap="round" stroke-linejoin="round"/><path d="M12.69 2.12c-.784.083-1.73.568-2.257.954v2.721M16.27 1.299v8.047" stroke="currentColor" stroke-width="1.8" stroke-linecap="round" stroke-linejoin="round"/></svg><svg fill="none" viewBox="0 0 28 32" id="menu-sale" xmlns="http://www.w3.org/2000/svg"><rect x="21.226" y="2.173" width="3.358" height="31.429" rx="1.679" transform="rotate(34.76 21.226 2.173)" stroke="currentColor" stroke-width="1.8" stroke-linejoin="round"/><circle cx="22" cy="24" r="5.1" stroke="currentColor" stroke-width="1.8"/><circle cx="6" cy="8" r="5.1" stroke="currentColor" stroke-width="1.8"/></svg><svg fill="none" viewBox="0 0 27 29" id="menu-shoes" xmlns="http://www.w3.org/2000/svg"><path d="M25.99 1c-.116 4.566-1.162 10.345-1.162 16.826 0 1.593.858 2.869.858 5.472s-.382 3.577-.382 3.577c-.162.671-.392 1.145-1.087 1.145h-6.458c-.35 0-.69-.12-.957-.344 0 0-1.11-1.025-2.28-.598-.989.359-2.207.942-4.534.942-3.577 0-8.268 0-8.65-.974 0 0-.888-3.264 1.025-4.805 2.244-1.806 8.31.12 9.675-3.14C13.183 16.37 12.32 2.87 12.32 1H26h-.01Z" stroke="currentColor" stroke-width="1.8" stroke-linecap="round" stroke-linejoin="round"/><path d="M1.13 25.209s3.059.468 5.616.468M25.618 25.052s-1.662.39-4.601.39M12.498 4.993h13.214" stroke="currentColor" stroke-width="1.8" stroke-linecap="round" stroke-linejoin="round"/></svg><svg fill="none" viewBox="0 0 33 32" id="menu-siz" xmlns="http://www.w3.org/2000/svg"><path d="M18.518 2.228c2.442 0 6.67 1.984 6.67 8.399.232.085.44.18.614.283.42.25.406.874-.023 1.11-.94.515-3.482 1.314-9.745 1.314-6.264 0-8.593-.799-9.538-1.318a.643.643 0 0 1-.023-1.11c.175-.104.378-.199.61-.284 0-6.415 4.227-8.399 6.669-8.399" stroke="currentColor" stroke-width="1.8" stroke-linecap="round" stroke-linejoin="round"/><path d="M19.104 7.91c-.213-1.865-.756-5.824-.85-6.13-.137-.459-.69-.78-1.328-.78H15.34c-.638 0-1.186.321-1.327.78-.095.306-.614 4.26-.827 6.13M16.213 18.41c-1.904 0-1.162 2.178-4.729 2.178-3.566 0-3.183-2.405-3.183-3.878 0-1.474 2.546-2.372 7.831-2.372 5.286 0 7.832.898 7.832 2.372 0 1.473.383 3.878-3.183 3.878-3.567 0-2.825-2.178-4.729-2.178M19.354 26.378c-.746 1.596-.317 3.278.959 3.75 1.275.473 2.91-.44 3.656-2.036s.316-3.278-.959-3.75c-1.275-.473-2.91.439-3.656 2.036ZM12.916 26.378c.746 1.596.316 3.278-.96 3.75-1.275.473-2.909-.44-3.655-2.036-.747-1.596-.317-3.278.959-3.75 1.275-.473 2.91.439 3.656 2.036Z" stroke="currentColor" stroke-width="1.8" stroke-linecap="round" stroke-linejoin="round"/><path d="m11.749 24.833 2.735-1.58c.732-.646 2.565-.646 3.297 0l2.735 1.58M13.194 28.683s1.313.902 2.938.902c1.625 0 2.854-.902 2.854-.902M28.93 12.88l.07-2.456c-.151-2.173-1.667-4.246-4.293-5.87L22 2.88M3.106 22.416h.828c.856 0 1.04-.71 1.04-1.583v-6.14c0-.874-.184-1.583-1.04-1.583h-.828v1.986M3.115 12.88 3 9.93c.247-2.61 2.718-5.1 7-7.05M3.106 13.116c-1.673 0-2.106.09-2.106 4.647 0 4.556.433 4.653 2.106 4.653M29.164 22.416h-.828c-.856 0-1.04-.71-1.04-1.583v-6.14c0-.874.184-1.583 1.04-1.583h.828v1.986M29.164 13.116c1.673 0 2.106.09 2.106 4.647 0 4.556-.433 4.653-2.106 4.653" stroke="currentColor" stroke-width="1.8" stroke-linecap="round" stroke-linejoin="round"/></svg><svg viewBox="0 0 30 30" fill="none" id="phone" xmlns="http://www.w3.org/2000/svg"><path d="M16.06 13.884V4.76h2.313v5.197L27.51.833l1.658 1.656-9.098 9.085h5.127v2.31H16.06Zm10.794 15.283c-3.138 0-6.253-.77-9.344-2.31a31.84 31.84 0 0 1-8.35-6.005 31.675 31.675 0 0 1-6.014-8.339C1.604 9.426.833 6.315.833 3.182c0-.485.17-.901.502-1.232.331-.331.747-.5 1.233-.5h5.397c.362 0 .678.123.948.361.27.247.447.57.517.986l1.04 4.85c.054.362.047.686-.015.978-.062.293-.2.547-.4.747L6.198 13.26c1.442 2.387 3.053 4.466 4.834 6.237A26.697 26.697 0 0 0 17.11 24l3.662-3.773c.254-.285.555-.477.886-.593.332-.115.671-.139 1.003-.062l4.587 1.001c.386.077.71.27.964.578.254.308.385.67.385 1.078v5.197c0 .485-.17.9-.5 1.232-.332.33-.749.5-1.235.5l-.007.008ZM5.035 11.15l3.123-3.156-.887-4.235H3.146c0 1.001.154 2.094.463 3.288.308 1.193.786 2.556 1.426 4.103ZM19.26 25.125c1.056.485 2.197.885 3.43 1.193 1.234.308 2.43.485 3.585.539v-4.12l-3.97-.807-3.045 3.195Z" fill="currentColor"/></svg><svg fill="none" viewBox="0 0 86 87" id="play" xmlns="http://www.w3.org/2000/svg"><circle cx="43" cy="43.067" r="43" fill="#000"/><g clip-path="url(#bna)"><path d="M60 43.067 31.5 59.52V26.612L60 43.067Z" fill="#FFE800" stroke="#FFE800" stroke-width="2"/></g><defs><clipPath id="bna"><path fill="#fff" transform="translate(25 25.067)" d="M0 0h36v36H0z"/></clipPath></defs></svg><svg viewBox="0 0 36 37" fill="none" id="plus-dashed" xmlns="http://www.w3.org/2000/svg"><path fill-rule="evenodd" clip-rule="evenodd" d="M1 27.5h2v3a3 3 0 0 0 3 3h3v2H6a5 5 0 0 1-5-5v-3Zm0-6h2v-6H1v6Zm0-12h2v-3a3 3 0 0 1 3-3h3v-2H6a5 5 0 0 0-5 5v3Zm14-8v2h6v-2h-6Zm12 0v2h3a3 3 0 0 1 3 3v3h2v-3a5 5 0 0 0-5-5h-3Zm8 14h-2v6h2v-6Zm0 12h-2v3a3 3 0 0 1-3 3h-3v2h3a5 5 0 0 0 5-5v-3Zm-14 8v-2h-6v2h6ZM18 12.5a1 1 0 0 1 1 1v10a1 1 0 1 1-2 0v-10a1 1 0 0 1 1-1Z" fill="currentColor"/><path fill-rule="evenodd" clip-rule="evenodd" d="M12 18.5a1 1 0 0 1 1-1h10a1 1 0 1 1 0 2H13a1 1 0 0 1-1-1Z" fill="currentColor"/></svg><svg viewBox="0 0 30 30" fill="none" id="rocket" xmlns="http://www.w3.org/2000/svg"><path d="m4.769 12.426 3.718 1.593c.421-.85.87-1.685 1.354-2.513.477-.828.99-1.614 1.522-2.371l-2.77-.567-3.824 3.858Zm5.402 2.867L14.836 20a27.884 27.884 0 0 0 3.753-2.088c1.172-.779 2.119-1.536 2.841-2.265 1.895-1.911 3.284-3.872 4.175-5.875.89-2.003 1.368-4.269 1.438-6.796-2.505.071-4.75.553-6.735 1.452-1.985.898-3.929 2.3-5.823 4.211-.722.73-1.473 1.685-2.245 2.867a28.294 28.294 0 0 0-2.07 3.787Zm8.032-3.398c-.47-.474-.701-1.054-.701-1.755 0-.7.231-1.281.701-1.756.47-.474 1.046-.707 1.74-.707.695 0 1.27.233 1.74.707.47.475.701 1.055.701 1.756 0 .7-.231 1.281-.701 1.755-.47.475-1.045.708-1.74.708-.694 0-1.27-.233-1.74-.708Zm-.526 13.556 3.824-3.858-.562-2.796a28.68 28.68 0 0 1-2.35 1.536c-.82.481-1.648.941-2.49 1.366l1.578 3.752ZM29.112.888c.21 3.207-.19 6.137-1.192 8.778-1.004 2.64-2.666 5.131-4.981 7.467l-.07.071-.07.071.771 3.893c.07.354.056.694-.056 1.027a2.171 2.171 0 0 1-.547.884l-5.998 6.088-2.982-7.008-5.963-6.017-6.938-3.008 6.033-6.052a2.13 2.13 0 0 1 .877-.545c.33-.106.666-.128 1.017-.05l3.859.779s.049-.042.07-.05c.02-.014.049-.028.07-.05 2.315-2.335 4.785-4.013 7.401-5.039 2.617-1.048 5.521-1.451 8.7-1.239ZM3.436 20.425c.82-.828 1.817-1.246 2.996-1.253 1.178-.014 2.181.396 2.995 1.225.821.828 1.22 1.833 1.214 3.03-.007 1.195-.428 2.2-1.249 3.022-.61.615-1.55 1.118-2.827 1.522-1.277.403-3.185.778-5.732 1.132.351-2.57.723-4.509 1.102-5.804.386-1.296.884-2.251 1.494-2.867l.007-.007Zm1.473 1.522c-.33.354-.617.906-.877 1.663-.26.758-.477 1.72-.666 2.902 1.171-.19 2.126-.41 2.876-.672.75-.262 1.298-.552 1.649-.885.442-.403.673-.899.687-1.5.014-.602-.196-1.126-.617-1.572a2.148 2.148 0 0 0-1.564-.623 1.946 1.946 0 0 0-1.488.694v-.007Z" fill="currentColor"/></svg><svg viewBox="0 0 19 19" fill="none" id="search" xmlns="http://www.w3.org/2000/svg"><circle cx="8" cy="8" r="7" stroke="currentColor" stroke-width="1.3"/><path stroke="currentColor" stroke-width="1.3" stroke-linecap="round" d="M13.414 13 18 17.586"/></svg><svg viewBox="0 0 24 24" fill="none" id="settings" xmlns="http://www.w3.org/2000/svg"><path d="M4 6h10M4 12h5M4 18h5M17 6h3M12 12h8M12 18h8M14 4v4M9 10v4M12 16v4" stroke="currentColor" stroke-width="2" stroke-linecap="round"/></svg><svg fill="none" viewBox="0 0 88 84" id="star-big" xmlns="http://www.w3.org/2000/svg"><path d="m44 0 16.223 23.671 27.526 8.114-17.5 22.744.79 28.686L44 73.6l-27.038 9.615.789-28.686L.25 31.785l27.526-8.114L44 0Z" fill="#FFE800"/></svg><svg fill="none" viewBox="0 0 21 19" id="star-grey" xmlns="http://www.w3.org/2000/svg"><path d="m10.5 0 3.333 5.631 6.653 1.279-4.594 4.759.78 6.421L10.5 15.4l-6.172 2.69.78-6.421-4.594-4.76 6.653-1.278L10.5 0Z" fill="#979797"/></svg><svg fill="none" viewBox="0 0 20 19" id="star-purple" xmlns="http://www.w3.org/2000/svg"><path d="m10 0 3.174 5.631 6.337 1.279-4.375 4.759.742 6.421L10 15.4l-5.878 2.69.742-6.421L.49 6.909l6.337-1.278L10 0Z" fill="#583F99"/></svg><svg fill="none" viewBox="0 0 20 19" id="star-yellow" xmlns="http://www.w3.org/2000/svg"><path d="m10 0 3.174 5.631 6.337 1.279-4.375 4.759.742 6.421L10 15.4l-5.878 2.69.742-6.421L.49 6.909l6.337-1.278L10 0Z" fill="#FFE800"/></svg><svg viewBox="0 0 31 19" fill="none" id="vk" xmlns="http://www.w3.org/2000/svg"><path d="M30.921 17.513c-.306-.984-1.402-2.41-2.858-4.102-.792-.963-1.977-2.002-2.337-2.52-.502-.668-.36-.964 0-1.558 0 0 4.133-6.007 4.564-8.046C30.506.546 30.29 0 29.263 0H25.87c-.863 0-1.26.47-1.474.989 0 0-1.725 4.338-4.168 7.155-.79.817-1.15 1.076-1.58 1.076-.216 0-.527-.26-.527-1V1.287c0-.89-.252-1.287-.97-1.287h-5.328c-.538 0-.863.413-.863.805 0 .844 1.223 1.04 1.348 3.412v5.155c0 1.128-.198 1.335-.63 1.335-1.149 0-3.948-4.357-5.606-9.344C5.75.395 5.422.003 4.555.003H1.163C.193.002 0 .472 0 .99c0 .927 1.15 5.524 5.353 11.606C8.156 16.75 12.104 19 15.696 19c2.156 0 2.423-.5 2.423-1.363V14.5c0-1 .205-1.2.887-1.2.503 0 1.365.26 3.377 2.262 2.298 2.375 2.678 3.437 3.972 3.437h3.392c.97 0 1.454-.5 1.174-1.487v.002Z" fill="currentColor"/></svg><svg viewBox="0 0 30 21" fill="none" id="youtube" xmlns="http://www.w3.org/2000/svg"><path d="M29.374 3.28A3.756 3.756 0 0 0 26.722.627C24.38 0 15 0 15 0S5.619 0 3.28.628A3.755 3.755 0 0 0 .628 3.279C0 5.62 0 10.5 0 10.5s0 4.882.626 7.22a3.758 3.758 0 0 0 2.652 2.652C5.62 21 14.998 21 14.998 21s9.381 0 11.722-.628a3.755 3.755 0 0 0 2.652-2.651c.626-2.34.626-7.221.626-7.221s0-4.882-.626-7.22h.002ZM11.932 14.931V6.068l7.84 4.432-7.84 4.432Z" fill="currentColor"/></svg></svg>