<svg width="71" height="70" viewBox="0 0 71 70" fill="none" xmlns="http://www.w3.org/2000/svg">
<path d="M27.2027 29.4004C24.1056 29.4004 21.603 31.9118 21.603 35C21.603 38.0883 24.1145 40.5997 27.2027 40.5997C30.291 40.5997 32.8023 38.0883 32.8023 35C32.8023 31.9118 30.291 29.4004 27.2027 29.4004Z" fill="#5A4499"/>
<path d="M43.7973 29.4004C40.7002 29.4004 38.1978 31.9118 38.1978 35C38.1978 38.0883 40.7091 40.5997 43.7973 40.5997C46.8856 40.5997 49.397 38.0883 49.397 35C49.397 31.9118 46.8856 29.4004 43.7973 29.4004Z" fill="#5A4499"/>
<path d="M0.5 0V70H70.5V0H0.5ZM65.3973 28.7614C62.9303 16.9232 53.5858 7.5786 41.7476 5.10269H65.3973V28.7614ZM61.1643 35.0089C61.1643 49.1633 49.6545 60.6732 35.5001 60.6732C21.3456 60.6732 9.83572 49.1633 9.83572 35.0089C9.83572 20.8544 21.3456 9.34457 35.5001 9.34457C49.6545 9.34457 61.1643 20.8544 61.1643 35.0089ZM29.2526 5.11154C17.4143 7.57858 8.06973 16.9232 5.60269 28.7614V5.11154H29.2526ZM5.60269 41.2563C8.06973 53.0946 17.4143 62.4391 29.2526 64.9062H5.60269V41.2563ZM41.7476 64.9062C53.5858 62.4391 62.9303 53.0946 65.3973 41.2474V64.9062H41.7476Z" fill="#5A4499"/>
</svg>
