<svg width="71" height="70" viewBox="0 0 71 70" fill="none" xmlns="http://www.w3.org/2000/svg">
<path fill-rule="evenodd" clip-rule="evenodd" d="M0.833496 0V70H70.8335V0H0.833496ZM65.7308 28.7614C63.2638 16.9232 53.9193 7.5786 42.081 5.10269H65.7308V28.7614ZM61.4978 35.0089C61.4978 49.1633 49.988 60.6732 35.8335 60.6732C21.6791 60.6732 10.1692 49.1633 10.1692 35.0089C10.1692 20.8545 21.6791 9.34457 35.8335 9.34457C49.988 9.34457 61.4978 20.8545 61.4978 35.0089ZM29.5861 5.11156C17.7478 7.5786 8.40322 16.9232 5.93618 28.7614V5.11156H29.5861ZM5.93618 41.2563C8.40322 53.0946 17.7478 62.4391 29.5861 64.9062H5.93618V41.2563ZM42.081 64.9062C53.9193 62.4391 63.2638 53.0946 65.7308 41.2475V64.9062H42.081Z" fill="#5A4499"/>
<path fill-rule="evenodd" clip-rule="evenodd" d="M35.8336 29.4004C32.7365 29.4004 30.2339 31.9118 30.2339 35C30.2339 38.0883 32.7453 40.5997 35.8336 40.5997C38.9218 40.5997 41.4332 38.0883 41.4332 35C41.4332 31.9118 38.9218 29.4004 35.8336 29.4004Z" fill="#5A4499"/>
</svg>
