<svg width="71" height="70" viewBox="0 0 71 70" fill="none" xmlns="http://www.w3.org/2000/svg">
<path d="M40.219 58.9081C43.5042 58.2225 46.5467 56.8656 49.2106 55.0016L46.3895 52.1806C43.1614 54.2731 39.3121 55.4943 35.1913 55.4943C31.0705 55.4943 27.2067 54.2659 23.9715 52.1663L21.1506 54.9873C23.8216 56.8513 26.864 58.2154 30.1635 58.901H17.2369L13.1304 63.0075H57.2236L53.1171 58.901H40.219V58.9081Z" fill="#5A4499"/>
<path d="M63.3586 61.6719V12.7794L59.252 16.8859V29.8196C58.5664 26.5201 57.2024 23.4706 55.3312 20.8067L52.5103 23.6277C54.6099 26.8629 55.8383 30.7123 55.8383 34.8474C55.8383 40.1966 53.7815 45.0744 50.432 48.7453L36.6841 34.9974L69.8505 1.83105C70.2718 1.40969 70.2718 0.731222 69.8505 0.317C69.4291 -0.0972227 68.7506 -0.104364 68.3363 0.317L61.9802 6.67319H8.35983L2.00373 0.317C1.58236 -0.104364 0.903811 -0.104364 0.489588 0.317C0.0682245 0.738364 0.0682245 1.41683 0.489588 1.83105L33.656 34.9974L19.9224 48.731C16.58 45.0601 14.5303 40.1894 14.5303 34.8474C14.5303 30.7195 15.7516 26.8701 17.8441 23.642L15.0231 20.821C13.1663 23.4849 11.8021 26.5273 11.1165 29.8196V16.9216L7.01002 12.8151V61.6433L0.482527 68.1709C0.0611629 68.5923 0.0611629 69.2707 0.482527 69.685C0.689638 69.8921 0.968122 69.9991 1.23951 69.9991C1.5109 69.9991 1.78947 69.8921 1.99658 69.685L35.1629 36.5186L68.3293 69.685C68.5364 69.8921 68.8149 69.9991 69.0863 69.9991C69.3577 69.9991 69.6362 69.8921 69.8433 69.685C70.2647 69.2636 70.2647 68.5851 69.8433 68.1709L63.3443 61.6719H63.3586ZM11.1308 39.8752C12.0593 44.3103 14.1947 48.2954 17.1585 51.502L11.1308 57.5297V39.8752ZM57.8809 10.7797L51.846 16.8145C48.6394 13.8435 44.6472 11.7081 40.2122 10.7797H57.8737H57.8809ZM30.1708 10.7797C25.7286 11.7081 21.7292 13.8506 18.5225 16.8288L12.4735 10.7797H30.1708ZM21.2935 19.5998C24.9644 16.2431 29.8423 14.1934 35.1986 14.1934C40.555 14.1934 45.4113 16.2431 49.0822 19.5855L35.1772 33.4905L21.2865 19.5998H21.2935ZM59.2592 39.8752V57.5654L53.2173 51.5235C56.1954 48.3097 58.3379 44.3174 59.2592 39.8752Z" fill="#5A4499"/>
</svg>
