<svg width="71" height="70" viewBox="0 0 71 70" fill="none" xmlns="http://www.w3.org/2000/svg">
<path d="M0.5 0V70H70.5V0H0.5ZM65.3973 28.7614C62.9303 16.9232 53.5858 7.5786 41.7476 5.10269H65.3973V28.7614ZM61.1643 35.0089C61.1643 49.1633 49.6545 60.6732 35.5001 60.6732C21.3456 60.6732 9.83572 49.1633 9.83572 35.0089C9.83572 20.8545 21.3456 9.34457 35.5001 9.34457C49.6545 9.34457 61.1643 20.8545 61.1643 35.0089ZM29.2526 5.11156C17.4143 7.5786 8.06973 16.9232 5.60269 28.7614V5.10269H29.2526V5.11156ZM5.60269 41.2563C8.06973 53.0946 17.4143 62.4392 29.2526 64.9062H5.60269V41.2563ZM41.7476 64.9062C53.5858 62.4392 62.9303 53.0946 65.3973 41.2475V64.9062H41.7476Z" fill="#5A4499"/>
</svg>
