<svg width="71" height="70" viewBox="0 0 71 70" fill="none" xmlns="http://www.w3.org/2000/svg">
<path d="M35.8375 57.465C37.3059 57.465 38.4913 56.2796 38.4913 54.8111V15.1978C38.4913 13.7293 37.3059 12.5439 35.8375 12.5439C34.369 12.5439 33.1836 13.7293 33.1836 15.1978V54.8111C33.1836 56.2796 34.369 57.465 35.8375 57.465Z" fill="#5A4499"/>
<path d="M20.0381 57.465C21.5066 57.465 22.692 56.2796 22.692 54.8111V15.1978C22.692 13.7293 21.5066 12.5439 20.0381 12.5439C18.5697 12.5439 17.3843 13.7293 17.3843 15.1978V54.8111C17.3843 56.2796 18.5697 57.465 20.0381 57.465Z" fill="#5A4499"/>
<path d="M51.6368 57.465C53.1052 57.465 54.2906 56.2796 54.2906 54.8111V15.1978C54.2906 13.7293 53.1052 12.5439 51.6368 12.5439C50.1683 12.5439 48.9829 13.7293 48.9829 15.1978V54.8111C48.9829 56.2796 50.1683 57.465 51.6368 57.465Z" fill="#5A4499"/>
<path d="M0.833008 0V70H70.833V0H0.833008ZM65.5253 64.6923H6.14073V5.30773H65.5253V64.6923Z" fill="#5A4499"/>
</svg>
