<svg width="71" height="70" viewBox="0 0 71 70" fill="none" xmlns="http://www.w3.org/2000/svg">
<path d="M6.93217 2.56799H64.1174C66.2408 2.56799 67.9692 4.29639 67.9692 6.41984V63.5803C67.9692 65.7038 66.2408 67.4322 64.1174 67.4322H6.93217C4.80871 67.4322 3.08032 65.7038 3.08032 63.5803V6.39515C3.08032 4.2717 4.80876 2.56799 6.90753 2.56799H6.93217Z" fill="white"/>
<path d="M6.90738 2.5679C4.78393 2.5679 3.08018 4.2963 3.08018 6.39506V63.5802C3.08018 65.7037 4.78393 67.4321 6.90738 67.4321H64.0926C66.216 67.4321 67.9197 65.7037 67.9197 63.5802V6.39506C67.9197 4.2716 66.1913 2.5679 64.0926 2.5679H6.90738ZM64.0926 70H6.90738C3.37652 70 0.512329 67.1358 0.512329 63.6049V6.39506C0.512329 2.8642 3.37652 0 6.90738 0H64.0926C67.6234 0 70.4876 2.8642 70.4876 6.39506V63.5802C70.4876 67.1111 67.6234 69.9753 64.0926 69.9753" fill="#5A4499"/>
<path d="M10.6355 12.741C9.94416 11.9755 8.53678 12.1237 7.49974 13.0619L6.33925 14.1484C5.37628 15.0126 5.25282 16.1484 6.01825 16.9879L20.2158 32.815L19.1541 36.8397L19.7961 37.5558L27.2035 30.7656L10.6355 12.741ZM9.9936 16.7163C9.64792 17.0126 9.1294 16.9879 8.8331 16.6669C8.5368 16.3459 8.56147 15.8274 8.88245 15.5311C9.22813 15.2101 9.72194 15.2348 10.0182 15.5805C10.3392 15.9014 10.3146 16.42 9.9936 16.7163ZM65.5491 58.8644V60.815H21.8701V58.8644H41.2529C35.5492 57.0619 27.6726 52.3212 17.4997 41.3582L28.043 31.7039L53.0553 58.8644H65.5491Z" fill="#5A4499"/>
<path d="M58.4874 13.901H56.2405C55.9936 13.901 55.8454 13.9504 55.796 14.0491C55.7467 14.1479 55.6973 14.296 55.6973 14.5183V21.2096C55.6973 21.2096 55.6726 21.3825 55.5985 21.4565C55.5245 21.5306 55.4504 21.5553 55.3516 21.5553H53.8208C53.8208 21.5553 53.6479 21.5059 53.5986 21.4565C53.5245 21.3825 53.4998 21.3084 53.4998 21.2096V14.4936C53.4998 13.7034 53.6726 13.1108 54.043 12.6911C54.4134 12.2713 55.1541 12.0491 56.2899 12.0491H58.5368C59.6726 12.0491 60.4133 12.2713 60.7837 12.6911C61.1294 13.1108 61.3269 13.7034 61.3269 14.4936V21.2096C61.3269 21.2096 61.3022 21.3825 61.2282 21.4565C61.1541 21.5306 61.08 21.5553 60.9812 21.5553H59.4257C59.4257 21.5553 59.2528 21.5059 59.1788 21.4565C59.1047 21.3825 59.08 21.3084 59.08 21.2096V14.5183C59.08 14.296 59.0553 14.1479 58.9813 14.0491C58.9072 13.9504 58.759 13.901 58.5121 13.901M51.1294 21.3084C51.1294 21.4812 51.0306 21.5553 50.8578 21.5553H49.1541C49.1541 21.5553 49.006 21.5306 48.9566 21.4565C48.9072 21.3825 48.8825 21.3084 48.8825 21.2343V13.4071C48.8825 13.4071 48.8824 13.2343 48.8331 13.2343C48.8084 13.2343 48.7096 13.4071 48.5368 13.7775L47.1788 16.4936C47.0553 16.7158 46.8825 16.8392 46.6109 16.8392H44.9071C44.6602 16.8392 44.4627 16.7405 44.3639 16.5676L43.1047 14.1232C42.8084 13.5306 42.6603 13.259 42.6356 13.259C42.6109 13.259 42.5862 13.3084 42.5862 13.4318V21.259C42.5862 21.259 42.5615 21.4318 42.5121 21.4812C42.4627 21.5553 42.3887 21.58 42.3146 21.58H40.6109C40.4133 21.58 40.3392 21.5059 40.3392 21.3331V9.72813C40.3392 9.5306 40.4133 9.38246 40.5368 9.259C40.6603 9.13554 40.8331 9.06147 41.0059 9.06147H42.3887C42.685 9.06147 42.8825 9.20962 43.0059 9.45653L44.7343 12.9627C45.3022 14.1232 45.5985 14.7158 45.6232 14.7652C45.6479 14.8146 45.6973 14.8392 45.722 14.8392C45.7714 14.8392 45.8208 14.7899 45.8701 14.6664L47.9689 10.4195C48.3146 9.70344 48.5121 9.33307 48.5615 9.259C48.6109 9.20962 48.6849 9.13554 48.7837 9.08616C48.8825 9.03678 48.9812 9.01208 49.08 9.01208H50.4627C50.6602 9.01208 50.8084 9.08616 50.9318 9.20962C51.0553 9.33307 51.1294 9.50591 51.1294 9.67875V21.2837V21.3084Z" fill="#5A4499"/>
</svg>
