<svg width="71" height="70" viewBox="0 0 71 70" fill="none" xmlns="http://www.w3.org/2000/svg">
<path d="M7.14736 2.54411H64.3527C66.4769 2.54411 68.2059 4.27311 68.2059 6.39732V63.6027C68.2059 65.7269 66.4769 67.4312 64.3774 67.4312H7.17205C5.04785 67.4312 3.31885 65.7022 3.31885 63.578V6.34793C3.31885 4.22372 5.04785 2.51941 7.14736 2.51941V2.54411Z" fill="white"/>
<path d="M7.14732 2.5441C5.02311 2.5441 3.31881 4.2731 3.31881 6.39731V63.6027C3.31881 65.7269 5.02311 67.4559 7.14732 67.4559H64.3527C66.4769 67.4559 68.1812 65.7269 68.1812 63.6027V6.39731C68.1812 4.2731 66.4522 2.5441 64.3527 2.5441H7.14732ZM64.3527 70H7.14732C3.61521 70 0.75 67.1348 0.75 63.6027V6.39731C0.75 2.8652 3.61521 0 7.14732 0H64.3527C67.8848 0 70.75 2.8652 70.75 6.39731V63.6027C70.75 67.1348 67.8848 70 64.3527 70Z" fill="#5A4499"/>
<path d="M66.2299 50.6599C66.551 49.005 65.3901 45.8681 61.2898 44.8801C58.227 44.1391 52.9165 43.818 49.4832 44.1885C48.4458 43.0523 44.889 42.4101 44.889 42.4101C39.4303 35.5187 35.4042 33.1969 35.4042 33.1969C34.8114 29.4425 31.8968 25.9845 31.8968 25.9845L31.8226 24.2555C31.6744 19.2167 29.8713 17.9076 27.2284 17.9076C25.8699 17.9076 24.2644 18.2781 22.486 18.6733C17.2002 19.8342 13.8163 19.9577 9.96309 20.0812C6.08517 20.18 7.49308 22.9958 7.49308 22.9958C7.49308 22.9958 10.7782 33.4192 7.96238 39.0262C5.14657 44.6578 5.49237 45.5964 5.49237 51.3268C5.49237 51.8702 5.56648 52.3395 5.73938 52.71C5.36887 53.7721 5.02307 55.9951 5.02307 60.6881L5.83817 61.0339L7.04848 60.1941L7.96238 61.602L10.2101 61.9231L11.4698 60.7375L12.6307 62.096H14.6808L15.7923 60.8857L17.1508 61.9725L18.6575 61.8243L19.522 60.4905L20.7323 61.5526L22.6342 61.108V58.6627C24.0915 57.7735 33.28 60.3176 38.8128 61.1327L39.9984 60.0459L40.8876 61.2809L43.1106 61.4044L43.9751 60.2682L45.0372 61.2809L47.0132 61.1327L47.8036 59.8483L48.8163 60.8116L51.2863 60.367L51.8791 59.1814L52.9659 59.9965L55.263 59.4531L55.757 58.1934L56.9426 59.0332L58.8692 58.4157L59.3385 57.0325L60.4994 57.8476L62.2037 57.2054L62.5495 55.427L63.8586 56.1927L64.7973 55.5999L64.9454 53.8462L65.9828 54.8836L66.5016 54.5872C66.5016 54.5872 66.625 51.2527 66.2545 50.6352L66.2299 50.6599ZM39.4303 55.9951C36.4169 55.8469 33.2059 55.5505 30.0195 54.8589C17.0273 52.0431 10.136 53.8956 8.15998 51.722C7.76478 51.2774 7.56718 50.6846 7.56718 49.8201C7.56718 44.7813 7.24607 43.9415 9.71608 39.0015C12.2108 34.0614 9.81488 25.3423 9.81488 25.3423C9.81488 25.3423 8.90098 22.9464 11.4698 22.9217C14.8784 22.897 17.8671 22.6994 22.5107 21.6867C24.0668 21.3162 25.4994 21.168 26.685 21.0198C30.3653 20.5011 30.2666 26.7996 30.2666 26.7996C30.2666 26.7996 33.4776 31.1715 33.9963 34.4566C33.9963 34.4566 41.6533 40.0142 43.6046 43.8921C43.6046 43.8921 46.9638 44.7813 48.6434 45.8681C47.2849 48.0911 46.371 51.6479 46.3216 55.8222C46.2722 55.8222 46.2228 55.8222 46.1734 55.8222C44.1974 56.0692 41.7768 56.0692 39.4303 55.9704V55.9951Z" fill="#5A4499"/>
<path d="M58.6714 18.4263C58.6714 18.4263 58.6467 18.5992 58.5726 18.6733C58.4985 18.7474 58.4244 18.7721 58.3256 18.7721H56.7942C56.7942 18.7721 56.6213 18.7474 56.5472 18.6733C56.4731 18.5992 56.4484 18.5251 56.4484 18.4263V9.63311C56.4484 9.63311 56.4731 9.46021 56.5472 9.38611C56.6213 9.31201 56.6954 9.28731 56.7942 9.28731H58.3256C58.3256 9.28731 58.4985 9.33671 58.5726 9.38611C58.6467 9.46021 58.6714 9.53431 58.6714 9.63311V13.0417H62.0059V9.63311C62.0059 9.63311 62.0306 9.46021 62.1047 9.38611C62.1788 9.31201 62.2529 9.28731 62.3517 9.28731H63.9078C63.9078 9.28731 64.0807 9.33671 64.1548 9.38611C64.2289 9.46021 64.2536 9.53431 64.2536 9.63311V18.4263C64.2536 18.4263 64.2289 18.5992 64.1548 18.6733C64.0807 18.7474 64.0066 18.7721 63.9078 18.7721H62.3517C62.3517 18.7721 62.1788 18.7474 62.1047 18.6733C62.0306 18.5992 62.0059 18.5251 62.0059 18.4263V14.6966H58.6714V18.4263ZM50.7427 16.7961L52.5705 9.55901C52.6199 9.36141 52.7187 9.2626 52.9163 9.2626H54.6453C54.6453 9.2626 54.7935 9.28731 54.8429 9.36141C54.8923 9.41081 54.9417 9.48491 54.9417 9.55901C54.9417 9.58371 54.9417 9.63311 54.9417 9.65781L52.1259 19.5131C51.8048 20.6493 51.3849 21.3656 50.8662 21.6867C50.3475 22.0078 49.6312 22.156 48.6679 22.156C48.2974 22.156 47.9022 22.1313 47.5317 22.0572C47.1365 22.0078 46.8648 21.9337 46.7413 21.8843C46.5931 21.8349 46.5437 21.7608 46.5437 21.6373V20.5505C46.5437 20.3529 46.6672 20.2541 46.8895 20.2541H46.9142L48.8161 20.3529C49.1866 20.3529 49.483 20.2788 49.6806 20.1306C49.8782 19.9824 50.0758 19.5131 50.2734 18.7721H50.0264C49.6065 18.7721 49.2854 18.6486 49.0631 18.4016C48.8408 18.1546 48.6679 17.8088 48.5444 17.3889L46.3461 9.65781C46.3461 9.65781 46.3461 9.58371 46.3461 9.53431C46.3461 9.36141 46.4449 9.2626 46.6672 9.2626H48.3715C48.5444 9.2626 48.6432 9.36141 48.6926 9.55901L50.3969 16.4256C50.4463 16.6726 50.5204 16.7961 50.6192 16.7961H50.7674H50.7427ZM44.6417 18.5251C44.6417 18.698 44.543 18.7721 44.3454 18.7721H42.641C42.641 18.7721 42.4928 18.7474 42.4434 18.6733C42.394 18.5992 42.3693 18.5251 42.3693 18.4263V10.5964C42.3693 10.5964 42.3694 10.4235 42.32 10.4235C42.2953 10.4235 42.1964 10.5964 42.0235 10.9669L40.665 13.6839C40.5415 13.9309 40.3439 14.0297 40.0969 14.0297H38.3926C38.1456 14.0297 37.948 13.9309 37.8492 13.7333L36.5895 11.288C36.2931 10.6952 36.1449 10.4235 36.1202 10.4235C36.0955 10.4235 36.0708 10.4976 36.0708 10.5964V18.4263C36.0708 18.4263 36.0461 18.5992 35.9967 18.6733C35.9473 18.7474 35.8732 18.7721 35.7991 18.7721H34.0948C33.8972 18.7721 33.8231 18.698 33.8231 18.5251V6.91611C33.8231 6.7185 33.8972 6.5703 34.0207 6.4468C34.1442 6.3233 34.3171 6.24919 34.49 6.24919H35.8732C36.1449 6.24919 36.3672 6.3727 36.4907 6.6444L38.2197 10.1518C38.7878 11.3127 39.0842 11.9055 39.1089 11.9549C39.1583 12.0043 39.183 12.029 39.2077 12.029C39.2571 12.029 39.2818 11.9796 39.3559 11.8561L41.4554 7.6077C41.8012 6.8914 41.9988 6.5209 42.0482 6.4468C42.0976 6.3974 42.1717 6.3233 42.2705 6.2986C42.3693 6.2492 42.4681 6.22449 42.5669 6.22449H43.9501C44.123 6.22449 44.296 6.29859 44.4195 6.42209C44.543 6.57029 44.6171 6.7185 44.6171 6.8914V18.5004L44.6417 18.5251Z" fill="#5A4499"/>
<path d="M60.9932 35.0248C59.4124 35.0248 57.5105 34.2838 57.5105 30.7269V29.0473C57.5105 25.4905 59.4124 24.7495 60.9932 24.7495C62.574 24.7495 64.4513 25.4905 64.4513 29.0473V30.7269C64.4513 34.2838 62.574 35.0248 60.9932 35.0248ZM60.9932 26.5773C60.5733 26.5773 59.4865 26.5773 59.4865 29.072V30.7516C59.4865 33.2463 60.5733 33.2463 60.9932 33.2463C61.4131 33.2463 62.4752 33.2463 62.4752 30.7516V29.072C62.4752 26.5773 61.3884 26.5773 60.9932 26.5773ZM53.1633 35.0248C51.5825 35.0248 49.6806 34.2838 49.6806 30.7269V29.0473C49.6806 25.4905 51.5825 24.7495 53.1633 24.7495C54.7441 24.7495 56.6213 25.4905 56.6213 29.0473V30.7269C56.6213 34.2838 54.7441 35.0248 53.1633 35.0248ZM53.1633 26.5773C52.7434 26.5773 51.6566 26.5773 51.6566 29.072V30.7516C51.6566 33.2463 52.7434 33.2463 53.1633 33.2463C53.5832 33.2463 54.6453 33.2463 54.6453 30.7516V29.072C54.6453 26.5773 53.5585 26.5773 53.1633 26.5773ZM42.9375 34.9507L42.6411 34.7778C42.4929 34.6296 42.4435 34.4813 42.4435 34.3084V33.2958C42.4435 31.8137 43.1598 30.6034 44.543 29.6648C45.5557 28.9732 46.1732 28.5533 46.3955 28.3804C46.5684 28.2569 46.6919 28.1087 46.7907 27.9605C46.8648 27.837 46.9142 27.6394 46.9142 27.4171C46.9142 26.9478 46.7166 26.8243 46.6672 26.7749C46.519 26.6761 46.1732 26.5526 45.4816 26.5526C45.1852 26.5526 44.8394 26.5526 44.4689 26.602L43.308 26.7255C42.8387 26.7255 42.5917 26.4538 42.5917 26.0833V25.6387C42.5917 25.5152 42.6411 25.2682 42.9375 25.0953C43.0363 25.0459 43.2339 24.9718 43.9255 24.873C44.4195 24.7989 44.9382 24.7742 45.4816 24.7742C46.5931 24.7742 47.4082 24.9718 47.9763 25.3917C48.5691 25.8363 48.8655 26.5279 48.8655 27.4171C48.8655 27.9852 48.7173 28.4792 48.4456 28.8991C48.1986 29.2943 47.754 29.6895 47.1118 30.1341L45.8768 30.9739C45.284 31.3691 44.8641 31.7396 44.6418 32.0854C44.4442 32.3571 44.3454 32.6783 44.3454 33.1229H48.1245C48.5197 33.1229 48.7914 33.3698 48.7914 33.765V34.3084C48.7914 34.7036 48.5197 34.9507 48.1245 34.9507H43.0116H42.9375Z" fill="#5A4499"/>
</svg>
