<svg width="70" height="70" viewBox="0 0 70 70" fill="none" xmlns="http://www.w3.org/2000/svg">
<path d="M6.39737 2.54406H63.6027C65.7269 2.54406 67.456 4.27306 67.456 6.39726V63.6026C67.456 65.7269 65.7269 67.4312 63.6274 67.4312H6.42207C4.29787 67.4312 2.56885 65.7022 2.56885 63.578V6.34789C2.56885 4.22368 4.29786 2.51941 6.39737 2.51941V2.54406Z" fill="white"/>
<path d="M6.39733 2.5441C4.27312 2.5441 2.56881 4.27316 2.56881 6.37266V63.578C2.56881 65.7022 4.29782 67.4065 6.39733 67.4065H63.6027C65.7269 67.4065 67.4312 65.6776 67.4312 63.578V6.37266C67.4312 4.24846 65.7022 2.5441 63.6027 2.5441H6.39733ZM63.6027 70H6.39733C2.86522 70 0 67.1348 0 63.6027V6.39731C0 2.8652 2.86522 0 6.39733 0H63.6027C67.1348 0 70 2.8652 70 6.39731V63.6027C70 67.1348 67.1348 70 63.6027 70ZM40.4093 42.4842V20.1553C40.4093 17.5124 38.5568 15.2893 36.0868 14.7459C35.6916 14.6471 35.2717 14.5978 34.8518 14.5978C33.8885 14.5978 32.9746 14.8447 32.2089 15.2646C30.4799 16.2032 29.2943 18.0311 29.2943 20.1553V42.6571C27.9852 43.4969 26.8737 44.6083 26.0339 45.9174C24.9471 47.5723 24.3049 49.5483 24.3049 51.6972C24.3049 57.6006 29.0967 62.3924 35 62.3924C35.741 62.3924 36.482 62.3183 37.1736 62.1701C42.0395 61.1574 45.6951 56.8596 45.6951 51.6972C45.6951 47.7699 43.5709 44.3367 40.4093 42.4842ZM35 58.3169C31.295 58.3169 28.2816 55.3035 28.2816 51.5985C28.2816 51.4256 28.2816 51.2527 28.331 51.0551C28.4298 49.7954 28.8744 48.6839 29.5907 47.8194C30.307 46.9302 31.2703 46.2632 32.3818 45.9174V22.1807C32.3818 20.2541 32.9746 18.698 34.9012 18.698C36.8278 18.698 37.4206 20.2541 37.4206 22.1807V45.794C40.0635 46.4856 41.4714 48.758 41.669 51.0551C41.669 51.228 41.6937 51.4009 41.6937 51.5738C41.6937 55.2788 38.6803 58.2922 34.9753 58.2922L35 58.3169ZM40.2117 50.8574C40.2858 51.1785 40.3105 51.5244 40.3105 51.8702C40.3105 54.8342 37.9146 57.2301 34.9506 57.2301C31.9866 57.2301 29.5907 54.8342 29.5907 51.8702C29.5907 49.4989 31.1468 47.4735 33.2957 46.7572V22.1807C33.2957 19.5872 34.4319 19.5871 34.9259 19.5871C35.4199 19.5871 36.5561 19.5872 36.5561 22.1807V46.7326C38.2851 47.276 39.6436 48.6838 40.1376 50.4622C40.187 50.561 40.2117 50.6352 40.2117 50.734C40.2117 50.7587 40.2117 50.8081 40.2117 50.8328V50.8574Z" fill="#5A4499"/>
<path fill-rule="evenodd" clip-rule="evenodd" d="M53.9204 9.28744C53.9204 9.48504 53.8216 9.58383 53.5993 9.58383H50.6847V19.6368C50.6847 19.6368 50.66 19.8097 50.5859 19.8838C50.5118 19.9579 50.4377 19.9825 50.3389 19.9825H48.7087C48.7087 19.9825 48.5358 19.9579 48.4864 19.8838C48.4123 19.8097 48.3876 19.7356 48.3876 19.6368V9.58383H45.4977C45.2754 9.58383 45.1519 9.48504 45.1519 9.28744V7.97834C45.1519 7.97834 45.1766 7.83015 45.2507 7.75605C45.3248 7.68195 45.3988 7.65723 45.4729 7.65723H53.5746C53.5746 7.65723 53.7475 7.68195 53.8216 7.75605C53.8957 7.80545 53.9204 7.87954 53.9204 7.97834V9.28744ZM58.7616 15.0672L60.9846 18.0807C61.7503 19.1428 62.1455 19.6615 62.1702 19.6862C62.1949 19.7109 62.1702 19.7355 62.1702 19.7602C62.1702 19.8837 62.0961 19.9579 61.9479 19.9579H59.9225C59.7496 19.9579 59.552 19.8097 59.3544 19.538L56.835 15.8577V19.6121C56.835 19.6121 56.8103 19.785 56.7362 19.8591C56.6621 19.9332 56.588 19.9579 56.4892 19.9579H54.9578C54.9578 19.9579 54.7849 19.9332 54.7355 19.8591C54.6614 19.785 54.6367 19.7109 54.6367 19.6121V10.9423C54.6367 10.9423 54.6614 10.7695 54.7355 10.6954C54.8096 10.6213 54.8837 10.5965 54.9825 10.5965H56.5139C56.5139 10.5965 56.6868 10.6213 56.7609 10.6954C56.835 10.7695 56.8597 10.8435 56.8597 10.9423V14.5732L58.6381 12.202C59.3297 11.2634 59.7002 10.7941 59.7249 10.7447C59.7496 10.72 59.799 10.6706 59.8731 10.6459C59.9472 10.6212 59.9966 10.5965 60.0707 10.5965H61.9232C62.0961 10.5965 62.1702 10.646 62.1702 10.7695C62.1702 10.8189 62.1702 10.8682 62.1208 10.8929L58.7616 15.0179V15.0672Z" fill="#5A4499"/>
<path fill-rule="evenodd" clip-rule="evenodd" d="M16.6476 22.0574C17.1416 21.4152 17.7344 20.8719 18.4261 20.4273C19.2659 19.8839 20.2045 19.5134 21.2172 19.3405C21.6124 19.2664 22.0076 19.2417 22.4275 19.2417C22.8474 19.2417 23.2426 19.2911 23.6378 19.3405C24.6505 19.5134 25.6138 19.8839 26.4289 20.4273C26.997 20.7978 27.5157 21.267 27.985 21.761V31.4188C27.5404 31.9375 27.0217 32.3821 26.4289 32.7526C25.5891 33.296 24.6505 33.6665 23.6378 33.8394C23.2426 33.9135 22.8474 33.9382 22.4275 33.9382C22.0076 33.9382 21.6124 33.8888 21.2172 33.8394C20.2045 33.6665 19.2412 33.296 18.4261 32.7526C17.7591 32.308 17.1416 31.7646 16.6476 31.1224C15.9066 30.1591 15.3879 29.0229 15.1656 27.7632C15.0915 27.368 15.0668 26.9728 15.0668 26.5529C15.0668 26.133 15.1162 25.7378 15.1656 25.3426C15.3632 24.0829 15.8819 22.9466 16.6476 21.9833V22.0574ZM12.6709 28.7018C13.239 28.7018 13.7577 28.603 14.227 28.4054C14.1035 27.8126 14.0294 27.2198 14.0294 26.6023C14.0294 25.9848 14.1035 25.392 14.227 24.7992C13.7824 24.6263 13.239 24.5028 12.6709 24.5028C12.6709 24.5028 9.63281 25.4414 9.63281 26.5776V26.627C9.63281 27.7632 12.6709 28.7018 12.6709 28.7018ZM27.9603 19.291V20.3037C27.5404 19.9332 27.0958 19.6122 26.6018 19.3405C26.7747 18.8712 27.0464 18.4018 27.4169 17.9819C27.4169 17.9819 27.8368 17.735 28.4049 17.4633C28.1085 17.9573 27.9356 18.55 27.9356 19.291H27.9603ZM15.5608 21.761C16.2524 20.773 17.1663 19.958 18.2037 19.3405C18.0308 18.8712 17.7591 18.4018 17.3886 17.9819C17.3886 17.9819 14.6469 16.3517 13.8071 17.1421H13.7577C12.9179 17.9572 14.2764 20.8224 14.2764 20.8224C14.6716 21.2423 15.0915 21.5634 15.5361 21.761H15.5608ZM17.3886 35.2226C17.7838 34.8027 18.0555 34.3334 18.2037 33.8641C17.1663 33.2466 16.2524 32.4315 15.5608 31.4435C15.1162 31.6658 14.6716 31.9622 14.3011 32.3821C14.3011 32.3821 12.9426 35.2473 13.7824 36.013H13.8318C14.6716 36.8281 17.4133 35.1979 17.4133 35.1979L17.3886 35.2226ZM22.4522 39.3969C23.5884 39.3969 24.527 36.3588 24.527 36.3588C24.527 35.7907 24.4282 35.272 24.2306 34.8027C23.6378 34.9262 23.045 35.0003 22.4275 35.0003C21.8099 35.0003 21.2172 34.9262 20.6244 34.8027C20.4515 35.2473 20.3279 35.7907 20.3279 36.3588C20.3279 36.3588 21.2419 39.3969 22.4028 39.3969H22.4522ZM22.4275 18.2042C23.045 18.2042 23.6378 18.2784 24.2306 18.4019C24.4035 17.9573 24.527 17.4139 24.527 16.8458C24.527 16.8458 23.5884 13.8076 22.4522 13.8076H22.4028C21.2666 13.8076 20.3279 16.8458 20.3279 16.8458C20.3279 17.4139 20.4268 17.9326 20.6244 18.4019C21.2172 18.2784 21.8099 18.2042 22.4275 18.2042Z" fill="#5A4499"/>
</svg>
