<svg width="71" height="70" viewBox="0 0 71 70" fill="none" xmlns="http://www.w3.org/2000/svg">
<path d="M6.69689 2.54411H63.9023C66.0265 2.54411 67.7555 4.27311 67.7555 6.39732V63.6027C67.7555 65.7269 66.0265 67.4312 63.927 67.4312H6.72161C4.59741 67.4312 2.86841 65.7022 2.86841 63.578V6.34793C2.86841 4.22372 4.59738 2.51941 6.69689 2.51941V2.54411Z" fill="white"/>
<path d="M6.64735 2.5441C4.52314 2.5441 2.81883 4.27312 2.81883 6.37262V63.578C2.81883 65.7022 4.52314 67.4312 6.64735 67.4312H63.8527C65.9769 67.4312 67.6812 65.7022 67.6812 63.578V6.37262C67.6812 4.24842 65.9522 2.5441 63.8527 2.5441H6.64735ZM63.8527 70H6.64735C3.11524 70 0.25 67.1348 0.25 63.6027V6.39731C0.25 2.8652 3.11524 0 6.64735 0H63.8527C67.3848 0 70.25 2.8652 70.25 6.39731V63.6027C70.25 67.1348 67.3848 70 63.8527 70Z" fill="#5A4499"/>
<path d="M17.2435 20.8224H12.6987V18.1053H17.2435V20.8224ZM40.8567 61.2317C40.8567 61.8986 40.4616 62.5902 39.9429 62.5902H9.04308C8.54908 62.5902 8.12915 61.8986 8.12915 61.2317C8.12915 60.5648 8.52438 59.8732 9.04308 59.8732H9.95697V25.3672H9.04308C8.54908 25.3672 8.12915 24.6509 8.12915 24.0087C8.12915 23.3665 8.52438 22.6502 9.04308 22.6502H39.9429C40.4369 22.6502 40.8567 23.3665 40.8567 24.0087C40.8567 24.6509 40.4616 25.3672 39.9429 25.3672H39.029V59.8732H39.9429C40.4369 59.8732 40.8567 60.5648 40.8567 61.2317ZM22.6034 43.0524C22.6034 44.0651 23.4432 44.9049 24.4559 44.9049C25.4686 44.9049 26.3084 44.0651 26.3084 43.0524C26.3084 42.0397 25.4686 41.1999 24.4559 41.1999C23.4432 41.1999 22.6034 42.0397 22.6034 43.0524ZM15.4898 43.2994H20.4298C20.578 41.6445 21.1955 40.533 22.1341 39.8661L19.6641 35.8647C17.4658 36.6304 14.8476 39.4709 15.4898 43.2747V43.2994ZM29.3959 50.3636L26.9506 46.0905C26.259 46.5845 25.4439 46.8562 24.5547 46.8562C23.5173 46.8562 22.6034 46.461 21.8871 45.8435L19.3924 50.1413C20.8497 51.154 22.6281 51.7715 24.5547 51.7715C26.3578 51.7715 28.0127 51.2528 29.4206 50.3389L29.3959 50.3636ZM29.47 35.6424L27 40.1872C27.8892 40.8541 28.482 41.6198 28.6302 43.2747H33.5702C33.9901 39.3721 31.8906 36.334 29.47 35.6424Z" fill="#5A4499"/>
<path fill-rule="evenodd" clip-rule="evenodd" d="M46.9581 13.6346C45.4761 13.0418 44.7351 11.9056 44.7351 10.2507V10.1025C44.7351 8.8675 45.155 7.9289 45.9702 7.3114C46.7853 6.6692 47.9708 6.3728 49.5022 6.3728C50.2432 6.3728 51.009 6.39751 51.75 6.47161C52.5157 6.54571 52.9602 6.6198 53.0837 6.6939C53.2072 6.768 53.2814 6.91621 53.2814 7.08911V18.4758C53.2814 18.4758 53.2567 18.6487 53.1826 18.7228C53.1085 18.7969 53.0344 18.8216 52.9603 18.8216H51.3053C51.3053 18.8216 51.1324 18.7969 51.083 18.7228C51.0336 18.6487 50.9843 18.5746 50.9843 18.4758V13.9804C50.2927 14.0298 49.7986 14.0545 49.5022 14.0545H49.2553L47.1311 17.9818C46.8841 18.4264 46.7358 18.6734 46.6864 18.7475C46.637 18.7969 46.5877 18.8216 46.5136 18.8216H44.4881C44.3646 18.8216 44.2905 18.7475 44.2905 18.624C44.2905 18.5746 44.2906 18.5252 44.3153 18.5005L46.9087 13.6593L46.9581 13.6346ZM47.0076 10.2507C47.0076 10.9423 47.2051 11.4363 47.5756 11.7327C47.9461 12.0291 48.5883 12.1773 49.5022 12.1773C49.8727 12.1773 50.3668 12.1773 50.9843 12.1279V8.39821C50.515 8.34881 50.0456 8.32411 49.5022 8.32411C48.6624 8.32411 48.045 8.47231 47.6251 8.74401C47.2299 9.01571 47.0076 9.485 47.0076 10.1025V10.2507ZM60.0986 11.2387V18.4511C60.0986 18.4511 60.0739 18.624 59.9998 18.6981C59.9257 18.7722 59.8516 18.7969 59.7775 18.7969H58.2708C58.2708 18.7969 58.0979 18.7722 58.0238 18.6981C57.9497 18.624 57.925 18.5499 57.925 18.4511V11.2387H55.3562C55.3562 11.2387 55.1833 11.214 55.1339 11.1399C55.0598 11.0905 55.0351 11.0164 55.0351 10.9176V9.78141C55.0351 9.78141 55.0598 9.60851 55.1339 9.53441C55.208 9.46031 55.2821 9.43561 55.3562 9.43561H62.6921C62.6921 9.43561 62.865 9.46031 62.9144 9.53441C62.9885 9.60851 63.0132 9.68261 63.0132 9.78141V10.9176C63.0132 10.9176 62.9885 11.0905 62.9144 11.1399C62.8403 11.1893 62.7662 11.2387 62.6674 11.2387H60.0986Z" fill="#5A4499"/>
</svg>
