<svg width="71" height="70" viewBox="0 0 71 70" fill="none" xmlns="http://www.w3.org/2000/svg">
<path d="M6.95696 2.56803H64.1422C66.2656 2.56803 67.994 4.29642 67.994 6.41988V63.6051C67.994 65.7285 66.2656 67.4322 64.1669 67.4322H6.98167C4.85821 67.4322 3.15454 65.7038 3.15454 63.6051V6.39519C3.15454 4.27173 4.88293 2.54333 7.00639 2.54333L6.95696 2.56803Z" fill="white"/>
<path d="M6.9075 2.5679C4.78405 2.5679 3.08037 4.2963 3.08037 6.39506V63.5802C3.08037 65.7037 4.78405 67.4321 6.9075 67.4321H64.0927C66.2162 67.4321 67.9198 65.7037 67.9198 63.5802V6.39506C67.9198 4.2716 66.1915 2.5679 64.0927 2.5679H6.9075ZM64.0927 70H6.9075C3.37664 70 0.512451 67.1358 0.512451 63.6049V6.39506C0.512451 2.8642 3.37664 0 6.9075 0H64.0927C67.6236 0 70.4877 2.8642 70.4877 6.39506V63.5802C70.4877 67.1111 67.6236 69.9753 64.0927 69.9753" fill="#5A4499"/>
<path fill-rule="evenodd" clip-rule="evenodd" d="M52.3395 16.3209C52.3395 17.5308 51.9198 18.4197 51.105 19.0123C50.2901 19.6049 49.0062 19.9012 47.3025 19.9012C46.5864 19.9012 45.8951 19.8765 45.2531 19.8271C44.6111 19.7777 44.1667 19.679 43.9692 19.5802C43.7717 19.4567 43.6482 19.2098 43.6482 18.8395V8.39501C43.6482 8.07403 43.7223 7.82711 43.8704 7.67896C44.0186 7.53082 44.463 7.45674 45.2038 7.38267C45.9445 7.33329 46.5864 7.30859 47.1543 7.30859C50.5617 7.30859 52.2655 8.41971 52.2655 10.6666V10.9876C52.2655 11.5555 52.142 12.0493 51.8704 12.4938C51.5988 12.9382 51.2284 13.2592 50.7346 13.4814C51.7963 13.9506 52.3395 14.7901 52.3395 16V16.2962V16.3209ZM50.0185 11.0617V10.8148C50.0185 10.2222 49.7964 9.82711 49.3766 9.5802C48.9569 9.33329 48.2161 9.20983 47.1543 9.20983C46.8086 9.20983 46.4136 9.20983 45.9445 9.25921V12.6172H48.0433C49.3519 12.6172 50.0185 12.0987 50.0185 11.0617ZM50.0926 16.2962V16.074C50.0926 15.5308 49.9198 15.0864 49.5741 14.7901C49.2284 14.4938 48.7099 14.3209 48.0433 14.3209H45.9445V17.9753H47.3025C48.2901 18 49.0062 17.8765 49.426 17.6296C49.8704 17.3827 50.068 16.9382 50.068 16.2962H50.0926ZM56.4383 19.432C56.4383 19.432 56.4136 19.6049 56.3395 19.679C56.2654 19.753 56.1914 19.7777 56.0927 19.7777H54.5617C54.5617 19.7777 54.3889 19.753 54.3395 19.679C54.2654 19.6049 54.2408 19.5308 54.2408 19.432V10.7901C54.2408 10.7901 54.2654 10.6172 54.3395 10.5432C54.4136 10.4691 54.4877 10.4444 54.5617 10.4444H56.0927C56.0927 10.4444 56.2654 10.4691 56.3395 10.5432C56.4136 10.6172 56.4383 10.6913 56.4383 10.7901V14.1481H59.7222V10.7901C59.7222 10.7901 59.7469 10.6172 59.821 10.5432C59.8951 10.4691 59.9692 10.4444 60.0679 10.4444H61.5988C61.5988 10.4444 61.7716 10.4691 61.8457 10.5432C61.9198 10.6172 61.9445 10.6913 61.9445 10.7901V19.432C61.9445 19.432 61.9198 19.6049 61.8457 19.679C61.7716 19.753 61.6975 19.7777 61.5988 19.7777H60.0679C60.0679 19.7777 59.8951 19.753 59.821 19.679C59.7469 19.6049 59.7222 19.5308 59.7222 19.432V15.7777H56.4383V19.432Z" fill="#5A4499"/>
<path fill-rule="evenodd" clip-rule="evenodd" d="M23.9444 23.531C22.537 21.21 20.9814 19.21 20.1666 18.2223C20.0679 18.0989 19.895 18.0248 19.7222 18.0248C19.5494 18.0248 19.4012 18.0989 19.2778 18.2223C18.463 19.21 16.9074 21.21 15.5 23.531C13.6975 26.5186 12.7839 28.9877 12.7839 30.8643C12.7839 34.6914 15.895 37.8026 19.7222 37.8026C23.5494 37.8026 26.6605 34.6914 26.6605 30.8643C26.6605 28.9877 25.7469 26.5186 23.9444 23.531ZM20.6851 35.2593C20.2901 35.3581 19.8704 35.4075 19.4259 35.4075C16.8333 35.4075 14.7346 33.4569 14.7346 31.0371C14.7346 30.4445 14.8827 29.7779 15.179 29.0124C15.2284 28.889 15.3765 28.8149 15.5246 28.8396C15.6728 28.8643 15.7715 28.9877 15.7469 29.1359C15.7469 29.3087 15.7222 29.4569 15.7222 29.605C15.7222 32.2223 17.8456 34.4198 20.6358 34.7161C20.7839 34.7161 20.8827 34.8396 20.8827 34.9631C20.8827 35.0865 20.8086 35.21 20.6605 35.2347L20.6851 35.2593ZM55.6728 42.8643C54.6605 42.1235 53.1049 41.6544 51.3518 41.6544C48.6605 41.6544 46.4136 42.7902 45.8951 44.2717H45.6728C45.1543 42.7655 42.9074 41.6297 40.216 41.6297C38.4629 41.6297 36.932 42.0989 35.895 42.8396V55.4816C35.895 58.6421 33.3271 61.1853 30.1913 61.1853C27.0555 61.1853 24.4876 58.6174 24.4876 55.4816C24.4876 54.7902 25.0555 54.2223 25.7469 54.2223C26.4383 54.2223 27.0061 54.7902 27.0061 55.4816C27.0061 57.2347 28.4382 58.6668 30.1913 58.6668C31.9444 58.6668 33.3765 57.2347 33.3765 55.4816V42.8643C32.3642 42.1235 30.8086 41.6544 29.0555 41.6544C26.3642 41.6544 24.1173 42.7902 23.5988 44.2717H23.3765C22.858 42.7655 20.6111 41.6297 17.9197 41.6297C16.1913 41.6297 14.6358 42.0989 13.5987 42.8396C13.7469 41.284 14.1172 39.7779 14.6851 38.3458C16.0926 39.3828 17.8209 40.0001 19.6975 40.0001C24.3642 40.0001 28.1666 36.1976 28.1666 31.531C28.1666 30.3211 27.8456 28.9137 27.253 27.3087C29.179 26.6914 31.2284 26.3211 33.3765 26.1976V25.2593C33.3765 24.568 33.9444 24.0001 34.6358 24.0001C35.3272 24.0001 35.895 24.568 35.895 25.2593V26.1976C46.4135 26.7408 54.858 33.8766 55.6728 42.8396V42.8643Z" fill="#5A4499"/>
</svg>
