<svg width="71" height="70" viewBox="0 0 71 70" fill="none" xmlns="http://www.w3.org/2000/svg">
<path d="M7.19689 2.54411H64.4022C66.5264 2.54411 68.2554 4.27311 68.2554 6.39732V63.6027C68.2554 65.7269 66.5264 67.4312 64.4269 67.4312H7.22161C5.09741 67.4312 3.36841 65.7022 3.36841 63.578V6.34792C3.36841 4.22371 5.09738 2.51941 7.19689 2.51941V2.54411Z" fill="white"/>
<path d="M7.14723 2.5441C5.02303 2.5441 3.31875 4.27311 3.31875 6.37261V63.578C3.31875 65.7022 5.02303 67.4312 7.14723 67.4312H64.3527C66.4769 67.4312 68.1812 65.7022 68.1812 63.578V6.37261C68.1812 4.24841 66.4522 2.5441 64.3527 2.5441H7.14723ZM64.3527 70H7.14723C3.61512 70 0.75 67.1348 0.75 63.6027V6.39732C0.75 2.86521 3.61512 0 7.14723 0H64.3527C67.8848 0 70.7499 2.86521 70.7499 6.39732V63.6027C70.7499 67.1348 67.8848 70 64.3527 70Z" fill="#5A4499"/>
<path fill-rule="evenodd" clip-rule="evenodd" d="M28.7351 45.8682C28.6362 45.5965 28.5621 45.4236 28.5621 45.4236C28.5621 45.4236 25.9439 47.3749 25.6475 48.4617C25.3511 49.5238 25.9688 50.6106 27.0062 50.9317C26.3887 53.5253 25.8945 56.4399 26.4132 57.9219C27.4506 61.0094 30.8099 62.6643 33.8974 61.6269C36.9849 60.5895 38.6398 57.2303 37.6024 54.1428C36.6638 51.3516 30.0195 46.7574 28.7351 45.8929V45.8682ZM11.8156 48.5111C10.7288 48.4617 9.88893 47.5231 9.93833 46.4363C9.98773 45.3495 10.9264 44.5097 12.0132 44.5591L24.5114 45.1766L22.0167 42.7807C21.5721 42.3608 21.3004 41.8421 21.2263 41.3481C21.2263 41.2493 21.2263 41.1505 21.2263 41.0764C21.2263 40.6565 21.4239 40.286 21.745 39.9402C22.6342 39.0016 23.7457 38.7299 25.1289 39.6685C25.1289 39.6685 33.1564 45.3742 35.6017 46.3622C38.0718 47.3502 44.6172 50.0919 44.6172 50.0919C44.6666 50.0919 44.7407 50.0919 44.7901 50.166C44.8395 50.2154 44.8643 50.2648 44.8643 50.3389L43.5798 62.6396C43.5798 62.6396 43.5552 62.7631 43.5058 62.7878C43.4564 62.8372 43.407 62.8372 43.3329 62.8372L34.1691 63.6276L14.4585 62.6396C13.3717 62.5902 12.5319 61.6516 12.5813 60.5648C12.6307 59.478 13.5693 58.6382 14.6561 58.6876L22.3131 59.0581V58.3418L11.3957 57.7984C10.3089 57.749 9.46907 56.8104 9.51847 55.7236C9.56787 54.6368 10.5064 53.797 11.5932 53.8464L22.5355 54.3898V53.6735L8.48111 52.9819C7.39431 52.9325 6.55448 51.9939 6.60388 50.9071C6.65328 49.8202 7.5918 48.9804 8.6786 49.0298L22.7824 49.7214V49.0051L11.865 48.4617L11.8156 48.5111ZM58.0788 36.5316L37.059 25.9353L37.2072 25.6636C37.4789 25.0955 37.2567 24.4039 36.6886 24.1322C36.1205 23.8358 35.4289 24.0828 35.1572 24.6509L31.8473 31.2458C31.5756 31.8139 31.7979 32.5055 32.366 32.7772C32.9341 33.0489 33.6257 32.8266 33.8974 32.2585L34.0456 31.9868L55.0654 42.5831C56.7203 43.4229 58.7458 42.756 59.5856 41.0764C60.4254 39.4215 59.7584 37.3961 58.0788 36.5563V36.5316ZM58.054 40.286C58.4739 39.4709 58.1282 38.4829 57.3131 38.063L44.469 31.5916L39.6772 32.9007L55.8064 41.027C56.6215 41.4469 57.6096 41.1011 58.0295 40.286H58.054ZM31.7238 40.9282C33.0576 40.9282 34.1691 39.8414 34.1691 38.4829C34.1691 37.1244 31.7238 33.9875 31.7238 33.9875C31.7238 33.9875 29.2785 37.1244 29.2785 38.4829C29.2785 39.8414 30.3653 40.9282 31.7238 40.9282Z" fill="#5A4499"/>
<path fill-rule="evenodd" clip-rule="evenodd" d="M38.4176 12.9676L42.6906 18.9697C42.6906 18.9697 42.7894 19.1179 42.7894 19.1673C42.7894 19.2661 42.7153 19.3155 42.5424 19.3155H40.3194C40.1465 19.3155 40.0231 19.2661 39.949 19.1426L36.1451 13.4863V18.9944C36.1451 18.9944 36.1204 19.1673 36.0463 19.2414C35.9722 19.3155 35.8982 19.3402 35.7994 19.3402H34.1691C34.1691 19.3402 33.9962 19.3155 33.9221 19.2414C33.848 19.1673 33.8232 19.0932 33.8232 18.9944V7.336C33.8232 7.336 33.848 7.1878 33.9221 7.1137C33.9715 7.0396 34.0703 7.0149 34.1691 7.0149H35.7994C35.7994 7.0149 35.9722 7.0396 36.0463 7.1137C36.1204 7.1631 36.1451 7.2372 36.1451 7.336V12.5971L40.1959 7.1384C40.1959 7.1384 40.3936 6.9902 40.5665 6.9902H42.4683C42.6906 6.9902 42.7894 7.0643 42.7894 7.1878C42.7894 7.2619 42.74 7.3607 42.6659 7.45951L38.4176 12.9429V12.9676ZM52.793 15.7587C52.793 16.5244 52.6201 17.1913 52.2743 17.7594C51.9285 18.3028 51.4345 18.7474 50.7676 19.0191C50.1254 19.3155 49.3596 19.4637 48.5198 19.4637H48.3469C47.0625 19.4637 46.0251 19.1426 45.2594 18.5004C44.4937 17.8582 44.0986 16.9443 44.0986 15.7834V15.6352C44.0986 14.5731 44.5925 13.6592 45.6052 12.9429C44.6419 12.3007 44.1726 11.4609 44.1726 10.3494V10.2753C44.1726 9.11441 44.5679 8.2499 45.3336 7.7065C46.0993 7.1631 47.1119 6.8914 48.3469 6.8914H48.5198C49.8536 6.8914 50.891 7.1878 51.632 7.7559C52.3731 8.32401 52.7436 9.16381 52.7436 10.2753V10.3494C52.7436 11.4362 52.2495 12.3007 51.2862 12.9429C52.2989 13.6592 52.793 14.5731 52.793 15.6352V15.7834V15.7587ZM50.5947 10.3988V10.3247C50.5947 9.16381 49.903 8.571 48.5198 8.571H48.3469C46.9884 8.571 46.3215 9.16381 46.3215 10.3247V10.3988C46.3215 10.9422 46.4697 11.3621 46.7908 11.6585C47.0872 11.9549 47.5319 12.1031 48.1247 12.1031H48.7915C49.3843 12.1031 49.829 11.9549 50.1254 11.6585C50.4465 11.3621 50.5947 10.9422 50.5947 10.3988ZM50.5452 15.7587V15.6105C50.5452 15.0918 50.397 14.6719 50.0759 14.3261C49.7795 13.9803 49.3349 13.8074 48.7915 13.8074H48.1247C47.5566 13.8074 47.1366 13.9803 46.8402 14.3261C46.5191 14.6719 46.3709 15.1165 46.3709 15.6105V15.7587C46.3709 16.3268 46.5439 16.7961 46.8897 17.1666C47.2355 17.5371 47.7294 17.71 48.3716 17.71H48.5445C49.162 17.71 49.6807 17.5371 50.0265 17.1666C50.3723 16.7961 50.57 16.3268 50.57 15.734L50.5452 15.7587ZM63.1917 13.7827C63.1917 15.6846 62.8459 17.1172 62.1296 18.0558C61.4133 18.9944 60.3265 19.4637 58.8692 19.4637C57.4118 19.4637 56.325 18.9944 55.6087 18.0558C54.8924 17.1172 54.5466 15.7093 54.5466 13.7827V12.5477C54.5466 10.6458 54.8924 9.21321 55.6087 8.2746C56.325 7.336 57.4118 6.8667 58.8692 6.8667C60.3265 6.8667 61.4133 7.336 62.1296 8.2746C62.8459 9.21321 63.1917 10.6458 63.1917 12.5477V13.7827ZM60.8946 13.7827V12.5477C60.8946 11.2633 60.7463 10.3247 60.4005 9.68251C60.0794 9.0403 59.5608 8.74391 58.8692 8.74391C58.1776 8.74391 57.6589 9.065 57.3378 9.68251C57.0167 10.3247 56.8437 11.2633 56.8437 12.5477V13.7827C56.8437 15.0671 57.0167 16.0057 57.3378 16.6232C57.6589 17.2407 58.1776 17.5618 58.8692 17.5618C59.5608 17.5618 60.0794 17.2407 60.4005 16.6232C60.7216 16.0057 60.8699 15.0424 60.8699 13.7827H60.8946Z" fill="#5A4499"/>
</svg>
