<svg width="70" height="70" viewBox="0 0 70 70" fill="none" xmlns="http://www.w3.org/2000/svg">
<path d="M6.44689 2.5441H63.6522C65.7764 2.5441 67.5054 4.27309 67.5054 6.3973V63.6027C67.5054 65.7269 65.7764 67.4312 63.6769 67.4312H6.47161C4.34741 67.4312 2.61841 65.7022 2.61841 63.578V6.34793C2.61841 4.22372 4.34738 2.51941 6.44689 2.51941V2.5441Z" fill="white"/>
<path d="M6.39723 2.5441C4.27303 2.5441 2.56875 4.27312 2.56875 6.37262V63.578C2.56875 65.7022 4.27303 67.4312 6.39723 67.4312H63.6027C65.7269 67.4312 67.4312 65.7022 67.4312 63.578V6.37262C67.4312 4.24842 65.7022 2.5441 63.6027 2.5441H6.39723ZM63.6027 70H6.39723C2.86512 70 0 67.1348 0 63.6027V6.39731C0 2.8652 2.86512 0 6.39723 0H63.6027C67.1348 0 69.9999 2.8652 69.9999 6.39731V63.6027C69.9999 67.1348 67.1348 70 63.6027 70Z" fill="#5A4499"/>
<path fill-rule="evenodd" clip-rule="evenodd" d="M27.9851 45.8682C27.8862 45.5965 27.8121 45.4236 27.8121 45.4236C27.8121 45.4236 25.1939 47.3749 24.8975 48.4617C24.6011 49.5238 25.2188 50.6106 26.2562 50.9317C25.6387 53.5252 25.1445 56.4399 25.6632 57.9219C26.7006 61.0094 30.0599 62.6643 33.1474 61.6269C36.2349 60.5895 37.8898 57.2303 36.8524 54.1427C35.9138 51.3516 29.2695 46.7574 27.9851 45.8929V45.8682ZM11.0656 48.5111C9.97875 48.4617 9.13893 47.5231 9.18833 46.4363C9.23773 45.3495 10.1764 44.5097 11.2632 44.5591L23.7614 45.1766L21.2667 42.7807C20.8221 42.3608 20.5504 41.8421 20.4763 41.3481C20.4763 41.2493 20.4763 41.1505 20.4763 41.0764C20.4763 40.6565 20.6739 40.286 20.995 39.9402C21.8842 39.0016 22.9957 38.7299 24.3789 39.6685C24.3789 39.6685 32.4064 45.3742 34.8517 46.3622C37.3218 47.3502 43.8672 50.0919 43.8672 50.0919C43.9166 50.0919 43.9907 50.0919 44.0401 50.166C44.0895 50.2154 44.1143 50.2649 44.1143 50.339L42.8298 62.6396C42.8298 62.6396 42.8052 62.7631 42.7558 62.7878C42.7064 62.8372 42.657 62.8372 42.5829 62.8372L33.4191 63.6276L13.7085 62.6396C12.6217 62.5902 11.7819 61.6516 11.8313 60.5648C11.8807 59.478 12.8193 58.6382 13.9061 58.6876L21.5631 59.0581V58.3418L10.6457 57.7983C9.5589 57.749 8.71907 56.8104 8.76847 55.7236C8.81787 54.6367 9.75639 53.797 10.8432 53.8464L21.7855 54.3898V53.6734L7.73111 52.9818C6.64431 52.9324 5.80448 51.9938 5.85388 50.907C5.90328 49.8202 6.8418 48.9805 7.9286 49.0299L22.0324 49.7215V49.0051L11.115 48.4617L11.0656 48.5111ZM57.3288 36.5316L36.309 25.9353L36.4572 25.6636C36.7289 25.0955 36.5067 24.4039 35.9386 24.1322C35.3705 23.8358 34.6789 24.0828 34.4072 24.6509L31.0973 31.2458C30.8256 31.8139 31.0479 32.5055 31.616 32.7772C32.1841 33.0489 32.8757 32.8266 33.1474 32.2585L33.2956 31.9868L54.3154 42.5831C55.9703 43.4229 57.9958 42.756 58.8356 41.0764C59.6754 39.4215 59.0084 37.3961 57.3288 36.5563V36.5316ZM57.304 40.286C57.7239 39.4709 57.3782 38.4829 56.5631 38.063L43.719 31.5916L38.9272 32.9007L55.0564 41.027C55.8715 41.4469 56.8596 41.1011 57.2795 40.286H57.304ZM30.9738 40.9282C32.3076 40.9282 33.4191 39.8414 33.4191 38.4829C33.4191 37.1244 30.9738 33.9875 30.9738 33.9875C30.9738 33.9875 28.5285 37.1244 28.5285 38.4829C28.5285 39.8414 29.6153 40.9282 30.9738 40.9282Z" fill="#5A4499"/>
<path fill-rule="evenodd" clip-rule="evenodd" d="M50.8327 10.6208C50.8327 10.8184 50.7339 10.9172 50.5116 10.9172H47.597V20.9702C47.597 20.9702 47.5724 21.143 47.4983 21.2171C47.4242 21.2912 47.3501 21.316 47.2513 21.316H45.621C45.621 21.316 45.4482 21.2912 45.3988 21.2171C45.3247 21.143 45.2999 21.069 45.2999 20.9702V10.9172H42.41C42.1877 10.9172 42.0642 10.8184 42.0642 10.6208V9.31171C42.0642 9.31171 42.089 9.16352 42.1631 9.08942C42.2372 9.01532 42.3112 8.9906 42.3853 8.9906H50.487C50.487 8.9906 50.6599 9.01532 50.734 9.08942C50.8081 9.13882 50.8327 9.21291 50.8327 9.31171V10.6208ZM59.1813 17.2651C59.1813 18.5989 58.8603 19.6116 58.1934 20.3279C57.5265 21.0442 56.5385 21.4147 55.2294 21.4147C54.7601 21.4147 54.2167 21.3653 53.6485 21.2912V24.2305C53.6485 24.2305 53.6239 24.4034 53.5498 24.4528C53.4757 24.5269 53.4015 24.5517 53.3027 24.5517H51.7713C51.7713 24.5517 51.5985 24.5269 51.5244 24.4528C51.4503 24.3787 51.4256 24.3046 51.4256 24.2305V12.6956C51.4256 12.5474 51.4749 12.4239 51.5984 12.3498C51.7219 12.2757 52.1666 12.1769 52.9323 12.0287C53.698 11.9052 54.4637 11.8311 55.2047 11.8311C56.4891 11.8311 57.4771 12.2016 58.144 12.8932C58.8109 13.6095 59.1566 14.6469 59.1566 15.9807V17.2404L59.1813 17.2651ZM56.9831 17.2651V16.0054C56.9831 15.1656 56.8348 14.5481 56.5631 14.1776C56.2667 13.8071 55.8222 13.6342 55.2294 13.6342C54.5625 13.6342 54.0437 13.6589 53.6485 13.7577V19.5375C54.2167 19.6116 54.7601 19.6611 55.2294 19.6611C55.8222 19.6611 56.2667 19.4881 56.5631 19.1176C56.8595 18.7471 56.9831 18.1543 56.9831 17.2898V17.2651Z" fill="#5A4499"/>
</svg>
