<svg width="71" height="70" viewBox="0 0 71 70" fill="none" xmlns="http://www.w3.org/2000/svg">
<path d="M6.64737 2.5441H63.8527C65.9769 2.5441 67.706 4.27309 67.706 6.3973V63.6027C67.706 65.7269 65.9769 67.4312 63.8774 67.4312H6.67207C4.54787 67.4312 2.81885 65.7022 2.81885 63.578V6.34793C2.81885 4.22372 4.54786 2.51941 6.64737 2.51941V2.5441Z" fill="white"/>
<path d="M6.64733 2.5441C4.52312 2.5441 2.81881 4.27312 2.81881 6.37262V63.578C2.81881 65.7022 4.54782 67.4065 6.64733 67.4065H63.8527C65.9769 67.4065 67.6812 65.6775 67.6812 63.578V6.37262C67.6812 4.24842 65.9522 2.5441 63.8527 2.5441H6.64733ZM63.8527 70H6.64733C3.11522 70 0.25 67.1348 0.25 63.6027V6.39731C0.25 2.8652 3.11522 0 6.64733 0H63.8527C67.3848 0 70.25 2.8652 70.25 6.39731V63.6027C70.25 67.1348 67.3848 70 63.8527 70Z" fill="#5A4499"/>
<path d="M40.6596 42.4592V20.1303C40.6596 17.4874 38.8071 15.2644 36.3371 14.721C35.9419 14.6222 35.522 14.5728 35.1021 14.5728C34.1388 14.5728 33.2249 14.8198 32.4592 15.2397C30.7302 16.1783 29.5446 18.0061 29.5446 20.1303V24.354H31.4959V25.1691H29.5446V32.2333H31.6441V33.0484H29.5446V40.1127H31.4959V40.9278H29.5446V42.6074C28.2355 43.4472 27.124 44.5587 26.2842 45.8678C25.1974 47.5227 24.5552 49.4987 24.5552 51.6476C24.5552 57.5509 29.347 62.3427 35.2503 62.3427C35.9913 62.3427 36.7323 62.2686 37.4239 62.1204C42.2898 61.1077 45.9454 56.8099 45.9454 51.6476C45.9454 47.7203 43.8212 44.287 40.6596 42.4345V42.4592ZM35.2503 58.2919C31.5453 58.2919 28.5319 55.2785 28.5319 51.5735C28.5319 51.4006 28.5319 51.2277 28.5813 51.0301C28.6801 49.7704 29.1247 48.6589 29.841 47.7944C30.5573 46.9052 31.5206 46.2383 32.6321 45.8925V22.1557C32.6321 20.2291 33.2249 18.673 35.1515 18.673C37.0781 18.673 37.6709 20.2291 37.6709 22.1557V45.769C40.3138 46.4606 41.7217 48.733 41.9193 51.0301C41.9193 51.203 41.944 51.3759 41.944 51.5488C41.944 55.2538 38.9306 58.2672 35.2256 58.2672L35.2503 58.2919ZM40.462 50.8325C40.5361 51.1536 40.5608 51.4994 40.5608 51.8452C40.5608 54.8092 38.1649 57.2051 35.2009 57.2051C32.2369 57.2051 29.841 54.8092 29.841 51.8452C29.841 49.474 31.3971 47.4486 33.546 46.7323V22.1557C33.546 19.5622 34.6822 19.5622 35.1762 19.5622C35.6702 19.5622 36.8064 19.5622 36.8064 22.1557V46.7076C38.5354 47.251 39.8939 48.6589 40.3879 50.4373C40.4373 50.5361 40.462 50.6102 40.462 50.709C40.462 50.7337 40.462 50.7831 40.462 50.8078V50.8325ZM29.5446 25.1938H25.9384V24.3787H29.5446V25.1938ZM27.5686 32.258H29.5446V33.0731H27.5686V32.258ZM25.9384 40.1373H29.5446V40.9525H25.9384V40.1373Z" fill="#5A4499"/>
<path d="M16.4779 21.2671C15.6875 21.2671 15.07 21.5141 14.6995 22.0328C14.3043 22.5515 14.1066 23.3172 14.1066 24.3793V25.0462C14.1066 26.0836 14.3043 26.874 14.6995 27.368C15.0947 27.8867 15.6875 28.1337 16.4779 28.1337C17.2683 28.1337 17.8858 27.8867 18.2563 27.368C18.6515 26.8493 18.8491 26.0836 18.8491 25.0462V24.3793C18.8491 23.3419 18.6515 22.5515 18.2563 22.0328C17.8611 21.5141 17.2683 21.2671 16.4779 21.2671ZM17.5894 25.0462C17.5894 25.7378 17.4906 26.2565 17.3177 26.6023C17.1448 26.9481 16.8731 27.121 16.4779 27.121C16.0827 27.121 15.811 26.9481 15.638 26.6023C15.4651 26.2565 15.3663 25.7378 15.3663 25.0462V24.3793C15.3663 23.6877 15.4651 23.169 15.638 22.8232C15.811 22.4774 16.1074 22.3045 16.4779 22.3045C16.8484 22.3045 17.1448 22.4774 17.3177 22.8232C17.4906 23.169 17.5894 23.6877 17.5894 24.3793V25.0462ZM22.1836 21.2671C21.3932 21.2671 20.7757 21.5141 20.4052 22.0328C20.01 22.5515 19.8124 23.3172 19.8124 24.3793V25.0462C19.8124 26.0836 20.01 26.874 20.4052 27.368C20.8004 27.8867 21.3932 28.1337 22.1836 28.1337C22.974 28.1337 23.5915 27.8867 23.962 27.368C24.3572 26.8493 24.5548 26.0836 24.5548 25.0462V24.3793C24.5548 23.3419 24.3572 22.5515 23.962 22.0328C23.5668 21.5141 22.974 21.2671 22.1836 21.2671ZM23.2951 25.0462C23.2951 25.7378 23.1963 26.2565 23.0234 26.6023C22.8505 26.9481 22.5788 27.121 22.1836 27.121C21.7884 27.121 21.5167 26.9481 21.3438 26.6023C21.1709 26.2565 21.0721 25.7378 21.0721 25.0462V24.3793C21.0721 23.6877 21.1709 23.169 21.3438 22.8232C21.5167 22.4774 21.7884 22.3045 22.1836 22.3045C22.5788 22.3045 22.8505 22.4774 23.0234 22.8232C23.1963 23.169 23.2951 23.6877 23.2951 24.3793V25.0462ZM13.2668 26.2812C13.2668 26.2812 13.2668 26.38 13.2174 26.4047C13.1927 26.4294 13.1433 26.4541 13.0939 26.4541H12.427V27.9114C12.427 27.9114 12.3776 28.0843 12.2541 28.0843H11.3155C11.3155 28.0843 11.1426 28.0349 11.1426 27.9114V26.4541H8.40093C8.40093 26.4541 8.30212 26.4541 8.27742 26.4047C8.25272 26.38 8.22803 26.3306 8.22803 26.2812V25.5402C8.22803 25.5402 8.25273 25.3426 8.32683 25.2438L11.1426 21.4647C11.1426 21.4647 11.3155 21.2918 11.4143 21.2918H12.2541C12.2541 21.2918 12.3529 21.2918 12.3776 21.3412C12.4023 21.3659 12.427 21.4153 12.427 21.4647V25.4167H13.0939C13.0939 25.4167 13.1927 25.4167 13.2174 25.4661C13.2421 25.4908 13.2668 25.5402 13.2668 25.5896V26.2318V26.2812ZM11.1426 25.4661V23.1443C11.1426 23.1443 11.1426 23.0949 11.1179 23.0949C11.1179 23.0949 11.0685 23.0949 11.0438 23.1443L9.43833 25.3673C9.43833 25.3673 9.41364 25.392 9.41364 25.4167C9.41364 25.4414 9.43834 25.4661 9.48774 25.4661H11.1179H11.1426Z" fill="#5A4499"/>
<path fill-rule="evenodd" clip-rule="evenodd" d="M53.306 9.97851C53.306 10.1761 53.1825 10.2749 52.9602 10.2749H49.9962V20.5008C49.9962 20.5008 49.9715 20.6736 49.8974 20.7477C49.8233 20.8218 49.7491 20.8466 49.6503 20.8466H47.9954C47.9954 20.8466 47.8225 20.8218 47.7484 20.7477C47.6743 20.6736 47.6496 20.5996 47.6496 20.5008V10.2749H44.6856C44.4633 10.2749 44.3398 10.1761 44.3398 9.97851V8.64472C44.3398 8.64472 44.3645 8.47183 44.4386 8.42243C44.5127 8.34833 44.5868 8.32361 44.6856 8.32361H52.9355C52.9355 8.32361 53.1084 8.34833 53.1825 8.42243C53.2566 8.49653 53.2813 8.57062 53.2813 8.64472V9.97851H53.306ZM61.9263 18.179C61.9263 19.1423 61.5558 19.8586 60.8395 20.3032C60.1232 20.7478 58.9129 20.9701 57.2333 20.9701C56.517 20.9701 55.8748 20.9701 55.3067 20.896C54.7386 20.8466 54.3681 20.7724 54.2199 20.6736C54.0717 20.5748 53.9976 20.4019 53.9976 20.1302V12.0286C53.9976 11.831 54.047 11.6581 54.1458 11.5346C54.2446 11.4111 54.5904 11.337 55.2079 11.2876C55.8254 11.2382 56.4676 11.2135 57.1345 11.2135C58.987 11.2135 60.2467 11.4358 60.9136 11.8557C61.5805 12.3003 61.9016 12.9672 61.9016 13.9058V14.0046C61.9016 14.4245 61.7781 14.8197 61.5311 15.1655C61.2841 15.5113 60.9383 15.7583 60.4937 15.9065C61.4817 16.2277 61.951 16.9439 61.951 18.0554V18.1543L61.9263 18.179ZM59.7033 14.0294V13.9305C59.7033 13.4612 59.5551 13.1648 59.2093 13.066C58.8882 12.9425 58.3448 12.8931 57.6038 12.8931C57.0851 12.8931 56.6158 12.8931 56.1959 12.9178V15.1902H57.6779C58.3201 15.1902 58.8141 15.1161 59.1599 14.9679C59.5057 14.8197 59.6786 14.4987 59.6786 14.0294H59.7033ZM59.7774 18.006V17.9072C59.7774 17.3885 59.6045 17.0427 59.2587 16.8945C58.9129 16.7463 58.3942 16.6722 57.6779 16.6722H56.1959V19.3152C56.517 19.3152 56.8628 19.3152 57.2333 19.3152C58.1966 19.3152 58.8635 19.2164 59.234 19.0435C59.6045 18.8706 59.8021 18.5247 59.8021 18.006H59.7774Z" fill="#5A4499"/>
</svg>
