<svg width="71" height="70" viewBox="0 0 71 70" fill="none" xmlns="http://www.w3.org/2000/svg">
<path d="M6.94689 2.54411H64.1523C66.2765 2.54411 68.0055 4.27311 68.0055 6.39732V63.6027C68.0055 65.7269 66.2765 67.4312 64.177 67.4312H6.97161C4.84741 67.4312 3.11841 65.7022 3.11841 63.578V6.34792C3.11841 4.22371 4.84738 2.51941 6.94689 2.51941V2.54411Z" fill="white"/>
<path d="M6.89735 2.5441C4.77314 2.5441 3.06883 4.27311 3.06883 6.37261V63.578C3.06883 65.7022 4.77314 67.4312 6.89735 67.4312H64.1027C66.2269 67.4312 67.9312 65.7022 67.9312 63.578V6.37261C67.9312 4.24841 66.2022 2.5441 64.1027 2.5441H6.89735ZM64.1027 70H6.89735C3.36524 70 0.5 67.1348 0.5 63.6027V6.39732C0.5 2.86521 3.36524 0 6.89735 0H64.1027C67.6348 0 70.5 2.86521 70.5 6.39732V63.6027C70.5 67.1348 67.6348 70 64.1027 70Z" fill="#5A4499"/>
<path fill-rule="evenodd" clip-rule="evenodd" d="M34.0425 48.6097C33.3509 48.6097 32.684 48.3874 32.1406 48.0416L27.6946 54.7847C29.5224 55.995 31.696 56.6867 34.0425 56.6867C36.389 56.6867 38.5626 55.9703 40.3904 54.7847L35.9444 48.0416C35.401 48.4121 34.7588 48.6097 34.0425 48.6097ZM30.5845 45.1517C30.5845 43.7932 31.3749 42.6323 32.5111 42.0642L28.9049 34.8518C25.1258 36.7537 22.5322 40.6316 22.5322 45.1517C22.5322 45.374 22.5323 45.621 22.557 45.8433L30.6092 45.3493C30.6092 45.3493 30.6092 45.2258 30.6092 45.1517H30.5845ZM39.2048 34.8518L35.5986 42.0642C36.7348 42.6323 37.5252 43.7932 37.5252 45.1517C37.5252 45.2258 37.5252 45.2999 37.5252 45.3493L45.5774 45.8433C45.5774 45.621 45.6021 45.3987 45.6021 45.1517C45.6021 40.6316 43.0086 36.729 39.2295 34.8518H39.2048ZM36.0679 45.1517C36.0679 46.2632 35.154 47.1771 34.0425 47.1771C32.931 47.1771 32.0171 46.2632 32.0171 45.1517C32.0171 44.0402 32.931 43.1263 34.0425 43.1263C35.154 43.1263 36.0679 44.0402 36.0679 45.1517ZM55.4328 49.6718C57.2112 52.5617 57.5322 55.3281 56.3466 57.4771C55.161 59.626 52.617 60.8116 49.2331 60.8116H18.8766C15.4927 60.8116 12.9486 59.626 11.763 57.4771C10.5774 55.3281 10.8985 52.5617 12.6769 49.6718L27.25 26.0586C29.0284 23.1934 31.449 21.6125 34.0425 21.6125C36.636 21.6125 39.0566 23.1934 40.835 26.0586L55.4081 49.6718H55.4328ZM54.8399 56.6373C53.9507 58.2181 51.9748 59.0826 49.2331 59.0826H18.8766C16.1349 59.0826 14.1342 58.2181 13.2697 56.6373C12.4052 55.0564 12.7016 52.9075 14.1342 50.5857L28.732 26.9725C30.1893 24.626 32.0665 23.3416 34.0672 23.3416C36.0679 23.3416 37.9451 24.626 39.3777 26.9725L53.9755 50.5857C55.4081 52.9075 55.7291 55.0564 54.8399 56.6373Z" fill="#5A4499"/>
<path fill-rule="evenodd" clip-rule="evenodd" d="M53.63 10.794C53.63 11.6338 53.4571 12.3501 53.0866 12.9182C52.7161 13.4863 52.1727 13.9309 51.4564 14.2273C50.7401 14.5237 49.8756 14.6719 48.8629 14.6719C48.5665 14.6719 48.0725 14.6719 47.3809 14.5978V18.9203C47.3809 18.9203 47.3562 19.0932 47.2821 19.1673C47.2327 19.2414 47.1586 19.2661 47.0598 19.2661H45.4049C45.4049 19.2661 45.232 19.2414 45.1579 19.1673C45.0838 19.0932 45.0591 19.0191 45.0591 18.9203V7.53357C45.0591 7.36066 45.1332 7.21246 45.2567 7.13836C45.3802 7.06426 45.8248 6.99016 46.5905 6.91606C47.3562 6.84196 48.0972 6.81726 48.8382 6.81726C50.3943 6.81726 51.5799 7.13836 52.395 7.78056C53.2101 8.42276 53.6053 9.38607 53.6053 10.6458V10.794H53.63ZM51.3576 10.794V10.6458C51.3576 9.97887 51.16 9.48487 50.7648 9.18847C50.3696 8.86736 49.7521 8.71917 48.8629 8.71917C48.3442 8.71917 47.8502 8.71916 47.3809 8.79326V12.7206C47.9984 12.7453 48.4924 12.77 48.8629 12.77C49.7274 12.77 50.3449 12.6218 50.7401 12.3007C51.1353 11.9796 51.3329 11.4856 51.3329 10.794H51.3576ZM61.4352 16.5491C61.4352 18.4263 60.1755 19.3896 57.6808 19.3896C57.0633 19.3896 56.4705 19.3402 55.853 19.2414C55.2602 19.1426 54.9144 19.0685 54.8403 19.0191C54.7415 18.9697 54.7168 18.8956 54.7168 18.8215V17.6853C54.7168 17.5371 54.8156 17.463 54.9885 17.463C56.1494 17.5865 57.0386 17.6359 57.6808 17.6359C58.323 17.6359 58.7429 17.5618 58.9405 17.4136C59.1381 17.2654 59.2369 16.969 59.2369 16.5738V16.4256C59.2369 16.0057 59.1381 15.7093 58.9158 15.5611C58.6935 15.4129 58.3971 15.3388 57.9525 15.3388H55.4825C55.3096 15.3388 55.2108 15.2647 55.2108 15.1165V13.9556C55.2108 13.8074 55.3096 13.7086 55.4825 13.7086H57.9525C58.3971 13.7086 58.7182 13.6345 58.9158 13.4863C59.1134 13.3381 59.2122 13.0664 59.2122 12.6465V12.4983C59.2122 12.1031 59.0887 11.8561 58.8417 11.7326C58.5947 11.6091 58.1995 11.5597 57.6561 11.5597C57.335 11.5597 56.9151 11.5597 56.4458 11.6091L54.9638 11.7326C54.7909 11.7326 54.6921 11.6585 54.6921 11.4856V10.3741C54.6921 10.3741 54.7415 10.2259 54.8156 10.1765C54.8897 10.1271 55.2355 10.053 55.8283 9.95417C56.4211 9.85537 57.0386 9.80597 57.6561 9.80597C58.9652 9.80597 59.9038 10.0283 60.4966 10.4729C61.0894 10.9175 61.3858 11.5844 61.3858 12.4736V12.6218C61.3858 13.4616 60.9906 14.0791 60.2002 14.499C60.5707 14.6472 60.8671 14.8942 61.0894 15.2647C61.3117 15.6352 61.4105 16.0304 61.4105 16.4009V16.5491H61.4352Z" fill="#5A4499"/>
</svg>
