<svg width="71" height="70" viewBox="0 0 71 70" fill="none" xmlns="http://www.w3.org/2000/svg">
<path d="M7.19689 2.54411H64.4023C66.5265 2.54411 68.2555 4.27311 68.2555 6.39732V63.6027C68.2555 65.7269 66.5265 67.4312 64.427 67.4312H7.22161C5.09741 67.4312 3.36841 65.7022 3.36841 63.578V6.34792C3.36841 4.22371 5.09738 2.51941 7.19689 2.51941V2.54411Z" fill="white"/>
<path d="M7.14735 2.5441C5.02314 2.5441 3.31883 4.27311 3.31883 6.37261V63.578C3.31883 65.7022 5.02314 67.4312 7.14735 67.4312H64.3527C66.4769 67.4312 68.1813 65.7022 68.1813 63.578V6.37261C68.1813 4.24841 66.4522 2.5441 64.3527 2.5441H7.14735ZM64.3527 70H7.14735C3.61524 70 0.75 67.1348 0.75 63.6027V6.39732C0.75 2.86521 3.61524 0 7.14735 0H64.3527C67.8848 0 70.75 2.86521 70.75 6.39732V63.6027C70.75 67.1348 67.8848 70 64.3527 70Z" fill="#5A4499"/>
<path fill-rule="evenodd" clip-rule="evenodd" d="M20.7078 26.4293C20.115 28.677 19.4728 31.147 19.0529 33.0242C17.7932 34.4321 16.8299 36.1364 16.2865 38.063C14.6563 43.67 16.8793 49.4745 21.4241 52.6608L19.7692 56.5881C13.2978 52.5373 10.0126 44.5592 12.2603 36.8774C13.6189 32.2338 16.7558 28.5782 20.7078 26.4293ZM21.0783 61.9974L33.2307 49.7956C33.7247 49.3016 33.3789 48.4371 32.6626 48.4371H31.6993C31.0324 48.4371 30.6619 47.6714 31.0818 47.1527L37.5285 39.0263C37.9484 38.5076 37.5779 37.7419 36.911 37.7419H33.6753C33.0331 37.7419 32.6626 37.0009 33.0331 36.4822L41.2582 25.5401C41.6535 25.0214 41.2582 24.2804 40.616 24.2804H27.5991C27.3027 24.2804 27.031 24.4533 26.8828 24.725L20.5349 37.5937C20.2632 38.1124 20.6584 38.7299 21.2512 38.7299H24.1905C24.7833 38.7299 25.1538 39.3474 24.9068 39.8661L20.5596 48.6594C20.2879 49.1781 20.6831 49.7956 21.2759 49.7956H24.0423C24.6351 49.7956 25.0056 50.4131 24.7586 50.9318L19.8433 61.0588C19.4481 61.8492 20.4855 62.5902 21.103 61.948L21.0783 61.9974ZM47.1122 49.598C50.1503 42.2127 47.7297 33.9134 41.7276 29.2204L39.6527 32.9501C43.827 36.581 45.4326 42.6079 43.2343 47.9925C41.1348 53.1054 36.1947 56.1929 30.983 56.1929L26.7099 59.8732C34.9844 61.9727 43.7776 57.7243 47.1122 49.598Z" fill="#5A4499"/>
<path fill-rule="evenodd" clip-rule="evenodd" d="M51.2371 14.7214H46.0748C46.0748 14.7214 45.9019 14.6967 45.8278 14.6226C45.7537 14.5485 45.729 14.4744 45.729 14.4003V13.2147C45.729 13.2147 45.7537 13.0418 45.8278 12.9677C45.9019 12.8936 45.976 12.8689 46.0748 12.8689H51.2371V12.7701C51.2371 11.6833 51.0395 10.8929 50.6196 10.3989C50.2244 9.90493 49.4587 9.65794 48.3472 9.65794H45.7043C45.7043 9.65794 45.5314 9.63323 45.4573 9.55913C45.3832 9.48503 45.3585 9.41094 45.3585 9.31214V8.25003C45.3585 8.12653 45.3832 8.02773 45.4573 7.97833C45.5314 7.92893 45.8525 7.87953 46.3959 7.78073C46.9393 7.70662 47.6062 7.65723 48.3472 7.65723C50.1503 7.65723 51.4347 8.17593 52.2498 9.18863C53.0649 10.2013 53.4848 11.708 53.4848 13.7334V14.3509C53.4848 16.2775 53.0896 17.7596 52.3239 18.7476C51.5335 19.7356 50.2244 20.2543 48.3472 20.2543C47.6062 20.2543 46.9393 20.2049 46.3959 20.1308C45.8525 20.0567 45.5314 19.9826 45.4573 19.9579C45.3832 19.9085 45.3585 19.8344 45.3585 19.6862V18.6241C45.3585 18.6241 45.3832 18.4512 45.4573 18.3771C45.5314 18.303 45.6055 18.2783 45.7043 18.2783H48.3472C49.4587 18.2783 50.1997 18.0313 50.6196 17.5373C51.0395 17.0433 51.2371 16.2529 51.2371 15.1661V14.7214ZM60.4503 12.5972H58.2273C58.005 12.5972 57.8567 12.6466 57.7826 12.7454C57.7332 12.8442 57.6839 12.9924 57.6839 13.2147V19.785C57.6839 19.785 57.6592 19.9579 57.585 20.032C57.5109 20.1061 57.4368 20.1308 57.338 20.1308H55.8066C55.8066 20.1308 55.6337 20.1061 55.5843 20.032C55.5102 19.9579 55.4855 19.8838 55.4855 19.785V13.19C55.4855 12.4243 55.6584 11.8315 56.0042 11.4116C56.35 10.9917 57.091 10.7941 58.2026 10.7941H60.4255C61.537 10.7941 62.2781 10.9917 62.6239 11.4116C62.9697 11.8315 63.1426 12.4243 63.1426 13.19V19.785C63.1426 19.785 63.1178 19.9579 63.0437 20.032C62.9696 20.1061 62.8955 20.1308 62.7967 20.1308H61.2653C61.2653 20.1308 61.0924 20.1061 61.0183 20.032C60.9442 19.9579 60.9196 19.8838 60.9196 19.785V13.2147C60.9196 12.9924 60.8949 12.8442 60.8208 12.7454C60.7714 12.6466 60.6232 12.5972 60.3762 12.5972H60.4503Z" fill="#5A4499"/>
</svg>
