<svg width="70" height="70" viewBox="0 0 70 70" fill="none" xmlns="http://www.w3.org/2000/svg">
<path d="M6.44689 2.54411H63.6523C65.7765 2.54411 67.5055 4.27311 67.5055 6.39732V63.6027C67.5055 65.7269 65.7765 67.4312 63.677 67.4312H6.47161C4.34741 67.4312 2.61841 65.7022 2.61841 63.578V6.34793C2.61841 4.22372 4.34738 2.51941 6.44689 2.51941V2.54411Z" fill="white"/>
<path d="M6.39731 2.5441C4.2731 2.5441 2.56883 4.27312 2.56883 6.37262V63.578C2.56883 65.7022 4.2731 67.4312 6.39731 67.4312H63.6027C65.7269 67.4312 67.4312 65.7022 67.4312 63.578V6.37262C67.4312 4.24842 65.7022 2.5441 63.6027 2.5441H6.39731ZM63.6027 70H6.39731C2.8652 70 0 67.1348 0 63.6027V6.39731C0 2.8652 2.8652 0 6.39731 0H63.6027C67.1348 0 70 2.8652 70 6.39731V63.6027C70 67.1348 67.1348 70 63.6027 70Z" fill="#5A4499"/>
<path fill-rule="evenodd" clip-rule="evenodd" d="M28.8251 22.9464H29.4921C30.2084 22.9464 30.7765 22.3783 30.7765 21.662C30.7765 20.9457 30.2084 20.3776 29.4921 20.3776H28.8251C28.1088 20.3776 27.5408 20.9457 27.5408 21.662C27.5408 22.3783 28.1088 22.9464 28.8251 22.9464ZM22.8724 22.9464H23.5394C24.2557 22.9464 24.8237 22.3783 24.8237 21.662C24.8237 20.9457 24.2557 20.3776 23.5394 20.3776H22.8724C22.1561 20.3776 21.588 20.9457 21.588 21.662C21.588 22.3783 22.1561 22.9464 22.8724 22.9464ZM34.7532 22.9464H35.4201C36.1364 22.9464 36.7045 22.3783 36.7045 21.662C36.7045 20.9457 36.1364 20.3776 35.4201 20.3776H34.7532C34.0369 20.3776 33.4688 20.9457 33.4688 21.662C33.4688 22.3783 34.0369 22.9464 34.7532 22.9464ZM16.2528 22.9464H16.9198C17.6361 22.9464 18.2041 22.3783 18.2041 21.662C18.2041 20.9457 17.6361 20.3776 16.9198 20.3776H16.2528C15.5365 20.3776 14.9684 20.9457 14.9684 21.662C14.9684 22.3783 15.5365 22.9464 16.2528 22.9464ZM35.6177 26.9725C35.6177 27.6888 36.1858 28.2569 36.9021 28.2569H37.569C39.2486 28.2569 39.2486 25.6881 37.569 25.6881H36.9268C36.2105 25.6881 35.6424 26.2562 35.6424 26.9725H35.6177ZM13.1159 28.2569H13.7828C14.4991 28.2569 15.0673 27.6888 15.0673 26.9725C15.0673 26.2562 14.4991 25.6881 13.7828 25.6881H13.1159C12.3996 25.6881 11.8316 26.2562 11.8316 26.9725C11.8316 27.6888 12.3996 28.2569 13.1159 28.2569ZM23.7369 26.9725C23.7369 27.6888 24.3051 28.2569 25.0214 28.2569H25.6883C26.4046 28.2569 26.9726 27.6888 26.9726 26.9725C26.9726 26.2562 26.4046 25.6881 25.6883 25.6881H25.0214C24.3051 25.6881 23.7369 26.2562 23.7369 26.9725ZM29.6897 26.9725C29.6897 27.6888 30.2578 28.2569 30.9741 28.2569H31.641C32.3573 28.2569 32.9254 27.6888 32.9254 26.9725C32.9254 26.2562 32.3573 25.6881 31.641 25.6881H30.9741C30.2578 25.6881 29.6897 26.2562 29.6897 26.9725ZM17.8089 26.9725C17.8089 27.6888 18.377 28.2569 19.0933 28.2569H19.7603C20.4766 28.2569 21.0446 27.6888 21.0446 26.9725C21.0446 26.2562 20.4766 25.6881 19.7603 25.6881H19.0933C18.377 25.6881 17.8089 26.2562 17.8089 26.9725ZM22.9219 32.7523C22.9219 32.036 22.3537 31.4679 21.6374 31.4679H20.9705C20.2542 31.4679 19.6862 32.036 19.6862 32.7523C19.6862 33.4686 20.2542 34.0367 20.9705 34.0367H21.6374C22.3537 34.0367 22.9219 33.4686 22.9219 32.7523ZM26.9233 34.0367H27.5901C28.3064 34.0367 28.8746 33.4686 28.8746 32.7523C28.8746 32.036 28.3064 31.4679 27.5901 31.4679H26.9233C26.207 31.4679 25.6389 32.036 25.6389 32.7523C25.6389 33.4686 26.207 34.0367 26.9233 34.0367ZM38.804 34.0367H39.4709C40.1872 34.0367 40.7553 33.4686 40.7553 32.7523C40.7553 31.5173 39.6932 31.4679 38.804 31.4679C38.0877 31.4679 37.5196 32.036 37.5196 32.7523C37.5196 33.4686 38.0877 34.0367 38.804 34.0367ZM32.8513 34.0367H33.5182C34.2345 34.0367 34.8026 33.4686 34.8026 32.7523C34.8026 32.036 34.2345 31.4679 33.5182 31.4679H32.8513C32.135 31.4679 31.5669 32.036 31.5669 32.7523C31.5669 33.4686 32.135 34.0367 32.8513 34.0367ZM16.9691 32.7523C16.9691 32.036 16.4011 31.4679 15.6848 31.4679H15.0178C14.3015 31.4679 13.7334 32.036 13.7334 32.7523C13.7334 33.4686 14.3015 34.0367 15.0178 34.0367H15.6848C16.4011 34.0367 16.9691 33.4686 16.9691 32.7523ZM9.08981 34.0367H9.75668C10.473 34.0367 11.0411 33.4686 11.0411 32.7523C11.0411 32.036 10.473 31.4679 9.75668 31.4679H9.08981C8.3735 31.4679 7.80543 32.036 7.80543 32.7523C7.80543 33.4686 8.3735 34.0367 9.08981 34.0367ZM12.9677 38.3098C12.9677 37.5935 12.3996 37.0254 11.6833 37.0254H11.0164C10.3001 37.0254 9.73203 37.5935 9.73203 38.3098C9.73203 39.0261 10.3001 39.5942 11.0164 39.5942H11.6833C12.3996 39.5942 12.9677 39.0261 12.9677 38.3098ZM35.4695 39.5942C36.1858 39.5942 36.7539 39.0261 36.7539 38.3098C36.7539 37.5935 36.1858 37.0254 35.4695 37.0254H34.8026C34.0863 37.0254 33.5182 37.5935 33.5182 38.3098C33.5182 39.0261 34.0863 39.5942 34.8026 39.5942H35.4695ZM29.5167 39.5942C30.233 39.5942 30.8012 39.0261 30.8012 38.3098C30.8012 37.5935 30.233 37.0254 29.5167 37.0254H28.8499C28.1336 37.0254 27.5655 37.5935 27.5655 38.3098C27.5655 39.0261 28.1336 39.5942 28.8499 39.5942H29.5167ZM22.9219 39.5942H23.5887C24.305 39.5942 24.8732 39.0261 24.8732 38.3098C24.8732 37.5935 24.305 37.0254 23.5887 37.0254H22.9219C22.2056 37.0254 21.6374 37.5935 21.6374 38.3098C21.6374 39.0261 22.2056 39.5942 22.9219 39.5942ZM41.4222 39.5942C42.1385 39.5942 42.7066 39.0261 42.7066 38.3098C42.7066 37.5935 42.1385 37.0254 41.4222 37.0254H40.7553C40.039 37.0254 39.4709 37.5935 39.4709 38.3098C39.4709 39.0261 40.039 39.5942 40.7553 39.5942H41.4222ZM16.9691 39.5942H17.636C18.3523 39.5942 18.9205 39.0261 18.9205 38.3098C18.9205 37.5935 18.3523 37.0254 17.636 37.0254H16.9691C16.2528 37.0254 15.6848 37.5935 15.6848 38.3098C15.6848 39.0261 16.2528 39.5942 16.9691 39.5942ZM36.9515 45.5716H37.6184C38.3347 45.5716 38.9028 45.0035 38.9028 44.2872C38.9028 43.5709 38.3347 43.0028 37.6184 43.0028H36.9515C36.2352 43.0028 35.6671 43.5709 35.6671 44.2872C35.6671 45.0035 36.2352 45.5716 36.9515 45.5716ZM21.0446 44.2872C21.0446 43.5709 20.4766 43.0028 19.7603 43.0028H19.0933C18.377 43.0028 17.8089 43.5709 17.8089 44.2872C17.8089 45.0035 18.377 45.5716 19.0933 45.5716H19.7603C20.4766 45.5716 21.0446 45.0035 21.0446 44.2872ZM42.8795 45.5716H43.5464C44.2627 45.5716 44.8308 45.0035 44.8308 44.2872C44.8308 43.5709 44.2627 43.0028 43.5464 43.0028H42.8795C42.1632 43.0028 41.5951 43.5709 41.5951 44.2872C41.5951 45.0035 42.1632 45.5716 42.8795 45.5716ZM30.9988 45.5716H31.6657C32.382 45.5716 32.9501 45.0035 32.9501 44.2872C32.9501 43.5709 32.382 43.0028 31.6657 43.0028H30.9988C30.2825 43.0028 29.7144 43.5709 29.7144 44.2872C29.7144 45.0035 30.2825 45.5716 30.9988 45.5716ZM25.046 45.5716H25.713C26.4293 45.5716 26.9974 45.0035 26.9974 44.2872C26.9974 43.5709 26.4293 43.0028 25.713 43.0028H25.046C24.3297 43.0028 23.7617 43.5709 23.7617 44.2872C23.7617 45.0035 24.3297 45.5716 25.046 45.5716ZM15.0919 44.2872C15.0919 43.5709 14.5238 43.0028 13.8075 43.0028H13.1407C12.4244 43.0028 11.8562 43.5709 11.8562 44.2872C11.8562 45.0035 12.4244 45.5716 13.1407 45.5716H13.8075C14.5238 45.5716 15.0919 45.0035 15.0919 44.2872ZM50.7588 44.2872C50.7588 43.5709 50.1907 43.0028 49.4744 43.0028H48.8075C48.0912 43.0028 47.5231 43.5709 47.5231 44.2872C47.5231 45.0035 48.0912 45.5716 48.8075 45.5716H49.4744C50.1907 45.5716 50.7588 45.0035 50.7588 44.2872ZM38.7052 50.981H39.3721C40.0884 50.981 40.6565 50.4129 40.6565 49.6966C40.6565 48.9803 40.0884 48.4121 39.3721 48.4121H38.7052C37.9889 48.4121 37.4208 48.9803 37.4208 49.6966C37.4208 50.4129 37.9889 50.981 38.7052 50.981ZM32.7524 50.981H33.4194C34.1357 50.981 34.7038 50.4129 34.7038 49.6966C34.7038 48.9803 34.1357 48.4121 33.4194 48.4121H32.7524C32.0361 48.4121 31.4681 48.9803 31.4681 49.6966C31.4681 50.4129 32.0361 50.981 32.7524 50.981ZM44.6333 50.981H45.3001C46.0164 50.981 46.5845 50.4129 46.5845 49.6966C46.5845 48.9803 46.0164 48.4121 45.3001 48.4121H44.6333C43.9169 48.4121 43.3488 48.9803 43.3488 49.6966C43.3488 50.4129 43.9169 50.981 44.6333 50.981ZM51.2281 48.4121H50.5613C49.845 48.4121 49.2768 48.9803 49.2768 49.6966C49.2768 50.4129 49.845 50.981 50.5613 50.981H51.2281C51.9444 50.981 52.5125 50.4129 52.5125 49.6966C52.5125 48.9803 51.9444 48.4121 51.2281 48.4121ZM16.8457 49.6966C16.8457 48.9803 16.2775 48.4121 15.5612 48.4121H14.8943C14.178 48.4121 13.6099 48.9803 13.6099 49.6966C13.6099 50.4129 14.178 50.981 14.8943 50.981H15.5612C16.2775 50.981 16.8457 50.4129 16.8457 49.6966ZM26.7998 50.981H27.4667C28.183 50.981 28.751 50.4129 28.751 49.6966C28.751 48.9803 28.183 48.4121 27.4667 48.4121H26.7998C26.0835 48.4121 25.5153 48.9803 25.5153 49.6966C25.5153 50.4129 26.0835 50.981 26.7998 50.981ZM9.63321 48.4121H8.96634C8.25003 48.4121 7.68188 48.9803 7.68188 49.6966C7.68188 50.4129 8.25003 50.981 8.96634 50.981H9.63321C10.3495 50.981 10.9176 50.4129 10.9176 49.6966C10.9176 48.9803 10.3495 48.4121 9.63321 48.4121ZM22.7983 49.6966C22.7983 48.9803 22.2302 48.4121 21.5139 48.4121H20.8471C20.1308 48.4121 19.5626 48.9803 19.5626 49.6966C19.5626 50.4129 20.1308 50.981 20.8471 50.981H21.5139C22.2302 50.981 22.7983 50.4129 22.7983 49.6966ZM47.2267 53.9697H46.5599C45.8436 53.9697 45.2754 54.5378 45.2754 55.2541C45.2754 55.9704 45.8436 56.5385 46.5599 56.5385H47.2267C47.943 56.5385 48.5111 55.9704 48.5111 55.2541C48.5111 54.5378 47.943 53.9697 47.2267 53.9697ZM30.6776 55.2541C30.6776 54.5378 30.1096 53.9697 29.3933 53.9697H28.7264C28.0101 53.9697 27.4419 54.5378 27.4419 55.2541C27.4419 55.9704 28.0101 56.5385 28.7264 56.5385H29.3933C30.1096 56.5385 30.6776 55.9704 30.6776 55.2541ZM17.5125 53.9697H16.8457C16.1294 53.9697 15.5612 54.5378 15.5612 55.2541C15.5612 55.9704 16.1294 56.5385 16.8457 56.5385H17.5125C18.2288 56.5385 18.7969 55.9704 18.7969 55.2541C18.7969 54.5378 18.2288 53.9697 17.5125 53.9697ZM42.5831 55.2541C42.5831 54.5378 42.015 53.9697 41.2987 53.9697H40.6318C39.9155 53.9697 39.3474 54.5378 39.3474 55.2541C39.3474 55.9704 39.9155 56.5385 40.6318 56.5385H41.2987C42.015 56.5385 42.5831 55.9704 42.5831 55.2541ZM36.6304 55.2541C36.6304 54.5378 36.0623 53.9697 35.346 53.9697H34.6791C33.9628 53.9697 33.3947 54.5378 33.3947 55.2541C33.3947 55.9704 33.9628 56.5385 34.6791 56.5385H35.346C36.0623 56.5385 36.6304 55.9704 36.6304 55.2541ZM24.7249 55.2541C24.7249 54.5378 24.1568 53.9697 23.4405 53.9697H22.7737C22.0574 53.9697 21.4892 54.5378 21.4892 55.2541C21.4892 55.9704 22.0574 56.5385 22.7737 56.5385H23.4405C24.1568 56.5385 24.7249 55.9704 24.7249 55.2541ZM31.5174 59.9471H30.8506C30.1343 59.9471 29.5662 60.5152 29.5662 61.2315C29.5662 61.9478 30.1343 62.5159 30.8506 62.5159H31.5174C32.2337 62.5159 32.8019 61.9478 32.8019 61.2315C32.8019 60.5152 32.2337 59.9471 31.5174 59.9471ZM43.4229 59.9471H42.756C42.0397 59.9471 41.4716 60.5152 41.4716 61.2315C41.4716 61.9478 42.0397 62.5159 42.756 62.5159H43.4229C44.1392 62.5159 44.7073 61.9478 44.7073 61.2315C44.7073 60.5152 44.1392 59.9471 43.4229 59.9471ZM37.4702 59.9471H36.8033C36.087 59.9471 35.5189 60.5152 35.5189 61.2315C35.5189 61.9478 36.087 62.5159 36.8033 62.5159H37.4702C38.1865 62.5159 38.7546 61.9478 38.7546 61.2315C38.7546 60.5152 38.1865 59.9471 37.4702 59.9471ZM25.5894 59.9471H24.9226C24.2063 59.9471 23.6382 60.5152 23.6382 61.2315C23.6382 61.9478 24.2063 62.5159 24.9226 62.5159H25.5894C26.3057 62.5159 26.8739 61.9478 26.8739 61.2315C26.8739 60.5152 26.3057 59.9471 25.5894 59.9471Z" fill="#5A4499"/>
<path d="M50.2152 18.945C50.2152 18.945 50.1906 19.1179 50.1165 19.192C50.0424 19.2661 49.9683 19.2908 49.8695 19.2908H48.2145C48.2145 19.2908 48.0416 19.2661 47.9922 19.192C47.9428 19.1179 47.8934 19.0438 47.8934 18.945V9.65773C47.8934 9.33663 47.844 9.11433 47.7452 8.99083C47.6464 8.86733 47.4488 8.81793 47.2018 8.81793H43.8426C43.5709 8.81793 43.398 8.86733 43.2745 8.99083C43.1757 9.11433 43.1263 9.31193 43.1263 9.65773V18.945C43.1263 18.945 43.1016 19.1179 43.0275 19.192C42.9534 19.2661 42.8794 19.2908 42.7806 19.2908H41.1256C41.1256 19.2908 40.9527 19.2661 40.8786 19.192C40.8045 19.1179 40.7798 19.0438 40.7798 18.945V9.65773C40.7798 8.64502 41.0268 7.90402 41.4961 7.45942C41.9654 6.99012 42.7558 6.76782 43.8426 6.76782H47.2018C48.2886 6.76782 49.0791 6.99012 49.5484 7.45942C50.0177 7.92872 50.2647 8.64502 50.2647 9.65773V18.945H50.2152ZM62.0219 19.2908H60.4657C60.4657 19.2908 60.367 19.2661 60.3176 19.2167C60.2682 19.1673 60.2435 19.0932 60.2435 19.0438V13.1157C60.2435 13.1157 60.2435 12.9923 60.1941 12.9923L60.12 13.0663L58.7862 15.4869C58.7862 15.4869 58.6874 15.6105 58.5886 15.6352C58.4898 15.6846 58.391 15.6846 58.3169 15.6846H56.7607C56.7607 15.6846 56.5631 15.6846 56.4643 15.6352C56.3655 15.5858 56.2915 15.5363 56.2668 15.4869L54.933 13.0663L54.8589 12.9923C54.8589 12.9923 54.8095 13.0416 54.8095 13.1157V19.0438C54.8095 19.0438 54.7848 19.1673 54.7354 19.2167C54.686 19.2661 54.6366 19.2908 54.5625 19.2908H53.0064C52.8335 19.2908 52.7347 19.2414 52.7347 19.0932V10.3246C52.7347 10.1764 52.8088 10.0529 52.9323 9.95413C53.0558 9.85533 53.204 9.80594 53.3522 9.80594H54.6366C54.6366 9.80594 54.8835 9.83064 54.9823 9.90474C55.0811 9.97884 55.1553 10.0529 55.2047 10.127L57.3536 14.0297C57.3536 14.0297 57.4771 14.2025 57.5512 14.2025C57.6006 14.2025 57.65 14.1532 57.7241 14.0297L59.873 10.127C59.873 10.127 59.9965 9.95414 60.12 9.90474C60.2188 9.85534 60.3422 9.80594 60.4657 9.80594H61.7502C61.8984 9.80594 62.0466 9.85533 62.1701 9.95413C62.2936 10.0529 62.3677 10.1764 62.3677 10.3246V19.0932C62.3677 19.2167 62.2689 19.2908 62.096 19.2908H62.0219Z" fill="#5A4499"/>
</svg>
