<svg width="71" height="70" viewBox="0 0 71 70" fill="none" xmlns="http://www.w3.org/2000/svg">
<path d="M6.69689 2.54413H63.9022C66.0264 2.54413 67.7554 4.27313 67.7554 6.39734V63.6027C67.7554 65.7269 66.0264 67.4312 63.9269 67.4312H6.72161C4.59741 67.4312 2.86841 65.7022 2.86841 63.578V6.34789C2.86841 4.22368 4.59738 2.51941 6.69689 2.51941V2.54413Z" fill="white"/>
<path d="M6.64723 2.54414C4.52303 2.54414 2.81875 4.27311 2.81875 6.37262V63.578C2.81875 65.7022 4.52303 67.4312 6.64723 67.4312H63.8527C65.9769 67.4312 67.6811 65.7022 67.6811 63.578V6.37262C67.6811 4.24841 65.9522 2.54414 63.8527 2.54414H6.64723ZM63.8527 70H6.64723C3.11512 70 0.25 67.1348 0.25 63.6027V6.39734C0.25 2.86524 3.11512 0 6.64723 0H63.8527C67.3848 0 70.2499 2.86524 70.2499 6.39734V63.6027C70.2499 67.1348 67.3848 70 63.8527 70Z" fill="#5A4499"/>
<path fill-rule="evenodd" clip-rule="evenodd" d="M24.8762 11.5102C25.1232 12.0783 24.8515 12.7452 24.2834 12.9922C23.7153 13.2392 23.0484 12.9676 22.8014 12.3995C22.5544 11.8314 22.8261 11.1644 23.3942 10.9174C23.9623 10.6704 24.6292 10.9421 24.8762 11.5102ZM21.591 8.47216C21.2205 7.60766 21.6404 6.59495 22.5049 6.22445C23.3694 5.85395 24.3822 6.27383 24.7527 7.13834C25.1232 8.00284 24.7033 9.01555 23.8388 9.38605C22.9743 9.75655 21.9615 9.33666 21.591 8.47216ZM26.457 26.7996C25.3702 27.2442 24.1352 26.7502 23.6906 25.6634C23.246 24.5766 23.7399 23.3416 24.8267 22.897C25.9135 22.4524 27.1486 22.9464 27.5932 24.0332C28.0378 25.12 27.5438 26.355 26.457 26.7996ZM21.7392 14.6225C22.2085 15.734 21.6899 16.9937 20.5784 17.4383C19.4669 17.8829 18.2071 17.3889 17.7625 16.2774C17.3179 15.1659 17.812 13.9061 18.9235 13.4615C20.035 13.0169 21.2946 13.5109 21.7392 14.6225ZM26.7039 15.8822C26.2099 14.6966 24.8515 14.1532 23.6906 14.6472C22.5297 15.1412 21.9616 16.4997 22.4556 17.6606C22.9496 18.8215 24.308 19.3896 25.4689 18.8956C26.6298 18.4016 27.1979 17.0431 26.7039 15.8822ZM26.9263 29.2202C27.1733 29.7883 26.9016 30.4552 26.3088 30.7022C25.716 30.9492 25.0737 30.6775 24.8267 30.0847C24.5797 29.4919 24.8514 28.8497 25.4442 28.6027C26.037 28.3557 26.6793 28.6274 26.9263 29.2202ZM25.5678 35.9386C28.1366 34.8518 30.1126 33.7156 31.9898 32.7523C30.5078 31.7396 33.7188 33.8391 32.4344 33.0487L31.9898 32.7523L31.7921 32.2583L27.1485 21.2174L20.8253 23.8602L25.4689 34.9012L25.6666 35.3952L25.5431 35.9139C25.1973 37.4453 25.8889 34.0367 25.5431 35.9139L25.5678 35.9386ZM33.373 31.6161L28.7294 20.5752L30.3102 19.9083L29.6432 18.3275L28.0624 18.9944L23.32 20.9704L18.5777 22.9464L16.9968 23.6133L17.6638 25.1941L19.2446 24.5272L23.8882 35.5681C23.8882 35.5681 19.4668 55.9704 21.4428 60.7128C23.4188 65.4552 28.1613 63.4545 28.1613 63.4545L39.2022 58.8109L50.2432 54.1673C50.2432 54.1673 54.9855 52.1913 52.9848 47.4489C50.9841 42.7064 33.3235 31.5667 33.3235 31.5667L33.373 31.6161ZM25.8642 57.6994L23.3695 51.722L24.5303 51.228L28.6799 54.192L27.0003 50.1905L28.1119 49.7212L30.6066 55.6987L29.3963 56.2173L25.3207 53.3028L26.9757 57.2301L25.8642 57.6994ZM31.471 51.8207L30.3596 52.0678C30.3102 51.5985 30.3595 51.2032 30.5571 50.8821C30.7547 50.561 31.15 50.2893 31.6934 50.0423C32.2121 49.82 32.6073 49.7212 32.9037 49.7459C33.2001 49.7459 33.447 49.8448 33.6199 49.993C33.7928 50.1412 33.9905 50.4622 34.2128 50.9562L34.7562 52.29C34.9044 52.6605 35.0527 52.9323 35.1515 53.1052C35.275 53.2781 35.4231 53.4262 35.596 53.5991L34.4598 54.0685C34.4598 54.0685 34.3116 53.9203 34.2128 53.7721C34.1634 53.7227 34.1386 53.6733 34.1139 53.6486C33.9904 53.9203 33.8423 54.1426 33.6694 54.3402C33.4965 54.5378 33.2741 54.686 33.0271 54.7848C32.5825 54.9824 32.1874 55.0071 31.8169 54.8589C31.4711 54.7354 31.1994 54.4637 31.0512 54.0932C30.9524 53.8462 30.9277 53.5992 30.9524 53.3769C30.9771 53.1299 31.1006 52.9322 31.2488 52.7346C31.4217 52.537 31.6934 52.3395 32.0392 52.0925C32.5332 51.7714 32.8542 51.5243 33.0271 51.3514L32.9778 51.228C32.879 51.0057 32.7555 50.8574 32.6073 50.808C32.4591 50.7586 32.2367 50.8081 31.9403 50.9316C31.7427 51.0057 31.5946 51.1292 31.5205 51.2527C31.4464 51.3762 31.397 51.5738 31.4217 51.7961L31.471 51.8207ZM33.3977 52.0925L33.4964 52.3148C33.6199 52.5865 33.6694 52.784 33.6941 52.8828C33.6941 53.0557 33.6941 53.204 33.5706 53.3769C33.4471 53.5992 33.2742 53.7473 33.0766 53.8214C32.879 53.8955 32.706 53.8955 32.5578 53.8214C32.3849 53.7473 32.2615 53.6486 32.2121 53.4757C32.1627 53.3028 32.1626 53.1545 32.2614 52.9816C32.3355 52.8828 32.5085 52.7346 32.8049 52.5123C33.1013 52.3147 33.2989 52.1665 33.4224 52.043L33.3977 52.0925ZM35.0526 50.3634C34.8056 49.7459 34.6822 49.2026 34.6822 48.7086C34.6822 48.3381 34.7562 47.9922 34.9044 47.6464C35.0279 47.3006 35.2255 47.029 35.4478 46.782C35.7442 46.4609 36.1394 46.2138 36.6334 46.0162C37.5226 45.6457 38.3377 45.621 39.1034 45.9421C39.8691 46.2632 40.4373 46.9301 40.8572 47.8934C41.2771 48.8567 41.3263 49.7213 41.0299 50.487C40.7335 51.2527 40.1408 51.8207 39.2763 52.1912C38.4118 52.5617 37.572 52.5864 36.8063 52.2653C36.0653 51.9442 35.4725 51.302 35.0773 50.3387L35.0526 50.3634ZM36.2876 49.7953C35.9912 49.1037 35.9417 48.5357 36.0899 48.0664C36.2628 47.5971 36.584 47.2512 37.078 47.0536C37.572 46.856 38.0413 46.856 38.4859 47.0536C38.9305 47.2759 39.301 47.7206 39.5727 48.3875C39.8444 49.0544 39.9186 49.6719 39.7704 50.1412C39.5975 50.6105 39.2763 50.9563 38.807 51.1539C38.3377 51.3515 37.8437 51.3515 37.3991 51.1539C36.9298 50.9316 36.5593 50.4869 36.2876 49.82V49.7953ZM43.0308 50.487L40.5361 44.5095L41.7463 43.9909L42.7342 46.3373L45.0808 45.3493L44.0929 43.0028L45.3031 42.4841L47.7979 48.4616L46.5875 48.9802L45.5008 46.362L43.1543 47.35L44.2411 49.9682L43.0308 50.487Z" fill="#5A4499"/>
<path fill-rule="evenodd" clip-rule="evenodd" d="M37.7694 7.65685C37.7694 7.65685 37.794 7.50869 37.8434 7.45929C37.8928 7.40989 37.9669 7.38519 38.041 7.38519H39.3748C39.3748 7.38519 39.523 7.40989 39.5724 7.45929C39.6218 7.50869 39.6464 7.58275 39.6464 7.65685V15.8079H41.9682C42.1905 15.8079 42.3389 15.7585 42.413 15.6597C42.4871 15.5609 42.5365 15.388 42.5365 15.141V7.65685C42.5365 7.65685 42.5611 7.50869 42.6105 7.45929C42.6599 7.40989 42.734 7.38519 42.8081 7.38519H44.1419C44.1419 7.38519 44.2901 7.40989 44.3395 7.45929C44.3889 7.50869 44.4137 7.58275 44.4137 7.65685V15.141C44.4137 15.4127 44.4136 15.635 44.3642 15.7832H45.624C45.624 15.7832 45.7721 15.8079 45.8215 15.8573C45.8709 15.9067 45.8956 15.9808 45.8956 16.0549V19.0683C45.8956 19.0683 45.8709 19.1918 45.8215 19.2659C45.7721 19.3153 45.6981 19.34 45.624 19.34H44.2901C44.2901 19.34 44.142 19.3153 44.0926 19.2659C44.0432 19.2165 44.0184 19.1424 44.0184 19.0683V17.4628H35.2746C34.4101 17.4628 33.7926 17.2899 33.3974 16.9194C33.0022 16.5489 32.8293 15.9561 32.8293 15.141V7.65685C32.8293 7.65685 32.854 7.50869 32.9034 7.45929C32.9528 7.40989 33.0269 7.38519 33.101 7.38519H34.4348C34.4348 7.38519 34.583 7.40989 34.6324 7.45929C34.6818 7.50869 34.7064 7.58275 34.7064 7.65685V15.141C34.7064 15.388 34.7559 15.5609 34.83 15.6597C34.9041 15.7585 35.0523 15.8079 35.2746 15.8079H37.7446V7.65685H37.7694ZM48.9831 15.9314H53.4538C53.6267 15.9314 53.7255 16.0055 53.7255 16.1784V17.2158C53.7255 17.2158 53.7009 17.364 53.6515 17.4134C53.6021 17.4628 53.5279 17.4875 53.4538 17.4875H47.6987C47.6987 17.4875 47.5506 17.4628 47.5012 17.4134C47.4518 17.364 47.427 17.2899 47.427 17.2158V15.882C47.427 15.4374 47.5011 15.0175 47.674 14.5729C47.8469 14.1283 48.0693 13.7331 48.3904 13.3379C48.7115 12.9427 49.082 12.6216 49.5019 12.3252L50.8356 11.436C51.4037 11.0655 51.7495 10.7691 51.8977 10.5962C52.0212 10.3986 52.0954 10.1516 52.0954 9.7811C52.0954 9.4106 51.9718 9.16358 51.7248 8.99068C51.4778 8.84248 51.0826 8.76839 50.5145 8.76839C50.144 8.76839 49.7241 8.76838 49.2301 8.84248L47.7976 8.99068H47.7729C47.6 8.99068 47.5258 8.89191 47.5258 8.71901V7.90387C47.5258 7.90387 47.5999 7.70625 47.7481 7.65685C47.8963 7.60745 48.2668 7.53336 48.8349 7.43456C49.4277 7.33576 49.9711 7.31109 50.5145 7.31109C51.6754 7.31109 52.5153 7.50867 53.0587 7.90387C53.6021 8.29907 53.8737 8.91662 53.8737 9.80582C53.8737 10.3245 53.7503 10.7938 53.4786 11.2137C53.2069 11.6336 52.7869 12.0288 52.1694 12.4487L50.8604 13.3132C50.1688 13.7825 49.6747 14.2024 49.403 14.5729C49.1313 14.9434 49.0079 15.388 49.0079 15.9067V15.9561L48.9831 15.9314ZM62.6916 12.9427C62.6916 14.4988 62.3953 15.6597 61.8272 16.4254C61.2344 17.1911 60.3451 17.5616 59.1595 17.5616C57.9739 17.5616 57.06 17.1911 56.4919 16.4254C55.9238 15.6597 55.6275 14.4988 55.6275 12.9427V11.93C55.6275 10.3739 55.9238 9.18825 56.4919 8.42255C57.0847 7.65685 57.9739 7.26172 59.1595 7.26172C60.3451 7.26172 61.2591 7.65685 61.8272 8.42255C62.42 9.18825 62.6916 10.3492 62.6916 11.93V12.9427ZM60.8144 12.9427V11.93C60.8144 10.8926 60.691 10.1022 60.4193 9.58346C60.1476 9.06475 59.7276 8.81776 59.1595 8.81776C58.5914 8.81776 58.1715 9.08945 57.8998 9.58346C57.6281 10.1022 57.5047 10.8926 57.5047 11.93V12.9427C57.5047 13.9801 57.6281 14.7705 57.8998 15.2892C58.1715 15.8079 58.5914 16.0549 59.1595 16.0549C59.7276 16.0549 60.1476 15.8079 60.4193 15.2892C60.691 14.7705 60.8144 14.0048 60.8144 12.9427Z" fill="#5A4499"/>
</svg>
