<svg width="71" height="70" viewBox="0 0 71 70" fill="none" xmlns="http://www.w3.org/2000/svg">
<path d="M6.89737 2.54411H64.1027C66.2269 2.54411 67.956 4.27311 67.956 6.39732V63.6027C67.956 65.7269 66.2269 67.4312 64.1274 67.4312H6.92205C4.79785 67.4312 3.06885 65.7022 3.06885 63.578V6.34792C3.06885 4.22371 4.79786 2.51941 6.89737 2.51941V2.54411Z" fill="white"/>
<path d="M6.89735 2.5441C4.77314 2.5441 3.0441 4.27311 3.0441 6.39732V63.6027C3.0441 65.7269 4.77314 67.4312 6.89735 67.4312H64.1027C66.2269 67.4312 67.9312 65.7022 67.9312 63.6027V6.39732C67.9312 4.27311 66.2022 2.5441 64.1027 2.5441H6.89735ZM64.1027 70H6.89735C3.36524 70 0.5 67.1348 0.5 63.6027V6.39732C0.5 2.86521 3.36524 0 6.89735 0H64.1027C67.6348 0 70.5 2.86521 70.5 6.39732V63.6027C70.5 67.1348 67.6348 70 64.1027 70Z" fill="#5A4499"/>
<path d="M25.7927 47.8195C25.4963 47.8936 25.1999 47.9183 24.9035 47.9183C23.0757 47.9183 21.569 46.5351 21.569 44.8308C21.569 44.4109 21.6678 43.9416 21.8901 43.3982C21.9148 43.2994 22.0383 43.25 22.1371 43.2747C22.2359 43.2747 22.31 43.3735 22.2853 43.4723C22.2853 43.5958 22.2853 43.6946 22.2853 43.7934C22.2853 45.6459 23.792 47.202 25.768 47.3996C25.8668 47.3996 25.9409 47.4737 25.9409 47.5725C25.9409 47.6713 25.8915 47.7454 25.7927 47.7701M28.0898 39.4709C29.3742 41.5951 30.0164 43.3241 30.0164 44.6579C30.0164 47.3749 27.8181 49.5732 25.1011 49.5732C22.3841 49.5732 20.1858 47.3749 20.1858 44.6579C20.1858 43.3241 20.828 41.5704 22.1124 39.4709C23.1004 37.8407 24.2119 36.4081 24.78 35.7165C24.8541 35.6177 24.9776 35.5683 25.1011 35.5683C25.2246 35.5683 25.3481 35.6177 25.4222 35.7165C25.9903 36.4081 27.1018 37.8407 28.0898 39.4709ZM9.29308 59.8237C8.79908 59.8237 8.37915 60.5153 8.37915 61.1822C8.37915 61.8491 8.77438 62.5407 9.29308 62.5407H40.1929C40.6869 62.5407 41.1067 61.8491 41.1067 61.1822C41.1067 60.5153 40.7116 59.8237 40.1929 59.8237H39.279V25.3177H40.1929C40.6869 25.3177 41.1067 24.6014 41.1067 23.9592C41.1067 23.317 40.7116 22.6007 40.1929 22.6007H9.29308C8.79908 22.6007 8.37915 23.317 8.37915 23.9592C8.37915 24.6014 8.77438 25.3177 9.29308 25.3177H10.207V59.8237H9.29308ZM12.924 20.7729H17.4688V18.0559H12.924V20.7729Z" fill="#5A4499"/>
<path fill-rule="evenodd" clip-rule="evenodd" d="M52.4688 18.278C52.4688 18.278 52.4441 18.4509 52.37 18.525C52.2959 18.5991 52.2218 18.6238 52.123 18.6238H50.4433C50.4433 18.6238 50.2705 18.5991 50.1964 18.525C50.1223 18.4509 50.0975 18.3768 50.0975 18.278V13.1157H45.3057V18.278C45.3057 18.278 45.281 18.4509 45.2069 18.525C45.1328 18.5991 45.0587 18.6238 44.9599 18.6238H43.305C43.305 18.6238 43.1322 18.5991 43.058 18.525C42.9839 18.4509 42.9592 18.3768 42.9592 18.278V6.42193C42.9592 6.42193 42.9839 6.24903 43.058 6.19963C43.1075 6.12553 43.2062 6.10083 43.305 6.10083H44.9599C44.9599 6.10083 45.1328 6.12553 45.2069 6.19963C45.281 6.24903 45.3057 6.34783 45.3057 6.42193V11.0656H50.0975V6.42193C50.0975 6.42193 50.1223 6.24903 50.1964 6.19963C50.2705 6.12553 50.3445 6.10083 50.4433 6.10083H52.123C52.123 6.10083 52.2959 6.12553 52.37 6.19963C52.4441 6.24903 52.4688 6.34783 52.4688 6.42193V18.278ZM60.7927 18.3274L59.1131 11.2385C59.0637 11.0161 58.9402 10.8927 58.7426 10.8927C58.545 10.8927 58.4215 11.0161 58.3721 11.2385L56.7172 18.3274C56.6678 18.525 56.569 18.6238 56.3961 18.6238H54.7165C54.5189 18.6238 54.4201 18.525 54.4201 18.3274C54.4201 18.3274 54.4201 18.3027 54.4201 18.2533L56.3961 10.7198C56.6925 9.58355 57.4829 9.01544 58.7426 9.01544C60.0023 9.01544 60.7927 9.58355 61.0891 10.7198L63.0898 18.3274C63.0898 18.525 62.991 18.6238 62.7934 18.6238H61.1138C60.9409 18.6238 60.8421 18.525 60.7927 18.3274Z" fill="#5A4499"/>
</svg>
