<svg width="71" height="70" viewBox="0 0 71 70" fill="none" xmlns="http://www.w3.org/2000/svg">
<path d="M7.14737 2.54411H64.3527C66.4769 2.54411 68.206 4.27311 68.206 6.39732V63.6027C68.206 65.7269 66.4769 67.4312 64.3774 67.4312H7.17205C5.04785 67.4312 3.31885 65.7022 3.31885 63.578V6.34793C3.31885 4.22372 5.04786 2.51941 7.14737 2.51941V2.54411Z" fill="white"/>
<path d="M7.14735 2.5441C5.02314 2.5441 3.2941 4.2731 3.2941 6.39731V63.6027C3.2941 65.7269 5.02314 67.4312 7.14735 67.4312H64.3527C66.4769 67.4312 68.1812 65.7022 68.1812 63.6027V6.39731C68.1812 4.2731 66.4522 2.5441 64.3527 2.5441H7.14735ZM64.3527 70H7.14735C3.61524 70 0.75 67.1348 0.75 63.6027V6.39731C0.75 2.8652 3.61524 0 7.14735 0H64.3527C67.8848 0 70.75 2.8652 70.75 6.39731V63.6027C70.75 67.1348 67.8848 70 64.3527 70Z" fill="#5A4499"/>
<path d="M22.56 42.9537C22.56 44.4851 22.1648 45.6954 21.325 46.5846C20.5099 47.4492 19.3984 47.8937 17.9658 47.8937C16.5332 47.8937 15.4217 47.4491 14.6066 46.5599C13.7915 45.6707 13.3963 44.4604 13.3963 42.9537C13.3963 41.447 13.8162 40.2367 14.6066 39.3475C15.4217 38.4583 16.5579 38.0137 17.9658 38.0137C19.3737 38.0137 20.5099 38.4583 21.325 39.3228C22.1648 40.212 22.56 41.4223 22.56 42.9537ZM20.1148 42.9537C20.1148 43.5465 20.0653 44.0405 19.9418 44.411C19.843 44.7815 19.6701 45.1026 19.4725 45.3743C19.2749 45.6214 19.0526 45.8189 18.7809 45.9424C18.5092 46.0659 18.2375 46.14 17.9658 46.14C17.6941 46.14 17.4224 46.0906 17.1507 45.9671C16.9037 45.8683 16.6567 45.6707 16.4591 45.399C16.2615 45.1273 16.0887 44.8062 15.9899 44.4357C15.8911 44.0405 15.8169 43.5712 15.8169 42.9784C15.8169 42.3856 15.8911 41.941 15.9899 41.5211C16.1134 41.1259 16.2615 40.7801 16.4591 40.5331C16.6814 40.2614 16.9037 40.0885 17.1507 39.9897C17.3977 39.8909 17.6694 39.8415 17.9411 39.8415C18.2128 39.8415 18.4845 39.8909 18.7315 40.0144C19.0032 40.1379 19.2256 40.3108 19.4232 40.5825C19.6208 40.8295 19.7689 41.1753 19.8924 41.5705C20.0159 41.9657 20.0654 42.4597 20.0654 43.0031M28.661 47.7702H23.5481V46.1153H24.9065V39.9403H23.5481V38.2854H28.661V39.9403H27.3025V46.1153H28.661V47.7702ZM36.565 47.7702H30.2418V38.2854H32.6377V45.9671H36.5897V47.7949L36.565 47.7702ZM9.49372 59.9474C8.99972 59.9474 8.57983 60.639 8.57983 61.3059C8.57983 61.9728 8.97502 62.6644 9.49372 62.6644H40.3935C40.8875 62.6644 41.3074 61.9728 41.3074 61.3059C41.3074 60.639 40.9122 59.9474 40.3935 59.9474H39.4796V25.4414H40.3935C40.8875 25.4414 41.3074 24.7251 41.3074 24.0829C41.3074 23.4407 40.9122 22.7244 40.3935 22.7244H9.49372C8.99972 22.7244 8.57983 23.4407 8.57983 24.0829C8.57983 24.7251 8.97502 25.4414 9.49372 25.4414H10.4076V59.9474H9.49372ZM13.1246 20.8966H17.6694V18.1796H13.1246V20.8966Z" fill="#5A4499"/>
<path fill-rule="evenodd" clip-rule="evenodd" d="M53.5589 18.278C53.5589 18.278 53.5342 18.4509 53.4601 18.525C53.386 18.5991 53.3119 18.6238 53.2131 18.6238H51.5335C51.5335 18.6238 51.3606 18.5991 51.2865 18.525C51.2124 18.4509 51.1877 18.3768 51.1877 18.278V13.1157H46.3959V18.278C46.3959 18.278 46.3711 18.4509 46.297 18.525C46.2229 18.5991 46.1489 18.6238 46.0501 18.6238H44.3952C44.3952 18.6238 44.2222 18.5991 44.1481 18.525C44.074 18.4509 44.0493 18.3768 44.0493 18.278V6.39727C44.0493 6.39727 44.074 6.22437 44.1481 6.17497C44.2222 6.10087 44.2964 6.07617 44.3952 6.07617H46.0501C46.0501 6.07617 46.2229 6.10087 46.297 6.17497C46.3711 6.24907 46.3959 6.32317 46.3959 6.39727V11.0409H51.1877V6.39727C51.1877 6.39727 51.2124 6.22437 51.2865 6.17497C51.3606 6.10087 51.4347 6.07617 51.5335 6.07617H53.2131C53.2131 6.07617 53.386 6.10087 53.4601 6.17497C53.5342 6.24907 53.5589 6.32317 53.5589 6.39727V18.278ZM60.4996 10.9174V18.2533C60.4996 18.2533 60.4749 18.4262 60.4008 18.5003C60.3267 18.5744 60.2526 18.5991 60.1538 18.5991H58.5977C58.5977 18.5991 58.4248 18.5744 58.3507 18.5003C58.2766 18.4262 58.2519 18.3521 58.2519 18.2533V10.9174H55.6337C55.6337 10.9174 55.4608 10.8927 55.3867 10.8186C55.3126 10.7692 55.2879 10.6951 55.2879 10.5963V9.43538C55.2879 9.43538 55.3126 9.26249 55.3867 9.18839C55.4608 9.11429 55.5349 9.08958 55.6337 9.08958H63.0931C63.0931 9.08958 63.266 9.11429 63.3401 9.18839C63.4142 9.26249 63.4389 9.33658 63.4389 9.43538V10.5963C63.4389 10.5963 63.4142 10.7692 63.3401 10.8186C63.266 10.8927 63.1919 10.9174 63.0931 10.9174H60.4749H60.4996Z" fill="#5A4499"/>
</svg>
