<svg width="70" height="70" viewBox="0 0 70 70" fill="none" xmlns="http://www.w3.org/2000/svg">
<path d="M6.3974 2.54419H63.6028C65.727 2.54419 67.456 4.2732 67.456 6.3974V63.6028C67.456 65.727 65.727 67.456 63.6028 67.456H6.3974C4.27319 67.456 2.54419 65.727 2.54419 63.6028V6.3727C2.54419 4.24849 4.27319 2.54419 6.3727 2.54419H6.3974Z" fill="white"/>
<path d="M6.39732 2.5441C4.27311 2.5441 2.56881 4.27311 2.56881 6.39732V63.6027C2.56881 65.7269 4.27311 67.4559 6.39732 67.4559H63.6027C65.7269 67.4559 67.4312 65.7269 67.4312 63.6027V6.39732C67.4312 4.27311 65.7022 2.5441 63.6027 2.5441H6.39732ZM63.6027 70H6.39732C2.86521 70 0 67.1348 0 63.6027V6.39732C0 2.86521 2.86521 0 6.39732 0H63.6027C67.1348 0 70 2.86521 70 6.39732V63.6027C70 67.1348 67.1348 70 63.6027 70Z" fill="#5A4499"/>
<path d="M49.1533 33.2955H38.3841C34.5556 40.8784 34.5309 49.0541 38.2853 56.6617C38.2853 56.6617 28.8499 53.92 35.5683 33.2955H27.022C23.1935 40.8784 23.1688 49.721 26.9232 57.304V56.6617C25.5153 56.6123 16.7468 51.4994 24.9225 31.443H27.0714L22.1561 26.9229L13.0665 31.443H16.3763C11.1646 40.0386 11.1646 50.709 16.3763 59.3046H50.1166C42.5337 55.9948 41.3975 38.2849 49.1533 33.2955Z" fill="#5A4499"/>
<path d="M50.0174 21.6867C50.0174 21.6867 49.8939 21.7361 49.8198 21.7361H48.1155C48.1155 21.7361 47.9673 21.7114 47.9179 21.6373C47.8685 21.5632 47.8438 21.4891 47.8438 21.415V13.6344C47.8438 13.6344 47.8438 13.4616 47.7944 13.4616C47.7944 13.4616 47.745 13.4862 47.7203 13.5603L46.1148 16.7714C46.1148 16.7714 45.9913 16.9196 45.8925 16.969C45.7937 17.0184 45.6949 17.0431 45.5714 17.0431H43.8671C43.8671 17.0431 43.6448 17.0184 43.546 16.969C43.4472 16.9196 43.3731 16.8455 43.3237 16.7714L41.6935 13.5603L41.6194 13.4616C41.5947 13.4616 41.57 13.5109 41.57 13.6344V21.415C41.57 21.415 41.57 21.5879 41.4959 21.6373C41.4465 21.7114 41.3724 21.7361 41.2983 21.7361H39.594C39.594 21.7361 39.4458 21.7361 39.3964 21.6867C39.347 21.6373 39.3223 21.5879 39.3223 21.4891V9.95413C39.3223 9.75653 39.3964 9.60834 39.5199 9.48484C39.6434 9.36134 39.8163 9.28723 39.9892 9.28723H41.3724C41.4959 9.28723 41.6194 9.31193 41.7429 9.38603C41.8417 9.46013 41.9405 9.55893 41.9899 9.68243L44.534 14.8201C44.534 14.8201 44.6081 14.9683 44.6328 14.993C44.6328 15.0424 44.6822 15.0424 44.7069 15.0424C44.7316 15.0424 44.781 15.0424 44.781 14.993C44.781 14.9436 44.8304 14.8942 44.8798 14.8201L47.4239 9.68243C47.4239 9.68243 47.5721 9.46013 47.6709 9.38603C47.7697 9.31193 47.9179 9.28723 48.0414 9.28723H49.4246C49.6222 9.28723 49.7704 9.36134 49.8939 9.48484C50.0174 9.60834 50.0915 9.78123 50.0915 9.95413V21.4891C50.0915 21.4891 50.0668 21.6373 50.0174 21.6867ZM60.095 21.6373C60.095 21.6373 59.9468 21.7361 59.8727 21.7361H58.3413C58.3413 21.7361 58.1684 21.7114 58.0943 21.6373C58.0202 21.5632 57.9955 21.4891 57.9955 21.415V21.0445C57.5509 21.3409 57.1557 21.5385 56.7605 21.6867C56.3653 21.8102 55.896 21.8843 55.3773 21.8843C54.9574 21.8843 54.5622 21.8349 54.2164 21.7114C53.8706 21.6126 53.5742 21.415 53.3272 21.168C53.0061 20.8469 52.8085 20.4517 52.685 19.933C52.5615 19.4143 52.4874 18.8215 52.4874 18.1052V12.6217C52.4874 12.6217 52.5121 12.4488 52.5862 12.3747C52.6603 12.3006 52.7344 12.2759 52.8085 12.2759H54.3646C54.3646 12.2759 54.5375 12.3006 54.5869 12.3747C54.661 12.4488 54.6857 12.5229 54.6857 12.6217V18.1052C54.6857 18.5251 54.6857 18.8709 54.7598 19.1179C54.8092 19.3649 54.908 19.5625 55.0809 19.7107C55.2044 19.8095 55.3526 19.8836 55.5008 19.933C55.649 19.9824 55.8713 20.0071 56.1183 20.0071C56.2665 20.0071 56.4394 20.0071 56.6123 19.933C56.7852 19.8836 56.9581 19.8342 57.131 19.7601C57.3039 19.686 57.4521 19.6119 57.6003 19.5378C57.7485 19.4637 57.8967 19.3896 58.0202 19.3155V12.597C58.0202 12.597 58.0449 12.4241 58.119 12.35C58.1931 12.2759 58.2672 12.2512 58.366 12.2512H59.8974C59.8974 12.2512 60.0703 12.2759 60.1197 12.35C60.1938 12.4241 60.2185 12.4982 60.2185 12.597V21.3656C60.2185 21.3656 60.1938 21.5385 60.1197 21.6126L60.095 21.6373Z" fill="#5A4499"/>
</svg>
