<svg width="71" height="70" viewBox="0 0 71 70" fill="none" xmlns="http://www.w3.org/2000/svg">
<path d="M6.64736 2.54411H63.8527C65.9769 2.54411 67.7059 4.27311 67.7059 6.39732V63.6027C67.7059 65.7269 65.9769 67.4312 63.8774 67.4312H6.67205C4.54785 67.4312 2.81885 65.7022 2.81885 63.578V6.34792C2.81885 4.22371 4.54785 2.51941 6.64736 2.51941V2.54411Z" fill="white"/>
<path d="M6.64732 2.5441C4.52311 2.5441 2.81881 4.27311 2.81881 6.39732V63.6027C2.81881 65.7269 4.52311 67.4559 6.64732 67.4559H63.8527C65.9769 67.4559 67.6812 65.7269 67.6812 63.6027V6.39732C67.6812 4.27311 65.9522 2.5441 63.8527 2.5441H6.64732ZM63.8527 70H6.64732C3.11521 70 0.25 67.1348 0.25 63.6027V6.39732C0.25 2.86521 3.11521 0 6.64732 0H63.8527C67.3848 0 70.25 2.86521 70.25 6.39732V63.6027C70.25 67.1348 67.3848 70 63.8527 70Z" fill="#5A4499"/>
<path d="M50.1939 20.8961C50.1939 20.8961 50.0457 20.9949 49.9222 21.0196C49.8481 21.0196 49.7493 21.069 49.5764 21.0937C49.4035 21.1184 49.2059 21.1431 48.9836 21.1678C48.7366 21.1925 48.4896 21.2172 48.1932 21.2419C47.8968 21.2419 47.6004 21.2666 47.2793 21.2666C46.7853 21.2666 46.2419 21.1925 45.6738 21.0443C45.1057 20.8961 44.6117 20.6244 44.1424 20.2539C43.6731 19.8587 43.3026 19.34 43.0062 18.6731C42.7098 18.0062 42.5369 17.1664 42.5369 16.129V13.659C42.5369 12.5969 42.6851 11.7571 43.0062 11.0902C43.3026 10.4233 43.6978 9.90456 44.1424 9.50936C44.6117 9.13886 45.1057 8.86716 45.6738 8.71896C46.2419 8.57076 46.7606 8.52136 47.2793 8.52136C47.6004 8.52136 47.9215 8.52136 48.1932 8.54606C48.4896 8.54606 48.7366 8.59546 48.9836 8.62016C49.2059 8.64486 49.4035 8.66956 49.5764 8.71896C49.7493 8.74366 49.8481 8.76836 49.9222 8.79306C50.0457 8.81776 50.1198 8.86716 50.1939 8.91656C50.268 8.96596 50.2927 9.06476 50.2927 9.16356V10.2998C50.2927 10.2998 50.2927 10.4727 50.2186 10.5468C50.1692 10.6209 50.0704 10.6456 49.9469 10.6456H49.9222C49.774 10.6456 49.6011 10.6209 49.4035 10.5962C49.2059 10.5715 48.9836 10.5715 48.7366 10.5468C48.5143 10.5468 48.2673 10.5468 48.0203 10.5221C47.7733 10.5221 47.551 10.5221 47.304 10.5221C46.9335 10.5221 46.6124 10.5715 46.316 10.6703C46.0196 10.7691 45.7726 10.942 45.5503 11.189C45.328 11.436 45.1798 11.7571 45.0563 12.1523C44.9328 12.5475 44.8834 13.0415 44.8834 13.6343V16.1043C44.8834 16.6971 44.9328 17.1911 45.0563 17.5863C45.1798 17.9815 45.3527 18.3026 45.5503 18.5496C45.7479 18.7966 46.0196 18.9695 46.316 19.0683C46.6124 19.1671 46.9335 19.2165 47.304 19.2165C47.5263 19.2165 47.7733 19.2165 48.0203 19.2165C48.2673 19.2165 48.5143 19.2165 48.7366 19.1918C48.9836 19.1918 49.1812 19.1671 49.4035 19.1424C49.6258 19.1177 49.7987 19.1177 49.9222 19.093H49.9469C49.9469 19.093 50.1445 19.1177 50.2186 19.1918C50.268 19.2659 50.2927 19.34 50.2927 19.4388V20.575C50.2927 20.575 50.268 20.7726 50.1939 20.822V20.8961ZM56.443 13.8072C56.3936 13.5849 56.2701 13.4614 56.0725 13.4614C55.8749 13.4614 55.7514 13.5849 55.702 13.8072L54.0471 20.8714C54.0471 20.8714 53.973 21.0196 53.9236 21.069C53.8742 21.1184 53.8001 21.1431 53.726 21.1431H52.0464C52.0464 21.1431 51.8735 21.1184 51.8241 21.069C51.7747 21.0196 51.75 20.9455 51.75 20.8714C51.75 20.8714 51.75 20.8714 51.75 20.8467C51.75 20.8467 51.75 20.822 51.75 20.7973L53.7013 13.2885C53.8001 12.8933 53.9483 12.5969 54.1459 12.3746C54.3435 12.1523 54.5411 11.9794 54.7634 11.8559C54.9857 11.7324 55.208 11.6583 55.4303 11.6336C55.6526 11.6089 55.8502 11.5842 56.0478 11.5842C56.2454 11.5842 56.4183 11.5842 56.6653 11.6336C56.8876 11.6583 57.1099 11.7324 57.3322 11.8559C57.5545 11.9794 57.7521 12.1523 57.9497 12.3746C58.1473 12.5969 58.2955 12.8933 58.3943 13.2885L60.3703 20.7973V20.8467C60.3703 20.8467 60.3703 20.8467 60.3703 20.8714C60.3703 20.9702 60.3456 21.0196 60.2962 21.069C60.2468 21.1184 60.1727 21.1431 60.0739 21.1431H58.3943C58.3943 21.1431 58.2461 21.1184 58.1967 21.069C58.1473 21.0196 58.0979 20.9455 58.0732 20.8714L56.4183 13.8072H56.443Z" fill="#5A4499"/>
<path d="M65.7054 50.5857C66.0265 48.9308 64.8656 45.7939 60.7653 44.8059C57.7025 44.0649 52.392 43.7438 48.9587 44.1143C47.9213 42.9781 44.3645 42.3359 44.3645 42.3359C38.9058 35.4445 34.8797 33.1227 34.8797 33.1227C34.2869 29.3683 31.3723 25.9103 31.3723 25.9103L31.2982 24.1813C31.15 19.1425 29.3468 17.8334 26.7039 17.8334C25.3454 17.8334 23.7399 18.2039 21.9615 18.5991C16.6757 19.76 13.2918 19.8835 9.43859 20.007C5.56067 20.1058 6.96858 22.9216 6.96858 22.9216C6.96858 22.9216 10.2537 33.345 7.43789 38.9519C4.62208 44.5836 4.96788 45.5222 4.96788 51.2526C4.96788 51.796 5.04198 52.2653 5.21488 52.6358C4.84437 53.6979 4.30097 56.4396 4.59737 61.2808L8.27769 60.3669L7.58608 62.6393L11.7851 60.6386L11.464 62.8616L15.8853 60.7868L15.6383 62.7628L19.5656 60.8115L19.5162 62.2935L22.8507 60.5151L22.7766 62.0218L24.4562 61.1079L24.5056 58.1933C25.8888 57.7981 32.6814 60.1693 37.1274 60.8609L38.9552 60.3916L38.0413 62.8369L42.3391 60.935V63.0345L46.5134 60.935L46.8345 63.0345L50.2678 60.6633L50.7124 62.6887L54.4421 59.9964L54.7632 61.923L58.2706 59.0578L58.9375 61.3302L61.9756 57.3041L62.1485 59.9223C62.1485 59.9223 65.5325 56.8348 65.9524 54.5871C66.15 53.6238 66.0759 51.2526 65.7054 50.6351V50.5857ZM9.19159 38.9272C11.6863 33.9872 9.29039 25.2681 9.29039 25.2681C9.29039 25.2681 8.37649 22.8722 10.9453 22.8475C14.3539 22.8228 17.3426 22.6252 21.9862 21.6125C23.5423 21.242 24.9749 21.0938 26.1605 20.9456C29.8408 20.4269 29.7421 26.7254 29.7421 26.7254C29.7421 26.7254 32.9531 31.0973 33.4718 34.3824C33.4718 34.3824 41.1288 39.9399 43.0801 43.8179C43.0801 43.8179 46.6369 44.7565 48.2671 45.8927C68.3483 43.3486 69.608 55.1305 46.0688 56.2914C44.0681 56.3902 41.2276 56.4149 38.8811 56.2914C35.8677 56.1432 32.6814 55.4763 29.4951 54.7847C16.5028 51.9689 9.61149 53.8214 7.63548 51.6478C7.24028 51.2032 7.04269 50.6104 7.04269 49.7459C7.04269 44.7071 6.72158 43.8673 9.19159 38.9272Z" fill="#5A4499"/>
</svg>
