<svg width="71" height="70" viewBox="0 0 71 70" fill="none" xmlns="http://www.w3.org/2000/svg">
<path d="M6.94689 2.54411H64.1523C66.2765 2.54411 68.0055 4.27311 68.0055 6.39732V63.6027C68.0055 65.7269 66.2765 67.4312 64.177 67.4312H6.97161C4.84741 67.4312 3.11841 65.7022 3.11841 63.578V6.34793C3.11841 4.22372 4.84738 2.51941 6.94689 2.51941V2.54411Z" fill="white"/>
<path d="M6.89731 2.5441C4.7731 2.5441 3.06883 4.27312 3.06883 6.37262V63.578C3.06883 65.7022 4.7731 67.4312 6.89731 67.4312H64.1027C66.2269 67.4312 67.9312 65.7022 67.9312 63.578V6.37262C67.9312 4.24842 66.2022 2.5441 64.1027 2.5441H6.89731ZM64.1027 70H6.89731C3.3652 70 0.5 67.1348 0.5 63.6027V6.39731C0.5 2.8652 3.3652 0 6.89731 0H64.1027C67.6348 0 70.5 2.8652 70.5 6.39731V63.6027C70.5 67.1348 67.6348 70 64.1027 70Z" fill="#5A4499"/>
<path fill-rule="evenodd" clip-rule="evenodd" d="M30.9554 28.6275C24.5086 28.6275 19.2723 33.8639 19.2723 40.3107C19.2723 46.7574 24.5086 51.9938 30.9554 51.9938C37.4021 51.9938 42.6385 46.7574 42.6385 40.3107C42.6385 33.8639 37.4021 28.6275 30.9554 28.6275ZM28.5842 26.2316H33.3266C33.6971 26.2316 34.0182 26.0834 34.2158 25.8117C34.4134 25.54 34.4381 25.1695 34.2899 24.8237L31.6717 18.1053C31.4741 17.5619 31.1283 17.4878 30.9554 17.4878C30.7825 17.4878 30.4367 17.5619 30.2391 18.1053L27.6208 24.8237C27.4973 25.1695 27.5221 25.54 27.695 25.8117C27.8926 26.0834 28.2137 26.2316 28.5842 26.2316ZM33.3266 54.365H28.5842C28.2137 54.365 27.8926 54.5132 27.695 54.7849C27.4974 55.0566 27.4726 55.4271 27.6208 55.7729L30.2391 62.4913C30.4367 63.0347 30.7825 63.1088 30.9554 63.1088C31.1283 63.1088 31.4741 63.0347 31.6717 62.4913L34.2899 55.7729C34.4134 55.4271 34.3887 55.0566 34.2158 54.7849C34.0182 54.5132 33.6971 54.365 33.3266 54.365ZM17.6421 31.715L14.7275 25.1201C14.5546 24.7002 14.6287 24.4285 14.7275 24.2803C14.851 24.1074 15.0485 23.9839 15.2955 23.9839C15.4437 23.9839 15.5919 24.0333 15.7648 24.0827L22.3598 26.9973C22.7056 27.1455 22.9278 27.4172 23.0019 27.7383C23.0513 28.0594 22.9525 28.4052 22.6808 28.6769L19.3216 32.0361C19.0993 32.2584 18.8276 32.3819 18.5559 32.3819C18.1607 32.3819 17.815 32.1349 17.6421 31.7397V31.715ZM44.244 48.8816L47.1586 55.4765C47.3315 55.8964 47.2574 56.1681 47.1586 56.3163C47.0351 56.4892 46.8375 56.6127 46.5905 56.6127C46.4423 56.6127 46.2941 56.5633 46.1212 56.5139L39.5263 53.5993C39.1805 53.4511 38.9582 53.1794 38.8841 52.8583C38.8347 52.5372 38.9335 52.1914 39.2052 51.9197L42.5644 48.5605C42.7867 48.3382 43.0584 48.2147 43.3301 48.2147C43.7253 48.2147 44.0711 48.4617 44.244 48.8569V48.8816ZM42.5644 32.0361L39.2052 28.6769C38.9335 28.4052 38.8347 28.0841 38.8841 27.7383C38.9335 27.4172 39.1805 27.1455 39.5263 26.9973L46.1212 24.0827C46.2941 24.0086 46.4423 23.9839 46.5905 23.9839C46.8375 23.9839 47.0351 24.0827 47.1586 24.2803C47.2574 24.4285 47.3315 24.7002 47.1586 25.1201L44.244 31.715C44.0711 32.1349 43.7253 32.3572 43.3301 32.3572C43.0584 32.3572 42.7867 32.2337 42.5644 32.0114V32.0361ZM19.3216 48.5852L22.6808 51.9444C22.9525 52.2161 23.0513 52.5372 23.0019 52.883C22.9525 53.2041 22.7056 53.4758 22.3598 53.624L15.7648 56.5386C15.5919 56.6127 15.4437 56.6374 15.2955 56.6374C15.0485 56.6374 14.851 56.5386 14.7275 56.341C14.6287 56.1928 14.5546 55.9211 14.7275 55.5012L17.6421 48.9063C17.815 48.4864 18.1607 48.2641 18.5559 48.2641C18.8276 48.2641 19.0993 48.3876 19.3216 48.6099V48.5852ZM53.1361 39.5944L46.4176 36.9762C46.2694 36.9268 46.1212 36.9021 45.973 36.9021C45.4049 36.9021 44.9851 37.3466 44.9851 37.9395V42.6819C44.9851 43.2994 45.4049 43.7193 45.973 43.7193C46.1212 43.7193 46.2694 43.6946 46.4176 43.6452L53.1361 41.027C53.6795 40.8294 53.7536 40.4836 53.7536 40.3107C53.7536 40.1378 53.6795 39.792 53.1361 39.5944ZM15.8883 43.744C16.4564 43.744 16.8764 43.2994 16.8764 42.7066V37.9642C16.8764 37.3467 16.4564 36.9267 15.8883 36.9267C15.7401 36.9267 15.5919 36.9514 15.4437 37.0008L8.72529 39.6191C8.18189 39.8167 8.10779 40.1625 8.10779 40.3354C8.10779 40.5083 8.18189 40.8541 8.72529 41.0517L15.4437 43.6699C15.5919 43.7193 15.7401 43.744 15.8883 43.744Z" fill="#5A4499"/>
<path fill-rule="evenodd" clip-rule="evenodd" d="M53.877 9.58356C53.877 9.78116 53.7782 9.87997 53.5559 9.87997H50.6413V19.9329C50.6413 19.9329 50.6167 20.1058 50.5426 20.1799C50.4685 20.254 50.3944 20.2787 50.2956 20.2787H48.6653C48.6653 20.2787 48.4924 20.254 48.443 20.1799C48.3689 20.1058 48.3442 20.0317 48.3442 19.9329V9.87997H45.4543C45.232 9.87997 45.1085 9.78116 45.1085 9.58356V8.27446C45.1085 8.27446 45.1332 8.12627 45.2073 8.05217C45.2814 7.97807 45.3555 7.95337 45.4296 7.95337H53.5313C53.5313 7.95337 53.7042 7.97807 53.7783 8.05217C53.8524 8.10157 53.877 8.17566 53.877 8.27446V9.58356ZM62.2751 19.9329C62.2751 19.9329 62.2504 20.1058 62.1763 20.1799C62.1022 20.254 62.0281 20.2787 61.9293 20.2787H60.3979C60.3979 20.2787 60.225 20.254 60.1509 20.1799C60.0768 20.1058 60.052 20.0317 60.052 19.9329V19.5624C59.2369 20.1058 58.3725 20.3775 57.4586 20.3775C56.5447 20.3775 55.779 20.1058 55.3097 19.5624C54.8404 19.019 54.5933 18.0557 54.5933 16.6725V11.2632C54.5933 11.2632 54.6181 11.0903 54.6922 11.0162C54.7663 10.9421 54.8404 10.9174 54.9145 10.9174H56.4458C56.4458 10.9174 56.6188 10.9421 56.6929 11.0162C56.767 11.0903 56.7917 11.1644 56.7917 11.2632V16.6725C56.7917 17.3888 56.8904 17.8828 57.0633 18.1545C57.2362 18.4262 57.6314 18.5744 58.1995 18.5744C58.6441 18.5744 59.2617 18.3521 60.0768 17.9075V11.2879C60.0768 11.2879 60.1015 11.115 60.1756 11.0409C60.2497 10.9668 60.3238 10.9421 60.4226 10.9421H61.954C61.954 10.9421 62.1268 10.9668 62.2009 11.0409C62.275 11.115 62.2998 11.1891 62.2998 11.2879V19.9576L62.2751 19.9329Z" fill="#5A4499"/>
</svg>
