<svg width="71" height="70" viewBox="0 0 71 70" fill="none" xmlns="http://www.w3.org/2000/svg">
<path d="M7.19689 2.54411H64.4023C66.5265 2.54411 68.2555 4.27311 68.2555 6.39732V63.6027C68.2555 65.7269 66.5265 67.4312 64.427 67.4312H7.22161C5.09741 67.4312 3.36841 65.7022 3.36841 63.578V6.34793C3.36841 4.22372 5.09738 2.51941 7.19689 2.51941V2.54411Z" fill="white"/>
<path d="M7.14735 2.5441C5.02314 2.5441 3.31883 4.27312 3.31883 6.37262V63.578C3.31883 65.7022 5.02314 67.4312 7.14735 67.4312H64.3527C66.4769 67.4312 68.1812 65.7022 68.1812 63.578V6.37262C68.1812 4.24842 66.4522 2.5441 64.3527 2.5441H7.14735ZM64.3527 70H7.14735C3.61524 70 0.75 67.1348 0.75 63.6027V6.39731C0.75 2.8652 3.61524 0 7.14735 0H64.3527C67.8848 0 70.75 2.8652 70.75 6.39731V63.6027C70.75 67.1348 67.8848 70 64.3527 70Z" fill="#5A4499"/>
<path fill-rule="evenodd" clip-rule="evenodd" d="M43.9255 52.9816V52.9075C43.1351 51.5243 39.0595 44.0649 32.8845 33.9131V28.158C33.749 28.0592 34.4159 27.3182 34.4159 26.429C34.4159 25.4657 33.6255 24.6753 32.6622 24.6753H22.5846C21.6213 24.6753 20.8309 25.4657 20.8309 26.429C20.8309 27.3182 21.4978 28.0592 22.3623 28.158V33.9131C15.6191 45.0035 11.346 52.9816 11.3213 53.0557C10.6544 55.0564 10.8027 56.983 11.7413 58.2921C12.5564 59.4036 13.8161 59.9964 15.4463 59.9964H39.8006C41.4308 59.9964 42.7152 59.4036 43.5056 58.2921C44.4442 56.9583 44.617 55.0317 43.9007 52.9816H43.9255ZM27.6728 41.0761C31.6989 41.0761 34.9593 44.3366 34.9593 48.3627C34.9593 52.3888 31.6989 55.6492 27.6728 55.6492C23.6467 55.6492 20.3863 52.3888 20.3863 48.3627C20.3863 44.3366 23.6467 41.0761 27.6728 41.0761ZM28.6608 48.2145C28.6608 48.7826 28.1915 49.2272 27.6481 49.2272C27.1047 49.2272 26.6354 48.7579 26.6354 48.2145C26.6354 47.6711 27.1047 47.2018 27.6481 47.2018C28.1915 47.2018 28.6608 47.6711 28.6608 48.2145ZM30.2416 42.9781C32.1682 43.9414 33.4773 45.9174 33.4773 48.2145C33.4773 48.338 33.4773 48.4368 33.4773 48.5603L29.3771 48.3133C29.3771 48.3133 29.3771 48.2392 29.3771 48.2145C29.3771 47.5229 28.9819 46.9301 28.4138 46.6584L30.2416 43.0028V42.9781ZM25.8697 48.2145C25.8697 48.2145 25.8697 48.2886 25.8697 48.3133L21.7695 48.5603C21.7695 48.5603 21.7695 48.338 21.7695 48.2145C21.7695 45.9174 23.0786 43.9414 25.0052 42.9781L26.833 46.6337C26.2649 46.9301 25.8697 47.4982 25.8697 48.1898V48.2145ZM27.6234 49.9682C27.9692 49.9682 28.315 49.8694 28.5867 49.6718L30.8344 53.0804C29.9205 53.6979 28.809 54.0437 27.6234 54.0437C26.4378 54.0437 25.3263 53.6979 24.3877 53.0804L26.6354 49.6718C26.9071 49.8447 27.2529 49.9682 27.5987 49.9682H27.6234Z" fill="#5A4499"/>
<path fill-rule="evenodd" clip-rule="evenodd" d="M41.4308 14.4245C39.9488 13.8317 39.2078 12.6955 39.2078 11.0406V10.8924C39.2078 9.65743 39.6277 8.71882 40.4428 8.10132C41.2579 7.45911 42.4435 7.16272 43.9749 7.16272C44.7159 7.16272 45.4816 7.18742 46.2226 7.26152C46.9883 7.33562 47.4329 7.40971 47.5564 7.48381C47.6799 7.55791 47.754 7.70612 47.754 7.87902V19.2658C47.754 19.2658 47.7293 19.4387 47.6552 19.5128C47.5811 19.5869 47.507 19.6116 47.4329 19.6116H45.778C45.778 19.6116 45.6051 19.5869 45.5557 19.5128C45.5063 19.4387 45.4569 19.3646 45.4569 19.2658V14.7703C44.7653 14.8197 44.2713 14.8444 43.9749 14.8444H43.7279L41.6037 18.7717C41.3567 19.2163 41.2085 19.4634 41.1591 19.5375C41.1097 19.5869 41.0603 19.6116 40.9862 19.6116H38.9608C38.8373 19.6116 38.7632 19.5375 38.7632 19.414C38.7632 19.3646 38.7632 19.3151 38.7879 19.2904L41.3814 14.4492L41.4308 14.4245ZM41.4802 11.0406C41.4802 11.7322 41.6778 12.2262 42.0483 12.5226C42.4188 12.819 43.061 12.9672 43.9749 12.9672C44.3454 12.9672 44.8394 12.9672 45.4569 12.9178V9.18813C44.9876 9.13872 44.5183 9.11403 43.9749 9.11403C43.1351 9.11403 42.5176 9.26222 42.0977 9.53392C41.7025 9.80563 41.4802 10.2749 41.4802 10.8924V11.0406ZM54.8182 14.2269V10.596C54.8182 10.596 54.843 10.4231 54.9171 10.349C54.9912 10.2749 55.0652 10.2502 55.1393 10.2502H56.6707C56.6707 10.2502 56.8437 10.2749 56.8931 10.349C56.9425 10.4231 56.9918 10.4972 56.9918 10.596V14.2269L58.7703 11.8557C59.4619 10.9171 59.8324 10.4478 59.8571 10.3984C59.8818 10.3737 59.9312 10.3243 60.0053 10.2996C60.0794 10.2749 60.1288 10.2502 60.2029 10.2502H62.0554C62.2283 10.2502 62.3024 10.2996 62.3024 10.4231C62.3024 10.4725 62.3024 10.5219 62.253 10.5466L58.8938 14.6715L61.1168 17.685C61.8825 18.7471 62.2777 19.2657 62.3024 19.2904C62.3024 19.3151 62.3024 19.3398 62.3024 19.3645C62.3024 19.488 62.2283 19.5621 62.0554 19.5621H60.0299C59.857 19.5621 59.6595 19.414 59.4619 19.1423L56.9424 15.4619V19.2163C56.9424 19.2163 56.9178 19.3892 56.8437 19.4633C56.7696 19.5374 56.6955 19.5621 56.6214 19.5621H55.0899C55.0899 19.5621 54.917 19.5374 54.8676 19.4633C54.7935 19.3892 54.7689 19.3151 54.7689 19.2163V15.4619L53.114 17.8825C52.4718 18.7964 52.1506 19.2905 52.1012 19.3399C52.0765 19.3893 52.0024 19.4387 51.9283 19.4881C51.8542 19.5375 51.7554 19.5869 51.6813 19.5869H49.6559C49.5077 19.5869 49.4089 19.5127 49.4089 19.3892V19.3399C49.4089 19.3399 49.5571 19.1422 49.8288 18.7717L52.8175 14.6962L50.5945 11.9792C49.8288 11.0406 49.4583 10.5713 49.4336 10.5466C49.4336 10.5219 49.4336 10.4725 49.4336 10.4478C49.4336 10.3243 49.5077 10.2749 49.6806 10.2749H51.5332C51.6814 10.2749 51.8048 10.349 51.9036 10.4725L54.7441 14.2516L54.8182 14.2269Z" fill="#5A4499"/>
</svg>
