<svg width="70" height="70" viewBox="0 0 70 70" fill="none" xmlns="http://www.w3.org/2000/svg">
<path d="M6.44689 2.54411H63.6523C65.7765 2.54411 67.5055 4.27311 67.5055 6.39732V63.6027C67.5055 65.7269 65.7765 67.4312 63.677 67.4312H6.47161C4.34741 67.4312 2.61841 65.7022 2.61841 63.578V6.34792C2.61841 4.22371 4.34738 2.51941 6.44689 2.51941V2.54411Z" fill="white"/>
<path d="M6.39731 2.5441C4.2731 2.5441 2.56883 4.27311 2.56883 6.37261V63.578C2.56883 65.7022 4.2731 67.4312 6.39731 67.4312H63.6027C65.7269 67.4312 67.4312 65.7022 67.4312 63.578V6.37261C67.4312 4.24841 65.7022 2.5441 63.6027 2.5441H6.39731ZM63.6027 70H6.39731C2.8652 70 0 67.1348 0 63.6027V6.39732C0 2.86521 2.8652 0 6.39731 0H63.6027C67.1348 0 70 2.86521 70 6.39732V63.6027C70 67.1348 67.1348 70 63.6027 70Z" fill="#5A4499"/>
<path fill-rule="evenodd" clip-rule="evenodd" d="M51.6229 17.315C51.6229 18.5253 51.203 19.4146 50.3879 20.0074C49.5728 20.6002 48.2883 20.8966 46.584 20.8966C45.8677 20.8966 45.1762 20.8719 44.534 20.8225C43.8918 20.7731 43.4472 20.6743 43.2496 20.5755C43.052 20.452 42.9285 20.205 42.9285 19.8345V9.41102C42.9285 9.08992 43.0026 8.84292 43.1508 8.69472C43.299 8.54652 43.7436 8.47242 44.4846 8.39832C45.2256 8.34892 45.8677 8.32422 46.4358 8.32422C49.8444 8.32422 51.5488 9.43572 51.5488 11.6834V12.0045C51.5488 12.5726 51.4253 13.0666 51.1536 13.5112C50.8819 13.9558 50.5114 14.2769 50.0174 14.4992C51.0795 14.9685 51.6229 15.8083 51.6229 17.0186V17.315ZM49.3011 12.0539V11.8069C49.3011 11.2141 49.0787 10.8189 48.6588 10.5719C48.2389 10.3249 47.4979 10.2014 46.4358 10.2014C46.09 10.2014 45.6949 10.2014 45.2256 10.2508V13.61H47.3251C48.6342 13.61 49.3011 13.0913 49.3011 12.0539ZM49.3752 17.2903V17.068C49.3752 16.5246 49.2023 16.08 48.8565 15.7836C48.5107 15.4872 47.992 15.3143 47.3251 15.3143H45.2256V18.97H46.584C47.572 18.9947 48.2884 18.8712 48.7083 18.6242C49.1282 18.3772 49.3504 17.9326 49.3504 17.2903H49.3752ZM57.2051 18.8218L58.9835 11.7081C59.0329 11.5105 59.1317 11.4117 59.3046 11.4117H61.0089C61.0089 11.4117 61.1571 11.4364 61.2065 11.4858C61.2559 11.5352 61.3053 11.6093 61.3053 11.6834C61.3053 11.7081 61.3053 11.7328 61.3053 11.7822L58.5389 21.4647C58.2178 22.5762 57.8226 23.2925 57.3039 23.6136C56.8099 23.9347 56.0936 24.0829 55.155 24.0829C54.7845 24.0829 54.414 24.0582 54.0188 23.9841C53.6483 23.9347 53.3766 23.8606 53.2531 23.8112C53.1296 23.7618 53.0554 23.6877 53.0554 23.5642V22.5021C53.0554 22.3045 53.1542 22.2057 53.3765 22.2057H53.4013L55.2785 22.3045C55.649 22.3045 55.9453 22.2304 56.1429 22.0822C56.3405 21.934 56.5382 21.4894 56.7111 20.7484H56.4641C56.0442 20.7484 55.7477 20.6249 55.5254 20.3779C55.3031 20.1309 55.1303 19.7851 55.0068 19.3652L52.8331 11.7822C52.8331 11.7822 52.8331 11.7081 52.8331 11.6587C52.8331 11.4858 52.932 11.387 53.1543 11.387H54.8338C55.0067 11.387 55.1056 11.4858 55.155 11.6834L56.8346 18.4265C56.884 18.6736 56.9581 18.7971 57.0569 18.7971H57.2051V18.8218Z" fill="#5A4499"/>
<path fill-rule="evenodd" clip-rule="evenodd" d="M28.084 53.9696L15.0423 39.9399L16.1291 38.9272L28.6521 52.4135L43.1757 38.3838L43.151 38.3344H43.1263L43.1016 38.285H43.0769L43.0522 38.2356H43.0275L43.0028 38.1862H42.9781L42.9534 38.1368H42.9287L42.904 38.0874H42.8793L42.8546 38.038H42.8299L42.8052 37.9886H42.7806L42.7558 37.9392H42.7311L42.7065 37.8898H42.6817L42.657 37.8404H42.6324L42.6076 37.791H42.5829L42.5582 37.7416H42.5335L42.5088 37.6922H42.4841L42.4594 37.6428H42.4347L42.41 37.5934H42.3853L42.3606 37.544H42.3359L42.3112 37.4946H42.2865L42.2618 37.4452H42.2371L42.2124 37.3958H42.1877L42.163 37.3464H42.1383L42.1136 37.297H42.089L42.0642 37.2476H42.0395L42.0149 37.1982H41.9901L41.9654 37.1488H41.9407L41.916 37.1241H41.8913L41.8666 37.0994H41.8419L41.8172 37.0747H41.7925L41.7678 37.05H41.7431L41.7184 37.0253H41.6937L41.669 37.0006H41.6443L41.6196 36.9759H41.5949L41.5702 36.9512H41.5455L41.5208 36.9265H41.4961L41.4714 36.9018H41.4467L41.422 36.8771H41.3974L41.3726 36.8524H41.3479L41.3232 36.8277H41.2985L41.2738 36.803H41.2491L41.2244 36.7783H41.1997L41.175 36.7536H41.1503L41.1256 36.7289H41.1009L41.0762 36.7042H41.0515L41.0268 36.6795H41.0021L40.9774 36.6548H40.9527L40.928 36.6301H40.9033L40.8786 36.6054H40.8539L40.8292 36.5807H40.8045L40.7799 36.556H40.7551L40.7304 36.5313H40.7057L40.681 36.5066H40.6563L40.6316 36.4819H40.6069L40.5822 36.4572H40.5575L51.1538 32.4064L46.7572 42.8546V42.8052V42.7558V42.6817V42.6076V42.5334V42.4594V42.3853V42.3111V42.2371V42.163V42.0889V42.0147V41.9407V41.8666V41.7924V41.7184V41.6443V41.5701V41.496V41.422V41.3478V41.2738V41.1997V41.1255V41.0514V40.9774V40.9032V40.8291V40.7551V40.6809V40.6068V40.5327V40.4586V40.3845V40.3104V40.261V40.2116V40.1622V40.1128V40.0634V40.014V39.9646V39.9152V39.8658V39.8164V39.767V39.7176V39.6682V39.6188V39.5694V39.52V39.4706V39.4212V39.3718L31.6902 53.9202L31.1468 54.4389L30.6281 53.8955L28.084 53.9696ZM30.2081 40.508C30.3563 40.4586 30.4799 40.3351 30.4552 40.1869C30.4552 40.0387 30.307 39.9152 30.1588 39.8905C26.8737 39.5447 24.4037 36.9759 24.4037 33.9131C24.4037 33.7402 24.4036 33.5426 24.4283 33.3697C24.4283 33.2215 24.3296 33.0733 24.1567 33.0239C23.9838 32.9992 23.8109 33.0733 23.7615 33.2215C23.4157 34.1107 23.2181 34.9011 23.2181 35.5927C23.2181 38.4085 25.6881 40.7056 28.7262 40.7056C29.2202 40.7056 29.7142 40.6562 30.1835 40.5327L30.2081 40.508ZM37.223 35.3704C37.223 39.8658 33.5674 43.5215 29.072 43.5215C24.5766 43.5215 20.921 39.8658 20.921 35.3704C20.921 33.1721 22.0077 30.2575 24.1319 26.7501C25.7869 24.0331 27.6147 21.6866 28.5533 20.5257C28.6768 20.3775 28.8744 20.2787 29.072 20.2787C29.2696 20.2787 29.4671 20.3775 29.5906 20.5257C30.5292 21.6866 32.3571 24.0331 34.012 26.7501C36.1362 30.2575 37.223 33.1474 37.223 35.3704ZM12.3994 58.9096H45.7445V55.4516H12.3994V58.9096Z" fill="#5A4499"/>
</svg>
