<svg width="71" height="70" viewBox="0 0 71 70" fill="none" xmlns="http://www.w3.org/2000/svg">
<path d="M6.69689 2.54411H63.9022C66.0264 2.54411 67.7554 4.27311 67.7554 6.39732V63.6027C67.7554 65.7269 66.0264 67.4312 63.9269 67.4312H6.72161C4.59741 67.4312 2.86841 65.7022 2.86841 63.578V6.34793C2.86841 4.22372 4.59738 2.51941 6.69689 2.51941V2.54411Z" fill="white"/>
<path d="M6.64723 2.5441C4.52303 2.5441 2.81875 4.27312 2.81875 6.37262V63.578C2.81875 65.7022 4.52303 67.4312 6.64723 67.4312H63.8527C65.9769 67.4312 67.6812 65.7022 67.6812 63.578V6.37262C67.6812 4.24842 65.9522 2.5441 63.8527 2.5441H6.64723ZM63.8527 70H6.64723C3.11512 70 0.25 67.1348 0.25 63.6027V6.39731C0.25 2.8652 3.11512 0 6.64723 0H63.8527C67.3848 0 70.2499 2.8652 70.2499 6.39731V63.6027C70.2499 67.1348 67.3848 70 63.8527 70Z" fill="#5A4499"/>
<path fill-rule="evenodd" clip-rule="evenodd" d="M28.2351 45.8682C28.1362 45.5965 28.0621 45.4236 28.0621 45.4236C28.0621 45.4236 25.4439 47.375 25.1475 48.4618C24.8511 49.5239 25.4688 50.6107 26.5062 50.9318C25.8887 53.5253 25.3945 56.4399 25.9132 57.9219C26.9506 61.0094 30.3099 62.6643 33.3974 61.6269C36.4849 60.5895 38.1398 57.2303 37.1024 54.1428C36.1638 51.3517 29.5195 46.7575 28.2351 45.893V45.8682ZM11.3156 48.5112C10.2288 48.4618 9.38893 47.5231 9.43833 46.4363C9.48773 45.3495 10.4264 44.5097 11.5132 44.5591L24.0114 45.1766L21.5167 42.7807C21.0721 42.3608 20.8004 41.8421 20.7263 41.3481C20.7263 41.2493 20.7263 41.1505 20.7263 41.0764C20.7263 40.6565 20.9239 40.286 21.245 39.9402C22.1342 39.0016 23.2457 38.7299 24.6289 39.6685C24.6289 39.6685 32.6564 45.3742 35.1017 46.3622C37.5718 47.3502 44.1172 50.092 44.1172 50.092C44.1666 50.092 44.2407 50.092 44.2901 50.1661C44.3395 50.2155 44.3643 50.2649 44.3643 50.339L43.0798 62.6396C43.0798 62.6396 43.0552 62.7631 43.0058 62.7878C42.9564 62.8372 42.907 62.8372 42.8329 62.8372L33.6691 63.6276L13.9585 62.6396C12.8717 62.5902 12.0319 61.6516 12.0813 60.5648C12.1307 59.478 13.0693 58.6382 14.1561 58.6876L21.8131 59.0581V58.3418L10.8957 57.7984C9.8089 57.749 8.96907 56.8104 9.01847 55.7236C9.06787 54.6368 10.0064 53.797 11.0932 53.8464L22.0355 54.3898V53.6735L7.98111 52.9819C6.89431 52.9325 6.05448 51.9939 6.10388 50.9071C6.15328 49.8203 7.0918 48.9805 8.1786 49.0299L22.2824 49.7215V49.0051L11.365 48.4618L11.3156 48.5112ZM57.5788 36.5316L36.559 25.9353L36.7072 25.6636C36.9789 25.0955 36.7567 24.4039 36.1886 24.1322C35.6205 23.8358 34.9289 24.0828 34.6572 24.6509L31.3473 31.2458C31.0756 31.8139 31.2979 32.5055 31.866 32.7772C32.4341 33.0489 33.1257 32.8266 33.3974 32.2585L33.5456 31.9868L54.5654 42.5831C56.2203 43.4229 58.2458 42.756 59.0856 41.0764C59.9254 39.4215 59.2584 37.3961 57.5788 36.5563V36.5316ZM57.554 40.286C57.9739 39.4709 57.6282 38.4829 56.8131 38.063L43.969 31.5916L39.1772 32.9007L55.3064 41.027C56.1215 41.4469 57.1096 41.1011 57.5295 40.286H57.554ZM31.2238 40.9282C32.5576 40.9282 33.6691 39.8414 33.6691 38.4829C33.6691 37.1244 31.2238 33.9875 31.2238 33.9875C31.2238 33.9875 28.7785 37.1244 28.7785 38.4829C28.7785 39.8414 29.8653 40.9282 31.2238 40.9282Z" fill="#5A4499"/>
<path fill-rule="evenodd" clip-rule="evenodd" d="M37.9176 12.9676L42.1906 18.9697C42.1906 18.9697 42.2894 19.1179 42.2894 19.1673C42.2894 19.2661 42.2153 19.3155 42.0424 19.3155H39.8194C39.6465 19.3155 39.5231 19.2661 39.449 19.1426L35.6451 13.4863V18.9944C35.6451 18.9944 35.6204 19.1673 35.5463 19.2414C35.4722 19.3155 35.3982 19.3402 35.2994 19.3402H33.6691C33.6691 19.3402 33.4962 19.3155 33.4221 19.2414C33.348 19.1673 33.3232 19.0932 33.3232 18.9944V7.33601C33.3232 7.33601 33.348 7.1878 33.4221 7.1137C33.4715 7.0396 33.5703 7.01489 33.6691 7.01489H35.2994C35.2994 7.01489 35.4722 7.0396 35.5463 7.1137C35.6204 7.1631 35.6451 7.23721 35.6451 7.33601V12.5971L39.6959 7.1384C39.6959 7.1384 39.8936 6.99021 40.0665 6.99021H41.9683C42.1906 6.99021 42.2894 7.06429 42.2894 7.18779C42.2894 7.26189 42.24 7.3607 42.1659 7.4595L37.9176 12.9429V12.9676ZM51.873 15.3882C51.873 16.6973 51.5025 17.71 50.7862 18.4016C50.0699 19.0932 49.0079 19.439 47.6247 19.439C46.9578 19.439 46.2908 19.3896 45.5745 19.2661C44.8582 19.1426 44.4383 19.0438 44.3148 18.9944C44.1913 18.9203 44.1419 18.8215 44.1419 18.6733V17.6853C44.1419 17.4877 44.2407 17.3889 44.4383 17.3889H44.463C45.698 17.5371 46.7355 17.6112 47.6247 17.6112C48.2916 17.6112 48.7855 17.4383 49.1066 17.1172C49.4277 16.7714 49.5759 16.2033 49.5759 15.3882V15.2894C49.5759 14.6225 49.3536 14.1285 48.909 13.8568C48.4644 13.5851 47.6987 13.4369 46.6366 13.4369H44.4137C44.4137 13.4369 44.3148 13.4122 44.2901 13.3628C44.2407 13.3134 44.2408 13.264 44.2408 13.2146L44.7841 7.2866C44.7841 7.2125 44.8336 7.13841 44.883 7.08901C44.9571 7.03961 45.0311 6.99021 45.1052 6.99021H51.1073C51.1073 6.99021 51.2803 7.01491 51.3297 7.08901C51.4038 7.13841 51.4284 7.2125 51.4284 7.3113V8.57101C51.4284 8.57101 51.4038 8.7192 51.3297 8.7933C51.2556 8.8427 51.1814 8.8921 51.1073 8.8921H46.6119L46.365 11.6338H46.6366C48.5138 11.6338 49.8476 11.9302 50.6627 12.5477C51.4778 13.1652 51.873 14.0791 51.873 15.2894V15.3882ZM62.7164 13.7827C62.7164 15.6846 62.3706 17.1172 61.6543 18.0558C60.938 18.9944 59.8512 19.4637 58.3939 19.4637C56.9366 19.4637 55.8498 18.9944 55.1334 18.0558C54.4171 17.1172 54.0714 15.7093 54.0714 13.7827V12.5477C54.0714 10.6458 54.4171 9.21321 55.1334 8.2746C55.8498 7.336 56.9366 6.8667 58.3939 6.8667C59.8512 6.8667 60.938 7.336 61.6543 8.2746C62.3706 9.21321 62.7164 10.6458 62.7164 12.5477V13.7827ZM60.4193 13.7827V12.5477C60.4193 11.2633 60.2711 10.3247 59.9253 9.68251C59.6042 9.0403 59.0855 8.74391 58.3939 8.74391C57.7023 8.74391 57.1836 9.065 56.8625 9.68251C56.5414 10.3247 56.3685 11.2633 56.3685 12.5477V13.7827C56.3685 15.0671 56.5414 16.0057 56.8625 16.6232C57.1836 17.2407 57.7023 17.5618 58.3939 17.5618C59.0855 17.5618 59.6042 17.2407 59.9253 16.6232C60.2464 16.0057 60.3946 15.0424 60.3946 13.7827H60.4193Z" fill="#5A4499"/>
</svg>
