<svg width="71" height="70" viewBox="0 0 71 70" fill="none" xmlns="http://www.w3.org/2000/svg">
<path d="M6.94689 2.5441H64.1523C66.2765 2.5441 68.0055 4.27309 68.0055 6.3973V63.6027C68.0055 65.7269 66.2765 67.4312 64.177 67.4312H6.97161C4.84741 67.4312 3.11841 65.7022 3.11841 63.578V6.34793C3.11841 4.22372 4.84738 2.51941 6.94689 2.51941V2.5441Z" fill="white"/>
<path d="M6.89731 2.5441C4.7731 2.5441 3.06883 4.27312 3.06883 6.37262V63.578C3.06883 65.7022 4.7731 67.4312 6.89731 67.4312H64.1027C66.2269 67.4312 67.9312 65.7022 67.9312 63.578V6.37262C67.9312 4.24842 66.2022 2.5441 64.1027 2.5441H6.89731ZM64.1027 70H6.89731C3.3652 70 0.5 67.1348 0.5 63.6027V6.39731C0.5 2.8652 3.3652 0 6.89731 0H64.1027C67.6348 0 70.5 2.8652 70.5 6.39731V63.6027C70.5 67.1348 67.6348 70 64.1027 70Z" fill="#5A4499"/>
<path fill-rule="evenodd" clip-rule="evenodd" d="M41.4283 61.9234C40.5143 62.0469 39.551 62.0221 38.6124 61.7751C34.8333 60.8365 32.4374 57.2303 32.9067 53.4759C33.7712 54.0687 34.7345 54.538 35.7966 54.785C37.0563 55.1061 38.316 55.1061 39.5016 54.8838L39.304 56.5881L44.4663 57.8725L42.5892 60.7624L45.726 57.6255L40.786 55.6495L41.1071 54.4392C43.6512 53.4265 45.7013 51.2529 46.4176 48.3877C46.4917 48.0666 46.5659 47.7455 46.5906 47.4244C49.4064 49.4004 50.6167 53.1054 49.2829 56.4399C48.1467 59.2804 44.2934 61.7752 41.4529 61.9234H41.4283ZM31.0295 13.5112L32.3386 33.8888L11.1953 10.0779L28.5842 40.8542L13.69 37.1739L27.2751 46.1647L16.6046 45.4237L21.5199 47.9925C21.7669 48.116 26.8552 50.7836 31.6717 52.4385C32.1163 52.5867 32.5362 52.7349 32.9808 52.8584C33.4748 53.0066 33.9688 53.1548 34.4381 53.2536C34.9074 53.3771 35.352 53.4512 35.7719 53.5253C37.4515 53.8217 38.7359 53.7723 39.6498 53.3524C39.798 53.2783 39.9709 53.2042 40.0944 53.1054C40.7119 52.7102 41.2306 52.315 41.6999 51.9692C43.7006 50.3637 44.4169 48.9558 45.0838 46.5352C45.1826 46.1894 45.2814 45.7942 45.3802 45.399V45.2508L45.9977 42.9043L48.1713 34.0864L44.0958 37.1986L44.4663 23.3665L39.4275 34.5557L31.0295 13.4618V13.5112ZM31.1777 40.6566L31.7952 41.7434L32.4374 42.8796L33.3266 44.4357L31.8693 44.0652L30.7331 43.7935L29.5969 43.5218L26.3365 42.7067L29.3005 44.658L30.3626 45.3743L31.4741 46.1153L35.4014 48.7088L36.0189 49.104L35.0556 49.0299L32.0175 48.8323L30.7331 48.7335L29.4981 48.6594L28.2137 48.5606C28.683 48.7582 29.1523 48.9558 29.6463 49.1534C30.1403 49.351 30.659 49.5486 31.1777 49.7462C31.7952 49.9685 32.4127 50.1908 33.0055 50.3884C33.2772 50.4872 33.5489 50.5613 33.8206 50.6354C34.2405 50.7589 34.6357 50.8824 35.0309 50.9812C37.7973 51.6728 38.6371 51.3023 38.8347 51.1788C39.2793 50.8824 39.6745 50.6107 40.0203 50.3637C42.0457 48.8323 42.4162 47.7208 43.1078 44.8803L43.5277 43.2007L43.9229 41.6446L44.2687 40.2614L44.3181 40.0391L44.1699 40.1626L43.2313 40.8789L42.2927 41.5952L41.6505 42.0892V41.0765L41.7246 39.718V38.4089L41.8481 35.0002L40.539 37.9149L40.045 38.977L39.551 40.0391L39.304 40.5825L39.057 39.9403L38.563 38.7053L38.0937 37.495L34.3393 28.0842L34.9815 38.0137L35.0556 39.224L35.1297 40.459V40.5331L35.105 40.4837L34.3146 39.5945L33.5242 38.7053L24.1135 28.1089L31.2024 40.6566H31.1777ZM13.3442 50.7836L29.7945 54.0193L13.3689 52.2903C11.0718 51.1541 13.3689 50.7836 13.3689 50.7836H13.3442ZM24.1135 15.833L29.9921 27.7384C29.9921 27.7384 21.8658 15.2402 20.7296 14.0052C19.5934 12.7455 21.5941 10.7201 24.1135 15.833Z" fill="#5A4499"/>
<path fill-rule="evenodd" clip-rule="evenodd" d="M54.1977 9.31222C54.1977 9.50982 54.0989 9.60861 53.8766 9.60861H50.962V19.6616C50.962 19.6616 50.9373 19.8344 50.8632 19.9085C50.7891 19.9826 50.715 20.0074 50.6162 20.0074H48.986C48.986 20.0074 48.8131 19.9826 48.7637 19.9085C48.6896 19.8344 48.6649 19.7604 48.6649 19.6616V9.60861H45.775C45.5527 9.60861 45.4292 9.50982 45.4292 9.31222V8.00312C45.4292 8.00312 45.4538 7.85489 45.5279 7.78079C45.602 7.70669 45.6762 7.68201 45.7503 7.68201H53.8519C53.8519 7.68201 54.0248 7.70669 54.0989 7.78079C54.173 7.83019 54.1977 7.90432 54.1977 8.00312V9.31222ZM62.5463 15.9565C62.5463 17.2904 62.2252 18.303 61.5583 19.0193C60.8914 19.7356 59.9034 20.1061 58.5943 20.1061C58.125 20.1061 57.5816 20.0567 57.0135 19.9826V22.9219C57.0135 22.9219 56.9888 23.0948 56.9147 23.1442C56.8406 23.2183 56.7665 23.2431 56.6677 23.2431H55.1363C55.1363 23.2431 54.9634 23.2183 54.8893 23.1442C54.8152 23.0701 54.7905 22.996 54.7905 22.9219V11.387C54.7905 11.2388 54.8399 11.1153 54.9634 11.0412C55.0869 10.9671 55.5315 10.8683 56.2972 10.7201C57.0629 10.5966 57.8286 10.5225 58.5696 10.5225C59.854 10.5225 60.842 10.893 61.5089 11.5846C62.1758 12.3009 62.5216 13.3383 62.5216 14.6721V15.9318L62.5463 15.9565ZM60.348 15.9565V14.6968C60.348 13.857 60.1998 13.2395 59.9281 12.869C59.6317 12.4985 59.1871 12.3256 58.5943 12.3256C57.9274 12.3256 57.4087 12.3503 57.0135 12.4491V18.2289C57.5816 18.303 58.125 18.3525 58.5943 18.3525C59.1871 18.3525 59.6317 18.1796 59.9281 17.8091C60.2245 17.4386 60.348 16.8457 60.348 15.9812V15.9565Z" fill="#5A4499"/>
</svg>
