<svg width="71" height="70" viewBox="0 0 71 70" fill="none" xmlns="http://www.w3.org/2000/svg">
<path d="M7.14739 2.54419H64.3527C66.4769 2.54419 68.2059 4.27323 68.2059 6.39743V63.6027C68.2059 65.727 66.4769 67.4559 64.3527 67.4559H7.14739C5.02319 67.4559 3.29419 65.727 3.29419 63.6027V6.37271C3.29419 4.2485 5.02318 2.54419 7.12269 2.54419H7.14739Z" fill="white"/>
<path d="M7.14733 2.5441C5.02312 2.5441 3.31881 4.27311 3.31881 6.37262V63.578C3.31881 65.7022 5.04782 67.4065 7.14733 67.4065H64.3527C66.4769 67.4065 68.1812 65.6775 68.1812 63.578V6.37262C68.1812 4.24841 66.4522 2.5441 64.3527 2.5441H7.14733ZM64.3527 70H7.14733C3.61522 70 0.75 67.1348 0.75 63.6027V6.39734C0.75 2.86524 3.61522 0 7.14733 0H64.3527C67.8848 0 70.75 2.86524 70.75 6.39734V63.6027C70.75 67.1348 67.8848 70 64.3527 70Z" fill="#5A4499"/>
<path fill-rule="evenodd" clip-rule="evenodd" d="M21.3498 23.0454C21.7203 22.9713 22.0908 22.9219 22.4613 22.9219C22.8318 22.9219 23.227 22.9713 23.5728 23.0454V18.8217L27.4507 14.9437L25.8699 13.3629L23.5728 15.6601V13.1901H21.3251V15.6601L19.028 13.3629L17.4472 14.9437L21.3251 18.8217V23.0454H21.3498ZM28.661 29.3686V27.1209H27.6483C27.7224 27.4914 27.7718 27.8619 27.7718 28.2324C27.7718 28.6029 27.7224 28.9981 27.6483 29.3439H28.661V29.3686ZM23.5728 43.2994V40.8294L25.2524 42.509C25.2524 42.2867 25.2277 42.0397 25.2277 41.7927C25.2277 40.9776 25.3265 40.2366 25.4994 39.5697L23.5975 37.6678V33.4441C23.227 33.5182 22.8565 33.5676 22.486 33.5676C22.1155 33.5676 21.7203 33.5182 21.3745 33.4441V37.6678L17.4966 41.5457L19.0774 43.1265L21.3745 40.8294V43.2994H23.6222H23.5728ZM7.56719 31.6657L9.14799 33.2465L13.0259 29.3686H17.2496C17.1755 28.9981 17.1261 28.6276 17.1261 28.2571C17.1261 27.8866 17.1755 27.4914 17.2496 27.1456H13.0259L9.14799 23.2677L7.56719 24.8485L9.86429 27.1456H7.39429V29.3933H9.86429L7.56719 31.6904V31.6657ZM9.4691 22.4279V20.1801H12.7048L10.9511 18.4265L12.5319 16.8457L14.2856 18.5993V15.339H16.5086V20.8224L19.522 23.7864C18.8798 24.2063 18.3611 24.7497 17.9412 25.3672L14.9525 22.4032H9.4691V22.4279ZM26.9073 25.3919C26.5121 24.7497 25.9687 24.2063 25.3265 23.8111L28.3152 20.8471V15.3636H30.5876C30.5876 15.3636 28.7845 16.7716 28.6363 19.2416V23.7123L26.9073 25.4166V25.3919ZM25.3265 32.7031C25.9687 32.2832 26.4874 31.7398 26.9073 31.1223L28.6363 32.8266V35.0249C28.4634 35.1731 28.2905 35.2966 28.1176 35.4448L25.3265 32.6784V32.7031ZM14.9525 34.0863L17.9412 31.1223C18.3364 31.7645 18.8798 32.3079 19.522 32.7031L16.5333 35.6671V41.1505H14.2609V37.8901L12.5072 39.6438L10.9264 38.063L12.6801 36.3093H9.41969V34.0616H14.9031L14.9525 34.0863ZM26.4874 28.2818C26.4874 26.0341 24.6596 24.231 22.4366 24.231C20.2136 24.231 18.3858 26.0588 18.3858 28.2818C18.3858 30.5048 20.2136 32.3326 22.4366 32.3326C24.6596 32.3326 26.4874 30.5048 26.4874 28.2818Z" fill="#5A4499"/>
<path fill-rule="evenodd" clip-rule="evenodd" d="M53.633 10.0033C53.633 10.2009 53.5342 10.2996 53.3119 10.2996H50.3973V20.3526C50.3973 20.3526 50.3726 20.5255 50.2985 20.5996C50.2244 20.6737 50.1503 20.6984 50.0515 20.6984H48.4213C48.4213 20.6984 48.2484 20.6737 48.199 20.5996C48.1249 20.5255 48.1002 20.4514 48.1002 20.3526V10.2996H45.2103C44.988 10.2996 44.8645 10.2009 44.8645 10.0033V8.69416C44.8645 8.69416 44.8892 8.54597 44.9633 8.47187C45.0374 8.39777 45.1115 8.37305 45.1856 8.37305H53.2872C53.2872 8.37305 53.4601 8.39777 53.5342 8.47187C53.6083 8.52127 53.633 8.59536 53.633 8.69416V10.0033ZM56.5723 20.3279C56.5723 20.3279 56.5476 20.5008 56.4735 20.5749C56.3994 20.649 56.3253 20.6737 56.2265 20.6737H54.6951C54.6951 20.6737 54.5222 20.649 54.4728 20.5749C54.3987 20.5008 54.374 20.4267 54.374 20.3279V11.6829C54.374 11.6829 54.3987 11.51 54.4728 11.4359C54.5469 11.3618 54.621 11.3371 54.6951 11.3371H56.2265C56.2265 11.3371 56.3994 11.3618 56.4735 11.4359C56.5476 11.51 56.5723 11.5841 56.5723 11.6829V15.0421H59.8574V11.6829C59.8574 11.6829 59.8821 11.51 59.9562 11.4359C60.0303 11.3618 60.1045 11.3371 60.2033 11.3371H61.7346C61.7346 11.3371 61.9075 11.3618 61.9816 11.4359C62.0557 11.51 62.0804 11.5841 62.0804 11.6829V20.3279C62.0804 20.3279 62.0557 20.5008 61.9816 20.5749C61.9075 20.649 61.8334 20.6737 61.7346 20.6737H60.2033C60.2033 20.6737 60.0303 20.649 59.9562 20.5749C59.8821 20.5008 59.8574 20.4267 59.8574 20.3279V16.6723H56.5723V20.3279Z" fill="#5A4499"/>
<path d="M41.1596 42.4591V20.1303C41.1596 17.4874 39.3071 15.2643 36.8371 14.7209C36.4419 14.6221 36.022 14.5728 35.6021 14.5728C34.6388 14.5728 33.7249 14.8197 32.9592 15.2396C31.2302 16.1782 30.0446 18.0061 30.0446 20.1303V42.632C28.7355 43.4718 27.624 44.5833 26.7842 45.8924C25.6974 47.5473 25.0552 49.5233 25.0552 51.6722C25.0552 57.5755 29.847 62.3673 35.7503 62.3673C36.4913 62.3673 37.2323 62.2933 37.9239 62.1451C42.7898 61.1324 46.4454 56.8345 46.4454 51.6722C46.4454 47.7449 44.3212 44.3116 41.1596 42.4591ZM35.7503 58.2919C32.0453 58.2919 29.0319 55.2784 29.0319 51.5734C29.0319 51.4005 29.0319 51.2276 29.0813 51.03C29.1801 49.7703 29.6247 48.6588 30.341 47.7943C31.0573 46.9051 32.0206 46.2382 33.1321 45.8924V22.1557C33.1321 20.229 33.7249 18.6729 35.6515 18.6729C37.5781 18.6729 38.1709 20.229 38.1709 22.1557V45.7689C40.8138 46.4605 42.2217 48.7329 42.4193 51.03C42.4193 51.2029 42.444 51.3758 42.444 51.5487C42.444 55.2538 39.4306 58.2672 35.7256 58.2672L35.7503 58.2919ZM34.0213 31.7393V22.1557C34.0213 19.5621 35.1575 19.5621 35.6515 19.5621C36.1455 19.5621 37.2817 19.5621 37.2817 22.1557V31.7393H33.9966H34.0213ZM39.1342 55.6737C40.4433 54.167 41.0608 52.3144 40.8879 50.4866C40.7644 49.2516 38.3932 49.2269 38.5167 50.4866C38.6649 52.018 38.1956 53.4506 37.0841 54.6856C36.1949 55.6983 38.2697 56.6864 39.1342 55.6737Z" fill="#5A4499"/>
</svg>
