<svg width="70" height="70" viewBox="0 0 70 70" fill="none" xmlns="http://www.w3.org/2000/svg">
<path d="M6.40771 2.56799H63.5929C65.7163 2.56799 67.4448 4.29639 67.4448 6.41984V63.605C67.4448 65.7285 65.7164 67.4322 63.6176 67.4322H6.43239C4.30894 67.4322 2.60522 65.7038 2.60522 63.605V6.39515C2.60522 4.2717 4.33363 2.56799 6.43239 2.56799H6.40771Z" fill="white"/>
<path d="M6.40754 2.5679C4.28408 2.5679 2.58037 4.2963 2.58037 6.39506V63.6049C2.58037 65.7284 4.30878 67.4321 6.40754 67.4321H63.5927C65.7162 67.4321 67.4199 65.7037 67.4199 63.6049V6.39506C67.4199 4.2716 65.6915 2.5679 63.5927 2.5679H6.40754ZM63.5927 70H6.40754C2.87668 70 0.0124512 67.1358 0.0124512 63.6049V6.39506C0.0124512 2.8642 2.87668 0 6.40754 0H63.5927C67.1236 0 69.9878 2.8642 69.9878 6.39506V63.6049C69.9878 67.1358 67.1236 70 63.5927 70Z" fill="#5A4499"/>
<path fill-rule="evenodd" clip-rule="evenodd" d="M52.8765 10.2965C52.8765 11.136 52.7037 11.852 52.3333 12.4199C51.9629 12.9878 51.4197 13.4323 50.7036 13.7286C49.9876 14.0249 49.1234 14.173 48.1111 14.173C47.8148 14.173 47.3209 14.173 46.6296 14.0989V18.4199C46.6296 18.4199 46.6049 18.5928 46.5308 18.6668C46.4815 18.7409 46.4074 18.7656 46.3086 18.7656H44.6543C44.6543 18.7656 44.4815 18.7409 44.4074 18.6668C44.3333 18.5928 44.3086 18.5187 44.3086 18.4199V7.03722C44.3086 6.86438 44.3827 6.71623 44.5061 6.64215C44.6296 6.56808 45.0741 6.49401 45.8395 6.41993C46.6049 6.34586 47.3456 6.32117 48.0864 6.32117C49.6419 6.32117 50.8271 6.64215 51.6419 7.28413C52.4567 7.92611 52.8518 8.88907 52.8518 10.1483V10.2965H52.8765ZM50.6049 10.2965V10.1483C50.6049 9.48166 50.4074 8.98783 50.0123 8.69154C49.6172 8.37055 49 8.2224 48.1111 8.2224C47.5926 8.2224 47.0987 8.2224 46.6296 8.29648V12.2224C47.2469 12.2471 47.7407 12.2718 48.1111 12.2718C48.9753 12.2718 49.5926 12.1236 49.9876 11.8026C50.3827 11.4817 50.5802 10.9878 50.5802 10.2965H50.6049ZM62.1852 18.4199C62.1852 18.4199 62.1604 18.5928 62.0864 18.6668C62.0123 18.7409 61.9382 18.7656 61.8395 18.7656H60.3086C60.3086 18.7656 60.1358 18.7409 60.0617 18.6668C59.9876 18.5928 59.9629 18.5187 59.9629 18.4199V18.0496C59.1481 18.5928 58.2839 18.8644 57.3703 18.8644C56.4568 18.8644 55.6913 18.5928 55.2222 18.0496C54.753 17.5064 54.5061 16.5434 54.5061 15.1607V9.75327C54.5061 9.75327 54.5308 9.58043 54.6049 9.50635C54.679 9.43228 54.7531 9.40759 54.8271 9.40759H56.358C56.358 9.40759 56.5308 9.43228 56.6049 9.50635C56.679 9.58043 56.7037 9.6545 56.7037 9.75327V15.1607C56.7037 15.8767 56.8024 16.3705 56.9753 16.6422C57.1481 16.9138 57.5432 17.0619 58.1111 17.0619C58.5555 17.0619 59.1728 16.8397 59.9876 16.3952V9.75327C59.9876 9.75327 60.0123 9.58043 60.0864 9.50635C60.1604 9.43228 60.2345 9.40759 60.3333 9.40759H61.8642C61.8642 9.40759 62.037 9.43228 62.1111 9.50635C62.1852 9.58043 62.2098 9.6545 62.2098 9.75327V18.4199H62.1852Z" fill="#5A4499"/>
<path fill-rule="evenodd" clip-rule="evenodd" d="M7.69165 23.6298V62.568H47.5435V23.6298H7.69165ZM31.5682 36.4693C32.2349 36.9384 33.0497 37.3582 33.9139 37.6791C34.7287 37.9754 35.5435 38.1483 36.309 38.2224C36.383 38.3458 36.4571 38.4693 36.5065 38.5433C36.6299 38.7656 36.8522 38.889 37.0991 38.9137H37.1237C37.3707 38.9137 37.5929 38.7903 37.741 38.568L37.988 38.173C38.1855 38.173 38.4077 38.0989 38.6052 38.0495C40.704 39.2841 41.5435 40.7656 41.2719 41.5063C41.0991 42.0248 40.3583 42.3952 39.2966 42.5433C38.0126 42.6915 36.383 42.4693 34.8028 41.9014C31.5929 40.7656 29.667 38.6174 30.062 37.4816C30.2102 37.0619 30.8274 36.6668 31.5682 36.4693ZM30.9015 33.1112C31.0744 32.6174 31.8892 32.3211 32.9756 32.3211C33.2719 32.3211 33.5929 32.3458 33.8892 32.3952C34.2102 33.8273 34.9015 35.4322 35.5188 36.6668C35.1485 36.5927 34.7534 36.494 34.383 36.3458C33.2225 35.9507 32.1855 35.3088 31.5435 34.6174C31.0003 34.0495 30.7781 33.4816 30.9015 33.1112ZM34.8769 52.9137C31.6917 51.7532 29.7411 49.6298 30.1361 48.494C30.2843 48.1483 30.6546 47.852 31.2225 47.6545C32.0867 48.247 33.0991 48.7656 34.2349 49.1606C35.6917 49.7038 37.1731 49.9754 38.5312 49.9754C38.9015 49.9754 39.2719 49.9507 39.6423 49.9014C39.7163 49.9014 39.7657 49.9014 39.8398 49.852C40.9756 50.8149 41.5929 51.852 41.346 52.5187C41.1731 53.0372 40.4324 53.4075 39.3954 53.5557C38.1114 53.7038 36.4571 53.4816 34.8769 52.9137ZM38.1855 58.1977C37.9139 58.6668 37.0991 58.889 36.062 58.8149C34.7534 58.7162 33.1978 58.173 31.7657 57.3088C30.7534 56.6915 29.8645 55.9261 29.1732 55.1606C29.8151 54.1236 30.0867 53.1112 29.9879 52.2224C31.0497 53.21 32.4818 54.0742 34.2349 54.7162C35.2719 55.0866 36.3336 55.3335 37.3213 55.4322C38.2102 56.5433 38.5559 57.6051 38.1855 58.1977ZM41.346 46.9878C41.1731 47.4816 40.4324 47.8767 39.3954 48.0001C38.1114 48.173 36.4571 47.9508 34.8769 47.3828C31.6917 46.2224 29.7411 44.0989 30.1361 42.9631C30.2843 42.568 30.6546 42.2964 31.0744 42.1483C31.9386 42.7409 32.9756 43.2841 34.1608 43.7038C35.6176 44.2224 37.0991 44.494 38.4324 44.494C38.8275 44.494 39.1978 44.494 39.5435 44.4199C39.667 44.4199 39.7657 44.3952 39.8892 44.3705C41.0003 45.3088 41.5929 46.3211 41.346 46.9878ZM8.77808 24.6915H26.1361C26.1361 24.6915 25.9879 24.889 26.0126 25.0125C26.062 25.0372 26.1114 25.0619 26.1608 25.0866C26.309 25.2841 29.0497 25.1606 29.0497 25.1606C29.0991 25.1606 29.1484 25.1853 29.1484 25.2594V25.8026C29.1484 25.8026 29.0991 25.9014 29.0497 25.9014H26.8275C26.3336 25.9014 25.9633 26.2717 25.9633 26.7656C25.9633 27.2594 26.3336 27.6298 26.8275 27.6298H28.4571V28.247H27.1978C26.8028 28.2224 26.4818 28.4693 26.383 28.8149C25.6176 29.0866 25.0991 29.8273 25.0991 30.6668V31.3088C24.5312 31.0619 23.8151 30.9137 23.0003 30.9137C22.4571 30.9137 21.8645 30.9878 21.2719 31.1112C21.2966 30.5927 21.2225 30.1236 21.0497 29.7532C19.9633 27.4075 15.42 26.2964 14.9015 26.173H14.8028C14.8028 26.173 14.6546 26.1483 14.4077 26.1483C13.6176 26.1483 12.1855 26.3211 11.4447 27.3828C10.9015 28.1483 10.8769 29.1606 11.346 30.4199C11.346 30.4693 11.3954 30.5187 11.4201 30.568C11.2966 30.494 11.1978 30.4446 11.0744 30.3952C10.7287 30.2964 10.2596 30.568 9.83982 30.6915C9.49415 30.7656 9.12376 30.9384 8.77808 31.0125V24.6915ZM22.0867 37.6791C22.9509 37.3582 23.741 36.9384 24.4324 36.4693C25.1731 36.6668 25.7657 37.0619 25.9139 37.4816C26.3336 38.6174 24.383 40.7656 21.1731 41.9014C19.6176 42.4693 17.9633 42.7162 16.6793 42.5433C15.6423 42.4199 14.9016 42.0248 14.704 41.5063C14.4571 40.7903 15.1978 39.4569 17.0497 38.2717L17.2472 38.568C17.3954 38.7903 17.6176 38.9137 17.8645 38.9137H17.8892C18.1361 38.889 18.3583 38.7656 18.4818 38.5433C18.5312 38.4693 18.5805 38.3705 18.6546 38.247C18.7534 38.247 18.8275 38.2717 18.9262 38.2717C19.9139 38.247 21.0003 38.0495 22.0867 37.6791ZM19.3954 36.8396C19.988 35.6298 20.704 34.0495 21.0497 32.5927C21.7164 32.4199 22.383 32.3211 23.0003 32.3211C24.0867 32.3211 24.9015 32.6174 25.0744 33.1112C25.2225 33.4816 24.9756 34.0495 24.4571 34.6174C23.7904 35.3088 22.7534 35.9507 21.5929 36.3458C20.8522 36.6174 20.1114 36.7903 19.3954 36.8396ZM16.0867 44.3705C16.0867 44.3705 16.309 44.4199 16.4324 44.4199C16.8028 44.4693 17.1731 44.494 17.5435 44.494C18.8768 44.494 20.3583 44.2224 21.8151 43.7038C23.0003 43.2841 24.0374 42.7409 24.9262 42.1483C25.3213 42.2964 25.6917 42.568 25.8398 42.9631C26.2349 44.0989 24.309 46.2224 21.0991 47.3828C19.5188 47.9508 17.8892 48.173 16.5806 48.0001C15.5435 47.8767 14.8028 47.4816 14.6299 46.9878C14.383 46.3211 14.9756 45.3088 16.0867 44.3705ZM16.1361 49.852C16.1361 49.852 16.2843 49.9014 16.3583 49.9014C16.704 49.9507 17.0744 49.9754 17.4694 49.9754C18.8028 49.9754 20.2842 49.7038 21.741 49.1606C22.8768 48.7656 23.9139 48.247 24.7534 47.6545C25.3213 47.852 25.7164 48.1483 25.8398 48.494C26.2349 49.6298 24.309 51.7532 21.0991 52.9137C19.5188 53.4816 17.8892 53.7038 16.5806 53.5557C15.5435 53.4075 14.8028 53.0372 14.6299 52.5187C14.383 51.852 15.0003 50.8149 16.1361 49.852ZM18.6546 55.4322C19.6423 55.3335 20.704 55.0866 21.741 54.7162C23.4941 54.0742 24.9509 53.21 25.988 52.2224C25.8892 53.1112 26.1608 54.1236 26.8028 55.1606C26.1361 55.9261 25.2225 56.6915 24.2102 57.3088C22.7781 58.173 21.2225 58.7162 19.9386 58.8149C18.8769 58.889 18.0867 58.6668 17.7904 58.1977C17.4448 57.6051 17.7904 56.5433 18.6546 55.4322ZM30.1114 59.0619C30.1114 59.3582 29.8892 59.5804 29.5929 59.5804H26.4077C25.9139 59.5804 25.5188 59.9754 25.5188 60.4693C25.5188 60.7162 25.6423 60.9384 25.7904 61.0866C25.8892 61.2841 26.0373 61.4322 26.2102 61.5063H8.77808V33.7532C9.46943 33.1359 10.5312 32.6668 11.346 32.3952C11.6917 32.2964 12.1608 31.6545 12.0867 31.3582L14.0126 33.4816L15.4201 35.7038C15.4201 36.0001 15.4448 36.2717 15.5435 36.5433C15.5929 36.6668 15.6423 36.7656 15.6917 36.889C13.3954 38.4693 12.3337 40.4693 12.9262 42.1483C13.1485 42.7409 13.5435 43.2347 14.1114 43.6298C12.8522 44.9384 12.383 46.3705 12.8275 47.6298C13.0497 48.247 13.4941 48.7656 14.1114 49.1606C12.8769 50.4693 12.383 51.9261 12.8275 53.1606C13.2719 54.3952 14.5312 55.21 16.3583 55.4322H16.383C15.6423 56.8396 15.5435 58.173 16.1608 59.1853C16.7781 60.1977 17.9633 60.7409 19.5188 60.7409C19.6917 60.7409 19.8892 60.7409 20.0867 60.7162C21.6917 60.5927 23.4941 59.9507 25.1979 58.9137C25.6176 58.6668 25.9879 58.4199 26.3583 58.1236H29.5929C29.5929 58.1236 29.6176 58.1483 29.6423 58.1483C29.7904 58.247 29.9139 58.3705 30.0867 58.4693C30.1114 58.5187 30.1114 58.5927 30.1114 58.6668V59.0619ZM46.4571 61.5063H31.4694C31.3954 61.2347 31.2966 60.9631 31.1238 60.7409C31.4694 60.4199 31.7164 59.9754 31.8151 59.4816C33.1978 60.1977 34.6299 60.6174 35.9139 60.7162C36.1114 60.7409 36.2843 60.7409 36.4571 60.7409C38.0374 60.7409 39.1978 60.1977 39.8151 59.1853C40.4324 58.173 40.3583 56.8396 39.6176 55.4322H39.6423C41.4694 55.21 42.704 54.3952 43.1484 53.1606C43.5929 51.9014 43.1485 50.4693 41.8645 49.1606C42.4818 48.7656 42.9262 48.247 43.1484 47.6051C43.5929 46.3705 43.1485 44.9384 41.8892 43.6298C42.4324 43.2347 42.8521 42.7409 43.0744 42.1483C43.667 40.4693 42.5806 38.4693 40.2843 36.889C40.3583 36.7656 40.4077 36.6421 40.4571 36.5433C40.6793 35.9261 40.5805 35.2841 40.2596 34.6174L41.0003 33.4816L42.6546 31.6298C42.7534 31.9508 43.0991 32.3211 43.346 32.3952C44.2842 32.6915 45.6917 33.5804 46.4571 34.494V61.5063ZM46.4571 31.0125C46.4571 31.0125 46.3337 31.0125 46.2596 31.0372C45.7904 31.0619 45.3213 30.8149 44.8521 30.6915C44.4571 30.568 44.0127 30.3211 43.667 30.3952C44.1114 29.1606 44.0867 28.1236 43.5435 27.3828C42.8028 26.2964 41.3707 26.1483 40.6052 26.1483C40.3336 26.1483 40.1855 26.173 40.1855 26.173H40.0867C39.5682 26.2964 35.025 27.4075 33.9633 29.7532C33.7904 30.0989 33.7164 30.494 33.7164 30.9631C33.4694 30.9384 33.2225 30.9137 32.9756 30.9137C32.1114 30.9137 31.3707 31.0619 30.8028 31.3582V30.6668C30.8028 30.0495 30.5065 29.4816 30.062 29.1112C30.1608 28.9137 30.2102 28.6915 30.2102 28.4446V27.6545C30.2102 27.531 30.1855 27.4075 30.1361 27.2841C30.6053 26.9631 30.9015 26.4199 30.9015 25.8026V25.5063C30.9015 25.5063 30.9262 25.1112 30.8522 24.7656C30.8522 24.7409 30.8028 24.7162 30.8028 24.6915H46.4571V31.0125Z" fill="#5A4499"/>
</svg>
