<svg width="71" height="70" viewBox="0 0 71 70" fill="none" xmlns="http://www.w3.org/2000/svg">
<path d="M6.69689 2.54411H63.9023C66.0265 2.54411 67.7555 4.27311 67.7555 6.39732V63.6027C67.7555 65.7269 66.0265 67.4312 63.927 67.4312H6.72161C4.59741 67.4312 2.86841 65.7022 2.86841 63.578V6.34793C2.86841 4.22372 4.59738 2.51941 6.69689 2.51941V2.54411Z" fill="white"/>
<path d="M6.64735 2.5441C4.52314 2.5441 2.81883 4.27312 2.81883 6.37262V63.578C2.81883 65.7022 4.52314 67.4312 6.64735 67.4312H63.8527C65.9769 67.4312 67.6813 65.7022 67.6813 63.578V6.37262C67.6813 4.24842 65.9522 2.5441 63.8527 2.5441H6.64735ZM63.8527 70H6.64735C3.11524 70 0.25 67.1348 0.25 63.6027V6.39731C0.25 2.8652 3.11524 0 6.64735 0H63.8527C67.3848 0 70.25 2.8652 70.25 6.39731V63.6027C70.25 67.1348 67.3848 70 63.8527 70Z" fill="#5A4499"/>
<path fill-rule="evenodd" clip-rule="evenodd" d="M28.6061 62.6391L39.9187 51.2771C40.388 50.8078 40.0422 50.0174 39.4 50.0174H38.4861C37.8686 50.0174 37.5228 49.3011 37.918 48.8318L43.9201 41.2736C44.2906 40.7796 43.9695 40.088 43.352 40.088H40.3386C39.7211 40.088 39.3753 39.3964 39.7458 38.9024L47.4028 28.7012C47.7733 28.2072 47.4028 27.5156 46.81 27.5156H34.707C34.4353 27.5156 34.1636 27.6638 34.0401 27.9355L28.112 39.9151C27.865 40.4091 28.2355 40.9772 28.7789 40.9772H31.5206C32.064 40.9772 32.4346 41.5453 32.1876 42.0393L28.1367 50.2397C27.8897 50.7337 28.2603 51.3018 28.8037 51.3018H31.3725C31.9159 51.3018 32.2617 51.8699 32.0394 52.3639L27.4698 61.7993C27.0993 62.5403 28.0626 63.2319 28.6554 62.6391H28.6061ZM57.8262 33.74C58.419 34.3575 58.7648 35.1232 58.7648 35.9878V54.3893C58.7648 55.2538 58.4437 56.0442 57.8262 56.6617C57.2334 57.2792 56.4431 57.6003 55.5538 57.6003H36.5348L38.906 54.661H55.5538C55.7514 54.661 55.8255 54.5869 55.8255 54.3893V35.9878C55.8255 35.7902 55.7514 35.716 55.5538 35.716H45.2539L48.3908 32.7767H55.5538C56.4431 32.7767 57.2087 33.0978 57.8262 33.74ZM29.1741 32.7767L27.0993 35.716H16.997C16.997 35.716 16.7253 35.8643 16.7253 35.9878V54.3893C16.7253 54.3893 16.8735 54.661 16.997 54.661H28.112L26.0866 57.6003H16.997C16.1325 57.6003 15.3915 57.2792 14.7493 56.637C14.1071 55.9948 13.786 55.2538 13.786 54.3893V50.1409H11.2913C10.4762 50.1409 9.83398 49.4987 9.83398 48.6836V41.7923C9.83398 40.9772 10.4762 40.335 11.2913 40.335H13.786V35.9878C13.786 35.1232 14.1071 34.3822 14.7493 33.74C15.3915 33.0978 16.1325 32.7767 16.997 32.7767H29.1741Z" fill="#5A4499"/>
<path fill-rule="evenodd" clip-rule="evenodd" d="M47.3776 14.7951H42.2153C42.2153 14.7951 42.0424 14.7704 41.9683 14.6963C41.8942 14.6222 41.8695 14.5481 41.8695 14.474V13.2884C41.8695 13.2884 41.8942 13.1155 41.9683 13.0414C42.0424 12.9673 42.1165 12.9426 42.2153 12.9426H47.3776V12.8437C47.3776 11.7569 47.18 10.9665 46.7601 10.4725C46.3649 9.97854 45.5992 9.73155 44.4877 9.73155H41.8448C41.8448 9.73155 41.6719 9.70685 41.5978 9.63275C41.5237 9.55865 41.499 9.48454 41.499 9.38574V8.32365C41.499 8.20015 41.5237 8.10135 41.5978 8.05195C41.6719 8.00255 41.993 7.95314 42.5364 7.85434C43.0798 7.78024 43.7467 7.73083 44.4877 7.73083C46.2908 7.73083 47.5752 8.24954 48.3903 9.26225C49.2054 10.2749 49.6254 11.7816 49.6254 13.8071V14.4246C49.6254 16.3512 49.2301 17.8332 48.4644 18.8212C47.674 19.8092 46.3649 20.3279 44.4877 20.3279C43.7467 20.3279 43.0798 20.2785 42.5364 20.2044C41.993 20.1303 41.6719 20.0562 41.5978 20.0315C41.5237 19.9821 41.499 19.908 41.499 19.7598V18.6977C41.499 18.6977 41.5237 18.5248 41.5978 18.4507C41.6719 18.3766 41.746 18.3519 41.8448 18.3519H44.4877C45.5992 18.3519 46.3402 18.1049 46.7601 17.6109C47.18 17.1169 47.3776 16.3265 47.3776 15.2397V14.7951ZM61.2344 20.0068C61.2344 20.1303 61.1356 20.1797 60.9627 20.1797H59.4312C59.4312 20.1797 59.3078 20.155 59.2584 20.1056C59.209 20.0562 59.1843 20.0068 59.1843 19.9327V14.1035C59.1843 14.1035 59.1842 13.98 59.1348 13.98C59.1348 13.98 59.1101 13.98 59.0607 14.0541L58.2209 15.6102C57.8998 16.1783 57.727 16.4747 57.7023 16.5241C57.7023 16.5488 57.6282 16.5982 57.5541 16.6229C57.48 16.6476 57.3812 16.6723 57.3071 16.6723H55.7757C55.5287 16.6723 55.3557 16.5982 55.2816 16.45L53.9725 14.0541C53.9725 14.0541 53.9726 14.0541 53.9479 14.0294L53.9232 14.0047C53.8985 14.0047 53.8737 14.0294 53.8737 14.1282V19.9574C53.8737 19.9574 53.849 20.0809 53.7996 20.1303C53.7502 20.1797 53.7008 20.2044 53.6514 20.2044H52.12C51.9471 20.2044 51.8484 20.155 51.8484 20.0315V11.4112C51.8484 11.2877 51.8977 11.1641 52.0212 11.0653C52.1447 10.9665 52.2682 10.9171 52.4411 10.9171H53.7009C53.7009 10.9171 53.8491 10.9172 53.9232 10.9666C53.9973 10.9913 54.0713 11.0406 54.1207 11.09C54.1701 11.1394 54.2936 11.337 54.5159 11.7075L56.3684 15.0915C56.3684 15.0915 56.492 15.2644 56.5661 15.2644C56.6155 15.2644 56.6648 15.2644 56.6648 15.1903L58.8384 11.2382C58.9619 11.0406 59.1349 10.9171 59.4066 10.9171H60.6662C60.8144 10.9171 60.9627 10.9665 61.0862 11.0653C61.2097 11.1641 61.2591 11.2877 61.2591 11.4112V20.0315L61.2344 20.0068Z" fill="#5A4499"/>
</svg>
