<svg width="71" height="70" viewBox="0 0 71 70" fill="none" xmlns="http://www.w3.org/2000/svg">
<path d="M6.94689 2.5441H64.1522C66.2764 2.5441 68.0054 4.27309 68.0054 6.3973V63.6027C68.0054 65.7269 66.2764 67.4312 64.1769 67.4312H6.97161C4.84741 67.4312 3.11841 65.7022 3.11841 63.578V6.34793C3.11841 4.22372 4.84738 2.51941 6.94689 2.51941V2.5441Z" fill="white"/>
<path d="M6.89723 2.5441C4.77303 2.5441 3.06875 4.27312 3.06875 6.37262V63.578C3.06875 65.7022 4.77303 67.4312 6.89723 67.4312H64.1027C66.2269 67.4312 67.9312 65.7022 67.9312 63.578V6.37262C67.9312 4.24842 66.2022 2.5441 64.1027 2.5441H6.89723ZM64.1027 70H6.89723C3.36512 70 0.5 67.1348 0.5 63.6027V6.39731C0.5 2.8652 3.36512 0 6.89723 0H64.1027C67.6348 0 70.4999 2.8652 70.4999 6.39731V63.6027C70.4999 67.1348 67.6348 70 64.1027 70Z" fill="#5A4499"/>
<path fill-rule="evenodd" clip-rule="evenodd" d="M25.126 11.5103C25.373 12.0784 25.1014 12.7452 24.5333 12.9922C23.9652 13.2392 23.2983 12.9676 23.0513 12.3995C22.8043 11.8314 23.076 11.1644 23.6441 10.9174C24.2122 10.6704 24.879 10.9422 25.126 11.5103ZM21.8409 8.47216C21.4704 7.60766 21.8903 6.59495 22.7548 6.22445C23.6193 5.85394 24.6321 6.27383 25.0026 7.13834C25.3731 8.00284 24.9532 9.01555 24.0887 9.38605C23.2242 9.75655 22.2114 9.33666 21.8409 8.47216ZM26.7069 26.7996C25.6201 27.2442 24.3851 26.7502 23.9405 25.6634C23.4959 24.5766 23.9898 23.3416 25.0766 22.897C26.1634 22.4524 27.3985 22.9464 27.8431 24.0332C28.2877 25.12 27.7937 26.355 26.7069 26.7996ZM21.9891 14.6225C22.4584 15.734 21.9397 16.9937 20.8282 17.4383C19.7167 17.8829 18.457 17.3889 18.0124 16.2774C17.5678 15.1659 18.0619 13.9062 19.1734 13.4615C20.2849 13.0169 21.5445 13.511 21.9891 14.6225ZM26.9538 15.8822C26.4598 14.6966 25.1014 14.1532 23.9405 14.6472C22.7796 15.1412 22.2115 16.4997 22.7055 17.6606C23.1995 18.8215 24.5579 19.3896 25.7188 18.8956C26.8797 18.4016 27.4478 17.0431 26.9538 15.8822ZM27.1762 29.2202C27.4232 29.7883 27.1515 30.4552 26.5587 30.7022C25.9659 30.9492 25.3236 30.6775 25.0766 30.0847C24.8296 29.4919 25.1013 28.8497 25.6941 28.6027C26.2869 28.3557 26.9292 28.6274 27.1762 29.2202ZM25.8177 35.9386C28.3865 34.8518 30.3625 33.7156 32.2397 32.7523C30.7577 31.7396 33.9687 33.8391 32.6843 33.0487L32.2397 32.7523L32.042 32.2583L27.3984 21.2174L21.0752 23.8603L25.7188 34.9012L25.9165 35.3952L25.793 35.9139C25.4472 37.4454 26.1388 34.0367 25.793 35.9139L25.8177 35.9386ZM33.6229 31.6161L28.9792 20.5752L30.5601 19.9083L29.8931 18.3275L28.3123 18.9944L23.5699 20.9704L18.8275 22.9464L17.2467 23.6133L17.9137 25.1941L19.4945 24.5272L24.1381 35.5681C24.1381 35.5681 19.7167 55.9704 21.6927 60.7128C23.6687 65.4552 28.4112 63.4545 28.4112 63.4545L39.452 58.8109L50.4931 54.1673C50.4931 54.1673 55.2354 52.1913 53.2347 47.4489C51.234 42.7065 33.5734 31.5667 33.5734 31.5667L33.6229 31.6161ZM26.1141 57.6994L23.6194 51.722L24.7802 51.228L28.9298 54.192L27.2502 50.1906L28.3617 49.7213L30.8565 55.6987L29.6462 56.2174L25.5706 53.3028L27.2256 57.2301L26.1141 57.6994ZM31.7209 51.8208L30.6095 52.0678C30.5601 51.5985 30.6094 51.2033 30.807 50.8822C31.0046 50.5611 31.3999 50.2894 31.9433 50.0424C32.462 49.8201 32.8572 49.7213 33.1536 49.746C33.45 49.746 33.6969 49.8448 33.8698 49.993C34.0427 50.1412 34.2404 50.4623 34.4627 50.9563L35.0061 52.2901C35.1543 52.6606 35.3025 52.9323 35.4014 53.1052C35.5248 53.2781 35.673 53.4263 35.8459 53.5992L34.7097 54.0685C34.7097 54.0685 34.5615 53.9203 34.4627 53.7721C34.4133 53.7227 34.3885 53.6733 34.3638 53.6486C34.2403 53.9203 34.0922 54.1426 33.9193 54.3402C33.7464 54.5378 33.524 54.686 33.277 54.7848C32.8324 54.9824 32.4373 55.0071 32.0667 54.8589C31.7209 54.7354 31.4493 54.4637 31.3011 54.0932C31.2023 53.8462 31.1776 53.5992 31.2023 53.3769C31.227 53.1299 31.3505 52.9323 31.4987 52.7347C31.6716 52.5371 31.9433 52.3395 32.2891 52.0925C32.7831 51.7714 33.1041 51.5244 33.277 51.3515L33.2277 51.228C33.1289 51.0057 33.0054 50.8575 32.8572 50.8081C32.709 50.7587 32.4866 50.8081 32.1902 50.9316C31.9926 51.0057 31.8445 51.1292 31.7704 51.2527C31.6963 51.3762 31.6469 51.5738 31.6716 51.7961L31.7209 51.8208ZM33.6476 52.0925L33.7463 52.3148C33.8698 52.5865 33.9193 52.7841 33.944 52.8829C33.944 53.0558 33.944 53.204 33.8205 53.3769C33.697 53.5992 33.5241 53.7474 33.3265 53.8215C33.1289 53.8956 32.9559 53.8956 32.8077 53.8215C32.6348 53.7474 32.5114 53.6486 32.462 53.4757C32.4126 53.3028 32.4125 53.1546 32.5113 52.9817C32.5854 52.8829 32.7584 52.7347 33.0548 52.5124C33.3512 52.3148 33.5488 52.1666 33.6723 52.0431L33.6476 52.0925ZM35.3025 50.3635C35.0555 49.746 34.932 49.2026 34.932 48.7086C34.932 48.3381 35.0061 47.9923 35.1543 47.6465C35.2778 47.3007 35.4754 47.029 35.6977 46.782C35.9941 46.4609 36.3893 46.2139 36.8833 46.0163C37.7725 45.6458 38.5876 45.6211 39.3533 45.9422C40.119 46.2633 40.6872 46.9302 41.1071 47.8935C41.527 48.8568 41.5762 49.7213 41.2798 50.487C40.9834 51.2527 40.3907 51.8208 39.5262 52.1913C38.6617 52.5618 37.8219 52.5865 37.0562 52.2654C36.3152 51.9443 35.7224 51.3021 35.3272 50.3388L35.3025 50.3635ZM36.5375 49.7954C36.2411 49.1038 36.1916 48.5357 36.3398 48.0664C36.5127 47.5971 36.8339 47.2513 37.3279 47.0537C37.8219 46.8561 38.2912 46.8561 38.7358 47.0537C39.1804 47.276 39.5509 47.7206 39.8226 48.3875C40.0943 49.0544 40.1685 49.6719 40.0203 50.1412C39.8474 50.6105 39.5262 50.9563 39.0569 51.1539C38.5876 51.3515 38.0936 51.3515 37.649 51.1539C37.1797 50.9316 36.8092 50.487 36.5375 49.8201V49.7954ZM43.2807 50.487L40.7859 44.5096L41.9962 43.9908L42.9841 46.3373L45.3307 45.3494L44.3428 43.0029L45.553 42.4841L48.0478 48.4616L46.8373 48.9803L45.7507 46.3621L43.4041 47.3501L44.491 49.9683L43.2807 50.487Z" fill="#5A4499"/>
<path fill-rule="evenodd" clip-rule="evenodd" d="M43.6017 7.31138C43.6017 7.31138 43.6265 7.13845 43.7006 7.08905C43.7747 7.01495 43.8487 6.99026 43.9475 6.99026H45.5778C45.5778 6.99026 45.7507 7.01495 45.8248 7.08905C45.8989 7.16315 45.9235 7.23728 45.9235 7.31138V17.2408H48.7641C49.0358 17.2408 49.2333 17.1914 49.3321 17.0679C49.4309 16.9444 49.4803 16.7468 49.4803 16.4257V7.28665C49.4803 7.28665 49.5051 7.11376 49.5792 7.06436C49.6533 6.99026 49.7274 6.96558 49.8262 6.96558H51.4565C51.4565 6.96558 51.6293 6.99026 51.7034 7.06436C51.7775 7.13846 51.8022 7.21255 51.8022 7.28665V16.4257C51.8022 16.7468 51.7775 17.0185 51.7281 17.2161H53.2595C53.2595 17.2161 53.4324 17.2408 53.5065 17.3149C53.5806 17.389 53.6054 17.4631 53.6054 17.5619V21.2422C53.6054 21.2422 53.5806 21.4151 53.5065 21.4645C53.4324 21.5386 53.3583 21.5633 53.2595 21.5633H51.6292C51.6292 21.5633 51.4564 21.5386 51.3823 21.4645C51.3082 21.3904 51.2835 21.3163 51.2835 21.2422V19.2909H40.6131C39.551 19.2909 38.7853 19.0686 38.316 18.624C37.8467 18.1794 37.5996 17.4631 37.5996 16.4504V7.31138C37.5996 7.31138 37.6244 7.13845 37.6985 7.08905C37.7726 7.01495 37.8466 6.99026 37.9454 6.99026H39.5757C39.5757 6.99026 39.7486 7.01495 39.8227 7.08905C39.8968 7.16315 39.9214 7.23728 39.9214 7.31138V16.4504C39.9214 16.7468 39.9708 16.9691 40.0696 17.0926C40.1684 17.2161 40.3414 17.2655 40.6378 17.2655H43.6512V7.33606L43.6017 7.31138ZM62.8679 15.2648C62.8679 16.5986 62.5467 17.6113 61.8798 18.3276C61.2129 19.0439 60.2249 19.4144 58.9158 19.4144C58.4465 19.4144 57.903 19.365 57.3349 19.2909V22.2302C57.3349 22.2302 57.3103 22.4031 57.2362 22.4525C57.1621 22.5266 57.0881 22.5513 56.9893 22.5513H55.4579C55.4579 22.5513 55.2849 22.5266 55.2108 22.4525C55.1367 22.3784 55.112 22.3043 55.112 22.2302V10.6953C55.112 10.5471 55.1614 10.4236 55.2849 10.3495C55.4084 10.2754 55.853 10.1766 56.6187 10.0284C57.3844 9.90486 58.1501 9.83076 58.8911 9.83076C60.1755 9.83076 61.1635 10.2013 61.8304 10.8929C62.4973 11.6092 62.8432 12.6466 62.8432 13.9804V15.2401L62.8679 15.2648ZM60.6695 15.2648V14.0051C60.6695 13.1653 60.5214 12.5478 60.2497 12.1773C59.9533 11.8068 59.5086 11.6339 58.9158 11.6339C58.2489 11.6339 57.7301 11.6586 57.3349 11.7574V17.5372C57.903 17.6113 58.4465 17.6607 58.9158 17.6607C59.5086 17.6607 59.9533 17.4878 60.2497 17.1173C60.5461 16.7468 60.6695 16.154 60.6695 15.2895V15.2648Z" fill="#5A4499"/>
</svg>
