<svg width="71" height="70" viewBox="0 0 71 70" fill="none" xmlns="http://www.w3.org/2000/svg">
<path d="M7.19689 2.54413H64.4022C66.5264 2.54413 68.2554 4.27313 68.2554 6.39734V63.6027C68.2554 65.7269 66.5264 67.4312 64.4269 67.4312H7.22161C5.09741 67.4312 3.36841 65.7022 3.36841 63.578V6.34797C3.36841 4.22376 5.09738 2.51941 7.19689 2.51941V2.54413Z" fill="white"/>
<path d="M7.14723 2.5441C5.02303 2.5441 3.31875 4.27308 3.31875 6.37259V63.578C3.31875 65.7022 5.02303 67.4312 7.14723 67.4312H64.3527C66.4769 67.4312 68.1812 65.7022 68.1812 63.578V6.37259C68.1812 4.24838 66.4522 2.5441 64.3527 2.5441H7.14723ZM64.3527 70H7.14723C3.61512 70 0.75 67.1348 0.75 63.6027V6.39731C0.75 2.8652 3.61512 0 7.14723 0H64.3527C67.8848 0 70.7499 2.8652 70.7499 6.39731V63.6027C70.7499 67.1348 67.8848 70 64.3527 70Z" fill="#5A4499"/>
<path fill-rule="evenodd" clip-rule="evenodd" d="M54.9421 57.5758C55.7078 57.0324 56.0783 55.9455 55.4114 55.0069L44.8397 41.2491L48.5447 30.875L44.2964 24.8234L22.7331 39.9646L26.9816 46.0161L38.0966 46.2137L47.3344 60.6633C48.0013 61.6019 48.7423 61.9229 49.4833 61.4042L54.9421 57.5758ZM51.5582 55.4269C52.0522 56.1185 51.8792 57.0818 51.1876 57.5758C50.496 58.0698 49.5327 57.8969 49.0387 57.2053C48.5447 56.5137 48.7176 55.5504 49.4092 55.0564C50.1008 54.5624 51.0642 54.7353 51.5582 55.4269ZM37.6521 15.3881L43.333 23.465L21.7698 38.6061L20.2878 35.321C20.6089 33.9131 21.1277 32.1841 22.0169 31.9124L22.4367 31.7889C24.141 31.2702 26.2899 30.628 26.7098 28.8002C26.8827 28.1086 27.7225 27.7134 28.8834 27.1453C28.9822 27.0959 29.1057 27.0465 29.2292 26.9724L30.3408 28.0345L29.7233 26.7254C30.7113 26.2314 31.7981 25.5892 32.7861 24.5765C33.6259 23.7367 33.9716 22.8721 33.8234 22.057C33.6011 20.8961 32.292 19.6117 31.8227 19.34L33.1813 18.4756L37.0098 22.23L34.935 17.2652L37.6766 15.3386L37.6521 15.3881ZM13.8659 33.2215C13.6436 31.6901 13.9646 29.8623 14.8785 27.7875C15.4219 26.5278 17.8672 25.441 19.7938 25.2187C21.671 24.9964 23.8694 24.2554 24.1905 23.0945C24.314 22.6252 24.9068 21.0443 26.9816 19.7352C27.4756 19.4388 27.9202 19.2659 28.3401 19.2659C29.1058 19.2659 29.7232 19.7846 30.316 20.2786L30.489 20.4268L30.6619 20.5504C30.6619 20.5504 32.0451 21.1925 32.218 22.2052C32.3168 22.7486 32.0451 23.3662 31.4029 24.0084C30.489 24.9223 29.5009 25.515 28.5623 25.9843C28.2906 26.1078 28.0437 26.2561 27.772 26.3549C27.772 26.3549 27.7473 26.3549 27.7226 26.3796C26.4629 26.9971 25.3761 27.5158 25.1044 28.5779C24.7833 29.9364 22.906 30.5045 21.3746 30.9491L20.9548 31.0726C19.8433 31.4184 19.2504 32.9004 18.8552 34.3824C18.707 34.9011 18.6083 35.4198 18.5095 35.8891C18.4107 36.3584 18.3118 36.7783 18.2377 37.05C17.9413 37.9639 18.3365 39.0013 18.7564 40.1128C19.0034 40.755 19.2504 41.3972 19.3492 42.0394C19.4974 42.8792 19.2752 43.7437 18.7812 44.3612C18.2625 44.954 17.4967 45.2751 16.5581 45.2751C15.0267 45.2751 14.2857 44.2377 14.2857 42.0641C14.2857 41.249 14.8291 39.8905 15.2984 38.6802C15.496 38.1862 15.6689 37.7169 15.8171 37.297C16.1629 36.2843 15.5454 35.6174 15.002 35.0493C14.508 34.5306 14.0141 34.0119 13.8906 33.1474L13.8659 33.2215ZM12.0381 58.7367C12.0381 59.1072 12.7049 59.6259 13.52 59.8729C14.1128 60.0458 15.4713 60.1692 16.8792 60.1692C18.2871 60.1692 19.374 60.0458 20.0656 59.8729C20.8807 59.6259 21.4241 59.2307 21.4241 58.8108C21.4241 58.3909 20.8807 57.971 20.0162 57.724C20.0162 57.724 18.7564 57.2053 16.8545 57.2053C15.743 57.2053 14.6068 57.3782 13.52 57.7487C12.1368 58.1933 12.0381 58.6379 12.0381 58.7614V58.7367Z" fill="#5A4499"/>
<path fill-rule="evenodd" clip-rule="evenodd" d="M60.9442 16.4995C60.9442 18.1791 60.5243 19.4635 59.7092 20.3527C58.8941 21.2419 57.7331 21.6865 56.2264 21.6865C54.7197 21.6865 53.5589 21.2419 52.7438 20.3527C51.9287 19.4635 51.5088 18.1791 51.5088 16.4995V14.2765C51.5088 12.5228 51.9287 11.2384 52.7932 10.3739C53.6577 9.53413 54.7938 9.08948 56.2264 9.08948C57.659 9.08948 58.8941 9.5341 59.7092 10.4233C60.5243 11.3125 60.9442 12.5969 60.9442 14.2518V16.4749V16.4995ZM58.6224 16.4995V14.2765C58.6224 13.1897 58.4248 12.3993 58.0296 11.8806C57.6344 11.3619 57.0415 11.1149 56.2017 11.1149C55.3619 11.1149 54.7691 11.3619 54.3739 11.8806C53.9787 12.3993 53.7812 13.1897 53.7812 14.2765V16.4995C53.7812 17.5863 53.9787 18.3767 54.3739 18.8954C54.7691 19.4141 55.3619 19.6611 56.2017 19.6611C57.0415 19.6611 57.6344 19.4141 58.0296 18.8954C58.4248 18.3767 58.6224 17.5863 58.6224 16.4995Z" fill="#5A4499"/>
</svg>
