<svg width="70" height="70" viewBox="0 0 70 70" fill="none" xmlns="http://www.w3.org/2000/svg">
<path d="M6.40771 2.56799H63.5929C65.7163 2.56799 67.4448 4.29639 67.4448 6.41984V63.605C67.4448 65.7285 65.7164 67.4322 63.6176 67.4322H6.43239C4.30894 67.4322 2.60522 65.7038 2.60522 63.605V6.39515C2.60522 4.2717 4.33363 2.56799 6.43239 2.56799H6.40771Z" fill="white"/>
<path d="M6.40754 2.5679C4.28408 2.5679 2.55566 4.2963 2.55566 6.41975V63.5802C2.55566 65.7037 4.28408 67.4074 6.40754 67.4074H63.5927C65.7162 67.4074 67.4199 65.679 67.4199 63.5802V6.39506C67.4199 4.2716 65.6915 2.54321 63.5927 2.54321H6.40754V2.5679ZM63.5927 70H6.40754C2.87668 70 0.0124512 67.1358 0.0124512 63.6049V6.39506C0.0124512 2.8642 2.90137 0 6.40754 0H63.5927C67.1236 0 69.9878 2.8642 69.9878 6.39506V63.5802C69.9878 67.1111 67.1236 69.9753 63.5927 69.9753" fill="#5A4499"/>
<path d="M25.2961 41.0866C24.9998 41.1607 24.7035 41.1854 24.4072 41.1854C22.5801 41.1854 21.0739 39.8027 21.0739 38.099C21.0739 37.6792 21.1727 37.2101 21.3949 36.6669C21.4196 36.5681 21.543 36.5187 21.6418 36.5434C21.7406 36.5434 21.8146 36.6422 21.79 36.7409C21.79 36.8644 21.79 36.9632 21.79 37.0619C21.79 38.9138 23.2961 40.4693 25.2714 40.6669C25.3702 40.6669 25.4443 40.7409 25.4443 40.8397C25.4443 40.9385 25.3949 41.0125 25.2961 41.0372M27.5924 32.7409C28.8764 34.8644 29.5184 36.5928 29.5184 37.9261C29.5184 40.6422 27.3208 42.8397 24.6048 42.8397C21.8887 42.8397 19.6912 40.6422 19.6912 37.9261C19.6912 36.5928 20.3331 34.8397 21.6171 32.7409C22.6048 31.1113 23.7159 29.6792 24.2838 28.9879C24.3578 28.8891 24.4813 28.8397 24.6048 28.8397C24.7282 28.8397 24.8517 28.8891 24.9258 28.9879C25.4937 29.6792 26.6048 31.1113 27.5924 32.7409ZM21.8146 50.2965C21.8146 51.8274 21.4196 53.0372 20.5801 53.9261C19.7653 54.7903 18.6541 55.2348 17.222 55.2348C15.7899 55.2348 14.6788 54.7903 13.864 53.9014C13.0492 53.0125 12.6542 51.8027 12.6542 50.2965C12.6542 48.7903 13.0739 47.5804 13.864 46.6916C14.6788 45.8027 15.8146 45.3582 17.222 45.3582C18.6294 45.3582 19.7653 45.8027 20.5801 46.6669C21.4196 47.5558 21.8146 48.7656 21.8146 50.2965ZM19.3702 50.2965C19.3702 50.8891 19.3208 51.3829 19.1974 51.7533C19.0986 52.1237 18.9257 52.4446 18.7282 52.7163C18.5307 52.9632 18.3085 53.1607 18.0369 53.2841C17.7653 53.4076 17.4936 53.4817 17.222 53.4817C16.9504 53.4817 16.6788 53.4323 16.4072 53.3088C16.1603 53.2101 15.9134 53.0125 15.7159 52.7409C15.5183 52.4693 15.3455 52.1483 15.2468 51.778C15.148 51.3829 15.0739 50.9138 15.0739 50.3212C15.0739 49.7286 15.148 49.2842 15.2468 48.8644C15.3702 48.4693 15.5183 48.1237 15.7159 47.8767C15.9381 47.6051 16.1603 47.4323 16.4072 47.3335C16.6541 47.2348 16.9258 47.1854 17.1974 47.1854C17.469 47.1854 17.7406 47.2348 17.9875 47.3582C18.2591 47.4817 18.4813 47.6545 18.6789 47.9261C18.8764 48.173 19.0245 48.5187 19.148 48.9138C19.2714 49.3088 19.3208 49.8027 19.3208 50.3459M27.9134 55.1113H22.8023V53.457H24.1603V47.2841H22.8023V45.6298H27.9134V47.2841H26.5554V53.457H27.9134V55.1113ZM35.8146 55.1113H29.4936V45.6298H31.8887V53.3088H35.8393V55.136L35.8146 55.1113ZM8.75292 59.8767C8.2591 59.8767 7.83936 60.5681 7.83936 61.2348C7.83936 61.9014 8.23441 62.5928 8.75292 62.5928H39.6418C40.1356 62.5928 40.5554 61.9014 40.5554 61.2348C40.5554 60.5681 40.1603 59.8767 39.6418 59.8767H38.7282V25.3829H39.6418C40.1356 25.3829 40.5554 24.6669 40.5554 24.0249C40.5554 23.3829 40.1603 22.6669 39.6418 22.6669H8.75292C8.2591 22.6669 7.83936 23.3829 7.83936 24.0249C7.83936 24.6669 8.23441 25.3829 8.75292 25.3829H9.66649V59.8767H8.75292ZM12.3826 20.8397H16.9258V18.1237H12.3826V20.8397Z" fill="#5A4499"/>
<path d="M62.7529 18.4443C62.7529 18.5678 62.6541 18.6418 62.4813 18.6418H60.9258C60.9258 18.6418 60.8023 18.6418 60.7529 18.5678C60.7035 18.5184 60.6788 18.469 60.6788 18.3949V12.469C60.6788 12.469 60.6788 12.3455 60.6294 12.3455C60.6294 12.3455 60.6047 12.3455 60.5554 12.4196L59.6912 13.9999C59.3702 14.5925 59.1973 14.8888 59.1726 14.9134C59.148 14.9381 59.0986 14.9875 58.9998 15.0122C58.9257 15.0369 58.827 15.0616 58.7529 15.0616H57.1973C56.9504 15.0616 56.7776 14.9875 56.6788 14.8394L55.3455 12.3949C55.3455 12.3949 55.3455 12.3949 55.3208 12.3702L55.2961 12.3455C55.2714 12.3455 55.2467 12.3702 55.2467 12.469V18.3949C55.2467 18.3949 55.222 18.5184 55.1727 18.5678C55.1233 18.6172 55.0739 18.6418 55.0245 18.6418H53.4442C53.2714 18.6418 53.1726 18.5678 53.1726 18.4443V9.65419C53.1726 9.50604 53.222 9.40727 53.3455 9.28382C53.4689 9.18505 53.6171 9.13567 53.7652 9.13567H55.0492C55.0492 9.13567 55.222 9.13567 55.2961 9.18505C55.3702 9.20974 55.4442 9.25913 55.4936 9.30851C55.543 9.35789 55.6912 9.58011 55.8887 9.95048L57.7652 13.3826C57.7652 13.3826 57.8887 13.5554 57.9628 13.5554C58.0121 13.5554 58.0615 13.5554 58.0615 13.4813L60.2591 9.45666C60.3578 9.23443 60.5554 9.13567 60.827 9.13567H62.1109C62.2838 9.13567 62.4072 9.18505 62.5307 9.28382C62.6541 9.38258 62.7035 9.50604 62.7035 9.65419V18.4443H62.7529ZM50.6541 18.2962C50.6541 18.2962 50.6294 18.469 50.5554 18.5431C50.4813 18.6172 50.4072 18.6418 50.3085 18.6418H48.6294C48.6294 18.6418 48.4566 18.6172 48.3825 18.5431C48.3085 18.469 48.2838 18.3949 48.2838 18.2962V13.1357H43.4936V18.2962C43.4936 18.2962 43.4689 18.469 43.3949 18.5431C43.3208 18.6172 43.2467 18.6418 43.1479 18.6418H41.4936C41.4936 18.6418 41.3208 18.6172 41.2467 18.5431C41.1727 18.469 41.1479 18.3949 41.1479 18.2962V6.41962C41.1479 6.41962 41.1727 6.24678 41.2467 6.1974C41.3208 6.12332 41.3949 6.09863 41.4936 6.09863H43.1479C43.1479 6.09863 43.3208 6.12332 43.3949 6.1974C43.4689 6.27147 43.4936 6.34555 43.4936 6.41962V11.0616H48.2838V6.41962C48.2838 6.41962 48.3085 6.24678 48.3825 6.1974C48.4566 6.12332 48.5307 6.09863 48.6294 6.09863H50.3085C50.3085 6.09863 50.4813 6.12332 50.5554 6.1974C50.6294 6.27147 50.6541 6.34555 50.6541 6.41962V18.2962Z" fill="#5A4499"/>
</svg>
