<svg width="71" height="70" viewBox="0 0 71 70" fill="none" xmlns="http://www.w3.org/2000/svg">
<path d="M6.70677 2.56799H63.892C66.0155 2.56799 67.7439 4.29639 67.7439 6.41984V63.605C67.7439 65.7285 66.0155 67.4322 63.9168 67.4322H6.73148C4.60803 67.4322 2.87964 65.7038 2.87964 63.5803V6.39515C2.87964 4.2717 4.608 2.56799 6.70677 2.56799Z" fill="white"/>
<path d="M6.65733 2.5679C4.53388 2.5679 2.8302 4.2963 2.8302 6.39506V63.5802C2.8302 65.7037 4.53388 67.4321 6.65733 67.4321H63.8425C65.9659 67.4321 67.6696 65.7037 67.6696 63.5802V6.39506C67.6696 4.2716 65.9412 2.5679 63.8425 2.5679H6.65733ZM63.8425 70H6.65733C3.12647 70 0.262207 67.1358 0.262207 63.6049V6.39506C0.262207 2.8642 3.12647 0 6.65733 0H63.8425C67.3733 0 70.2376 2.8642 70.2376 6.39506V63.5802C70.2376 67.1111 67.3733 69.9753 63.8425 69.9753" fill="#5A4499"/>
<path fill-rule="evenodd" clip-rule="evenodd" d="M22.8553 34.0246C23.0775 33.1357 23.6207 32.3702 24.4355 31.9258C25.2257 31.4813 26.1639 31.3826 27.0528 31.6542C27.1763 31.7036 27.2997 31.753 27.4231 31.8023C26.5342 31.9505 25.6701 32.2715 24.88 32.7159C24.0899 33.1604 23.3984 33.7283 22.8058 34.4196C22.8058 34.2962 22.8306 34.148 22.88 34.0246H22.8553ZM22.8553 38.2221C22.5096 39.2591 22.3367 40.4196 22.3367 41.6542C24.7071 42.5431 27.3985 42.3208 29.6207 41.0616C31.8429 39.8023 33.3738 37.6048 33.843 35.111C32.7812 34.469 31.6947 34.0492 30.633 33.8023C30.5589 33.8023 30.3121 33.7529 30.2874 33.7283C28.7071 33.4567 27.1515 33.6542 25.8428 34.3949C24.5095 35.1357 23.5713 36.3702 22.9787 37.8764C22.9787 37.9011 22.9046 38.1233 22.8553 38.1974V38.2221ZM39.9416 38.1233C39.3984 37.3826 38.7812 36.6912 38.1639 36.0739C40.4849 35.8023 42.8058 35.9011 45.1268 36.3949C45.3737 36.4443 45.6207 36.3949 45.8182 36.2962C46.0651 36.1727 46.238 35.9258 46.2873 35.6542C46.4108 35.1357 46.0651 34.5925 45.5219 34.4937C42.4108 33.827 39.2997 33.8023 36.2379 34.4196C35.4231 33.8023 34.559 33.2838 33.6701 32.8641C33.2997 32.6912 32.9293 32.5431 32.5837 32.3949C35.3738 29.506 37.3985 25.9505 38.4602 22.0246C38.6084 21.506 38.2873 20.9628 37.7688 20.8147C37.2503 20.6665 36.7071 20.9875 36.5589 21.506C35.4725 25.4567 33.3243 29.0122 30.3614 31.8023H30.312C29.7194 30.9628 28.9294 30.3209 27.9911 29.9505L26.9047 28.0492C26.1146 26.6418 24.312 26.148 22.9045 26.9381L22.3861 27.2344C22.2133 27.3332 22.0652 27.4567 21.9417 27.6048C21.7689 27.6295 21.5712 27.6789 21.3984 27.7776L20.88 28.0739C19.4726 28.8641 18.9787 30.6665 19.7688 32.0739L20.8553 33.9752C20.7071 34.9875 20.8552 35.9999 21.2503 36.9381V36.9875C17.3243 38.0986 13.2009 38.1233 9.22559 37.0369C8.70707 36.8888 8.16388 37.2097 8.01574 37.7283C7.86759 38.2468 8.1885 38.79 8.70702 38.9381C12.6329 40.0246 16.707 40.0986 20.6083 39.185C20.5342 39.5554 20.4848 39.9505 20.4354 40.3702C20.3366 41.3332 20.3614 42.3455 20.4601 43.3579C18.3614 45.6789 16.7812 48.3702 15.7689 51.3826C15.596 51.9011 15.8676 52.4443 16.3861 52.6171C16.6577 52.7159 16.9541 52.6665 17.1763 52.5431C17.3738 52.4196 17.5466 52.2468 17.6207 51.9999C18.3861 49.7529 19.4971 47.7036 20.9046 45.8517C21.1268 46.7159 21.4232 47.5801 21.7688 48.4443C20.3367 52.1727 19.917 56.2221 20.5343 60.1974C20.6083 60.7406 21.1269 61.0863 21.6454 61.0122C21.7689 61.0122 21.8675 60.9628 21.991 60.8888C22.3367 60.6912 22.5342 60.2962 22.4848 59.8764C22.0157 56.8641 22.2133 53.827 23.0281 50.9381C23.2997 51.4073 23.5712 51.827 23.8675 52.2468C26.0898 57.5554 30.5342 61.4567 36.0651 62.9875C36.3367 63.0616 36.5836 63.0122 36.8058 62.8888C37.028 62.7653 37.2009 62.5678 37.2749 62.2962C37.4231 61.7776 37.1022 61.2344 36.5837 61.0863C33.596 60.2715 30.9541 58.6665 28.9047 56.469C29.2504 56.5925 29.6207 56.7159 29.9664 56.79C32.3861 57.3579 35.0033 56.8641 37.7194 55.3085C40.4601 53.7529 42.2133 51.7776 42.9541 49.4073C43.0775 49.0616 43.1516 48.6912 43.2256 48.3209C44.0405 51.2097 44.0899 54.2715 43.2504 57.2838C43.1022 57.8023 43.4231 58.3455 43.9416 58.4937C44.2132 58.5678 44.4601 58.5184 44.6823 58.3949C44.9046 58.2715 45.0774 58.0739 45.1515 57.8023C46.6824 52.2468 45.596 46.4443 42.1639 41.827C41.9664 41.3826 41.7194 40.9134 41.4725 40.4443C44.3614 41.2344 47.1022 42.6171 49.4232 44.5678C49.7442 44.8394 50.1885 44.8641 50.5342 44.6665C50.6329 44.6171 50.7318 44.5431 50.8059 44.4443C51.1516 44.0246 51.1021 43.4073 50.6823 43.0616C47.5712 40.4937 43.8923 38.79 39.9416 38.1233Z" fill="#5A4499"/>
<path fill-rule="evenodd" clip-rule="evenodd" d="M51.9903 9.23452H46.7558V11.8518C47.052 11.8518 47.5458 11.8271 48.2372 11.8271C49.7927 11.8271 50.9779 12.1481 51.7927 12.7901C52.6075 13.432 53.0026 14.395 53.0026 15.6543V15.9506C53.0026 16.7901 52.8298 17.5061 52.4594 18.074C52.0891 18.6419 51.5705 19.0617 50.8545 19.358C50.1384 19.6543 49.2742 19.7777 48.2372 19.7777C47.4717 19.7777 46.731 19.753 45.9656 19.679C45.2002 19.6049 44.7558 19.5308 44.6323 19.4567C44.5089 19.3827 44.4595 19.2345 44.4595 19.0617V7.65427C44.4595 7.65427 44.4841 7.48143 44.5582 7.40736C44.6323 7.33329 44.7064 7.30859 44.8052 7.30859H51.9903C51.9903 7.30859 52.1631 7.33329 52.2372 7.40736C52.3112 7.45674 52.336 7.53082 52.336 7.62958V8.93822C52.336 9.13575 52.2372 9.23452 52.015 9.23452H51.9903ZM46.7558 13.7777V17.7777C47.2249 17.8271 47.7187 17.8518 48.2372 17.8518C49.1014 17.8518 49.7434 17.7037 50.1385 17.3827C50.5335 17.0864 50.731 16.5925 50.731 15.9259V15.6296C50.731 14.9382 50.5335 14.4691 50.1137 14.1728C49.7187 13.8765 49.0767 13.7283 48.2372 13.7283C47.7187 13.7283 47.2249 13.7283 46.7558 13.8024V13.7777ZM57.1014 19.2839C57.1014 19.2839 57.0768 19.4567 57.0027 19.5308C56.9287 19.6049 56.8545 19.6296 56.7557 19.6296H55.2249C55.2249 19.6296 55.052 19.6049 55.0026 19.5308C54.9285 19.4567 54.9039 19.3827 54.9039 19.2839V10.6419C54.9039 10.6419 54.9285 10.4691 55.0026 10.395C55.0767 10.3209 55.1508 10.2962 55.2249 10.2962H56.7557C56.7557 10.2962 56.9287 10.3209 57.0027 10.395C57.0768 10.4691 57.1014 10.5432 57.1014 10.6419V14H60.3854V10.6419C60.3854 10.6419 60.4101 10.4691 60.4841 10.395C60.5582 10.3209 60.6322 10.2962 60.731 10.2962H62.2618C62.2618 10.2962 62.4348 10.3209 62.5089 10.395C62.5829 10.4691 62.6076 10.5432 62.6076 10.6419V19.2839C62.6076 19.2839 62.5829 19.4567 62.5089 19.5308C62.4348 19.6049 62.3606 19.6296 62.2618 19.6296H60.731C60.731 19.6296 60.5582 19.6049 60.4841 19.5308C60.4101 19.4567 60.3854 19.3827 60.3854 19.2839V15.6296H57.1014V19.2839Z" fill="#5A4499"/>
</svg>
