<svg width="71" height="70" viewBox="0 0 71 70" fill="none" xmlns="http://www.w3.org/2000/svg">
<path d="M6.95701 2.56799H64.1423C66.2657 2.56799 67.9941 4.29639 67.9941 6.41984V63.605C67.9941 65.7285 66.2656 67.4322 64.1668 67.4322H6.98173C4.85827 67.4322 3.12988 65.7038 3.12988 63.5803V6.39515C3.12988 4.2717 4.85825 2.56799 6.95701 2.56799Z" fill="white"/>
<path d="M6.90743 2.5679C4.78397 2.5679 3.0803 4.2963 3.0803 6.39506V63.5802C3.0803 65.7037 4.78397 67.4321 6.90743 67.4321H64.0927C66.2162 67.4321 67.9198 65.7037 67.9198 63.5802V6.39506C67.9198 4.2716 66.1915 2.5679 64.0927 2.5679H6.90743ZM64.0927 70H6.90743C3.37656 70 0.512451 67.1358 0.512451 63.6049V6.39506C0.512451 2.8642 3.37656 0 6.90743 0H64.0927C67.6236 0 70.4877 2.8642 70.4877 6.39506V63.5802C70.4877 67.1111 67.6236 69.9753 64.0927 69.9753" fill="#5A4499"/>
<path d="M11.6726 40.8394C10.9072 40.8394 10.1417 40.8888 9.37622 40.9876V45.8764C10.117 45.7283 10.8825 45.6789 11.6726 45.6789C19.2282 45.6789 25.401 51.8271 25.401 59.4073C25.401 59.9752 25.3515 60.5184 25.2775 61.0863H30.1417C30.2158 60.5184 30.2404 59.9752 30.2404 59.4073C30.2404 49.1851 21.9196 40.8394 11.6726 40.8394ZM21.1293 59.4073C21.1293 59.4073 21.1293 59.2839 21.1293 59.2098C21.1293 58.9135 21.1047 58.5925 21.0306 58.2962C20.4627 53.6048 16.5122 49.9505 11.6726 49.9505C10.8825 49.9505 10.1417 50.074 9.37622 50.2468V59.0616C9.37622 60.1727 10.2898 61.0863 11.4009 61.0863H20.9565C21.0552 60.5925 21.1046 60.074 21.1293 59.5555C21.1293 59.5061 21.1293 59.4567 21.1293 59.4073ZM11.6726 30.2715C10.9072 30.2715 10.1417 30.3456 9.37622 30.395V34.9382C10.117 34.8641 10.9072 34.8147 11.6726 34.8147C25.2035 34.8147 36.2404 45.8517 36.2404 59.4073C36.2404 59.9752 36.1911 60.5184 36.1664 61.0863H40.7096C40.7096 60.5184 40.7837 59.9752 40.7837 59.4073C40.7837 43.3579 27.722 30.2715 11.6726 30.2715ZM11.6726 17.8024C10.9072 17.8024 10.1417 17.9011 9.37622 17.9258V22.469C10.1417 22.4197 10.9072 22.3456 11.6726 22.3456C32.0924 22.3456 48.7097 38.9629 48.7097 59.4073C48.7097 59.9752 48.6602 60.5184 48.6355 61.0863H53.1788C53.1788 60.5184 53.2528 59.9752 53.2528 59.4073C53.2528 36.469 34.6109 17.8024 11.6726 17.8024Z" fill="#5A4499"/>
<path fill-rule="evenodd" clip-rule="evenodd" d="M51.9941 21.1109C51.9941 21.2838 51.8953 21.3579 51.7225 21.3579H50.0435C50.0435 21.3579 49.92 21.3332 49.8459 21.2591C49.7966 21.185 49.7719 21.1109 49.7719 21.0369V13.3332C49.7719 13.3332 49.7719 13.1603 49.7225 13.1603C49.7225 13.1603 49.5991 13.3332 49.4262 13.7035L48.093 16.3702C47.9695 16.5924 47.7719 16.7159 47.5249 16.7159H45.846C45.599 16.7159 45.4263 16.6171 45.3028 16.4443L44.0682 14.0245C43.772 13.4566 43.6238 13.1603 43.5991 13.1603C43.5744 13.1603 43.5497 13.2097 43.5497 13.3332V21.0369C43.5497 21.0369 43.5251 21.2097 43.4757 21.2591C43.4263 21.3332 43.3522 21.3579 43.2781 21.3579H41.5991C41.4263 21.3579 41.3274 21.2838 41.3274 21.1109V9.70353C41.3274 9.53069 41.4015 9.35785 41.525 9.2344C41.6484 9.11094 41.8213 9.03687 41.9941 9.03687H43.3521C43.6237 9.03687 43.8459 9.16032 43.9694 9.43193L45.6731 12.8887C46.2163 14.0245 46.5127 14.6171 46.5621 14.6665C46.5868 14.7159 46.6361 14.7406 46.6608 14.7406C46.7102 14.7406 46.7349 14.6912 46.809 14.5677L48.8584 10.3949C49.2041 9.70353 49.4016 9.33316 49.4509 9.25909C49.5003 9.2097 49.5744 9.13563 49.6485 9.11094C49.7473 9.06156 49.8213 9.03687 49.9448 9.03687H51.3028C51.4756 9.03687 51.6485 9.11094 51.7719 9.2344C51.8954 9.35785 51.9694 9.53069 51.9694 9.70353V21.0862L51.9941 21.1109ZM62.1423 18.7406C62.1423 19.7035 61.7718 20.3949 61.0805 20.8393C60.3644 21.2838 59.1792 21.4813 57.5249 21.4813C56.8336 21.4813 56.1917 21.4813 55.6238 21.4072C55.0559 21.3579 54.7102 21.2838 54.5621 21.185C54.4139 21.0862 54.3398 20.9134 54.3398 20.6418V12.6665C54.3398 12.469 54.3892 12.2961 54.4879 12.1974C54.5867 12.0739 54.9323 11.9998 55.5249 11.9504C56.1175 11.9011 56.7595 11.8764 57.4015 11.8764C59.2287 11.8764 60.4632 12.0986 61.1052 12.5183C61.7472 12.9381 62.0682 13.6048 62.0682 14.5183V14.6171C62.0682 15.0369 61.9447 15.4072 61.7225 15.7529C61.4756 16.0986 61.1546 16.3455 60.7102 16.4937C61.6732 16.8146 62.1423 17.506 62.1423 18.5924V18.6912V18.7406ZM59.9448 14.6665V14.5677C59.9448 14.0986 59.7966 13.827 59.4756 13.7035C59.1546 13.6048 58.6361 13.5307 57.8953 13.5307C57.3768 13.5307 56.9324 13.5307 56.5126 13.5554V15.8023H57.9695C58.5868 15.8023 59.0805 15.7282 59.4262 15.5801C59.7719 15.4319 59.9448 15.1356 59.9448 14.6665ZM60.0188 18.5677V18.469C60.0188 17.9504 59.8461 17.6295 59.5251 17.4813C59.1794 17.3332 58.6855 17.2591 57.9695 17.2591H56.5126V19.8517C56.8336 19.8517 57.1545 19.8517 57.5249 19.8517C58.4632 19.8517 59.1053 19.7529 59.4756 19.5801C59.846 19.4072 60.0188 19.0616 60.0188 18.5677Z" fill="#5A4499"/>
</svg>
