<svg width="71" height="70" viewBox="0 0 71 70" fill="none" xmlns="http://www.w3.org/2000/svg">
<path d="M7.14527 2.56799H64.3305C66.4539 2.56799 68.1823 4.29639 68.1823 6.41984V63.605C68.1823 65.7285 66.4539 67.4322 64.3552 67.4322H7.16996C5.0465 67.4322 3.31812 65.7038 3.31812 63.5803V6.39515C3.31812 4.2717 5.04651 2.56799 7.14527 2.56799Z" fill="white"/>
<path d="M7.14506 2.5679C5.02161 2.5679 3.3179 4.2963 3.3179 6.39506V63.6049C3.3179 65.7284 5.0463 67.4321 7.14506 67.4321H64.3302C66.4537 67.4321 68.1574 65.7037 68.1574 63.6049V6.39506C68.1574 4.2716 66.429 2.5679 64.3302 2.5679H7.14506ZM64.3302 70H7.14506C3.6142 70 0.75 67.1358 0.75 63.6049V6.39506C0.75 2.8642 3.63889 0 7.14506 0H64.3302C67.8858 0 70.75 2.8642 70.75 6.39506V63.6049C70.75 67.1358 67.8858 70 64.3549 70" fill="#5A4499"/>
<path d="M66.2067 50.6666C66.5277 49.0123 65.3672 45.8765 61.2684 44.8889C58.2067 44.1481 52.898 43.8271 49.4659 44.1975C48.4289 43.0617 44.8733 42.4197 44.8733 42.4197C39.4166 35.5308 35.3919 33.2099 35.3919 33.2099C34.7993 29.4568 31.8857 26 31.8857 26L31.8116 24.2716C31.6635 19.2345 29.861 17.9259 27.219 17.9259C25.861 17.9259 24.2561 18.2963 22.4783 18.6913C17.1943 19.8518 13.8116 19.9753 9.95976 20.0987C6.08321 20.1975 7.49062 23.0123 7.49062 23.0123C7.49062 23.0123 10.7746 33.4321 7.95975 39.037C5.14494 44.6666 5.49062 45.6049 5.49062 51.3333C5.49062 51.8765 5.5647 52.3457 5.73754 52.716C5.36717 53.7778 5.02148 56 5.02148 60.6913L5.83629 61.037L7.04618 60.1975L7.95975 61.6049L10.2067 61.9259L11.4659 60.7407L12.6264 62.0987H14.6758L15.7869 60.8889L17.1449 61.9753L18.6511 61.8271L19.5153 60.4938L20.7252 61.5555L22.6264 61.1111V58.6666C24.0832 57.7778 33.2684 60.321 38.7993 61.1358L39.9844 60.0494L40.8733 61.2839L43.0956 61.4074L43.9598 60.2716L45.0215 61.2839L46.9968 61.1358L47.7869 59.8518L48.7993 60.8148L51.2684 60.3703L51.861 59.1852L52.9474 60L55.2437 59.4568L55.7375 58.1975L56.9227 59.037L58.8486 58.4197L59.3178 57.037L60.4783 57.8518L62.182 57.2099L62.5276 55.4321L63.8363 56.1975L64.7746 55.6049L64.9227 53.8518L65.9597 54.8889L66.4783 54.5926C66.4783 54.5926 66.6017 51.2592 66.2314 50.642L66.2067 50.6666ZM9.71284 39.0123C12.2067 34.0741 9.8116 25.358 9.8116 25.358C9.8116 25.358 8.89803 22.9629 11.4659 22.9382C14.8733 22.9136 17.861 22.716 22.503 21.7037C24.0585 21.3333 25.4906 21.1852 26.6758 21.037C30.3548 20.5185 30.2561 26.8148 30.2561 26.8148C30.2561 26.8148 33.4659 31.1852 33.9844 34.4691C33.9844 34.4691 41.6388 40.0247 43.5894 43.9012C43.5894 43.9012 47.1449 44.8395 48.7746 45.9753C68.503 44.1728 69.9844 52.8642 46.1573 55.8518C44.182 56.0987 41.7622 56.0987 39.4165 56C36.4042 55.8518 33.1943 55.5555 30.0091 54.8642C17.0215 52.0494 10.1326 53.9012 8.15729 51.7284C7.76223 51.2839 7.56469 50.6913 7.56469 49.8271C7.56469 44.7901 7.2437 43.9506 9.71284 39.0123Z" fill="#5A4499"/>
<path fill-rule="evenodd" clip-rule="evenodd" d="M49.5398 21.3087C49.5398 21.4816 49.4658 21.605 49.2682 21.6544C49.0954 21.7038 48.725 21.7779 48.1818 21.8519C47.6386 21.926 47.0954 21.9507 46.5522 21.9507C45.1448 21.9507 44.009 21.531 43.1695 20.6668C42.3053 19.8026 41.8855 18.5433 41.8855 16.889V14.4445C41.8855 13.1606 42.1324 12.1236 42.6015 11.3828C43.0707 10.6421 43.6633 10.0989 44.3546 9.82726C45.046 9.53096 45.7867 9.38281 46.5522 9.38281C47.0707 9.38281 47.6139 9.4075 48.1818 9.48158C48.7497 9.55565 49.0954 9.60504 49.2682 9.67911C49.4411 9.75318 49.5151 9.85195 49.5151 10.0248V11.1359C49.5151 11.3581 49.4164 11.4816 49.1942 11.4816H49.1695C48.1324 11.4075 47.2682 11.3581 46.5769 11.3581C44.9719 11.3581 44.1818 12.3952 44.1818 14.4445V16.889C44.1818 18.9631 44.9719 19.9754 46.5769 19.9754C46.9719 19.9754 47.3917 19.9754 47.8608 19.926L49.1448 19.8273H49.1695C49.3917 19.8273 49.4904 19.9507 49.4904 20.1729V21.284L49.5398 21.3087ZM60.9226 21.6297C60.9226 21.7532 60.8238 21.8026 60.6509 21.8026H59.1201C59.1201 21.8026 58.9966 21.7779 58.9472 21.7285C58.8979 21.6791 58.8732 21.6297 58.8732 21.5556V15.7285C58.8732 15.7285 58.8732 15.605 58.8238 15.605C58.8238 15.605 58.7991 15.605 58.7497 15.6791L57.9102 17.2347C57.5892 17.8026 57.4164 18.0989 57.3917 18.1482C57.3917 18.1729 57.3176 18.2223 57.2435 18.247C57.1695 18.2717 57.0707 18.2964 56.9966 18.2964H55.4657C55.2188 18.2964 55.046 18.2223 54.9719 18.0742L53.6633 15.6791C53.6633 15.6791 53.6633 15.6791 53.6386 15.6544L53.6139 15.6297C53.5892 15.6297 53.5645 15.6544 53.5645 15.7532V21.5803C53.5645 21.5803 53.5398 21.7038 53.4904 21.7532C53.4411 21.8026 53.3917 21.8273 53.3423 21.8273H51.8114C51.6386 21.8273 51.5398 21.7779 51.5398 21.6544V13.0371C51.5398 12.9137 51.5892 12.7902 51.7127 12.6915C51.8361 12.5927 51.9596 12.5433 52.1324 12.5433H53.3917C53.3917 12.5433 53.5398 12.5433 53.6139 12.5927C53.688 12.6174 53.762 12.6668 53.8114 12.7161C53.8608 12.7655 53.9843 12.9631 54.2065 13.3334L56.0584 16.7161C56.0584 16.7161 56.1818 16.889 56.2559 16.889C56.3053 16.889 56.3546 16.889 56.3546 16.8149L58.5275 12.8643C58.6509 12.6421 58.8238 12.5433 59.0954 12.5433H60.3546C60.5028 12.5433 60.6509 12.5927 60.7744 12.6915C60.8978 12.7902 60.9472 12.9137 60.9472 13.0371V21.6544L60.9226 21.6297Z" fill="#5A4499"/>
</svg>
