<svg width="70" height="70" viewBox="0 0 70 70" fill="none" xmlns="http://www.w3.org/2000/svg">
<path d="M6.44696 2.54419H63.6523C65.7765 2.54419 67.5055 4.27319 67.5055 6.39739V63.6028C67.5055 65.727 65.7765 67.456 63.6523 67.456H6.44696C4.32275 67.456 2.59375 65.727 2.59375 63.6028V6.37271C2.59375 4.2485 4.3228 2.54419 6.42231 2.54419H6.44696Z" fill="white"/>
<path d="M6.39731 2.5441C4.2731 2.5441 2.56883 4.27312 2.56883 6.37262V63.578C2.56883 65.7022 4.2731 67.4312 6.39731 67.4312H63.6027C65.7269 67.4312 67.4312 65.7022 67.4312 63.578V6.37262C67.4312 4.24842 65.7022 2.5441 63.6027 2.5441H6.39731ZM63.6027 70H6.39731C2.8652 70 0 67.1348 0 63.6027V6.39731C0 2.8652 2.8652 0 6.39731 0H63.6027C67.1348 0 70 2.8652 70 6.39731V63.6027C70 67.1348 67.1348 70 63.6027 70Z" fill="#5A4499"/>
<path fill-rule="evenodd" clip-rule="evenodd" d="M34.0117 30.2823C30.9242 20.748 35.2962 16.0056 35.2962 16.0056C35.2962 16.0056 20.9701 22.8969 16.7217 41.4467C14.9432 38.8779 13.3871 37.47 13.56 37.9393C15.4867 42.904 11.1395 45.127 11.2136 50.3634C11.263 55.5998 20.3032 61.5772 20.3032 61.5772C20.649 61.8489 21.0442 62.0959 21.4394 62.3182C21.0936 61.923 20.7972 61.5031 20.5008 61.0832C19.5128 59.6753 18.8459 58.218 18.8212 56.7854C18.7965 53.9943 20.0067 52.043 20.8712 50.0917C21.6122 48.3874 22.0816 46.6831 21.1924 44.386C21.0442 44.0155 21.9828 44.8306 23.2672 46.4361C25.7619 39.6683 28.2319 33.7897 28.2319 33.7897C28.2319 33.7897 28.306 43.0028 31.4182 48.9061C34.3575 54.4389 34.1846 57.3041 34.1846 57.3041C39.5198 52.2159 41.2983 44.0896 41.2983 44.0896C43.2249 45.7939 44.361 47.9675 44.9785 50.1658C46.2876 54.76 43.5706 59.3789 43.4965 59.8235C43.4718 60.0211 43.4225 60.194 43.3731 60.3669C43.1755 61.2067 42.8544 61.9478 42.3851 62.6147C42.8791 62.2936 43.373 61.9477 43.8176 61.5772C43.8176 61.5772 52.1416 55.5998 52.191 50.3634C52.2404 45.127 47.9179 42.904 49.8445 37.9393C50.0174 37.5194 48.733 38.705 47.2263 40.9527C45.7196 36.2844 44.7563 32.53 39.6928 28.0592C39.6928 28.0592 40.6313 38.1863 35.2467 45.5222C35.2467 45.5222 37.1239 39.7918 34.0364 30.2328L34.0117 30.2823Z" fill="#5A4499"/>
<path fill-rule="evenodd" clip-rule="evenodd" d="M54.1177 8.99079C54.1177 9.18839 54.0189 9.2872 53.7966 9.2872H50.882V19.3401C50.882 19.3401 50.8573 19.513 50.7832 19.5871C50.7091 19.6612 50.635 19.6859 50.5362 19.6859H48.9059C48.9059 19.6859 48.733 19.6612 48.6836 19.5871C48.6095 19.513 48.5848 19.4389 48.5848 19.3401V9.2872H45.695C45.4727 9.2872 45.3491 9.18839 45.3491 8.99079V7.68169C45.3491 7.68169 45.3738 7.53348 45.4479 7.45938C45.522 7.38528 45.5961 7.3606 45.6702 7.3606H53.7719C53.7719 7.3606 53.9448 7.38528 54.0189 7.45938C54.093 7.50878 54.1177 7.58289 54.1177 7.68169V8.99079ZM62.1205 15.6845C62.1205 16.9442 61.7747 17.9322 61.0584 18.6979C60.3421 19.4389 59.3788 19.8094 58.1685 19.8094C56.9582 19.8094 55.9702 19.4389 55.2539 18.6979C54.5623 17.9569 54.1918 16.9442 54.1918 15.6845V14.3507C54.1918 13.091 54.5376 12.103 55.2539 11.3373C55.9702 10.5963 56.9335 10.2258 58.1685 10.2258C59.4035 10.2258 60.3668 10.5963 61.0584 11.3373C61.7747 12.0783 62.1205 13.091 62.1205 14.3507V15.6845ZM59.9469 15.6845V14.3507C59.9469 13.6344 59.7987 13.091 59.4776 12.6958C59.1565 12.3006 58.7366 12.103 58.1685 12.103C57.6004 12.103 57.1805 12.3006 56.8594 12.6958C56.5383 13.091 56.3901 13.6344 56.3901 14.3507V15.6845C56.3901 16.3761 56.5383 16.9195 56.8594 17.3147C57.1558 17.7099 57.6004 17.9075 58.1685 17.9075C58.7366 17.9075 59.1565 17.7099 59.4776 17.3147C59.7987 16.9195 59.9469 16.3761 59.9469 15.6598V15.6845Z" fill="#5A4499"/>
</svg>
