<svg width="71" height="70" viewBox="0 0 71 70" fill="none" xmlns="http://www.w3.org/2000/svg">
<path d="M6.69689 2.5441H63.9023C66.0265 2.5441 67.7555 4.27309 67.7555 6.3973V63.6027C67.7555 65.7269 66.0265 67.4312 63.927 67.4312H6.72161C4.59741 67.4312 2.86841 65.7022 2.86841 63.578V6.34793C2.86841 4.22372 4.59738 2.51941 6.69689 2.51941V2.5441Z" fill="white"/>
<path d="M6.64735 2.5441C4.52314 2.5441 2.81883 4.27312 2.81883 6.37262V63.578C2.81883 65.7022 4.52314 67.4312 6.64735 67.4312H63.8527C65.9769 67.4312 67.6812 65.7022 67.6812 63.578V6.37262C67.6812 4.24842 65.9522 2.5441 63.8527 2.5441H6.64735ZM63.8527 70H6.64735C3.11524 70 0.25 67.1348 0.25 63.6027V6.39731C0.25 2.8652 3.11524 0 6.64735 0H63.8527C67.3848 0 70.25 2.8652 70.25 6.39731V63.6027C70.25 67.1348 67.3848 70 63.8527 70Z" fill="#5A4499"/>
<path fill-rule="evenodd" clip-rule="evenodd" d="M33.8665 21.1433C33.8665 21.1433 33.8171 21.1433 33.7924 21.1186L25.8884 18.9203L33.4466 22.156C33.4466 22.156 33.5948 22.2054 33.6689 22.2054C33.8912 22.2054 34.0888 22.0819 34.1629 21.8843C34.2123 21.7608 34.2123 21.6126 34.1629 21.4644C34.1135 21.3162 34.0147 21.2174 33.8665 21.168V21.1433ZM33.8665 14.6225C33.99 14.5731 34.1135 14.4496 34.1629 14.3261C34.2123 14.2026 34.2123 14.0544 34.1629 13.9062C34.0888 13.7086 33.8912 13.5851 33.6689 13.5851C33.5948 13.5851 33.5207 13.5851 33.4466 13.6345L25.8884 16.8702L33.7924 14.6719C33.7924 14.6719 33.8171 14.6719 33.8665 14.6719V14.6225ZM29.791 23.4404H28.4325C28.0373 22.7735 27.321 22.3289 26.4812 22.3289H18.5031C17.6633 22.3289 16.947 22.7735 16.5518 23.4404H15.1933C13.9583 23.4404 12.9456 24.4531 12.9456 25.6881V26.1327C12.9456 26.7008 13.1679 27.2195 13.5137 27.6147V55.18C13.1679 55.5752 12.9456 56.0939 12.9456 56.662V57.1066C12.9456 58.3416 13.9583 59.3543 15.1933 59.3543H29.791C31.026 59.3543 32.0387 58.3416 32.0387 57.1066V56.662C32.0387 56.0939 31.8164 55.5752 31.4706 55.18V27.6147C31.8164 27.2195 32.0387 26.7008 32.0387 26.1327V25.6881C32.0387 24.4531 31.026 23.4404 29.791 23.4404ZM19.9851 20.6987H25.0239C25.1721 20.6987 25.3203 20.5752 25.3203 20.4023V19.0685C25.3203 19.0685 25.2215 19.0685 25.1721 19.0685H24.7769C24.2335 19.0685 23.7642 18.6239 23.7642 18.0558V17.6606C23.7642 17.1172 24.2088 16.6479 24.7769 16.6479H25.1721C25.1721 16.6479 25.2709 16.6479 25.3203 16.6479V15.3141C25.3203 15.1659 25.1968 15.0177 25.0239 15.0177H19.9851C19.8369 15.0177 19.6887 15.1412 19.6887 15.3141V20.3529C19.6887 20.5011 19.8122 20.6493 19.9851 20.6493V20.6987ZM23.5913 40.5081C23.5913 41.101 23.0973 41.595 22.5045 41.595C21.9117 41.595 21.4177 41.101 21.4177 40.5081C21.4177 39.9153 21.9117 39.4214 22.5045 39.4214C23.0973 39.4214 23.5913 39.9153 23.5913 40.5081ZM25.2709 34.9754C27.2963 35.9881 28.7042 38.0875 28.7042 40.5081C28.7042 40.6316 28.7042 40.7552 28.7042 40.8787L24.3817 40.6317C24.3817 40.6317 24.3817 40.5575 24.3817 40.5081C24.3817 39.7918 23.9618 39.1496 23.3443 38.8532L25.2956 34.9754H25.2709ZM20.6273 40.5081C20.6273 40.5081 20.6273 40.5823 20.6273 40.607L16.3048 40.8787C16.3048 40.8787 16.3048 40.6316 16.3048 40.5081C16.3048 38.0875 17.7127 35.9881 19.7381 34.9754L21.6894 38.8532C21.0719 39.1496 20.652 39.7918 20.652 40.5081H20.6273ZM22.4798 42.3607C22.8503 42.3607 23.2208 42.2372 23.4925 42.0396L25.8884 45.6705C24.9004 46.3127 23.7395 46.7079 22.4798 46.7079C21.2201 46.7079 20.0345 46.3374 19.0712 45.6705L21.4671 42.0396C21.7635 42.2372 22.1093 42.3607 22.4798 42.3607ZM22.4798 33.6663C26.4318 33.6663 29.6428 36.8773 29.6428 40.8293C29.6428 44.7813 26.4318 47.9923 22.4798 47.9923C18.5278 47.9923 15.3168 44.7813 15.3168 40.8293C15.3168 36.8773 18.5278 33.6663 22.4798 33.6663ZM36.8306 17.4136C36.8306 17.4136 36.7564 17.4136 36.7317 17.4136L25.8143 17.8582L36.5835 15.981C36.5835 15.981 36.7811 15.981 36.8799 15.981C37.1516 16.0551 37.3739 16.2774 37.4233 16.5738C37.448 16.7714 37.4233 16.969 37.2998 17.1172C37.201 17.2654 37.0282 17.3889 36.8306 17.4136Z" fill="#5A4499"/>
<path fill-rule="evenodd" clip-rule="evenodd" d="M45.6983 14.9933C44.2163 14.4005 43.4753 13.2642 43.4753 11.6093V11.4611C43.4753 10.2261 43.8952 9.28752 44.7103 8.67002C45.5254 8.02782 46.711 7.73145 48.2425 7.73145C48.9835 7.73145 49.7492 7.75613 50.4902 7.83023C51.2559 7.90433 51.7005 7.97842 51.824 8.05252C51.9475 8.12662 52.0216 8.27483 52.0216 8.44773V19.8345C52.0216 19.8345 51.9968 20.0074 51.9227 20.0815C51.8486 20.1556 51.7745 20.1803 51.7004 20.1803H50.0455C50.0455 20.1803 49.8727 20.1556 49.8233 20.0815C49.7739 20.0074 49.7244 19.9333 49.7244 19.8345V15.3391C49.0328 15.3885 48.5389 15.4132 48.2425 15.4132H47.9954L45.896 19.3405C45.649 19.7851 45.5007 20.0321 45.4513 20.1062C45.4019 20.1556 45.3525 20.1803 45.2784 20.1803H43.253C43.1295 20.1803 43.0554 20.1062 43.0554 19.9827C43.0554 19.9333 43.0554 19.8839 43.0801 19.8592L45.6736 15.018L45.6983 14.9933ZM45.7477 11.6093C45.7477 12.3009 45.9453 12.795 46.3158 13.0914C46.6863 13.3878 47.3285 13.5359 48.2425 13.5359C48.613 13.5359 49.1069 13.536 49.7244 13.4866V9.75683C49.2551 9.70743 48.7859 9.68273 48.2425 9.68273C47.4026 9.68273 46.7851 9.83093 46.3652 10.1026C45.97 10.3743 45.7477 10.8436 45.7477 11.4611V11.6093ZM61.2347 19.8345C61.2347 19.8345 61.21 20.0074 61.1359 20.0815C61.0618 20.1556 60.9877 20.1803 60.8889 20.1803H59.481C59.481 20.1803 59.3081 20.1556 59.234 20.0815C59.1599 20.0074 59.1352 19.9333 59.1352 19.8345V19.5628C58.3448 20.0568 57.5544 20.3038 56.7887 20.3038C55.8748 20.3038 55.1584 20.0815 54.6644 19.6122C54.1704 19.1429 53.9235 18.4513 53.9235 17.5374V17.4633C53.9235 16.5 54.2446 15.7836 54.8868 15.3143C55.529 14.845 56.5664 14.5981 57.9743 14.5981H59.0117V13.8817C59.0117 13.363 58.8882 13.0173 58.6659 12.8197C58.4436 12.6221 58.0731 12.5233 57.5544 12.5233C57.0357 12.5233 56.5664 12.5232 56.1218 12.5726L54.8621 12.6715H54.788C54.5904 12.6715 54.4916 12.5727 54.4916 12.3998V11.3376C54.4916 11.3376 54.541 11.14 54.6151 11.0659C54.6892 10.9918 55.0597 10.9177 55.7019 10.8436C56.3441 10.7695 56.9616 10.7201 57.5791 10.7201C59.9997 10.7201 61.21 11.7822 61.21 13.8817V19.8345H61.2347ZM59.0611 18.1055V16.08H58.0237C57.3815 16.08 56.9122 16.1788 56.6158 16.3517C56.3194 16.5493 56.1712 16.9199 56.1712 17.4633V17.5374C56.1712 17.9079 56.2453 18.1796 56.4182 18.3278C56.5911 18.476 56.9122 18.5501 57.3568 18.5501C57.9002 18.5501 58.4683 18.4019 59.0364 18.0808L59.0611 18.1055Z" fill="#5A4499"/>
</svg>
