<svg width="71" height="70" viewBox="0 0 71 70" fill="none" xmlns="http://www.w3.org/2000/svg">
<path d="M6.95701 2.56812H64.1421C66.2656 2.56812 67.994 4.29651 67.994 6.41997V63.6052C67.994 65.7286 66.2656 67.4323 64.1669 67.4323H6.98173C4.85827 67.4323 3.12988 65.7039 3.12988 63.5805V6.39528C3.12988 4.27182 4.85825 2.56812 6.95701 2.56812Z" fill="white"/>
<path d="M6.90743 2.5679C4.78397 2.5679 3.0803 4.2963 3.0803 6.39506V63.5802C3.0803 65.7037 4.78397 67.4321 6.90743 67.4321H64.0927C66.2162 67.4321 67.9198 65.7037 67.9198 63.5802V6.39506C67.9198 4.2716 66.1915 2.5679 64.0927 2.5679H6.90743ZM64.0927 70H6.90743C3.37656 70 0.512451 67.1358 0.512451 63.6049V6.39506C0.512451 2.8642 3.37656 0 6.90743 0H64.0927C67.6236 0 70.4877 2.8642 70.4877 6.39506V63.5802C70.4877 67.1111 67.6236 69.9753 64.0927 69.9753" fill="#5A4499"/>
<path fill-rule="evenodd" clip-rule="evenodd" d="M40.3147 32.2718C38.8579 32.2718 37.6727 31.0866 37.6727 29.6298C37.6727 28.173 40.3147 24.7903 40.3147 24.7903C40.3147 24.7903 42.9567 28.173 42.9567 29.6298C42.9567 31.0866 41.7715 32.2718 40.3147 32.2718ZM11.8455 31.5805C12.29 32.4693 13.3765 32.815 14.2407 32.3706L31.6727 23.5805L26.5122 22.173L12.6357 29.1607C11.7468 29.6051 11.4011 30.6916 11.8455 31.5558V31.5805ZM11.7962 27.5064C9.99376 28.42 9.27765 30.5928 10.1912 32.3953C11.1048 34.1977 13.2776 34.9138 15.0801 34.0002L37.8209 22.5434L37.969 22.8397C38.2653 23.457 39.0307 23.7039 39.6233 23.3829C40.2406 23.0866 40.4876 22.3212 40.1666 21.7286L36.5863 14.5928C36.29 13.9755 35.5246 13.7286 34.932 14.0496C34.3147 14.3459 34.0677 15.1113 34.3887 15.7039L34.5369 16.0002L11.7962 27.457V27.5064ZM47.7714 48.9879L35.6974 46.2965L35.5246 47.0866L51.0801 50.5681C52.29 50.8397 53.0307 52.0249 52.7591 53.2348C52.4875 54.4446 51.3023 55.1854 50.0924 54.9138L34.5369 51.4323L34.364 52.2224L46.4381 54.9138C47.648 55.1854 48.3887 56.3706 48.1171 57.5804C47.8455 58.7903 46.6603 59.5311 45.4504 59.2595L33.3765 56.5681L33.2036 57.3582L41.6233 59.2348C42.8332 59.5064 43.5739 60.6916 43.3023 61.9014C43.0307 63.1113 41.8456 63.8521 40.6357 63.5804L18.9072 58.7409L9.1788 55.136C9.1788 55.136 9.05548 55.0866 9.0061 55.0372C8.95671 54.9879 8.95667 54.9138 8.95667 54.8397L11.2529 41.0619C11.2529 41.0619 11.3023 40.9385 11.3764 40.8891C11.4258 40.8644 11.4999 40.8397 11.5739 40.8891C11.5739 40.8891 19.5492 39.8767 22.5122 39.5558C25.4752 39.2348 35.9196 35.4076 35.9196 35.4076C37.6974 34.7903 38.8085 35.4076 39.4999 36.7163C39.7468 37.1854 39.8209 37.6545 39.7222 38.099C39.7222 38.1977 39.6727 38.2965 39.6233 38.3953C39.4011 38.9138 38.9567 39.4076 38.3394 39.7286L34.9073 41.5805L48.685 44.6669C49.8949 44.9385 50.6357 46.1237 50.3641 47.3335C50.0925 48.5434 48.9073 49.2842 47.6974 49.0126L47.7714 48.9879ZM30.4875 47.0372C31.7467 47.0372 32.7592 46.0249 32.7592 44.7656C32.7592 43.5064 30.4875 40.5928 30.4875 40.5928C30.4875 40.5928 28.2159 43.5064 28.2159 44.7656C28.2159 46.0249 29.2282 47.0372 30.4875 47.0372Z" fill="#5A4499"/>
<path fill-rule="evenodd" clip-rule="evenodd" d="M50.2903 12.5676L54.5619 18.5676C54.5619 18.5676 54.6607 18.7157 54.6607 18.7651C54.6607 18.8639 54.5866 18.9133 54.4137 18.9133H52.1916C52.0188 18.9133 51.8952 18.8639 51.8212 18.7404L48.0187 13.0861V18.5923C48.0187 18.5923 47.994 18.7651 47.9199 18.8392C47.8458 18.9133 47.7718 18.938 47.673 18.938H46.0435C46.0435 18.938 45.8705 18.9133 45.7965 18.8392C45.7224 18.7651 45.6978 18.6911 45.6978 18.5923V6.93796C45.6978 6.93796 45.7224 6.78982 45.7965 6.71574C45.8458 6.64167 45.9447 6.61698 46.0435 6.61698H47.673C47.673 6.61698 47.8458 6.64167 47.9199 6.71574C47.994 6.76512 48.0187 6.8392 48.0187 6.93796V12.1972L52.0682 6.74043C52.0682 6.74043 52.2656 6.59229 52.4384 6.59229H54.3397C54.5373 6.59229 54.6607 6.66636 54.6607 6.78982C54.6607 6.86389 54.6114 6.96266 54.5373 7.06142L50.2903 12.5429V12.5676ZM60.2903 13.9997L62.5126 17.012C63.278 18.0738 63.673 18.5923 63.6977 18.617C63.6977 18.6417 63.6977 18.6664 63.6977 18.6911C63.6977 18.8145 63.6237 18.8886 63.4756 18.8886H61.4509C61.278 18.8886 61.0804 18.7404 60.8828 18.4688L58.3644 14.7898V18.5429C58.3644 18.5429 58.3396 18.7157 58.2656 18.7898C58.1915 18.8639 58.1175 18.8886 58.0187 18.8886H56.4879C56.4879 18.8886 56.315 18.8639 56.2656 18.7898C56.1915 18.7157 56.1669 18.6417 56.1669 18.5429V9.87624C56.1669 9.87624 56.1915 9.7034 56.2656 9.62932C56.3397 9.55525 56.4138 9.53056 56.5126 9.53056H58.0434C58.0434 9.53056 58.2162 9.55525 58.2903 9.62932C58.3644 9.7034 58.3891 9.77747 58.3891 9.87624V13.5059L60.1669 11.1355C60.8582 10.1972 61.2286 9.72809 61.2533 9.6787C61.278 9.65401 61.3273 9.60463 61.4014 9.57994C61.4755 9.55525 61.5249 9.53056 61.599 9.53056H63.4508C63.6237 9.53056 63.6977 9.57994 63.6977 9.7034C63.6977 9.75278 63.6978 9.80216 63.6484 9.82685L60.2903 13.9503V13.9997Z" fill="#5A4499"/>
</svg>
