<svg width="71" height="70" viewBox="0 0 71 70" fill="none" xmlns="http://www.w3.org/2000/svg">
<path d="M7.19689 2.54424H64.4022C66.5264 2.54424 68.2554 4.27324 68.2554 6.39744V63.6028C68.2554 65.727 66.5264 67.4313 64.4269 67.4313H7.22161C5.09741 67.4313 3.36841 65.7023 3.36841 63.5781V6.34805C3.36841 4.22384 5.09738 2.51953 7.19689 2.51953V2.54424Z" fill="white"/>
<path d="M7.14723 2.5441C5.02303 2.5441 3.31875 4.27312 3.31875 6.37262V63.578C3.31875 65.7022 5.02303 67.4312 7.14723 67.4312H64.3527C66.4769 67.4312 68.1812 65.7022 68.1812 63.578V6.37262C68.1812 4.24842 66.4522 2.5441 64.3527 2.5441H7.14723ZM64.3527 70H7.14723C3.61512 70 0.75 67.1348 0.75 63.6027V6.39731C0.75 2.8652 3.61512 0 7.14723 0H64.3527C67.8848 0 70.7499 2.8652 70.7499 6.39731V63.6027C70.7499 67.1348 67.8848 70 64.3527 70Z" fill="#5A4499"/>
<path fill-rule="evenodd" clip-rule="evenodd" d="M28.7351 45.8684C28.6362 45.5967 28.5621 45.4238 28.5621 45.4238C28.5621 45.4238 25.9439 47.3751 25.6475 48.4619C25.3511 49.524 25.9688 50.6108 27.0062 50.9319C26.3887 53.5254 25.8945 56.44 26.4132 57.922C27.4506 61.0095 30.8099 62.6644 33.8974 61.627C36.9849 60.5896 38.6398 57.2304 37.6024 54.1429C36.6638 51.3518 30.0195 46.7576 28.7351 45.8931V45.8684ZM11.8156 48.5113C10.7288 48.4619 9.88893 47.5233 9.93833 46.4365C9.98773 45.3497 10.9264 44.5099 12.0132 44.5593L24.5114 45.1768L22.0167 42.7809C21.5721 42.361 21.3004 41.8422 21.2263 41.3482C21.2263 41.2494 21.2263 41.1506 21.2263 41.0765C21.2263 40.6566 21.4239 40.2861 21.745 39.9403C22.6342 39.0017 23.7457 38.73 25.1289 39.6686C25.1289 39.6686 33.1564 45.3744 35.6017 46.3624C38.0718 47.3504 44.6172 50.0921 44.6172 50.0921C44.6666 50.0921 44.7407 50.0921 44.7901 50.1662C44.8395 50.2156 44.8643 50.265 44.8643 50.3391L43.5798 62.6397C43.5798 62.6397 43.5552 62.7632 43.5058 62.7879C43.4564 62.8373 43.407 62.8373 43.3329 62.8373L34.1691 63.6277L14.4585 62.6397C13.3717 62.5903 12.5319 61.6517 12.5813 60.5649C12.6307 59.4781 13.5693 58.6383 14.6561 58.6877L22.3131 59.0582V58.3419L11.3957 57.7985C10.3089 57.7491 9.46907 56.8105 9.51847 55.7237C9.56787 54.6369 10.5064 53.7971 11.5932 53.8465L22.5355 54.3899V53.6736L8.48111 52.982C7.39431 52.9326 6.55448 51.994 6.60388 50.9072C6.65328 49.8204 7.5918 48.9806 8.6786 49.03L22.7824 49.7216V49.0053L11.865 48.4619L11.8156 48.5113ZM58.0788 36.5317L37.059 25.9354L37.2072 25.6637C37.4789 25.0956 37.2567 24.404 36.6886 24.1323C36.1205 23.8359 35.4289 24.0829 35.1572 24.651L31.8473 31.2459C31.5756 31.814 31.7979 32.5056 32.366 32.7773C32.9341 33.049 33.6257 32.8267 33.8974 32.2586L34.0456 31.9869L55.0654 42.5833C56.7203 43.4231 58.7458 42.7561 59.5856 41.0765C60.4254 39.4216 59.7584 37.3962 58.0788 36.5564V36.5317ZM58.054 40.2861C58.4739 39.471 58.1282 38.4831 57.3131 38.0632L44.469 31.5917L39.6772 32.9008L55.8064 41.0272C56.6215 41.4471 57.6096 41.1012 58.0295 40.2861H58.054ZM31.7238 40.9283C33.0576 40.9283 34.1691 39.8416 34.1691 38.483C34.1691 37.1245 31.7238 33.9876 31.7238 33.9876C31.7238 33.9876 29.2785 37.1245 29.2785 38.483C29.2785 39.8416 30.3653 40.9283 31.7238 40.9283Z" fill="#5A4499"/>
<path fill-rule="evenodd" clip-rule="evenodd" d="M38.3932 12.9677L42.6663 18.9698C42.6663 18.9698 42.7651 19.118 42.7651 19.1674C42.7651 19.2662 42.691 19.3156 42.5181 19.3156H40.2951C40.1222 19.3156 39.9987 19.2662 39.9246 19.1427L36.1209 13.4864V18.9945C36.1209 18.9945 36.0961 19.1674 36.022 19.2415C35.9479 19.3156 35.8738 19.3403 35.775 19.3403H34.1448C34.1448 19.3403 33.9719 19.3156 33.8978 19.2415C33.8237 19.1674 33.7991 19.0933 33.7991 18.9945V7.33605C33.7991 7.33605 33.8237 7.18784 33.8978 7.11374C33.9472 7.03964 34.046 7.01494 34.1448 7.01494H35.775C35.775 7.01494 35.9479 7.03964 36.022 7.11374C36.0961 7.16314 36.1209 7.23725 36.1209 7.33605V12.5972L40.1716 7.13845C40.1716 7.13845 40.3692 6.99025 40.5421 6.99025H42.4441C42.6664 6.99025 42.7651 7.06436 42.7651 7.18786C42.7651 7.26196 42.7157 7.36074 42.6416 7.45954L38.3932 12.943V12.9677ZM46.4455 17.4137H51.9041C52.1264 17.4137 52.25 17.5125 52.25 17.7101V18.9698C52.25 18.9698 52.2253 19.1427 52.1512 19.2168C52.0771 19.2909 52.0029 19.3156 51.9041 19.3156H44.8894C44.8894 19.3156 44.7164 19.2909 44.667 19.2168C44.6176 19.1427 44.5683 19.0686 44.5683 18.9698V17.3396C44.5683 16.7962 44.6671 16.2775 44.8647 15.7341C45.0623 15.2154 45.3586 14.6967 45.7291 14.2274C46.1243 13.7581 46.5689 13.3382 47.0876 12.9924L48.7179 11.9056C49.4095 11.4363 49.8294 11.0905 50.0023 10.8682C50.1505 10.6459 50.2493 10.3248 50.2493 9.88016C50.2493 9.43556 50.1011 9.11446 49.8047 8.91686C49.5083 8.74396 49.0142 8.64515 48.3226 8.64515C47.878 8.64515 47.3594 8.66985 46.7419 8.71925L45.0129 8.89215H44.9881C44.7905 8.89215 44.6917 8.79336 44.6917 8.57106V7.58305C44.6917 7.45955 44.7658 7.36074 44.9387 7.28664C45.1116 7.21254 45.5563 7.13844 46.2726 7.01494C46.9889 6.91614 47.6804 6.84204 48.3226 6.84204C49.7305 6.84204 50.7679 7.08904 51.4101 7.55835C52.077 8.02765 52.3981 8.81806 52.3981 9.88016C52.3981 10.5224 52.2499 11.0905 51.9288 11.5845C51.6077 12.0785 51.089 12.5972 50.348 13.0912L48.7673 14.1533C47.9275 14.7214 47.3346 15.2401 46.9888 15.7094C46.6677 16.1787 46.4948 16.7221 46.4948 17.3396V17.4137H46.4455ZM63.1673 13.7581C63.1673 15.66 62.8216 17.0926 62.1053 18.0312C61.389 18.9698 60.3021 19.4391 58.8448 19.4391C57.3875 19.4391 56.3007 18.9698 55.5844 18.0312C54.8681 17.0926 54.5223 15.6847 54.5223 13.7581V12.5231C54.5223 10.6212 54.8681 9.18855 55.5844 8.24994C56.3007 7.31134 57.3875 6.84204 58.8448 6.84204C60.3021 6.84204 61.389 7.31134 62.1053 8.24994C62.8216 9.18855 63.1673 10.6212 63.1673 12.5231V13.7581ZM60.8703 13.7581V12.5231C60.8703 11.2387 60.722 10.3001 60.3762 9.65787C60.0551 9.01566 59.5364 8.71925 58.8448 8.71925C58.1532 8.71925 57.6345 9.04036 57.3134 9.65787C56.9923 10.3001 56.8194 11.2387 56.8194 12.5231V13.7581C56.8194 15.0425 56.9923 15.9811 57.3134 16.5986C57.6345 17.2161 58.1532 17.5372 58.8448 17.5372C59.5364 17.5372 60.0551 17.2161 60.3762 16.5986C60.6973 15.9811 60.8455 15.0178 60.8455 13.7581H60.8703Z" fill="#5A4499"/>
</svg>
