<svg width="70" height="70" viewBox="0 0 70 70" fill="none" xmlns="http://www.w3.org/2000/svg">
<path d="M6.41994 2.56812H63.6051C65.7286 2.56812 67.457 4.29651 67.457 6.41997V63.6052C67.457 65.7286 65.7286 67.4323 63.6298 67.4323H6.44464C4.32118 67.4323 2.59277 65.7039 2.59277 63.5805V6.39528C2.59277 4.27182 4.32118 2.56812 6.41994 2.56812Z" fill="white"/>
<path d="M63.6049 0H6.39505C2.86419 0 0 2.8642 0 6.39506V63.6049C0 67.1358 2.86419 70 6.39505 70H63.6049C67.1358 70 70 67.1358 70 63.6049V6.39506C70 2.8642 67.1358 0 63.6049 0ZM67.4321 63.6049C67.4321 65.7284 65.7037 67.4321 63.6049 67.4321H6.39505C4.2716 67.4321 2.5679 65.7037 2.5679 63.6049V6.39506C2.5679 4.2716 4.29629 2.5679 6.39505 2.5679H63.6049C65.7284 2.5679 67.4321 4.2963 67.4321 6.39506V63.6049Z" fill="#5A4499"/>
<path d="M60.7156 11.9998C61.0613 12.4195 61.2589 13.0368 61.2589 13.8269V20.543C61.2589 20.543 61.2342 20.7158 61.1601 20.7899C61.086 20.864 61.0119 20.8887 60.9132 20.8887H59.3576C59.3576 20.8887 59.1848 20.864 59.1107 20.7899C59.0366 20.7158 59.012 20.6418 59.012 20.543V13.8516C59.012 13.6294 58.9873 13.4813 58.9132 13.3825C58.8391 13.2837 58.691 13.2343 58.4687 13.2343H56.2218C55.9996 13.2343 55.8268 13.2837 55.7774 13.3825C55.7033 13.4813 55.6786 13.6541 55.6786 13.8516V20.543C55.6786 20.543 55.6539 20.7158 55.5798 20.7899C55.5058 20.864 55.4317 20.8887 55.3329 20.8887H53.8021C53.8021 20.8887 53.6292 20.864 53.5798 20.7899C53.5058 20.7158 53.4811 20.6418 53.4811 20.543V13.8269C53.4811 13.0368 53.6539 12.4442 53.9996 11.9998C54.37 11.58 55.1107 11.3578 56.2218 11.3578H58.4687C59.6045 11.3578 60.3453 11.58 60.7156 11.9998ZM52.9873 8.44422C52.9873 8.44422 53.086 8.59237 53.086 8.66645V9.99978C53.086 10.1973 52.9626 10.2961 52.7403 10.2961H49.7774V20.5183C49.7774 20.5183 49.7527 20.6911 49.6786 20.7652C49.6045 20.8393 49.5305 20.864 49.4317 20.864H47.7774C47.7774 20.864 47.6045 20.8393 47.5305 20.7652C47.4811 20.6911 47.4317 20.6171 47.4317 20.5183V10.2961H44.4687C44.2465 10.2961 44.123 10.1973 44.123 9.99978V8.66645C44.123 8.66645 44.1477 8.49361 44.2218 8.44422C44.2959 8.37015 44.37 8.34546 44.4687 8.34546H52.7156C52.7156 8.34546 52.8885 8.37015 52.9626 8.44422H52.9873Z" fill="#5A4499"/>
<path d="M23.7775 27.6787C23.3824 28.0737 22.7898 28.2466 22.0244 28.2466C21.654 28.2466 21.2836 28.2219 20.8886 28.1478C20.4935 28.0737 20.2713 28.0243 20.1972 27.9996C20.1231 27.9503 20.0985 27.9009 20.0985 27.8268V27.2836C20.0985 27.2836 20.1478 27.1354 20.2713 27.1354C20.9627 27.2095 21.5305 27.2589 22.0244 27.2589C22.3947 27.2589 22.6663 27.1601 22.8639 26.9873C23.0367 26.7898 23.1355 26.4688 23.1355 26.0243V25.975C23.1355 25.6046 23.012 25.333 22.7651 25.1848C22.5182 25.0367 22.0985 24.9626 21.5059 24.9626H20.2713C20.2713 24.9626 20.2219 24.9626 20.1972 24.9132C20.1972 24.8885 20.1725 24.8638 20.1725 24.8391L20.4688 21.5552C20.4688 21.5058 20.4935 21.4564 20.5429 21.4317C20.5676 21.4071 20.617 21.3824 20.6663 21.3824H23.9997C23.9997 21.3824 24.0984 21.3824 24.1231 21.4317C24.1725 21.4564 24.1725 21.5058 24.1725 21.5552V22.2712C24.1725 22.2712 24.1725 22.37 24.1231 22.3947C24.0984 22.4441 24.0491 22.4441 23.9997 22.4441H21.5059L21.3824 23.975H21.5306C22.5676 23.975 23.3083 24.1478 23.7528 24.4935C24.1972 24.8391 24.4194 25.333 24.4194 26.0243V26.0737C24.4194 26.7898 24.2219 27.3577 23.8022 27.7527L23.7775 27.6787ZM18.7651 25.5305H18.0985V21.5305C18.0985 21.5305 18.0984 21.4317 18.0491 21.407C18.0244 21.3824 17.975 21.3577 17.9256 21.3577H17.0861C17.0861 21.3577 16.8886 21.4071 16.8145 21.5305L13.975 25.333C13.975 25.333 13.8762 25.5305 13.8762 25.6293V26.37C13.8762 26.37 13.8762 26.4688 13.9256 26.4935C13.9503 26.5429 13.9997 26.5429 14.0491 26.5429H16.8145V27.9996C16.8145 27.9996 16.8639 28.1725 16.9626 28.1725H17.9256C17.9256 28.1725 18.0985 28.1231 18.0985 27.9996V26.5429H18.7651C18.7651 26.5429 18.8639 26.5429 18.8886 26.4935C18.9133 26.4688 18.938 26.4194 18.938 26.37V25.728C18.938 25.728 18.938 25.6293 18.8886 25.6046C18.8392 25.5799 18.8145 25.5552 18.7651 25.5552V25.5305ZM16.8145 25.5305H15.1602C15.1602 25.5305 15.0861 25.5305 15.0861 25.4811C15.0861 25.4811 15.0861 25.4564 15.1108 25.4317L16.7157 23.1848L16.7651 23.1354C16.7651 23.1354 16.7898 23.1354 16.7898 23.1848V25.5305H16.8145Z" fill="#5A4499"/>
<path d="M40.42 42.469V20.1727C40.42 17.5308 38.5682 15.3085 36.0991 14.7653C35.704 14.6666 35.2842 14.6172 34.8645 14.6172C33.9015 14.6172 32.9879 14.8641 32.2225 15.2839C30.4941 16.2221 29.3089 18.0493 29.3089 20.1727V24.395H31.2596V25.2098H29.3089V32.2715H31.4077V33.0863H29.3089V40.1481H31.2596V40.9629H29.3089V42.6419C28.0003 43.4814 26.8892 44.5925 26.0497 45.9011C24.9633 47.5555 24.3213 49.5308 24.3213 51.6789C24.3213 57.5802 29.1114 62.3703 35.0127 62.3703C35.7534 62.3703 36.4941 62.2962 37.1855 62.1481C42.0497 61.1357 45.704 56.8394 45.704 51.6789C45.704 47.753 43.5805 44.3209 40.42 42.469ZM35.0127 58.2962C31.3089 58.2962 28.2966 55.2839 28.2966 51.5801C28.2966 51.4073 28.2966 51.2345 28.346 51.0369C28.4447 49.7777 28.8892 48.6666 29.6052 47.8024C30.3213 46.9135 31.2842 46.2468 32.3954 45.9011V22.1974C32.3954 20.2715 32.988 18.716 34.9139 18.716C36.8398 18.716 37.4324 20.2715 37.4324 22.1974V45.8024C40.0744 46.4937 41.4818 48.7653 41.6793 51.0616C41.6793 51.2345 41.704 51.4073 41.704 51.5801C41.704 55.2839 38.6917 58.2962 34.988 58.2962H35.0127ZM40.2225 50.8394C40.2966 51.1604 40.3213 51.5061 40.3213 51.8518C40.3213 54.8147 37.9262 57.2098 34.9633 57.2098C32.0003 57.2098 29.6052 54.8147 29.6052 51.8518C29.6052 49.4814 31.1608 47.4567 33.3089 46.7406V22.1974C33.3089 19.6048 34.4448 19.6048 34.9386 19.6048C35.4324 19.6048 36.5682 19.6048 36.5682 22.1974V46.7406C38.2966 47.2839 39.6546 48.6913 40.1484 50.469C40.1978 50.5678 40.2225 50.6419 40.2225 50.7406C40.2225 50.7653 40.2225 50.8147 40.2225 50.8394ZM29.3089 25.2098H25.704V24.395H29.3089V25.2098ZM27.3336 32.2715H29.3089V33.0863H27.3336V32.2715ZM25.704 40.1481H29.3089V40.9629H25.704V40.1481Z" fill="#5A4499"/>
</svg>
