<svg width="71" height="70" viewBox="0 0 71 70" fill="none" xmlns="http://www.w3.org/2000/svg">
<path d="M6.64737 2.54418H63.8527C65.9769 2.54418 67.706 4.27318 67.706 6.39739V63.6028C67.706 65.727 65.9769 67.4313 63.8774 67.4313H6.67207C4.54787 67.4313 2.81885 65.7023 2.81885 63.5781V6.34801C2.81885 4.22381 4.54786 2.51953 6.64737 2.51953V2.54418Z" fill="white"/>
<path d="M6.64733 2.5441C4.52312 2.5441 2.81881 4.27316 2.81881 6.37266V63.578C2.81881 65.7022 4.54782 67.4065 6.64733 67.4065H63.8527C65.9769 67.4065 67.6812 65.6776 67.6812 63.578V6.37266C67.6812 4.24846 65.9522 2.5441 63.8527 2.5441H6.64733ZM63.8527 70H6.64733C3.11522 70 0.25 67.1348 0.25 63.6027V6.39731C0.25 2.8652 3.11522 0 6.64733 0H63.8527C67.3848 0 70.25 2.8652 70.25 6.39731V63.6027C70.25 67.1348 67.3848 70 63.8527 70Z" fill="#5A4499"/>
<path fill-rule="evenodd" clip-rule="evenodd" d="M54.3926 41.1997C55.3065 38.705 54.0221 35.9386 51.5521 35.0247C49.0573 34.1108 46.2909 35.3705 45.377 37.8652C45.1053 38.5815 45.4758 39.3719 46.1921 39.6189C46.9084 39.8906 47.6988 39.5201 47.9458 38.8038C48.341 37.7417 49.5266 37.1982 50.5888 37.5934C51.6509 37.9886 52.1943 39.1743 51.799 40.2364C51.2803 41.6443 49.6995 42.3853 48.2916 41.8666L28.3587 34.5059C27.6424 34.2342 26.852 34.6048 26.605 35.3211C26.3333 36.0374 26.7038 36.8278 27.4201 37.0748L47.353 44.4107C50.1936 45.4481 53.3305 43.9908 54.3926 41.1503V41.1997ZM29.0256 31.7643C28.4822 31.5667 28.2105 30.9738 28.4081 30.4304C28.6057 29.887 29.1985 29.6153 29.7172 29.8129L36.8555 32.4559C38.1893 32.9499 39.696 32.2582 40.19 30.8997C40.5605 29.8623 40.0418 28.7014 39.0044 28.3309C37.967 27.9604 36.8061 28.4791 36.4356 29.5165C36.238 30.0599 35.6452 30.3316 35.1265 30.134C34.5831 29.9364 34.3114 29.3436 34.509 28.8249C35.2747 26.7254 37.6212 25.6386 39.7207 26.429C41.8202 27.1947 42.907 29.5412 42.1166 31.6407C41.2274 34.0613 38.5351 35.2964 36.1392 34.4072L29.0009 31.7643H29.0256ZM50.3911 48.1157C53.2317 49.1531 54.689 52.3147 53.6269 55.1552C52.7129 57.6499 49.9465 58.9096 47.4518 57.9957C44.9571 57.0818 43.6974 54.3154 44.6113 51.8207C44.883 51.1044 45.6487 50.7586 46.365 51.0056C47.0813 51.2526 47.4271 52.0677 47.1801 52.7593C46.7849 53.8214 47.3283 55.007 48.3904 55.4022C49.4525 55.7974 50.6382 55.254 51.0334 54.1919C51.5521 52.784 50.8357 51.2032 49.4031 50.6845L39.6713 47.103C38.708 45.8433 37.4236 44.2131 36.485 43.0028L50.3664 48.1157H50.3911ZM26.358 31.4679L25.4688 30.8256L22.7765 31.9618L22.9494 30.134L22.3072 29.6895L21.6403 30.0105L21.3686 32.8757L19.5408 33.6168L19.7137 31.6407L17.8612 32.4559L18.0341 30.628L20.8005 29.5413L20.8746 28.652L19.9854 28.0592L18.1822 28.8002L18.4292 26.0338L17.6388 25.3669L16.725 25.8856L16.478 28.652L15.07 27.6147L14.3043 28.0098L14.2055 28.9979L16.305 30.4798L16.1321 32.3077L14.4772 31.1961L14.3043 33.1227L12.7729 32.0359L13.0693 29.3436L12.2542 28.7508L11.5626 29.1954L11.3897 30.9491L9.04323 29.3436L7.98112 29.7141L7.88232 30.8256L10.2041 32.3818L8.54921 33.1227L8.45043 34.1107L9.31493 34.6295L11.7108 33.5179L13.2175 34.5554L11.5379 35.3952L13.0693 36.482H13.1187L11.4391 37.2723L9.26552 35.6916L8.27751 36.1114L8.17873 37.1489L9.73483 38.0627L7.11662 39.2484L7.01782 40.3598L8.05522 40.8786L10.624 39.7423L10.4511 41.4961L10.9945 42.0148L11.7602 41.5702L12.0072 38.9273L13.835 38.1863L13.6621 40.1129L15.5146 39.1989L15.3417 41.0268L12.9952 42.1136L12.8964 43.1016L13.588 43.645L15.1688 42.8793L14.9218 45.6457L15.7122 46.3126L16.6261 45.7939L16.8731 43.0275L18.281 44.0648L19.0467 43.7438L19.1455 42.6816L17.046 41.1997L17.2189 39.3718L18.8738 40.508L19.0467 38.705L20.7017 39.8164L20.4546 42.4594L21.0969 43.0028L21.7885 42.5829L21.9614 40.8291L24.2338 42.3853L25.3947 42.0148L25.4935 40.9527L23.3199 39.3225L24.8513 38.6555L24.9501 37.717L24.1844 37.1241L21.7144 38.1863L20.1336 37.1736L21.8379 36.3832L20.3806 35.247L22.0602 34.3577L24.2832 35.9386L25.123 35.5927L25.2218 34.6047L23.7645 33.6168L26.2839 32.4805L26.3827 31.4431L26.358 31.4679ZM17.4166 37.2229L15.8851 37.0748L15.1935 35.7163L16.0827 34.4318L17.6142 34.58L18.207 36.0127L17.3918 37.2229H17.4166ZM38.708 48.5603L38.6092 49.5977L36.0898 50.7339L37.5471 51.7219L37.4483 52.7099L36.6085 53.0557L34.3855 51.4749L32.7059 52.3641L34.1632 53.5003L32.4589 54.2907L34.0397 55.3034L36.5097 54.2413L37.2754 54.8341L37.1766 55.7727L35.6452 56.4396L37.8188 58.0698L37.72 59.1319L36.5591 59.5024L34.2867 57.9463L34.1138 59.7L33.4222 60.1199L32.78 59.5765L33.027 56.9336L31.3721 55.8221L31.1992 57.6252L29.5443 56.489L29.3714 58.3168L31.4709 59.7989L31.3721 60.8609L30.6064 61.1821L29.1985 60.1446L28.9515 62.911L28.0376 63.4298L27.2472 62.7628L27.4942 59.9964L25.9134 60.7621L25.2218 60.2187L25.3206 59.2307L27.6671 58.1439L27.84 56.3161L25.9875 57.23L26.1604 55.3034L24.3326 56.0444L24.0856 58.6873L23.3199 59.1319L22.7765 58.6132L22.9494 56.8595L20.3806 57.9957L19.3432 57.477L19.442 56.3655L22.0602 55.1799L20.5041 54.266L20.6029 53.2286L21.5909 52.8087L23.7645 54.3895L25.4441 53.5991H25.3947L23.8633 52.5123L25.5429 51.6725L24.0362 50.6351L21.6403 51.7466L20.7758 51.2279L20.8746 50.2399L22.5295 49.4989L20.2077 47.9428L20.3065 46.8313L21.3686 46.4608L23.7151 48.0663L23.888 46.3126L24.5796 45.868L25.3947 46.4608L25.0983 49.1531L26.6297 50.2399L26.8026 48.3133L28.4575 49.4248L28.6304 47.597L26.5309 46.115L26.6297 45.127L27.3954 44.7318L28.8033 45.7692L29.0503 43.0028L29.9642 42.4841L30.7546 43.151L30.5076 45.9173L32.3107 45.1764L33.1999 45.7692L33.1258 46.6584L30.3594 47.7452L30.1865 49.573L32.039 48.7579L31.8661 50.7339L33.6939 49.9929L33.9656 47.1277L34.6325 46.8066L35.2747 47.2512L35.1018 49.079L37.7941 47.9428L38.6833 48.585L38.708 48.5603ZM29.7666 54.3154L30.5817 53.1051L29.9889 51.6725L28.4575 51.5243L27.5683 52.8087L28.2599 54.1672L29.7913 54.3154H29.7666Z" fill="#5A4499"/>
<path fill-rule="evenodd" clip-rule="evenodd" d="M43.1047 9.41049C43.1047 9.60809 43.0059 9.70695 42.7836 9.70695H39.869V19.7598C39.869 19.7598 39.8443 19.9327 39.7702 20.0068C39.6961 20.0809 39.622 20.1057 39.5232 20.1057H37.893C37.893 20.1057 37.7201 20.0809 37.6707 20.0068C37.5966 19.9327 37.5719 19.8586 37.5719 19.7598V9.70695H34.682C34.4597 9.70695 34.3362 9.60809 34.3362 9.41049V8.10139C34.3362 8.10139 34.3609 7.9532 34.435 7.87909C34.5091 7.80499 34.5832 7.78027 34.6573 7.78027H42.7589C42.7589 7.78027 42.9318 7.80499 43.0059 7.87909C43.08 7.92849 43.1047 8.00259 43.1047 8.10139V9.41049ZM46.044 19.7352C46.044 19.7352 46.0193 19.908 45.9452 19.9821C45.8711 20.0562 45.797 20.0809 45.6982 20.0809H44.1668C44.1668 20.0809 43.9939 20.0562 43.9445 19.9821C43.8704 19.908 43.8457 19.834 43.8457 19.7352V11.0901C43.8457 11.0901 43.8704 10.9172 43.9445 10.8431C44.0186 10.769 44.0927 10.7443 44.1668 10.7443H45.6982C45.6982 10.7443 45.8711 10.769 45.9452 10.8431C46.0193 10.9172 46.044 10.9913 46.044 11.0901V14.4493H49.3291V11.0901C49.3291 11.0901 49.3538 10.9172 49.4279 10.8431C49.502 10.769 49.5761 10.7443 49.6749 10.7443H51.2063C51.2063 10.7443 51.3792 10.769 51.4533 10.8431C51.5274 10.9172 51.5521 10.9913 51.5521 11.0901V19.7352C51.5521 19.7352 51.5274 19.908 51.4533 19.9821C51.3792 20.0562 51.3051 20.0809 51.2063 20.0809H49.6749C49.6749 20.0809 49.502 20.0562 49.4279 19.9821C49.3538 19.908 49.3291 19.834 49.3291 19.7352V16.0795H46.044V19.7352ZM61.4816 17.4627C61.4816 18.426 61.1111 19.1177 60.4195 19.5623C59.7032 20.0069 58.5176 20.2045 56.8627 20.2045C56.1711 20.2045 55.5288 20.2044 54.9607 20.1303C54.3926 20.0809 54.0468 20.0068 53.8986 19.908C53.7504 19.8092 53.6763 19.6363 53.6763 19.3646V11.3865C53.6763 11.1889 53.7257 11.016 53.8245 10.9172C53.9233 10.7937 54.2691 10.7196 54.8619 10.6702C55.4547 10.6208 56.0969 10.5961 56.7391 10.5961C58.567 10.5961 59.802 10.8184 60.4442 11.2383C61.0864 11.6582 61.4075 12.3251 61.4075 13.239V13.3378C61.4075 13.7577 61.284 14.1282 61.0617 14.474C60.8147 14.8198 60.4936 15.0668 60.049 15.215C61.0123 15.5361 61.4816 16.2277 61.4816 17.3145V17.4134V17.4627ZM59.2833 13.3872V13.2884C59.2833 12.8191 59.1351 12.5474 58.814 12.4239C58.4929 12.3251 57.9742 12.2511 57.2332 12.2511C56.7145 12.2511 56.2698 12.251 55.8499 12.2757V14.5234H57.3073C57.9248 14.5234 58.4188 14.4493 58.7646 14.3011C59.1104 14.1529 59.2833 13.8565 59.2833 13.3872ZM59.3573 17.2898V17.1911C59.3573 16.6724 59.1845 16.3512 58.8634 16.203C58.5176 16.0548 58.0236 15.9807 57.3073 15.9807H55.8499V18.5743C56.171 18.5743 56.4922 18.5743 56.8627 18.5743C57.8013 18.5743 58.4435 18.4754 58.814 18.3025C59.1845 18.1296 59.3573 17.7838 59.3573 17.2898Z" fill="#5A4499"/>
</svg>
