<svg width="71" height="70" viewBox="0 0 71 70" fill="none" xmlns="http://www.w3.org/2000/svg">
<path d="M6.90773 2.56812H64.0929C66.2163 2.56812 67.9447 4.29651 67.9447 6.41997V63.6052C67.9447 65.7286 66.2164 67.4323 64.1176 67.4323H6.93241C4.80896 67.4323 3.08057 65.7039 3.08057 63.5805V6.39528C3.08057 4.27182 4.80897 2.56812 6.90773 2.56812Z" fill="white"/>
<path d="M6.90754 2.5679C4.78408 2.5679 3.08037 4.2963 3.08037 6.39506V63.6049C3.08037 65.7284 4.80878 67.4321 6.90754 67.4321H64.0927C66.2162 67.4321 67.9199 65.7037 67.9199 63.6049V6.39506C67.9199 4.2716 66.1915 2.5679 64.0927 2.5679H6.90754ZM64.0927 70H6.90754C3.37668 70 0.512451 67.1358 0.512451 63.6049V6.39506C0.512451 2.8642 3.37668 0 6.90754 0H64.0927C67.6236 0 70.4877 2.8642 70.4877 6.39506V63.6049C70.4877 67.1358 67.6236 70 64.0927 70Z" fill="#5A4499"/>
<path d="M51.846 60.0741L50.1176 43.1852C50.1176 43.1852 50.1176 43.0124 50.0682 42.9383C52.5621 42.3704 54.4386 40.1235 54.4386 37.4568C54.4386 34.3457 51.9201 31.8272 48.809 31.8272C46.167 31.8272 43.9201 33.679 43.3522 36.1482H35.204C34.6114 36.1482 34.0929 36.5432 33.9448 37.1111L33.0559 40.2716L30.4633 29.9507C30.3398 29.4074 29.8707 29.0124 29.3028 28.963C28.7349 28.9136 28.2164 29.2346 27.9942 29.7531L25.204 36.1729H19.7719C19.1793 33.7037 16.9571 31.8519 14.3152 31.8519C11.2041 31.8519 8.68555 34.3704 8.68555 37.4815C8.68555 40.1482 10.5621 42.3951 13.0559 42.963C13.0559 43.0371 13.0065 43.1111 13.0065 43.2099L11.2781 60.0988H17.3522L15.6238 43.2099C15.6238 43.2099 15.5991 43.0618 15.5744 42.963C17.6485 42.4939 19.3028 40.8642 19.7967 38.7902H26.0929C26.6114 38.7902 27.0806 38.4939 27.3028 38L28.9077 34.321L31.7719 45.679C31.9201 46.247 32.4386 46.6667 33.0312 46.6667C33.6238 46.6667 34.1423 46.2716 34.2905 45.7037L36.2411 38.7902H43.4016C43.8954 40.8642 45.525 42.4939 47.6238 42.963C47.5991 43.0371 47.5744 43.1111 47.5744 43.2099L45.846 60.0988H51.9201L51.846 60.0741Z" fill="#5A4499"/>
<path d="M60.3886 21.9753C60.3886 22.1235 60.3639 22.2469 60.2898 22.321C60.2158 22.3951 59.9688 22.4445 59.5244 22.5185C59.08 22.5926 58.5368 22.642 57.8701 22.642C56.6849 22.642 55.7713 22.2716 55.0553 21.5556C54.3639 20.8395 54.0183 19.8272 54.0183 18.5432V16.963C54.0183 15.679 54.3639 14.6667 55.0553 13.9506C55.7466 13.2346 56.6849 12.8642 57.8701 12.8642C58.5615 12.8642 59.1047 12.9136 59.5244 12.9877C59.9442 13.0617 60.2158 13.1358 60.2652 13.1852C60.3393 13.2346 60.364 13.358 60.364 13.5062V14.6173C60.364 14.7901 60.2651 14.8642 60.0676 14.8642H60.0183C59.401 14.7901 58.6602 14.7408 57.8454 14.7408C56.759 14.7408 56.2158 15.4815 56.2158 16.9383V18.5185C56.2158 20 56.759 20.7161 57.8454 20.7161C58.3639 20.7161 58.7837 20.7161 59.08 20.6914L60.0183 20.6173H60.0676C60.2651 20.6173 60.364 20.6914 60.364 20.8642V21.9753H60.3886ZM50.0183 16.9877H44.7837C44.7837 16.9877 44.6108 16.963 44.5368 16.8889C44.4627 16.8148 44.438 16.7408 44.438 16.642V15.4321C44.438 15.4321 44.4627 15.2593 44.5368 15.1852C44.6108 15.1111 44.6849 15.0864 44.7837 15.0864H50.0183V14.9877C50.0183 13.8766 49.8207 13.0617 49.401 12.5679C48.9812 12.0741 48.2158 11.8272 47.1047 11.8272H44.4133C44.4133 11.8272 44.2405 11.8025 44.1664 11.7284C44.0923 11.6543 44.0676 11.5803 44.0676 11.4815V10.3951C44.0676 10.2469 44.0923 10.1729 44.1664 10.1235C44.2405 10.0741 44.5615 10 45.1294 9.92595C45.6973 9.85187 46.3393 9.80249 47.1047 9.80249C48.9319 9.80249 50.2652 10.321 51.08 11.358C51.9195 12.3951 52.3393 13.9259 52.3393 15.9753V16.5926C52.3393 18.5679 51.9442 20.0494 51.1541 21.0617C50.3639 22.0741 49.0059 22.5926 47.1047 22.5926C46.3393 22.5926 45.6726 22.5432 45.1294 22.4692C44.5615 22.3951 44.2405 22.321 44.1664 22.2716C44.0923 22.2222 44.0676 22.1235 44.0676 22V20.9136C44.0676 20.9136 44.0923 20.7408 44.1664 20.6667C44.2405 20.5926 44.3145 20.5679 44.4133 20.5679H47.1047C48.2158 20.5679 48.9812 20.321 49.401 19.8025C49.8207 19.3087 50.0183 18.4938 50.0183 17.3827V16.9136V16.9877Z" fill="#5A4499"/>
</svg>
