<svg width="71" height="70" viewBox="0 0 71 70" fill="none" xmlns="http://www.w3.org/2000/svg">
<path d="M7.19689 2.54424H64.4023C66.5265 2.54424 68.2555 4.27324 68.2555 6.39744V63.6028C68.2555 65.727 66.5265 67.4313 64.427 67.4313H7.22161C5.09741 67.4313 3.36841 65.7023 3.36841 63.5781V6.34805C3.36841 4.22384 5.09738 2.51953 7.19689 2.51953V2.54424Z" fill="white"/>
<path d="M7.14731 2.5441C5.0231 2.5441 3.31883 4.27312 3.31883 6.37262V63.578C3.31883 65.7022 5.0231 67.4312 7.14731 67.4312H64.3527C66.4769 67.4312 68.1812 65.7022 68.1812 63.578V6.37262C68.1812 4.24842 66.4522 2.5441 64.3527 2.5441H7.14731ZM64.3527 70H7.14731C3.6152 70 0.75 67.1348 0.75 63.6027V6.39731C0.75 2.8652 3.6152 0 7.14731 0H64.3527C67.8848 0 70.75 2.8652 70.75 6.39731V63.6027C70.75 67.1348 67.8848 70 64.3527 70Z" fill="#5A4499"/>
<path fill-rule="evenodd" clip-rule="evenodd" d="M31.3286 23.8852C30.7605 24.0828 30.4394 24.7003 30.637 25.2684L33.2058 32.8019L23.8198 32.9254C23.2023 32.9254 22.733 33.4441 22.733 34.0369C22.733 34.6544 23.2517 35.1237 23.8445 35.1237H24.8325C24.6843 35.3707 24.6349 35.6918 24.7337 36.0129L25.9687 39.5944L18.5586 31.5422C18.1387 31.0976 17.4471 31.0729 17.0025 31.4681C16.5579 31.888 16.5332 32.5796 16.9284 33.0242L23.0046 39.6438H21.7696L14.8043 32.0856C14.3844 31.641 13.6927 31.6163 13.2481 32.0115C12.8035 32.4314 12.7788 33.123 13.1741 33.5676L18.8304 39.6932L15.9157 39.7426C15.5699 39.7426 15.2983 39.9155 15.1007 40.1378L12.9023 37.7419C12.4824 37.2973 11.7909 37.2726 11.3463 37.6678C10.9017 38.0877 10.8769 38.7793 11.2721 39.2239L16.6568 45.0778C16.5086 45.2754 16.4098 45.4977 16.4098 45.7694C16.4098 46.3869 16.9285 46.8562 17.5213 46.8562H18.287L19.6948 48.3629C20.1147 48.8075 20.8063 48.8322 21.2509 48.437C21.6955 48.0171 21.7202 47.3255 21.325 46.8809L21.2509 46.8068L28.4387 46.708L28.7845 47.7454C28.9821 48.3135 29.5996 48.6346 30.1677 48.437C30.7358 48.2394 31.0569 47.6219 30.8593 47.0538L30.637 46.4116C30.8593 46.214 31.0322 45.9176 31.0075 45.5718C31.0075 45.0037 30.5382 44.5344 29.9701 44.5097L28.9574 41.5457C29.2291 41.3481 29.4267 41.027 29.4267 40.6565C29.4267 40.039 28.908 39.5697 28.3152 39.5697H28.2905L26.8332 35.2966C26.8085 35.2225 26.759 35.1484 26.7096 35.0743H29.1056L32.5883 45.2507C32.3907 45.3001 32.2178 45.3495 32.0449 45.4977C31.6003 45.9176 31.5756 46.6092 31.9708 47.0538L37.6271 53.1794L34.7125 53.2288C34.3667 53.2288 34.095 53.4018 33.8974 53.6241L31.6991 51.2281C31.2792 50.7835 30.5876 50.7589 30.143 51.1541C29.6984 51.574 29.6737 52.2655 30.0689 52.7101L35.4535 58.5641C35.3053 58.7617 35.2065 58.984 35.2065 59.2557C35.2065 59.8732 35.7252 60.3424 36.318 60.3424H37.0837L38.4916 61.8491C38.9115 62.2937 39.6031 62.3185 40.0477 61.9233C40.4923 61.5034 40.517 60.8118 40.1218 60.3672L40.0477 60.2931L47.2355 60.1942L47.5812 61.2316C47.7788 61.7997 48.3963 62.1209 48.9644 61.9233C49.5325 61.7257 49.8536 61.1081 49.656 60.54L49.4337 59.8979C49.656 59.7003 49.8289 59.4039 49.8042 59.0581C49.8042 58.49 49.335 58.0206 48.7669 57.9959L47.7542 55.0319C48.0259 54.8343 48.2235 54.5132 48.2235 54.1427C48.2235 53.5252 47.7047 53.0559 47.1119 53.0559H47.0872L45.6299 48.7828C45.6052 48.7087 45.5558 48.6346 45.5064 48.5605H47.9023L51.879 60.1696C52.0766 60.7377 52.6941 61.0588 53.2622 60.8612C53.8303 60.6636 54.1515 60.0461 53.9539 59.478L50.1994 48.5111H52.7683L53.4599 50.4871C53.6575 51.0552 54.275 51.3763 54.8431 51.1787C55.4112 50.9811 55.7323 50.3636 55.5347 49.7955L55.0654 48.4617C55.6582 48.4617 56.1274 47.943 56.1274 47.3502C56.1274 46.7327 55.6088 46.2634 55.016 46.2634H54.3244L51.5085 38.063C51.3109 37.4949 50.6934 37.1738 50.1253 37.3714C49.5572 37.569 49.2361 38.1865 49.4337 38.7546L52.0026 46.2881L42.6165 46.4116C41.999 46.4116 41.5297 46.9303 41.5297 47.5231C41.5297 48.1159 42.0484 48.6099 42.6412 48.6099H43.6292C43.481 48.8569 43.4317 49.178 43.5305 49.4991L44.7655 53.0807L37.3554 45.0284C36.9355 44.5838 36.2439 44.5591 35.7993 44.9543C35.3547 45.3742 35.33 46.0658 35.7252 46.5104L41.8014 53.1053H40.5664L34.9348 47.0044C35.1818 46.708 35.2806 46.3375 35.1571 45.967L31.4027 35.0002H33.9715L34.6631 36.9762C34.8607 37.5443 35.4782 37.8654 36.0463 37.6678C36.318 37.569 36.5156 37.3961 36.6391 37.1738L37.8741 38.5076L36.9355 38.063C36.3921 37.7913 35.7252 38.0383 35.4782 38.5817C35.2065 39.1251 35.4535 39.792 35.9969 40.039L41.8755 42.8548L44.7407 45.967C45.1606 46.4116 45.8523 46.4363 46.2969 46.0411C46.5686 45.7941 46.6674 45.4483 46.618 45.1272L47.1614 45.3989C47.7048 45.6706 48.3717 45.4236 48.6187 44.8802C48.7669 44.5591 48.7421 44.1886 48.5692 43.8922C49.0385 43.6452 49.2609 43.1018 49.088 42.5831L46.4944 34.9755L52.0519 34.9014C52.6694 34.9014 53.1388 34.3827 53.1388 33.7899C53.1388 33.1724 52.62 32.7031 52.0272 32.7031L45.7535 32.8019L45.0865 30.8506C44.8889 30.2825 44.2714 29.9614 43.7033 30.159C43.1352 30.3566 42.8141 30.9741 43.0117 31.5422L43.4564 32.8019H41.3815L35.0583 25.96C34.6384 25.5154 33.9468 25.4907 33.5022 25.8859C33.4034 25.9847 33.3293 26.0835 33.2799 26.1823L32.7118 24.5027C32.5142 23.9346 31.8967 23.6135 31.3286 23.8111V23.8852ZM19.2255 44.6332L16.7309 41.9162L20.8311 41.8668L21.5721 42.6819C21.992 43.1265 22.6836 43.1512 23.1282 42.756C23.3999 42.509 23.4987 42.1632 23.4493 41.8421H25.0054L25.3264 42.1632C25.7216 42.6078 26.4133 42.6325 26.8579 42.2373L27.6483 44.5097L19.2255 44.6332ZM45.6546 55.7235L46.4451 57.9959L38.0223 58.1194L35.5276 55.4024L39.6278 55.3531L40.3689 56.1682C40.7888 56.6128 41.4803 56.6375 41.9249 56.2423C42.1966 55.9953 42.2954 55.6494 42.246 55.3283H43.8021L44.1232 55.6494C44.5184 56.094 45.21 56.1187 45.6546 55.7235ZM38.8127 33.3206C38.6645 33.5182 38.5657 33.7405 38.5657 34.0122C38.5657 34.6297 39.0844 35.099 39.6772 35.099H40.443L41.8508 36.6057C42.2707 37.0503 42.9623 37.075 43.4069 36.6798C43.8515 36.2846 43.8762 35.5683 43.481 35.1237L43.4069 35.0496H44.2467L46.9144 42.8301L43.234 41.0764L37.9976 35.3954C37.5777 34.9508 36.8861 34.9261 36.4415 35.3213L36.318 34.9261C36.9108 34.9261 37.3801 34.4074 37.3801 33.8146C37.3801 33.1971 36.8614 32.7278 36.2686 32.7278H35.577L33.9468 27.936L38.8868 33.2959L38.8127 33.3206ZM26.3145 17.3643L30.3159 29.0969C30.4888 29.6156 30.2418 30.159 29.7972 30.406C29.9454 30.7024 29.9948 31.0482 29.8466 31.394C29.5749 31.9374 28.9327 32.1844 28.3893 31.9127L27.8459 31.641C27.8706 31.9621 27.7718 32.3079 27.5248 32.5549C27.0802 32.9748 26.3886 32.9254 25.9687 32.4808L23.1035 29.3686L17.2248 26.5528C16.6814 26.2811 16.4344 25.6389 16.7061 25.0955C16.9778 24.5521 17.62 24.305 18.1634 24.5767L19.1021 25.0214L17.5707 23.3665C17.1508 22.9219 17.2002 22.2303 17.6448 21.8104C18.0894 21.3905 18.781 21.4398 19.2009 21.8845L24.4373 27.5655L28.1176 29.3192L24.2644 18.0806C24.0668 17.5125 24.3632 16.8703 24.956 16.6974C25.5241 16.4998 26.1663 16.7962 26.3392 17.389L26.3145 17.3643Z" fill="#5A4499"/>
<path fill-rule="evenodd" clip-rule="evenodd" d="M51.9536 10.7691V20.0317C51.9536 20.0317 51.9289 20.2046 51.8548 20.2787C51.7807 20.3528 51.7066 20.3775 51.6078 20.3775H49.9282C49.9282 20.3775 49.7553 20.3528 49.6812 20.2787C49.6071 20.2046 49.5824 20.1305 49.5824 20.0317V10.7691C49.5824 10.448 49.533 10.2257 49.4342 10.1022C49.3354 9.97874 49.1378 9.92934 48.8661 9.92934H45.5069C45.2352 9.92934 45.0375 9.97874 44.9387 10.1022C44.8399 10.2257 44.7906 10.448 44.7906 10.7444V20.007C44.7906 20.007 44.7659 20.1799 44.6918 20.254C44.6177 20.3281 44.5436 20.3528 44.4448 20.3528H42.7899C42.7899 20.3528 42.6169 20.3281 42.5428 20.254C42.4687 20.1799 42.4441 20.1058 42.4441 20.007V10.7444C42.4441 9.73174 42.691 8.99073 43.1603 8.52143C43.6296 8.05213 44.42 7.82983 45.4822 7.82983H48.8414C49.9035 7.82983 50.6939 8.05215 51.1632 8.49675C51.6325 8.94135 51.8795 9.68234 51.8795 10.7197L51.9536 10.7691ZM60.3269 19.8588C60.3269 20.007 60.3022 20.1305 60.2281 20.2046C60.154 20.2787 59.907 20.3281 59.4624 20.4022C59.0178 20.4763 58.4744 20.5257 57.8075 20.5257C56.6466 20.5257 55.708 20.1552 55.0164 19.4389C54.3248 18.7226 53.979 17.7099 53.979 16.4255V14.8447C53.979 13.5603 54.3248 12.5476 55.0164 11.8313C55.708 11.115 56.6466 10.7444 57.8075 10.7444C58.4744 10.7444 59.0425 10.7939 59.4624 10.868C59.8823 10.9421 60.1541 11.0162 60.2035 11.0656C60.2776 11.115 60.3022 11.2385 60.3022 11.3867V12.4735C60.3022 12.6464 60.2034 12.7205 60.0058 12.7205H59.9564C59.3389 12.6464 58.6226 12.5969 57.7828 12.5969C56.696 12.5969 56.1773 13.3379 56.1773 14.7953V16.3761C56.1773 17.8334 56.7207 18.5744 57.7828 18.5744C58.3015 18.5744 58.7214 18.5744 59.0178 18.5497L59.9564 18.4756H60.0058C60.2034 18.4756 60.3022 18.5497 60.3022 18.7226V19.8094L60.3269 19.8588Z" fill="#5A4499"/>
</svg>
