<svg width="70" height="70" viewBox="0 0 70 70" fill="none" xmlns="http://www.w3.org/2000/svg">
<path d="M6.44689 2.54426H63.6522C65.7764 2.54426 67.5054 4.27325 67.5054 6.39746V63.6028C67.5054 65.727 65.7764 67.4314 63.6769 67.4314H6.47161C4.34741 67.4314 2.61841 65.7023 2.61841 63.5781V6.34805C2.61841 4.22384 4.34738 2.51953 6.44689 2.51953V2.54426Z" fill="white"/>
<path d="M6.39723 2.5441C4.27303 2.5441 2.56875 4.27312 2.56875 6.37262V63.578C2.56875 65.7022 4.27303 67.4312 6.39723 67.4312H63.6027C65.7269 67.4312 67.4312 65.7022 67.4312 63.578V6.37262C67.4312 4.24842 65.7022 2.5441 63.6027 2.5441H6.39723ZM63.6027 70H6.39723C2.86512 70 0 67.1348 0 63.6027V6.39731C0 2.8652 2.86512 0 6.39723 0H63.6027C67.1348 0 69.9999 2.8652 69.9999 6.39731V63.6027C69.9999 67.1348 67.1348 70 63.6027 70Z" fill="#5A4499"/>
<path fill-rule="evenodd" clip-rule="evenodd" d="M24.6262 11.5103C24.8732 12.0784 24.6015 12.7453 24.0334 12.9923C23.4653 13.2393 22.7984 12.9676 22.5514 12.3995C22.3044 11.8314 22.5761 11.1645 23.1442 10.9175C23.7123 10.6705 24.3792 10.9422 24.6262 11.5103ZM21.341 8.47216C20.9705 7.60765 21.3904 6.59494 22.2549 6.22444C23.1194 5.85394 24.1322 6.27387 24.5027 7.13837C24.8732 8.00287 24.4533 9.01558 23.5888 9.38608C22.7243 9.75659 21.7115 9.33666 21.341 8.47216ZM26.207 26.7996C25.1202 27.2442 23.8852 26.7502 23.4406 25.6634C22.996 24.5766 23.4899 23.3416 24.5767 22.897C25.6635 22.4524 26.8987 22.9464 27.3433 24.0332C27.7879 25.12 27.2938 26.355 26.207 26.7996ZM21.4892 14.6225C21.9585 15.734 21.4399 16.9937 20.3284 17.4383C19.2169 17.8829 17.9571 17.3889 17.5125 16.2774C17.0679 15.1659 17.562 13.9062 18.6735 13.4616C19.785 13.017 21.0446 13.511 21.4892 14.6225ZM26.4539 15.8822C25.9599 14.6966 24.6015 14.1532 23.4406 14.6472C22.2797 15.1412 21.7116 16.4997 22.2056 17.6606C22.6996 18.8215 24.058 19.3896 25.2189 18.8956C26.3798 18.4016 26.9479 17.0431 26.4539 15.8822ZM26.6763 29.2202C26.9233 29.7883 26.6516 30.4552 26.0588 30.7022C25.466 30.9492 24.8237 30.6775 24.5767 30.0847C24.3297 29.4919 24.6014 28.8497 25.1942 28.6027C25.787 28.3557 26.4293 28.6274 26.6763 29.2202ZM25.3178 35.9387C27.8866 34.8519 29.8626 33.7156 31.7398 32.7523C30.2578 31.7396 33.4688 33.8391 32.1844 33.0487L31.7398 32.7523L31.5421 32.2583L26.8985 21.2174L20.5753 23.8603L25.2189 34.9012L25.4166 35.3953L25.2931 35.9139C24.9473 37.4453 25.6389 34.0367 25.2931 35.9139L25.3178 35.9387ZM33.123 31.6162L28.4794 20.5752L30.0602 19.9083L29.3933 18.3275L27.8124 18.9944L23.07 20.9704L18.3277 22.9464L16.7468 23.6133L17.4138 25.1941L18.9946 24.5272L23.6382 35.5681C23.6382 35.5681 19.2168 55.9704 21.1928 60.7128C23.1688 65.4552 27.9113 63.4545 27.9113 63.4545L38.9522 58.8109L49.9932 54.1673C49.9932 54.1673 54.7356 52.1913 52.7349 47.4489C50.7341 42.7065 33.0735 31.5667 33.0735 31.5667L33.123 31.6162ZM25.6142 57.6994L23.1195 51.722L24.2803 51.228L28.4299 54.192L26.7503 50.1906L27.8619 49.7213L30.3566 55.6987L29.1463 56.2174L25.0707 53.3028L26.7258 57.2301L25.6142 57.6994ZM31.221 51.8208L30.1097 52.0678C30.0603 51.5985 30.1095 51.2033 30.3071 50.8822C30.5047 50.5611 30.9 50.2894 31.4434 50.0424C31.9621 49.8201 32.3573 49.7213 32.6537 49.746C32.9501 49.746 33.197 49.8448 33.3699 49.993C33.5428 50.1412 33.7406 50.4623 33.9629 50.9563L34.5062 52.2901C34.6544 52.6606 34.8027 52.9323 34.9015 53.1052C35.025 53.2781 35.1732 53.4263 35.3461 53.5992L34.2098 54.0685C34.2098 54.0685 34.0617 53.9203 33.9629 53.7721C33.9135 53.7227 33.8887 53.6733 33.864 53.6486C33.7405 53.9203 33.5923 54.1426 33.4194 54.3402C33.2465 54.5378 33.0242 54.686 32.7772 54.7848C32.3325 54.9824 31.9374 55.0071 31.5669 54.8589C31.2211 54.7354 30.9494 54.4637 30.8012 54.0932C30.7024 53.8462 30.6777 53.5992 30.7024 53.3769C30.7271 53.1299 30.8506 52.9323 30.9988 52.7347C31.1717 52.5371 31.4434 52.3395 31.7892 52.0925C32.2832 51.7714 32.6042 51.5244 32.7772 51.3515L32.7279 51.228C32.6291 51.0057 32.5055 50.8575 32.3573 50.8081C32.2091 50.7587 31.9867 50.8081 31.6903 50.9316C31.4927 51.0057 31.3446 51.1292 31.2705 51.2527C31.1964 51.3762 31.147 51.5738 31.1717 51.7961L31.221 51.8208ZM33.1477 52.0925L33.2465 52.3148C33.37 52.5865 33.4194 52.7841 33.4441 52.8829C33.4441 53.0558 33.4441 53.204 33.3206 53.3769C33.1971 53.5992 33.0242 53.7474 32.8266 53.8215C32.629 53.8956 32.456 53.8956 32.3078 53.8215C32.1349 53.7474 32.0116 53.6486 31.9622 53.4757C31.9128 53.3028 31.9127 53.1546 32.0115 52.9817C32.0856 52.8829 32.2585 52.7347 32.5549 52.5124C32.8513 52.3148 33.0489 52.1666 33.1724 52.0431L33.1477 52.0925ZM34.8026 50.3635C34.5556 49.746 34.4322 49.2026 34.4322 48.7086C34.4322 48.3381 34.5062 47.9923 34.6544 47.6465C34.7779 47.3007 34.9756 47.029 35.1979 46.782C35.4943 46.4609 35.8894 46.2139 36.3834 46.0163C37.2726 45.6458 38.0877 45.6211 38.8534 45.9422C39.6191 46.2633 40.1873 46.9302 40.6072 47.8935C41.0271 48.8568 41.0764 49.7213 40.7799 50.487C40.4835 51.2527 39.8908 51.8208 39.0263 52.1913C38.1618 52.5618 37.322 52.5865 36.5563 52.2654C35.8153 51.9443 35.2225 51.3021 34.8273 50.3388L34.8026 50.3635ZM36.0376 49.7954C35.7412 49.1038 35.6917 48.5357 35.8399 48.0664C36.0128 47.5971 36.334 47.2513 36.828 47.0537C37.322 46.8561 37.7913 46.8561 38.2359 47.0537C38.6805 47.276 39.051 47.7206 39.3227 48.3875C39.5944 49.0544 39.6686 49.6719 39.5204 50.1412C39.3475 50.6105 39.0263 50.9563 38.557 51.1539C38.0877 51.3515 37.5937 51.3515 37.1491 51.1539C36.6798 50.9316 36.3093 50.487 36.0376 49.8201V49.7954ZM42.7808 50.487L40.2861 44.5096L41.4963 43.9909L42.4843 46.3374L44.8308 45.3494L43.8429 43.0029L45.0532 42.4842L47.5479 48.4616L46.3375 48.9803L45.2508 46.3621L42.9043 47.3501L43.9911 49.9683L42.7808 50.487Z" fill="#5A4499"/>
<path fill-rule="evenodd" clip-rule="evenodd" d="M37.5194 7.65689C37.5194 7.65689 37.544 7.50869 37.5934 7.45929C37.6428 7.40989 37.7169 7.38519 37.791 7.38519H39.1248C39.1248 7.38519 39.273 7.40989 39.3224 7.45929C39.3718 7.50869 39.3964 7.58279 39.3964 7.65689V15.8079H41.7183C41.9406 15.8079 42.0889 15.7585 42.163 15.6597C42.2371 15.5609 42.2865 15.388 42.2865 15.141V7.65689C42.2865 7.65689 42.3111 7.50869 42.3605 7.45929C42.4099 7.40989 42.484 7.38519 42.5581 7.38519H43.8919C43.8919 7.38519 44.0401 7.40989 44.0895 7.45929C44.1389 7.50869 44.1637 7.58279 44.1637 7.65689V15.141C44.1637 15.4127 44.1636 15.635 44.1142 15.7832H45.374C45.374 15.7832 45.5221 15.8079 45.5715 15.8573C45.6209 15.9067 45.6456 15.9808 45.6456 16.0549V19.0684C45.6456 19.0684 45.6209 19.1919 45.5715 19.266C45.5221 19.3154 45.4481 19.3401 45.374 19.3401H44.0401C44.0401 19.3401 43.892 19.3154 43.8426 19.266C43.7932 19.2166 43.7684 19.1425 43.7684 19.0684V17.4628H35.0246C34.1601 17.4628 33.5426 17.2899 33.1474 16.9194C32.7522 16.5489 32.5793 15.9561 32.5793 15.141V7.65689C32.5793 7.65689 32.604 7.50869 32.6534 7.45929C32.7028 7.40989 32.7769 7.38519 32.851 7.38519H34.1848C34.1848 7.38519 34.333 7.40989 34.3824 7.45929C34.4318 7.50869 34.4564 7.58279 34.4564 7.65689V15.141C34.4564 15.388 34.5059 15.5609 34.58 15.6597C34.6541 15.7585 34.8023 15.8079 35.0246 15.8079H37.4946V7.65689H37.5194ZM53.5744 14.2518C53.5744 15.3139 53.2779 16.1537 52.6851 16.7218C52.0923 17.2899 51.2278 17.5863 50.0916 17.5863C49.5482 17.5863 48.9801 17.5369 48.412 17.4381C47.8192 17.3393 47.4735 17.2652 47.3747 17.2158C47.2759 17.1664 47.2265 17.0676 47.2265 16.9441V16.1537C47.2265 15.9808 47.3005 15.9067 47.4734 15.9067H47.4981C48.5108 16.0302 49.3753 16.1043 50.0916 16.1043C50.635 16.1043 51.0549 15.9561 51.3019 15.6844C51.5489 15.4127 51.6972 14.9434 51.6972 14.2765V14.2024C51.6972 13.659 51.5242 13.2638 51.1537 13.0168C50.7832 12.7945 50.1657 12.671 49.3012 12.671H47.4734C47.4734 12.671 47.3994 12.671 47.3747 12.6216C47.35 12.5722 47.3252 12.5475 47.3252 12.4981L47.7698 7.6322C47.7698 7.5581 47.7946 7.50869 47.8687 7.45929C47.9181 7.40989 47.9921 7.38519 48.0662 7.38519H52.9815C52.9815 7.38519 53.1297 7.40989 53.1791 7.45929C53.2285 7.50869 53.2533 7.5581 53.2533 7.6322V8.6696C53.2533 8.6696 53.2285 8.79312 53.1791 8.84252C53.1297 8.89192 53.0556 8.91662 52.9815 8.91662H49.3012L49.1037 11.1643H49.3259C50.8573 11.1643 51.9442 11.4113 52.6111 11.9053C53.278 12.3993 53.599 13.165 53.599 14.153V14.2271L53.5744 14.2518ZM62.4417 12.9427C62.4417 14.4988 62.1453 15.6597 61.5772 16.4254C60.9844 17.1911 60.0952 17.5616 58.9096 17.5616C57.724 17.5616 56.81 17.1911 56.2419 16.4254C55.6738 15.6597 55.3775 14.4988 55.3775 12.9427V11.93C55.3775 10.3739 55.6738 9.21303 56.2419 8.42263C56.8347 7.65692 57.724 7.26172 58.9096 7.26172C60.0952 7.26172 61.0091 7.65692 61.5772 8.42263C62.17 9.18833 62.4417 10.3492 62.4417 11.93V12.9427ZM60.5644 12.9427V11.93C60.5644 10.8926 60.441 10.1022 60.1693 9.58349C59.8976 9.06479 59.4777 8.8178 58.9096 8.8178C58.3415 8.8178 57.9215 9.08949 57.6498 9.58349C57.3781 10.1022 57.2547 10.8926 57.2547 11.93V12.9427C57.2547 13.9801 57.3781 14.7705 57.6498 15.2892C57.9215 15.8079 58.3415 16.0549 58.9096 16.0549C59.4777 16.0549 59.8976 15.8079 60.1693 15.2892C60.441 14.7705 60.5644 14.0048 60.5644 12.9427Z" fill="#5A4499"/>
</svg>
