<svg width="71" height="70" viewBox="0 0 71 70" fill="none" xmlns="http://www.w3.org/2000/svg">
<path d="M6.65747 2.56812H63.8426C65.966 2.56812 67.6945 4.29651 67.6945 6.41997V63.6052C67.6945 65.7286 65.9661 67.4323 63.8673 67.4323H6.68211C4.55865 67.4323 2.85498 65.7039 2.85498 63.6052V6.39528C2.85498 4.27182 4.58335 2.56812 6.68211 2.56812H6.65747Z" fill="white"/>
<path d="M6.65733 2.5679C4.53388 2.5679 2.80549 4.2963 2.80549 6.39506V63.5802C2.80549 65.7037 4.53388 67.4321 6.65733 67.4321H63.8425C65.9659 67.4321 67.6697 65.7037 67.6697 63.5802V6.39506C67.6697 4.2716 65.9412 2.5679 63.8425 2.5679H6.65733ZM63.8425 70H6.65733C3.12647 70 0.262207 67.1358 0.262207 63.6049V6.39506C0.262207 2.8642 3.12647 0 6.65733 0H63.8425C67.3733 0 70.2376 2.8642 70.2376 6.39506V63.5802C70.2376 67.1111 67.3733 69.9753 63.8425 69.9753" fill="#5A4499"/>
<path d="M41.324 56.9386L33.3487 40.1237L25.3734 56.9386H41.324ZM49.0524 56.9386V42.7163L39.4227 39.2842L47.7931 56.9386H49.0524ZM33.3733 30.8151C31.9659 30.8151 30.8301 31.9509 30.8301 33.3336C30.8301 34.7163 31.9659 35.8521 33.3733 35.8521C34.7807 35.8521 35.9165 34.7163 35.9165 33.3336C35.9165 31.9509 34.7807 30.8151 33.3733 30.8151ZM9.2499 56.9386H18.9289L28.0647 37.6299C27.3733 36.8151 26.9042 35.8028 26.6573 34.7163L20.3857 32.4694L16.1141 39.5065C15.719 40.1484 14.9289 40.42 14.2129 40.1731L11.2252 39.1114C10.5091 38.8645 10.0894 38.1484 10.1882 37.383L11.5709 27.6052C11.7437 26.346 12.1882 25.1608 12.8302 24.0744L17.966 15.6299C18.361 14.9879 19.1512 14.6916 19.8425 14.9632L22.8302 16.025C23.5462 16.2719 23.966 16.9879 23.8672 17.7534L22.7067 25.9015L28.9783 28.1484C30.1635 27.1855 31.6697 26.5929 33.324 26.5929C36.6573 26.5929 39.4474 28.9632 40.04 32.099L51.7931 36.3213C53.6203 36.9632 54.5585 38.9632 53.8918 40.7904C53.5956 41.6299 52.9783 42.3213 52.1882 42.7163V56.9632H54.3857C55.4968 56.9632 56.4351 57.8274 56.4351 58.9386V60.7163C56.4351 61.8274 55.4968 62.6916 54.3857 62.6916H9.20055C8.08944 62.6916 7.15112 61.8274 7.15112 60.7163V58.9386C7.15112 57.8274 8.06475 56.9632 9.20055 56.9632" fill="#5A4499"/>
<path d="M60.8548 20.5183C60.8548 20.6665 60.8055 20.7899 60.7314 20.8393C60.6573 20.9134 60.4104 20.9628 59.966 21.0369C59.5216 21.1109 58.9783 21.1603 58.3116 21.1603C57.1265 21.1603 56.1882 20.7899 55.4969 20.0739C54.8055 19.3579 54.4598 18.3455 54.4598 17.0616V15.4813C54.4598 14.1974 54.8055 13.185 55.4969 12.469C56.1882 11.7529 57.1265 11.3825 58.3116 11.3825C58.9783 11.3825 59.5462 11.4319 59.966 11.506C60.3857 11.5801 60.6573 11.6541 60.7067 11.7035C60.7808 11.7776 60.8055 11.8764 60.8055 12.0245V13.1356C60.8055 13.3085 60.7067 13.3825 60.5092 13.3825H60.4598C59.8425 13.3085 59.1017 13.2591 58.2869 13.2591C57.2005 13.2591 56.6574 13.9998 56.6574 15.4566V17.0369C56.6574 18.5183 57.2005 19.2344 58.2869 19.2344C58.8054 19.2344 59.2252 19.2344 59.5215 19.2097L60.4598 19.1356H60.5092C60.7067 19.1356 60.8055 19.2097 60.8055 19.3825V20.4937L60.8548 20.5183ZM52.4598 20.6912C52.4598 20.6912 52.4104 20.864 52.361 20.9381C52.2869 21.0122 52.2129 21.0369 52.1141 21.0369H50.4351C50.4351 21.0369 50.2622 21.0122 50.1882 20.9381C50.1388 20.864 50.0895 20.7899 50.0895 20.6912V15.5307H45.2993V20.6912C45.2993 20.6912 45.2746 20.864 45.2005 20.9381C45.1512 21.0122 45.0524 21.0369 44.9536 21.0369H43.2993C43.2993 21.0369 43.1265 21.0122 43.0524 20.9381C42.9783 20.864 42.9536 20.7899 42.9536 20.6912V8.81464C42.9536 8.81464 42.9783 8.6418 43.0524 8.59242C43.1018 8.51834 43.2006 8.49365 43.2993 8.49365H44.9536C44.9536 8.49365 45.1265 8.51834 45.2005 8.59242C45.2746 8.6418 45.2993 8.74057 45.2993 8.81464V13.4566H50.0895V8.81464C50.0895 8.81464 50.1141 8.6418 50.1882 8.59242C50.2622 8.51834 50.3363 8.49365 50.4351 8.49365H52.1141C52.1141 8.49365 52.2869 8.51834 52.361 8.59242C52.4351 8.6418 52.4598 8.74057 52.4598 8.81464V20.6912Z" fill="#5A4499"/>
</svg>
