<svg width="71" height="70" viewBox="0 0 71 70" fill="none" xmlns="http://www.w3.org/2000/svg">
<path d="M6.89737 2.54424H64.1027C66.2269 2.54424 67.956 4.27324 67.956 6.39744V63.6028C67.956 65.727 66.2269 67.4313 64.1274 67.4313H6.92205C4.79785 67.4313 3.06885 65.7023 3.06885 63.5781V6.34805C3.06885 4.22384 4.79786 2.51953 6.89737 2.51953V2.54424Z" fill="white"/>
<path d="M6.89735 2.5441C4.77314 2.5441 3.0441 4.2731 3.0441 6.39731V63.6027C3.0441 65.7269 4.77314 67.4312 6.89735 67.4312H64.1027C66.2269 67.4312 67.9312 65.7022 67.9312 63.6027V6.39731C67.9312 4.2731 66.2022 2.5441 64.1027 2.5441H6.89735ZM64.1027 70H6.89735C3.36524 70 0.5 67.1348 0.5 63.6027V6.39731C0.5 2.8652 3.36524 0 6.89735 0H64.1027C67.6348 0 70.5 2.8652 70.5 6.39731V63.6027C70.5 67.1348 67.6348 70 64.1027 70Z" fill="#5A4499"/>
<path fill-rule="evenodd" clip-rule="evenodd" d="M45.9482 20.5996C45.9482 20.5996 45.9235 20.7725 45.8494 20.8466C45.7753 20.9207 45.7012 20.9454 45.6024 20.9454H43.9228C43.9228 20.9454 43.7499 20.9207 43.6758 20.8466C43.6017 20.7725 43.577 20.6984 43.577 20.5996V15.4126H38.7605V20.5996C38.7605 20.5996 38.7358 20.7725 38.6617 20.8466C38.5876 20.9207 38.5135 20.9454 38.4147 20.9454H36.7351C36.7351 20.9454 36.5622 20.9207 36.4881 20.8466C36.414 20.7725 36.3893 20.6984 36.3893 20.5996V8.6695C36.3893 8.6695 36.414 8.49659 36.4881 8.44719C36.5622 8.37309 36.6363 8.34839 36.7351 8.34839H38.4147C38.4147 8.34839 38.5876 8.37309 38.6617 8.44719C38.7358 8.52129 38.7605 8.5954 38.7605 8.6695V13.3378H43.577V8.6695C43.577 8.6695 43.6017 8.49659 43.6758 8.44719C43.7499 8.37309 43.824 8.34839 43.9228 8.34839H45.6024C45.6024 8.34839 45.7753 8.37309 45.8494 8.44719C45.9235 8.52129 45.9482 8.5954 45.9482 8.6695V20.5996ZM53.1853 15.4373V11.7076C53.1853 11.7076 53.2101 11.5347 53.2842 11.4606C53.3583 11.3865 53.4323 11.3618 53.5311 11.3618H55.0873C55.0873 11.3618 55.2602 11.3865 55.3343 11.4606C55.4084 11.5347 55.4331 11.6088 55.4331 11.7076V15.4373L57.2609 13.0167C57.9772 12.0534 58.3477 11.5594 58.3724 11.5347C58.3971 11.51 58.4465 11.4606 58.5206 11.4359C58.5947 11.4112 58.6441 11.3865 58.7182 11.3865H60.6201C60.793 11.3865 60.8671 11.4606 60.8671 11.5594C60.8671 11.6088 60.8671 11.6582 60.8177 11.6829L57.3843 15.9066L59.6568 18.9694C60.4472 20.0562 60.8424 20.5996 60.8671 20.6243C60.8671 20.649 60.8671 20.6737 60.8671 20.6984C60.8671 20.8466 60.793 20.896 60.6201 20.896H58.5452C58.3476 20.896 58.1748 20.7478 57.9772 20.4514L55.4084 16.697V20.5502C55.4084 20.5502 55.3836 20.7231 55.3095 20.7972C55.2354 20.8713 55.1614 20.896 55.0626 20.896H53.5065C53.5065 20.896 53.3335 20.8713 53.2594 20.7972C53.1853 20.7231 53.1607 20.649 53.1607 20.5502V16.697L51.4563 19.167C50.8141 20.1056 50.4683 20.5996 50.4189 20.649C50.3942 20.6984 50.3201 20.7478 50.246 20.7972C50.1472 20.8466 50.0731 20.896 49.999 20.896H47.9242C47.7513 20.896 47.6772 20.8219 47.6772 20.6984V20.649C47.6772 20.649 47.8254 20.4514 48.0971 20.0809L51.16 15.9066L48.8876 13.1155C48.1218 12.1769 47.7266 11.6829 47.7019 11.6582C47.7019 11.6335 47.7019 11.5841 47.7019 11.5594C47.7019 11.4359 47.776 11.3865 47.9489 11.3865H49.8509C49.9991 11.3865 50.1472 11.4606 50.246 11.5841L53.136 15.4373H53.1853Z" fill="#5A4499"/>
<path fill-rule="evenodd" clip-rule="evenodd" d="M54.5684 51.4506C55.6305 49.6722 56.8409 48.1408 57.4584 47.3751C57.5325 47.2763 57.656 47.2269 57.8042 47.2269C57.9524 47.2269 58.0512 47.2763 58.15 47.3751C58.7675 48.1408 59.9531 49.6722 61.0399 51.4506C62.4231 53.7477 63.1147 55.6249 63.1147 57.0575C63.1147 59.9968 60.7435 62.368 57.8042 62.368C54.8649 62.368 52.4936 59.9968 52.4936 57.0575C52.4936 55.6249 53.1852 53.723 54.5684 51.4506ZM57.0632 60.4167C57.3843 60.4908 57.7054 60.5402 58.0265 60.5402C60.0025 60.5402 61.6327 59.0335 61.6327 57.2057C61.6327 56.7611 61.5092 56.2424 61.2869 55.6496C61.2375 55.5508 61.1387 55.5014 61.0152 55.5261C60.9164 55.5261 60.8423 55.6496 60.8423 55.7484C60.8423 55.8719 60.8423 55.9954 60.8423 56.1189C60.8423 58.1196 59.2368 59.7992 57.0879 60.0215C56.9891 60.0215 56.8903 60.1203 56.8903 60.2191C56.8903 60.3179 56.9397 60.4167 57.0632 60.4414V60.4167ZM44.9107 37.9643L41.3786 36.0624L42.5642 33.8641L28.337 26.2565L27.1514 28.4548L23.6193 26.5529L23.3723 27.0222C19.4203 11.066 -2.36521 32.802 13.838 39.0264C14.7025 39.3475 15.4682 39.8662 16.308 40.1873L15.6411 41.4223L36.9326 52.8091L39.3038 48.4125L57.4337 44.0159L54.939 40.5332L43.4781 40.6319L44.9354 37.9396L44.9107 37.9643ZM22.3596 28.9241L17.3701 38.2607C10.6517 36.1859 8.72511 32.9255 10.3059 28.9982C12.4795 23.663 19.5685 19.8345 22.3596 28.9241Z" fill="#5A4499"/>
</svg>
