<svg width="71" height="70" viewBox="0 0 71 70" fill="none" xmlns="http://www.w3.org/2000/svg">
<path d="M7.19684 2.54424H64.4022C66.5264 2.54424 68.2307 4.27325 68.2307 6.37276V63.6028C68.2307 65.727 66.5017 67.4313 64.4022 67.4313H7.19684C5.07263 67.4313 3.34363 65.7023 3.34363 63.5781V6.34805C3.34363 4.22384 5.07263 2.51953 7.17214 2.51953L7.19684 2.54424Z" fill="white"/>
<path d="M7.14732 2.5441C5.02311 2.5441 3.31881 4.27312 3.31881 6.37262V63.578C3.31881 65.7022 5.02311 67.4312 7.14732 67.4312H64.3527C66.4769 67.4312 68.1812 65.7022 68.1812 63.578V6.37262C68.1812 4.24842 66.4522 2.5441 64.3527 2.5441H7.14732ZM64.3527 70H7.14732C3.61521 70 0.75 67.1348 0.75 63.6027V6.39731C0.75 2.8652 3.61521 0 7.14732 0H64.3527C67.8848 0 70.75 2.8652 70.75 6.39731V63.6027C70.75 67.1348 67.8848 70 64.3527 70Z" fill="#5A4499"/>
<path fill-rule="evenodd" clip-rule="evenodd" d="M44.0986 22.3532C42.6907 21.4393 41.2334 20.6242 39.7514 19.9079L29.5997 29.8868L29.6491 45.2502H48.841L48.9398 39.3963C43.9751 34.6045 41.9003 29.0717 44.0986 22.3779V22.3532ZM29.6738 48.8317V52.512H48.7175L48.7669 48.8317H29.6491H29.6738ZM29.6985 56.0935V61.0829L48.5693 61.2558L48.6434 56.0935H29.6738H29.6985ZM37.479 18.9199L29.0563 27.7873L19.9173 19.1175C27.4261 21.1182 32.9836 20.9453 37.4543 18.9199H37.479ZM18.2871 19.8091C16.8298 20.4513 15.3477 21.2664 13.7916 22.205C15.3724 29.0717 13.4705 34.7527 10.0372 39.9644L10.1854 45.2749H28.1424L28.093 29.8374L18.3118 19.8091H18.2871ZM10.2595 48.8564L10.3583 52.5367H28.1671V48.8564H10.2842H10.2595ZM10.4571 56.1182L10.5806 60.9348L28.1918 61.1077V56.1429H10.4571V56.1182Z" fill="#5A4499"/>
<path fill-rule="evenodd" clip-rule="evenodd" d="M53.4599 18.5744C53.4599 18.7473 53.3858 18.8708 53.1882 18.9202C53.0153 18.9696 52.6448 19.0437 52.1014 19.1178C51.558 19.1919 51.0146 19.2166 50.4712 19.2166C49.0633 19.2166 47.9271 18.7967 47.0873 17.9322C46.2228 17.0677 45.8029 15.808 45.8029 14.1531V11.7078C45.8029 10.4234 46.0499 9.38599 46.5192 8.64499C46.9885 7.90398 47.5813 7.36059 48.2729 7.08889C48.9645 6.79249 49.7055 6.64429 50.4712 6.64429C50.9899 6.64429 51.5333 6.66897 52.1014 6.74307C52.6695 6.81717 53.0153 6.86658 53.1882 6.94068C53.3611 7.01478 53.4352 7.11357 53.4352 7.28648V8.39799C53.4352 8.62029 53.3364 8.74379 53.1141 8.74379H53.0894C52.052 8.66969 51.1875 8.62028 50.4959 8.62028C48.8904 8.62028 48.1 9.65768 48.1 11.7078V14.1531C48.1 16.2279 48.8904 17.2406 50.4959 17.2406C50.8911 17.2406 51.311 17.2406 51.7803 17.1912L53.0647 17.0924H53.0894C53.3117 17.0924 53.4105 17.2159 53.4105 17.4382V18.5497L53.4599 18.5744ZM62.92 15.0917C62.92 16.3514 62.5742 17.3394 61.8579 18.1051C61.1416 18.8461 60.1783 19.2166 58.968 19.2166C57.7577 19.2166 56.7697 18.8461 56.0534 18.1051C55.3618 17.3641 54.9913 16.3514 54.9913 15.0917V13.7579C54.9913 12.4982 55.3371 11.5102 56.0534 10.7445C56.7697 10.0035 57.733 9.63299 58.968 9.63299C60.203 9.63299 61.1663 10.0035 61.8579 10.7445C62.5742 11.4855 62.92 12.4982 62.92 13.7579V15.0917ZM60.7464 15.0917V13.7579C60.7464 13.0416 60.5982 12.4982 60.2771 12.103C59.956 11.7078 59.5361 11.5102 58.968 11.5102C58.3999 11.5102 57.98 11.7078 57.6589 12.103C57.3378 12.4982 57.1896 13.0416 57.1896 13.7579V15.0917C57.1896 15.7833 57.3378 16.3267 57.6589 16.7219C57.9553 17.1171 58.3999 17.3147 58.968 17.3147C59.5361 17.3147 59.956 17.1171 60.2771 16.7219C60.5982 16.3267 60.7464 15.7833 60.7464 15.067V15.0917Z" fill="#5A4499"/>
</svg>
