<svg width="71" height="70" viewBox="0 0 71 70" fill="none" xmlns="http://www.w3.org/2000/svg">
<path fill-rule="evenodd" clip-rule="evenodd" d="M69.6151 57.9083C69.3624 56.6525 63.4429 27.0551 62.9069 24.5663C60.556 13.6156 55.0577 9.35022 43.2876 9.35022H19.0813C17.8101 9.35022 16.7839 10.3764 16.7839 11.6476C16.7839 12.9188 17.8101 13.9449 19.0813 13.9449H43.2876C53.9702 13.9449 56.7653 17.8427 58.4118 25.5312C58.473 25.8298 58.6262 26.5573 58.8406 27.5987H35.1091C3.1071 27.5987 0.380922 57.8701 0.357949 58.1764L0.166504 60.6498H70.1665L69.6151 57.9007V57.9083ZM5.32786 56.0628C5.84094 53.5434 6.99727 49.4312 9.49371 45.3266C14.8006 36.6196 23.4156 32.2011 35.1014 32.2011H59.7595C61.2375 39.5526 63.5119 50.8862 64.5457 56.0628H5.32786Z" fill="#5A4499"/>
<path fill-rule="evenodd" clip-rule="evenodd" d="M37.3374 40.1881C34.6649 40.1881 32.5054 42.3553 32.5054 45.0202C32.5054 47.6851 34.6725 49.8523 37.3374 49.8523C40.0024 49.8523 42.1695 47.6851 42.1695 45.0202C42.1695 42.3553 40.0024 40.1881 37.3374 40.1881Z" fill="#5A4499"/>
<path fill-rule="evenodd" clip-rule="evenodd" d="M23.0098 40.1881C20.3372 40.1881 18.1777 42.3553 18.1777 45.0202C18.1777 47.6851 20.3449 49.8523 23.0098 49.8523C25.6747 49.8523 27.8419 47.6851 27.8419 45.0202C27.8419 42.3553 25.6747 40.1881 23.0098 40.1881Z" fill="#5A4499"/>
<path fill-rule="evenodd" clip-rule="evenodd" d="M51.6578 40.1881C48.9852 40.1881 46.8257 42.3553 46.8257 45.0202C46.8257 47.6851 48.9928 49.8523 51.6578 49.8523C54.3227 49.8523 56.4898 47.6851 56.4898 45.0202C56.4898 42.3553 54.3227 40.1881 51.6578 40.1881Z" fill="#5A4499"/>
</svg>
