<svg width="71" height="70" viewBox="0 0 71 70" fill="none" xmlns="http://www.w3.org/2000/svg">
<path fill-rule="evenodd" clip-rule="evenodd" d="M69.9486 57.9084C69.6959 56.6525 63.7764 27.0551 63.2404 24.5663C60.8895 13.6156 55.3911 9.35022 43.6211 9.35022H19.4148C18.1436 9.35022 17.1174 10.3764 17.1174 11.6476C17.1174 12.9188 18.1436 13.9449 19.4148 13.9449H43.6211C54.3037 13.9449 57.0988 17.8504 58.7453 25.5312C58.8065 25.8298 58.9597 26.5573 59.1741 27.5988H35.4426C3.44059 27.5988 0.714419 57.8701 0.691445 58.1764L0.5 60.6498H70.5L69.9486 57.9007V57.9084ZM5.66136 56.0628C6.17443 53.5434 7.33076 49.4312 9.82721 45.3266C15.1341 36.6197 23.7491 32.2011 35.4349 32.2011H60.093C61.571 39.5526 63.8454 50.8862 64.8792 56.0628H5.66136Z" fill="#5A4499"/>
<path fill-rule="evenodd" clip-rule="evenodd" d="M44.8384 40.1882C42.1658 40.1882 40.0063 42.3554 40.0063 45.0203C40.0063 47.6852 42.1735 49.8524 44.8384 49.8524C47.5033 49.8524 49.6705 47.6852 49.6705 45.0203C49.6705 42.3554 47.5033 40.1882 44.8384 40.1882Z" fill="#5A4499"/>
<path fill-rule="evenodd" clip-rule="evenodd" d="M30.5035 40.1882C27.8309 40.1882 25.6714 42.3554 25.6714 45.0203C25.6714 47.6852 27.8385 49.8524 30.5035 49.8524C33.1684 49.8524 35.3355 47.6852 35.3355 45.0203C35.3355 42.3554 33.1684 40.1882 30.5035 40.1882Z" fill="#5A4499"/>
</svg>
