<svg width="71" height="70" viewBox="0 0 71 70" fill="none" xmlns="http://www.w3.org/2000/svg">
<path fill-rule="evenodd" clip-rule="evenodd" d="M70.2816 57.9084C70.0289 56.6525 64.1095 27.0551 63.5734 24.5663C61.2225 13.6156 55.7242 9.35022 43.9541 9.35022H19.7478C18.4766 9.35022 17.4504 10.3764 17.4504 11.6476C17.4504 12.9188 18.4766 13.9449 19.7478 13.9449H43.9541C54.6367 13.9449 57.4319 17.8504 59.0783 25.5312C59.1395 25.8298 59.2927 26.5573 59.5071 27.5988H35.7756C3.7736 27.5988 1.04743 57.8701 1.02445 58.1764L0.833008 60.6499H70.833L70.2816 57.9007V57.9084ZM5.99437 56.0628C6.50744 53.5434 7.66377 49.4312 10.1602 45.3266C15.4671 36.6197 24.0821 32.2011 35.7679 32.2011H60.426C61.904 39.5526 64.1784 50.8862 65.2122 56.0628H5.99437Z" fill="#5A4499"/>
<path fill-rule="evenodd" clip-rule="evenodd" d="M38.0039 40.1882C35.3314 40.1882 33.1719 42.3554 33.1719 45.0203C33.1719 47.6852 35.339 49.8524 38.0039 49.8524C40.6689 49.8524 42.836 47.6852 42.836 45.0203C42.836 42.3554 40.6689 40.1882 38.0039 40.1882Z" fill="#5A4499"/>
</svg>
