<svg width="71" height="70" viewBox="0 0 71 70" fill="none" xmlns="http://www.w3.org/2000/svg">
<path d="M18.9215 58.8199L14.771 63.1062H55.5617L51.4041 58.8199H18.9215Z" fill="#5A4499"/>
<path d="M62.9199 63.1062H68.4206L67.9063 60.5416C67.6705 59.37 62.1484 31.7523 61.6483 29.4377C60.7054 25.0586 59.2195 21.8296 56.9692 19.5651L53.9903 22.644C55.7976 24.4371 56.7477 27.0089 57.4621 30.345C57.5336 30.6807 57.7193 31.588 57.9836 32.881H44.0676L39.9171 37.1672H58.848C60.2267 44.0252 62.2556 54.1336 63.1914 58.8271H58.7694L36.6595 36.0171L69.8636 1.82004C70.278 1.39856 70.2637 0.719904 69.8422 0.305567C69.4207 -0.10877 68.7421 -0.0945047 68.3277 0.326976L52.4258 16.6719C49.9683 15.7075 46.9894 15.2574 43.3532 15.2574H26.8512C25.6653 15.2574 24.7081 16.2147 24.7081 17.4005C24.7081 18.5864 25.6653 19.5437 26.8512 19.5437H43.3532C45.6249 19.5437 47.5109 19.7365 49.0897 20.1151L36.7096 32.8882H34.1021C33.9449 32.8882 33.7878 32.8882 33.6306 32.8882L2.00527 0.319825C1.59093 -0.108799 0.912275 -0.11592 0.490794 0.298417C0.0693136 0.712754 0.055026 1.39141 0.469363 1.81289L33.6806 36.01L11.5707 58.8199H6.32009C7.48451 53.1264 12.228 38.9389 30.5802 37.3173L26.8655 33.4882C15.9641 35.4099 9.87052 41.5535 6.57012 46.8613C2.29816 53.7122 1.71237 60.513 1.69094 60.7987L1.50521 63.1133H7.41308L2.49104 68.1925C2.0767 68.614 2.09099 69.2927 2.51247 69.707C2.71964 69.907 2.9911 70.007 3.25542 70.007C3.51974 70.007 3.81263 69.8999 4.02695 69.6784L35.1665 37.553L66.3061 69.6784C66.5132 69.8927 66.799 70.007 67.0776 70.007C67.3562 70.007 67.6134 69.907 67.8205 69.707C68.242 69.2927 68.2563 68.614 67.842 68.1925L62.9199 63.1133V63.1062Z" fill="#5A4499"/>
</svg>
