<svg width="217" height="217" viewBox="0 0 217 217" fill="none" xmlns="http://www.w3.org/2000/svg">
<g clip-path="url(#clip0_384_30)">
<rect x="17.6055" width="200" height="200" rx="13.4831" transform="rotate(5 17.6055 0)" fill="url(#paint0_radial_384_30)"/>
<g clip-path="url(#clip1_384_30)">
<rect width="200" height="200" transform="translate(8.50977 8.33502)" fill="white"/>
<path d="M65.2184 127.328L69.0057 131.957L47.3338 147.107L39.1279 139.953C40.8813 138.199 45.7347 134.145 51.1211 131.957C56.5076 129.769 62.7637 127.96 65.2184 127.328Z" fill="#C9BEE4" stroke="#5A4499" stroke-width="0.540541"/>
<path d="M177.786 94.8163L144.226 83.8226L128.445 116.856L173.946 142.894L177.786 94.8163Z" fill="#30304E"/>
<path d="M97.9377 9.6055C102.987 8.17473 105.583 8.23786 106.249 8.44826C106.88 8.23786 108.311 8.57451 108.984 11.6044C109.657 14.6342 108.213 17.1451 107.406 18.0218C102.777 20.0908 93.1404 24.2498 91.6255 24.334C89.7318 24.4392 88.0486 24.0184 86.8913 22.1247C85.7341 20.2311 84.7873 17.7062 85.8393 16.3385C86.8913 14.9709 91.6255 11.394 97.9377 9.6055Z" fill="#30304E" stroke="black" stroke-width="0.540541"/>
<path d="M173.789 142.898L119.925 171.935L119.925 167.306L157.798 145.423L157.798 120.174L167.898 99.1337L177.576 95.7672L173.789 142.898Z" fill="#1A1A37" stroke="black" stroke-width="0.540541"/>
<path d="M144.543 83.774L135.127 87.614L144.543 91.3487L153.958 86.9828L144.543 83.774Z" fill="#69697E" stroke="black" stroke-width="0.540541"/>
<path d="M135.389 87.351L129.234 97.9765L137.545 103.763L144.647 91.2961L135.389 87.351Z" fill="#1A1A37" stroke="black" stroke-width="0.540541"/>
<path d="M154.957 93.821L146.014 109.602L145.488 110.022L158.428 118.439L168.054 99.0812L154.957 93.821Z" fill="#1A1A37" stroke="black" stroke-width="0.540541"/>
<path d="M155.957 98.3973L148.54 111.916L154.8 115.966L162.427 101.659L155.957 98.3973Z" fill="#69697E" stroke="black" stroke-width="0.540541"/>
<path d="M158.428 145.003L158.428 120.595L126.446 107.55L124.974 125.014L158.428 145.003Z" fill="#30304E" stroke="black" stroke-width="0.540541"/>
<path d="M150.012 150.894C151.864 149.716 162.006 150.403 166.845 150.894C164.741 149.07 159.186 144.54 153.8 141.005C148.413 137.47 124.343 123.962 112.981 117.65C95.3065 123.331 58.9481 135.071 54.9083 136.586C50.8685 138.101 47.0531 146.756 45.6504 150.894C46.7024 150.894 49.3115 151.146 51.3314 152.156C53.3513 153.166 57.9241 158.328 59.9581 160.783C60.0282 159.941 60.6735 157.964 62.6934 156.785C65.2183 155.312 68.3744 158.679 71.1096 163.518C73.2979 167.39 73.0033 178.177 72.5825 183.086L78.8947 187.084L77.2115 189.819L89.8359 208.335L120.976 193.607L114.033 180.351C115.786 177.686 120.513 171.219 125.395 166.674C131.496 160.993 147.698 152.367 150.012 150.894Z" fill="#C9BEE4" stroke="#5A4499" stroke-width="0.540541"/>
<path d="M95.9385 120.174L95.9385 102.5L118.452 115.966L118.452 132.168L139.703 147.107C135.635 148.93 128.036 152.973 123.66 151.626C118.189 149.943 102.882 137.424 100.62 134.636C98.7359 132.314 95.9385 127.64 95.9385 120.174Z" fill="#FFE800" stroke="black" stroke-width="0.540541"/>
<path d="M118.477 125.641C118.477 132.023 116.565 145.225 122.501 149.842C124.016 151.02 127.761 151.964 130.181 151.127" stroke="black" stroke-width="0.540541"/>
<path d="M121.187 193.396C116.839 193.677 106.963 194.785 102.25 196.973C97.5372 199.161 91.5897 205.459 89.2051 208.335" stroke="#5A4499" stroke-width="0.540541"/>
<path d="M97.6203 39.3781C94.9271 38.1998 92.1497 29.489 91.0977 25.2808L91.0977 24.86L96.8839 22.3351C97.3047 23.9132 98.3567 27.5953 99.1983 29.6994C100.25 32.3295 101.092 34.5387 104.459 32.8555C107.825 31.1722 106.983 28.8577 106.668 27.0693C106.352 25.2808 100.671 12.972 102.144 12.1304C103.617 11.2888 105.931 10.9731 107.509 11.394C109.087 11.8148 113.927 29.6994 113.296 32.8555C112.791 35.3804 110.49 37.274 109.403 37.9053C113.015 48.7763 121.144 71.5493 124.763 75.6733C128.382 79.7973 142.753 94.7853 149.486 101.764L150.432 101.027L150.432 83.9844L146.961 82.9324L146.961 78.5138L159.48 78.5138L159.48 82.9324L156.534 83.9844L155.272 94.9256L150.432 103.131L147.697 108.602C138.439 98.5726 119.545 78.093 118.03 76.4098C116.515 74.7265 107.72 51.0206 103.512 39.3781C102.67 39.8691 100.313 40.5564 97.6203 39.3781Z" fill="black" stroke="black" stroke-width="0.540541"/>
<path d="M112.033 79.3554L112.033 86.8249L116.873 89.8758L116.873 80.1971L119.292 81.0387L119.292 92.0851L123.816 94.8204C123.816 89.9109 123.648 79.7973 122.974 78.619C122.133 77.1462 116.031 75.2525 114.137 76.4097C112.622 77.3355 112.103 78.7593 112.033 79.3554Z" fill="black" stroke="black" stroke-width="0.540541"/>
<path d="M111.087 86.8735L171.895 126.907L167.476 132.799L107.721 93.4527L111.087 86.8735Z" fill="#1A1A37" stroke="black" stroke-width="0.540541"/>
<path d="M110.876 86.7198L66.4805 69.4664L63.0088 76.0902L107.299 93.6066L110.876 86.7198Z" fill="#69697E" stroke="black" stroke-width="0.540541"/>
<path d="M62.7979 76.0375L125.604 115.966L167.265 132.847L107.457 93.6065L62.7979 76.0375Z" fill="black"/>
<path d="M62.7979 76.0375L125.604 115.966L167.265 132.847L107.457 93.6065L62.7979 76.0375Z" stroke="black" stroke-width="0.540541"/>
<path d="M62.7979 76.0375L125.604 115.966L167.265 132.847L107.457 93.6065L62.7979 76.0375Z" stroke="black" stroke-opacity="0.2" stroke-width="0.540541"/>
<path d="M154.852 94.5048L164.004 90.9238L177.891 95.2898L167.686 99.1337L154.852 94.5048Z" fill="#69697E"/>
<path d="M164.004 90.9238L164.085 90.666L163.994 90.6374L163.906 90.6721L164.004 90.9238ZM154.852 94.5048L154.753 94.2531L154.083 94.5151L154.76 94.759L154.852 94.5048ZM167.686 99.1337L167.595 99.388L167.688 99.4218L167.782 99.3866L167.686 99.1337ZM177.891 95.2898L177.986 95.5427L177.972 95.0319L177.891 95.2898ZM163.906 90.6721L154.753 94.2531L154.95 94.7565L164.103 91.1755L163.906 90.6721ZM154.76 94.759L167.595 99.388L167.778 98.8795L154.943 94.2505L154.76 94.759ZM167.782 99.3866L177.986 95.5427L177.796 95.0369L167.591 98.8808L167.782 99.3866ZM177.972 95.0319L164.085 90.666L163.923 91.1817L177.81 95.5476L177.972 95.0319Z" fill="black"/>
</g>
</g>
<defs>
<radialGradient id="paint0_radial_384_30" cx="0" cy="0" r="1" gradientUnits="userSpaceOnUse" gradientTransform="translate(129.155 81.422) rotate(132.846) scale(133.628 157.314)">
<stop stop-color="white"/>
<stop offset="0.981848" stop-color="#F2F4F5"/>
</radialGradient>
<clipPath id="clip0_384_30">
<rect x="17.6055" width="200" height="200" rx="13.4831" transform="rotate(5 17.6055 0)" fill="white"/>
</clipPath>
<clipPath id="clip1_384_30">
<rect width="200" height="200" fill="white" transform="translate(8.50977 8.33502)"/>
</clipPath>
</defs>
</svg>
