<svg width="217" height="217" viewBox="0 0 217 217" fill="none" xmlns="http://www.w3.org/2000/svg">
<g clip-path="url(#clip0_384_954)">
<rect x="17.6055" width="200" height="200" rx="13.4831" transform="rotate(5 17.6055 0)" fill="url(#paint0_radial_384_954)"/>
<g clip-path="url(#clip1_384_954)">
<rect width="200" height="200" transform="translate(8.50977 8.33502)" fill="white"/>
<path d="M8.50977 94.912L8.50977 91.209L54.4878 70.9972L119.906 102.935L119.906 106.329L73.1568 126.078L8.50977 94.912Z" fill="#30304E" stroke="black" stroke-width="0.540541"/>
<path d="M64.0537 67.9885L64.0537 64.2856L110.032 44.0737L175.45 76.0115L175.45 79.4059L128.855 99.232L64.0537 67.9885Z" fill="#30304E" stroke="black" stroke-width="0.540541"/>
<path d="M8.50977 91.5176L12.4185 93.4254M73.3111 123.147L119.598 103.244M73.3111 123.147L73.3111 126.078M73.3111 123.147L70.2168 121.636M70.2168 121.636L12.4185 93.4254M70.2168 121.636L113.462 102.708M116.821 101.238L113.462 102.708M12.4185 93.4254L54.5526 74.0696M57.8822 72.54L54.5526 74.0696M54.5526 74.0696L113.462 102.708" stroke="black" stroke-width="0.540541"/>
<path d="M64.0537 64.5942L67.9624 66.502M128.855 96.2234L175.142 76.3201M128.855 96.2234L128.855 99.4634M128.855 96.2234L125.761 94.7131M125.761 94.7131L67.9624 66.502M125.761 94.7131L169.006 75.7845M172.364 74.3144L169.006 75.7845M67.9624 66.502L110.097 47.1462M113.426 45.6166L110.097 47.1462M110.097 47.1462L169.006 75.7845" stroke="black" stroke-width="0.540541"/>
<path d="M16.5332 91.6719L74.3915 119.598" stroke="black" stroke-width="0.540541"/>
<path d="M72.0771 64.7485L129.935 92.6748" stroke="black" stroke-width="0.540541"/>
<path d="M57.4185 78.0945L22.0864 94.1405C20.8183 93.412 18.7575 92.0296 16.8174 90.3095C15.0594 88.7509 13.4006 86.9151 12.5205 85.0375C10.669 81.0877 12.4691 79.8945 13.6005 79.7917L49.8584 64.3628C50.2698 64.3628 51.0927 64.6714 51.0927 65.9057C51.0927 67.14 52.5327 72.1801 53.2527 74.5459L57.4185 78.0945Z" fill="white"/>
<path d="M13.6005 79.7917C12.4691 79.8945 10.669 81.0877 12.5205 85.0375C13.4006 86.9151 15.0594 88.7509 16.8174 90.3095M13.6005 79.7917L49.8584 64.3628C50.2698 64.3628 51.0927 64.6714 51.0927 65.9057C51.0927 67.14 52.5327 72.1801 53.2527 74.5459L57.4185 78.0945L22.0864 94.1405C20.8183 93.412 18.7575 92.0296 16.8174 90.3095M13.6005 79.7917C14.0634 80.306 15.1125 81.9209 15.6063 84.2661C16.1 86.6112 16.6194 89.2722 16.8174 90.3095" stroke="black" stroke-width="0.540541"/>
<path d="M58.3447 78.0944L110.88 103.706L74.6221 119.675L19.541 92.9833L21.7782 91.0547C26.0983 87.9689 27.9417 89.8346 31.3441 86.7346C34.8156 83.5717 39.5214 85.5003 44.9215 81.7974C46.0179 81.0456 52.636 77.8373 55.4132 76.243L58.3447 78.0944Z" fill="#FFE800" stroke="black" stroke-width="0.540541"/>
<path d="M113.889 51.171L166.27 76.783L130.166 92.829L74.5452 65.6742C73.7738 65.6742 110.34 49.4739 110.34 49.4739L113.889 51.171Z" fill="#4F4F70"/>
<path d="M110.34 49.4739L113.889 51.171L166.27 76.783L130.166 92.829L74.5452 65.6742C73.7738 65.6742 110.34 49.4739 110.34 49.4739ZM110.34 49.4739L110.34 46.6195" stroke="black" stroke-width="0.540541"/>
<path d="M68.9879 91.1396C68.4933 91.0569 66.8393 91.5541 66.8393 91.5541C66.5577 91.3915 66.163 91.3374 65.8106 91.3916C65.8962 91.4185 65.9735 91.4535 66.0425 91.4933L66.054 91.4999C66.1833 91.5778 66.3846 91.7005 66.6377 91.8562C66.8476 91.9839 67.092 92.1347 67.3595 92.2987C67.3595 92.2987 67.3624 92.3004 67.3652 92.302C67.5234 92.3998 67.6873 92.5009 67.857 92.6053C67.8628 92.6086 67.8714 92.6136 67.8771 92.6169C67.9001 92.6302 67.9231 92.6435 67.9432 92.6551C67.9547 92.6617 67.9662 92.6683 67.9777 92.675C68.0007 92.6882 68.0236 92.7015 68.0495 92.7164C68.0523 92.7181 68.0552 92.7197 68.061 92.7231C68.0897 92.7396 68.1156 92.7546 68.1443 92.7712L68.15 92.7745C68.1989 92.8027 68.2478 92.8342 68.2967 92.8656C68.3111 92.8739 68.3226 92.8806 68.3341 92.8872C68.3542 92.8988 68.3743 92.9104 68.3944 92.922C68.4088 92.9303 68.4203 92.9369 68.4346 92.9452C68.4547 92.9568 68.472 92.9668 68.4921 92.9784C68.5093 92.9884 68.5266 92.9983 68.5438 93.0083C68.561 93.0182 68.5783 93.0282 68.5955 93.0381C68.6128 93.0481 68.63 93.058 68.6501 93.0697C68.6673 93.0796 68.6846 93.0896 68.7047 93.1012C68.7219 93.1111 68.7363 93.1194 68.7535 93.1294C68.7851 93.1476 68.8167 93.1658 68.8456 93.1857C68.8657 93.1973 68.8858 93.2089 68.9031 93.2189C68.9203 93.2288 68.9375 93.2388 68.9519 93.2471C68.972 93.2587 68.9921 93.2703 69.0094 93.2802C69.0266 93.2902 69.0438 93.3002 69.0582 93.3084C69.0783 93.3201 69.0955 93.33 69.1156 93.3416C69.1329 93.3516 69.1501 93.3615 69.1645 93.3698C69.1846 93.3814 69.2076 93.3947 69.2277 93.4063C69.2421 93.4146 69.2564 93.4229 69.2708 93.4312C69.2995 93.4478 69.3254 93.4627 69.3513 93.4809C69.3599 93.4859 69.3657 93.4892 69.3743 93.4942C69.4087 93.5141 69.4404 93.5356 69.4721 93.5571C69.4836 93.5637 69.4951 93.5704 69.5037 93.5753C69.5267 93.5886 69.5525 93.6036 69.5728 93.6184C69.5871 93.6267 69.6015 93.635 69.6159 93.6433C69.636 93.6549 69.659 93.6682 69.6791 93.6798C69.6934 93.6881 69.7078 93.6964 69.7193 93.703C69.7423 93.7163 69.7653 93.7296 69.7826 93.7428C69.794 93.7494 69.8055 93.7561 69.817 93.7627C69.8429 93.7776 69.8659 93.7909 69.889 93.8074C69.9005 93.8141 69.912 93.8207 69.9206 93.8257C69.955 93.8456 69.9867 93.8671 70.0184 93.8886C70.0242 93.8919 70.027 93.8936 70.0328 93.8969C70.0586 93.9118 70.0874 93.9284 70.1133 93.9466C70.1277 93.9549 70.1392 93.9616 70.1506 93.9682C70.1736 93.9815 70.1937 93.9931 70.2139 94.0079C70.2254 94.0146 70.2369 94.0212 70.2513 94.0295C70.2714 94.0411 70.2944 94.0544 70.3117 94.0676C70.3232 94.0742 70.3376 94.0825 70.3491 94.0892C70.3721 94.1024 70.395 94.1157 70.4152 94.1306C70.4238 94.1356 70.4353 94.1422 70.444 94.1472C70.5044 94.1853 70.5648 94.2234 70.6224 94.2631C70.6339 94.2697 70.6454 94.2764 70.654 94.2814C70.6741 94.293 70.6971 94.3062 70.7144 94.3194C70.7259 94.3261 70.7346 94.3311 70.7461 94.3377C70.7662 94.3493 70.7863 94.3609 70.8035 94.3741C70.815 94.3808 70.8265 94.3874 70.838 94.394C70.8582 94.4057 70.8783 94.4173 70.8928 94.4288C70.9042 94.4355 70.9128 94.4404 70.9215 94.4454C70.9444 94.4587 70.9674 94.4719 70.9847 94.4852C70.9905 94.4885 70.9991 94.4935 71.0048 94.4968C71.0335 94.5134 71.0567 94.5299 71.0826 94.5481C71.0912 94.5531 71.097 94.5564 71.1056 94.5614C71.1257 94.573 71.1458 94.5846 71.1603 94.5962C71.1689 94.6011 71.1804 94.6078 71.189 94.6127C71.2062 94.6227 71.2234 94.6326 71.235 94.6425C71.2465 94.6492 71.2551 94.6541 71.2638 94.6591C71.281 94.6691 71.2983 94.679 71.3127 94.6906C71.3213 94.6956 71.3299 94.7006 71.3385 94.7055C71.3586 94.7171 71.3759 94.7271 71.3903 94.7386C71.3961 94.742 71.4018 94.7453 71.4104 94.7502C71.4334 94.7635 71.4536 94.7784 71.4739 94.7933C71.4796 94.7966 71.4825 94.7983 71.4882 94.8016C71.5083 94.8132 71.5255 94.8231 71.5372 94.8363C71.5458 94.8413 71.5515 94.8446 71.5602 94.8496C71.5745 94.8579 71.5889 94.8662 71.6005 94.8761C71.6091 94.881 71.6177 94.886 71.6235 94.8893C71.6379 94.8976 71.6494 94.9043 71.658 94.9125C71.6666 94.9175 71.6724 94.9208 71.681 94.9258C71.6954 94.9341 71.7069 94.9407 71.7185 94.9506C71.7242 94.9539 71.7299 94.9572 71.7357 94.9606C71.7558 94.9722 71.7703 94.9838 71.7847 94.9953C71.7876 94.997 71.7905 94.9986 71.7933 95.0003C73.7069 93.8158 72.2707 92.5584 72.2707 92.5584C72.2707 92.5584 69.5827 91.1578 69.0882 91.0784" fill="#30304E"/>
<path d="M53.8799 99.8621C53.7367 99.5765 54.5978 98.6215 54.5978 98.6215C54.3163 98.459 54.2226 98.2311 54.3164 98.0276C54.3629 98.077 54.4235 98.1217 54.4925 98.1615L54.504 98.1681C54.6389 98.2428 54.8514 98.3591 55.1211 98.5052C55.3422 98.6264 55.6034 98.7675 55.8876 98.9219C55.8876 98.9219 55.8905 98.9235 55.8933 98.9252C56.0627 99.0165 56.2377 99.1112 56.4186 99.2091C56.4244 99.2124 56.433 99.2174 56.4387 99.2207C56.4617 99.234 56.4847 99.2473 56.5048 99.2589C56.5163 99.2655 56.5278 99.2722 56.5393 99.2788C56.5622 99.2921 56.5852 99.3053 56.6111 99.3203C56.6139 99.3219 56.6168 99.3236 56.6226 99.3269C56.6513 99.3435 56.6772 99.3584 56.7059 99.375C56.7059 99.375 56.7087 99.3766 56.7116 99.3783C56.7605 99.4065 56.8149 99.4348 56.8694 99.463C56.8838 99.4713 56.8953 99.478 56.9068 99.4846C56.9269 99.4962 56.947 99.5078 56.9671 99.5194C56.9815 99.5277 56.993 99.5343 57.0073 99.5426C57.0274 99.5542 57.0447 99.5642 57.0648 99.5758C57.082 99.5858 57.0993 99.5957 57.1165 99.6057C57.1337 99.6156 57.151 99.6256 57.1682 99.6355C57.1855 99.6455 57.2027 99.6554 57.2228 99.6671C57.24 99.677 57.2573 99.687 57.2774 99.6986C57.2946 99.7085 57.309 99.7168 57.3262 99.7268C57.3578 99.745 57.3894 99.7632 57.4239 99.7799C57.444 99.7915 57.4641 99.8031 57.4813 99.8131C57.4985 99.823 57.5158 99.833 57.5302 99.8413C57.5503 99.8529 57.5704 99.8645 57.5876 99.8744C57.6049 99.8844 57.6221 99.8943 57.6364 99.9026C57.6566 99.9142 57.6738 99.9242 57.6939 99.9358C57.7112 99.9457 57.7284 99.9557 57.7427 99.964C57.7629 99.9756 57.7859 99.9889 57.806 100C57.8204 100.009 57.8347 100.017 57.8491 100.025C57.8778 100.042 57.9037 100.057 57.9351 100.072C57.9437 100.077 57.9495 100.08 57.9581 100.085C57.9926 100.105 58.0271 100.125 58.0644 100.143C58.0759 100.15 58.0873 100.156 58.0959 100.161C58.119 100.175 58.1448 100.19 58.1705 100.201C58.1849 100.21 58.1993 100.218 58.2137 100.226C58.2338 100.238 58.2568 100.251 58.2769 100.263C58.2912 100.271 58.3056 100.279 58.3171 100.286C58.3401 100.299 58.3631 100.312 58.386 100.322C58.3975 100.329 58.409 100.336 58.4205 100.342C58.4463 100.357 58.4693 100.371 58.4979 100.384C58.5094 100.391 58.5209 100.397 58.5295 100.402C58.564 100.422 58.6013 100.44 58.6385 100.459C58.6443 100.462 58.6471 100.464 58.6529 100.467C58.6788 100.482 58.7075 100.498 58.739 100.513C58.7534 100.522 58.7649 100.528 58.7764 100.535C58.7994 100.548 58.8195 100.56 58.8452 100.572C58.8567 100.578 58.8682 100.585 58.8826 100.593C58.9027 100.605 58.9257 100.618 58.9485 100.628C58.96 100.635 58.9744 100.643 58.9859 100.65C59.0089 100.663 59.0319 100.676 59.0577 100.688C59.0663 100.693 59.0777 100.699 59.0864 100.704C59.1523 100.739 59.2184 100.774 59.2871 100.807C59.2986 100.814 59.3101 100.821 59.3188 100.826C59.3389 100.837 59.3619 100.85 59.3847 100.86C59.3962 100.867 59.4049 100.872 59.4164 100.879C59.4365 100.89 59.4566 100.902 59.4795 100.912C59.491 100.919 59.5025 100.925 59.5139 100.932C59.5341 100.943 59.5542 100.955 59.5742 100.963C59.5857 100.97 59.5943 100.975 59.6029 100.98C59.6259 100.993 59.6489 101.007 59.6717 101.017C59.6775 101.02 59.6861 101.025 59.6919 101.028C59.7206 101.045 59.7493 101.058 59.7808 101.073C59.7894 101.078 59.7951 101.081 59.8038 101.086C59.8239 101.098 59.844 101.11 59.8641 101.118C59.8727 101.123 59.8842 101.129 59.8928 101.134C59.91 101.144 59.9272 101.154 59.9444 101.161C59.9559 101.168 59.9645 101.173 59.9731 101.178C59.9903 101.188 60.0076 101.198 60.0276 101.206C60.0362 101.211 60.0449 101.216 60.0535 101.221C60.0736 101.232 60.0909 101.242 60.1108 101.251L60.1309 101.262C60.1567 101.274 60.1825 101.286 60.2083 101.297C60.214 101.301 60.2169 101.302 60.2227 101.306C60.2428 101.317 60.26 101.327 60.2828 101.334C60.2914 101.339 60.2971 101.342 60.3058 101.347C60.3201 101.355 60.3345 101.364 60.3517 101.37C60.3603 101.375 60.3689 101.38 60.3747 101.384C60.389 101.392 60.4005 101.399 60.4148 101.404C60.4234 101.409 60.4292 101.412 60.4378 101.417C60.4521 101.425 60.4636 101.432 60.4808 101.439C60.4866 101.442 60.4923 101.445 60.498 101.448C60.5181 101.46 60.5382 101.468 60.5582 101.477C60.5611 101.478 60.564 101.48 60.5668 101.482C58.5153 102.587 56.3401 101.756 56.3401 101.756C56.3401 101.756 53.9142 100.204 53.7739 99.92" fill="#30304E"/>
<path d="M59.3025 94.2702C56.6591 95.7963 55.0635 97.3479 55.7329 97.7344C55.7329 97.7344 61.3939 100.832 62.1363 101.087C62.8759 101.343 66.5442 101.693 67.7948 101.353C68.5107 101.238 69.3492 100.943 70.1078 100.509C70.8634 100.072 71.3716 99.5865 71.5703 99.1732C72.1601 98.4512 71.5534 96.3333 71.1094 95.9063C70.6653 95.4793 65.3027 92.2092 65.3027 92.2092C64.6304 91.8211 61.9459 92.744 59.3025 94.2702Z" fill="#30304E"/>
<path d="M66.6748 107.964L66.6633 107.957C67.0629 107.1 67.8191 106.139 68.5479 105.32L70.3132 104.858C71.897 104.382 73.2108 103.862 74.5632 103.081C75.6702 102.442 76.6001 101.743 77.3594 101.006L78.4275 99.6294C78.4275 99.6294 78.4384 99.6132 78.4467 99.6051C78.4467 99.6051 78.4467 99.6051 78.4494 99.6035C79.865 99.1843 81.5263 98.7493 83.0145 98.5171C85.2414 98.1735 87.4993 98.0443 89.6947 98.1302L91.7805 96.926C88.0632 96.1064 83.8612 96.0212 79.7882 96.6543C78.2999 96.8866 76.6386 97.3215 75.2202 97.7391C75.2202 97.7391 75.2202 97.7391 75.2174 97.7407C75.2121 97.7504 75.2065 97.7569 75.1983 97.765L74.1301 99.1414C73.3737 99.8766 72.4438 100.576 71.334 101.217C69.9788 101.999 68.6678 102.517 67.0839 102.994L65.3186 103.456C64.5898 104.275 63.8336 105.235 63.4341 106.093L63.4456 106.1C62.349 108.451 62.4882 110.879 63.8993 113.023L65.9934 111.814C65.8502 110.547 66.0769 109.245 66.6748 107.964Z" fill="#30304E"/>
<path d="M81.9949 101.471L71.7754 107.371L72.7321 107.923L82.9516 102.023L81.9949 101.471Z" fill="#30304E"/>
<path d="M63.2517 89.7437C62.8873 89.7684 61.8282 89.5272 60.83 89.3372C60.5199 89.2774 60.2158 89.2241 59.9345 89.1841C59.7442 89.1579 59.5654 89.1352 59.4095 89.1256C59.2281 89.1143 59.0128 89.1091 58.7808 89.1104C58.7271 89.1116 58.6705 89.1111 58.6167 89.1122C58.5347 89.1132 58.4583 89.1142 58.3734 89.1167C58.314 89.1178 58.2546 89.119 58.1952 89.1201C58.2066 89.1202 58.2179 89.1203 58.2292 89.1204C58.2122 89.1202 58.1925 89.1217 58.1755 89.1215C58.1528 89.1213 58.1331 89.1228 58.1104 89.1226C58.1217 89.1227 58.1358 89.1212 58.1472 89.1213C57.8672 89.1303 57.5789 89.1442 57.3048 89.1598C57.3048 89.1598 57.2991 89.1597 57.2935 89.1597C57.2483 89.1625 57.2002 89.1638 57.1522 89.1683C57.1494 89.1699 57.1409 89.1682 57.1352 89.1681C57.09 89.171 57.0448 89.1739 57.0053 89.1768C57.0025 89.1784 56.9912 89.1783 56.9855 89.1783C56.9403 89.1811 56.9008 89.184 56.8583 89.1853C56.8526 89.1853 56.847 89.1852 56.8385 89.1868C56.799 89.1897 56.7538 89.1926 56.7143 89.1955C56.7143 89.1955 56.7058 89.1971 56.7029 89.1954C56.6831 89.1969 56.6691 89.1984 56.652 89.1983L57.83 89.8783C58.0397 89.9994 58.028 90.2019 57.8049 90.3307L56.9684 90.8137C56.7453 90.9425 56.3946 90.9492 56.1848 90.8282L53.7169 89.4033C53.5152 89.4833 53.2914 89.5827 53.0454 89.7014L56.6453 91.7798C56.855 91.9009 56.8432 92.1034 56.623 92.2306L55.7864 92.7136C55.5634 92.8423 55.2127 92.8491 55.0029 92.728L51.4031 90.6497C51.1973 90.7917 51.0252 90.9209 50.8867 91.0373L53.3517 92.4605C53.5615 92.5816 53.5497 92.7841 53.3266 92.9129L52.4901 93.3959C52.2671 93.5247 51.9163 93.5315 51.7066 93.4104L50.5286 92.7303C50.5286 92.7303 50.5235 92.7499 50.5238 92.7596C50.5238 92.7596 50.5211 92.7645 50.5211 92.7678C50.5161 92.7906 50.5111 92.8167 50.506 92.8396C50.5061 92.8428 50.5034 92.8477 50.5035 92.851C50.4984 92.8738 50.4934 92.8999 50.4912 92.9244C50.4913 92.9277 50.4914 92.9309 50.4887 92.9358C50.4837 92.9619 50.4815 92.9864 50.4736 93.0109C50.4709 93.0125 50.4738 93.0174 50.4739 93.0207C50.4689 93.0468 50.4668 93.0745 50.459 93.1022C50.459 93.1022 50.4591 93.1055 50.4592 93.1087C50.4322 93.267 50.4082 93.4335 50.3926 93.5951C50.3927 93.6016 50.39 93.6065 50.393 93.6114C50.3932 93.6213 50.3907 93.6326 50.3909 93.6425C50.3908 93.6359 50.3906 93.6294 50.3904 93.6229C50.3885 93.6572 50.3837 93.6931 50.3818 93.7273C50.3802 93.7747 50.3786 93.8221 50.3741 93.8678C50.375 93.9005 50.3729 93.9315 50.3709 93.9625C50.3687 94.0965 50.3776 94.2208 50.3973 94.3255C50.4167 94.4172 50.4532 94.5188 50.4986 94.6286C50.5678 94.7877 50.6629 94.965 50.7638 95.1456C51.0957 95.7237 51.5105 96.3334 51.4678 96.5438C51.3523 97.1082 52.884 98.0086 53.3062 98.2459C52.9749 97.5845 55.1331 95.6784 58.44 93.7658C61.7498 91.8549 65.0542 90.6105 66.1997 90.8018C65.7887 90.5581 64.2291 89.6737 63.2516 89.7404L63.2517 89.7437Z" fill="#30304E"/>
<path d="M124.533 64.2162C124.038 64.1335 122.384 64.6307 122.384 64.6307C122.103 64.4681 121.708 64.414 121.355 64.4682C121.441 64.4951 121.518 64.5301 121.587 64.5699L121.599 64.5765C121.728 64.6544 121.93 64.7771 122.183 64.9328C122.392 65.0605 122.637 65.2113 122.904 65.3753C122.904 65.3753 122.907 65.377 122.91 65.3786C123.068 65.4764 123.232 65.5775 123.402 65.6819C123.408 65.6852 123.416 65.6902 123.422 65.6935C123.445 65.7068 123.468 65.7201 123.488 65.7317C123.5 65.7383 123.511 65.7449 123.523 65.7516C123.546 65.7648 123.569 65.7781 123.594 65.793C123.597 65.7947 123.6 65.7963 123.606 65.7997C123.635 65.8162 123.66 65.8312 123.689 65.8478L123.695 65.8511C123.744 65.8793 123.793 65.9108 123.842 65.9422C123.856 65.9505 123.868 65.9572 123.879 65.9638C123.899 65.9754 123.919 65.987 123.939 65.9986C123.954 66.0069 123.965 66.0135 123.98 66.0218C124 66.0334 124.017 66.0434 124.037 66.055C124.054 66.065 124.071 66.0749 124.089 66.0849C124.106 66.0948 124.123 66.1048 124.14 66.1147C124.158 66.1247 124.175 66.1346 124.195 66.1463C124.212 66.1562 124.23 66.1662 124.25 66.1778C124.267 66.1877 124.281 66.196 124.298 66.206C124.33 66.2242 124.362 66.2424 124.391 66.2623C124.411 66.2739 124.431 66.2855 124.448 66.2955C124.465 66.3054 124.482 66.3154 124.497 66.3237C124.517 66.3353 124.537 66.3469 124.554 66.3568C124.571 66.3668 124.589 66.3768 124.603 66.385C124.623 66.3967 124.64 66.4066 124.661 66.4182C124.678 66.4282 124.695 66.4381 124.709 66.4464C124.73 66.458 124.753 66.4713 124.773 66.4829C124.787 66.4912 124.801 66.4995 124.816 66.5078C124.844 66.5244 124.87 66.5393 124.896 66.5575C124.905 66.5625 124.911 66.5658 124.919 66.5708C124.954 66.5907 124.985 66.6122 125.017 66.6337C125.029 66.6403 125.04 66.647 125.049 66.6519C125.072 66.6652 125.097 66.6801 125.118 66.695C125.132 66.7033 125.146 66.7116 125.161 66.7199C125.181 66.7315 125.204 66.7448 125.224 66.7564C125.238 66.7647 125.253 66.773 125.264 66.7796C125.287 66.7929 125.31 66.8062 125.327 66.8194C125.339 66.826 125.35 66.8327 125.362 66.8393C125.388 66.8542 125.411 66.8675 125.434 66.884C125.445 66.8907 125.457 66.8973 125.465 66.9023C125.5 66.9222 125.532 66.9437 125.563 66.9652C125.569 66.9685 125.572 66.9702 125.578 66.9735C125.604 66.9884 125.632 67.005 125.658 67.0232C125.673 67.0315 125.684 67.0382 125.696 67.0448C125.719 67.0581 125.739 67.0697 125.759 67.0845C125.77 67.0912 125.782 67.0978 125.796 67.1061C125.816 67.1177 125.839 67.131 125.857 67.1442C125.868 67.1508 125.883 67.1591 125.894 67.1658C125.917 67.179 125.94 67.1923 125.96 67.2072C125.969 67.2122 125.98 67.2188 125.989 67.2238C126.049 67.2619 126.11 67.3 126.167 67.3397C126.179 67.3463 126.19 67.353 126.199 67.358C126.219 67.3696 126.242 67.3828 126.259 67.396C126.271 67.4027 126.279 67.4077 126.291 67.4143C126.311 67.4259 126.331 67.4375 126.348 67.4507C126.36 67.4574 126.371 67.464 126.383 67.4706C126.403 67.4823 126.423 67.4939 126.438 67.5054C126.449 67.5121 126.458 67.517 126.466 67.522C126.489 67.5353 126.512 67.5485 126.53 67.5618C126.535 67.5651 126.544 67.5701 126.55 67.5734C126.578 67.59 126.602 67.6065 126.628 67.6247C126.636 67.6297 126.642 67.633 126.651 67.638C126.671 67.6496 126.691 67.6612 126.705 67.6728C126.714 67.6777 126.725 67.6844 126.734 67.6893C126.751 67.6993 126.768 67.7092 126.78 67.7191C126.791 67.7258 126.8 67.7307 126.809 67.7357C126.826 67.7457 126.843 67.7556 126.858 67.7672C126.866 67.7722 126.875 67.7772 126.883 67.7821C126.904 67.7937 126.921 67.8037 126.935 67.8152C126.941 67.8186 126.947 67.8219 126.955 67.8268C126.978 67.8401 126.999 67.855 127.019 67.8699C127.024 67.8732 127.027 67.8749 127.033 67.8782C127.053 67.8898 127.07 67.8997 127.082 67.9129C127.091 67.9179 127.096 67.9212 127.105 67.9262C127.119 67.9345 127.134 67.9428 127.145 67.9527C127.154 67.9576 127.163 67.9626 127.168 67.9659C127.183 67.9742 127.194 67.9809 127.203 67.9891C127.212 67.9941 127.217 67.9974 127.226 68.0024C127.24 68.0107 127.252 68.0173 127.263 68.0272C127.269 68.0305 127.275 68.0338 127.281 68.0372C127.301 68.0488 127.315 68.0604 127.33 68.0719C127.333 68.0736 127.335 68.0752 127.338 68.0769C129.252 66.8924 127.816 65.635 127.816 65.635C127.816 65.635 125.128 64.2344 124.633 64.155" fill="#30304E"/>
<path d="M109.425 72.9387C109.282 72.6531 110.143 71.6981 110.143 71.6981C109.861 71.5356 109.768 71.3077 109.861 71.1042C109.908 71.1536 109.968 71.1983 110.037 71.2381L110.049 71.2447C110.184 71.3194 110.396 71.4357 110.666 71.5818C110.887 71.703 111.148 71.8441 111.432 71.9985C111.432 71.9985 111.435 72.0001 111.438 72.0018C111.608 72.0931 111.783 72.1878 111.964 72.2857C111.969 72.289 111.978 72.294 111.984 72.2973C112.007 72.3106 112.03 72.3239 112.05 72.3355C112.061 72.3421 112.073 72.3488 112.084 72.3554C112.107 72.3687 112.13 72.3819 112.156 72.3969C112.159 72.3985 112.162 72.4002 112.168 72.4035C112.196 72.4201 112.222 72.435 112.251 72.4516C112.251 72.4516 112.254 72.4532 112.257 72.4549C112.305 72.4831 112.36 72.5114 112.414 72.5396C112.429 72.5479 112.44 72.5546 112.452 72.5612C112.472 72.5728 112.492 72.5844 112.512 72.596C112.526 72.6043 112.538 72.6109 112.552 72.6192C112.572 72.6308 112.59 72.6408 112.61 72.6524C112.627 72.6624 112.644 72.6723 112.661 72.6823C112.679 72.6922 112.696 72.7022 112.713 72.7121C112.73 72.7221 112.748 72.732 112.768 72.7437C112.785 72.7536 112.802 72.7636 112.822 72.7752C112.84 72.7851 112.854 72.7934 112.871 72.8034C112.903 72.8216 112.934 72.8398 112.969 72.8565C112.989 72.8681 113.009 72.8797 113.026 72.8897C113.043 72.8996 113.061 72.9096 113.075 72.9179C113.095 72.9295 113.115 72.9411 113.133 72.951C113.15 72.961 113.167 72.9709 113.181 72.9792C113.202 72.9908 113.219 73.0008 113.239 73.0124C113.256 73.0223 113.273 73.0323 113.288 73.0406C113.308 73.0522 113.331 73.0655 113.351 73.0771C113.365 73.0854 113.38 73.0937 113.394 73.102C113.423 73.1186 113.449 73.1335 113.48 73.1485C113.489 73.1534 113.494 73.1568 113.503 73.1617C113.538 73.1816 113.572 73.2015 113.609 73.2198C113.621 73.2265 113.632 73.2331 113.641 73.2381C113.664 73.2514 113.69 73.2663 113.715 73.2779C113.73 73.2862 113.744 73.2945 113.759 73.3028C113.779 73.3144 113.802 73.3277 113.822 73.3393C113.836 73.3476 113.851 73.3559 113.862 73.3625C113.885 73.3758 113.908 73.3891 113.931 73.3991C113.942 73.4057 113.954 73.4123 113.965 73.419C113.991 73.4339 114.014 73.4472 114.043 73.4605C114.054 73.4671 114.066 73.4738 114.074 73.4787C114.109 73.4986 114.146 73.5169 114.183 73.5352C114.189 73.5386 114.192 73.5402 114.198 73.5435C114.224 73.5585 114.252 73.575 114.284 73.59C114.298 73.5983 114.31 73.6049 114.321 73.6116C114.344 73.6249 114.364 73.6365 114.39 73.6481C114.402 73.6548 114.413 73.6614 114.428 73.6697C114.448 73.6813 114.471 73.6946 114.493 73.7046C114.505 73.7112 114.519 73.7195 114.531 73.7261C114.554 73.7394 114.577 73.7527 114.603 73.7643C114.611 73.7693 114.623 73.7759 114.631 73.7809C114.697 73.8158 114.763 73.8507 114.832 73.8839C114.844 73.8906 114.855 73.8972 114.864 73.9022C114.884 73.9138 114.907 73.9271 114.93 73.9371C114.941 73.9437 114.95 73.9487 114.961 73.9553C114.981 73.9669 115.001 73.9785 115.024 73.9885C115.036 73.9952 115.047 74.0018 115.059 74.0084C115.079 74.0201 115.099 74.0317 115.119 74.04C115.131 74.0467 115.139 74.0516 115.148 74.0566C115.171 74.0699 115.194 74.0831 115.217 74.0932C115.222 74.0965 115.231 74.1015 115.237 74.1048C115.266 74.1214 115.294 74.1347 115.326 74.1497C115.334 74.1546 115.34 74.1579 115.349 74.1629C115.369 74.1745 115.389 74.1861 115.409 74.1945C115.418 74.1995 115.429 74.2061 115.438 74.2111C115.455 74.221 115.472 74.231 115.489 74.2377C115.501 74.2443 115.509 74.2493 115.518 74.2543C115.535 74.2642 115.553 74.2742 115.573 74.2825C115.581 74.2874 115.59 74.2924 115.598 74.2974C115.619 74.309 115.636 74.319 115.656 74.3273L115.676 74.3389C115.702 74.3506 115.727 74.3622 115.753 74.3739C115.759 74.3772 115.762 74.3789 115.768 74.3822C115.788 74.3938 115.805 74.4038 115.828 74.4105C115.836 74.4155 115.842 74.4188 115.851 74.4238C115.865 74.4321 115.879 74.4404 115.897 74.447C115.905 74.452 115.914 74.457 115.92 74.4603C115.934 74.4686 115.945 74.4752 115.96 74.4803C115.968 74.4852 115.974 74.4886 115.983 74.4936C115.997 74.5019 116.009 74.5085 116.026 74.5151C116.031 74.5185 116.037 74.5218 116.043 74.5251C116.063 74.5367 116.083 74.5451 116.103 74.5534C116.106 74.555 116.109 74.5567 116.112 74.5583C114.06 75.6632 111.885 74.8323 111.885 74.8323C111.885 74.8323 109.459 73.2805 109.319 72.9966" fill="#30304E"/>
<path d="M114.846 67.3468C112.203 68.8729 110.607 70.4245 111.277 70.811C111.277 70.811 116.938 73.9087 117.68 74.1635C118.42 74.4199 122.088 74.7701 123.339 74.4296C124.055 74.3149 124.893 74.0198 125.652 73.5852C126.407 73.1489 126.916 72.6631 127.114 72.2498C127.704 71.5278 127.097 69.4099 126.653 68.9829C126.209 68.5559 120.847 65.2858 120.847 65.2858C120.174 64.8977 117.49 65.8206 114.846 67.3468Z" fill="#30304E"/>
<path d="M122.22 81.0406L122.208 81.0339C122.608 80.1763 123.364 79.2155 124.093 78.3967L125.858 77.9348C127.442 77.4583 128.756 76.9386 130.108 76.1578C131.215 75.5187 132.145 74.8192 132.904 74.0823L133.972 72.7059C133.972 72.7059 133.983 72.6897 133.992 72.6816C133.992 72.6816 133.992 72.6816 133.994 72.68C135.41 72.2608 137.071 71.8259 138.559 71.5936C140.786 71.2501 143.044 71.1208 145.24 71.2068L147.325 70.0026C143.608 69.183 139.406 69.0977 135.333 69.7309C133.845 69.9631 132.184 70.3981 130.765 70.8156C130.765 70.8156 130.765 70.8156 130.762 70.8172C130.757 70.827 130.751 70.8334 130.743 70.8415L129.675 72.2179C128.919 72.9532 127.989 73.6526 126.879 74.2934C125.524 75.0758 124.213 75.5939 122.629 76.0704L120.864 76.5323C120.135 77.3511 119.379 78.3119 118.979 79.1696L118.991 79.1762C117.894 81.5277 118.033 83.9553 119.444 86.0998L121.538 84.8908C121.395 83.6233 121.622 82.3213 122.22 81.0406Z" fill="#30304E"/>
<path d="M137.54 74.5473L127.32 80.4475L128.277 80.9999L138.496 75.0996L137.54 74.5473Z" fill="#30304E"/>
<path d="M118.797 62.8204C118.432 62.845 117.373 62.6039 116.375 62.4139C116.065 62.354 115.761 62.3008 115.479 62.2608C115.289 62.2346 115.11 62.2118 114.954 62.2023C114.773 62.1909 114.558 62.1858 114.326 62.1871C114.272 62.1882 114.215 62.1878 114.162 62.1889C114.08 62.1898 114.003 62.1908 113.918 62.1934C113.859 62.1945 113.8 62.1956 113.74 62.1967C113.751 62.1968 113.763 62.1969 113.774 62.197C113.757 62.1969 113.737 62.1983 113.72 62.1982C113.698 62.198 113.678 62.1995 113.655 62.1993C113.667 62.1994 113.681 62.1979 113.692 62.198C113.412 62.207 113.124 62.2208 112.85 62.2364C112.85 62.2364 112.844 62.2364 112.838 62.2363C112.793 62.2392 112.745 62.2404 112.697 62.2449C112.694 62.2465 112.686 62.2448 112.68 62.2448C112.635 62.2476 112.59 62.2505 112.55 62.2535C112.547 62.2551 112.536 62.255 112.53 62.2549C112.485 62.2578 112.446 62.2607 112.403 62.262C112.398 62.262 112.392 62.2619 112.383 62.2635C112.344 62.2664 112.299 62.2693 112.259 62.2722C112.259 62.2722 112.251 62.2737 112.248 62.2721C112.228 62.2736 112.214 62.2751 112.197 62.2749L113.375 62.955C113.585 63.0761 113.573 63.2786 113.35 63.4074L112.513 63.8904C112.29 64.0191 111.939 64.0259 111.73 63.9048L109.262 62.48C109.06 62.56 108.836 62.6593 108.59 62.7781L112.19 64.8565C112.4 64.9776 112.388 65.1801 112.168 65.3072L111.331 65.7902C111.108 65.919 110.758 65.9258 110.548 65.8047L106.948 63.7263C106.742 63.8683 106.57 63.9976 106.432 64.114L108.897 65.5372C109.106 65.6583 109.095 65.8608 108.872 65.9896L108.035 66.4725C107.812 66.6013 107.461 66.6081 107.251 66.487L106.074 65.807C106.074 65.807 106.068 65.8265 106.069 65.8363C106.069 65.8363 106.066 65.8412 106.066 65.8445C106.061 65.8673 106.056 65.8934 106.051 65.9162C106.051 65.9195 106.048 65.9244 106.048 65.9277C106.043 65.9505 106.038 65.9766 106.036 66.0011C106.036 66.0043 106.036 66.0076 106.034 66.0125C106.029 66.0386 106.026 66.0631 106.019 66.0875C106.016 66.0891 106.019 66.094 106.019 66.0973C106.014 66.1234 106.012 66.1512 106.004 66.1789C106.004 66.1789 106.004 66.1822 106.004 66.1854C105.977 66.3437 105.953 66.5101 105.937 66.6718C105.938 66.6783 105.935 66.6832 105.938 66.6881C105.938 66.6979 105.936 66.7093 105.936 66.7191C105.936 66.7126 105.936 66.7061 105.935 66.6995C105.933 66.7338 105.929 66.7697 105.927 66.804C105.925 66.8514 105.924 66.8988 105.919 66.9445C105.92 66.9771 105.918 67.0082 105.916 67.0392C105.914 67.1732 105.923 67.2974 105.942 67.4022C105.962 67.4938 105.998 67.5955 106.043 67.7053C106.113 67.8644 106.208 68.0417 106.309 68.2223C106.641 68.8003 107.055 69.4101 107.013 69.6205C106.897 70.1848 108.429 71.0853 108.851 71.3225C108.52 70.6612 110.678 68.7551 113.985 66.8425C117.295 64.9315 120.599 63.6872 121.745 63.8784C121.334 63.6347 119.774 62.7504 118.797 62.8171L118.797 62.8204Z" fill="#30304E"/>
<path d="M100.045 149.453L77.3643 144.824C79.0614 142.099 83.0421 136.215 85.3873 134.487C87.7325 132.759 93.976 126.258 96.8046 123.224C98.6561 123.121 103.038 122.607 105.753 121.372C108.469 120.138 111.205 117.155 112.234 115.818L155.126 105.635C155.434 106.406 156.916 108.69 160.372 111.652C163.828 114.615 164.28 116.898 164.075 117.67L153.274 121.372L208.51 149.453C205.424 151.613 197.185 156.859 188.915 160.562C180.645 164.265 167.366 170.128 161.76 172.596L106.988 143.436L100.045 149.453Z" fill="#C9BEE4" stroke="#5A4499" stroke-width="0.540541"/>
<path d="M146.896 130.749C146.402 130.666 144.747 131.164 144.747 131.164C144.466 131.001 144.071 130.947 143.719 131.001C143.804 131.028 143.882 131.063 143.951 131.103L143.962 131.109C144.091 131.187 144.293 131.31 144.546 131.466C144.756 131.593 145 131.744 145.268 131.908C145.268 131.908 145.271 131.91 145.273 131.912C145.432 132.009 145.596 132.11 145.765 132.215C145.771 132.218 145.78 132.223 145.785 132.226C145.808 132.24 145.831 132.253 145.851 132.265C145.863 132.271 145.874 132.278 145.886 132.284C145.909 132.298 145.932 132.311 145.958 132.326C145.961 132.328 145.963 132.329 145.969 132.333C145.998 132.349 146.024 132.364 146.053 132.381L146.058 132.384C146.107 132.412 146.156 132.444 146.205 132.475C146.219 132.483 146.231 132.49 146.242 132.497C146.262 132.508 146.282 132.52 146.303 132.532C146.317 132.54 146.328 132.546 146.343 132.555C146.363 132.566 146.38 132.576 146.4 132.588C146.418 132.598 146.435 132.608 146.452 132.618C146.469 132.628 146.486 132.638 146.504 132.648C146.521 132.658 146.538 132.668 146.558 132.679C146.576 132.689 146.593 132.699 146.613 132.711C146.63 132.721 146.644 132.729 146.662 132.739C146.693 132.757 146.725 132.775 146.754 132.795C146.774 132.807 146.794 132.818 146.811 132.828C146.828 132.838 146.846 132.848 146.86 132.857C146.88 132.868 146.9 132.88 146.918 132.89C146.935 132.9 146.952 132.91 146.966 132.918C146.987 132.93 147.004 132.939 147.024 132.951C147.041 132.961 147.058 132.971 147.073 132.979C147.093 132.991 147.116 133.004 147.136 133.016C147.15 133.024 147.165 133.032 147.179 133.041C147.208 133.057 147.234 133.072 147.259 133.09C147.268 133.095 147.274 133.099 147.282 133.104C147.317 133.124 147.349 133.145 147.38 133.167C147.392 133.173 147.403 133.18 147.412 133.185C147.435 133.198 147.461 133.213 147.481 133.228C147.495 133.236 147.51 133.245 147.524 133.253C147.544 133.264 147.567 133.278 147.587 133.289C147.602 133.298 147.616 133.306 147.628 133.313C147.65 133.326 147.673 133.339 147.691 133.352C147.702 133.359 147.714 133.366 147.725 133.372C147.751 133.387 147.774 133.4 147.797 133.417C147.809 133.424 147.82 133.43 147.829 133.435C147.863 133.455 147.895 133.477 147.927 133.498C147.932 133.501 147.935 133.503 147.941 133.506C147.967 133.521 147.996 133.538 148.021 133.556C148.036 133.564 148.047 133.571 148.059 133.578C148.082 133.591 148.102 133.603 148.122 133.617C148.134 133.624 148.145 133.631 148.16 133.639C148.18 133.651 148.203 133.664 148.22 133.677C148.231 133.684 148.246 133.692 148.257 133.699C148.28 133.712 148.303 133.725 148.323 133.74C148.332 133.745 148.344 133.752 148.352 133.757C148.413 133.795 148.473 133.833 148.531 133.873C148.542 133.879 148.554 133.886 148.562 133.891C148.582 133.902 148.605 133.916 148.623 133.929C148.634 133.936 148.643 133.941 148.654 133.947C148.674 133.959 148.694 133.97 148.712 133.984C148.723 133.99 148.735 133.997 148.746 134.004C148.766 134.015 148.786 134.027 148.801 134.038C148.812 134.045 148.821 134.05 148.83 134.055C148.853 134.068 148.876 134.081 148.893 134.095C148.899 134.098 148.907 134.103 148.913 134.106C148.942 134.123 148.965 134.139 148.991 134.158C148.999 134.163 149.005 134.166 149.014 134.171C149.034 134.182 149.054 134.194 149.068 134.206C149.077 134.211 149.089 134.217 149.097 134.222C149.114 134.232 149.132 134.242 149.143 134.252C149.155 134.259 149.163 134.264 149.172 134.269C149.189 134.279 149.206 134.289 149.221 134.3C149.229 134.305 149.238 134.31 149.247 134.315C149.267 134.327 149.284 134.337 149.299 134.348C149.304 134.351 149.31 134.355 149.319 134.36C149.342 134.373 149.362 134.388 149.382 134.403C149.388 134.406 149.391 134.408 149.396 134.411C149.417 134.423 149.434 134.433 149.445 134.446C149.454 134.451 149.46 134.454 149.468 134.459C149.483 134.467 149.497 134.476 149.509 134.486C149.517 134.491 149.526 134.496 149.532 134.499C149.546 134.507 149.558 134.514 149.566 134.522C149.575 134.527 149.581 134.53 149.589 134.535C149.604 134.544 149.615 134.55 149.627 134.56C149.632 134.563 149.638 134.567 149.644 134.57C149.664 134.582 149.678 134.593 149.693 134.605C149.696 134.606 149.699 134.608 149.702 134.61C151.615 133.425 150.179 132.168 150.179 132.168C150.179 132.168 147.491 130.767 146.996 130.688" fill="#FFE800"/>
<path d="M131.789 139.472C131.646 139.186 132.507 138.231 132.507 138.231C132.225 138.068 132.132 137.841 132.226 137.637C132.272 137.687 132.333 137.731 132.402 137.771L132.413 137.778C132.548 137.852 132.761 137.969 133.03 138.115C133.251 138.236 133.513 138.377 133.797 138.531C133.797 138.531 133.8 138.533 133.803 138.535C133.972 138.626 134.147 138.721 134.328 138.819C134.334 138.822 134.342 138.827 134.348 138.83C134.371 138.843 134.394 138.857 134.414 138.868C134.425 138.875 134.437 138.882 134.448 138.888C134.471 138.902 134.494 138.915 134.52 138.93C134.523 138.931 134.526 138.933 134.532 138.936C134.56 138.953 134.586 138.968 134.615 138.985C134.615 138.985 134.618 138.986 134.621 138.988C134.67 139.016 134.724 139.044 134.779 139.073C134.793 139.081 134.804 139.087 134.816 139.094C134.836 139.106 134.856 139.117 134.876 139.129C134.891 139.137 134.902 139.144 134.917 139.152C134.937 139.164 134.954 139.174 134.974 139.185C134.991 139.195 135.008 139.205 135.026 139.215C135.043 139.225 135.06 139.235 135.077 139.245C135.095 139.255 135.112 139.265 135.132 139.277C135.149 139.286 135.166 139.296 135.187 139.308C135.204 139.318 135.218 139.326 135.235 139.336C135.267 139.355 135.299 139.373 135.333 139.389C135.353 139.401 135.373 139.413 135.391 139.423C135.408 139.432 135.425 139.442 135.439 139.451C135.459 139.462 135.48 139.474 135.497 139.484C135.514 139.494 135.531 139.504 135.546 139.512C135.566 139.524 135.583 139.534 135.603 139.545C135.62 139.555 135.638 139.565 135.652 139.573C135.672 139.585 135.695 139.598 135.715 139.61C135.73 139.618 135.744 139.627 135.758 139.635C135.787 139.651 135.813 139.666 135.844 139.681C135.853 139.686 135.859 139.69 135.867 139.695C135.902 139.715 135.936 139.734 135.974 139.753C135.985 139.759 135.997 139.766 136.005 139.771C136.028 139.784 136.054 139.799 136.08 139.811C136.094 139.819 136.108 139.827 136.123 139.836C136.143 139.847 136.166 139.861 136.186 139.872C136.2 139.881 136.215 139.889 136.226 139.895C136.249 139.909 136.272 139.922 136.295 139.932C136.307 139.939 136.318 139.945 136.33 139.952C136.355 139.967 136.378 139.98 136.407 139.993C136.419 140 136.43 140.007 136.439 140.012C136.473 140.032 136.51 140.05 136.548 140.068C136.553 140.071 136.556 140.073 136.562 140.076C136.588 140.091 136.617 140.108 136.648 140.123C136.663 140.131 136.674 140.138 136.686 140.144C136.709 140.158 136.729 140.169 136.754 140.181C136.766 140.188 136.777 140.194 136.792 140.203C136.812 140.214 136.835 140.227 136.858 140.237C136.869 140.244 136.884 140.252 136.895 140.259C136.918 140.272 136.941 140.286 136.967 140.297C136.975 140.302 136.987 140.309 136.996 140.314C137.062 140.349 137.128 140.384 137.196 140.417C137.208 140.423 137.219 140.43 137.228 140.435C137.248 140.447 137.271 140.46 137.294 140.47C137.305 140.477 137.314 140.482 137.326 140.488C137.346 140.5 137.366 140.511 137.389 140.521C137.4 140.528 137.412 140.535 137.423 140.541C137.443 140.553 137.463 140.565 137.483 140.573C137.495 140.58 137.503 140.585 137.512 140.59C137.535 140.603 137.558 140.616 137.581 140.626C137.587 140.629 137.595 140.634 137.601 140.638C137.63 140.654 137.658 140.668 137.69 140.683C137.699 140.688 137.704 140.691 137.713 140.696C137.733 140.707 137.753 140.719 137.773 140.727C137.782 140.732 137.793 140.739 137.802 140.744C137.819 140.754 137.836 140.764 137.854 140.771C137.865 140.777 137.874 140.782 137.882 140.787C137.9 140.797 137.917 140.807 137.937 140.815C137.945 140.82 137.954 140.825 137.963 140.83C137.983 140.842 138 140.852 138.02 140.86L138.04 140.872C138.066 140.883 138.092 140.895 138.118 140.907C138.123 140.91 138.126 140.912 138.132 140.915C138.152 140.927 138.169 140.937 138.192 140.943C138.201 140.948 138.206 140.952 138.215 140.957C138.229 140.965 138.244 140.973 138.261 140.98C138.269 140.985 138.278 140.99 138.284 140.993C138.298 141.002 138.31 141.008 138.324 141.013C138.333 141.018 138.338 141.021 138.347 141.026C138.361 141.035 138.373 141.041 138.39 141.048C138.396 141.051 138.401 141.055 138.407 141.058C138.427 141.07 138.447 141.078 138.467 141.086C138.47 141.088 138.473 141.09 138.476 141.091C136.424 142.196 134.249 141.365 134.249 141.365C134.249 141.365 131.823 139.813 131.683 139.529" fill="#FFE800"/>
<path d="M137.211 133.88C134.567 135.406 132.972 136.957 133.641 137.344C133.641 137.344 139.302 140.442 140.045 140.696C140.784 140.953 144.452 141.303 145.703 140.962C146.419 140.848 147.257 140.553 148.016 140.118C148.772 139.682 149.28 139.196 149.479 138.783C150.068 138.061 149.462 135.943 149.018 135.516C148.573 135.089 143.211 131.819 143.211 131.819C142.539 131.431 139.854 132.353 137.211 133.88Z" fill="#FFE800"/>
<path d="M144.584 147.573L144.573 147.567C144.972 146.709 145.728 145.748 146.457 144.93L148.222 144.468C149.806 143.991 151.12 143.471 152.472 142.691C153.579 142.052 154.509 141.352 155.269 140.615L156.337 139.239C156.337 139.239 156.348 139.223 156.356 139.214C156.356 139.214 156.356 139.214 156.359 139.213C157.774 138.794 159.435 138.359 160.924 138.126C163.151 137.783 165.408 137.654 167.604 137.74L169.69 136.535C165.972 135.716 161.77 135.631 157.697 136.264C156.209 136.496 154.548 136.931 153.129 137.348C153.129 137.348 153.129 137.348 153.127 137.35C153.121 137.36 153.116 137.366 153.107 137.374L152.039 138.751C151.283 139.486 150.353 140.186 149.243 140.826C147.888 141.609 146.577 142.127 144.993 142.603L143.228 143.065C142.499 143.884 141.743 144.845 141.343 145.702L141.355 145.709C140.258 148.061 140.397 150.488 141.808 152.633L143.903 151.424C143.759 150.156 143.986 148.854 144.584 147.573Z" fill="#FFE800"/>
<path d="M159.904 141.08L149.685 146.98L150.641 147.533L160.861 141.633L159.904 141.08Z" fill="#FFE800"/>
<path d="M141.161 129.353C140.796 129.378 139.737 129.137 138.739 128.947C138.429 128.887 138.125 128.834 137.844 128.794C137.653 128.767 137.475 128.745 137.319 128.735C137.137 128.724 136.922 128.719 136.69 128.72C136.636 128.721 136.58 128.721 136.526 128.722C136.444 128.723 136.367 128.724 136.283 128.726C136.223 128.727 136.164 128.728 136.104 128.73C136.116 128.73 136.127 128.73 136.138 128.73C136.121 128.73 136.102 128.731 136.085 128.731C136.062 128.731 136.042 128.732 136.02 128.732C136.031 128.732 136.045 128.731 136.056 128.731C135.776 128.74 135.488 128.754 135.214 128.769C135.214 128.769 135.208 128.769 135.203 128.769C135.157 128.772 135.109 128.773 135.061 128.778C135.059 128.779 135.05 128.778 135.044 128.778C134.999 128.78 134.954 128.783 134.914 128.786C134.912 128.788 134.9 128.788 134.895 128.788C134.849 128.791 134.81 128.794 134.767 128.795C134.762 128.795 134.756 128.795 134.748 128.796C134.708 128.799 134.663 128.802 134.623 128.805C134.623 128.805 134.615 128.807 134.612 128.805C134.592 128.806 134.578 128.808 134.561 128.808L135.739 129.488C135.949 129.609 135.937 129.811 135.714 129.94L134.878 130.423C134.654 130.552 134.304 130.559 134.094 130.438L131.626 129.013C131.424 129.093 131.201 129.192 130.955 129.311L134.554 131.389C134.764 131.51 134.752 131.713 134.532 131.84L133.696 132.323C133.473 132.452 133.122 132.459 132.912 132.338L129.312 130.259C129.106 130.401 128.934 130.53 128.796 130.647L131.261 132.07C131.471 132.191 131.459 132.394 131.236 132.522L130.399 133.005C130.176 133.134 129.825 133.141 129.616 133.02L128.438 132.34C128.438 132.34 128.433 132.359 128.433 132.369C128.433 132.369 128.43 132.374 128.43 132.377C128.425 132.4 128.42 132.426 128.415 132.449C128.415 132.452 128.413 132.457 128.413 132.46C128.408 132.483 128.403 132.509 128.4 132.534C128.401 132.537 128.401 132.54 128.398 132.545C128.393 132.571 128.391 132.596 128.383 132.62C128.38 132.622 128.383 132.627 128.383 132.63C128.378 132.656 128.376 132.684 128.368 132.712C128.368 132.712 128.368 132.715 128.368 132.718C128.341 132.877 128.317 133.043 128.302 133.205C128.302 133.211 128.299 133.216 128.302 133.221C128.302 133.231 128.3 133.242 128.3 133.252C128.3 133.245 128.3 133.239 128.3 133.232C128.298 133.267 128.293 133.303 128.291 133.337C128.289 133.384 128.288 133.432 128.283 133.477C128.284 133.51 128.282 133.541 128.28 133.572C128.278 133.706 128.287 133.83 128.306 133.935C128.326 134.027 128.362 134.128 128.408 134.238C128.477 134.397 128.572 134.575 128.673 134.755C129.005 135.333 129.42 135.943 129.377 136.153C129.261 136.718 130.793 137.618 131.215 137.855C130.884 137.194 133.042 135.288 136.349 133.375C139.659 131.464 142.963 130.22 144.109 130.411C143.698 130.168 142.138 129.283 141.161 129.35L141.161 129.353Z" fill="#FFE800"/>
<path d="M112.388 115.664C114.651 117.207 117.887 121.436 114.085 124.304C110.594 126.938 99.8848 127.356 96.8047 122.993" stroke="#5A4499" stroke-width="0.540541"/>
</g>
</g>
<defs>
<radialGradient id="paint0_radial_384_954" cx="0" cy="0" r="1" gradientUnits="userSpaceOnUse" gradientTransform="translate(129.155 81.422) rotate(132.846) scale(133.628 157.314)">
<stop stop-color="white"/>
<stop offset="0.981848" stop-color="#F2F4F5"/>
</radialGradient>
<clipPath id="clip0_384_954">
<rect x="17.6055" width="200" height="200" rx="13.4831" transform="rotate(5 17.6055 0)" fill="white"/>
</clipPath>
<clipPath id="clip1_384_954">
<rect width="200" height="200" fill="white" transform="translate(8.50977 8.33502)"/>
</clipPath>
</defs>
</svg>
