<svg width="217" height="217" viewBox="0 0 217 217" fill="none" xmlns="http://www.w3.org/2000/svg">
<g clip-path="url(#clip0_384_980)">
<rect x="0.174805" y="17.4312" width="200" height="200" rx="13.4831" transform="rotate(-5 0.174805 17.4312)" fill="url(#paint0_radial_384_980)"/>
<rect width="200" height="200" transform="translate(8.50977 8.33502)" fill="white"/>
<path d="M196.566 77.11L118.01 60.4514C116.964 60.1573 116.307 60.1965 115.882 60.369L115.862 60.3533L52.3154 79.5643L93.1982 108.271L197.014 77.2629C196.88 77.1962 196.735 77.1414 196.566 77.1061L196.566 77.11Z" fill="#30304E"/>
<path d="M93.1983 108.702C93.1117 108.702 93.0252 108.675 92.9504 108.624L52.0677 79.9171C51.9339 79.823 51.8631 79.6584 51.8906 79.4976C51.9182 79.3369 52.0323 79.2036 52.1896 79.1565L115.737 59.9456C115.772 59.9338 115.807 59.9299 115.843 59.926C116.421 59.7339 117.184 59.7692 118.128 60.0358L196.656 76.6866C196.841 76.7218 197.026 76.7846 197.207 76.8787C197.364 76.9571 197.459 77.1217 197.447 77.2982C197.431 77.4746 197.309 77.6236 197.14 77.6746L93.3202 108.683C93.2809 108.694 93.2376 108.702 93.1983 108.702ZM53.2833 79.7211L93.273 107.804L195.393 77.3021L117.916 60.8709C117.058 60.6317 116.441 60.6043 116.039 60.7689C115.988 60.7885 115.929 60.8003 115.874 60.8003L53.2833 79.7211Z" fill="black"/>
<path d="M197.014 77.2629L93.1982 108.275L133.558 136.613L197.215 117.386L197.191 117.335C197.628 117.143 198.009 116.81 198.08 116.222L198.08 79.3448C198.08 79.3448 198.128 77.8157 197.014 77.2629Z" fill="#161630"/>
<path d="M133.554 137.04C133.467 137.04 133.381 137.013 133.306 136.962L92.9466 108.624C92.8128 108.53 92.742 108.365 92.7696 108.204C92.7971 108.044 92.9151 107.91 93.0725 107.863L196.888 76.8552C196.995 76.8239 197.105 76.8317 197.203 76.8827C198.549 77.5492 198.509 79.286 198.509 79.3605L198.509 116.226C198.509 116.226 198.509 116.261 198.509 116.277C198.438 116.865 198.112 117.328 197.573 117.626C197.518 117.708 197.435 117.771 197.341 117.798L133.684 137.025C133.641 137.036 133.601 137.044 133.558 137.044L133.554 137.04ZM94.1661 108.432L133.629 136.139L196.873 117.037C196.912 116.998 196.959 116.963 197.014 116.939C197.396 116.775 197.597 116.536 197.648 116.191L197.648 79.3409C197.648 79.3174 197.667 78.2039 196.959 77.7256L94.1701 108.432L94.1661 108.432Z" fill="black"/>
<path d="M132.735 96.3837L54.1801 79.7212C51.1469 78.8704 51.3043 80.7915 51.3043 80.7915L51.3043 117.006C51.3043 117.006 50.9738 119.382 53.4995 120.264L131.85 136.844C131.85 136.844 134.061 137.001 134.25 135.492L134.25 98.6145C134.25 98.6145 134.313 96.6934 132.735 96.3798L132.735 96.3837Z" fill="#1A1A37"/>
<path d="M132.027 137.283C131.897 137.283 131.818 137.279 131.818 137.279C131.799 137.279 131.779 137.275 131.759 137.271L53.4086 120.687C53.4086 120.687 53.3732 120.68 53.3575 120.672C51.119 119.891 50.7531 117.935 50.8711 116.978L50.8711 80.807C50.8633 80.6737 50.8633 80.1052 51.2921 79.6426C51.8586 79.031 52.8736 78.9134 54.2938 79.3093L132.822 95.9601C134.348 96.2659 134.706 97.8381 134.678 98.6301L134.678 135.492C134.678 135.492 134.678 135.527 134.678 135.543C134.545 136.629 133.549 137.275 132.027 137.275L132.027 137.283ZM131.909 136.421C131.932 136.421 131.976 136.421 132.027 136.421C132.527 136.421 133.691 136.327 133.821 135.46L133.821 98.6144C133.821 98.536 133.848 97.0383 132.652 96.7991L54.0892 80.1405C52.9837 79.8308 52.2599 79.8739 51.9333 80.215C51.717 80.4424 51.7327 80.76 51.7327 80.76C51.7327 80.7678 51.7327 80.7835 51.7327 80.7913L51.7327 117.006C51.7327 117.006 51.7327 117.045 51.7288 117.065C51.717 117.147 51.4888 119.096 53.6171 119.852L131.909 136.421Z" fill="black"/>
<path d="M60.1083 102.786C57.6613 102.1 57.7872 103.652 57.7872 103.652L57.7872 116.971L76.9736 106.365L60.1083 102.79L60.1083 102.786Z" fill="black"/>
<path d="M57.7888 117.398C57.7141 117.398 57.6393 117.378 57.5724 117.339C57.4426 117.261 57.36 117.12 57.36 116.971L57.36 103.664C57.3561 103.543 57.36 103.06 57.7219 102.664C58.2019 102.147 59.0438 102.041 60.2279 102.374L77.0696 105.946C77.2467 105.985 77.3804 106.126 77.404 106.303C77.4316 106.479 77.345 106.656 77.1877 106.742L58.0012 117.347C57.9344 117.382 57.8636 117.402 57.7927 117.402L57.7888 117.398ZM59.0162 103.041C58.7015 103.041 58.4773 103.111 58.3514 103.249C58.2097 103.402 58.2176 103.617 58.2176 103.617C58.2176 103.629 58.2176 103.641 58.2176 103.652L58.2176 116.241L75.7596 106.546L60.0194 103.209C59.6142 103.096 59.2877 103.045 59.0162 103.045L59.0162 103.041Z" fill="black"/>
<path d="M123.503 116.23L76.9745 106.362L57.7881 116.967L124.726 130.685L124.726 118.033C124.726 118.033 124.777 116.485 123.503 116.23Z" fill="#30304E"/>
<path d="M124.726 131.116C124.699 131.116 124.667 131.116 124.64 131.108L57.7018 117.39C57.5248 117.355 57.391 117.214 57.3635 117.033C57.3359 116.857 57.4225 116.681 57.5798 116.594L76.7663 105.989C76.8567 105.938 76.963 105.922 77.0652 105.946L123.593 115.814C124.88 116.069 125.179 117.39 125.155 118.053L125.155 130.693C125.155 130.822 125.096 130.944 124.998 131.026C124.919 131.089 124.825 131.124 124.726 131.124L124.726 131.116ZM59.0118 116.783L124.294 130.16L124.294 118.033C124.294 117.97 124.313 116.83 123.416 116.649L77.0416 106.812L59.0118 116.779L59.0118 116.783Z" fill="black"/>
<path d="M188.761 76.6982L133.649 93.5803L60.9707 78.4625L116.587 61.9607L188.761 76.6982Z" fill="#69697E"/>
<path d="M133.649 94.0078C133.618 94.0078 133.59 94.0078 133.562 93.9999L60.8846 78.886C60.6918 78.8468 60.5502 78.6782 60.5423 78.4822C60.5345 78.2862 60.6604 78.1097 60.8492 78.0548L116.465 61.553C116.532 61.5334 116.607 61.5295 116.674 61.5452L188.848 76.2827C189.041 76.3219 189.182 76.4866 189.19 76.6826C189.198 76.8787 189.076 77.0551 188.887 77.1139L133.779 93.9921C133.739 94.0038 133.696 94.0117 133.653 94.0117L133.649 94.0078ZM62.7257 78.3881L133.629 93.1335L187.022 76.7807L116.607 62.3999L62.7297 78.3881L62.7257 78.3881Z" fill="#30304E"/>
<path d="M57.4304 85.6373C57.4304 87.3427 56.6672 88.7228 55.723 88.7228C54.7788 88.7228 54.0156 87.3427 54.0156 85.6373C54.0156 83.9318 54.7788 82.5518 55.723 82.5518C56.6672 82.5518 57.4304 83.9318 57.4304 85.6373Z" fill="#FFE800"/>
<path d="M55.726 89.1501C54.5262 89.1501 53.5898 87.6054 53.5898 85.6333C53.5898 83.6613 54.5301 82.1205 55.726 82.1205C56.922 82.1205 57.8622 83.6652 57.8622 85.6333C57.8622 87.6015 56.922 89.1501 55.726 89.1501ZM55.726 82.9791C55.1241 82.9791 54.4514 84.069 54.4514 85.6373C54.4514 87.2055 55.1241 88.2954 55.726 88.2954C56.328 88.2954 57.0007 87.2055 57.0007 85.6373C57.0007 84.069 56.328 82.9791 55.726 82.9791Z" fill="black"/>
<path d="M63.1814 87.3389C63.1814 89.0444 62.4182 90.4244 61.474 90.4244C60.5298 90.4244 59.7666 89.0444 59.7666 87.3389C59.7666 85.6335 60.5298 84.2534 61.474 84.2534C62.4182 84.2534 63.1814 85.6335 63.1814 87.3389Z" fill="#C9BEE4"/>
<path d="M61.478 90.8517C60.2781 90.8517 59.3418 89.307 59.3418 87.3349C59.3418 85.3628 60.282 83.8181 61.478 83.8181C62.6739 83.8181 63.6142 85.3628 63.6142 87.3349C63.6142 89.307 62.6739 90.8517 61.478 90.8517ZM61.478 84.6806C60.8761 84.6806 60.2034 85.7706 60.2034 87.3388C60.2034 88.9071 60.8761 89.997 61.478 89.997C62.0799 89.997 62.7526 88.9071 62.7526 87.3388C62.7526 85.7706 62.0799 84.6806 61.478 84.6806Z" fill="black"/>
<path d="M41.5785 113.197L44.9271 117.29L25.7652 130.685L18.5098 124.36C20.0601 122.809 24.3514 119.225 29.1139 117.29C33.8765 115.355 39.408 113.756 41.5785 113.197Z" fill="#C9BEE4" stroke="#5A4499" stroke-width="0.540541"/>
<path d="M112.049 125.973C113.374 124.556 119.739 116.597 124.018 117.031C113.699 114.829 79.7184 106.713 77.3796 106.713C61.7525 111.736 35.8972 117.587 32.3253 118.927C28.7534 120.266 25.3799 127.918 24.1396 131.577C25.0698 131.577 27.3767 131.8 29.1627 132.693C30.9486 133.586 34.9919 138.15 36.7902 140.321C36.8522 139.577 37.4227 137.828 39.2087 136.786C41.4412 135.484 44.2317 138.46 46.6502 142.739C48.585 146.162 48.3246 155.7 47.9525 160.041L53.5336 163.576L52.0453 165.994L70.0882 180.865L92.6504 161.192L84.6019 157.622C92.0695 146.272 102.795 135.864 112.049 125.973Z" fill="#C9BEE4" stroke="#5A4499" stroke-width="0.540541"/>
<path d="M77.851 129.15C77.4136 129.243 75.921 128.863 75.921 128.863C75.6764 129.019 75.3268 129.082 75.0108 129.048C75.0861 129.02 75.1536 128.986 75.2135 128.948L75.2235 128.942C75.3357 128.867 75.5104 128.75 75.7298 128.602C75.912 128.48 76.124 128.337 76.3559 128.18C76.3559 128.18 76.3584 128.179 76.3609 128.177C76.4981 128.084 76.6402 127.988 76.7874 127.888C76.7924 127.885 76.7999 127.88 76.8049 127.877C76.8248 127.864 76.8448 127.851 76.8623 127.84C76.8723 127.834 76.8823 127.828 76.8922 127.821C76.9122 127.809 76.9322 127.796 76.9546 127.782C76.9571 127.78 76.9596 127.778 76.9646 127.775C76.9896 127.759 77.012 127.745 77.037 127.729L77.042 127.726C77.0844 127.699 77.1267 127.669 77.1692 127.639C77.1817 127.631 77.1916 127.625 77.2016 127.619C77.2191 127.607 77.2365 127.596 77.254 127.585C77.2665 127.577 77.2765 127.571 77.289 127.563C77.3064 127.552 77.3214 127.542 77.3389 127.531C77.3539 127.522 77.3688 127.512 77.3838 127.503C77.3988 127.493 77.4138 127.484 77.4287 127.474C77.4437 127.465 77.4587 127.455 77.4762 127.444C77.4911 127.434 77.5061 127.425 77.5236 127.414C77.5385 127.404 77.551 127.396 77.566 127.387C77.5935 127.369 77.6209 127.352 77.6459 127.333C77.6633 127.322 77.6808 127.311 77.6958 127.301C77.7107 127.292 77.7257 127.282 77.7382 127.274C77.7557 127.263 77.7731 127.252 77.7881 127.243C77.8031 127.233 77.8181 127.224 77.8305 127.216C77.848 127.204 77.863 127.195 77.8804 127.184C77.8954 127.174 77.9104 127.165 77.9229 127.157C77.9404 127.146 77.9603 127.133 77.9778 127.122C77.9903 127.114 78.0027 127.106 78.0152 127.098C78.0402 127.082 78.0627 127.068 78.085 127.051C78.0925 127.046 78.0975 127.043 78.105 127.038C78.135 127.019 78.1624 126.999 78.1898 126.978C78.1997 126.972 78.2097 126.966 78.2172 126.961C78.2372 126.948 78.2596 126.934 78.2771 126.92C78.2896 126.912 78.3021 126.904 78.3145 126.896C78.332 126.885 78.352 126.872 78.3694 126.861C78.3819 126.853 78.3944 126.845 78.4044 126.839C78.4244 126.826 78.4443 126.813 78.4592 126.801C78.4692 126.795 78.4792 126.788 78.4892 126.782C78.5116 126.768 78.5316 126.755 78.5515 126.739C78.5615 126.733 78.5715 126.727 78.579 126.722C78.6089 126.703 78.6363 126.682 78.6637 126.662C78.6687 126.659 78.6712 126.657 78.6762 126.654C78.6987 126.64 78.7236 126.624 78.746 126.607C78.7585 126.599 78.7685 126.592 78.7785 126.586C78.7985 126.573 78.8159 126.562 78.8334 126.548C78.8433 126.542 78.8533 126.535 78.8658 126.528C78.8833 126.516 78.9032 126.504 78.9182 126.491C78.9281 126.485 78.9406 126.477 78.9506 126.471C78.9706 126.458 78.9906 126.445 79.0079 126.431C79.0154 126.426 79.0254 126.42 79.0329 126.415C79.0853 126.379 79.1376 126.343 79.1874 126.305C79.1974 126.299 79.2074 126.293 79.2149 126.288C79.2324 126.277 79.2523 126.264 79.2673 126.252C79.2773 126.245 79.2848 126.24 79.2948 126.234C79.3122 126.223 79.3297 126.212 79.3446 126.199C79.3545 126.193 79.3645 126.187 79.3745 126.18C79.392 126.169 79.4095 126.158 79.4219 126.147C79.4319 126.141 79.4394 126.136 79.4469 126.131C79.4668 126.119 79.4868 126.106 79.5017 126.094C79.5067 126.09 79.5142 126.086 79.5192 126.082C79.5441 126.067 79.5641 126.051 79.5865 126.034C79.594 126.029 79.599 126.026 79.6065 126.021C79.624 126.01 79.6414 125.999 79.6538 125.988C79.6613 125.983 79.6713 125.977 79.6788 125.972C79.6938 125.962 79.7087 125.953 79.7187 125.944C79.7287 125.937 79.7362 125.933 79.7437 125.928C79.7586 125.918 79.7736 125.909 79.786 125.898C79.7935 125.893 79.801 125.888 79.8085 125.884C79.8259 125.873 79.8409 125.863 79.8534 125.852C79.8584 125.849 79.8633 125.846 79.8708 125.841C79.8908 125.828 79.9082 125.814 79.9257 125.8C79.9306 125.797 79.9331 125.796 79.9381 125.792C79.9556 125.781 79.9706 125.772 79.9805 125.76C79.9879 125.755 79.9929 125.752 80.0004 125.747C80.0129 125.739 80.0254 125.731 80.0353 125.722C80.0428 125.717 80.0503 125.712 80.0553 125.709C80.0678 125.701 80.0778 125.695 80.0852 125.687C80.0926 125.682 80.0977 125.679 80.1051 125.674C80.1176 125.666 80.1276 125.66 80.1375 125.651C80.1425 125.648 80.1475 125.644 80.1525 125.641C80.17 125.63 80.1824 125.619 80.1948 125.608C80.1973 125.607 80.1999 125.605 80.2023 125.604C81.9524 126.585 80.7211 127.761 80.7211 127.761C80.7211 127.761 78.3802 129.111 77.9427 129.201" fill="#FFE800"/>
<path d="M64.0589 121.959C63.9422 122.219 64.7459 123.036 64.7459 123.036C64.5013 123.192 64.4266 123.399 64.518 123.576C64.5576 123.53 64.6098 123.488 64.6698 123.45L64.6798 123.444C64.7971 123.372 64.9819 123.261 65.2166 123.12C65.4089 123.004 65.6362 122.868 65.8834 122.719C65.8834 122.719 65.8859 122.718 65.8884 122.716C66.0358 122.628 66.1881 122.537 66.3455 122.443C66.3505 122.44 66.3579 122.435 66.3629 122.432C66.3829 122.419 66.4029 122.407 66.4204 122.396C66.4303 122.389 66.4403 122.383 66.4503 122.377C66.4703 122.364 66.4902 122.351 66.5127 122.337C66.5152 122.335 66.5177 122.334 66.5227 122.33C66.5476 122.315 66.5701 122.3 66.5951 122.284C66.5951 122.284 66.5975 122.283 66.6 122.281C66.6425 122.254 66.6899 122.227 66.7374 122.2C66.7499 122.192 66.7598 122.185 66.7698 122.179C66.7873 122.168 66.8047 122.157 66.8222 122.146C66.8347 122.138 66.8447 122.131 66.8572 122.124C66.8746 122.112 66.8896 122.103 66.9071 122.092C66.9221 122.082 66.937 122.073 66.952 122.063C66.967 122.054 66.982 122.044 66.9969 122.035C67.0119 122.025 67.0269 122.016 67.0444 122.004C67.0593 121.995 67.0743 121.985 67.0918 121.974C67.1067 121.965 67.1192 121.957 67.1342 121.947C67.1617 121.93 67.1891 121.912 67.2192 121.896C67.2366 121.885 67.2541 121.874 67.2691 121.864C67.284 121.855 67.299 121.845 67.3115 121.837C67.329 121.826 67.3464 121.815 67.3614 121.806C67.3764 121.796 67.3914 121.787 67.4038 121.779C67.4213 121.768 67.4363 121.758 67.4537 121.747C67.4687 121.737 67.4837 121.728 67.4962 121.72C67.5137 121.709 67.5336 121.696 67.5511 121.685C67.5636 121.677 67.576 121.669 67.5885 121.661C67.6135 121.645 67.636 121.631 67.6634 121.617C67.6709 121.612 67.6759 121.609 67.6834 121.604C67.7133 121.585 67.7433 121.566 67.7758 121.548C67.7858 121.542 67.7958 121.535 67.8033 121.531C67.8233 121.518 67.8457 121.504 67.8682 121.492C67.8807 121.484 67.8932 121.476 67.9057 121.468C67.9231 121.457 67.9431 121.445 67.9605 121.433C67.973 121.425 67.9855 121.418 67.9955 121.411C68.0155 121.398 68.0354 121.386 68.0555 121.376C68.0654 121.37 68.0754 121.363 68.0854 121.357C68.1079 121.343 68.1278 121.33 68.1528 121.317C68.1628 121.311 68.1728 121.304 68.1803 121.3C68.2102 121.28 68.2428 121.263 68.2752 121.245C68.2802 121.242 68.2827 121.24 68.2877 121.237C68.3102 121.223 68.3351 121.207 68.3627 121.192C68.3752 121.184 68.3851 121.178 68.3951 121.172C68.4151 121.159 68.4325 121.148 68.455 121.137C68.465 121.13 68.475 121.124 68.4875 121.116C68.505 121.105 68.5249 121.092 68.5449 121.082C68.5549 121.076 68.5674 121.068 68.5774 121.062C68.5973 121.049 68.6173 121.036 68.6398 121.025C68.6473 121.02 68.6573 121.014 68.6648 121.009C68.7222 120.975 68.7797 120.942 68.8397 120.91C68.8497 120.903 68.8597 120.897 68.8672 120.892C68.8846 120.881 68.9046 120.868 68.9246 120.858C68.9346 120.852 68.9421 120.847 68.9521 120.841C68.9695 120.83 68.987 120.819 69.007 120.809C69.017 120.803 69.027 120.796 69.037 120.79C69.0545 120.779 69.0719 120.768 69.0894 120.759C69.0994 120.753 69.1069 120.748 69.1144 120.744C69.1343 120.731 69.1543 120.718 69.1743 120.708C69.1793 120.705 69.1868 120.7 69.1918 120.697C69.2167 120.681 69.2418 120.668 69.2693 120.654C69.2768 120.649 69.2817 120.646 69.2892 120.641C69.3067 120.63 69.3242 120.619 69.3417 120.611C69.3492 120.606 69.3592 120.6 69.3667 120.595C69.3817 120.585 69.3966 120.576 69.4116 120.569C69.4216 120.563 69.4291 120.558 69.4366 120.553C69.4516 120.544 69.4666 120.534 69.4841 120.526C69.4916 120.521 69.4991 120.517 69.5066 120.512C69.524 120.501 69.539 120.491 69.5565 120.483L69.5739 120.472C69.5965 120.461 69.619 120.449 69.6416 120.438C69.6465 120.435 69.649 120.433 69.654 120.43C69.6715 120.419 69.6865 120.409 69.7065 120.402C69.714 120.398 69.7189 120.394 69.7265 120.39C69.7389 120.382 69.7514 120.374 69.7665 120.367C69.7739 120.362 69.7814 120.358 69.7864 120.354C69.7989 120.346 69.8089 120.34 69.8214 120.335C69.8289 120.33 69.8339 120.327 69.8414 120.322C69.8539 120.314 69.8638 120.308 69.8789 120.302C69.8839 120.298 69.8888 120.295 69.8939 120.292C69.9113 120.281 69.9288 120.273 69.9464 120.264C69.9489 120.263 69.9514 120.261 69.9538 120.26C68.0839 119.354 66.178 120.178 66.178 120.178C66.178 120.178 64.0764 121.653 63.9622 121.911" fill="#FFE800"/>
<path d="M69.1028 126.732C66.6895 125.474 65.2086 124.153 65.7901 123.783C65.7901 123.783 70.7146 120.807 71.3662 120.551C72.0153 120.294 75.2698 119.842 76.3969 120.097C77.039 120.172 77.7973 120.403 78.4897 120.761C79.1796 121.121 79.6509 121.534 79.8438 121.895C80.3968 122.515 79.9375 124.425 79.5583 124.823C79.179 125.22 74.527 128.339 74.527 128.339C73.943 128.71 71.5161 127.991 69.1028 126.732Z" fill="#FFE800"/>
<path d="M75.1464 114.251L75.1364 114.257C75.5252 115.006 76.2357 115.833 76.9162 116.535L78.5065 116.878C79.9358 117.242 81.1261 117.655 82.3608 118.299C83.3714 118.826 84.2266 119.413 84.9312 120.04L85.9355 121.226C85.9355 121.226 85.9458 121.24 85.9535 121.247C85.9535 121.247 85.9535 121.247 85.956 121.248C87.2331 121.567 88.7297 121.891 90.0644 122.041C92.0614 122.262 94.0778 122.29 96.0303 122.13L97.9345 123.122C94.6544 123.995 90.9143 124.232 87.2616 123.824C85.9268 123.674 84.4302 123.35 83.1507 123.033C83.1507 123.033 83.1507 123.033 83.1482 123.031C83.143 123.023 83.1378 123.017 83.1301 123.01L82.1259 121.825C81.4239 121.199 80.5686 120.612 79.5554 120.083C78.3182 119.438 77.1304 119.027 75.7012 118.663L74.1109 118.319C73.4303 117.618 72.7198 116.791 72.3311 116.042L72.341 116.036C71.274 113.983 71.3051 111.815 72.48 109.85L74.3918 110.847C74.3128 111.982 74.5647 113.133 75.1464 114.251Z" fill="#FFE800"/>
<path d="M89.0439 119.449L79.7139 114.584L80.545 114.055L89.875 118.92L89.0439 119.449Z" fill="#FFE800"/>
<path d="M72.7953 130.614C72.4697 130.606 71.5355 130.861 70.6535 131.068C70.3796 131.134 70.1106 131.193 69.8616 131.239C69.6931 131.27 69.5346 131.297 69.3961 131.311C69.235 131.328 69.0434 131.341 68.8367 131.349C68.7888 131.35 68.7383 131.353 68.6904 131.354C68.6173 131.356 68.5492 131.358 68.4735 131.359C68.4205 131.36 68.3676 131.362 68.3146 131.363C68.3247 131.362 68.3348 131.362 68.3449 131.361C68.3298 131.362 68.3121 131.361 68.297 131.362C68.2768 131.363 68.2591 131.363 68.239 131.364C68.249 131.363 68.2617 131.364 68.2717 131.364C68.022 131.366 67.7647 131.365 67.5199 131.362C67.5199 131.362 67.5148 131.362 67.5098 131.362C67.4694 131.361 67.4265 131.362 67.3836 131.36C67.3811 131.359 67.3735 131.36 67.3685 131.361C67.3281 131.36 67.2877 131.359 67.2524 131.358C67.2498 131.357 67.2397 131.357 67.2347 131.357C67.1943 131.356 67.159 131.355 67.1211 131.356C67.1161 131.356 67.111 131.356 67.1035 131.355C67.0681 131.354 67.0277 131.353 66.9924 131.352C66.9924 131.352 66.9848 131.351 66.9823 131.353C66.9646 131.352 66.952 131.351 66.9369 131.352L67.9602 130.701C68.1424 130.585 68.1242 130.405 67.9205 130.299L67.1568 129.901C66.9531 129.795 66.6404 129.802 66.4582 129.918L64.3143 131.282C64.1315 131.218 63.9283 131.139 63.7047 131.042L66.832 129.053C67.0142 128.937 66.9959 128.757 66.7948 128.652L66.0311 128.254C65.8275 128.148 65.5148 128.155 65.3326 128.271L62.2053 130.26C62.0165 130.142 61.8582 130.033 61.7304 129.935L63.8719 128.572C64.054 128.457 64.0358 128.277 63.8322 128.17L63.0685 127.772C62.8648 127.666 62.5521 127.673 62.3699 127.789L61.3466 128.44C61.3466 128.44 61.3412 128.423 61.3411 128.414C61.3411 128.414 61.3385 128.41 61.3384 128.407C61.3331 128.387 61.3276 128.364 61.3222 128.344C61.3222 128.341 61.3196 128.337 61.3195 128.334C61.3141 128.314 61.3087 128.291 61.3058 128.269C61.3058 128.266 61.3057 128.263 61.3031 128.259C61.2977 128.236 61.2948 128.214 61.2868 128.192C61.2843 128.191 61.2868 128.187 61.2867 128.184C61.2812 128.161 61.2783 128.136 61.2703 128.112C61.2703 128.112 61.2703 128.109 61.2702 128.106C61.2401 127.966 61.2123 127.818 61.1922 127.675C61.1921 127.669 61.1895 127.665 61.192 127.661C61.1918 127.652 61.1891 127.642 61.1889 127.633C61.1891 127.639 61.1892 127.645 61.1893 127.65C61.1862 127.62 61.1806 127.588 61.1776 127.558C61.1743 127.516 61.1711 127.473 61.1653 127.433C61.1649 127.404 61.1618 127.376 61.1589 127.349C61.1518 127.229 61.1549 127.118 61.1685 127.024C61.1822 126.942 61.2109 126.85 61.247 126.75C61.3026 126.606 61.3806 126.444 61.4635 126.28C61.7371 125.752 62.0832 125.193 62.0372 125.007C61.9126 124.509 63.2427 123.648 63.6096 123.42C63.3399 124.022 65.3355 125.638 68.3547 127.215C71.3765 128.79 74.3679 129.772 75.381 129.558C75.0242 129.791 73.6686 130.638 72.7954 130.616L72.7953 130.614Z" fill="#FFE800"/>
</g>
<defs>
<radialGradient id="paint0_radial_384_980" cx="0" cy="0" r="1" gradientUnits="userSpaceOnUse" gradientTransform="translate(111.725 98.8531) rotate(132.846) scale(133.628 157.314)">
<stop stop-color="white"/>
<stop offset="0.981848" stop-color="#F2F4F5"/>
</radialGradient>
<clipPath id="clip0_384_980">
<rect x="0.174805" y="17.4312" width="200" height="200" rx="13.4831" transform="rotate(-5 0.174805 17.4312)" fill="white"/>
</clipPath>
</defs>
</svg>
