<svg width="217" height="217" viewBox="0 0 217 217" fill="none" xmlns="http://www.w3.org/2000/svg">
<g clip-path="url(#clip0_384_993)">
<rect x="0.174805" y="17.4312" width="200" height="200" rx="13.4831" transform="rotate(-5 0.174805 17.4312)" fill="url(#paint0_radial_384_993)"/>
<g clip-path="url(#clip1_384_993)">
<rect width="200" height="200" transform="translate(8.50977 8.33502)" fill="white"/>
<path d="M189.698 155.357C210.522 123.085 199.379 100.832 199.379 100.832L120.05 55.0314L15.9141 115.154L95.236 160.951C95.236 160.951 133.779 167.384 189.676 155.361L189.698 155.357Z" fill="white" stroke="#30304E" stroke-width="2.16216" stroke-linecap="round" stroke-linejoin="round"/>
<path d="M178.788 149.067C178.27 149.367 177.627 149.594 176.911 149.729C140.932 156.395 113.671 154.948 103.617 154.02C102.645 153.931 101.746 153.665 101.052 153.265L38.1337 116.939C36.307 115.884 36.307 114.18 38.1337 113.125L116.528 67.8643C118.354 66.8096 121.306 66.8096 123.133 67.8643L186.051 104.19C186.746 104.591 187.206 105.11 187.359 105.671C188.974 111.471 191.473 127.215 179.928 147.987C179.694 148.401 179.3 148.772 178.781 149.071L178.788 149.067Z" fill="#FFE800"/>
<mask id="mask0_384_993" style="mask-type:luminance" maskUnits="userSpaceOnUse" x="36" y="67" width="153" height="88">
<path d="M178.788 149.067C178.27 149.367 177.627 149.594 176.911 149.729C140.932 156.395 113.671 154.948 103.617 154.02C102.645 153.931 101.746 153.665 101.052 153.265L38.1337 116.939C36.307 115.884 36.307 114.18 38.1337 113.125L116.528 67.8643C118.354 66.8096 121.306 66.8096 123.133 67.8643L186.051 104.19C186.746 104.591 187.206 105.11 187.359 105.671C188.974 111.471 191.473 127.215 179.928 147.987C179.694 148.401 179.3 148.772 178.781 149.071L178.788 149.067Z" fill="white"/>
</mask>
<g mask="url(#mask0_384_993)">
<path d="M134.175 73.5383L119.356 64.983L104.538 73.5382L119.356 82.0935L134.175 73.5383Z" fill="#5A4499"/>
<path d="M163.796 90.6402L148.978 82.085L134.159 90.6402L148.978 99.1954L163.796 90.6402Z" fill="#5A4499"/>
<path d="M104.546 90.6529L89.7275 82.0977L74.9095 90.6529L89.7275 99.2081L104.546 90.6529Z" fill="#5A4499"/>
<path d="M134.167 107.746L119.349 99.1912L104.531 107.746L119.349 116.302L134.167 107.746Z" fill="#5A4499"/>
<path d="M134.16 90.6486L119.342 82.0934L104.524 90.6486L119.342 99.2038L134.16 90.6486Z" fill="#5A4499"/>
<path d="M163.803 107.755L148.985 99.1996L134.167 107.755L148.985 116.31L163.803 107.755Z" fill="#5A4499"/>
<path d="M193.33 107.692L178.512 99.1364L163.694 107.692L178.512 116.247L193.33 107.692Z" fill="#5A4499"/>
<path d="M163.694 124.802L148.876 116.247L134.058 124.802L148.876 133.357L163.694 124.802Z" fill="#5A4499"/>
<path d="M193.323 141.9L178.505 133.345L163.687 141.9L178.505 150.455L193.323 141.9Z" fill="#5A4499"/>
<path d="M193.323 124.798L178.505 116.243L163.687 124.798L178.505 133.353L193.323 124.798Z" fill="#5A4499"/>
<g style="mix-blend-mode:multiply" opacity="0.3">
<path d="M78.1162 76.8962C78.1162 76.8962 161.464 111.003 132.186 151.143C80.7905 221.592 205.254 157.049 205.254 157.049L236.672 118.66L165.066 55.3816L140.224 41.0385L78.1162 76.8962Z" fill="#979797"/>
</g>
<path opacity="0.51" d="M53.5802 113.412L52.981 113.758C51.7543 114.466 51.7543 115.614 52.981 116.323L106.525 147.236C107.752 147.945 109.741 147.945 110.967 147.236L111.566 146.89C112.793 146.182 112.793 145.034 111.566 144.325L58.0227 113.412C56.7959 112.704 54.8069 112.704 53.5802 113.412Z" fill="white"/>
</g>
<path d="M125.263 90.793C123.807 90.5494 118.937 92.0133 118.937 92.0133C118.108 91.5347 116.945 91.3755 115.908 91.535C116.16 91.614 116.387 91.717 116.591 91.8343L116.624 91.8539C117.005 92.0833 117.598 92.4444 118.343 92.9031C118.961 93.2789 119.681 93.7229 120.468 94.2059C120.468 94.2059 120.477 94.2108 120.485 94.2157C120.951 94.5036 121.434 94.8012 121.933 95.1086C121.95 95.1184 121.976 95.133 121.992 95.1428C122.06 95.1818 122.128 95.221 122.187 95.2552C122.221 95.2747 122.255 95.2942 122.289 95.3138C122.356 95.3528 122.424 95.3919 122.5 95.4359C122.509 95.4407 122.517 95.4456 122.534 95.4554C122.619 95.5042 122.695 95.5482 122.779 95.5971L122.796 95.6068C122.94 95.6898 123.084 95.7825 123.228 95.8751C123.27 95.8996 123.304 95.9191 123.338 95.9386C123.397 95.9728 123.456 96.007 123.516 96.0412C123.558 96.0656 123.592 96.0851 123.634 96.1096C123.693 96.1437 123.744 96.1731 123.803 96.2072C123.854 96.2366 123.905 96.2658 123.956 96.2952C124.006 96.3244 124.057 96.3538 124.108 96.383C124.159 96.4124 124.209 96.4416 124.269 96.4759C124.319 96.5052 124.37 96.5345 124.429 96.5687C124.48 96.5979 124.522 96.6224 124.573 96.6517C124.666 96.7054 124.759 96.7591 124.844 96.8176C124.903 96.8518 124.963 96.8859 125.013 96.9153C125.064 96.9445 125.115 96.9739 125.157 96.9983C125.216 97.0325 125.276 97.0666 125.326 97.096C125.377 97.1252 125.428 97.1546 125.47 97.1789C125.529 97.2132 125.58 97.2425 125.639 97.2766C125.69 97.306 125.741 97.3353 125.783 97.3597C125.842 97.3939 125.91 97.433 125.969 97.4671C126.012 97.4916 126.054 97.5159 126.096 97.5404C126.181 97.5893 126.257 97.6332 126.333 97.6868C126.359 97.7014 126.376 97.7113 126.401 97.7259C126.502 97.7845 126.596 97.8478 126.689 97.9112C126.723 97.9307 126.757 97.9503 126.782 97.9649C126.85 98.0041 126.926 98.0479 126.985 98.0917C127.028 98.1161 127.07 98.1406 127.112 98.165C127.171 98.1992 127.239 98.2383 127.298 98.2724C127.341 98.2969 127.383 98.3213 127.417 98.3408C127.484 98.3799 127.552 98.419 127.603 98.4579C127.637 98.4775 127.671 98.497 127.705 98.5165C127.781 98.5605 127.848 98.5996 127.916 98.6483C127.95 98.6678 127.984 98.6873 128.009 98.702C128.111 98.7606 128.204 98.824 128.297 98.8873C128.314 98.8971 128.323 98.9019 128.34 98.9117C128.416 98.9557 128.501 99.0045 128.577 99.0581C128.619 99.0826 128.653 99.1021 128.687 99.1217C128.755 99.1607 128.814 99.1949 128.873 99.2387C128.907 99.2582 128.941 99.2777 128.983 99.3022C129.042 99.3363 129.11 99.3754 129.161 99.4143C129.195 99.4338 129.237 99.4582 129.271 99.4778C129.339 99.5168 129.406 99.5559 129.466 99.5998C129.491 99.6144 129.525 99.6339 129.551 99.6487C129.728 99.7608 129.906 99.873 130.076 99.9899C130.11 100.009 130.144 100.029 130.169 100.044C130.228 100.078 130.296 100.117 130.347 100.156C130.381 100.175 130.406 100.19 130.44 100.21C130.499 100.244 130.558 100.278 130.609 100.317C130.643 100.336 130.677 100.356 130.711 100.375C130.77 100.41 130.829 100.444 130.872 100.478C130.906 100.497 130.931 100.512 130.956 100.527C131.024 100.566 131.092 100.605 131.143 100.644C131.16 100.654 131.185 100.668 131.202 100.678C131.287 100.727 131.355 100.776 131.431 100.829C131.456 100.844 131.473 100.853 131.499 100.868C131.558 100.902 131.617 100.937 131.66 100.971C131.685 100.985 131.719 101.005 131.744 101.019C131.795 101.049 131.846 101.078 131.88 101.107C131.914 101.127 131.939 101.141 131.965 101.156C132.015 101.185 132.066 101.215 132.108 101.249C132.134 101.263 132.159 101.278 132.185 101.293C132.244 101.327 132.295 101.356 132.337 101.39C132.354 101.4 132.371 101.41 132.396 101.424C132.464 101.463 132.523 101.507 132.583 101.551C132.6 101.561 132.608 101.566 132.625 101.575C132.685 101.61 132.735 101.639 132.77 101.678C132.795 101.692 132.812 101.702 132.837 101.717C132.879 101.741 132.922 101.766 132.956 101.795C132.981 101.809 133.007 101.824 133.024 101.834C133.066 101.858 133.1 101.878 133.125 101.902C133.151 101.917 133.168 101.927 133.193 101.941C133.235 101.966 133.269 101.985 133.303 102.014C133.32 102.024 133.337 102.034 133.354 102.044C133.413 102.078 133.456 102.112 133.498 102.146C133.507 102.151 133.515 102.156 133.524 102.161C139.158 98.673 134.929 94.9705 134.929 94.9705C134.929 94.9705 127.015 90.8465 125.559 90.6127" fill="white"/>
<path d="M80.7792 116.476C80.3575 115.635 82.893 112.823 82.893 112.823C82.064 112.344 81.7882 111.673 82.0643 111.074C82.2014 111.22 82.3798 111.351 82.583 111.469L82.6168 111.488C83.014 111.708 83.6396 112.05 84.4339 112.48C85.0849 112.837 85.8538 113.253 86.6906 113.707C86.6906 113.707 86.6991 113.712 86.7076 113.717C87.2062 113.986 87.7217 114.265 88.2542 114.553C88.2712 114.563 88.2965 114.578 88.3134 114.587C88.381 114.626 88.4489 114.666 88.508 114.7C88.5419 114.719 88.5757 114.739 88.6095 114.758C88.6772 114.797 88.7449 114.837 88.821 114.88C88.8294 114.885 88.8379 114.89 88.8549 114.9C88.9394 114.949 89.0156 114.993 89.1002 115.042C89.1002 115.042 89.1086 115.046 89.1171 115.051C89.2609 115.134 89.4212 115.218 89.5817 115.301C89.624 115.325 89.6579 115.345 89.6917 115.364C89.7509 115.399 89.81 115.433 89.8694 115.467C89.9116 115.491 89.9454 115.511 89.9877 115.535C90.0469 115.569 90.0977 115.599 90.1569 115.633C90.2077 115.662 90.2584 115.692 90.3092 115.721C90.3599 115.75 90.4107 115.78 90.4614 115.809C90.5122 115.838 90.5629 115.867 90.6222 115.902C90.6729 115.931 90.7238 115.96 90.7829 115.994C90.8336 116.024 90.8759 116.048 90.9268 116.077C91.0198 116.131 91.1128 116.185 91.2142 116.234C91.2734 116.268 91.3326 116.302 91.3834 116.332C91.4341 116.361 91.4849 116.39 91.5273 116.415C91.5864 116.449 91.6456 116.483 91.6964 116.512C91.7471 116.541 91.7979 116.571 91.8401 116.595C91.8994 116.629 91.9501 116.659 92.0093 116.693C92.0601 116.722 92.111 116.752 92.1531 116.776C92.2125 116.81 92.2801 116.849 92.3393 116.883C92.3816 116.908 92.4238 116.932 92.4661 116.957C92.5508 117.006 92.627 117.049 92.7196 117.094C92.745 117.108 92.762 117.118 92.7873 117.133C92.8888 117.191 92.9903 117.25 93.1001 117.304C93.134 117.323 93.1678 117.343 93.1931 117.357C93.261 117.397 93.337 117.44 93.4128 117.475C93.4551 117.499 93.4974 117.524 93.5398 117.548C93.5989 117.582 93.6666 117.621 93.7258 117.655C93.7681 117.68 93.8105 117.704 93.8443 117.724C93.912 117.763 93.9796 117.802 94.0471 117.831C94.0809 117.851 94.1148 117.87 94.1486 117.89C94.2248 117.934 94.2924 117.973 94.3768 118.012C94.4106 118.032 94.4444 118.051 94.4698 118.066C94.5713 118.125 94.6811 118.178 94.7907 118.232C94.8077 118.242 94.8161 118.247 94.8331 118.257C94.9092 118.301 94.9937 118.35 95.0867 118.394C95.129 118.418 95.1629 118.438 95.1967 118.457C95.2644 118.496 95.3235 118.53 95.3993 118.565C95.4332 118.584 95.467 118.604 95.5094 118.628C95.5685 118.662 95.6362 118.702 95.7035 118.731C95.7373 118.751 95.7797 118.775 95.8135 118.795C95.8812 118.834 95.9489 118.873 96.0248 118.907C96.0502 118.922 96.084 118.941 96.1095 118.956C96.3036 119.059 96.4981 119.161 96.7006 119.259C96.7344 119.279 96.7682 119.298 96.7937 119.313C96.8529 119.347 96.9206 119.386 96.9879 119.416C97.0217 119.435 97.0472 119.45 97.081 119.469C97.1402 119.504 97.1994 119.538 97.2669 119.567C97.3007 119.587 97.3345 119.606 97.3684 119.626C97.4277 119.66 97.4869 119.694 97.5458 119.719C97.5797 119.738 97.605 119.753 97.6304 119.768C97.698 119.807 97.7657 119.846 97.833 119.875C97.85 119.885 97.8753 119.9 97.8923 119.909C97.9768 119.958 98.0613 119.997 98.1541 120.042C98.1795 120.056 98.1963 120.066 98.2218 120.081C98.281 120.115 98.3401 120.149 98.3993 120.174C98.4246 120.188 98.4584 120.208 98.4838 120.222C98.5346 120.252 98.5853 120.281 98.6357 120.301C98.6696 120.32 98.6949 120.335 98.7204 120.35C98.7711 120.379 98.8219 120.408 98.8809 120.433C98.9062 120.447 98.9317 120.462 98.9571 120.477C99.0162 120.511 99.0671 120.54 99.1259 120.565L99.1851 120.599C99.261 120.633 99.3368 120.667 99.413 120.702C99.4298 120.712 99.4383 120.716 99.4551 120.726C99.5145 120.76 99.5651 120.79 99.6322 120.81C99.6576 120.824 99.6744 120.834 99.6999 120.849C99.7421 120.873 99.7844 120.898 99.8351 120.917C99.8604 120.932 99.8857 120.946 99.9027 120.956C99.9451 120.981 99.9789 121 100.021 121.015C100.046 121.03 100.063 121.039 100.089 121.054C100.131 121.079 100.165 121.098 100.215 121.118C100.232 121.127 100.249 121.137 100.266 121.147C100.325 121.181 100.384 121.206 100.443 121.23C100.452 121.235 100.46 121.24 100.468 121.245C94.4279 124.498 88.0231 122.052 88.0231 122.052C88.0231 122.052 80.8802 117.482 80.467 116.646" fill="white"/>
<path d="M96.7433 100.011C88.9599 104.504 84.2617 109.073 86.2327 110.211C86.2327 110.211 102.901 119.332 105.087 120.082C107.265 120.837 118.066 121.868 121.749 120.866C123.857 120.528 126.326 119.659 128.559 118.38C130.784 117.095 132.28 115.665 132.866 114.447C134.602 112.322 132.816 106.086 131.508 104.828C130.201 103.571 114.411 93.9423 114.411 93.9423C112.431 92.7995 104.527 95.5169 96.7433 100.011Z" fill="white"/>
<path d="M118.453 140.332L118.419 140.312C119.595 137.787 121.822 134.958 123.968 132.547L129.166 131.187C133.829 129.784 137.698 128.253 141.68 125.954C144.939 124.073 147.677 122.013 149.913 119.843L153.058 115.791C153.058 115.791 153.09 115.743 153.114 115.719C153.114 115.719 153.114 115.719 153.122 115.714C157.291 114.48 162.182 113.199 166.564 112.515C173.121 111.504 179.769 111.123 186.234 111.376L192.375 107.831C181.43 105.417 169.057 105.166 157.064 107.031C152.682 107.714 147.791 108.995 143.614 110.225C143.614 110.225 143.614 110.225 143.606 110.229C143.59 110.258 143.574 110.277 143.55 110.301L140.404 114.354C138.177 116.519 135.439 118.578 132.171 120.465C128.181 122.769 124.321 124.294 119.657 125.697L114.459 127.057C112.313 129.468 110.087 132.297 108.91 134.823L108.944 134.842C105.715 141.766 106.125 148.914 110.28 155.228L116.446 151.668C116.025 147.936 116.692 144.103 118.453 140.332Z" fill="white"/>
<path d="M163.564 121.212L133.473 138.585L136.29 140.212L166.381 122.839L163.564 121.212Z" fill="white"/>
<path d="M108.374 86.6828C107.301 86.7553 104.183 86.0453 101.244 85.4859C100.331 85.3096 99.4352 85.1527 98.6072 85.0349C98.0468 84.958 97.5202 84.8908 97.0612 84.8628C96.527 84.8293 95.8933 84.8143 95.21 84.818C95.0519 84.8214 94.8851 84.82 94.7269 84.8234C94.4853 84.8261 94.2603 84.8291 94.0105 84.8365C93.8356 84.8398 93.6607 84.8431 93.4858 84.8464C93.5191 84.8467 93.5525 84.847 93.5859 84.8473C93.5359 84.8468 93.4777 84.8511 93.4277 84.8507C93.361 84.8501 93.3027 84.8544 93.236 84.8539C93.2694 84.8542 93.3109 84.8497 93.3442 84.85C92.5199 84.8766 91.6711 84.9174 90.864 84.9633C90.864 84.9633 90.8473 84.9632 90.8307 84.963C90.6976 84.9715 90.556 84.9751 90.4146 84.9883C90.4065 84.993 90.3813 84.988 90.3647 84.9878C90.2316 84.9963 90.0985 85.0048 89.982 85.0134C89.9738 85.0181 89.9405 85.0179 89.9237 85.0178C89.7906 85.0262 89.6743 85.0348 89.5493 85.0386C89.5326 85.0385 89.516 85.0383 89.4911 85.0429C89.3747 85.0514 89.2415 85.06 89.1251 85.0686C89.1251 85.0686 89.1002 85.0732 89.0918 85.0683C89.0335 85.0726 88.992 85.077 88.9419 85.0767L92.4103 87.0791C93.0278 87.4357 92.9933 88.0319 92.3365 88.4111L89.8733 89.8332C89.2165 90.2124 88.1838 90.2324 87.5662 89.8758L80.2996 85.6804C79.7057 85.9159 79.0466 86.2085 78.3224 86.5582L88.9221 92.6779C89.5396 93.0345 89.5049 93.6308 88.8564 94.0052L86.3932 95.4273C85.7364 95.8065 84.7037 95.8265 84.0862 95.4699L73.4865 89.3502C72.8807 89.7684 72.3739 90.1489 71.9662 90.4918L79.2243 94.6823C79.8419 95.0388 79.8072 95.6351 79.1504 96.0143L76.6874 97.4364C76.0306 97.8156 74.9977 97.8356 74.3801 97.4791L70.9118 95.4766C70.9118 95.4766 70.8966 95.5342 70.8974 95.563C70.8974 95.563 70.8895 95.5774 70.8896 95.5871C70.8748 95.6542 70.8601 95.7311 70.8451 95.7984C70.8455 95.8079 70.8375 95.8223 70.8377 95.832C70.8228 95.8992 70.8082 95.976 70.8016 96.0481C70.8019 96.0577 70.8021 96.0674 70.7941 96.0818C70.7795 96.1586 70.7731 96.2307 70.7498 96.3027C70.7417 96.3074 70.7504 96.3219 70.7506 96.3316C70.7359 96.4084 70.7297 96.4901 70.7068 96.5718C70.7068 96.5718 70.7071 96.5814 70.7074 96.5909C70.6277 97.057 70.5571 97.5471 70.5111 98.023C70.5116 98.0422 70.5036 98.0566 70.5124 98.0711C70.513 98.1 70.5057 98.1335 70.5063 98.1625C70.5058 98.1432 70.5054 98.124 70.5049 98.1047C70.4991 98.2057 70.4851 98.3115 70.4796 98.4124C70.4748 98.5519 70.47 98.6914 70.4568 98.826C70.4594 98.9222 70.4533 99.0136 70.4475 99.1049C70.441 99.4994 70.4671 99.8652 70.5251 100.174C70.5821 100.444 70.6897 100.743 70.8232 101.066C71.027 101.535 71.3071 102.057 71.6043 102.588C72.5815 104.29 73.8029 106.086 73.6772 106.705C73.3369 108.367 77.8471 111.018 79.0901 111.717C78.1148 109.77 84.4694 104.157 94.2066 98.5256C103.952 92.899 113.682 89.235 117.055 89.7982C115.845 89.0805 111.252 86.4766 108.374 86.6731L108.374 86.6828Z" fill="white"/>
</g>
</g>
<defs>
<radialGradient id="paint0_radial_384_993" cx="0" cy="0" r="1" gradientUnits="userSpaceOnUse" gradientTransform="translate(111.725 98.8531) rotate(132.846) scale(133.628 157.314)">
<stop stop-color="white"/>
<stop offset="0.981848" stop-color="#F2F4F5"/>
</radialGradient>
<clipPath id="clip0_384_993">
<rect x="0.174805" y="17.4312" width="200" height="200" rx="13.4831" transform="rotate(-5 0.174805 17.4312)" fill="white"/>
</clipPath>
<clipPath id="clip1_384_993">
<rect width="200" height="200" fill="white" transform="translate(8.50977 8.33502)"/>
</clipPath>
</defs>
</svg>
