<svg width="217" height="217" viewBox="0 0 217 217" fill="none" xmlns="http://www.w3.org/2000/svg">
<g clip-path="url(#clip0_384_1020)">
<rect x="17.6055" width="200" height="200" rx="13.4831" transform="rotate(5 17.6055 0)" fill="url(#paint0_radial_384_1020)"/>
<rect width="200" height="200" transform="translate(8.50977 8.33508)" fill="white"/>
<g style="mix-blend-mode:multiply">
<path d="M180.32 81.3117L180.599 80.5505L180.32 81.3118C188.034 84.1392 191.537 85.6561 195.928 88.8823C196.45 89.2686 196.657 89.5206 196.743 89.6743C196.809 89.7924 196.824 89.8851 196.812 90.064L196.811 90.0761C196.811 90.0761 196.811 90.0761 196.811 90.0762C196.811 90.0775 196.81 90.0896 196.803 90.1191C196.795 90.1562 196.784 90.1962 196.764 90.2649L196.761 90.2755C196.722 90.415 196.665 90.623 196.638 90.8792C196.546 91.7679 196.214 92.8245 195.72 94.0644C195.383 94.9118 194.987 95.8042 194.564 96.7579C194.368 97.2002 194.166 97.6556 193.962 98.1259C192.688 101.052 191.357 104.442 191.1 108.041L191.1 108.041C190.978 109.775 190.867 111.589 190.755 113.427C190.513 117.389 190.264 121.465 189.874 125.094C189.588 127.746 189.231 130.122 188.754 132.007C188.266 133.939 187.691 135.188 187.081 135.759L187.081 135.759C185.085 137.628 183.462 138.101 178.564 139.532L178.152 139.652L178.151 139.653C161.479 144.55 140.589 147.476 117.882 147.476C90.511 147.476 65.7707 143.234 47.9026 136.401C38.9658 132.984 31.7896 128.935 26.8619 124.479C21.9341 120.024 19.3206 115.227 19.3206 110.289C19.3206 105.351 21.9342 100.554 26.862 96.0969C31.7897 91.6403 38.9659 87.5893 47.9027 84.1705C65.7708 77.335 90.5111 73.0894 117.882 73.0894C141.433 73.0894 163.938 75.3057 180.32 81.3117Z" fill="#5A4499"/>
<path d="M180.32 81.3117L180.599 80.5505L180.32 81.3118C188.034 84.1392 191.537 85.6561 195.928 88.8823C196.45 89.2686 196.657 89.5206 196.743 89.6743C196.809 89.7924 196.824 89.8851 196.812 90.064L196.811 90.0761C196.811 90.0761 196.811 90.0761 196.811 90.0762C196.811 90.0775 196.81 90.0896 196.803 90.1191C196.795 90.1562 196.784 90.1962 196.764 90.2649L196.761 90.2755C196.722 90.415 196.665 90.623 196.638 90.8792C196.546 91.7679 196.214 92.8245 195.72 94.0644C195.383 94.9118 194.987 95.8042 194.564 96.7579C194.368 97.2002 194.166 97.6556 193.962 98.1259C192.688 101.052 191.357 104.442 191.1 108.041L191.1 108.041C190.978 109.775 190.867 111.589 190.755 113.427C190.513 117.389 190.264 121.465 189.874 125.094C189.588 127.746 189.231 130.122 188.754 132.007C188.266 133.939 187.691 135.188 187.081 135.759L187.081 135.759C185.085 137.628 183.462 138.101 178.564 139.532L178.152 139.652L178.151 139.653C161.479 144.55 140.589 147.476 117.882 147.476C90.511 147.476 65.7707 143.234 47.9026 136.401C38.9658 132.984 31.7896 128.935 26.8619 124.479C21.9341 120.024 19.3206 115.227 19.3206 110.289C19.3206 105.351 21.9342 100.554 26.862 96.0969C31.7897 91.6403 38.9659 87.5893 47.9027 84.1705C65.7708 77.335 90.5111 73.0894 117.882 73.0894C141.433 73.0894 163.938 75.3057 180.32 81.3117Z" stroke="#5A4499" stroke-width="1.62162"/>
</g>
<path d="M118.448 146.978C63.5736 146.978 19.0889 129.968 19.0889 108.98C19.0889 87.9915 63.5736 70.9692 118.448 70.9692C142.027 70.9692 164.648 73.1852 181.165 79.2412C188.895 82.074 192.488 83.6226 196.977 86.9213C198.099 87.7523 198.225 88.2559 198.188 88.8099C198.175 89.0491 198.049 89.2883 198.011 89.6535C197.595 93.6698 192.967 99.8895 192.476 106.789C191.707 117.655 191.391 132.058 188.201 135.042C185.982 137.119 184.116 137.61 178.946 139.121C162.189 144.044 141.22 146.978 118.448 146.978Z" fill="#C9BEE4"/>
<path d="M194.698 99.861C196.016 97.3058 197.72 91.1031 198.51 88.8364C196.587 88.2525 190.659 88.1563 186.867 89.5576C182.127 91.3092 178.933 93.5759 176.667 95.9457C174.4 98.3155 170.691 103.055 174.297 111.607C176.732 117.382 183.57 123.25 185.631 125.826C187.691 128.401 188.413 129.535 188.928 131.905C189.34 133.8 187.726 136.129 186.867 137.056C187.245 136.885 188.309 135.985 189.546 133.759C191.091 130.977 191.813 118.819 192.225 111.607C192.637 104.395 193.049 103.055 194.698 99.861Z" fill="#FFE800"/>
<path d="M88.8559 145.016C88.8564 145.016 88.8569 145.017 88.8574 145.017M88.8559 145.016L88.7934 145.555M88.8559 145.016C88.8476 145.015 88.8394 145.014 88.8312 145.014C79.6449 143.906 70.509 142.246 61.5744 139.856L61.4192 140.431M88.8559 145.016L88.8574 145.017M88.8574 145.017L88.7934 145.555M88.8574 145.017L144.399 145.907C144.389 145.908 144.379 145.91 144.368 145.911C144.368 145.911 144.368 145.911 144.368 145.911C125.906 147.796 107.243 147.694 88.7934 145.555M88.7934 145.555C88.7848 145.554 88.7761 145.553 88.7675 145.552C88.7671 145.552 88.7667 145.552 88.7664 145.552C79.5583 144.456 70.4006 142.82 61.4192 140.431M61.4192 140.431L61.5723 139.855L61.4192 140.431Z" fill="#5A4499" stroke="#5A4499" stroke-width="1.62162"/>
<path d="M117.444 88.4077C116.344 88.2238 112.667 89.3291 112.667 89.3291C112.041 88.9677 111.164 88.8475 110.38 88.9679C110.571 89.0276 110.743 89.1054 110.896 89.1939L110.922 89.2087C111.209 89.3819 111.657 89.6545 112.219 90.0008C112.686 90.2846 113.229 90.6197 113.824 90.9844C113.824 90.9844 113.83 90.9881 113.837 90.9918C114.188 91.2092 114.553 91.4339 114.93 91.666C114.943 91.6734 114.962 91.6844 114.974 91.6918C115.026 91.7213 115.077 91.7508 115.121 91.7766C115.147 91.7914 115.173 91.8061 115.198 91.8209C115.249 91.8504 115.3 91.8799 115.358 91.9131C115.364 91.9167 115.371 91.9204 115.383 91.9278C115.447 91.9647 115.505 91.9979 115.569 92.0348L115.581 92.0421C115.69 92.1048 115.799 92.1748 115.907 92.2447C115.939 92.2632 115.965 92.2779 115.99 92.2927C116.035 92.3185 116.08 92.3442 116.125 92.3701C116.156 92.3885 116.182 92.4032 116.214 92.4217C116.259 92.4475 116.297 92.4696 116.342 92.4954C116.38 92.5176 116.418 92.5397 116.457 92.5618C116.495 92.5839 116.533 92.6061 116.572 92.6282C116.61 92.6503 116.648 92.6724 116.693 92.6983C116.731 92.7204 116.77 92.7425 116.814 92.7683C116.853 92.7904 116.885 92.8089 116.923 92.831C116.993 92.8716 117.063 92.9121 117.128 92.9563C117.172 92.9821 117.217 93.0079 117.255 93.03C117.294 93.0521 117.332 93.0743 117.364 93.0927C117.409 93.1185 117.453 93.1443 117.492 93.1665C117.53 93.1885 117.568 93.2107 117.6 93.2291C117.645 93.2549 117.683 93.277 117.728 93.3028C117.766 93.325 117.805 93.3471 117.836 93.3655C117.881 93.3914 117.932 93.4209 117.977 93.4467C118.009 93.4651 118.041 93.4835 118.073 93.502C118.137 93.5389 118.194 93.5721 118.252 93.6125C118.271 93.6236 118.284 93.631 118.303 93.642C118.379 93.6863 118.45 93.7341 118.52 93.7819C118.546 93.7967 118.571 93.8114 118.591 93.8225C118.642 93.852 118.699 93.8852 118.744 93.9182C118.776 93.9367 118.808 93.9551 118.84 93.9736C118.885 93.9994 118.936 94.0289 118.98 94.0547C119.012 94.0731 119.044 94.0916 119.07 94.1063C119.121 94.1358 119.172 94.1653 119.21 94.1947C119.236 94.2095 119.262 94.2242 119.287 94.239C119.345 94.2722 119.396 94.3017 119.447 94.3384C119.473 94.3532 119.498 94.3679 119.517 94.379C119.594 94.4232 119.664 94.4711 119.735 94.5189C119.748 94.5263 119.754 94.5299 119.767 94.5373C119.824 94.5705 119.888 94.6074 119.946 94.6479C119.978 94.6663 120.003 94.6811 120.029 94.6958C120.08 94.7253 120.125 94.7511 120.169 94.7842C120.195 94.7989 120.221 94.8137 120.253 94.8321C120.297 94.8579 120.348 94.8874 120.387 94.9167C120.412 94.9315 120.444 94.9499 120.47 94.9647C120.521 94.9942 120.572 95.0237 120.617 95.0568C120.636 95.0678 120.662 95.0826 120.681 95.0937C120.815 95.1783 120.949 95.2631 121.077 95.3514C121.103 95.3661 121.129 95.3809 121.148 95.392C121.192 95.4178 121.244 95.4473 121.282 95.4766C121.308 95.4913 121.327 95.5025 121.352 95.5172C121.397 95.543 121.442 95.5688 121.48 95.5982C121.506 95.613 121.531 95.6277 121.557 95.6425C121.602 95.6683 121.646 95.6941 121.678 95.7198C121.704 95.7346 121.723 95.7456 121.742 95.7567C121.793 95.7861 121.844 95.8156 121.883 95.8451C121.896 95.8525 121.915 95.8635 121.928 95.8709C121.991 95.9078 122.043 95.9445 122.101 95.985C122.12 95.996 122.132 96.0033 122.152 96.0145C122.196 96.0402 122.241 96.066 122.273 96.0918C122.292 96.1029 122.318 96.1176 122.337 96.1287C122.375 96.1508 122.414 96.1729 122.439 96.1949C122.465 96.2097 122.484 96.2207 122.503 96.2318C122.542 96.2539 122.58 96.2761 122.612 96.3018C122.631 96.3128 122.65 96.3239 122.67 96.335C122.714 96.3608 122.753 96.3829 122.785 96.4085C122.798 96.416 122.81 96.4233 122.829 96.4343C122.88 96.4638 122.925 96.497 122.97 96.5301C122.983 96.5374 122.989 96.5411 123.002 96.5485C123.047 96.5743 123.085 96.5964 123.111 96.6257C123.13 96.6368 123.143 96.6441 123.162 96.6552C123.194 96.6736 123.226 96.6921 123.252 96.7141C123.271 96.7251 123.29 96.7361 123.303 96.7436C123.335 96.762 123.36 96.7768 123.38 96.7951C123.399 96.8062 123.412 96.8136 123.431 96.8246C123.463 96.8431 123.488 96.8578 123.514 96.8798C123.527 96.8872 123.54 96.8945 123.552 96.9019C123.597 96.9277 123.629 96.9535 123.661 96.9791C123.668 96.9828 123.674 96.9865 123.68 96.9902C127.935 94.3571 124.742 91.5617 124.742 91.5617C124.742 91.5617 118.766 88.4481 117.667 88.2716" fill="#5A4499"/>
<path d="M83.8581 107.798C83.5398 107.163 85.4541 105.04 85.4541 105.04C84.8281 104.679 84.62 104.172 84.8284 103.72C84.9319 103.83 85.0666 103.929 85.22 104.018L85.2456 104.032C85.5454 104.198 86.0178 104.457 86.6175 104.782C87.1089 105.051 87.6895 105.365 88.3213 105.708C88.3213 105.708 88.3277 105.712 88.3341 105.715C88.7106 105.918 89.0997 106.129 89.5017 106.347C89.5146 106.354 89.5337 106.365 89.5464 106.372C89.5975 106.402 89.6487 106.431 89.6934 106.457C89.7189 106.472 89.7445 106.487 89.77 106.501C89.8211 106.531 89.8722 106.56 89.9297 106.594C89.936 106.597 89.9424 106.601 89.9553 106.608C90.0191 106.645 90.0766 106.678 90.1405 106.715C90.1405 106.715 90.1468 106.719 90.1532 106.723C90.2618 106.785 90.3829 106.848 90.504 106.911C90.536 106.93 90.5615 106.944 90.5871 106.959C90.6317 106.985 90.6764 107.011 90.7212 107.036C90.7531 107.055 90.7786 107.07 90.8106 107.088C90.8552 107.114 90.8936 107.136 90.9383 107.162C90.9767 107.184 91.0149 107.206 91.0533 107.228C91.0916 107.25 91.1299 107.272 91.1682 107.295C91.2066 107.317 91.2448 107.339 91.2896 107.365C91.3279 107.387 91.3663 107.409 91.4109 107.435C91.4492 107.457 91.4812 107.475 91.5195 107.497C91.5898 107.538 91.66 107.578 91.7366 107.615C91.7813 107.641 91.8259 107.667 91.8643 107.689C91.9026 107.711 91.9409 107.733 91.9729 107.752C92.0176 107.778 92.0623 107.803 92.1006 107.826C92.1389 107.848 92.1773 107.87 92.2091 107.888C92.2539 107.914 92.2922 107.936 92.3368 107.962C92.3752 107.984 92.4136 108.006 92.4454 108.025C92.4902 108.051 92.5413 108.08 92.586 108.106C92.618 108.124 92.6498 108.143 92.6818 108.161C92.7457 108.198 92.8032 108.231 92.8731 108.265C92.8923 108.276 92.9051 108.283 92.9242 108.294C93.0009 108.338 93.0775 108.383 93.1604 108.423C93.186 108.438 93.2115 108.453 93.2306 108.464C93.2818 108.493 93.3392 108.526 93.3965 108.552C93.4284 108.571 93.4604 108.589 93.4924 108.608C93.537 108.634 93.5881 108.663 93.6328 108.689C93.6648 108.707 93.6967 108.726 93.7223 108.74C93.7734 108.77 93.8244 108.799 93.8754 108.822C93.9009 108.836 93.9265 108.851 93.952 108.866C94.0095 108.899 94.0606 108.929 94.1243 108.958C94.1498 108.973 94.1754 108.988 94.1945 108.999C94.2711 109.043 94.354 109.084 94.4368 109.124C94.4496 109.132 94.4559 109.135 94.4688 109.143C94.5263 109.176 94.5901 109.213 94.6603 109.246C94.6922 109.265 94.7178 109.279 94.7433 109.294C94.7944 109.324 94.8391 109.349 94.8963 109.375C94.9219 109.39 94.9474 109.405 94.9794 109.423C95.0241 109.449 95.0751 109.479 95.126 109.501C95.1515 109.516 95.1835 109.534 95.209 109.549C95.2601 109.578 95.3112 109.608 95.3686 109.634C95.3877 109.645 95.4132 109.659 95.4325 109.671C95.5791 109.748 95.7259 109.826 95.8787 109.9C95.9043 109.914 95.9298 109.929 95.9491 109.94C95.9938 109.966 96.0448 109.995 96.0957 110.018C96.1212 110.032 96.1405 110.044 96.166 110.058C96.2107 110.084 96.2554 110.11 96.3063 110.132C96.3318 110.147 96.3574 110.162 96.3829 110.176C96.4277 110.202 96.4724 110.228 96.5169 110.247C96.5425 110.261 96.5616 110.272 96.5807 110.283C96.6318 110.313 96.6829 110.342 96.7337 110.365C96.7466 110.372 96.7657 110.383 96.7785 110.391C96.8423 110.427 96.9061 110.457 96.9762 110.49C96.9953 110.501 97.008 110.509 97.0273 110.52C97.0719 110.546 97.1166 110.571 97.1612 110.59C97.1804 110.601 97.2059 110.616 97.2251 110.627C97.2634 110.649 97.3017 110.671 97.3398 110.686C97.3653 110.701 97.3845 110.712 97.4037 110.723C97.442 110.745 97.4804 110.767 97.5249 110.786C97.544 110.797 97.5633 110.808 97.5824 110.819C97.6271 110.845 97.6654 110.867 97.7098 110.885L97.7545 110.911C97.8119 110.937 97.8691 110.963 97.9266 110.989C97.9393 110.996 97.9457 111 97.9584 111.007C98.0032 111.033 98.0415 111.055 98.0921 111.07C98.1113 111.081 98.124 111.089 98.1432 111.1C98.1751 111.118 98.207 111.137 98.2453 111.151C98.2644 111.162 98.2835 111.173 98.2964 111.181C98.3283 111.199 98.3539 111.214 98.3856 111.225C98.4047 111.236 98.4175 111.244 98.4366 111.255C98.4686 111.273 98.4942 111.288 98.5323 111.303C98.5451 111.31 98.5578 111.317 98.5706 111.325C98.6153 111.351 98.6598 111.369 98.7044 111.388C98.7108 111.391 98.7172 111.395 98.7235 111.399C94.1629 113.855 89.3273 112.008 89.3273 112.008C89.3273 112.008 83.9344 108.558 83.6225 107.927" fill="#5A4499"/>
<path d="M95.9115 95.3672C90.0351 98.76 86.488 102.209 87.9761 103.068C87.9761 103.068 100.561 109.955 102.211 110.521C103.856 111.091 112.01 111.87 114.791 111.113C116.382 110.858 118.246 110.202 119.932 109.236C121.612 108.266 122.742 107.186 123.184 106.267C124.495 104.662 123.146 99.9537 122.159 99.0045C121.172 98.0551 109.25 90.7856 109.25 90.7856C107.756 89.9228 101.788 91.9744 95.9115 95.3672Z" fill="#5A4499"/>
<path d="M112.303 125.809L112.278 125.795C113.166 123.888 114.847 121.752 116.467 119.932L120.391 118.905C123.912 117.846 126.833 116.69 129.84 114.955C132.3 113.534 134.368 111.979 136.056 110.341L138.43 107.281C138.43 107.281 138.454 107.245 138.473 107.227C138.473 107.227 138.473 107.227 138.479 107.223C141.626 106.292 145.319 105.325 148.627 104.808C153.578 104.044 158.597 103.757 163.478 103.948L168.115 101.271C159.851 99.4492 150.51 99.2596 141.455 100.667C138.146 101.183 134.453 102.15 131.3 103.079C131.3 103.079 131.3 103.079 131.294 103.082C131.282 103.104 131.27 103.118 131.251 103.136L128.877 106.196C127.195 107.831 125.128 109.386 122.661 110.81C119.648 112.549 116.734 113.701 113.213 114.76L109.288 115.787C107.668 117.608 105.987 119.743 105.099 121.65L105.124 121.665C102.687 126.892 102.996 132.289 106.133 137.056L110.788 134.369C110.47 131.551 110.974 128.657 112.303 125.809Z" fill="#5A4499"/>
<path d="M146.361 111.374L123.643 124.491L125.769 125.719L148.488 112.602L146.361 111.374Z" fill="#5A4499"/>
<path d="M104.694 85.3045C103.884 85.3593 101.529 84.8232 99.3101 84.4008C98.6208 84.2678 97.9446 84.1493 97.3195 84.0604C96.8964 84.0023 96.4988 83.9516 96.1522 83.9304C95.749 83.9052 95.2705 83.8938 94.7546 83.8966C94.6352 83.8992 94.5093 83.8981 94.3899 83.9007C94.2075 83.9028 94.0376 83.905 93.849 83.9106C93.717 83.9131 93.5849 83.9156 93.4529 83.9181C93.478 83.9183 93.5032 83.9185 93.5284 83.9187C93.4907 83.9184 93.4467 83.9216 93.409 83.9213C93.3586 83.9209 93.3147 83.9241 93.2643 83.9237C93.2895 83.9239 93.3208 83.9206 93.346 83.9208C92.7236 83.9409 92.0828 83.9716 91.4734 84.0063C91.4734 84.0063 91.4608 84.0062 91.4483 84.0061C91.3478 84.0125 91.2409 84.0152 91.1341 84.0252C91.128 84.0288 91.1089 84.025 91.0964 84.0249C90.9959 84.0313 90.8954 84.0376 90.8075 84.0442C90.8013 84.0477 90.7761 84.0475 90.7635 84.0474C90.663 84.0538 90.5752 84.0603 90.4808 84.0631C90.4682 84.0631 90.4556 84.0629 90.4369 84.0664C90.349 84.0729 90.2484 84.0793 90.1606 84.0858C90.1606 84.0858 90.1418 84.0893 90.1354 84.0856C90.0914 84.0889 90.0601 84.0922 90.0222 84.0919L92.6408 85.6038C93.1071 85.8729 93.081 86.3231 92.5851 86.6094L90.7254 87.6831C90.2295 87.9694 89.4498 87.9844 88.9836 87.7153L83.4973 84.5478C83.0489 84.7255 82.5513 84.9465 82.0046 85.2105L90.0072 89.8308C90.4735 90.1 90.4473 90.5502 89.9577 90.8329L88.098 91.9066C87.6021 92.1929 86.8224 92.208 86.3562 91.9388L78.3535 87.3184C77.896 87.6342 77.5134 87.9215 77.2056 88.1803L82.6855 91.3441C83.1517 91.6133 83.1255 92.0635 82.6297 92.3498L80.7701 93.4234C80.2742 93.7098 79.4944 93.7249 79.0281 93.4557L76.4095 91.9438C76.4095 91.9438 76.3981 91.9873 76.3987 92.0091C76.3987 92.0091 76.3927 92.0199 76.3928 92.0272C76.3816 92.078 76.3705 92.136 76.3592 92.1868C76.3595 92.194 76.3534 92.2048 76.3536 92.2122C76.3424 92.2629 76.3313 92.3209 76.3264 92.3753C76.3266 92.3826 76.3267 92.3899 76.3207 92.4007C76.3096 92.4588 76.3048 92.5132 76.2872 92.5676C76.2811 92.5711 76.2877 92.582 76.2878 92.5893C76.2768 92.6473 76.2721 92.7091 76.2548 92.7707C76.2548 92.7707 76.255 92.7779 76.2552 92.7852C76.1951 93.137 76.1418 93.507 76.107 93.8663C76.1074 93.8809 76.1013 93.8917 76.108 93.9027C76.1085 93.9245 76.1029 93.9498 76.1034 93.9717C76.1031 93.9571 76.1027 93.9426 76.1023 93.9281C76.098 94.0043 76.0874 94.0842 76.0832 94.1603C76.0796 94.2657 76.076 94.371 76.066 94.4726C76.068 94.5452 76.0634 94.6142 76.059 94.6832C76.0541 94.981 76.0738 95.2572 76.1176 95.4901C76.1606 95.6939 76.2419 95.9198 76.3427 96.164C76.4965 96.5177 76.708 96.9118 76.9323 97.3133C77.6701 98.5983 78.5923 99.9538 78.4974 100.422C78.2405 101.676 81.6457 103.678 82.5842 104.205C81.8478 102.735 86.6455 98.4977 93.997 94.2459C101.355 89.9977 108.701 87.2315 111.247 87.6566C110.334 87.1148 106.866 85.1489 104.694 85.2972L104.694 85.3045Z" fill="#5A4499"/>
</g>
<defs>
<radialGradient id="paint0_radial_384_1020" cx="0" cy="0" r="1" gradientUnits="userSpaceOnUse" gradientTransform="translate(129.155 81.422) rotate(132.846) scale(133.628 157.314)">
<stop stop-color="white"/>
<stop offset="0.981848" stop-color="#F2F4F5"/>
</radialGradient>
<clipPath id="clip0_384_1020">
<rect x="17.6055" width="200" height="200" rx="13.4831" transform="rotate(5 17.6055 0)" fill="white"/>
</clipPath>
</defs>
</svg>
