<svg width="81" height="74" viewBox="0 0 81 74" fill="none" xmlns="http://www.w3.org/2000/svg">
<path d="M52.5223 39.8492C52.6864 39.7481 53.0905 39.5838 53.4441 39.4827C53.7977 39.3816 54.3408 39.2931 54.6817 39.2931C55.0101 39.2805 55.5404 39.3689 55.8814 39.4827C56.2098 39.5964 56.8664 39.9124 57.3589 40.1904C57.8514 40.4684 58.445 40.8096 58.6849 40.9486C58.9248 41.0877 59.5815 41.4668 60.1372 41.7827C60.6928 42.0987 61.7789 42.7305 62.5366 43.1729C63.3069 43.6278 64.153 44.1207 64.4308 44.2723C64.7086 44.424 65.4411 44.8537 66.0725 45.2202C66.7039 45.5866 67.4616 46.029 67.7773 46.2059C68.093 46.3702 68.7371 46.7746 69.2296 47.0905C69.7094 47.4191 70.5556 48.1142 71.1112 48.6323C71.6542 49.1504 72.3488 49.8961 72.6392 50.2752C72.9171 50.6543 73.3212 51.2483 73.5232 51.6021C73.7253 51.9434 74.0031 52.4615 74.1294 52.7395C74.2683 53.0176 74.5714 53.839 74.7987 54.572C75.0386 55.305 75.2785 56.0885 75.3291 56.316C75.4048 56.6825 75.569 56.8215 76.4277 57.327C76.9834 57.6556 77.5769 57.9968 77.7537 58.0852C77.9305 58.1737 78.524 58.5275 79.0671 58.8435C79.6101 59.1721 80.1784 59.6144 80.3046 59.8166C80.4814 60.0946 80.5319 60.3474 80.4814 60.7644C80.4309 61.1814 80.3173 61.4342 80.0268 61.7122C79.7111 62.0282 79.5343 62.0914 79.0418 62.0914C78.5367 62.0914 78.221 61.9523 76.9329 61.2194C76.0994 60.7391 74.9628 60.0946 74.4072 59.7787C73.8515 59.4627 73.2328 59.0583 73.0433 58.8814C72.8034 58.6539 72.6013 58.2369 72.3993 57.5418C72.2351 56.9858 72.0331 56.2401 71.9447 55.8989C71.8689 55.5451 71.629 54.8753 71.4143 54.3824C71.2122 53.8895 70.7955 53.1313 70.4924 52.6763C70.1893 52.2214 69.6463 51.5516 69.2675 51.1725C68.9012 50.7933 68.3203 50.2752 67.9667 50.0224C67.6258 49.7697 66.906 49.3147 66.3882 49.0241C65.8704 48.7208 64.8981 48.1647 64.2414 47.7729C63.5847 47.3938 62.827 46.9641 62.5744 46.8125C62.3092 46.6735 61.5768 46.2438 60.9328 45.8647C60.2887 45.4982 59.531 45.0559 59.2532 44.9042C58.9754 44.7526 58.2429 44.3229 57.6115 43.9564C56.9927 43.5899 56.1466 43.097 55.7551 42.8696C55.3005 42.6042 54.8585 42.4399 54.5807 42.4399C54.265 42.4399 54.0882 42.5157 53.9493 42.7179C53.8483 42.8822 53.7599 43.1476 53.7599 43.3245C53.7599 43.5014 53.8861 43.7542 54.0377 43.9058C54.2018 44.0449 55.0227 44.563 55.8688 45.0432C56.7275 45.5235 57.5989 46.0542 57.8136 46.2312C58.1419 46.4966 58.2177 46.6608 58.2934 47.2548C58.3692 47.9499 58.3566 47.9751 57.9019 48.4301C57.5105 48.8219 57.3716 48.8851 56.8285 48.8851C56.3108 48.8851 56.033 48.7713 54.8964 48.1015C54.164 47.6845 52.8885 46.9262 52.055 46.446C51.2216 45.9531 50.4007 45.5108 50.2239 45.4729C50.0471 45.4224 49.7693 45.435 49.5925 45.4982C49.4157 45.5614 49.2389 45.6877 49.1884 45.7636C49.1379 45.852 49.0874 46.0921 49.0874 46.2943C49.0874 46.4966 49.1758 46.7619 49.302 46.8883C49.4283 47.0021 50.0976 47.4191 50.7922 47.8235C51.4868 48.2153 52.7622 48.9482 53.6209 49.4411C54.4797 49.934 55.3258 50.49 55.4899 50.6796C55.6415 50.8818 55.8183 51.1851 55.8562 51.3747C55.9067 51.5769 55.8814 51.9307 55.8056 52.1708C55.7299 52.4109 55.5026 52.7269 55.3131 52.8785C55.1237 53.0302 54.7827 53.1818 54.5807 53.2324C54.2902 53.2956 54.0124 53.2198 53.381 52.8912C52.9264 52.6637 51.7898 52.0192 50.8553 51.4758C49.9208 50.9323 48.8727 50.3257 48.5191 50.1235C48.1781 49.9213 47.7993 49.7065 47.6982 49.6433C47.5972 49.5801 47.1173 49.3021 46.6248 49.0114C46.1323 48.7334 45.6272 48.5059 45.4883 48.4933C45.3494 48.4933 45.0842 48.607 44.8948 48.7587C44.6548 48.923 44.5412 49.1252 44.5412 49.3526C44.5412 49.5548 44.6548 49.8202 44.819 49.9719C44.9832 50.1235 45.5893 50.5153 46.1828 50.8565C46.7764 51.1977 47.3447 51.5263 47.4709 51.6021C47.5846 51.6653 48.1781 52.0065 48.7843 52.3604C49.3904 52.7016 50.0976 53.106 50.3376 53.245C50.5901 53.3967 51.2721 53.7884 51.853 54.1297C52.4339 54.4835 53.0148 54.9132 53.1537 55.1028C53.28 55.305 53.3936 55.6714 53.4063 55.9242C53.4315 56.2401 53.3431 56.5308 53.1789 56.7836C53.0274 56.9858 52.7243 57.2385 52.4844 57.3396C52.2318 57.4407 51.8656 57.4913 51.613 57.4534C51.3731 57.4028 49.8324 56.6066 48.2034 55.6588C46.5743 54.711 45.1347 53.9401 45.021 53.9401C44.8948 53.9401 44.7053 53.978 44.5917 54.0286C44.478 54.0917 44.3012 54.2687 44.2128 54.4456C44.0739 54.711 44.0865 54.8247 44.2633 55.1912C44.4401 55.5451 44.9453 55.8863 47.3825 57.2764C48.9737 58.1863 50.9058 59.2984 51.6762 59.7534C52.4465 60.2083 53.1789 60.6254 53.3179 60.7012C53.4568 60.7644 54.025 61.093 54.5807 61.4216C55.1363 61.7375 55.7425 62.1545 55.9446 62.3315C56.134 62.5084 56.336 62.8875 56.4118 63.1655C56.496 63.5025 56.496 63.8396 56.4118 64.1766C56.336 64.4546 56.1087 64.8463 55.9067 65.0612C55.6541 65.3139 55.351 65.4656 54.9974 65.5161C54.6186 65.5667 54.1008 65.4909 53.2547 65.2634C52.598 65.0865 51.8151 64.8716 51.5246 64.7832C51.0826 64.6441 50.9437 64.6441 50.6785 64.8084C50.4891 64.9095 50.2871 65.1623 50.2239 65.3771C50.1229 65.6804 50.1481 65.8321 50.3249 66.1354C50.5396 66.4766 50.8806 66.6283 58.3692 69.1558H60.4529C62.4608 69.1558 62.5997 69.1431 64.2414 68.7008C65.1759 68.4481 66.0977 68.1827 66.2998 68.1068C66.4892 68.031 66.906 67.9678 67.2469 67.9678C67.7521 67.9678 68.0804 68.1068 69.5453 68.9409C70.4798 69.4843 71.7047 70.1921 72.2604 70.5333C72.816 70.8618 73.3464 71.241 73.4348 71.3547C73.5232 71.4685 73.6495 71.7718 73.7126 72.0119C73.7884 72.3278 73.7758 72.5679 73.6621 72.8333C73.5737 73.0355 73.3338 73.3388 73.1317 73.5031C72.8792 73.7053 72.6013 73.7938 72.2351 73.7811C71.831 73.7811 71.4522 73.6421 70.7829 73.2504C70.2777 72.9723 69.2296 72.3784 67.0828 71.1399L65.8199 71.4937C65.1254 71.6959 63.9383 71.9866 63.168 72.1382C61.9935 72.3784 61.501 72.4163 60.0109 72.3657C58.8743 72.3278 57.9777 72.2267 57.4852 72.0751C57.0685 71.9613 56.0203 71.6327 55.149 71.3421C54.2776 71.064 52.7496 70.5585 51.7393 70.2173C50.729 69.8761 49.6683 69.497 49.3778 69.358C49.0747 69.219 48.5949 68.8904 48.3044 68.6124C47.9761 68.3217 47.6225 67.8162 47.3952 67.3233C47.0668 66.5903 47.0416 66.4134 47.0921 65.4403C47.13 64.4799 47.1931 64.2903 47.5972 63.6079C47.8498 63.1908 48.317 62.6474 49.2136 61.965L48.8601 61.7375C48.6706 61.6111 48.0518 61.2446 47.4709 60.916C46.89 60.5875 46.2081 60.1957 45.9555 60.0567C45.703 59.905 45.0589 59.5512 44.5412 59.2479C44.0234 58.9572 43.3162 58.5275 42.9626 58.3001C42.6217 58.0726 42.2175 57.744 42.0786 57.5797C41.9397 57.4281 41.6998 57.1121 41.5609 56.9099C41.4093 56.6951 41.2199 56.2149 41.1315 55.8357C41.0305 55.4061 41.0052 54.8374 41.0557 54.3445C41.0936 53.9148 41.2199 53.3714 41.3336 53.1439C41.4472 52.9291 41.6872 52.5373 42.167 51.8549L41.8134 51.0966C41.5104 50.4648 41.4472 50.1741 41.4598 49.3906C41.4598 48.6449 41.523 48.3037 41.7882 47.7477C41.965 47.3685 42.2807 46.8757 42.4701 46.6608C42.6722 46.4586 43.0636 46.1301 43.3415 45.9531C43.6193 45.7762 44.1497 45.574 44.5159 45.4855C44.8695 45.4097 45.362 45.3465 45.5893 45.3465C45.9555 45.3465 46.0187 45.296 46.2712 44.6894C46.4354 44.3229 46.8016 43.7795 47.0921 43.4888C47.3952 43.2108 47.9256 42.819 48.2665 42.6421C48.759 42.3893 49.1126 42.3009 50.7669 42.2503L50.9311 41.7448C51.0321 41.4668 51.3605 40.9739 51.6762 40.6327C51.9919 40.3041 52.3707 39.9503 52.5223 39.8492Z" fill="#5A4499"/>
<path d="M16.0642 42.2124C16.3421 42.0355 16.7714 41.808 17.0114 41.7195C17.2892 41.6184 17.8448 41.5679 18.5268 41.5932C19.4865 41.6184 19.6759 41.669 20.3453 42.0608C20.762 42.3009 21.2545 42.7053 21.4565 42.9454C21.646 43.1855 21.9112 43.5899 22.0248 43.83C22.1385 44.0701 22.29 44.6009 22.3658 45.0053C22.4416 45.3971 22.53 45.7257 22.5678 45.7257C22.6057 45.713 22.8204 45.6119 23.0351 45.4982C23.2624 45.3844 24.0832 44.9169 24.8662 44.4619C25.6492 44.0196 26.4069 43.5773 26.5458 43.5014C26.6847 43.413 27.3666 43.0338 28.0612 42.6421C28.7557 42.2503 29.5513 41.8712 29.8291 41.7954C30.107 41.7195 30.65 41.6816 31.0288 41.7195C31.4077 41.7574 32.0391 41.9217 32.4179 42.0987C32.7968 42.2756 33.2514 42.5536 33.4282 42.7179C33.605 42.8822 33.8955 43.236 34.0849 43.5141C34.2869 43.7921 34.489 44.1965 34.5395 44.3987C34.6405 44.7652 34.6784 44.7778 35.5245 44.8537C36.0675 44.9042 36.6232 45.0559 37.0273 45.2454C37.3809 45.4224 37.8734 45.8015 38.1386 46.0921C38.3912 46.3702 38.7321 46.8504 38.8837 47.1411C39.1236 47.5834 39.1741 47.8867 39.1741 48.8219C39.1741 49.8329 39.1362 50.0477 38.4796 51.2862L38.8331 51.7538C39.0226 52.0192 39.2878 52.4615 39.4141 52.7395C39.5403 53.0176 39.6792 53.561 39.7171 53.9401C39.755 54.433 39.7045 54.8626 39.5403 55.3934C39.4141 55.8105 39.1867 56.3286 38.77 56.9099L39.2499 57.6682C39.5403 58.1231 39.7676 58.6539 39.8182 58.9951C39.8687 59.3111 39.8813 59.905 39.8434 60.3221C39.8182 60.777 39.6792 61.3078 39.5025 61.649C39.3509 61.965 39.0352 62.4073 38.8205 62.6348C38.5932 62.8749 37.6208 63.532 36.6484 64.1007C35.6761 64.6821 34.7037 65.2507 34.5016 65.3645C34.2996 65.4782 33.8955 65.7057 33.6176 65.87C33.3398 66.0343 32.5442 66.4892 31.8497 66.8936C31.1551 67.298 30.4227 67.7151 30.208 67.8415C30.0059 67.9552 29.2861 68.3596 28.6294 68.7261C27.9728 69.1052 27.3414 69.4717 27.2403 69.5602C27.1393 69.636 26.5079 69.9899 25.8512 70.3311C25.1945 70.6849 24.1085 71.1399 23.4518 71.3547C22.7952 71.5822 21.8859 71.8097 21.4313 71.8855C20.9767 71.9487 19.9917 72.0119 19.2213 72.0119C18.4636 72.0119 17.3523 71.936 16.7588 71.8349C16.1653 71.7465 15.3065 71.5443 13.9806 71.1272L12.5662 71.9234C11.7832 72.3657 10.7225 72.9723 10.2299 73.2504C9.54802 73.6421 9.16917 73.7811 8.77769 73.7811C8.39884 73.7938 8.12101 73.7053 7.86845 73.5031C7.66639 73.3388 7.42645 73.0355 7.33806 72.8333C7.2244 72.5679 7.21177 72.3278 7.28754 72.0119C7.35068 71.7718 7.47697 71.4685 7.56537 71.3547C7.65376 71.241 8.18416 70.8618 8.7398 70.5333C9.29545 70.1921 10.533 69.4717 11.4928 68.9409C12.8819 68.1574 13.3239 67.9678 13.7659 67.9678C14.0563 67.9678 14.5488 68.0563 14.8645 68.1574C15.1803 68.2711 16.1021 68.4986 16.923 68.6755C17.7312 68.8398 18.7793 68.9788 19.2592 68.9788C19.7265 68.9788 20.6988 68.8398 21.4313 68.6755C22.1637 68.4986 23.1235 68.1953 23.5781 67.9805C24.0327 67.7656 24.6263 67.4497 24.9041 67.2854C25.1819 67.1211 25.9522 66.6788 26.6089 66.2997C27.2656 65.9205 28.5537 65.1749 29.4503 64.6568C30.3595 64.1386 31.8623 63.2666 32.7968 62.7232C33.7313 62.1798 34.9436 61.4847 35.4866 61.1814C36.017 60.8908 36.5474 60.5116 36.6484 60.3474C36.7495 60.1957 36.8379 59.9809 36.8379 59.8798C36.8505 59.7787 36.7368 59.5386 36.5853 59.3363C36.4169 59.1089 36.2191 58.9951 35.9918 58.9951C35.7897 58.9951 35.1836 59.2605 34.6279 59.5765C34.0723 59.8924 33.1757 60.4105 32.6453 60.7139C32.0012 61.0803 31.5087 61.2699 31.2183 61.2699C30.8899 61.2699 30.65 61.1562 30.309 60.8402C29.867 60.4358 29.8291 60.3474 29.8291 59.7155C29.8291 59.1468 29.8923 58.9572 30.1448 58.6792C30.3216 58.5023 31.7108 57.6303 33.2388 56.7583C34.7668 55.8863 36.1433 55.0522 36.3075 54.9006C36.4716 54.7489 36.5853 54.4962 36.5853 54.2813C36.5853 54.0917 36.4716 53.8264 36.3327 53.6873C36.1812 53.5357 35.916 53.4346 35.6634 53.4346C35.4361 53.4346 35.1962 53.4851 35.1204 53.5483C35.0573 53.6115 33.6934 54.4077 32.1022 55.3176C30.5111 56.2275 29.0714 56.9731 28.9199 56.9731C28.7557 56.9731 28.44 56.8973 28.2253 56.7962C27.998 56.7077 27.7202 56.5182 27.6066 56.3918C27.4929 56.2528 27.354 55.9748 27.3035 55.7725C27.253 55.5703 27.2782 55.1786 27.354 54.9132C27.4424 54.6225 27.6444 54.3445 27.9096 54.1676C28.1243 54.0033 29.3366 53.2956 30.5868 52.5752C31.837 51.8549 33.4787 50.9071 34.2238 50.4774C34.9815 50.0604 35.7013 49.6054 35.8402 49.479C35.9791 49.3526 36.0802 49.0999 36.0802 48.8471C36.0802 48.6323 35.9791 48.3416 35.8529 48.2153C35.7392 48.0889 35.4614 48.0004 35.2593 48.0004C35.0446 48.0004 34.4385 48.2532 33.8702 48.5944C33.3146 48.9103 32.3422 49.479 31.7234 49.8455C31.1046 50.212 29.7155 50.9955 28.6673 51.5895C27.4298 52.2846 26.5963 52.6763 26.3563 52.6763C26.1543 52.6763 25.8512 52.6131 25.6997 52.5247C25.5355 52.4489 25.2829 52.234 25.1188 52.0571C24.9041 51.8043 24.8283 51.5769 24.8409 51.1219C24.8409 50.6796 24.9167 50.4395 25.1314 50.1741C25.2956 49.9845 25.9396 49.5422 26.5584 49.1884C27.1772 48.8345 28.4527 48.1015 29.3871 47.5707C30.3216 47.0273 31.2183 46.4713 31.3824 46.3196C31.534 46.168 31.6729 45.9279 31.6729 45.7888C31.6729 45.6498 31.5592 45.3844 31.4077 45.1822C31.2561 44.9674 31.0415 44.841 30.8394 44.841C30.6626 44.841 30.0817 45.0938 29.5513 45.3844C29.0083 45.6877 27.796 46.3828 26.8615 46.9262C25.9272 47.4695 24.6144 48.2275 23.9575 48.6067L23.957 48.607C23.3003 48.9862 22.5931 49.3906 22.3784 49.5169C22.1764 49.6433 21.3176 50.1362 20.4842 50.6038C19.095 51.3999 18.9056 51.4758 18.2489 51.4758C17.6302 51.4758 17.4786 51.4252 17.1377 51.0966C16.9103 50.8944 16.6578 50.5659 16.5567 50.3637C16.4557 50.1741 16.38 49.8455 16.38 49.6433C16.38 49.4411 16.4431 49.1125 16.5189 48.9103C16.5946 48.7208 17.2513 47.9878 17.9711 47.2674C18.994 46.2564 19.2845 45.9026 19.2845 45.6246C19.2845 45.435 19.1708 45.157 19.0319 44.9927C18.8677 44.8031 18.6404 44.7146 18.3373 44.7146C18.0216 44.7146 17.7564 44.8284 17.4281 45.119C17.1629 45.3465 16.4683 45.9531 15.8748 46.4839C15.2813 47.0147 14.2331 47.9246 13.5386 48.5186C12.844 49.1125 12.0232 49.9087 11.7075 50.2878C11.3918 50.667 11.0129 51.1472 10.874 51.3494C10.7225 51.5516 10.4194 52.095 10.1921 52.55C9.96475 53.0049 9.62379 53.8769 9.43436 54.5088C9.24494 55.128 9.04288 55.8484 8.99237 56.0885C8.94186 56.3286 8.77769 56.9858 8.60089 57.5418C8.39884 58.2242 8.19678 58.6539 7.95685 58.8814C7.76742 59.0583 7.14863 59.4627 6.59298 59.7787C6.03734 60.0946 4.90079 60.7391 4.06731 61.2194C2.77922 61.9523 2.46351 62.0914 1.95838 62.0914C1.46588 62.0914 1.28908 62.0282 0.97337 61.7122C0.682918 61.4342 0.569263 61.1814 0.51875 60.7644C0.468236 60.3474 0.51875 60.0946 0.682918 59.8166C0.82183 59.6017 1.36485 59.1721 1.99627 58.8182C2.57717 58.477 3.1707 58.1231 3.30961 58.0473C3.44853 57.9715 4.02943 57.6429 4.61033 57.3143C5.17861 56.9858 5.64586 56.6445 5.64586 56.5561C5.64586 56.4803 5.83528 55.722 6.07522 54.8879C6.30253 54.0538 6.6435 52.9796 6.82029 52.4868C6.99709 51.9939 7.32543 51.2609 7.54011 50.8439C7.75479 50.4268 8.17153 49.7444 8.46198 49.34C8.75243 48.923 9.39648 48.19 9.87635 47.6971C10.3689 47.2043 11.6696 46.0037 12.7682 45.0306C13.8795 44.0575 14.9656 43.097 15.1676 42.9075C15.3823 42.7053 15.7864 42.3893 16.0642 42.2124Z" fill="#5A4499"/>
<path d="M31.8497 1.36767C31.9002 1.12756 32.1149 0.773706 32.3169 0.571504V0.584142C32.62 0.293477 32.8221 0.230289 33.3146 0.230289C33.8071 0.230289 34.0091 0.293477 34.3248 0.584142C34.5774 0.811619 34.7289 1.08965 34.7795 1.43086C34.83 1.7468 34.7921 2.10065 34.6784 2.36604C34.5774 2.59352 34.3248 2.89682 34.1228 3.0232C33.9207 3.14957 33.5924 3.26331 33.403 3.26331C33.2009 3.26331 32.8221 3.14957 32.5442 3.01056C32.1528 2.821 32.0012 2.64407 31.9002 2.29022C31.8244 2.01219 31.7992 1.62043 31.8497 1.36767Z" fill="#5A4499"/>
<path d="M45.5767 0.887444C45.7156 0.659967 45.9303 0.419853 46.0439 0.344027C46.1576 0.280839 46.5112 0.217651 46.8521 0.217651C47.3699 0.217651 47.5088 0.280839 48.3297 1.10228L48.3423 10.2645L49.9461 11.9201C50.8301 12.8173 51.8403 13.9926 52.1813 14.5108C52.5349 15.0289 52.9769 15.7619 53.1537 16.141C53.3431 16.5202 53.6336 17.2026 53.7977 17.6575C53.9619 18.1125 54.164 18.7697 54.2397 19.1109C54.3155 19.4647 54.4923 20.2862 54.6312 20.9433C54.7701 21.6005 55.0606 23.0791 55.2879 24.2291C55.591 25.8214 55.6794 26.5544 55.6288 27.3253C55.591 28.1973 55.5278 28.4248 55.1869 28.9682C54.9595 29.322 54.6312 29.7517 54.4292 29.9287C54.2397 30.1182 53.7599 30.4342 53.381 30.6237C52.7875 30.9397 52.5475 30.9902 51.6762 30.9902C50.8806 30.9902 50.5396 30.927 50.0976 30.6995C49.7819 30.5479 49.4915 30.4215 49.441 30.4215C49.3778 30.4215 49.3273 32.2792 49.3147 34.5667C49.2768 38.4843 49.2642 38.7244 49.0116 39.2678C48.8601 39.5838 48.5443 40.064 48.3044 40.342C48.0645 40.6201 47.5215 41.0245 47.1173 41.2267C46.448 41.5679 46.246 41.6058 45.2105 41.6058C44.0865 41.6058 44.036 41.6184 43.9097 41.9217C43.8466 42.0987 43.493 42.5283 43.1268 42.8822C42.5964 43.4003 42.2807 43.5899 41.5735 43.8047C41.081 43.9564 40.538 44.0701 40.3485 44.0701C40.1465 44.0701 39.6161 43.9438 39.1489 43.7921C38.4417 43.5646 38.1638 43.3877 37.5703 42.7811C37.1662 42.3767 36.8126 41.947 36.7747 41.8333C36.7242 41.6311 36.5474 41.6058 35.4866 41.6058C34.3248 41.6058 34.2112 41.5805 33.5545 41.2014C33.1757 40.9739 32.7084 40.6327 32.5316 40.4431C32.3548 40.2536 32.077 39.8492 31.6602 39.0151L30.4353 38.9772C29.324 38.9393 29.1346 38.9014 28.5789 38.5728C28.2253 38.3579 27.7202 37.9283 27.4424 37.587C27.1519 37.2585 26.8362 36.7782 26.7352 36.5128C26.5837 36.1211 26.5458 34.7941 26.5079 28.2731C26.4826 21.9291 26.5079 20.2735 26.6594 19.2372C26.7605 18.5422 27.013 17.4933 27.2151 16.8993C27.4171 16.3053 27.796 15.4333 28.0612 14.9405C28.3264 14.4602 28.7936 13.6893 29.122 13.2344C29.4377 12.7921 30.1701 11.9327 31.7739 10.2645V8.68484C31.7865 7.72439 31.8497 6.94086 31.9381 6.67547C32.0265 6.44799 32.279 6.14469 32.4811 6.01831C32.6831 5.89193 33.0494 5.7782 33.2767 5.7782C33.4914 5.7782 33.8576 5.86666 34.0596 5.96776C34.2617 6.06886 34.5269 6.33425 34.6279 6.53645C34.7794 6.82712 34.8173 7.42108 34.8173 9.16507C34.8173 11.1492 34.7921 11.4398 34.5774 11.7811C34.4385 11.9959 33.7818 12.7289 33.1125 13.4239C32.4558 14.119 31.7739 14.8899 31.6097 15.13C31.4582 15.3701 31.1804 15.7998 31.0036 16.0778C30.8268 16.3559 30.5363 16.9498 30.3595 17.4048C30.1701 17.8597 29.9428 18.7065 29.8291 19.3004C29.665 20.1851 29.6397 21.6763 29.6271 27.8308C29.6271 34.8068 29.6397 35.3123 29.8544 35.5903C30.0186 35.8051 30.208 35.8936 30.5237 35.8936C30.8394 35.8936 31.0288 35.8051 31.193 35.5903C31.3951 35.3249 31.4203 35.009 31.4077 30.6743L31.7613 30.2193C31.9633 29.9413 32.2664 29.7265 32.5442 29.6633C32.8221 29.5874 33.163 29.5874 33.4661 29.6633C33.7692 29.7517 34.0344 29.9287 34.2238 30.2067C34.489 30.5984 34.5016 30.7248 34.5648 34.3771C34.6279 37.9662 34.6405 38.1557 34.8805 38.3327C35.0194 38.4338 35.272 38.5096 35.4488 38.5096C35.6255 38.5096 35.8781 38.4338 36.017 38.3327C36.257 38.1557 36.2696 37.9662 36.3327 34.3771C36.3833 31.0028 36.4211 30.5732 36.6232 30.2951C36.7495 30.1182 36.9768 29.9034 37.1283 29.8023C37.2799 29.7012 37.6335 29.6254 37.9113 29.6254C38.1891 29.6254 38.5301 29.6885 38.669 29.7644C38.8079 29.8276 39.0352 30.0424 39.1741 30.2446C39.4141 30.5858 39.4267 30.8765 39.553 40.4305L39.8687 40.6706C40.0455 40.8096 40.2728 40.9234 40.3738 40.9234C40.4748 40.9234 40.7148 40.8096 41.2578 40.4052L41.3209 30.6111L41.6366 30.194C41.8387 29.9287 42.1291 29.7391 42.4322 29.6633C42.7606 29.5748 43.0384 29.5874 43.3667 29.7012C43.6572 29.7896 43.9476 30.0171 44.1244 30.2951C44.4149 30.7375 44.4275 30.7754 44.4149 34.3771C44.4149 37.8398 44.4275 38.0167 44.6674 38.2568C44.8064 38.3958 45.0715 38.5096 45.2736 38.5096C45.463 38.5222 45.7535 38.4085 46.246 38.0294L46.3091 31.0913C46.3596 24.8989 46.3975 24.128 46.587 23.85C46.7006 23.673 46.9784 23.4329 47.2184 23.2939C47.5215 23.117 47.8245 23.0791 48.3423 23.1043C48.8348 23.1423 49.1505 23.2307 49.3399 23.4076C49.4915 23.5467 49.7314 23.8752 49.8577 24.1406C49.984 24.3934 50.2113 25.1011 50.3502 25.7203C50.4891 26.3269 50.7038 27.0346 50.8301 27.3C50.969 27.616 51.1458 27.8055 51.3605 27.8561C51.5373 27.894 51.8151 27.8814 51.9919 27.8182C52.1687 27.755 52.3834 27.5401 52.4718 27.3506C52.598 27.0599 52.5475 26.5923 52.055 24.0143C51.7393 22.3587 51.3478 20.4631 51.171 19.8059C51.0069 19.1488 50.6912 18.2389 50.4765 17.7839C50.2618 17.329 49.9335 16.7097 49.744 16.3938C49.5672 16.0778 48.557 14.9405 47.4962 13.8663C46.448 12.7921 45.5262 11.7811 45.4378 11.6294C45.3367 11.4272 45.2989 9.83487 45.2989 6.32161L45.2989 6.30195C45.3115 1.41785 45.3118 1.27869 45.5767 0.887444Z" fill="#5A4499"/>
</svg>
