<svg width="81" height="80" viewBox="0 0 81 80" fill="none" xmlns="http://www.w3.org/2000/svg">
<path d="M49.7275 3.23403C49.3836 6.24112 48.1801 8.51062 46.9766 8.51062C46.69 8.51062 45.028 7.48935 43.3087 6.18438L40.1566 3.85814L37.0618 6.92197C33.9671 9.92906 33.1074 11.9716 34.6548 12.8794C35.056 13.1064 35.9156 14.1844 36.6033 15.2057C38.1507 17.8156 37.3484 19.8581 34.7121 19.8581C33.7378 19.8581 32.0758 20.0284 31.1015 20.1986L29.2676 20.5957L29.4395 25.4752L29.6114 30.3546L33.0501 30.8652C35.9156 31.2624 36.6607 31.6028 37.1765 32.7376C37.7496 33.8723 37.5776 34.383 35.8583 36.5957C34.7694 38.0142 33.9097 39.6028 33.9097 40.1702C33.9097 40.6808 35.3425 42.4964 37.0618 44.1986C39.8701 46.922 40.2712 47.1489 41.0736 46.2979C41.5894 45.844 42.7356 44.9929 43.6526 44.4255C44.6268 43.9149 45.3719 43.234 45.3719 43.0071C45.3719 42.2127 47.5497 42.4964 48.4667 43.4042C48.9251 43.9149 49.4983 45.7872 49.7275 47.6596L50.1287 51.0638H54.8281H59.5849L60.2154 48.2269C60.5592 46.6383 60.8458 44.9929 60.8458 44.539C60.8458 43.1206 63.0809 42.3262 64.6283 43.1773C65.3733 43.5745 66.0037 44.0851 66.0037 44.3688C66.0037 44.5957 66.2903 44.8227 66.6915 44.8227C67.0353 44.8227 67.9523 45.3333 68.64 46.0142L69.9009 47.1489L73.1103 43.9149C74.8869 42.0993 76.3197 40.3971 76.3197 40.0567C76.3197 39.6596 75.5746 38.5248 74.6576 37.3901C72.9383 35.3475 72.7091 34.6666 72.8237 32.4539C72.881 31.4326 73.2249 31.2057 74.7723 31.2057C75.7466 31.2057 77.5805 30.922 78.784 30.5815L80.9045 30.0142V25.3049V20.5957L78.784 20.1986C77.5805 20.0284 75.8039 19.8581 74.8296 19.8581C72.0214 19.8581 71.8494 17.5886 74.4284 13.7305C76.6635 10.383 76.7781 10.7801 72.4225 6.41133C69.6143 3.63119 69.7862 3.74466 68.7546 4.65247C68.3535 5.04963 66.9207 6.12764 65.6026 6.97871C63.654 8.34041 63.0236 8.51062 62.0493 7.94325C61.3616 7.60282 60.8458 6.97871 60.8458 6.52481C60.8458 6.07091 60.5592 4.42552 60.2154 2.83686L59.5849 -1.59144e-05H54.8855H50.1287L49.7275 3.23403ZM56.4902 5.73048C56.6621 6.69502 56.834 8.22693 56.834 9.13474C56.834 10.3262 57.1206 10.7801 57.8656 10.7801C58.3814 10.7801 59.6996 11.2908 60.7312 11.9149C63.2528 13.4468 64.8002 13.3333 67.0926 11.3475C68.5827 10.0993 69.2704 9.81559 69.8436 10.2695C70.9325 11.1773 70.7605 11.9716 68.8693 14.1844C67.1499 16.1135 66.6915 17.5886 67.7231 17.5886C68.0669 17.5886 68.2962 17.9858 68.2962 18.4397C68.2962 19.5745 69.9582 22.8652 70.7605 23.3759C71.1044 23.5461 72.4798 23.8865 73.8553 24.1135C75.7466 24.3971 76.3197 24.7376 76.3197 25.5319C76.3197 26.3262 75.6892 26.6666 73.5114 26.9503C70.302 27.4042 69.9009 27.6879 68.812 30.922C68.3535 32.1702 67.7804 33.3617 67.5511 33.5319C66.9207 33.9858 67.9523 36.0851 69.6143 37.844C70.8178 39.1489 70.5886 40.851 69.2131 40.851C68.7546 40.851 67.6084 40.2269 66.6915 39.4326C64.6283 37.7305 63.1955 37.6737 60.7312 39.1489C59.6996 39.773 58.3814 40.2837 57.8656 40.2837C57.1206 40.2837 56.834 40.7376 56.834 41.9291C56.834 45.1064 56.1463 47.0922 55.1147 47.0922C53.9112 47.0922 53.6246 46.4681 53.1088 42.8936C52.8796 41.4752 52.4784 40.2837 52.1345 40.2837C51.848 40.2837 50.5298 39.773 49.269 39.1489C46.2889 37.7305 45.0853 37.7305 43.7099 39.0922C42.2771 40.5106 40.7297 40.9645 39.6408 40.2837C38.9531 39.8298 38.9531 39.6596 39.8127 38.695C40.3285 38.1276 40.787 37.3333 40.787 36.9929C40.787 36.6525 41.2455 36.1418 41.7613 35.8014C42.6783 35.3475 42.6783 35.0638 42.0479 33.3617C41.5894 32.3404 41.0163 30.695 40.7297 29.6737C40.2139 27.9716 39.8701 27.8014 36.7753 27.1206C34.2536 26.6099 33.3366 26.2127 33.3366 25.4752C33.3366 24.7943 34.1963 24.3971 36.7753 23.8865C39.8701 23.2624 40.2139 23.0354 40.7297 21.3901C41.0163 20.3688 41.5894 18.7234 42.0479 17.7021C42.5063 16.5106 42.5637 15.7163 42.2198 15.4326C41.8759 15.2057 41.0163 14.1844 40.2712 13.1064C39.1823 11.5745 39.0677 11.1206 39.6981 10.7234C40.7297 10.0993 42.3917 10.6099 43.8818 11.9716C45.3146 13.3333 46.5754 13.3333 48.9251 11.9149C49.9567 11.2908 51.2176 10.7801 51.7334 10.7801C52.4211 10.7801 52.8223 10.0425 53.1088 8.1702C53.6246 4.59573 53.9112 3.97162 55.1147 3.97162C55.8024 3.97162 56.2609 4.53899 56.4902 5.73048Z" fill="#5A4499"/>
<path d="M51.1027 17.078C49.0968 17.8724 47.7214 19.2341 46.4606 21.6738C45.0278 24.4539 45.0851 27.0071 46.6898 29.7305C48.4664 32.7943 50.5296 34.156 53.9109 34.4965C59.3555 35.0071 63.3099 32.1135 63.9976 27.2341C64.628 22.5248 62.7941 18.8369 58.9543 17.1348C57.063 16.3404 53.1086 16.2837 51.1027 17.078ZM57.6361 21.2766C59.6993 22.6383 60.559 25.1348 59.6993 27.2341C58.3812 30.4114 54.9425 31.5461 52.2489 29.6738C50.2431 28.3688 49.9565 27.8014 49.9565 25.5319C49.9565 23.2624 50.2431 22.6951 52.2489 21.3901C54.0256 20.1986 55.9168 20.1419 57.6361 21.2766Z" fill="#5A4499"/>
<path d="M28.923 1.41844C25.4843 2.2695 21.1287 4.25532 20.1544 5.44681C19.7533 5.84397 19.2375 6.24113 18.9509 6.24113C18.4924 6.24113 17.0597 7.65957 14.4234 10.6099C12.2456 13.0496 8.69231 22.3546 8.69231 25.5319C8.69231 27.5745 7.94727 29.1064 2.78931 38.1844C1.29923 40.7943 0.0957031 43.5745 0.0957031 44.3688C0.0957031 46.4113 1.64309 48.0567 5.25367 49.8156C8.1192 51.234 8.40575 51.5745 8.52037 53.3333C8.80693 57.7021 10.0105 65.0213 10.7555 66.6099C11.7298 68.9929 14.3661 71.3759 16.7731 72.0567C17.8047 72.3972 20.2118 72.6241 21.9884 72.6241H25.3124V76.3121V80H27.3183H29.3242V74.3262V68.6525L24.6247 68.5957C15.7415 68.539 14.1941 67.0071 13.2772 57.5319C12.3602 48.2269 12.5321 48.5674 8.06189 46.4113C5.88408 45.3901 4.10745 44.3688 4.10745 44.1418C4.10745 43.9149 4.45132 43.4043 4.85249 43.0071C5.25367 42.6099 5.9987 41.4752 6.45719 40.5674C6.97299 39.6028 7.88996 37.9007 8.57769 36.7092C9.26541 35.5745 10.3543 33.7021 10.9847 32.6241C11.6152 31.4894 12.4748 28.4823 12.9333 25.9291C13.9649 20.0851 15.9135 15.8298 19.0655 12.3121C22.2176 8.68085 24.8539 7.0922 30.5277 5.33333C34.8833 3.97163 35.1125 3.80142 34.9406 2.38298C34.7114 0.510636 33.3359 0.340423 28.923 1.41844Z" fill="#5A4499"/>
<path d="M64.9716 49.8723C64.1692 50.383 61.4183 54.3546 61.4183 55.0922C61.4183 55.3759 60.8452 56.7376 60.1575 58.0426C59.0686 60.1418 58.8967 61.5603 58.6674 70.2411L58.3809 80H60.5014H62.5645V73.305C62.5645 64.1702 64.4558 56.5674 67.5506 53.4468C68.4102 52.5957 68.4675 51.6312 67.8371 50.7234C67.264 49.8723 65.7166 49.4184 64.9716 49.8723Z" fill="#5A4499"/>
</svg>
