<svg width="81" height="80" viewBox="0 0 81 80" fill="none" xmlns="http://www.w3.org/2000/svg">
<path fill-rule="evenodd" clip-rule="evenodd" d="M40.4771 0C40.7873 0 40.9826 0.091954 41.58 0.689655V10.1149L41.2928 10.4598C41.063 10.7356 40.9136 10.8046 40.546 10.8046C40.1898 10.8046 40.006 10.7241 39.3971 10.1149L39.4201 0.666667L39.7418 0.333333C39.983 0.091954 40.1783 0 40.4771 0ZM13.409 11.8391C13.478 11.8391 13.7192 11.9195 13.926 12.0115C14.1213 12.1034 15.7298 13.6207 17.4761 15.3678C20.6471 18.5402 20.6701 18.5632 20.6701 19.0575C20.6701 19.4023 20.5896 19.6322 20.3943 19.8621C20.1645 20.1149 20.0152 20.1724 19.0616 20.1724L15.7298 16.8391C12.5588 13.6667 12.398 13.4828 12.398 13.069C12.398 12.8391 12.4554 12.5402 12.5129 12.4138C12.5818 12.2874 12.7656 12.1034 12.9495 12.0115C13.1218 11.9195 13.3286 11.8506 13.409 11.8391ZM67.5221 11.8506C67.5911 11.8391 67.8208 11.9195 68.0047 12.0115C68.1885 12.1034 68.4068 12.2874 68.4642 12.4138C68.5217 12.5402 68.5791 12.8391 68.5791 13.069C68.5791 13.4828 68.4183 13.6667 65.2703 16.8161C62.2831 19.8161 61.927 20.1264 61.5134 20.1954C61.0998 20.2644 61.0079 20.2299 60.6862 19.908C60.3875 19.6207 60.307 19.4483 60.307 19.1034C60.307 18.7011 60.4679 18.5172 63.6044 15.3563C65.4196 13.5287 67.0051 11.9885 67.1315 11.9425C67.2694 11.8966 67.4417 11.8506 67.5221 11.8506V11.8506ZM33.3079 17.7816C33.6526 17.8046 34.3305 17.908 34.8015 18.0115C35.2726 18.1149 36.0998 18.4138 36.6397 18.6897C37.1797 18.954 37.7427 19.3103 37.9035 19.4828C38.1793 19.7816 38.1908 19.8276 38.1908 21.5287C38.1908 22.4943 38.1678 30.3103 38.1448 38.908C38.1103 47.5057 38.0529 56.092 38.0184 57.9885C37.961 60.5977 37.892 61.5632 37.7657 61.954C37.6623 62.2414 37.4555 62.7356 37.2946 63.046C37.1338 63.3678 36.8236 63.8161 36.5938 64.0575C36.364 64.2874 35.9619 64.6092 35.6976 64.7586C35.4219 64.9195 34.8934 65.1264 34.5143 65.2299C34.1351 65.3218 33.4228 65.4023 32.9403 65.4023C32.4463 65.4023 31.642 65.3218 31.1595 65.2299C30.5851 65.1264 29.8727 64.8621 29.1719 64.5172C28.3332 64.1034 27.8966 63.7931 27.2647 63.1724C26.6558 62.5632 26.3456 62.1264 26.0354 61.4943C25.8171 61.023 25.6103 60.4713 25.5759 60.2874C25.5414 60.1034 25.4839 59.7586 25.4495 59.5402C25.392 59.1724 25.2886 59.0805 24.3236 58.5057C23.6572 58.1034 22.9449 57.5517 22.3934 57.0115C21.9224 56.5287 21.3364 55.8046 21.0952 55.4023C20.8539 54.9885 20.5322 54.2414 20.3713 53.7356C20.1645 53.092 20.0726 52.5287 20.0611 51.8391C20.0497 51.2989 20.0841 50.5747 20.222 49.5977L19.7624 49.2874C19.4982 49.1034 18.9122 48.5862 18.4412 48.1379C17.9816 47.6782 17.3268 46.8851 17.0051 46.3793C16.6719 45.8736 16.2583 45.069 16.0745 44.5977C15.9021 44.1264 15.6953 43.4253 15.6264 43.046C15.5575 42.6667 15.5 41.8391 15.5 41.2069C15.5 40.4253 15.5689 39.7586 15.7298 39.1379C15.8562 38.6322 16.1434 37.8276 16.3732 37.3563C16.603 36.8851 17.0051 36.1839 17.2808 35.8046C17.5451 35.4253 18.154 34.7471 18.6135 34.2988C19.0846 33.8506 19.705 33.3218 20.5552 32.7586L20.4862 32.046C20.4403 31.5747 20.4747 30.977 20.6011 30.3448C20.716 29.7241 20.9458 29.0345 21.233 28.4483C21.4858 27.9425 21.9338 27.2299 22.2211 26.8736C22.5083 26.5057 23.0598 25.9425 23.4619 25.6207C23.8525 25.2874 24.4499 24.8736 24.7831 24.7011C25.3116 24.4023 25.3805 24.3218 25.3805 24C25.3805 23.7931 25.461 23.2989 25.5529 22.908C25.6448 22.5057 25.8516 21.9425 26.0009 21.6437C26.1503 21.3333 26.5294 20.7816 26.8396 20.4023C27.1498 20.0115 27.7817 19.4598 28.2528 19.1379C28.7353 18.8161 29.5396 18.4253 30.091 18.2299C30.631 18.046 31.4352 17.8621 31.8718 17.8161C32.3199 17.7701 32.9633 17.7586 33.3079 17.7816V17.7816ZM30.1485 20.6322C29.7464 20.8276 29.1949 21.2184 28.8272 21.5977C28.3792 22.046 28.1034 22.4483 27.9196 22.931C27.7128 23.4828 27.6668 23.7701 27.7128 24.3678C27.7473 24.8621 27.7128 25.2414 27.6094 25.4943C27.483 25.7816 27.2418 25.9655 26.449 26.3793C25.8861 26.6552 25.1278 27.1609 24.7601 27.4943C24.381 27.8276 23.8755 28.4138 23.6342 28.7931C23.3815 29.1724 23.0827 29.8161 22.9564 30.2299C22.83 30.6437 22.7381 31.2644 22.7381 31.6092C22.7381 31.954 22.7955 32.5287 22.8759 32.8736C22.9908 33.4253 22.9793 33.5517 22.8185 33.8276C22.7151 34 22.1751 34.4253 21.6236 34.7816C21.0607 35.1379 20.3024 35.7471 19.9233 36.1379C19.5441 36.5172 19.0156 37.1954 18.7514 37.6437C18.4872 38.092 18.1655 38.7816 18.0276 39.1954C17.9012 39.6092 17.7633 40.3563 17.7289 40.8621C17.6829 41.4828 17.7174 42.0575 17.8438 42.6437C17.9472 43.1149 18.2344 43.931 18.4872 44.4598C18.7859 45.0805 19.1995 45.6667 19.6705 46.1724C20.0611 46.5862 20.6815 47.1609 21.0492 47.4368C21.6926 47.931 21.7041 47.931 22.1406 47.7701C22.3704 47.6897 22.8989 47.5747 23.3125 47.5287C23.818 47.4828 24.3236 47.5057 24.8635 47.6207C25.3116 47.7126 26.0929 48 26.6213 48.2644C27.1384 48.5172 27.6898 48.8621 27.8507 49.023C28.0345 49.2069 28.1379 49.4368 28.1379 49.6552C28.1379 49.8391 28.0805 50.1149 28 50.2644C27.9311 50.4023 27.7932 50.5747 27.6898 50.6552C27.5864 50.7356 27.3337 50.8046 27.1384 50.8046C26.9201 50.8046 26.3226 50.5977 25.7597 50.3218C24.8061 49.8506 24.6912 49.8276 23.7491 49.8276C22.9449 49.8276 22.7036 49.8621 22.5428 50.0345C22.3704 50.2069 22.336 50.4483 22.336 51.5287C22.336 52.7816 22.3474 52.8391 22.7725 53.7356C23.1057 54.4253 23.4274 54.8621 24.0363 55.4713C24.7257 56.1494 25.0703 56.3908 26.1043 56.8851C26.7822 57.2069 27.4141 57.5862 27.506 57.7356C27.6209 57.8966 27.6783 58.2644 27.6783 58.8276C27.6783 59.3793 27.7588 59.8621 27.9081 60.2644C28.0345 60.5862 28.3562 61.1264 28.6319 61.4368C28.9421 61.7931 29.4476 62.1724 29.9302 62.4368C30.3668 62.6782 31.0906 62.9425 31.5271 63.0345C31.9752 63.1379 32.5497 63.2184 32.8254 63.2184C33.0896 63.2184 33.5837 63.1609 33.9169 63.092C34.3419 62.9885 34.6292 62.8391 34.9279 62.5402C35.2036 62.2759 35.4104 61.908 35.5368 61.4943C35.6402 61.1494 35.7551 60.3678 35.7781 59.7701C35.8125 59.1724 35.8585 50.1724 35.893 39.7701L35.9504 20.8621C34.9279 20.3908 34.319 20.1954 33.9398 20.1264C33.5607 20.0575 33.0207 20 32.7335 20.0115C32.4463 20.0115 31.9063 20.0805 31.5271 20.1724C31.148 20.2529 30.5276 20.4598 30.1485 20.6322V20.6322ZM39.9715 19.2759L41.603 19.3448C42.5795 19.3793 43.7629 19.5057 44.5097 19.6552C45.199 19.7931 46.3135 20.0805 46.9798 20.3103C47.6462 20.5287 48.8066 21.0115 49.5648 21.3793C50.3231 21.7471 51.4376 22.3908 52.035 22.8161C52.6324 23.2299 53.563 23.9425 54.08 24.4023C54.6085 24.8506 55.4357 25.6667 55.9068 26.2069C56.3778 26.7471 57.1246 27.7241 57.5727 28.3908C58.0207 29.0575 58.6526 30.1609 58.9973 30.8621C59.3305 31.5632 59.79 32.6667 60.0083 33.3333C60.2266 34 60.5138 35.0575 60.6402 35.6897C60.7666 36.3218 60.9275 37.4368 61.0079 38.1609C61.0768 38.9195 61.0998 40.023 61.0653 40.7471C61.0194 41.4368 60.9045 42.5057 60.8126 43.1034C60.7206 43.7011 60.4909 44.7701 60.307 45.4598C60.1232 46.1494 59.8015 47.1609 59.5832 47.7011C59.3649 48.2414 59.0088 49.0345 58.7905 49.4828C58.5607 49.931 57.9978 50.8621 57.5382 51.5517C57.0672 52.2414 56.194 53.3218 55.5966 53.954C54.9991 54.5747 54.0915 55.4023 53.586 55.7931C53.0805 56.1839 52.4601 56.6437 52.2073 56.8046C51.9546 56.977 51.6329 57.2759 51.495 57.4598C51.3456 57.6552 51.1503 58.0345 51.0584 58.3103C50.9205 58.6897 50.8861 59.3793 50.8861 61.7011C50.8861 64.023 50.8516 64.6782 50.7137 65C50.6218 65.2184 50.438 65.4598 50.3116 65.5172C50.1738 65.5862 48.0138 65.6322 39.0524 65.6322V63.4483H41.1204V52.4713L43.5331 47.9885C44.9807 45.3103 46.0033 43.5172 46.0952 43.5402C46.1641 43.5632 46.6122 43.7816 47.8989 44.4828L43.2919 52.931L43.3034 63.4483H48.8181V60.954C48.8181 59 48.8525 58.3103 49.0019 57.8161C49.1053 57.4713 49.3236 56.954 49.4844 56.6667C49.6453 56.3793 49.944 55.977 50.1393 55.7586C50.3231 55.5517 50.9435 55.0575 51.5065 54.6667C52.0809 54.2874 52.9541 53.5747 53.4481 53.1034C53.9536 52.6322 54.6889 51.8276 55.0796 51.3218C55.4702 50.8161 56.0331 50 56.3204 49.5172C56.6191 49.023 57.0557 48.1724 57.3084 47.6207C57.5497 47.0575 57.8944 46.1724 58.0667 45.6322C58.2275 45.092 58.4803 44.1609 58.5952 43.5632C58.7445 42.8391 58.8479 41.7816 58.8939 40.4598C58.9399 38.8966 58.9169 38.1609 58.756 37.1264C58.6526 36.4023 58.3884 35.2069 58.1586 34.4828C57.9403 33.7586 57.5152 32.6437 57.2165 32.0115C56.9178 31.3793 56.3893 30.4253 56.0446 29.8851C55.7 29.3448 54.9991 28.4253 54.4936 27.8276C53.9996 27.2299 53.1954 26.4138 52.7243 26C52.2533 25.5977 51.3227 24.8966 50.6563 24.4598C49.9899 24.023 49.0364 23.4598 48.5308 23.2184C48.0253 22.9885 47.2211 22.6552 46.75 22.4828C46.279 22.3103 45.4748 22.069 44.9693 21.9425C44.4637 21.8046 43.5102 21.6322 42.8438 21.5402C42.1774 21.4598 41.2928 21.3793 40.0864 21.3793V20.8966C40.0864 20.6207 40.0635 20.1494 40.029 19.8391L39.9715 19.2759ZM1.1273 38.9655H5.83778C8.75598 38.9655 10.6517 39.0115 10.7895 39.0805C10.9159 39.1379 11.0997 39.3448 11.1916 39.5402C11.295 39.7356 11.341 40.0345 11.3065 40.2299C11.2721 40.4253 11.0997 40.7011 10.5598 41.1494H5.96416C2.11535 41.1494 1.31112 41.1264 1.0239 40.977C0.840074 40.8851 0.633272 40.7011 0.564338 40.5747C0.506893 40.4483 0.460938 40.1839 0.460938 39.9885C0.460938 39.7701 0.587316 39.5172 0.794118 39.2988L1.1273 38.9655ZM79.8498 38.9655L80.1945 39.3103C80.3898 39.5057 80.5391 39.7816 80.5391 39.9425C80.5391 40.1034 80.4702 40.3678 80.3898 40.5287C80.3094 40.7011 80.1026 40.908 79.9302 40.9885C79.6775 41.1149 78.7009 41.1494 70.4288 41.1494L70.0267 40.7471C69.8084 40.5287 69.6246 40.2414 69.6246 40.1149C69.6246 39.9885 69.705 39.7356 69.8084 39.5517C69.9118 39.3563 70.0842 39.1609 70.1876 39.092C70.3025 39.0115 72.0947 38.977 79.8498 38.9655V38.9655ZM50.8976 67.8161V75.2299L44.1765 80H36.5938L30.1025 75.1724L30.0795 71.5747C30.068 69.5862 30.1025 67.931 30.16 67.8966C30.2059 67.8506 34.8934 67.8161 50.8976 67.8161ZM32.2624 71.977L32.2854 73.7931H48.8296V70C36.1227 70 32.3888 70.0345 32.3429 70.0805C32.2854 70.1149 32.251 70.977 32.2624 71.977ZM36.1917 77.0115L37.2831 77.8276L43.6021 77.8046C45.3829 76.5402 45.9458 76.1264 46.0033 76.0805C46.0607 76.023 43.5906 75.977 40.4886 75.977C36.881 75.977 34.9049 76.0115 34.9853 76.0805C35.0428 76.1494 35.5942 76.5632 36.1917 77.0115ZM32.1935 25.7586C32.3888 25.7471 32.6531 25.8736 32.8599 26.069C33.0667 26.2529 33.239 26.5402 33.2735 26.7816C33.3194 27.0115 33.262 27.4713 33.1586 27.8506C33.0322 28.2759 32.8254 28.6782 32.5382 28.977C32.3084 29.2414 31.9293 29.5517 31.711 29.6552C31.4927 29.7701 31.125 29.8966 30.9067 29.9425C30.6884 29.9885 30.3553 29.9655 30.1829 29.8966C30.0106 29.8276 29.7693 29.6092 29.6315 29.4023C29.4706 29.1379 29.4247 28.9195 29.4706 28.6782C29.5051 28.4943 29.643 28.2184 29.7923 28.0805C29.9302 27.931 30.1829 27.7931 30.3553 27.7586C30.5276 27.7241 30.7574 27.6207 30.8493 27.5287C30.9412 27.4368 31.0216 27.1954 31.0216 26.9885C31.0216 26.7816 31.1021 26.4828 31.2055 26.3333C31.3089 26.1839 31.4927 25.9885 31.6305 25.908C31.7684 25.8276 32.0212 25.7586 32.1935 25.7586V25.7586ZM28.54 34.8276C28.7698 34.8276 29.2064 34.954 29.5281 35.1149C29.8498 35.2759 30.2978 35.4023 30.5621 35.4023C30.8148 35.4023 31.2629 35.2759 31.5961 35.1149C32.0786 34.8736 32.228 34.8506 32.5726 34.9425C32.8024 35.0115 33.0552 35.1954 33.1701 35.3793C33.285 35.5517 33.3654 35.8736 33.3539 36.092C33.3424 36.4138 33.239 36.5747 32.8943 36.8736C32.6531 37.0805 32.228 37.3333 31.9407 37.4253C31.6535 37.5172 31.0561 37.5977 30.6195 37.5977C30.1714 37.5977 29.6085 37.5287 29.3557 37.4368C29.103 37.3448 28.6779 37.1609 28.4021 37.0345C28.1379 36.8966 27.8392 36.6667 27.7473 36.5287C27.6439 36.3793 27.5749 36.069 27.5749 35.8276C27.5749 35.5287 27.6668 35.3103 27.8622 35.1149C28.046 34.9195 28.2643 34.8276 28.54 34.8276V34.8276ZM22.2211 37.7011C22.3819 37.7011 22.784 37.8046 23.1172 37.9195C23.4849 38.0575 24.0019 38.3908 24.404 38.7586C24.7716 39.092 25.2082 39.6322 25.3691 39.9425C25.5644 40.3333 25.6793 40.7816 25.7137 41.3218C25.7482 41.8736 25.7252 42.2529 25.6103 42.5172C25.5184 42.7356 25.3001 42.977 25.1278 43.069C24.9554 43.1494 24.6912 43.2184 24.5304 43.2184C24.358 43.2184 24.0938 43.069 23.8985 42.8736C23.6227 42.5977 23.5538 42.4368 23.5538 42.046C23.5538 41.7701 23.4963 41.3563 23.4389 41.1264C23.3585 40.8506 23.1632 40.5632 22.8874 40.3448C22.6577 40.1609 22.336 39.977 22.1751 39.9425C22.0143 39.9195 21.7385 39.7471 21.5662 39.5747C21.3134 39.3333 21.2445 39.1494 21.256 38.8161C21.2675 38.4943 21.3594 38.2759 21.6007 38.0345C21.796 37.8391 22.0487 37.7011 22.2211 37.7011V37.7011ZM29.9991 43.7931C30.2174 43.8046 30.6999 43.9655 31.0676 44.1724C31.4467 44.3793 32.0097 44.7816 32.3314 45.069C32.6531 45.3563 33.1356 45.931 33.3999 46.3333C33.756 46.8621 33.8824 47.1954 33.8939 47.5057C33.8939 47.8276 33.802 48.023 33.5607 48.2759C33.3539 48.4828 33.1011 48.6207 32.9288 48.6207C32.7565 48.6207 32.4922 48.5632 32.3314 48.4828C32.1705 48.4023 31.8373 48.023 31.6076 47.6437C31.3663 47.2644 30.9642 46.7931 30.7229 46.5977C30.4702 46.4023 30.0566 46.1264 29.7808 45.9885C29.5166 45.8621 29.2179 45.6322 29.1259 45.4943C29.0225 45.3448 28.9536 45.0575 28.9536 44.8506C28.9613 44.5977 29.0762 44.3563 29.2983 44.1264C29.5281 43.8851 29.7349 43.7931 29.9991 43.7931V43.7931ZM31.1595 54.7126C31.5386 54.7126 32.0901 54.8161 32.4233 54.931C32.7909 55.069 33.285 55.3908 33.6871 55.7701C34.2615 56.2989 34.3534 56.4368 34.3534 56.8161C34.3534 57.046 34.296 57.3448 34.2385 57.4713C34.1696 57.5977 33.9398 57.7816 33.7215 57.8736C33.4228 58 33.2275 58.023 32.9403 57.931C32.7335 57.8736 32.4463 57.6897 32.2854 57.5287C32.1246 57.3563 31.8373 57.1379 31.6535 57.046C31.4352 56.9425 31.171 56.8966 30.9642 56.9425C30.7689 56.977 30.3897 57.1724 30.1025 57.3563C29.8153 57.5517 29.4936 57.7011 29.3787 57.7011C29.2753 57.7011 29.0225 57.6207 28.8387 57.5287C28.6434 57.4368 28.4366 57.2529 28.3792 57.1264C28.3102 57 28.2643 56.7471 28.2643 56.5517C28.2643 56.3678 28.3102 56.1034 28.3792 55.977C28.4366 55.8506 28.6549 55.6322 28.8617 55.4943C29.0685 55.3563 29.5281 55.1149 29.8727 54.977C30.2634 54.8161 30.7459 54.7241 31.1595 54.7126Z" fill="#5A4499"/>
</svg>
