<svg width="77" height="76" viewBox="0 0 77 76" fill="none" xmlns="http://www.w3.org/2000/svg">
<path d="M34.5938 0.65625C30.625 1.20312 26.4219 2.65625 23.2344 4.5625C21.6562 5.51562 20.2188 6.54688 20.2188 6.73438C20.2188 6.89062 21.625 8.70312 21.7656 8.70312C21.8125 8.70312 22.5312 8.25 23.3438 7.70312C27.3281 5.04688 31.9375 3.46875 36.5938 3.17188C42.7656 2.78125 48.5938 4.32812 53.6562 7.70312C54.4688 8.25 55.1875 8.70312 55.2344 8.70312C55.375 8.70312 56.7812 6.89062 56.7812 6.73438C56.7812 6.54688 55.3438 5.51562 53.7656 4.5625C51.1562 3 47.8594 1.73438 44.5156 1.03125C42.8906 0.6875 42.1719 0.625 39.125 0.578125C37.1875 0.546875 35.1562 0.578125 34.5938 0.65625Z" fill="#5A4499"/>
<path d="M12.4525 4.45312C11.6087 4.76562 10.5775 5.59375 10.1556 6.3125C9.48371 7.46875 1.95246 27.4219 1.53059 29.2188C1.06184 31.1562 0.874337 33.7656 1.03059 36.1094C1.21809 38.7969 1.81184 40.7812 4.18684 46.4844C5.35871 49.2969 6.31184 51.6406 6.31184 51.6875C6.31184 51.7188 6.09309 51.75 5.84309 51.75C5.57746 51.75 5.23371 51.8906 5.06184 52.0625C4.74934 52.375 4.74934 52.5781 4.74934 63.9375V75.5H5.99934H7.24934V64.875V54.25H14.7493H22.2493V64.875V75.5H23.4993H24.7493V63.9375C24.7493 52.5781 24.7493 52.375 24.4368 52.0625C24.265 51.8906 23.9837 51.75 23.8118 51.75C23.515 51.75 23.4993 51.6406 23.4993 48.9688C23.4993 45.7188 23.3431 44.2344 22.7181 41.6719C22.2337 39.6094 21.6712 38.0312 20.7025 35.875C20.3275 35.0156 19.9993 34.0312 19.9056 33.375C19.8275 32.7812 19.7493 29.9375 19.7493 27.0625C19.7493 22.3438 19.7181 21.7656 19.4525 21.2031C18.7962 19.75 17.4993 18.7969 15.9837 18.6406L15.0775 18.5469L16.7962 14.5C17.7337 12.2812 18.5775 10.1406 18.6868 9.76562C19.1868 7.76562 18.0618 5.54688 16.0931 4.625C15.4681 4.32812 15.0462 4.25 14.1243 4.26562C13.4837 4.26562 12.7337 4.35938 12.4525 4.45312ZM15.4525 7.42188C16.4525 8.42188 16.4525 8.39062 13.7962 14.6562C12.4837 17.7344 11.3275 20.5781 11.2025 20.9531C11.0462 21.5 10.9993 23.4219 10.9993 29.8281V38H12.2493H13.4993V30.6875C13.4993 26.6719 13.5775 23.1094 13.6556 22.7656C14.0931 20.875 16.5618 20.7969 17.0931 22.6562C17.1868 23 17.2493 25.4688 17.2493 28.7031C17.2493 34.8438 17.2493 34.8438 18.39 37.3125C19.9993 40.8281 20.7493 44.2656 20.9368 48.9062L21.0462 51.75L15.1556 51.7188L9.26496 51.6719L7.07746 46.4375C4.23371 39.5781 3.90559 38.5469 3.68684 35.875C3.53059 33.8906 3.71809 31.2969 4.17121 29.6406C4.37434 28.8594 6.28059 23.6562 8.40559 18.0781C12.7806 6.59375 12.6087 6.90625 14.14 6.90625C14.8275 6.90625 14.9993 6.96875 15.4525 7.42188Z" fill="#5A4499"/>
<path d="M60.9062 4.625C59.9219 5.07812 59.125 5.85938 58.6406 6.84375C58.3438 7.45312 58.2656 7.85938 58.2656 8.78125C58.2656 9.92188 58.3125 10.0625 60.0312 14.0938C61.0156 16.375 61.8438 18.3281 61.8906 18.4219C61.9531 18.5781 61.75 18.625 61.2031 18.625C59.75 18.625 58.2188 19.7031 57.5469 21.1875C57.2812 21.7656 57.25 22.3125 57.25 27.0625C57.25 29.9375 57.1719 32.7812 57.0938 33.3594C56.9844 34.0469 56.6562 35.0781 56.1562 36.1719C55.1562 38.4375 54.5156 40.4062 54.0156 42.6719C53.6719 44.2188 53.6094 45 53.5469 48.125C53.4688 51.5469 53.4531 51.75 53.1719 51.75C53 51.75 52.7344 51.8906 52.5625 52.0625C52.25 52.375 52.25 52.5781 52.25 63.9375V75.5H53.5H54.75V64.875V54.25H62.25H69.75V64.875V75.5H71H72.25V63.9375C72.25 52.5781 72.25 52.375 71.9375 52.0625C71.7656 51.8906 71.4219 51.75 71.1562 51.75C70.9062 51.75 70.6875 51.7188 70.6875 51.6719C70.6875 51.625 71.3906 49.8906 72.2656 47.8125C74.7031 41.9531 75.0469 41.0312 75.4688 39.2969C76.2031 36.25 76.2031 32.25 75.4688 29.2188C75.0469 27.4219 67.5312 7.5 66.8438 6.32812C66.0781 5 64.6406 4.26562 62.875 4.25C61.9688 4.25 61.5312 4.34375 60.9062 4.625ZM64.2031 7.40625C64.6719 7.85938 65.1719 9.09375 68.4688 17.7656C70.5312 23.1719 72.375 28.0625 72.5469 28.625C73.4844 31.4844 73.625 35.4219 72.8906 38.6406C72.625 39.8125 71.8906 41.7344 69.7656 46.8281L67.75 51.6719L61.8438 51.7188L55.9531 51.75L56.0625 48.9844C56.125 47.4531 56.3125 45.3281 56.4844 44.25C56.8281 42.1406 57.8594 38.7969 58.625 37.2969C59.7031 35.1406 59.75 34.7969 59.75 28.7188C59.75 25.4688 59.8125 23 59.9062 22.6562C60.4375 20.7969 62.9062 20.875 63.3438 22.7656C63.4219 23.1094 63.5 26.6719 63.5 30.6875V38H64.75H66V29.8281C66 24.3594 65.9375 21.4688 65.8281 21.0469C65.7344 20.7031 64.5625 17.8594 63.2344 14.7344C60.5469 8.39062 60.5469 8.42188 61.5469 7.42188C62 6.96875 62.1719 6.90625 62.8594 6.90625C63.5469 6.90625 63.7344 6.98438 64.2031 7.40625Z" fill="#5A4499"/>
<path d="M35.0924 5.60938C34.4361 5.67188 34.4205 5.6875 34.5143 6.17188C34.5611 6.45313 34.6549 7.01563 34.7174 7.45313L34.8268 8.23438L35.4518 8.21875C40.2018 8.04688 42.2643 8.23438 45.1393 9.10938C48.7174 10.2031 51.5455 11.9531 54.4049 14.8281L56.3268 16.7656L57.2486 16.0469C57.7486 15.6563 58.2018 15.2813 58.2486 15.2188C58.3736 15.0156 56.2799 12.6719 55.0299 11.6094C52.6705 9.59375 49.2799 7.64063 46.6236 6.75C43.9361 5.84375 42.5143 5.625 39.0455 5.57813C37.2486 5.5625 35.4674 5.5625 35.0924 5.60938Z" fill="#5A4499"/>
<path d="M30.5 6.71875C29.8281 6.9375 29.2812 7.1875 29.2812 7.28125C29.2812 7.67188 30.1562 9.71875 30.2969 9.65625C30.4062 9.60938 32 9.07813 32.6719 8.85938C32.7656 8.82813 31.9844 6.375 31.8594 6.34375C31.7656 6.32813 31.1562 6.5 30.5 6.71875Z" fill="#5A4499"/>
<path d="M28.8128 19.5469C27.4378 19.9844 26.6253 20.4844 25.6722 21.4219C24.094 23 23.4065 24.8438 23.5472 27.125C23.6409 28.8438 24.0315 29.9844 24.969 31.2344C25.344 31.7344 28.3909 34.8594 31.7347 38.1875L37.8128 44.25H38.5003H39.2034L45.6253 37.7969C49.6878 33.7344 52.219 31.0781 52.5003 30.5938C53.219 29.3281 53.5003 28.25 53.5003 26.75C53.5003 24.5312 52.8284 22.8281 51.3753 21.375C49.8128 19.8125 48.0784 19.1875 45.6253 19.2812C44.1409 19.3281 43.9222 19.375 42.8128 19.9375C41.9065 20.375 41.219 20.8906 40.0472 22.0156L38.5003 23.5L36.969 22.0469C35.3128 20.4531 34.3753 19.8594 32.9534 19.4844C31.7347 19.1719 29.8909 19.2031 28.8128 19.5469ZM32.844 22.2188C33.3128 22.4219 34.2815 23.25 35.6878 24.6406C37.7659 26.6875 37.8597 26.75 38.5003 26.75C39.1409 26.75 39.2347 26.6875 41.3128 24.6406C43.8128 22.1875 44.3909 21.8438 46.0784 21.8438C48.7972 21.8438 50.9065 23.9531 50.9065 26.6719C50.9222 28.6094 50.8128 28.7344 44.2815 35.2656L38.5003 41.0469L32.719 35.2656C26.1878 28.7344 26.0784 28.6094 26.094 26.6719C26.094 23.1562 29.6565 20.8125 32.844 22.2188Z" fill="#5A4499"/>
<path d="M25.921 50.6094C25.5773 51.1719 25.2804 51.7031 25.2491 51.7656C25.171 51.9688 29.296 53.8906 30.9054 54.4062C33.3273 55.1562 35.6398 55.5 38.4679 55.5C40.6085 55.5 43.5304 55.2031 43.7648 54.9688C43.8116 54.9375 43.7179 54.3281 43.5616 53.625C43.3429 52.6094 43.2491 52.3906 43.046 52.4375C41.5773 52.8906 37.2023 52.9688 34.9835 52.6094C32.3585 52.1875 29.8429 51.3125 27.671 50.0781C27.1554 49.7969 26.7023 49.5625 26.6554 49.5625C26.5929 49.5625 26.2648 50.0312 25.921 50.6094Z" fill="#5A4499"/>
<path d="M26.6878 56.6875C26.2659 57.625 26.1878 57.9219 26.344 58.0156C26.6721 58.2188 29.0784 59.0781 30.4534 59.4844C33.094 60.25 34.5784 60.4219 38.5003 60.4219C43.1721 60.4219 45.1253 60.0938 49.1253 58.6406C51.0471 57.9375 50.9534 58.0781 50.3128 56.6875L49.7659 55.4844L49.1721 55.75C47.9846 56.2656 45.4065 57.0469 43.8128 57.375C38.7815 58.4062 32.4534 57.7656 27.8284 55.75L27.2346 55.4844L26.6878 56.6875Z" fill="#5A4499"/>
<path d="M9.75 58V59.25H11H12.25V58V56.75H11H9.75V58Z" fill="#5A4499"/>
<path d="M64.75 58V59.25H66H67.25V58V56.75H66H64.75V58Z" fill="#5A4499"/>
</svg>
