<svg width="32" height="32" viewBox="0 0 32 32" fill="none" xmlns="http://www.w3.org/2000/svg">
<rect width="32" height="32" fill="#0F0F0F"/>
<path d="M5.05273 21V11.1973H8.19727V21H5.05273ZM12.7473 11.1973V14.5605L15.4953 11.1973H18.9816L15.6184 15.2578L19.2619 21H15.7619L13.5881 17.5684L12.7473 18.6211V21H9.60273V11.1973H12.7473Z" fill="#FAFAFA"/>
<path d="M22.684 14.4102C22.2191 14.8659 21.9867 15.431 21.9867 16.1055C21.9867 16.7754 22.2191 17.3382 22.684 17.7939C23.1534 18.2497 23.739 18.4775 24.4408 18.4775C24.7097 18.4775 24.9763 18.4411 25.2406 18.3682C25.5095 18.2952 25.7351 18.2018 25.9174 18.0879C26.0997 17.974 26.2592 17.8623 26.3959 17.7529C26.5372 17.639 26.6465 17.5456 26.724 17.4727L26.8197 17.3633L28.6654 19.3184C28.629 19.373 28.572 19.446 28.4945 19.5371C28.4216 19.6237 28.2507 19.7809 27.9818 20.0088C27.713 20.2321 27.4258 20.4303 27.1205 20.6035C26.8197 20.7767 26.4187 20.9316 25.9174 21.0684C25.4161 21.2096 24.9011 21.2803 24.3725 21.2803C22.8139 21.2803 21.5014 20.7721 20.435 19.7559C19.3731 18.735 18.8422 17.516 18.8422 16.0986C18.8422 14.6813 19.3731 13.4645 20.435 12.4482C21.5014 11.4274 22.8139 10.917 24.3725 10.917C24.9057 10.917 25.4161 10.9854 25.9037 11.1221C26.3913 11.2588 26.7947 11.4229 27.1137 11.6143C27.4327 11.8057 27.713 11.9971 27.9545 12.1885C28.196 12.3799 28.3738 12.5439 28.4877 12.6807L28.6381 12.8789L26.7514 14.8408C26.724 14.8135 26.6853 14.7747 26.6352 14.7246C26.5896 14.6699 26.4893 14.5788 26.3344 14.4512C26.184 14.319 26.0245 14.2051 25.8559 14.1094C25.6872 14.0091 25.473 13.9202 25.2133 13.8428C24.9581 13.7607 24.7006 13.7197 24.4408 13.7197C23.739 13.7197 23.1534 13.9499 22.684 14.4102Z" fill="#EEEA1F"/>
</svg>
