<svg viewBox="0 0 36 29" fill="none" xmlns="http://www.w3.org/2000/svg">
<path fill-rule="evenodd" clip-rule="evenodd" d="M15.4974 4.91015L9.59789 5.82364L15.8626 20.3088C15.9567 20.4613 16.011 20.641 16.011 20.8334V20.8366C16.0093 25.1652 12.5067 28.6667 8.1777 28.6667C3.84869 28.6667 0.333252 25.1534 0.333252 20.8334C0.333252 20.8248 0.333361 20.8163 0.333579 20.8078C0.337082 20.6683 0.369135 20.5359 0.424123 20.4163L7.24198 4.65205C7.26029 4.60776 7.28172 4.56495 7.30604 4.52392C7.4414 4.29557 7.66624 4.12249 7.9407 4.05915C7.96731 4.05298 7.99426 4.04789 8.0215 4.0439L15.1783 2.93572C15.4399 1.64127 16.5839 0.666687 17.9555 0.666687C19.0202 0.666687 19.9477 1.25396 20.4318 2.12225L27.7385 0.990869C27.7525 0.988586 27.7666 0.98661 27.7807 0.984917L27.798 0.982985C28.0293 0.959076 28.2522 1.01671 28.4362 1.13373C28.4817 1.16267 28.5248 1.19525 28.5651 1.23112C28.6774 1.33105 28.7678 1.45658 28.8262 1.60047L35.6423 17.3606C35.694 17.473 35.7254 17.5965 35.7319 17.7267C35.7328 17.7437 35.7333 17.7607 35.7333 17.7778C35.7333 22.1079 32.23 25.6111 27.8999 25.6111C23.6233 25.6111 20.1531 22.1938 20.0682 17.9377C20.0598 17.8856 20.0555 17.8322 20.0555 17.7778C20.0555 17.5854 20.1098 17.4057 20.2039 17.2532L26.2631 3.24316L20.725 4.10069C20.4495 5.37698 19.3142 6.33335 17.9555 6.33335C16.904 6.33335 15.9864 5.76064 15.4974 4.91015ZM22.1517 18.7778C22.6249 21.5256 25.0155 23.6111 27.8999 23.6111C30.7844 23.6111 33.1749 21.5256 33.6482 18.7778H22.1517ZM33.2112 16.7778H22.5886L27.8999 4.49697L33.2112 16.7778ZM13.4779 19.8334L8.16659 7.55253L2.85526 19.8334H13.4779ZM2.4192 21.8334C2.89542 24.573 5.29336 26.6667 8.1777 26.6667C11.0622 26.6667 13.4527 24.5811 13.9259 21.8334H2.4192Z" fill="currentColor"/>
</svg>
