<svg width="61" height="72" viewBox="0 0 61 72" fill="none" xmlns="http://www.w3.org/2000/svg">
<path fill-rule="evenodd" clip-rule="evenodd" d="M60.3097 1C60.3097 12.6973 62.4227 31.6614 58.5284 42.2549C54.1187 56.257 43.8547 65.5167 30.559 71H30.4365C17.1408 65.5167 6.87688 56.257 2.4671 42.2549C-1.42208 31.6614 0.69094 12.6922 0.69094 1H60.3097Z" fill="white" stroke="#5A4499" stroke-width="0.227512" stroke-miterlimit="22.93"/>
<path fill-rule="evenodd" clip-rule="evenodd" d="M60.3097 1C60.3097 12.6973 62.4227 31.6614 58.5284 42.2549C54.1187 56.257 43.8547 65.5167 30.559 71H30.4365C17.1408 65.5167 6.87688 56.257 2.4671 42.2549C-1.42208 31.6614 0.69094 12.6922 0.69094 1H60.3097ZM58.1456 3.17185H2.84989C2.71209 13.9544 1.07373 32.2082 4.50866 41.5293L4.52398 41.5804C8.56117 54.4326 18.0698 63.4266 30.2783 68.5931H30.7121C42.9207 63.4317 52.4293 54.4326 56.4665 41.5804L56.4818 41.5293C59.9167 32.2082 58.2784 13.9544 58.1405 3.17185H58.1456Z" fill="#5A4499"/>
<path fill-rule="evenodd" clip-rule="evenodd" d="M53.0265 30.8949C51.9802 30.1437 50.3929 29.6633 48.6167 29.6633C45.8606 29.6633 43.5639 30.8131 43.033 32.3462H42.8034C42.2828 30.8029 39.9758 29.6429 37.2095 29.6429C35.4282 29.6429 33.8409 30.1284 32.7946 30.8796V43.8391C32.7946 47.0637 30.1763 49.6903 26.9506 49.6903C23.725 49.6903 21.1066 47.0688 21.1066 43.8391C21.1066 43.1288 21.6834 42.5513 22.3928 42.5513C23.1023 42.5513 23.6841 43.1288 23.6841 43.8391C23.6841 45.643 25.1489 47.1097 26.9506 47.1097C28.7523 47.1097 30.2171 45.643 30.2171 43.8391V30.9C29.1708 30.1437 27.5835 29.6582 25.8022 29.6582C23.0461 29.6582 20.7494 30.808 20.2186 32.3411H19.9889C19.4683 30.7978 17.1613 29.6378 14.395 29.6378C12.6188 29.6378 11.0315 30.1181 9.98523 30.8694C10.8274 21.6811 19.4632 14.3786 30.2171 13.8318V12.866C30.2171 12.1557 30.7939 11.5782 31.5084 11.5782C32.223 11.5782 32.7946 12.1557 32.7946 12.866V13.8318C43.5587 14.3786 52.1997 21.6914 53.0265 30.8898V30.8949ZM13.0986 11.5782C13.0986 11.5782 11.2306 15.2729 11.2306 16.3052C11.2306 17.3374 12.0676 18.1755 13.0986 18.1755C14.1296 18.1755 14.9666 17.3374 14.9666 16.3052C14.9666 15.2729 13.0986 11.5782 13.0986 11.5782ZM18.3863 9.10486C18.3863 9.10486 16.9827 11.8746 16.9827 12.6514C16.9827 13.4281 17.6105 14.0567 18.3863 14.0567C19.1621 14.0567 19.7898 13.4281 19.7898 12.6514C19.7898 11.8746 18.3863 9.10486 18.3863 9.10486Z" fill="#5A4499"/>
</svg>
