<svg width="62" height="72" viewBox="0 0 62 72" fill="none" xmlns="http://www.w3.org/2000/svg">
<path fill-rule="evenodd" clip-rule="evenodd" d="M60.5609 1C60.5609 12.6973 62.6739 31.6614 58.7796 42.2549C54.3699 56.257 44.1059 65.5167 30.8102 71H30.6877C17.392 65.5167 7.12805 56.257 2.71827 42.2549C-1.17091 31.6614 0.937013 12.6922 0.937013 1H60.5558H60.5609Z" fill="white" stroke="#5A4499" stroke-width="0.227512" stroke-miterlimit="22.93"/>
<path fill-rule="evenodd" clip-rule="evenodd" d="M58.3968 3.17185H3.10107C2.96326 13.9544 1.32491 32.2082 4.75984 41.5293L4.77516 41.5804C8.81236 54.4326 18.3209 63.4266 30.5295 68.5931H30.9633C43.1719 63.4317 52.6804 54.4326 56.7176 41.5804L56.733 41.5293C60.1679 32.2082 58.5295 13.9544 58.3917 3.17185H58.3968ZM60.5609 1C60.5609 12.6973 62.6739 31.6614 58.7796 42.2549C54.3699 56.257 44.1059 65.5167 30.8102 71H30.6877C17.392 65.5167 7.12805 56.257 2.71827 42.2549C-1.17091 31.6614 0.937013 12.6922 0.937013 1H60.5558H60.5609ZM13.0894 52.7718C12.2167 52.7718 11.5123 52.0666 11.5123 51.1927C11.5123 50.3189 12.2167 49.6137 13.0894 49.6137C13.9622 49.6137 14.6665 50.3189 14.6665 51.1927C14.6665 52.0666 13.9622 52.7718 13.0894 52.7718ZM12.2575 40.497C11.3847 40.497 10.6804 39.7918 10.6804 38.9179C10.6804 38.0441 11.3847 37.3389 12.2575 37.3389C13.1302 37.3389 13.8346 38.0441 13.8346 38.9179C13.8346 39.7918 13.1302 40.497 12.2575 40.497ZM14.4777 47.3396C13.3854 47.3396 12.4973 46.4504 12.4973 45.3568C12.4973 44.2633 13.3854 43.3741 14.4777 43.3741C15.5699 43.3741 16.458 44.2633 16.458 45.3568C16.458 46.4504 15.5699 47.3396 14.4777 47.3396ZM20.2808 54.0596C18.7292 54.0596 17.4737 52.8025 17.4737 51.2489C17.4737 49.6954 18.7292 48.4383 20.2808 48.4383C21.8324 48.4383 23.088 49.6954 23.088 51.2489C23.088 52.8025 21.8324 54.0596 20.2808 54.0596ZM52.364 7.37246C53.2368 7.37246 53.9411 8.07768 53.9411 8.95153C53.9411 9.82538 53.2368 10.5306 52.364 10.5306C51.4912 10.5306 50.7869 9.82538 50.7869 8.95153C50.7869 8.07768 51.4912 7.37246 52.364 7.37246ZM53.1959 19.6472C54.0687 19.6472 54.773 20.3525 54.773 21.2263C54.773 22.1002 54.0687 22.8054 53.1959 22.8054C52.3232 22.8054 51.6188 22.1002 51.6188 21.2263C51.6188 20.3525 52.3232 19.6472 53.1959 19.6472ZM50.9757 12.8046C52.068 12.8046 52.9561 13.6938 52.9561 14.7874C52.9561 15.881 52.068 16.7702 50.9757 16.7702C49.8835 16.7702 48.9954 15.881 48.9954 14.7874C48.9954 13.6938 49.8835 12.8046 50.9757 12.8046ZM45.1726 6.08468C46.7242 6.08468 47.9797 7.3418 47.9797 8.89531C47.9797 10.4488 46.7242 11.7059 45.1726 11.7059C43.621 11.7059 42.3654 10.4488 42.3654 8.89531C42.3654 7.3418 43.621 6.08468 45.1726 6.08468ZM43.7792 35.213C43.5393 33.9661 43.1668 32.6732 42.6717 31.3548C43.3301 29.8217 43.7843 28.2324 44.065 26.495L44.0906 26.3519C45.9994 27.5988 47.0457 29.1318 47.0457 30.6854C47.0457 32.3309 45.8871 33.9304 43.7843 35.213H43.7792ZM42.6461 23.4595V23.5208C41.018 22.8309 39.1704 22.3352 37.139 22.0388C36.0774 20.7971 34.9648 19.6984 33.8266 18.7734C35.613 17.4856 37.185 16.8315 38.5069 16.8315C39.3439 16.8315 40.0738 17.0308 40.676 17.4294C42.0082 18.2981 42.784 20.6642 42.6461 23.4595ZM42.2991 25.8051C42.1613 26.8271 41.9316 27.8287 41.5947 28.8508C41.0946 27.8185 40.5178 26.7862 39.8747 25.7642C39.5481 25.243 39.2061 24.737 38.8539 24.2414C40.135 24.5429 41.3089 24.9312 42.3501 25.4065L42.2991 25.8V25.8051ZM40.232 43.2208C39.6502 43.5887 38.9611 43.7727 38.1853 43.7727C37.0165 43.7727 35.6487 43.3485 34.2145 42.5411C35.2914 41.7695 36.3377 40.8496 37.3279 39.8173L37.8995 39.2194C39.446 38.9486 40.8955 38.5449 42.2327 38.0185C42.2991 40.5174 41.5896 42.3622 40.232 43.2208ZM30.1722 39.5669C30.8408 39.6129 31.4788 39.6334 32.1066 39.6334H33.0304C33.6582 39.6334 34.2962 39.6129 34.9648 39.5669C34.1788 40.2875 33.3723 40.9212 32.5659 41.4526C31.7595 40.9212 30.9531 40.2875 30.1671 39.5669H30.1722ZM26.9567 43.7727C26.1809 43.7727 25.4919 43.5887 24.9101 43.2208C23.5524 42.3674 22.843 40.5174 22.9093 38.0185C24.2466 38.5449 25.6961 38.9486 27.2425 39.2194L27.8142 39.8173C28.8043 40.8547 29.8507 41.7695 30.9276 42.5411C29.4934 43.3485 28.1255 43.7727 26.9567 43.7727ZM22.792 25.4116C23.8332 24.9363 25.007 24.5429 26.2881 24.2465C25.936 24.737 25.594 25.2481 25.2673 25.7693C24.6294 26.7914 24.0475 27.8287 23.5473 28.8559C23.2105 27.8338 22.9757 26.8322 22.8379 25.8102L22.7868 25.4167L22.792 25.4116ZM22.501 23.4595C22.3632 20.6642 23.139 18.2981 24.4711 17.4294C25.0734 17.0359 25.8033 16.8315 26.6403 16.8315C27.9622 16.8315 29.5342 17.4856 31.3206 18.7734C30.1824 19.6984 29.0697 20.7971 28.0081 22.0388C25.9768 22.3352 24.1292 22.8309 22.5061 23.5208V23.4595H22.501ZM21.3679 35.213C19.26 33.9355 18.1066 32.336 18.1066 30.6854C18.1066 29.1267 19.1529 27.5988 21.0617 26.3519L21.0872 26.495C21.368 28.2324 21.8273 29.8217 22.4806 31.3548C21.9855 32.6732 21.6129 33.9661 21.3731 35.213H21.3679ZM25.9921 37.068C24.9713 36.8125 24.0016 36.4906 23.1033 36.1022C23.2258 35.3255 23.4095 34.518 23.6494 33.6953C23.9454 34.2012 24.267 34.702 24.6294 35.2232L24.711 35.3408C25.3235 36.2197 25.5072 36.4804 25.9921 37.0731V37.068ZM41.4927 33.6902C41.7326 34.5129 41.9163 35.3255 42.0388 36.0971C41.1354 36.4855 40.1708 36.8074 39.15 37.0629C39.6349 36.4753 39.8084 36.2248 40.4311 35.3306L40.5127 35.213C40.8751 34.6918 41.1967 34.191 41.4927 33.6851V33.6902ZM38.9764 34.2114C38.1292 35.5707 37.6903 36.0409 36.8941 36.9045C36.8175 36.9863 36.7358 37.0731 36.6491 37.1651L36.251 37.5995C35.2047 37.7273 34.1277 37.7937 33.0406 37.7937H32.1168C31.0296 37.7937 29.9476 37.7273 28.9013 37.5995L28.5032 37.1651C28.4165 37.0731 28.3399 36.9863 28.2582 36.9045C27.462 36.046 27.0231 35.5707 26.1758 34.2114C25.5277 33.1689 24.9866 32.198 24.5273 31.2373C25.1653 29.6838 25.9462 28.1762 26.8445 26.7505C27.4978 25.7131 28.2123 24.7115 28.9728 23.7763C31.0858 23.531 34.0665 23.531 36.1795 23.7763C36.94 24.7115 37.6596 25.7131 38.3129 26.7505C39.2112 28.1762 39.9921 29.6838 40.6301 31.2373C40.1708 32.198 39.6297 33.1689 38.9815 34.2114H38.9764ZM34.3727 21.7782C33.3417 21.7271 31.8004 21.7271 30.7694 21.7782C31.3512 21.1957 31.9535 20.654 32.571 20.1583C33.1886 20.654 33.7909 21.1957 34.3727 21.7782ZM48.8729 30.6854C48.8729 33.1945 47.158 35.4992 44.0497 37.1754C44.0497 37.2162 44.0599 37.2622 44.0599 37.3082C44.3151 40.8496 43.3199 43.5223 41.2477 44.8305C40.38 45.3773 39.3746 45.6583 38.2568 45.6583C36.5368 45.6583 34.5718 44.9889 32.571 43.7165C30.5703 44.9889 28.6053 45.6583 26.8853 45.6583C25.7675 45.6583 24.7621 45.3824 23.8944 44.8305C21.8273 43.5223 20.8269 40.8496 21.0821 37.3031C21.0821 37.2622 21.0872 37.2162 21.0923 37.1754C17.979 35.4992 16.2691 33.1945 16.2691 30.6854C16.2691 28.1762 17.8361 26.0708 20.6891 24.4202V24.0523C20.5411 22.3046 20.7096 20.6284 21.1689 19.2027C21.6538 17.6951 22.45 16.5453 23.4708 15.881C24.3792 15.2882 25.446 14.9918 26.6403 14.9918C28.3909 14.9918 30.3815 15.7992 32.571 17.3936C34.7606 15.7992 36.7562 14.9918 38.5018 14.9918C39.6961 14.9918 40.7628 15.2933 41.6713 15.881C42.6921 16.5453 43.4883 17.6951 43.9732 19.2027C44.4325 20.6233 44.5959 22.3046 44.4529 24.0523V24.4202C47.306 26.0759 48.8729 28.2938 48.8729 30.6854ZM32.571 27.7981C33.9644 27.7981 35.0924 28.9274 35.0924 30.3225C35.0924 31.7176 33.9644 32.847 32.571 32.847C31.1777 32.847 30.0497 31.7176 30.0497 30.3225C30.0497 28.9274 31.1777 27.7981 32.571 27.7981Z" fill="#5A4499"/>
</svg>
