<svg width="62" height="72" viewBox="0 0 62 72" fill="none" xmlns="http://www.w3.org/2000/svg">
<path fill-rule="evenodd" clip-rule="evenodd" d="M60.8109 1C60.8109 12.6973 62.9239 31.6614 59.0296 42.2549C54.6198 56.257 44.3558 65.5167 31.0602 71H30.9377C17.642 65.5167 7.37807 56.257 2.96829 42.2549C-0.920892 31.6614 1.187 12.6922 1.187 1H60.8058H60.8109Z" fill="white" stroke="#5A4499" stroke-width="0.227512" stroke-miterlimit="22.93"/>
<path fill-rule="evenodd" clip-rule="evenodd" d="M60.8109 1C60.8109 12.6973 62.9239 31.6614 59.0296 42.2549C54.6198 56.257 44.3558 65.5167 31.0602 71H30.9377C17.642 65.5167 7.37807 56.257 2.96829 42.2549C-0.920892 31.6614 1.187 12.6922 1.187 1H60.8058H60.8109ZM58.6468 3.17185H3.35108C3.21327 13.9544 1.57492 32.2082 5.00985 41.5293L5.02512 41.5804C9.06231 54.4326 18.5709 63.4266 30.7795 68.5931H31.2133C43.4219 63.4317 52.9304 54.4326 56.9676 41.5804L56.9829 41.5293C60.4179 32.2082 58.7795 13.9544 58.6417 3.17185H58.6468Z" fill="#5A4499"/>
<path fill-rule="evenodd" clip-rule="evenodd" d="M42.7327 15.2321L48.1276 23.5055C48.74 23.3216 49.2504 22.8003 49.8782 22.8105C57.8097 22.9281 50.016 2.53312 42.7327 15.2372V15.2321ZM24.5118 24.9722L27.3699 23.1018L26.2062 21.3183L37.7156 13.7961L38.8793 15.5796L41.7375 13.7092L41.9773 14.0823C44.1516 0.233519 64.261 17.0973 50.9552 23.5873C50.2559 23.9297 49.6383 24.4152 48.9391 24.7626L49.5975 25.7694L32.3667 37.0323L30.0393 33.4603L15.7024 31.0176L13.5945 27.7828L25.9307 27.1593L24.5016 24.9671L24.5118 24.9722ZM16.2945 45.7402C15.9934 45.8168 15.682 45.8577 15.3707 45.8577C13.4567 45.8577 11.8949 44.4064 11.8949 42.628C11.8949 42.1988 12.0072 41.698 12.2317 41.1358C12.2675 41.0387 12.3747 40.9876 12.4819 41.0081C12.5891 41.0285 12.6605 41.1256 12.6503 41.2227C12.635 41.3403 12.6299 41.4578 12.6299 41.5702C12.6299 43.507 14.1916 45.132 16.2587 45.3467C16.3608 45.3569 16.4425 45.4336 16.4527 45.5306C16.4629 45.6277 16.3966 45.7146 16.2945 45.7402ZM18.7035 37.0681C17.6674 35.3562 16.514 33.8691 15.9168 33.1383C15.8351 33.0412 15.7177 32.985 15.5901 32.985C15.4625 32.985 15.3452 33.0412 15.2635 33.1383C14.6663 33.8691 13.5129 35.3562 12.4768 37.0681C11.1396 39.2757 10.4607 41.1052 10.4607 42.5003C10.4607 45.3313 12.7626 47.6361 15.5901 47.6361C18.4177 47.6361 20.7195 45.3313 20.7195 42.5003C20.7195 41.1052 20.0407 39.2808 18.7035 37.0681Z" fill="#5A4499"/>
</svg>
