<svg width="62" height="72" viewBox="0 0 62 72" fill="none" xmlns="http://www.w3.org/2000/svg">
<path fill-rule="evenodd" clip-rule="evenodd" d="M61.0609 1C61.0609 12.6973 63.1739 31.6614 59.2796 42.2549C54.8698 56.257 44.6058 65.5167 31.3101 71H31.1877C17.892 65.5167 7.62805 56.257 3.21827 42.2549C-0.670906 31.6614 1.43701 12.6922 1.43701 1H61.0557H61.0609Z" fill="white" stroke="#5A4499" stroke-width="0.227512" stroke-miterlimit="22.93"/>
<path fill-rule="evenodd" clip-rule="evenodd" d="M61.0609 1C61.0609 12.6973 63.1739 31.6614 59.2796 42.2549C54.8698 56.257 44.6058 65.5167 31.3101 71H31.1877C17.892 65.5167 7.62805 56.257 3.21827 42.2549C-0.670906 31.6614 1.43701 12.6922 1.43701 1H61.0557H61.0609ZM58.8968 3.17185H3.60107C3.46326 13.9544 1.82491 32.2082 5.25984 41.5293L5.27516 41.5804C9.31236 54.4326 18.8209 63.4266 31.0295 68.5931H31.4633C43.6718 63.4317 53.1804 54.4326 57.2176 41.5804L57.2329 41.5293C60.6679 32.2082 59.0295 13.9544 58.8917 3.17185H58.8968Z" fill="#5A4499"/>
<path fill-rule="evenodd" clip-rule="evenodd" d="M33.02 20.0101C30.6773 12.1454 33.9897 8.2514 33.9897 8.2514C33.9897 8.2514 23.1235 13.9289 19.9029 29.2238C18.5504 27.1082 17.3663 25.9481 17.499 26.3263C18.9536 30.4145 15.6667 32.2491 15.7126 36.5621C15.7586 40.8751 22.608 45.8065 22.608 45.8065C22.608 45.8065 22.608 45.8065 22.608 45.8014C22.8785 46.016 23.1643 46.2205 23.4603 46.4146C23.2051 46.0825 22.9653 45.7503 22.7458 45.4028C22.0058 44.253 21.4801 43.0368 21.4699 41.8665C21.4443 39.5567 22.3783 37.9572 23.0214 36.3424C23.5828 34.9422 23.9299 33.5317 23.2562 31.6307C23.149 31.3292 23.8636 31.9936 24.8333 33.3222C26.7269 27.7418 28.5898 22.9076 28.5898 22.9076C28.5898 22.9076 28.6357 30.5014 31.009 35.3714C33.2343 39.94 33.1016 42.2856 33.1016 42.2856C37.149 38.085 38.5016 31.4059 38.5016 31.4059C39.9715 32.8163 40.8188 34.6049 41.2934 36.4037C42.2938 40.1904 40.2267 43.9924 40.1807 44.3603C40.1603 44.5136 40.1246 44.6567 40.094 44.8049C39.9511 45.4948 39.6959 46.1131 39.3488 46.6548C39.7265 46.3942 40.0889 46.1029 40.4359 45.7963C40.4359 45.7963 40.4359 45.7963 40.4359 45.8014C40.4359 45.8014 46.7495 40.8649 46.7903 36.5519C46.8363 32.2388 43.5494 30.4094 45.004 26.3161C45.1316 25.9635 44.1669 26.9498 43.0134 28.8099C41.8651 24.967 41.1352 21.8651 37.3022 18.1908C37.3022 18.1908 38.0116 26.5409 33.9387 32.5915C33.9387 32.5915 35.3678 27.8645 33.0251 19.9998L33.02 20.0101ZM24.522 49.8181H38.522V52.4038H24.522V49.8181Z" fill="#5A4499"/>
</svg>
