<svg width="61" height="72" viewBox="0 0 61 72" fill="none" xmlns="http://www.w3.org/2000/svg">
<path fill-rule="evenodd" clip-rule="evenodd" d="M60.3109 1C60.3109 12.6973 62.4239 31.6614 58.5296 42.2549C54.1198 56.257 43.8559 65.5167 30.5602 71H30.4377C17.142 65.5167 6.87805 56.257 2.46827 42.2549C-1.42091 31.6614 0.687013 12.6922 0.687013 1H60.3058H60.3109Z" fill="white" stroke="#5A4499" stroke-width="0.227512" stroke-miterlimit="22.93"/>
<path fill-rule="evenodd" clip-rule="evenodd" d="M60.3109 1C60.3109 12.6973 62.4239 31.6614 58.5296 42.2549C54.1198 56.257 43.8559 65.5167 30.5602 71H30.4377C17.142 65.5167 6.87805 56.257 2.46827 42.2549C-1.42091 31.6614 0.687013 12.6922 0.687013 1H60.3058H60.3109ZM58.1468 3.17185H2.85107C2.71326 13.9544 1.07491 32.2082 4.50984 41.5293L4.52515 41.5804C8.56234 54.4326 18.0709 63.4266 30.2795 68.5931H30.7133C42.9219 63.4317 52.4305 54.4326 56.4676 41.5804L56.4829 41.5293C59.9179 32.2082 58.2795 13.9544 58.1417 3.17185H58.1468Z" fill="#5A4499"/>
<path fill-rule="evenodd" clip-rule="evenodd" d="M45.3208 45.6583L47.0663 28.6872C47.0765 28.6055 47.0919 28.5237 47.1123 28.4471C45.0299 27.9667 43.3864 26.3365 42.8862 24.2567H35.7152L33.7502 31.2066C33.592 31.7738 33.0714 32.1622 32.4845 32.1622H32.464C31.8669 32.152 31.3514 31.7483 31.2085 31.1657L28.335 19.7597L26.7171 23.4646C26.5078 23.9449 26.0331 24.2567 25.5125 24.2567H19.199C18.6988 26.3365 17.0553 27.9667 14.973 28.4471C14.9985 28.5237 15.0138 28.6055 15.0189 28.6872L16.7644 45.6583H10.6601L12.4057 28.6872C12.4159 28.6055 12.4312 28.5237 12.4516 28.4471C9.9456 27.8696 8.06226 25.6211 8.06226 22.9382C8.06226 19.821 10.5938 17.2863 13.7072 17.2863C16.3663 17.2863 18.5967 19.1413 19.1939 21.6249H24.65L27.4622 15.1809C27.6868 14.6648 28.2176 14.353 28.7739 14.3939C29.3354 14.4399 29.8049 14.8385 29.9427 15.3853L32.5559 25.754L33.4542 22.5805C33.6124 22.0133 34.133 21.6249 34.72 21.6249H42.8862C43.4834 19.1413 45.7138 17.2863 48.3729 17.2863C51.4863 17.2863 54.0179 19.821 54.0179 22.9382C54.0179 25.6211 52.1396 27.8696 49.6336 28.4471C49.6591 28.5237 49.6744 28.6055 49.6795 28.6872L51.4251 45.6583H45.3208Z" fill="#5A4499"/>
</svg>
