<svg width="62" height="72" viewBox="0 0 62 72" fill="none" xmlns="http://www.w3.org/2000/svg">
<path fill-rule="evenodd" clip-rule="evenodd" d="M60.5609 1C60.5609 12.6973 62.6739 31.6614 58.7796 42.2549C54.3698 56.257 44.1059 65.5167 30.8102 71H30.6877C17.392 65.5167 7.12805 56.257 2.71827 42.2549C-1.17091 31.6614 0.937013 12.6922 0.937013 1H60.5557H60.5609Z" fill="white" stroke="#5A4499" stroke-width="0.227512" stroke-miterlimit="22.93"/>
<path fill-rule="evenodd" clip-rule="evenodd" d="M60.5609 1C60.5609 12.6973 62.6739 31.6614 58.7796 42.2549C54.3698 56.257 44.1059 65.5167 30.8102 71H30.6877C17.392 65.5167 7.12805 56.257 2.71827 42.2549C-1.17091 31.6614 0.937013 12.6922 0.937013 1H60.5557H60.5609ZM58.3968 3.17185H3.10107C2.96326 13.9544 1.32491 32.2082 4.75984 41.5293L4.77513 41.5804C8.81232 54.4326 18.3209 63.4266 30.5295 68.5931H30.9633C43.1718 63.4317 52.6804 54.4326 56.7176 41.5804L56.7329 41.5293C60.1679 32.2082 58.5295 13.9544 58.3917 3.17185H58.3968Z" fill="#5A4499"/>
<path fill-rule="evenodd" clip-rule="evenodd" d="M44.5753 49.7824C44.3559 50.0021 44.0649 50.1145 43.7791 50.1145C43.4933 50.1145 43.2024 50.0021 42.9829 49.7824L37.3584 44.9532L38.9967 43.3128L43.7791 47.2988L46.7496 44.3246L45.8819 42.8529C45.79 42.9653 45.6522 43.0471 45.4889 43.0675L44.2282 43.2157C44.0445 43.2361 43.8659 43.1748 43.7332 43.042L41.4977 40.8037L43.4167 38.8822L43.5443 38.7545L43.6719 38.6267C44.1721 38.1259 44.6059 37.5689 44.9632 36.971L49.2148 43.9005C49.4904 44.3451 49.4241 44.9225 49.0566 45.2956L44.5753 49.7824ZM44.2589 35.8416C44.8713 34.605 45.1163 33.2303 44.9989 31.8812L45.5961 31.2833C45.6369 31.2424 45.6727 31.1964 45.7084 31.1555C45.7543 31.1198 45.7952 31.084 45.836 31.0431C46.3872 30.4912 46.3872 29.5663 45.836 29.0144C45.836 29.0144 44.2742 27.4506 44.2538 27.4302C43.9782 27.1542 43.6107 27.0163 43.2381 27.0163C43.0492 27.0163 42.8604 27.052 42.6818 27.1236L39.2621 23.6997C37.9351 22.371 36.2355 21.6505 34.5002 21.5381C34.5002 21.0117 34.5053 20.4905 34.5104 19.9641L37.537 16.9338C38.027 16.4432 38.124 15.6715 37.7361 15.0941C37.4554 14.675 37.0011 14.4655 36.5469 14.4655C36.1794 14.4655 35.8068 14.6035 35.5312 14.8795C34.9085 15.5029 34.2858 16.1263 33.6632 16.7498C32.7598 17.6543 31.5501 18.5077 31.6318 19.9335C31.642 20.1328 31.7288 21.8754 31.6318 21.9111C30.5804 22.2637 29.5953 22.8616 28.7583 23.6997L28.3296 24.129L22.4448 30.0211L21.9752 30.4912C21.4495 31.0176 21.4495 31.8761 21.9752 32.4024L34.1582 44.6006C34.4236 44.8663 34.7656 44.9941 35.1127 44.9941C35.4597 44.9941 35.8017 44.8612 36.0671 44.6006L36.5367 44.1304L40.6759 39.986L42.8502 37.8091C42.8502 37.8091 42.8604 37.7989 42.8655 37.7938C43.4473 37.2061 43.9118 36.5469 44.2589 35.8468V35.8416ZM31.0244 38.131C30.5702 37.6762 30.5702 36.9454 31.0244 36.4906C31.4787 36.0358 32.2085 36.0358 32.6628 36.4906L35.4495 39.2808C35.9038 39.7356 35.9038 40.4664 35.4495 40.9212C35.225 41.1461 34.9289 41.2636 34.6278 41.2636C34.3267 41.2636 34.0357 41.1512 33.8061 40.9212L31.0193 38.131H31.0244ZM38.9763 35.7497L36.1896 32.9595C35.7353 32.5046 35.0055 32.5046 34.5512 32.9595C34.097 33.4143 34.097 34.145 34.5512 34.5999L37.338 37.39C37.5625 37.6149 37.8586 37.7273 38.1597 37.7273C38.4608 37.7273 38.7518 37.6149 38.9814 37.39C39.4357 36.9352 39.4357 36.2045 38.9814 35.7497H38.9763ZM9.23076 14.6444L9.35836 14.6188C9.35325 14.5217 9.34814 14.4246 9.34814 14.3224C9.34814 14.1333 9.36346 13.9494 9.38387 13.7705L9.27668 13.7501C8.96024 13.6888 8.75607 13.3821 8.81731 13.0653C8.87856 12.7485 9.18481 12.5441 9.50125 12.6054L9.7105 12.6463C9.83299 12.3703 9.99124 12.1097 10.1801 11.8695L10.032 11.7213C9.80237 11.4914 9.80237 11.1234 10.032 10.8986C10.2617 10.6686 10.6292 10.6686 10.8538 10.8986L11.012 11.057C11.2315 10.8935 11.4663 10.7606 11.7113 10.6482L11.6704 10.4387C11.6092 10.1218 11.8133 9.81521 12.1298 9.75389C12.4462 9.69257 12.7524 9.89697 12.8137 10.2138L12.8341 10.3211C13.0179 10.2956 13.2016 10.2853 13.3853 10.2853C13.4823 10.2853 13.5844 10.2854 13.6814 10.2956L13.7069 10.1678C13.7681 9.85098 14.0744 9.64656 14.3908 9.70788C14.7072 9.76921 14.9114 10.0758 14.8501 10.3927L14.8195 10.546C15.0849 10.6482 15.3401 10.7759 15.5749 10.9292L15.6259 10.8526C15.8046 10.5817 16.167 10.5102 16.4324 10.6891C16.6978 10.8679 16.7743 11.2307 16.5957 11.4965L16.463 11.6958L17.0295 12.263L17.152 12.1404C17.3817 11.9104 17.7492 11.9104 17.9737 12.1404C18.2034 12.3703 18.2034 12.7383 17.9737 12.9631L17.8512 13.0858L18.3923 13.6274L18.5147 13.5048C18.7444 13.2748 19.1119 13.2748 19.3365 13.5048C19.5662 13.7348 19.5662 14.1027 19.3365 14.3275L19.214 14.4502L19.755 14.9919L19.8775 14.8692C20.1072 14.6393 20.4747 14.6393 20.6992 14.8692C20.9289 15.0992 20.9289 15.4671 20.6992 15.692L20.5767 15.8146L21.1178 16.3563L21.2402 16.2337C21.4699 16.0037 21.8374 16.0037 22.062 16.2337C22.2916 16.4636 22.2916 16.8316 22.062 17.0564L21.9395 17.1791L22.4805 17.7207L22.603 17.5981C22.8327 17.3681 23.2002 17.3681 23.4247 17.5981C23.6544 17.828 23.6544 18.196 23.4247 18.4208L23.3022 18.5435L23.8432 19.0852L23.9657 18.9625C24.1954 18.7326 24.5629 18.7326 24.7875 18.9625C25.0171 19.1925 25.0171 19.5604 24.7875 19.7853L24.665 19.9079L25.206 20.4496L25.3285 20.327C25.5582 20.097 25.9256 20.097 26.1502 20.327C26.3799 20.5569 26.3799 20.9249 26.1502 21.1497L26.0277 21.2723L26.5687 21.814L26.6912 21.6914C26.9209 21.4614 27.2884 21.4614 27.5129 21.6914C27.7426 21.9214 27.7426 22.2893 27.5129 22.5141L27.3904 22.6368L27.9315 23.1785L27.1097 24.0012L23.0419 28.0741L22.2202 28.8968L21.6792 28.3551L21.5567 28.4778C21.4444 28.5902 21.2964 28.6464 21.1433 28.6464C20.9901 28.6464 20.8472 28.5902 20.7299 28.4778C20.5002 28.2478 20.5002 27.8799 20.7299 27.655L20.8523 27.5324L20.3113 26.9907L20.1888 27.1133C20.0766 27.2258 19.9285 27.282 19.7754 27.282C19.6223 27.282 19.4794 27.2258 19.362 27.1133C19.1323 26.8834 19.1323 26.5155 19.362 26.2906L19.4845 26.168L18.9435 25.6263L18.821 25.7489C18.7087 25.8613 18.5556 25.9176 18.4076 25.9176C18.2596 25.9176 18.1116 25.8613 17.9942 25.7489C17.7645 25.519 17.7645 25.151 17.9942 24.9262L18.1167 24.8035L17.5756 24.2618L17.4531 24.3845C17.3409 24.4969 17.1929 24.5531 17.0397 24.5531C16.8866 24.5531 16.7437 24.4969 16.6263 24.3845C16.3966 24.1545 16.3966 23.7866 16.6263 23.5617L16.7488 23.4391L16.2078 22.8974L16.0853 23.0201C15.973 23.1325 15.825 23.1887 15.6719 23.1887C15.5188 23.1887 15.3759 23.1325 15.2585 23.0201C15.0288 22.7901 15.0288 22.4222 15.2585 22.1973L15.381 22.0747L14.84 21.533L14.7175 21.6556C14.6052 21.768 14.4571 21.8243 14.304 21.8243C14.1509 21.8243 14.008 21.768 13.8906 21.6556C13.6609 21.4257 13.6609 21.0577 13.8906 20.8329L14.0131 20.7102L13.4721 20.1685L13.3496 20.2912C13.2373 20.4036 13.0893 20.4598 12.9362 20.4598C12.7831 20.4598 12.6401 20.4036 12.5228 20.2912C12.2931 20.0612 12.2931 19.6933 12.5228 19.4684L12.6452 19.3458L12.1042 18.8041L11.9817 18.9268C11.8695 19.0392 11.7163 19.0954 11.5683 19.0954C11.4203 19.0954 11.2723 19.0392 11.1549 18.9268C10.9252 18.6968 10.9252 18.3289 11.1549 18.104L11.2774 17.9814L10.7109 17.4141L10.5118 17.547C10.4148 17.6134 10.3026 17.6441 10.1903 17.6441C10.0014 17.6441 9.81771 17.5521 9.70542 17.3835C9.52678 17.1177 9.59824 16.7549 9.86875 16.576L9.9504 16.525C9.79728 16.2848 9.66968 16.0344 9.5676 15.7686L9.40938 15.7993C9.37366 15.8044 9.33281 15.8095 9.29708 15.8095C9.02147 15.8095 8.78159 15.6153 8.72545 15.3394C8.6642 15.0225 8.86837 14.7159 9.18481 14.6546L9.23076 14.6444Z" fill="#5A4499"/>
</svg>
