<svg width="62" height="72" viewBox="0 0 62 72" fill="none" xmlns="http://www.w3.org/2000/svg">
<path fill-rule="evenodd" clip-rule="evenodd" d="M60.8109 1C60.8109 12.6973 62.9239 31.6614 59.0296 42.2549C54.6198 56.257 44.3559 65.5167 31.0602 71H30.9377C17.642 65.5167 7.37805 56.257 2.96827 42.2549C-0.920906 31.6614 1.18701 12.6922 1.18701 1H60.8058H60.8109Z" fill="white" stroke="#5A4499" stroke-width="0.227512" stroke-miterlimit="22.93"/>
<path fill-rule="evenodd" clip-rule="evenodd" d="M60.8109 1C60.8109 12.6973 62.9239 31.6614 59.0296 42.2549C54.6198 56.257 44.3559 65.5167 31.0602 71H30.9377C17.642 65.5167 7.37805 56.257 2.96827 42.2549C-0.920906 31.6614 1.18701 12.6922 1.18701 1H60.8058H60.8109ZM58.6468 3.17185H3.35107C3.21326 13.9544 1.57491 32.2082 5.00984 41.5293L5.02516 41.5804C9.06236 54.4326 18.5709 63.4266 30.7795 68.5931H31.2133C43.4218 63.4317 52.9305 54.4326 56.9677 41.5804L56.983 41.5293C60.4179 32.2082 58.7796 13.9544 58.6418 3.17185H58.6468Z" fill="#5A4499"/>
<path fill-rule="evenodd" clip-rule="evenodd" d="M17.5553 10.6532L20.6431 16.9235C20.6431 16.9235 16.3712 10.3415 15.774 9.68739C15.1768 9.02817 16.2283 7.96013 17.5553 10.6583V10.6532ZM11.8848 29.0603L20.5411 30.762L11.895 29.8473C10.6905 29.2494 11.8848 29.0603 11.8848 29.0603ZM21.2709 23.7303L21.5925 24.3027L21.9293 24.9006L22.3938 25.7182L21.6231 25.5291L21.0259 25.3809L20.4288 25.2327L18.7138 24.8086L20.2757 25.8408L20.8371 26.2139L21.4241 26.6023L23.4912 27.9718L23.8126 28.1864L23.3023 28.1507L21.7048 28.0382L21.0259 27.9922L20.3675 27.9463L19.6938 27.9003C19.9388 28.0076 20.194 28.1098 20.4492 28.2171C20.7146 28.3244 20.9851 28.4317 21.2556 28.5288C21.5772 28.6515 21.9038 28.7639 22.2202 28.8712C22.3682 28.9172 22.5061 28.9632 22.6541 29.0041C22.8685 29.0705 23.0879 29.1318 23.2921 29.1829C24.7467 29.5407 25.1958 29.3465 25.2979 29.28C25.5378 29.1267 25.7368 28.9836 25.9206 28.8457C26.9924 28.0382 27.1813 27.4506 27.5487 25.9533L27.7682 25.0692L27.9723 24.2464L28.151 23.5157L28.1816 23.3981L28.0999 23.4595L27.61 23.8325L27.1149 24.2107L26.7729 24.4713L26.7883 23.9347L26.8087 23.2142L26.8291 22.5243L26.875 20.7357L26.186 22.2739L25.9308 22.8411L25.6756 23.4084L25.548 23.6894L25.4102 23.347L25.1499 22.6929L24.8998 22.0644L22.9297 17.1023L23.2666 22.3301L23.3074 22.974L23.3482 23.6281V23.6639L23.3278 23.6383L22.9093 23.1631L22.4908 22.6929L17.5349 17.1074L21.2709 23.7252V23.7303ZM21.1944 9.43188L21.8885 20.1736L10.7671 7.63818L19.9184 23.8479L12.0839 21.9111L19.2396 26.6432L13.6253 26.2548L16.2079 27.6141C16.3406 27.6856 19.0099 29.0858 21.5465 29.9495C21.7762 30.0261 22.0059 30.1028 22.2305 30.1692C22.4907 30.251 22.7511 30.3225 23.0011 30.3838C23.2512 30.4452 23.4758 30.4911 23.6953 30.532C24.5834 30.6904 25.252 30.6649 25.7368 30.4452C25.8185 30.4094 25.9002 30.3685 25.9717 30.3174C26.2932 30.1079 26.5739 29.9086 26.8138 29.7144C27.8703 28.8763 28.2429 28.1251 28.59 26.8527C28.641 26.6636 28.692 26.4643 28.743 26.2548L28.7635 26.1781L29.0646 24.9465L30.2079 20.3013L28.0642 21.9417L28.2582 14.6494L25.6092 20.5415L21.1893 9.42677L21.1944 9.43188Z" fill="#5A4499"/>
<path fill-rule="evenodd" clip-rule="evenodd" d="M45.6472 26.9191L55.0588 44.0026L50.2968 46.5884L40.8852 29.5049L42.8145 28.4573L40.8087 24.921C40.5535 24.4764 39.992 24.2976 39.5429 24.5428L36.9961 25.9226L36.8736 25.6978L36.8634 25.6773L27.0791 30.9869L26.8137 30.4912L36.7817 25.0845C36.8327 24.8137 36.9961 24.5684 37.2564 24.4304L40.0074 22.9382C40.4565 22.6929 41.023 22.8667 41.2731 23.3164L43.8455 27.9003L45.6523 26.9191H45.6472ZM44.7438 29.5611L43.5954 30.1845L51.2053 43.9362L52.3537 43.3127L44.7438 29.5611Z" fill="#5A4499"/>
<path fill-rule="evenodd" clip-rule="evenodd" d="M10.2668 43.9771H26.3288V46.8746H29.3146V43.9771H37.0215V33.5011H29.3146V31.4468H26.3288V33.5011H10.2668V43.9771Z" fill="#5A4499"/>
</svg>
