<svg width="62" height="72" viewBox="0 0 62 72" fill="none" xmlns="http://www.w3.org/2000/svg">
<path fill-rule="evenodd" clip-rule="evenodd" d="M61.0609 1C61.0609 12.6973 63.1739 31.6614 59.2796 42.2549C54.8698 56.257 44.6059 65.5167 31.3102 71H31.1877C17.892 65.5167 7.62806 56.257 3.21828 42.2549C-0.670899 31.6614 1.43701 12.6922 1.43701 1H61.0558H61.0609Z" fill="white" stroke="#5A4499" stroke-width="0.227512" stroke-miterlimit="22.93"/>
<path fill-rule="evenodd" clip-rule="evenodd" d="M61.0609 1C61.0609 12.6973 63.1739 31.6614 59.2796 42.2549C54.8698 56.257 44.6059 65.5167 31.3102 71H31.1877C17.892 65.5167 7.62806 56.257 3.21828 42.2549C-0.670899 31.6614 1.43701 12.6922 1.43701 1H61.0558H61.0609ZM58.8968 3.17185H3.60107C3.46327 13.9544 1.82491 32.2082 5.25984 41.5293L5.27516 41.5804C9.31235 54.4326 18.8209 63.4266 31.0295 68.5931H31.4633C43.6719 63.4317 53.1804 54.4326 57.2176 41.5804L57.2329 41.5293C60.6679 32.2082 59.0295 13.9544 58.8917 3.17185H58.8968Z" fill="#5A4499"/>
<path fill-rule="evenodd" clip-rule="evenodd" d="M31.2487 19.3866C25.7365 19.3866 21.2502 23.8785 21.2502 29.3975C21.2502 34.9166 25.7365 39.4085 31.2487 39.4085C36.7609 39.4085 41.2473 34.9166 41.2473 29.3975C41.2473 23.8785 36.7609 19.3866 31.2487 19.3866ZM29.2174 17.3374H33.2801C33.6016 17.3374 33.8772 17.2045 34.0354 16.9694C34.1937 16.7344 34.2192 16.4277 34.1018 16.1314L31.8663 10.3721C31.6877 9.9122 31.4018 9.84576 31.2436 9.84576C31.0854 9.84576 30.7996 9.9122 30.6209 10.3721L28.3854 16.1314C28.268 16.4329 28.2936 16.7395 28.4518 16.9694C28.61 17.2045 28.8856 17.3374 29.2072 17.3374H29.2174ZM33.2801 41.4577H29.2174C28.8958 41.4577 28.6202 41.5905 28.462 41.8256C28.3038 42.0607 28.2782 42.3673 28.3956 42.6637L30.6312 48.4229C30.8098 48.8829 31.0956 48.9493 31.2538 48.9493C31.4121 48.9493 31.6979 48.8829 31.8765 48.4229L34.112 42.6637C34.2294 42.3622 34.2039 42.0556 34.0457 41.8256C33.8874 41.5905 33.6118 41.4577 33.2903 41.4577H33.2801ZM19.8568 22.0337L17.3712 16.3818C17.213 16.0189 17.2844 15.789 17.3712 15.6561C17.4733 15.4977 17.6519 15.4057 17.8561 15.4057C17.9786 15.4057 18.1113 15.4364 18.2542 15.5028L23.8991 17.9915C24.1951 18.1192 24.3891 18.3543 24.4452 18.6354C24.4963 18.9164 24.3993 19.2026 24.1696 19.4326L21.2961 22.3096C21.1124 22.4936 20.8776 22.6009 20.6479 22.6009C20.3059 22.6009 20.015 22.3914 19.8619 22.0439L19.8568 22.0337ZM42.6406 36.7563L45.1263 42.4082C45.2845 42.771 45.213 43.001 45.1263 43.1338C45.0242 43.2923 44.8455 43.3842 44.6414 43.3842C44.5189 43.3842 44.3862 43.3536 44.2433 43.2871L38.5983 40.7985C38.3023 40.6707 38.1084 40.4356 38.0522 40.1546C38.0012 39.8735 38.0982 39.5873 38.3278 39.3574L41.2013 36.4803C41.3902 36.2963 41.6199 36.189 41.8496 36.189C42.1915 36.189 42.4824 36.3985 42.6355 36.746L42.6406 36.7563ZM41.2013 22.3045L38.3329 19.4275C38.1084 19.2026 38.0063 18.9113 38.0573 18.6303C38.1084 18.3492 38.3074 18.1192 38.6035 17.9864L44.2484 15.4977C44.3913 15.4364 44.524 15.4006 44.6465 15.4006C44.8506 15.4006 45.0293 15.4926 45.1314 15.651C45.2181 15.7839 45.2896 16.0189 45.1314 16.3766L42.6458 22.0286C42.4926 22.3812 42.1966 22.5856 41.8598 22.5856C41.625 22.5856 41.3953 22.4834 41.2116 22.2943L41.2013 22.3045ZM21.2961 36.4854L24.1645 39.3625C24.3942 39.5924 24.4911 39.8786 24.4401 40.1597C24.3891 40.4407 24.19 40.6707 23.894 40.8036L18.2491 43.2923C18.1062 43.3536 17.9735 43.3893 17.851 43.3893C17.6468 43.3893 17.4682 43.2974 17.3661 43.1389C17.2793 43.0061 17.2079 42.771 17.3661 42.4133L19.8517 36.7614C20.0048 36.4139 20.3008 36.2044 20.6377 36.2044C20.8725 36.2044 21.1022 36.3066 21.2859 36.4956L21.2961 36.4854ZM50.2557 28.769L44.5036 26.5307C44.3811 26.4847 44.2535 26.4591 44.131 26.4591C43.6461 26.4591 43.2939 26.8373 43.2939 27.3585V31.4263C43.2939 31.9475 43.6461 32.3257 44.131 32.3257C44.2535 32.3257 44.376 32.3001 44.5036 32.2541L50.2557 30.0159C50.715 29.837 50.7814 29.5508 50.7814 29.3924C50.7814 29.234 50.715 28.9478 50.2557 28.769ZM18.3665 32.3257C18.8513 32.3257 19.2035 31.9475 19.2035 31.4263V27.3585C19.2035 26.8373 18.8513 26.4591 18.3665 26.4591C18.244 26.4591 18.1215 26.4847 17.9939 26.5307L12.2418 28.769C11.7824 28.9478 11.7161 29.234 11.7161 29.3924C11.7161 29.5508 11.7824 29.837 12.2418 30.0159L17.9939 32.2541C18.1164 32.3001 18.244 32.3257 18.3665 32.3257Z" fill="#5A4499"/>
</svg>
