<svg width="61" height="72" viewBox="0 0 61 72" fill="none" xmlns="http://www.w3.org/2000/svg">
<path fill-rule="evenodd" clip-rule="evenodd" d="M60.311 1C60.311 12.6973 62.424 31.6614 58.5297 42.2549C54.1199 56.257 43.856 65.5167 30.5603 71H30.4378C17.1422 65.5167 6.87817 56.257 2.46839 42.2549C-1.42078 31.6614 0.687135 12.6922 0.687135 1H60.3059H60.311Z" fill="white" stroke="#5A4499" stroke-width="0.227512" stroke-miterlimit="22.93"/>
<path fill-rule="evenodd" clip-rule="evenodd" d="M60.311 1C60.311 12.6973 62.424 31.6614 58.5297 42.2549C54.1199 56.257 43.856 65.5167 30.5603 71H30.4378C17.1422 65.5167 6.87817 56.257 2.46839 42.2549C-1.42078 31.6614 0.687135 12.6922 0.687135 1H60.3059H60.311ZM58.1469 3.17185H2.85119C2.71338 13.9544 1.07503 32.2082 4.50996 41.5293L4.52529 41.5804C8.56248 54.4326 18.071 63.4266 30.2796 68.5931H30.7134C42.922 63.4317 52.4306 54.4326 56.4678 41.5804L56.483 41.5293C59.918 32.2082 58.2796 13.9544 58.1418 3.17185H58.1469Z" fill="#5A4499"/>
<path fill-rule="evenodd" clip-rule="evenodd" d="M43.1057 14.4706C41.8859 13.6836 40.6405 12.9682 39.3646 12.3498L30.596 20.9657L30.6471 34.2421H47.1991L47.2807 29.183C42.9935 25.0539 41.2071 20.2554 43.1057 14.4706ZM30.6624 37.3389L30.6726 40.5123H47.0969L47.148 37.3389H30.6624ZM30.6879 43.6092L30.7032 47.9171L46.9744 48.0704L47.0459 43.6092H30.6879ZM37.3945 11.4862L30.1367 19.1413L22.2614 11.6497C28.728 13.3719 33.5359 13.2237 37.3945 11.4862ZM20.8476 12.2425C19.5971 12.8098 18.3058 13.4945 16.9686 14.3122C18.3365 20.24 16.6828 25.1612 13.7225 29.6429L13.8399 34.237H29.3354L29.2843 20.8993L20.8476 12.2425ZM13.9215 37.3338L14.0032 40.5072H29.3609L29.3507 37.3338H13.9215ZM14.0798 43.604L14.1869 47.7587L29.3864 47.9018L29.3711 43.604H14.0798Z" fill="#5A4499"/>
</svg>
