<svg width="62" height="72" viewBox="0 0 62 72" fill="none" xmlns="http://www.w3.org/2000/svg">
<path fill-rule="evenodd" clip-rule="evenodd" d="M60.5609 1C60.5609 12.6973 62.6739 31.6614 58.7796 42.2549C54.3698 56.257 44.1059 65.5167 30.8102 71H30.6877C17.392 65.5167 7.12805 56.257 2.71827 42.2549C-1.17091 31.6614 0.937013 12.6922 0.937013 1H60.5558H60.5609Z" fill="white" stroke="#5A4499" stroke-width="0.227512" stroke-miterlimit="22.93"/>
<path fill-rule="evenodd" clip-rule="evenodd" d="M60.5609 1C60.5609 12.6973 62.6739 31.6614 58.7796 42.2549C54.3698 56.257 44.1059 65.5167 30.8102 71H30.6877C17.392 65.5167 7.12805 56.257 2.71827 42.2549C-1.17091 31.6614 0.937013 12.6922 0.937013 1H60.5558H60.5609ZM58.3968 3.17185H3.10107C2.96326 13.9544 1.32491 32.2082 4.75984 41.5293L4.77515 41.5804C8.81234 54.4326 18.3209 63.4266 30.5295 68.5931H30.9633C43.1719 63.4317 52.6805 54.4326 56.7176 41.5804L56.733 41.5293C60.1679 32.2082 58.5295 13.9544 58.3917 3.17185H58.3968Z" fill="#5A4499"/>
<path fill-rule="evenodd" clip-rule="evenodd" d="M21.3784 25.7591C19.4644 21.5789 20.2861 16.4687 23.7925 13.1061C24.8388 12.0994 26.0331 11.3431 27.304 10.827C26.5589 11.2153 25.8545 11.7161 25.2165 12.3294C21.5876 15.8146 21.46 21.584 24.9409 25.2225C26.3547 26.6994 28.1462 27.5988 30.0193 27.9105L27.0948 32.2286C25.4309 30.4298 23.0525 29.3005 20.4086 29.3005C15.3813 29.3005 11.3033 33.3835 11.3033 38.4171C11.3033 39.3012 11.4309 40.1546 11.6656 40.962C11.1604 39.6896 10.8796 38.3047 10.8796 36.8483C10.8796 30.9102 15.5293 26.0657 21.3784 25.754V25.7591ZM31.9741 28.0229C32.9489 27.9718 33.9187 27.7674 34.8425 27.4097C35.3682 27.0775 35.9245 26.7913 36.5064 26.546C36.9657 26.2445 37.4047 25.8971 37.8181 25.4985C41.4521 22.0133 41.5746 16.2438 38.0937 12.6053C37.4812 11.9665 36.8024 11.4351 36.0725 11.016C37.3179 11.5833 38.4765 12.3907 39.4819 13.4434C42.7178 16.8213 43.3966 21.722 41.5694 25.7386C47.3113 26.1628 51.8385 30.9613 51.8385 36.8176C51.8385 38.2689 51.5578 39.6589 51.0525 40.9314C51.2873 40.1239 51.4149 39.2705 51.4149 38.3865C51.4149 33.3529 47.3369 29.2698 42.3095 29.2698C39.288 29.2698 36.6084 30.7416 34.9548 33.0105L31.9741 28.028V28.0229ZM34.1892 34.2472C33.5563 35.489 33.199 36.8943 33.199 38.3814C33.199 43.4149 37.2771 47.498 42.3044 47.498C43.1874 47.498 44.0397 47.3703 44.8462 47.1352C43.5753 47.6411 42.1921 47.9222 40.7375 47.9222C36.7973 47.9222 33.3368 45.8627 31.3667 42.7608C29.4017 45.8832 25.9311 47.9579 21.9704 47.9579C20.5209 47.9579 19.1327 47.6769 17.8618 47.171C18.6682 47.406 19.5206 47.5338 20.4035 47.5338C25.4309 47.5338 29.5089 43.4507 29.5089 38.4171C29.5089 36.8534 29.1159 35.3816 28.4218 34.099L34.1739 34.2472H34.1892ZM31.4739 20.0765C33.4491 20.0765 35.3018 20.5926 36.9096 21.4971L35.9194 23.0609C34.6026 22.3352 33.0868 21.9213 31.4739 21.9213C29.9478 21.9213 28.5085 22.2892 27.2377 22.9484L26.0076 21.5074C27.6205 20.5926 29.4834 20.0714 31.4688 20.0714L31.4739 20.0765ZM22.246 31.7534C22.4349 34.9217 24.2213 37.6608 26.8089 39.1786L25.9413 40.8189C22.8075 39.0099 20.6434 35.7138 20.4035 31.8965L22.246 31.7534ZM42.5698 30.8846C42.5698 30.9868 42.5698 31.0839 42.5698 31.1861C42.5698 35.5452 40.0587 39.3216 36.4043 41.1409L35.5928 39.4749C38.6296 37.9572 40.7171 34.8144 40.7171 31.1861C40.7171 31.1248 40.7171 31.0635 40.7171 31.0022L42.5647 30.8846H42.5698Z" stroke="#5A4499" stroke-width="1.46849" stroke-linecap="round" stroke-linejoin="round"/>
</svg>
