<svg width="62" height="72" viewBox="0 0 62 72" fill="none" xmlns="http://www.w3.org/2000/svg">
<path fill-rule="evenodd" clip-rule="evenodd" d="M60.8109 1C60.8109 12.6973 62.9239 31.6614 59.0296 42.2549C54.6198 56.257 44.3559 65.5167 31.0602 71H30.9377C17.642 65.5167 7.37805 56.257 2.96827 42.2549C-0.920906 31.6614 1.18701 12.6922 1.18701 1H60.8058H60.8109Z" fill="white" stroke="#5A4499" stroke-width="0.227512" stroke-miterlimit="22.93"/>
<path fill-rule="evenodd" clip-rule="evenodd" d="M60.8109 1C60.8109 12.6973 62.9239 31.6614 59.0296 42.2549C54.6198 56.257 44.3559 65.5167 31.0602 71H30.9377C17.642 65.5167 7.37805 56.257 2.96827 42.2549C-0.920906 31.6614 1.18701 12.6922 1.18701 1H60.8058H60.8109ZM58.6468 3.17185H3.35107C3.21326 13.9544 1.57491 32.2082 5.00984 41.5293L5.02513 41.5804C9.06232 54.4326 18.5709 63.4266 30.7795 68.5931H31.2133C43.4218 63.4317 52.9304 54.4326 56.9676 41.5804L56.983 41.5293C60.4179 32.2082 58.7795 13.9544 58.6417 3.17185H58.6468Z" fill="#5A4499"/>
<path fill-rule="evenodd" clip-rule="evenodd" d="M34.5053 29.8064C34.5053 27.8747 32.9384 26.3059 31.0092 26.3059C29.0799 26.3059 27.513 27.8747 27.513 29.8064C27.513 31.7381 29.0799 33.3069 31.0092 33.3069C32.9384 33.3069 34.5053 31.7381 34.5053 29.8064ZM39.9359 11.9308C46.4893 15.2167 50.9859 21.9775 50.9808 29.8115C50.9808 30.2152 50.9501 30.6087 50.9246 31.0073L36.9654 30.1692C36.9654 30.0466 37.0011 29.929 37.0011 29.8064C37.0011 27.4608 35.6435 25.4474 33.6785 24.4611L39.9359 11.9308ZM25.0172 29.8115C25.0172 29.9341 25.0478 30.0517 25.0478 30.1692L11.0886 31.0124C11.0631 30.6138 11.0273 30.2203 11.0273 29.8166C11.0273 21.9877 15.5341 15.2218 22.0773 11.941L28.3347 24.4764C26.3697 25.4576 25.0121 27.4659 25.0121 29.8166L25.0172 29.8115ZM31.0092 35.8109C29.7842 35.8109 28.6562 35.443 27.7069 34.8144L20 46.5015C23.1593 48.5916 26.9362 49.8181 31.0092 49.8181C35.0821 49.8181 38.8539 48.5967 42.0081 46.5015L34.3012 34.8144C33.357 35.443 32.229 35.8109 31.0092 35.8109Z" fill="#5A4499"/>
</svg>
