<svg width="62" height="72" viewBox="0 0 62 72" fill="none" xmlns="http://www.w3.org/2000/svg">
<path fill-rule="evenodd" clip-rule="evenodd" d="M61.0609 1C61.0609 12.6973 63.1739 31.6614 59.2796 42.2549C54.8698 56.257 44.6059 65.5167 31.3102 71H31.1877C17.892 65.5167 7.62805 56.257 3.21827 42.2549C-0.670906 31.6614 1.43701 12.6922 1.43701 1H61.0557H61.0609Z" fill="white" stroke="#5A4499" stroke-width="0.227512" stroke-miterlimit="22.93"/>
<path fill-rule="evenodd" clip-rule="evenodd" d="M61.0609 1C61.0609 12.6973 63.1739 31.6614 59.2796 42.2549C54.8698 56.257 44.6059 65.5167 31.3102 71H31.1877C17.892 65.5167 7.62805 56.257 3.21827 42.2549C-0.670906 31.6614 1.43701 12.6922 1.43701 1H61.0557H61.0609ZM58.8968 3.17185H3.60107C3.46326 13.9544 1.82491 32.2082 5.25984 41.5293L5.27516 41.5804C9.31236 54.4326 18.8209 63.4266 31.0295 68.5931H31.4633C43.6718 63.4317 53.1805 54.4326 57.2177 41.5804L57.2329 41.5293C60.6679 32.2082 59.0295 13.9544 58.8917 3.17185H58.8968Z" fill="#5A4499"/>
<path fill-rule="evenodd" clip-rule="evenodd" d="M32.8516 34.5283L29.9628 34.518L28.4469 32.1009L29.9015 29.5356L32.7904 29.5458L34.148 32.1213L32.8567 34.5283H32.8516ZM48.5461 22.279L46.7852 21.2263L41.9621 23.7814L41.9723 20.3269L40.6912 19.6013L39.4867 20.3218L39.4714 25.708L36.1742 27.3841L36.1844 23.6894L32.8873 25.5291L32.8975 22.0746L37.8841 19.6013V17.9149L36.1283 16.9439L32.9128 18.6201L32.9281 13.3974L31.3255 12.2681L29.7178 13.3872L29.7025 18.6099L26.9004 16.9133L25.5326 17.7922V19.6421L29.6923 22.0644L29.682 25.5189L26.3951 23.7405L26.3849 27.3586L23.3379 25.5802L23.4349 20.516L21.8322 19.545L20.6226 20.5058L20.6124 23.8019L15.9627 21.2161L14.0335 22.095V24.1851L18.5964 26.6892L15.6208 28.3653V30.2152L17.2999 31.0226L21.5618 28.5442L24.5271 30.2408L21.5515 32.0805L24.5935 33.8588H24.6751L21.6995 35.6167L17.3714 33.031L15.6004 33.9917V35.9182L18.6423 37.3747L13.9773 40.0115V42.1016L15.9729 42.9141L20.5562 40.3539L20.546 43.65L21.6689 44.5392L23.0367 43.5785L23.0521 38.596L26.3492 36.9198L26.339 40.5379L29.6361 38.5398L29.6259 41.9943L25.4458 44.391V46.2409L26.8034 47.1301L29.6157 45.4488L29.6004 50.6715L31.203 51.8008L32.8107 50.6817L32.8261 45.459L35.6281 47.1556L36.996 46.4351V44.4268L32.8363 42.0045L32.8465 38.55L36.1334 40.4101L36.1436 37.0374L39.4305 38.8157L39.4152 43.7982L40.6963 44.6874L41.9008 43.8084L41.911 40.5123L46.3973 43.0164L48.4899 42.1374V40.1291L44.172 37.4615L46.9077 35.9438V34.1756L45.3919 33.2047L40.9668 35.6014L37.8432 33.9866L40.9004 32.2286L38.0168 30.3685L40.9923 28.4471L45.397 31.0329L46.9231 30.2357V28.3857L44.0444 26.7709L48.5461 24.2158V22.2841V22.279Z" fill="#5A4499"/>
</svg>
