<svg width="61" height="72" viewBox="0 0 61 72" fill="none" xmlns="http://www.w3.org/2000/svg">
<path fill-rule="evenodd" clip-rule="evenodd" d="M60.3109 1C60.3109 12.6973 62.4239 31.6614 58.5296 42.2549C54.1198 56.257 43.8559 65.5167 30.5602 71H30.4377C17.142 65.5167 6.87805 56.257 2.46828 42.2549C-1.4209 31.6614 0.687009 12.6922 0.687009 1H60.3058H60.3109Z" fill="white" stroke="#5A4499" stroke-width="0.227512" stroke-miterlimit="22.93"/>
<path fill-rule="evenodd" clip-rule="evenodd" d="M60.3109 1C60.3109 12.6973 62.4239 31.6614 58.5296 42.2549C54.1198 56.257 43.8559 65.5167 30.5602 71H30.4377C17.142 65.5167 6.87805 56.257 2.46828 42.2549C-1.4209 31.6614 0.687009 12.6922 0.687009 1H60.3058H60.3109ZM58.1468 3.17185H2.85617C2.71837 13.9544 1.08001 32.2082 4.51494 41.5293L4.53026 41.5804C8.56745 54.4326 18.076 63.4266 30.2846 68.5931H30.7184C42.927 63.4317 52.4355 54.4326 56.4727 41.5804L56.4881 41.5293C59.923 32.2082 58.2846 13.9544 58.1468 3.17185Z" fill="#5A4499"/>
<path fill-rule="evenodd" clip-rule="evenodd" d="M10.8796 44.9378H20.6893C20.4545 44.8305 20.2606 44.7232 20.1126 44.6363L36.7871 26.449L37.5986 25.5649L37.6394 25.6007L37.6802 25.6365L42.4575 30.0313L43.2945 30.8029L43.4221 30.9204L45.0962 32.4586C37.8538 40.2824 32.2497 43.6602 28.1768 44.9378H41.993V46.3329H10.8745V44.9378H10.8796ZM49.9909 12.0483L38.2059 24.9006C38.2059 24.9006 40.6916 27.1849 43.4732 29.74L43.9376 29.2341L43.1669 26.3672L53.2829 15.0736C53.829 14.4808 53.7371 13.6632 53.0583 13.0397L52.2264 12.2783C51.4914 11.6037 50.4911 11.5015 49.9909 12.0432V12.0483ZM51.1801 14.256C51.4149 14.4706 51.4302 14.8385 51.2158 15.0736C51.0014 15.3087 50.634 15.324 50.3992 15.1094C50.1644 14.8947 50.1491 14.5268 50.3635 14.2917C50.5778 14.0567 50.9453 14.0413 51.1801 14.256Z" fill="#5A4499"/>
</svg>
