<svg width="62" height="72" viewBox="0 0 62 72" fill="none" xmlns="http://www.w3.org/2000/svg">
<path fill-rule="evenodd" clip-rule="evenodd" d="M60.5609 1C60.5609 12.6973 62.6739 31.6614 58.7796 42.2549C54.3699 56.257 44.1059 65.5167 30.8102 71H30.6877C17.392 65.5167 7.12805 56.257 2.71827 42.2549C-1.17091 31.6614 0.937013 12.6922 0.937013 1H60.5558H60.5609Z" fill="white" stroke="#5A4499" stroke-width="0.227512" stroke-miterlimit="22.93"/>
<path fill-rule="evenodd" clip-rule="evenodd" d="M60.5609 1C60.5609 12.6973 62.6739 31.6614 58.7796 42.2549C54.3699 56.257 44.1059 65.5167 30.8102 71H30.6877C17.392 65.5167 7.12805 56.257 2.71827 42.2549C-1.17091 31.6614 0.937013 12.6922 0.937013 1H60.5558H60.5609ZM58.3968 3.17185H3.10107C2.96326 13.9544 1.32491 32.2082 4.75984 41.5293L4.77516 41.5804C8.81236 54.4326 18.3209 63.4266 30.5295 68.5931H30.9633C43.1719 63.4317 52.6804 54.4326 56.7176 41.5804L56.733 41.5293C60.1679 32.2082 58.5295 13.9544 58.3917 3.17185H58.3968Z" fill="#5A4499"/>
<path fill-rule="evenodd" clip-rule="evenodd" d="M38.7621 14.721H22.7358C22.108 14.721 21.5925 15.232 21.5925 15.8657C21.5925 16.4994 22.108 17.0104 22.7358 17.0104H23.5269V41.5804C23.5269 45.5715 26.7628 48.8114 30.7489 48.8114C32.7446 48.8114 34.5513 48.004 35.8579 46.6907C37.1594 45.3875 37.971 43.5785 37.971 41.5804V17.0104H38.7621C39.3949 17.0104 39.9053 16.4943 39.9053 15.8657C39.9053 15.232 39.3949 14.721 38.7621 14.721ZM32.1474 28.9939C31.4431 29.7042 30.2947 29.7042 29.5955 28.9939C28.886 28.2836 28.886 27.1389 29.5955 26.4388C30.2998 25.7285 31.4431 25.7285 32.1525 26.4388C32.8569 27.1389 32.8569 28.2836 32.1525 28.9939H32.1474ZM29.1718 21.7527C29.6414 21.2826 30.4019 21.2826 30.8714 21.7527C31.341 22.2228 31.341 22.9843 30.8714 23.4544C30.4019 23.9246 29.6363 23.9246 29.1718 23.4544C28.7023 22.9843 28.7023 22.2228 29.1718 21.7527ZM32.4332 23.5975C32.7803 23.25 33.3417 23.2551 33.6888 23.5975C34.0358 23.945 34.0358 24.5071 33.6888 24.8546C33.3417 25.2021 32.7803 25.2021 32.4332 24.8546C32.0862 24.5122 32.0862 23.9501 32.4332 23.5975ZM35.5619 30.3941L25.9309 30.4401V17.0155H35.5619V30.3941Z" fill="#5A4499"/>
</svg>
