<svg width="62" height="72" viewBox="0 0 62 72" fill="none" xmlns="http://www.w3.org/2000/svg">
<path fill-rule="evenodd" clip-rule="evenodd" d="M60.8109 1C60.8109 12.6973 62.9239 31.6614 59.0296 42.2549C54.6198 56.257 44.3559 65.5167 31.0602 71H30.9377C17.642 65.5167 7.37807 56.257 2.96829 42.2549C-0.920892 31.6614 1.187 12.6922 1.187 1H60.8058H60.8109Z" fill="white" stroke="#5A4499" stroke-width="0.227512" stroke-miterlimit="22.93"/>
<path fill-rule="evenodd" clip-rule="evenodd" d="M60.8109 1C60.8109 12.6973 62.9239 31.6614 59.0296 42.2549C54.6198 56.257 44.3559 65.5167 31.0602 71H30.9377C17.642 65.5167 7.37807 56.257 2.96829 42.2549C-0.920892 31.6614 1.187 12.6922 1.187 1H60.8058H60.8109ZM58.6468 3.17185H3.35108C3.21327 13.9544 1.57492 32.2082 5.00985 41.5293L5.02515 41.5804C9.06234 54.4326 18.5709 63.4266 30.7795 68.5931H31.2133C43.4219 63.4317 52.9304 54.4326 56.9676 41.5804L56.9829 41.5293C60.4179 32.2082 58.7795 13.9544 58.6417 3.17185H58.6468Z" fill="#5A4499"/>
<path fill-rule="evenodd" clip-rule="evenodd" d="M52.0323 22.0542C51.9966 22.0542 51.966 22.0542 51.9354 22.0644L30.601 23.6128L30.5755 22.5448C30.5602 21.9622 30.0804 21.5023 29.4986 21.5176H29.371C29.616 19.6422 30.3203 17.0973 32.1067 14.2253C32.2189 14.0465 32.27 13.8421 32.2649 13.6428C32.2496 13.0602 31.7698 12.6003 31.188 12.6156C31.1624 12.6156 31.142 12.6156 31.1165 12.6156C28.0746 12.7076 25.6655 13.9851 23.9557 16.4074C22.7563 18.1091 22.1234 20.1072 21.7968 21.7016H21.516C20.9342 21.722 20.4748 22.2075 20.4902 22.785L20.7096 31.549C20.1278 31.5644 19.6736 32.0447 19.6838 32.6273L19.8573 39.5363C19.8726 40.1189 20.3523 40.5788 20.9342 40.5635L31.0195 40.3131C31.6014 40.2978 32.0607 39.8174 32.0454 39.2348L31.8719 32.3258C31.8566 31.7432 31.3768 31.2833 30.795 31.2986L30.7439 29.3414L52.1906 29.8269C52.4151 29.8269 52.6295 29.7451 52.7877 29.5867C52.9459 29.4283 53.0327 29.2137 53.0276 28.9888L52.8745 22.8361C52.8643 22.3813 52.4917 22.0287 52.0425 22.0389L52.0323 22.0542Z" fill="#5A4499"/>
<path d="M42.8858 43.4354H13.7068V47.6463H42.8858V43.4354Z" fill="#5A4499" stroke="black" stroke-width="0.589463" stroke-miterlimit="22.93"/>
</svg>
