<svg width="62" height="72" viewBox="0 0 62 72" fill="none" xmlns="http://www.w3.org/2000/svg">
<path fill-rule="evenodd" clip-rule="evenodd" d="M61.0609 1C61.0609 12.6973 63.1739 31.6614 59.2797 42.2549C54.8699 56.257 44.6059 65.5167 31.3102 71H31.1877C17.892 65.5167 7.62805 56.257 3.21827 42.2549C-0.670906 31.6614 1.43701 12.6922 1.43701 1H61.0558H61.0609Z" fill="white" stroke="#5A4499" stroke-width="0.227512" stroke-miterlimit="22.93"/>
<path fill-rule="evenodd" clip-rule="evenodd" d="M61.0609 1C61.0609 12.6973 63.1739 31.6614 59.2797 42.2549C54.8699 56.257 44.6059 65.5167 31.3102 71H31.1877C17.892 65.5167 7.62805 56.257 3.21827 42.2549C-0.670906 31.6614 1.43701 12.6922 1.43701 1H61.0558H61.0609ZM58.8969 3.17185H3.60107C3.46326 13.9544 1.82491 32.2082 5.25984 41.5293L5.27516 41.5804C9.31236 54.4326 18.8209 63.4266 31.0295 68.5931H31.4634C43.6719 63.4317 53.1805 54.4326 57.2177 41.5804L57.233 41.5293C60.6679 32.2082 59.0296 13.9544 58.8918 3.17185H58.8969Z" fill="#5A4499"/>
<path d="M43.0238 32.8214C44.0701 33.4653 44.9123 34.3085 45.5452 35.3612C46.1781 36.4088 46.4945 37.671 46.4945 39.1428C46.4945 42.26 44.9685 44.8202 41.9214 46.8132C38.8744 48.8113 34.9903 49.8078 30.2692 49.8078C26.2218 49.8078 23.0165 49.0311 20.6585 47.4827C18.3005 45.9343 17.1165 43.9719 17.1165 41.5906C17.1165 40.543 17.5145 39.5976 18.3108 38.7646C19.107 37.9265 20.0869 37.5075 21.2404 37.5075C22.598 37.5075 23.6749 37.855 24.466 38.55C25.2571 39.245 25.6502 40.1801 25.6502 41.3555C25.6502 42.2498 25.497 43.1287 25.1908 43.9975C24.8846 44.8662 24.6498 45.5408 24.4763 46.0263C25.0224 46.4197 25.6348 46.7672 26.3188 47.0687C27.0027 47.3702 27.9775 47.5287 29.2586 47.5287C31.7442 47.5287 33.699 46.7979 35.1179 45.3415C36.5419 43.8851 37.2514 41.8767 37.2514 39.3216C37.2514 38.5244 37.1646 37.7119 36.9962 36.8891C36.8226 36.0664 36.4959 35.3561 36.0111 34.7633C35.5415 34.1654 34.8423 33.6799 33.9134 33.2915C32.9845 32.9083 31.831 32.7141 30.453 32.7141H27.2885V29.8983H29.5904C31.9229 29.8983 33.5816 29.3209 34.5616 28.1609C35.5415 27.0008 36.0315 25.1816 36.0315 22.6929C36.0315 21.911 35.9243 21.165 35.7151 20.4649C35.5058 19.7647 35.1843 19.1515 34.7658 18.6354C34.3268 18.1193 33.7858 17.7104 33.1325 17.4038C32.4843 17.0972 31.7187 16.9439 30.8408 16.9439C28.8044 16.9439 26.9925 17.8433 25.395 19.6472C23.7975 21.4511 22.5164 24.0522 21.5466 27.4557H19.4846L19.6939 15.5795H21.8018L23.1849 16.8724C24.4048 16.2796 25.7879 15.7634 27.3344 15.324C28.8809 14.8845 30.6469 14.6647 32.6323 14.6647C36.5062 14.6647 39.5583 15.3802 41.7734 16.811C43.9885 18.2419 45.1012 20.1429 45.1012 22.5038C45.1012 23.2704 44.9583 24.0778 44.6673 24.921C44.3764 25.7642 43.8966 26.5307 43.2229 27.2206C42.5492 27.9411 41.6458 28.6055 40.5025 29.2136C39.3593 29.8217 37.8996 30.3225 36.1183 30.716V31.0226C37.2463 31.0379 38.4201 31.181 39.6451 31.457C40.87 31.7329 41.9929 32.1826 43.0086 32.8061L43.0238 32.8214Z" fill="#5A4499"/>
</svg>
