<svg width="61" height="72" viewBox="0 0 61 72" fill="none" xmlns="http://www.w3.org/2000/svg">
<path fill-rule="evenodd" clip-rule="evenodd" d="M60.3109 1C60.3109 12.6973 62.4239 31.6614 58.5296 42.2549C54.1198 56.257 43.8559 65.5167 30.5602 71H30.4377C17.142 65.5167 6.87806 56.257 2.46828 42.2549C-1.4209 31.6614 0.687005 12.6922 0.687005 1H60.3058H60.3109Z" fill="white" stroke="#5A4499" stroke-width="0.227512" stroke-miterlimit="22.93"/>
<path fill-rule="evenodd" clip-rule="evenodd" d="M60.3109 1C60.3109 12.6973 62.4239 31.6614 58.5296 42.2549C54.1198 56.257 43.8559 65.5167 30.5602 71H30.4377C17.142 65.5167 6.87806 56.257 2.46828 42.2549C-1.4209 31.6614 0.687005 12.6922 0.687005 1H60.3058H60.3109ZM58.1468 3.17185H2.85107C2.71327 13.9544 1.07491 32.2082 4.50984 41.5293L4.52516 41.5804C8.56235 54.4326 18.0709 63.4266 30.2795 68.5931H30.7133C42.9219 63.4317 52.4304 54.4326 56.4676 41.5804L56.4829 41.5293C59.9179 32.2082 58.2795 13.9544 58.1417 3.17185H58.1468Z" fill="#5A4499"/>
<path fill-rule="evenodd" clip-rule="evenodd" d="M27.4364 8.74708V25.2123H34.1837V24.5632L31.8206 23.066L31.6522 8.75218C31.6522 7.99075 31.0704 7.47974 30.2027 7.47974H29.1411C28.202 7.47974 27.4364 8.04698 27.4364 8.74708ZM29.6668 9.52383C29.9679 9.52383 30.2129 9.76913 30.2129 10.0706C30.2129 10.3721 29.9679 10.6174 29.6668 10.6174C29.3656 10.6174 29.1207 10.3721 29.1207 10.0706C29.1207 9.76913 29.3656 9.52383 29.6668 9.52383ZM34.735 26.0605H27.4364V50.4926C29.3299 50.1144 36.945 47.2731 37.0419 26.0605H34.735ZM20.6431 50.8707H43.8352V52.8689H20.6431V50.8707Z" fill="#5A4499"/>
</svg>
