<svg width="62" height="72" viewBox="0 0 62 72" fill="none" xmlns="http://www.w3.org/2000/svg">
<path fill-rule="evenodd" clip-rule="evenodd" d="M60.5609 1C60.5609 12.6973 62.6739 31.6614 58.7796 42.2549C54.3699 56.257 44.1059 65.5167 30.8102 71H30.6877C17.392 65.5167 7.12805 56.257 2.71827 42.2549C-1.17091 31.6614 0.937013 12.6922 0.937013 1H60.5558H60.5609Z" fill="white" stroke="#5A4499" stroke-width="0.227512" stroke-miterlimit="22.93"/>
<path fill-rule="evenodd" clip-rule="evenodd" d="M60.5609 1C60.5609 12.6973 62.6739 31.6614 58.7796 42.2549C54.3699 56.257 44.1059 65.5167 30.8102 71H30.6877C17.392 65.5167 7.12805 56.257 2.71827 42.2549C-1.17091 31.6614 0.937013 12.6922 0.937013 1H60.5558H60.5609ZM58.3968 3.17185H3.10107C2.96326 13.9544 1.32491 32.2082 4.75984 41.5293L4.77513 41.5804C8.81232 54.4326 18.3209 63.4266 30.5295 68.5931H30.9633C43.1719 63.4317 52.6804 54.4326 56.7176 41.5804L56.733 41.5293C60.1679 32.2082 58.5295 13.9544 58.3917 3.17185H58.3968Z" fill="#5A4499"/>
<path fill-rule="evenodd" clip-rule="evenodd" d="M35.1282 7.59223C35.1282 8.1288 34.6944 8.56317 34.1585 8.56317C33.6226 8.56317 33.1887 8.1288 33.1887 7.59223C33.1887 7.05565 33.6226 6.62128 34.1585 6.62128C34.6944 6.62128 35.1282 7.05565 35.1282 7.59223ZM31.2799 20.2605C30.2744 20.2605 29.4578 19.4429 29.4578 18.4361C29.4578 17.4294 30.2744 16.6118 31.2799 16.6118C32.2854 16.6118 33.102 17.4294 33.102 18.4361C33.102 19.4429 32.2854 20.2605 31.2799 20.2605ZM31.581 9.01287C31.581 10.04 30.7491 10.873 29.7232 10.873C28.6973 10.873 27.8654 10.04 27.8654 9.01287C27.8654 7.98571 28.6973 7.15275 29.7232 7.15275C30.7491 7.15275 31.581 7.98571 31.581 9.01287ZM35.1027 11.66C35.1027 10.5613 34.2146 9.6721 33.1173 9.6721C32.0199 9.6721 31.1319 10.5613 31.1319 11.66C31.1319 12.7587 32.0199 13.6479 33.1173 13.6479C34.2146 13.6479 35.1027 12.7587 35.1027 11.66ZM30.846 22.3353C30.846 22.8769 30.4071 23.3113 29.8712 23.3113C29.3353 23.3113 28.8963 22.8718 28.8963 22.3353C28.8963 21.7987 29.3353 21.3592 29.8712 21.3592C30.4071 21.3592 30.846 21.7987 30.846 22.3353ZM27.5336 27.2206C29.9478 27.2053 31.877 26.9702 33.6889 26.8374C32.8417 25.5394 34.6944 28.2785 33.9543 27.2206L33.6889 26.8374V16.0599H27.799V26.8374L27.5336 27.2206C28.4268 25.8511 26.7578 28.3347 27.5336 27.2206ZM35.164 26.3775V16.0599H36.6339V14.583H24.854V16.0599H26.3291V26.3775C26.3291 26.3775 16.0243 41.1205 16.0243 45.5408C16.0243 49.9612 20.4392 49.9612 20.4392 49.9612H41.0487C41.0487 49.9612 45.4636 49.9612 45.4636 45.5408C45.4636 41.1205 35.1537 26.3775 35.1537 26.3775H35.164Z" fill="#5A4499"/>
</svg>
