<svg width="62" height="72" viewBox="0 0 62 72" fill="none" xmlns="http://www.w3.org/2000/svg">
<path fill-rule="evenodd" clip-rule="evenodd" d="M60.8109 1C60.8109 12.6973 62.9239 31.6614 59.0296 42.2549C54.6198 56.257 44.3559 65.5167 31.0602 71H30.9377C17.642 65.5167 7.37808 56.257 2.9683 42.2549C-0.920877 31.6614 1.18698 12.6922 1.18698 1H60.8058H60.8109Z" fill="white" stroke="#5A4499" stroke-width="0.227512" stroke-miterlimit="22.93"/>
<path fill-rule="evenodd" clip-rule="evenodd" d="M60.8109 1C60.8109 12.6973 62.9239 31.6614 59.0296 42.2549C54.6198 56.257 44.3559 65.5167 31.0602 71H30.9377C17.642 65.5167 7.37808 56.257 2.9683 42.2549C-0.920877 31.6614 1.18698 12.6922 1.18698 1H60.8058H60.8109ZM58.6468 3.17185H3.3511C3.21329 13.9544 1.57493 32.2082 5.00987 41.5293L5.02513 41.5804C9.06232 54.4326 18.5709 63.4266 30.7795 68.5931H31.2133C43.4219 63.4317 52.9304 54.4326 56.9676 41.5804L56.983 41.5293C60.4179 32.2082 58.7795 13.9544 58.6417 3.17185H58.6468Z" fill="#5A4499"/>
<path fill-rule="evenodd" clip-rule="evenodd" d="M50.8784 17.0513V14.3275L50.4854 14.1742C50.3476 14.1231 47.1526 12.8762 42.8908 12.8762C38.3228 12.8762 34.3928 14.2713 31.1875 17.0155C27.9874 14.2662 24.0523 12.8762 19.4843 12.8762C15.2225 12.8762 12.0224 14.118 11.8897 14.1742L11.4966 14.3275V16.852C10.2054 17.0922 9.40405 17.5265 9.40405 18.2318V44.2224H28.5233C29.1868 44.8152 30.1515 45.1882 31.2335 45.1882C32.3155 45.1882 33.2801 44.8152 33.9436 44.2224H52.5831V18.2318C52.5831 17.6594 51.9298 17.2813 50.8733 17.0513H50.8784ZM30.9833 42.1732C29.396 41.514 23.9298 39.4341 18.4533 39.4341C16.2892 39.4341 14.3701 39.7663 12.742 40.4255V15.186C13.6913 14.8692 16.2892 14.118 19.4894 14.118C23.695 14.118 27.3086 15.3905 30.2586 17.874V32.939L30.9833 32.1367V42.1732ZM49.6381 40.4306C47.8875 39.7254 45.8715 39.3677 43.6411 39.3677C38.1697 39.3677 32.9586 41.468 31.3917 42.1579V32.1316L32.1216 32.939V17.874C35.0716 15.3905 38.6852 14.118 42.8908 14.118C46.0756 14.118 48.6837 14.8692 49.6381 15.186V40.4306Z" fill="#5A4499"/>
<path fill-rule="evenodd" clip-rule="evenodd" d="M15.1973 18.5076L15.4525 19.4786C21.9089 17.7616 27.7172 20.9401 27.7784 20.9708L28.2633 20.0918C28.0132 19.9538 22.0518 16.6884 15.1973 18.5076Z" fill="#5A4499"/>
<path fill-rule="evenodd" clip-rule="evenodd" d="M15.1973 21.354L15.4525 22.325C21.9089 20.6079 27.7172 23.7814 27.7784 23.812L28.2633 22.9331C28.0132 22.79 22.0518 19.5297 15.1973 21.3489V21.354Z" fill="#5A4499"/>
<path fill-rule="evenodd" clip-rule="evenodd" d="M15.1973 24.0267L15.4525 24.9976C21.9089 23.2857 27.7172 26.4592 27.7784 26.4898L28.2633 25.6109C28.0132 25.4729 22.0518 22.2074 15.1973 24.0267Z" fill="#5A4499"/>
<path fill-rule="evenodd" clip-rule="evenodd" d="M15.1973 26.9549L15.4525 27.9259C21.9089 26.2088 27.7172 29.3874 27.7784 29.418L28.2633 28.5391C28.0132 28.396 22.0518 25.1305 15.1973 26.9549Z" fill="#5A4499"/>
<path fill-rule="evenodd" clip-rule="evenodd" d="M15.1973 29.6684L15.4525 30.6393C21.9089 28.9274 27.7172 32.1008 27.7784 32.1315L28.2633 31.2525C28.0132 31.1146 22.0518 27.8491 15.1973 29.6684Z" fill="#5A4499"/>
<path fill-rule="evenodd" clip-rule="evenodd" d="M15.1973 32.4535L15.4525 33.4245C21.9089 31.7074 27.7172 34.8809 27.7784 34.9116L28.2633 34.0326C28.0132 33.8946 22.0518 30.6343 15.1973 32.4484V32.4535Z" fill="#5A4499"/>
<path fill-rule="evenodd" clip-rule="evenodd" d="M15.1973 35.2539L15.4525 36.2248C21.9089 34.5078 27.7172 37.6863 27.7784 37.717L28.2633 36.8431C28.0132 36.7001 22.0518 33.4346 15.1973 35.259V35.2539Z" fill="#5A4499"/>
<path fill-rule="evenodd" clip-rule="evenodd" d="M34.9033 21.0474C34.9646 21.0168 40.7677 17.8433 47.2241 19.5552L47.4845 18.5843C40.6299 16.7651 34.6634 20.0305 34.4185 20.1685L34.9033 21.0474Z" fill="#5A4499"/>
<path fill-rule="evenodd" clip-rule="evenodd" d="M34.4133 23.0149L34.8982 23.8938C34.9594 23.8632 40.7626 20.6897 47.219 22.4067L47.4793 21.4358C40.6248 19.6166 34.6583 22.882 34.4133 23.02V23.0149Z" fill="#5A4499"/>
<path fill-rule="evenodd" clip-rule="evenodd" d="M34.4133 25.6824L34.8982 26.5614C34.9594 26.5307 40.7626 23.3573 47.219 25.0692L47.4793 24.0983C40.6248 22.2841 34.6583 25.5445 34.4133 25.6824Z" fill="#5A4499"/>
<path fill-rule="evenodd" clip-rule="evenodd" d="M34.4133 28.6157L34.8982 29.4947C34.9594 29.464 40.7626 26.2906 47.219 28.0076L47.4793 27.0367C40.6248 25.2174 34.6583 28.4777 34.4133 28.6208V28.6157Z" fill="#5A4499"/>
<path fill-rule="evenodd" clip-rule="evenodd" d="M34.4133 31.3292L34.8982 32.2081C34.9594 32.1775 40.7626 29.004 47.219 30.716L47.4793 29.745C40.6248 27.9258 34.6583 31.1912 34.4133 31.3292Z" fill="#5A4499"/>
<path fill-rule="evenodd" clip-rule="evenodd" d="M34.4133 34.1144L34.8982 34.9933C34.9594 34.9627 40.7626 31.7892 47.219 33.5062L47.4793 32.5353C40.6248 30.7161 34.6583 33.9815 34.4133 34.1195V34.1144Z" fill="#5A4499"/>
<path fill-rule="evenodd" clip-rule="evenodd" d="M34.4133 36.9096L34.8982 37.7835C34.9594 37.7528 40.7626 34.5794 47.219 36.2964L47.4793 35.3255C40.6248 33.5062 34.6583 36.7717 34.4133 36.9096Z" fill="#5A4499"/>
</svg>
