<svg width="71" height="70" viewBox="0 0 71 70" fill="none" xmlns="http://www.w3.org/2000/svg">
<path d="M33.4667 17.1388L19.7432 49.6955H25.4947L28.8744 41.3936H42.7406L46.1291 49.6955H52.2018L38.4782 17.1388H33.4667ZM31.0591 36.0611L35.8387 24.5133L40.5648 36.0611H31.0591Z" fill="#5A4499"/>
<path d="M35.5 0C16.2032 0 0.5 15.7032 0.5 35C0.5 54.2969 16.2032 70.0001 35.5 70.0001C54.7969 70.0001 70.5 54.2969 70.5 35C70.5 15.7032 54.7969 0 35.5 0ZM35.5 64.6497C19.1548 64.6497 5.85032 51.3453 5.85032 35C5.85032 18.6548 19.1548 5.35032 35.5 5.35032C51.8453 5.35032 65.1497 18.6548 65.1497 35C65.1497 51.3453 51.8453 64.6497 35.5 64.6497Z" fill="#5A4499"/>
</svg>
