<svg width="71" height="70" viewBox="0 0 71 70" fill="none" xmlns="http://www.w3.org/2000/svg">
<path d="M35.8335 0C16.5367 0 0.833496 15.7032 0.833496 35C0.833496 54.2969 16.5367 70.0001 35.8335 70.0001C55.1304 70.0001 70.8335 54.2969 70.8335 35C70.8335 15.7032 55.1304 0 35.8335 0ZM35.8335 64.6497C19.4883 64.6497 6.18382 51.3453 6.18382 35C6.18382 18.6548 19.4883 5.35032 35.8335 5.35032C52.1788 5.35032 65.4832 18.6548 65.4832 35C65.4832 51.3453 52.1788 64.6497 35.8335 64.6497Z" fill="#5A4499"/>
<path d="M36.3684 19.4307C34.0946 19.4307 28.9494 19.5198 27.1392 19.5198V51.9785H32.8462V40.2434C34.2373 40.3861 36.092 40.3861 37.064 40.3861C44.8041 40.3861 48.9328 35.3746 48.9328 29.8638C48.9328 24.353 45.9188 19.4307 36.3684 19.4307ZM36.8767 35.0536C35.5748 35.0536 34.1838 34.9644 32.8462 34.8218V24.8523C34.38 24.8077 35.771 24.7632 36.9302 24.7632C40.8271 24.7632 42.9137 26.4307 42.9137 29.8192C42.9137 33.4396 40.2742 35.0625 36.8857 35.0625L36.8767 35.0536Z" fill="#5A4499"/>
</svg>
