<svg width="71" height="71" viewBox="0 0 71 71" fill="none" xmlns="http://www.w3.org/2000/svg">
<path d="M35.1665 4C18.6264 4 5.1665 17.4599 5.1665 34C5.1665 50.5401 18.6264 64 35.1665 64C51.7066 64 65.1665 50.5401 65.1665 34C65.1665 17.4599 51.7066 4 35.1665 4ZM35.1665 59.414C21.1563 59.414 9.75249 48.0102 9.75249 34C9.75249 19.9898 21.1563 8.58599 35.1665 8.58599C49.1767 8.58599 60.5805 19.9898 60.5805 34C60.5805 48.0102 49.1767 59.414 35.1665 59.414Z" fill="#5A4499"/>
<path d="M35.6252 20.6548C33.6761 20.6548 29.2659 20.7312 27.7144 20.7312V48.5529H32.6061V38.4943C33.7985 38.6166 35.3882 38.6166 36.2214 38.6166C42.8558 38.6166 46.3946 34.321 46.3946 29.5975C46.3946 24.8739 43.8112 20.6548 35.6252 20.6548ZM36.0608 34.0459C34.9449 34.0459 33.7526 33.9694 32.6061 33.8471V25.3019C33.9207 25.2637 35.1131 25.2255 36.1067 25.2255C39.4468 25.2255 41.2354 26.6548 41.2354 29.5592C41.2354 32.6624 38.9729 34.0535 36.0685 34.0535L36.0608 34.0459Z" fill="#5A4499"/>
<line x1="63.5854" y1="68.5" x2="6.74756" y2="68.5" stroke="#5A4499" stroke-width="5"/>
</svg>
