<svg width="71" height="70" viewBox="0 0 71 70" fill="none" xmlns="http://www.w3.org/2000/svg">
<path d="M27.0288 52.2459H32.7358V39.6369H44.1944V34.3045H32.7358V25.1198H45.5855V19.7872H27.0288V52.2459Z" fill="#5A4499"/>
<path d="M35.5 0C16.2032 0 0.5 15.7032 0.5 35C0.5 54.2969 16.2032 70.0001 35.5 70.0001C54.7969 70.0001 70.5 54.2969 70.5 35C70.5 15.7032 54.7969 0 35.5 0ZM35.5 64.6497C19.1548 64.6497 5.85032 51.3453 5.85032 35C5.85032 18.6548 19.1548 5.35032 35.5 5.35032C51.8453 5.35032 65.1497 18.6548 65.1497 35C65.1497 51.3453 51.8453 64.6497 35.5 64.6497Z" fill="#5A4499"/>
</svg>
