<svg width="71" height="73" viewBox="0 0 71 73" fill="none" xmlns="http://www.w3.org/2000/svg">
<path d="M28.5718 47.2821H33.4635V36.4745H43.2852V31.9038H33.4635V24.0312H44.4775V19.4604H28.5718V47.2821Z" fill="#5A4499"/>
<path d="M35.833 2.5C19.2929 2.5 5.83301 15.9599 5.83301 32.5C5.83301 49.0401 19.2929 62.5 35.833 62.5C52.3731 62.5 65.833 49.0401 65.833 32.5C65.833 15.9599 52.3731 2.5 35.833 2.5ZM35.833 57.914C21.8228 57.914 10.419 46.5102 10.419 32.5C10.419 18.4898 21.8228 7.08599 35.833 7.08599C49.8432 7.08599 61.247 18.4898 61.247 32.5C61.247 46.5102 49.8432 57.914 35.833 57.914Z" fill="#5A4499"/>
<line x1="64.252" y1="70" x2="7.41406" y2="70" stroke="#5A4499" stroke-width="5"/>
</svg>
