<svg width="71" height="70" viewBox="0 0 71 70" fill="none" xmlns="http://www.w3.org/2000/svg">
<path d="M35.1665 0C15.8697 0 0.166504 15.7032 0.166504 35C0.166504 54.2969 15.8697 70.0001 35.1665 70.0001C54.4634 70.0001 70.1665 54.2969 70.1665 35C70.1665 15.7032 54.4634 0 35.1665 0ZM35.1665 64.6497C18.8213 64.6497 5.51683 51.3453 5.51683 35C5.51683 18.6548 18.8213 5.35032 35.1665 5.35032C51.5118 5.35032 64.8162 18.6548 64.8162 35C64.8162 51.3453 51.5118 64.6497 35.1665 64.6497Z" fill="#5A4499"/>
<path d="M58.8965 23L48.3665 54.5H43.6415L35.0465 29.345L26.4515 54.5H21.6365L11.1065 23H15.7415L24.2465 48.605L33.1115 23H37.2515L45.9365 48.74L54.6215 23H58.8965Z" fill="#5A4499"/>
</svg>
