<svg width="71" height="70" viewBox="0 0 71 70" fill="none" xmlns="http://www.w3.org/2000/svg">
<path d="M35.3069 58.1926C30.4714 58.1926 25.9716 56.7355 22.2146 54.2499L19.1362 57.3283C23.7074 60.571 29.2857 62.4781 35.3069 62.4781C41.328 62.4781 47.0848 60.4996 51.6989 57.164L48.6276 54.0928C44.8278 56.6784 40.2423 58.1926 35.3069 58.1926Z" fill="#5A4499"/>
<path d="M55.6776 53.6642C60.4202 48.643 63.3415 41.8791 63.3415 34.4437C63.3415 28.4226 61.4273 22.8444 58.1917 18.2732L55.1133 21.3516C57.606 25.1085 59.056 29.6083 59.056 34.4437C59.056 40.7006 56.6204 46.3932 52.6492 50.6358L37.0142 35.0009L70.1839 1.83112C70.6053 1.40971 70.6053 0.731175 70.1839 0.31691C69.7625 -0.0973548 69.084 -0.104497 68.6697 0.31691L54.7276 14.2591C49.685 9.40218 42.8425 6.40944 35.3072 6.40944C27.7718 6.40944 21.1079 9.33075 16.0867 14.0734L2.33026 0.31691C1.90885 -0.104497 1.23032 -0.104497 0.816056 0.31691C0.401791 0.738317 0.394648 1.41685 0.816056 1.83112L33.9858 35.0009L18.1509 50.8358C14.0725 46.5717 11.5584 40.8006 11.5584 34.4437C11.5584 29.5083 13.0726 24.9228 15.6581 21.1159L12.5869 18.0446C9.25133 22.6586 7.27286 28.3226 7.27286 34.4437C7.27286 41.9791 10.2656 48.8216 15.1225 53.8642L0.816056 68.1706C0.394648 68.592 0.394648 69.2706 0.816056 69.6848C1.02319 69.892 1.30174 69.9991 1.57316 69.9991C1.84457 69.9991 2.12313 69.892 2.33026 69.6848L35.5 36.5151L68.6697 69.6848C68.8769 69.892 69.1555 69.9991 69.4269 69.9991C69.6983 69.9991 69.9768 69.892 70.1839 69.6848C70.6053 69.2634 70.6053 68.5849 70.1839 68.1706L55.6776 53.6642ZM19.108 17.0946C23.3578 13.1234 29.0432 10.6878 35.3 10.6878C41.5568 10.6878 47.428 13.202 51.692 17.2803L35.4929 33.4795L19.108 17.0946Z" fill="#5A4499"/>
</svg>
