<svg width="46" height="46" viewBox="0 0 46 46" fill="none" xmlns="http://www.w3.org/2000/svg">
<path d="M44.4403 13.7904C43.7298 13.6465 43.0411 14.0999 42.8972 14.806C42.8798 14.8888 42.1213 18.5678 41.2452 22.8265C39.3054 22.5258 38.0675 21.2835 37.4136 20.4073C37.1957 21.4055 36.9777 22.4473 36.7554 23.5022C37.7798 24.374 39.1005 25.115 40.7177 25.394C39.7195 30.2412 38.7257 35.0709 38.5905 35.7509C37.9018 39.1466 36.8339 40.354 32.2046 40.354H13.7705C9.14123 40.354 8.07328 39.1466 7.38456 35.7509C7.24508 35.0709 6.25558 30.2499 5.25738 25.4027C7.60251 25.0104 9.07585 23.6678 10.0261 22.4342C11.1987 23.8378 13.2736 25.5204 16.4861 25.5204C17.3666 25.5204 18.1513 25.3809 18.8574 25.1499L15.5054 31.9107C14.5638 33.5366 17.0441 35.145 18.0684 33.3884L22.8938 24.3958L23.5738 24.5745L19.8164 35.2191C19.1407 36.9148 21.6733 37.7604 22.2966 36.2479L26.5162 25.3548L27.1874 25.5335L24.4195 36.4484C24.0184 37.9478 26.4987 38.7673 27 37.1894L30.1167 26.3094L30.7618 26.4794L29.6285 33.9507C29.3626 35.6637 31.9213 36.1258 32.27 34.4345C32.27 34.4345 35.7354 16.9158 36.9777 12.4042C36.2541 9.65369 31.311 7.30421 27.8239 7.40446C26.9433 8.86036 26.1021 9.7888 24.4587 11.5498C22.2574 13.9037 18.1425 16.4929 13.4654 17.9358C13.9971 19.9932 14.7861 20.7168 17.3884 20.5381C18.8182 20.4422 20.5705 19.7622 21.7692 19.287L21.5338 19.7622C21.5338 19.7622 21.5208 19.7796 21.5164 19.784C20.5749 21.0263 19.1538 22.905 16.4905 22.905C12.8507 22.905 11.2728 19.6445 11.2074 19.5093C11.0025 19.0734 10.5753 18.7858 10.0915 18.7596C9.60765 18.7335 9.15431 18.9776 8.90585 19.3873L8.79251 19.5747C8.082 20.7604 7.0402 22.4865 4.73866 22.8353C3.8625 18.5765 3.10404 14.8932 3.0866 14.8104C2.94276 14.1042 2.24968 13.6465 1.54353 13.7947C0.83737 13.9386 0.379675 14.6316 0.527881 15.3378C0.567112 15.5339 4.55122 34.8661 4.83455 36.274C5.82404 41.1561 8.252 42.9694 13.7835 42.9694H32.2177C37.7493 42.9694 40.1729 41.1561 41.1667 36.274C41.45 34.8661 45.4341 15.5339 45.4734 15.3378C45.6172 14.6316 45.1639 13.9386 44.4577 13.7947L44.4403 13.7904Z" fill="#5A4499"/>
<path d="M37.8762 11.2232C39.2885 10.0027 39.6503 9.20066 38.4952 7.62271C36.7603 5.25142 33.3821 3.76936 30.3308 3.66038C28.5785 3.595 28.0118 4.74142 27.9072 5.98373C31.1721 5.82681 36.4988 7.73166 37.8762 11.2232Z" fill="#5A4499"/>
</svg>
