<svg width="46" height="46" viewBox="0 0 46 46" fill="none" xmlns="http://www.w3.org/2000/svg">
<path d="M23.6401 37.0938C24.113 36.6209 24.113 35.8587 23.6401 35.3903C23.1671 34.9174 22.4049 34.9174 21.9366 35.3903C19.2321 38.0948 20.954 40.0371 21.8769 41.0839C22.809 42.1354 23.0018 42.3512 21.932 43.4211C21.4636 43.894 21.4636 44.6562 21.932 45.1245C22.1662 45.3587 22.4738 45.4781 22.786 45.4781C23.0983 45.4781 23.4013 45.3587 23.6401 45.1245C26.3124 42.4476 24.5997 40.5192 23.6814 39.4815C22.7585 38.4437 22.5381 38.1958 23.6401 37.0938Z" fill="#5A4499"/>
<path d="M16.8722 37.0938C17.3451 36.6209 17.3451 35.8587 16.8722 35.3903C16.4039 34.9174 15.6371 34.9174 15.1687 35.3903C12.4643 38.0948 14.1861 40.0371 15.1136 41.0839C16.0457 42.1354 16.2386 42.3512 15.1687 43.4211C14.6958 43.894 14.6958 44.6562 15.1687 45.1245C15.4029 45.3587 15.7105 45.4781 16.0227 45.4781C16.335 45.4781 16.638 45.3587 16.8768 45.1245C19.5491 42.4476 17.8364 40.5192 16.9181 39.4815C15.9952 38.4437 15.7748 38.1958 16.8768 37.0938H16.8722Z" fill="#5A4499"/>
<path d="M30.4083 37.0938C30.8813 36.6209 30.8813 35.8587 30.4083 35.3903C29.94 34.9174 29.1732 34.9174 28.7048 35.3903C26.0004 38.0948 27.7222 40.0371 28.6497 41.0839C29.5818 42.1354 29.7747 42.3512 28.7048 43.4211C28.2319 43.894 28.2319 44.6562 28.7048 45.1245C28.939 45.3587 29.2466 45.4781 29.5589 45.4781C29.8711 45.4781 30.1742 45.3587 30.4129 45.1245C33.0852 42.4476 31.3726 40.5192 30.4542 39.4815C29.5313 38.4437 29.3109 38.1958 30.4129 37.0938H30.4083Z" fill="#5A4499"/>
<path d="M25.78 29.5957H19.5538L16.7988 32.3507H28.5304L25.78 29.5957Z" fill="#5A4499"/>
<path d="M33.3425 32.3507H41.1757L40.8451 30.7023C40.7074 30.009 37.452 13.7593 37.1627 12.391C37.1397 12.2762 37.1076 12.1752 37.0846 12.065L32.4241 16.7255H35.2296C36.0286 20.6972 37.2361 26.7168 37.8147 29.5958H30.5875L23.6404 22.6487L44.9638 1.32528C45.2347 1.05437 45.2347 0.618173 44.9638 0.35186C44.6929 0.0809555 44.2567 0.0809555 43.9904 0.35186L35.8219 8.52031C34.1093 5.28782 31.1752 3.94709 26.2806 3.94709H12.9879C12.2257 3.94709 11.6104 4.56237 11.6104 5.32457C11.6104 6.08678 12.2257 6.70205 12.9879 6.70205H26.2806C30.863 6.70205 32.741 7.96014 33.7787 10.5682L30.3763 13.9705H21.79C19.508 13.9705 17.5014 14.2552 15.7383 14.742L1.34818 0.356456C1.07728 0.0855516 0.641075 0.0855516 0.374762 0.356456C0.103858 0.622769 0.103858 1.06356 0.374762 1.32987L21.6982 22.6533L14.7511 29.6004H5.55409C6.11886 26.8087 8.03815 20.8625 14.3195 18.1443L12.2578 16.0827C8.94728 17.777 6.81219 20.2335 5.46226 22.4512C2.94147 26.5929 2.59251 30.7023 2.58332 30.8722L2.46853 32.3553H11.9915L0.370171 43.9767C0.0992661 44.2476 0.0992661 44.6838 0.370171 44.9501C0.503327 45.0832 0.6824 45.1521 0.856881 45.1521C1.03136 45.1521 1.21043 45.0832 1.34359 44.9501L22.667 23.6267L43.9904 44.9501C44.1235 45.0832 44.3026 45.1521 44.4771 45.1521C44.6516 45.1521 44.8307 45.0832 44.9638 44.9501C45.2347 44.6792 45.2347 44.243 44.9638 43.9767L33.3425 32.3553V32.3507ZM18.0341 17.0423C19.1774 16.8403 20.4217 16.7255 21.7854 16.7255H27.6167L22.667 21.6753L18.0341 17.0423Z" fill="#5A4499"/>
</svg>
