<svg width="46" height="54" viewBox="0 0 46 54" fill="none" xmlns="http://www.w3.org/2000/svg">
<path d="M0.833008 0.313477V45.3135H45.833V0.313477H0.833008ZM42.5527 18.803C40.9668 11.1927 34.9596 5.18543 27.3493 3.59378H42.5527V18.803ZM39.8315 22.8192C39.8315 31.9184 32.4323 39.3177 23.333 39.3177C14.2338 39.3177 6.83454 31.9184 6.83454 22.8192C6.83454 13.7199 14.2338 6.3207 23.333 6.3207C32.4323 6.3207 39.8315 13.7199 39.8315 22.8192ZM19.3168 3.59948C11.7065 5.18543 5.69926 11.1927 4.11331 18.803V3.59378H19.3168V3.59948ZM4.11331 26.8354C5.69926 34.4457 11.7065 40.4529 19.3168 42.0389H4.11331V26.8354ZM27.3493 42.0389C34.9596 40.4529 40.9668 34.4457 42.5527 26.8297V42.0389H27.3493Z" fill="#5A4499"/>
<line x1="45.416" y1="49.3135" x2="1.24902" y2="49.3135" stroke="#5A4499" stroke-width="2"/>
<line x1="45.416" y1="52.3135" x2="1.24902" y2="52.3135" stroke="#5A4499" stroke-width="2"/>
</svg>
