<svg width="46" height="34" viewBox="0 0 46 34" fill="none" xmlns="http://www.w3.org/2000/svg">
<path fill-rule="evenodd" clip-rule="evenodd" d="M45.1456 31.5402C44.9831 30.7328 41.1777 11.7059 40.8331 10.106C39.3218 3.06626 35.7872 0.324219 28.2207 0.324219H12.6595C11.8423 0.324219 11.1826 0.983884 11.1826 1.80108C11.1826 2.61828 11.8423 3.27794 12.6595 3.27794H28.2207C35.0881 3.27794 36.885 5.78861 37.9434 10.7263C37.9828 10.9182 38.0812 11.3859 38.2191 12.0554H22.9631C2.39038 12.0554 0.63784 31.5155 0.623072 31.7125L0.5 33.3026H45.5L45.1456 31.5352V31.5402ZM3.81802 30.3538C4.14785 28.7341 4.8912 26.0905 6.49606 23.4519C9.90761 17.8546 15.4458 15.0141 22.9582 15.0141H38.8098C39.7599 19.74 41.222 27.0259 41.8866 30.3538H3.81802Z" fill="#5A4499"/>
<path fill-rule="evenodd" clip-rule="evenodd" d="M24.3954 20.1487C22.6773 20.1487 21.2891 21.5419 21.2891 23.255C21.2891 24.9682 22.6822 26.3613 24.3954 26.3613C26.1086 26.3613 27.5017 24.9682 27.5017 23.255C27.5017 21.5419 26.1086 20.1487 24.3954 20.1487Z" fill="#5A4499"/>
</svg>
