<svg width="46" height="46" viewBox="0 0 46 46" fill="none" xmlns="http://www.w3.org/2000/svg">
<path d="M22.5431 37.7233C19.4345 37.7233 16.5417 36.7866 14.1265 35.1887L12.1475 37.1677C15.0862 39.2524 18.6723 40.4783 22.5431 40.4783C26.4139 40.4783 30.1149 39.2064 33.0811 37.0621L31.1067 35.0876C28.6639 36.7499 25.716 37.7233 22.5431 37.7233Z" fill="#5A4499"/>
<path d="M35.6382 34.8122C38.6871 31.5843 40.5651 27.2359 40.5651 22.4559C40.5651 18.5851 39.3345 14.999 37.2545 12.0603L35.2755 14.0393C36.878 16.4545 37.8101 19.3473 37.8101 22.4559C37.8101 26.4782 36.2443 30.1379 33.6913 32.8654L23.64 22.8141L44.964 1.4901C45.2349 1.21919 45.2349 0.78298 44.964 0.51666C44.6931 0.25034 44.2569 0.245749 43.9905 0.51666L35.0275 9.47971C31.7858 6.35734 27.3869 4.43339 22.5426 4.43339C17.6984 4.43339 13.4143 6.31142 10.1863 9.36032L1.34264 0.51666C1.07173 0.245749 0.635519 0.245749 0.369199 0.51666C0.102879 0.787572 0.0982877 1.22378 0.369199 1.4901L21.6932 22.8141L11.5133 32.9939C8.89142 30.2526 7.27514 26.5425 7.27514 22.4559C7.27514 19.283 8.24858 16.3351 9.91078 13.8878L7.93635 11.9133C5.79201 14.8796 4.52011 18.5208 4.52011 22.4559C4.52011 27.3002 6.44403 31.699 9.5664 34.9408L0.369199 44.138C0.0982877 44.4089 0.0982877 44.8451 0.369199 45.1115C0.502359 45.2446 0.681435 45.3135 0.855921 45.3135C1.03041 45.3135 1.20948 45.2446 1.34264 45.1115L22.6666 23.7875L43.9905 45.1115C44.1237 45.2446 44.3028 45.3135 44.4773 45.3135C44.6518 45.3135 44.8308 45.2446 44.964 45.1115C45.2349 44.8406 45.2349 44.4043 44.964 44.138L35.6382 34.8122ZM12.1286 11.3026C14.8607 8.74961 18.5157 7.18385 22.538 7.18385C26.5604 7.18385 30.3348 8.80013 33.076 11.422L22.662 21.836L12.1286 11.3026Z" fill="#5A4499"/>
</svg>
