<svg width="48" height="46" viewBox="0 0 48 46" fill="none" xmlns="http://www.w3.org/2000/svg">
<path d="M22.5406 31.2675C21.7784 31.318 21.0208 31.2675 20.2769 31.1343L18.0361 33.3751C19.3126 33.8159 20.6213 34.0455 21.9437 34.0455C22.2054 34.0455 22.4671 34.0363 22.7289 34.018C25.1579 33.8481 27.4446 32.9389 29.4787 31.3685L27.5089 29.3987C25.9752 30.5053 24.2947 31.1481 22.536 31.2675H22.5406Z" fill="#5A4499"/>
<path d="M47.7444 32.25V13.5572H44.3051C40.0945 13.5572 38.4737 14.0898 36.6967 16.505C36.4028 16.1928 36.0998 15.8989 35.7967 15.6142L33.8544 17.5565C34.2998 17.9652 34.7314 18.4106 35.1447 18.8973C33.6386 21.3126 32.4952 23.1768 31.6182 24.6875C31.1131 25.5599 30.5621 26.3451 29.9744 27.0568L25.7363 22.8187L47.0602 1.4947C47.3311 1.22379 47.3311 0.787576 47.0602 0.521257C46.7893 0.250345 46.3531 0.250345 46.0867 0.521257L33.0463 13.5617C30.8101 12.2531 28.3719 11.624 25.9383 11.7939C23.1098 11.9914 20.4649 13.1944 18.1966 15.2745L3.43882 0.51666C3.16791 0.245749 2.7317 0.245749 2.46538 0.51666C2.19447 0.787572 2.19447 1.22378 2.46538 1.4901L23.7894 22.8141L16.8191 29.7843C15.6482 29.068 14.537 28.1083 13.5177 26.9145C15.0284 24.49 16.1717 22.6258 17.0441 21.1243C17.315 20.656 17.6043 20.2105 17.8982 19.7881L12.1264 14.0163C10.6892 13.6949 8.98106 13.5572 6.85509 13.5572H0.917969V32.25H4.35716C8.56777 32.25 10.1887 31.7174 11.9657 29.3068C12.8611 30.2664 13.8253 31.0838 14.8401 31.7633L2.46538 44.138C2.19447 44.4089 2.19447 44.8451 2.46538 45.1115C2.59854 45.2446 2.77764 45.3135 2.95213 45.3135C3.12661 45.3135 3.30566 45.2446 3.43882 45.1115L24.7628 23.7875L46.0867 45.1115C46.2199 45.2446 46.399 45.3135 46.5735 45.3135C46.748 45.3135 46.927 45.2446 47.0602 45.1115C47.3311 44.8406 47.3311 44.4043 47.0602 44.138L33.5927 30.6705C35.5396 31.8276 38.0145 32.2546 41.8119 32.2546H47.7489L47.7444 32.25ZM10.455 26.6206C8.86166 29.169 8.42084 29.495 4.36176 29.495H3.6776V16.3122H6.85969C11.433 16.3122 13.4534 16.8678 15.235 18.8147C15.0421 19.1131 14.8493 19.4208 14.6656 19.7376C13.6784 21.4365 12.3238 23.6314 10.455 26.6206ZM20.1527 17.2259C21.9435 15.6188 23.9776 14.6867 26.1265 14.5398C27.8025 14.425 29.4602 14.7877 31.0305 15.5729L24.7628 21.8406L20.1481 17.2259H20.1527ZM33.4366 26.9925C33.6294 26.6941 33.8223 26.3864 34.0059 26.0696C35.0023 24.3569 36.3569 22.1666 38.2166 19.1866C39.8099 16.6382 40.2507 16.3122 44.3097 16.3122H44.9939V29.495H41.8119C37.2385 29.495 35.2182 28.9394 33.4366 26.9925Z" fill="#5A4499"/>
</svg>
