<svg width="191" height="52" viewBox="0 0 191 52" fill="none" xmlns="http://www.w3.org/2000/svg">
<path d="M3.99301 4.35627H8.13301C6.33301 8.03627 5.43301 10.8163 5.43301 12.6963C5.43301 14.1096 5.81967 15.0163 6.59301 15.4163C7.05967 15.6696 8.07301 15.7963 9.63301 15.7963V7.71627L13.233 6.09627V15.7963H17.113V4.35627H21.093V19.1763H8.95301C6.39301 19.1763 4.55967 18.8029 3.45301 18.0563C2.07967 17.1229 1.39301 15.4363 1.39301 12.9963C1.39301 10.5429 2.25967 7.66294 3.99301 4.35627ZM23.4374 22.8763V8.05627H27.7174C29.464 8.05627 30.784 8.3296 31.6774 8.87627C32.784 9.55627 33.3374 10.7163 33.3374 12.3563C33.3374 14.1429 32.7107 15.6563 31.4574 16.8963C30.3107 18.0296 28.824 18.7896 26.9974 19.1763V22.8763H23.4374ZM26.9974 16.0763C27.7974 15.8363 28.4507 15.4096 28.9574 14.7963C29.4774 14.1696 29.7374 13.4429 29.7374 12.6163C29.7374 11.5896 29.184 11.0763 28.0774 11.0763H26.9974V16.0763ZM34.9218 8.05627H38.4818V10.6163L41.1818 8.05627H44.7418V19.1763H41.1818V11.7963L38.4818 14.0963V16.3963C38.4818 17.1696 38.6418 17.7896 38.9618 18.2563L35.7018 19.6563C35.1818 18.9229 34.9218 17.7363 34.9218 16.0963V8.05627ZM56.1925 4.35627V8.05627C58.1792 8.05627 59.6259 8.27627 60.5325 8.71627C61.8659 9.3696 62.5325 10.5829 62.5325 12.3563C62.5325 14.1429 61.9059 15.6563 60.6525 16.8963C59.5059 18.0296 58.0192 18.7896 56.1925 19.1763V22.8763H52.6325V19.1763C50.8059 18.7896 49.3192 18.0296 48.1725 16.8963C46.9192 15.6563 46.2925 14.1429 46.2925 12.3563C46.2925 10.5829 46.9592 9.3696 48.2925 8.71627C49.1992 8.27627 50.6459 8.05627 52.6325 8.05627V4.35627H56.1925ZM56.1925 11.0763V16.2363C56.9925 16.0096 57.6459 15.5563 58.1525 14.8763C58.6725 14.1963 58.9325 13.4429 58.9325 12.6163C58.9325 11.5896 58.3792 11.0763 57.2725 11.0763H56.1925ZM52.6325 16.2363V11.0763H51.5525C50.4459 11.0763 49.8925 11.5896 49.8925 12.6163C49.8925 13.4429 50.1459 14.1963 50.6525 14.8763C51.1725 15.5563 51.8325 16.0096 52.6325 16.2363ZM69.9414 11.0763V19.1763H66.3814V11.0763H63.1214L63.8214 8.05627H72.5014L73.2014 11.0763H69.9414ZM91.2116 8.05627V19.1763H88.7316C86.5583 19.1763 84.7983 18.5896 83.4516 17.4163C82.0516 16.1763 81.3516 14.4829 81.3516 12.3363C81.3516 9.48294 82.9049 8.05627 86.0116 8.05627H91.2116ZM86.7116 11.0363C85.5249 11.0363 84.9316 11.5829 84.9316 12.6763C84.9316 13.5163 85.1783 14.2629 85.6716 14.9163C86.1783 15.5563 86.8383 15.9763 87.6516 16.1763V11.0363H86.7116ZM92.3369 21.5563H102.577V23.8963H92.3369V21.5563ZM112.691 12.8163C113.998 15.2829 115.425 17.3429 116.971 18.9963L113.811 21.3563C111.585 18.8629 109.671 15.7963 108.071 12.1563C110.365 10.6896 111.511 9.50294 111.511 8.59627C111.511 7.99627 111.125 7.69627 110.351 7.69627H103.311L104.211 4.35627H111.151C112.498 4.35627 113.585 4.63627 114.411 5.19627C115.371 5.8496 115.851 6.82294 115.851 8.11627C115.851 9.95627 114.798 11.5229 112.691 12.8163ZM104.011 8.29627H107.991V19.1763H104.011V8.29627ZM126.022 16.2163L125.202 19.1763H123.682C121.655 19.1763 119.995 18.5429 118.702 17.2763C117.408 15.9963 116.762 14.3429 116.762 12.3163C116.762 10.7029 117.242 9.5496 118.202 8.85627C119.028 8.24294 120.275 7.93627 121.942 7.93627C123.328 7.93627 124.375 8.10294 125.082 8.43627C126.095 8.91627 126.602 9.7696 126.602 10.9963C126.602 12.8496 125.308 14.5163 122.722 15.9963C123.135 16.1563 123.675 16.2429 124.342 16.2563C124.235 16.2563 124.795 16.2429 126.022 16.2163ZM120.402 13.9363C122.122 13.0429 122.982 12.2096 122.982 11.4363C122.982 10.9696 122.608 10.7363 121.862 10.7363C121.315 10.7363 120.888 10.9096 120.582 11.2563C120.275 11.6029 120.122 12.0563 120.122 12.6163C120.122 13.0429 120.215 13.4829 120.402 13.9363ZM138.628 15.5363L140.088 8.05627H143.768L140.728 19.1763H136.848L135.388 12.5963L133.928 19.1763H130.048L127.008 8.05627H130.728L132.128 15.5363L133.668 8.05627H137.108L138.628 15.5363ZM145.099 8.05627H148.719V19.1763H145.099V8.05627ZM145.099 4.35627H148.719V7.27627H145.099V4.35627ZM151.035 19.1763V8.05627H156.295C157.815 8.05627 158.882 8.38294 159.495 9.03627C160.108 9.67627 160.415 10.7629 160.415 12.2963V19.1763H156.855V12.9163C156.855 12.1429 156.788 11.6629 156.655 11.4763C156.468 11.2096 156.015 11.0763 155.295 11.0763H154.595V19.1763H151.035ZM171.917 4.35627V19.1763H169.737C167.404 19.1763 165.55 18.5963 164.177 17.4363C162.697 16.1963 161.957 14.4363 161.957 12.1563C161.957 10.8229 162.27 9.83627 162.897 9.19627C163.404 8.66294 164.184 8.32294 165.237 8.17627C165.77 8.09627 166.81 8.05627 168.357 8.05627V4.35627H171.917ZM167.117 11.0363C166.064 11.0363 165.537 11.5563 165.537 12.5963C165.537 13.5163 165.777 14.3029 166.257 14.9563C166.777 15.6763 167.477 16.0829 168.357 16.1763V11.0363H167.117ZM182.662 16.2163L181.842 19.1763H180.322C178.296 19.1763 176.636 18.5429 175.342 17.2763C174.049 15.9963 173.402 14.3429 173.402 12.3163C173.402 10.7029 173.882 9.5496 174.842 8.85627C175.669 8.24294 176.916 7.93627 178.582 7.93627C179.969 7.93627 181.016 8.10294 181.722 8.43627C182.736 8.91627 183.242 9.7696 183.242 10.9963C183.242 12.8496 181.949 14.5163 179.362 15.9963C179.776 16.1563 180.316 16.2429 180.982 16.2563C180.876 16.2563 181.436 16.2429 182.662 16.2163ZM177.042 13.9363C178.762 13.0429 179.622 12.2096 179.622 11.4363C179.622 10.9696 179.249 10.7363 178.502 10.7363C177.956 10.7363 177.529 10.9096 177.222 11.2563C176.916 11.6029 176.762 12.0563 176.762 12.6163C176.762 13.0429 176.856 13.4829 177.042 13.9363ZM184.709 8.05627H188.329V8.61627C188.809 8.16294 189.575 7.93627 190.629 7.93627V11.0363C189.575 11.0363 188.809 11.4163 188.329 12.1763V19.1763H184.709V8.05627Z" fill="black"/>
<path d="M12.193 47.1763H3.17301V43.8163H5.73301V35.7363H3.65301L4.53301 32.3563H9.67301V43.8163H12.193V47.1763ZM16.0129 35.7363L16.8929 32.3563H21.3529C23.9129 32.3563 25.1929 33.3563 25.1929 35.3563C25.1929 36.0363 24.9795 36.7896 24.5529 37.6163L21.3929 43.7163H25.6729L24.6729 47.1763H15.2129C16.2129 45.2829 17.2129 43.3829 18.2129 41.4763C19.8662 38.3163 20.6929 36.6096 20.6929 36.3563C20.6929 35.9429 20.4529 35.7363 19.9729 35.7363H16.0129ZM31.2927 32.3563H39.1127L36.5927 37.5163C38.2727 38.0363 39.1127 39.3096 39.1127 41.3363C39.1127 43.4163 38.2327 44.9829 36.4727 46.0363C35.0194 46.9163 33.186 47.3563 30.9727 47.3563L29.9127 43.8963C33.3527 43.8963 35.0727 43.1363 35.0727 41.6163C35.0727 41.0029 34.6327 40.6029 33.7527 40.4163C33.3527 40.3229 32.666 40.2829 31.6927 40.2963L33.9327 35.7363H30.3527L31.2927 32.3563ZM42.7525 43.9563L41.9525 40.6363L45.6925 32.3563H49.6925L46.0125 40.6363H48.1125V37.7563H51.9125V40.6363H53.1125V43.9563H51.9125V47.1763H48.1125V43.9563H42.7525ZM65.2524 35.7363H60.6124L60.5324 37.2363C62.2124 37.2363 63.459 37.4896 64.2724 37.9963C65.2857 38.6496 65.7924 39.7629 65.7924 41.3363C65.7924 43.4163 64.9124 44.9829 63.1524 46.0363C61.699 46.9163 59.8657 47.3563 57.6524 47.3563L56.5924 43.8963C60.0324 43.8963 61.7524 43.1363 61.7524 41.6163C61.7524 40.8163 61.1324 40.4163 59.8924 40.4163H56.5924L57.0324 32.3563H64.3724L65.2524 35.7363ZM72.9922 40.3963C72.7122 40.9696 72.5722 41.5496 72.5722 42.1363C72.5722 43.3763 73.1389 43.9963 74.2722 43.9963C74.7522 43.9963 75.1456 43.8429 75.4522 43.5363C75.7589 43.2296 75.9122 42.8363 75.9122 42.3563C75.9122 41.0496 74.9389 40.3963 72.9922 40.3963ZM77.7522 32.3563C76.2189 34.3563 75.1189 35.9829 74.4522 37.2363C76.0922 37.3163 77.3856 37.7563 78.3322 38.5563C79.3589 39.4229 79.8722 40.6563 79.8722 42.2563C79.8722 43.9496 79.3189 45.2429 78.2122 46.1363C77.2122 46.9496 75.8389 47.3563 74.0922 47.3563C72.4256 47.3563 71.1189 46.9563 70.1722 46.1563C69.1589 45.3029 68.6522 44.0563 68.6522 42.4163C68.6522 39.5496 70.1789 36.1963 73.2322 32.3563H77.7522ZM83.4721 32.3563H92.6921L88.1121 47.1763H83.9521L87.5121 35.7363H82.5921L83.4721 32.3563ZM103.792 39.2963C105.485 40.5896 106.332 41.9896 106.332 43.4963C106.332 45.0029 105.759 46.0629 104.612 46.6763C103.772 47.1296 102.525 47.3563 100.872 47.3563C99.2452 47.3563 97.9986 47.1229 97.1319 46.6563C95.9852 46.0429 95.4119 44.9896 95.4119 43.4963C95.4119 41.9896 96.2586 40.5896 97.9519 39.2963C96.5519 38.1229 95.8519 36.9096 95.8519 35.6563C95.8519 33.3363 97.5252 32.1763 100.872 32.1763C104.232 32.1763 105.912 33.3363 105.912 35.6563C105.912 36.8963 105.205 38.1096 103.792 39.2963ZM100.872 41.1363C99.8052 42.0563 99.2719 42.7429 99.2719 43.1963C99.2719 43.8629 99.8052 44.1963 100.872 44.1963C101.952 44.1963 102.492 43.8763 102.492 43.2363C102.492 42.7163 101.952 42.0163 100.872 41.1363ZM100.872 37.5563C101.752 36.9296 102.192 36.4029 102.192 35.9763C102.192 35.4163 101.752 35.1363 100.872 35.1363C100.019 35.1363 99.5919 35.4296 99.5919 36.0163C99.5919 36.4163 100.019 36.9296 100.872 37.5563ZM115.692 39.2963C115.838 38.7363 115.912 38.2429 115.912 37.8163C115.912 36.3096 115.278 35.5563 114.012 35.5563C113.585 35.5563 113.225 35.6896 112.932 35.9563C112.652 36.2096 112.512 36.5496 112.512 36.9763C112.512 38.1763 113.572 38.9496 115.692 39.2963ZM114.312 42.4963C112.618 42.1896 111.272 41.6096 110.272 40.7563C109.098 39.7563 108.512 38.4629 108.512 36.8763C108.512 35.3163 109.018 34.1296 110.032 33.3163C110.978 32.5563 112.245 32.1763 113.832 32.1763C117.872 32.1763 119.892 34.0563 119.892 37.8163C119.892 40.6296 119.085 42.9096 117.472 44.6563C115.805 46.4563 113.572 47.3563 110.772 47.3563L109.852 43.8963C112.012 43.9096 113.498 43.4429 114.312 42.4963ZM121.392 37.8563C121.392 34.0696 123.445 32.1763 127.552 32.1763C131.658 32.1763 133.712 34.0696 133.712 37.8563C133.712 39.9896 133.218 42.0363 132.232 43.9963C131.032 46.3696 129.472 47.5563 127.552 47.5563C125.672 47.5563 124.125 46.3629 122.912 43.9763C121.898 41.9763 121.392 39.9363 121.392 37.8563ZM127.552 35.5563C125.992 35.5563 125.212 36.4229 125.212 38.1563C125.212 39.1029 125.405 40.2163 125.792 41.4963C126.272 43.1229 126.858 43.9363 127.552 43.9363C128.298 43.9363 128.905 43.1496 129.372 41.5763C129.718 40.3763 129.892 39.2696 129.892 38.2563C129.892 36.4563 129.112 35.5563 127.552 35.5563Z" fill="black"/>
</svg>
