<svg width="181" height="42" viewBox="0 0 181 42" fill="none" xmlns="http://www.w3.org/2000/svg">
<path d="M1.92101 1.11743H2.96101V12.1894H6.08101V1.11743H7.12101V12.1894H10.241V1.11743H11.281L11.265 13.1174H1.92101V1.11743ZM14.2359 8.65343C14.2359 8.99476 14.2412 9.38943 14.2519 9.83743C14.2625 10.2748 14.3212 10.6961 14.4279 11.1014C14.5345 11.4961 14.7105 11.8321 14.9559 12.1094C15.2012 12.3868 15.5585 12.5254 16.0279 12.5254C16.4652 12.5254 16.8012 12.3868 17.0359 12.1094C17.2705 11.8214 17.4412 11.4801 17.5479 11.0854C17.6545 10.6908 17.7132 10.2801 17.7239 9.85343C17.7452 9.42676 17.7559 9.06943 17.7559 8.78143C17.7559 8.48276 17.7452 8.11476 17.7239 7.67743C17.7132 7.22943 17.6545 6.79743 17.5479 6.38143C17.4412 5.96543 17.2705 5.61343 17.0359 5.32543C16.8119 5.02676 16.4865 4.87743 16.0599 4.87743C15.5799 4.87743 15.2119 5.01076 14.9559 5.27743C14.7105 5.5441 14.5345 5.87476 14.4279 6.26943C14.3212 6.65343 14.2625 7.0641 14.2519 7.50143C14.2412 7.93876 14.2359 8.32276 14.2359 8.65343ZM14.2679 16.1574H13.3079V4.28543H14.2359V5.08543C14.4492 4.7761 14.7052 4.53076 15.0039 4.34943C15.3132 4.15743 15.6545 4.06143 16.0279 4.06143C16.6359 4.06143 17.1159 4.20543 17.4679 4.49343C17.8199 4.77076 18.0865 5.1281 18.2679 5.56543C18.4492 5.9921 18.5612 6.46676 18.6039 6.98943C18.6572 7.5121 18.6839 8.0081 18.6839 8.47743C18.6839 8.95743 18.6679 9.4801 18.6359 10.0454C18.6145 10.6108 18.5239 11.1388 18.3639 11.6294C18.2039 12.1201 17.9479 12.5308 17.5959 12.8614C17.2439 13.1814 16.7479 13.3414 16.1079 13.3414C15.7132 13.3414 15.3665 13.2668 15.0679 13.1174C14.7692 12.9681 14.5025 12.7281 14.2679 12.3974V16.1574ZM25.5853 4.28543V13.1174H24.6573V5.85343H24.6253L21.6493 13.1174H20.4973V4.28543H21.4253V11.5654H21.4573L24.4013 4.28543H25.5853ZM37.1266 8.47743C37.1266 8.95743 37.1106 9.4801 37.0786 10.0454C37.0573 10.6108 36.9666 11.1388 36.8066 11.6294C36.6466 12.1201 36.3906 12.5308 36.0386 12.8614C35.6866 13.1814 35.1906 13.3414 34.5506 13.3414C34.156 13.3414 33.8093 13.2668 33.5106 13.1174C33.212 12.9681 32.9453 12.7281 32.7106 12.3974V16.1574H31.7506V12.3974C31.516 12.7281 31.2493 12.9681 30.9506 13.1174C30.652 13.2668 30.3053 13.3414 29.9106 13.3414C29.2706 13.3414 28.7746 13.1814 28.4226 12.8614C28.0706 12.5308 27.8146 12.1201 27.6546 11.6294C27.4946 11.1388 27.3986 10.6108 27.3666 10.0454C27.3453 9.4801 27.3346 8.95743 27.3346 8.47743C27.3346 8.0081 27.356 7.5121 27.3986 6.98943C27.452 6.46676 27.5693 5.9921 27.7506 5.56543C27.932 5.1281 28.1986 4.77076 28.5506 4.49343C28.9026 4.20543 29.3826 4.06143 29.9906 4.06143C30.364 4.06143 30.7 4.15743 30.9986 4.34943C31.308 4.53076 31.5693 4.7761 31.7826 5.08543V1.11743H32.6786V5.08543C32.892 4.7761 33.148 4.53076 33.4466 4.34943C33.756 4.15743 34.0973 4.06143 34.4706 4.06143C35.0786 4.06143 35.5586 4.20543 35.9106 4.49343C36.2626 4.77076 36.5293 5.1281 36.7106 5.56543C36.892 5.9921 37.004 6.46676 37.0466 6.98943C37.1 7.5121 37.1266 8.0081 37.1266 8.47743ZM36.1986 8.78143C36.1986 8.48276 36.188 8.11476 36.1666 7.67743C36.156 7.22943 36.0973 6.79743 35.9906 6.38143C35.884 5.96543 35.7133 5.61343 35.4786 5.32543C35.2546 5.02676 34.9293 4.87743 34.5026 4.87743C34.0226 4.87743 33.6546 5.01076 33.3986 5.27743C33.1533 5.5441 32.9773 5.87476 32.8706 6.26943C32.764 6.65343 32.7053 7.0641 32.6946 7.50143C32.684 7.93876 32.6786 8.32276 32.6786 8.65343C32.6786 8.99476 32.684 9.38943 32.6946 9.83743C32.7053 10.2748 32.764 10.6961 32.8706 11.1014C32.9773 11.4961 33.1533 11.8321 33.3986 12.1094C33.644 12.3868 34.0013 12.5254 34.4706 12.5254C34.908 12.5254 35.244 12.3868 35.4786 12.1094C35.7133 11.8214 35.884 11.4801 35.9906 11.0854C36.0973 10.6908 36.156 10.2801 36.1666 9.85343C36.188 9.42676 36.1986 9.06943 36.1986 8.78143ZM31.7826 8.65343C31.7826 8.32276 31.7773 7.93876 31.7666 7.50143C31.756 7.0641 31.6973 6.65343 31.5906 6.26943C31.484 5.87476 31.3026 5.5441 31.0466 5.27743C30.8013 5.01076 30.4386 4.87743 29.9586 4.87743C29.532 4.87743 29.2013 5.02676 28.9666 5.32543C28.7426 5.61343 28.5773 5.96543 28.4706 6.38143C28.364 6.79743 28.3 7.22943 28.2786 7.67743C28.268 8.11476 28.2626 8.48276 28.2626 8.78143C28.2626 9.06943 28.268 9.42676 28.2786 9.85343C28.3 10.2801 28.364 10.6908 28.4706 11.0854C28.5773 11.4801 28.748 11.8214 28.9826 12.1094C29.2173 12.3868 29.5533 12.5254 29.9906 12.5254C30.46 12.5254 30.8173 12.3868 31.0626 12.1094C31.308 11.8321 31.484 11.4961 31.5906 11.1014C31.6973 10.6961 31.756 10.2748 31.7666 9.83743C31.7773 9.38943 31.7826 8.99476 31.7826 8.65343ZM37.903 5.11743V4.28543H42.895V5.11743H40.863V13.1174H39.935V5.11743H37.903ZM52.3393 8.49343L50.7553 2.42943H50.7233L49.1393 8.49343H52.3393ZM51.3473 1.11743L54.5633 13.1174H53.5073L52.5633 9.42143H48.9153L47.9393 13.1174H46.9313L50.1473 1.11743H51.3473ZM58.8513 8.09343V7.16543H62.4673V13.1174H61.6353L61.5233 11.8854C61.2139 12.3974 60.8513 12.7814 60.4353 13.0374C60.0193 13.2828 59.5073 13.4054 58.8993 13.4054C58.3339 13.4054 57.8593 13.3041 57.4753 13.1014C57.0913 12.8881 56.7713 12.6054 56.5153 12.2534C56.2593 11.9014 56.0619 11.5014 55.9233 11.0534C55.7846 10.6054 55.6779 10.1414 55.6033 9.66143C55.5393 9.17076 55.5019 8.68543 55.4913 8.20543C55.4806 7.72543 55.4753 7.28276 55.4753 6.87743C55.4753 6.45076 55.4859 6.0081 55.5073 5.54943C55.5286 5.0801 55.5766 4.62143 55.6513 4.17343C55.7259 3.72543 55.8379 3.29876 55.9873 2.89343C56.1366 2.4881 56.3446 2.1361 56.6113 1.83743C56.8779 1.5281 57.2086 1.28276 57.6033 1.10143C57.9979 0.920098 58.4779 0.829432 59.0433 0.829432C59.5446 0.829432 59.9926 0.925431 60.3873 1.11743C60.7926 1.30943 61.1339 1.57076 61.4113 1.90143C61.6993 2.22143 61.9179 2.6001 62.0673 3.03743C62.2166 3.4641 62.2913 3.91743 62.2913 4.39743H61.2993C61.2566 4.07743 61.1873 3.75743 61.0913 3.43743C61.0059 3.11743 60.8779 2.83476 60.7073 2.58943C60.5366 2.3441 60.3179 2.14676 60.0513 1.99743C59.7846 1.83743 59.4593 1.75743 59.0753 1.75743C58.6379 1.75743 58.2699 1.85343 57.9713 2.04543C57.6726 2.22676 57.4273 2.4721 57.2353 2.78143C57.0433 3.09076 56.8993 3.43743 56.8033 3.82143C56.7073 4.20543 56.6379 4.6001 56.5953 5.00543C56.5526 5.4001 56.5259 5.7841 56.5153 6.15743C56.5153 6.5201 56.5153 6.8401 56.5153 7.11743C56.5153 7.39476 56.5206 7.7201 56.5313 8.09343C56.5419 8.4561 56.5686 8.8401 56.6113 9.24543C56.6646 9.6401 56.7393 10.0294 56.8353 10.4134C56.9313 10.7974 57.0699 11.1441 57.2513 11.4534C57.4433 11.7628 57.6779 12.0134 57.9553 12.2054C58.2326 12.3868 58.5739 12.4774 58.9793 12.4774C59.3526 12.4774 59.6726 12.4081 59.9393 12.2694C60.2059 12.1308 60.4299 11.9494 60.6113 11.7254C60.7926 11.4908 60.9313 11.2241 61.0273 10.9254C61.1339 10.6268 61.2139 10.3174 61.2673 9.99743C61.3206 9.66676 61.3579 9.34143 61.3793 9.02143C61.4006 8.69076 61.4166 8.38143 61.4273 8.09343H58.8513ZM64.8139 13.1174V1.11743H65.8539V12.1894H70.3019V13.1174H64.8139ZM76.3713 8.65343H72.2273C72.2273 8.84543 72.2273 9.07476 72.2273 9.34143C72.2273 9.59743 72.2379 9.86943 72.2593 10.1574C72.2806 10.4454 72.3179 10.7334 72.3713 11.0214C72.4353 11.2988 72.5259 11.5494 72.6433 11.7734C72.7713 11.9974 72.9313 12.1788 73.1233 12.3174C73.3259 12.4561 73.5819 12.5254 73.8913 12.5254C74.2219 12.5254 74.4833 12.4561 74.6753 12.3174C74.8673 12.1788 75.0166 12.0028 75.1233 11.7894C75.2299 11.5654 75.3046 11.3201 75.3473 11.0534C75.3899 10.7761 75.4219 10.5041 75.4433 10.2374H76.3393C76.3393 10.6428 76.2966 11.0321 76.2113 11.4054C76.1259 11.7788 75.9819 12.1094 75.7793 12.3974C75.5873 12.6854 75.3313 12.9148 75.0113 13.0854C74.7019 13.2561 74.3233 13.3414 73.8753 13.3414C73.2566 13.3414 72.7713 13.1868 72.4193 12.8774C72.0779 12.5681 71.8219 12.1841 71.6513 11.7254C71.4913 11.2561 71.3899 10.7548 71.3473 10.2214C71.3153 9.6881 71.2993 9.1921 71.2993 8.73343C71.2993 8.28543 71.3153 7.79476 71.3473 7.26143C71.3899 6.71743 71.4913 6.21076 71.6513 5.74143C71.8219 5.26143 72.0779 4.86143 72.4193 4.54143C72.7606 4.22143 73.2353 4.06143 73.8433 4.06143C74.3553 4.06143 74.7713 4.17876 75.0913 4.41343C75.4219 4.63743 75.6833 4.93076 75.8753 5.29343C76.0673 5.64543 76.1953 6.0401 76.2593 6.47743C76.3339 6.91476 76.3713 7.34143 76.3713 7.75743V8.65343ZM75.4433 7.83743C75.4433 7.5601 75.4273 7.25076 75.3953 6.90943C75.3739 6.55743 75.3099 6.2321 75.2033 5.93343C75.0966 5.63476 74.9313 5.3841 74.7073 5.18143C74.4939 4.97876 74.2006 4.87743 73.8273 4.87743C73.4646 4.87743 73.1766 4.9841 72.9633 5.19743C72.7606 5.41076 72.6006 5.6721 72.4833 5.98143C72.3766 6.2801 72.3073 6.6001 72.2753 6.94143C72.2433 7.28276 72.2273 7.58143 72.2273 7.83743H75.4433ZM80.174 13.1974C80.014 13.2188 79.8113 13.2454 79.566 13.2774C79.3313 13.3094 79.134 13.2988 78.974 13.2454C78.5687 13.0961 78.3073 12.9094 78.19 12.6854C78.0727 12.4614 78.014 12.1361 78.014 11.7094V5.10143H77.214V4.28543H78.014V1.69343H78.942V4.28543H80.174V5.10143H78.942V11.6134C78.942 11.6881 78.942 11.7734 78.942 11.8694C78.9527 11.9548 78.974 12.0401 79.006 12.1254C79.038 12.2001 79.086 12.2694 79.15 12.3334C79.214 12.3868 79.2993 12.4241 79.406 12.4454C79.5233 12.4988 79.6513 12.5201 79.79 12.5094C79.9287 12.4881 80.0567 12.4614 80.174 12.4294V13.1974ZM86.1369 8.65343H81.9929C81.9929 8.84543 81.9929 9.07476 81.9929 9.34143C81.9929 9.59743 82.0035 9.86943 82.0249 10.1574C82.0462 10.4454 82.0835 10.7334 82.1369 11.0214C82.2009 11.2988 82.2915 11.5494 82.4089 11.7734C82.5369 11.9974 82.6969 12.1788 82.8889 12.3174C83.0915 12.4561 83.3475 12.5254 83.6569 12.5254C83.9875 12.5254 84.2489 12.4561 84.4409 12.3174C84.6329 12.1788 84.7822 12.0028 84.8889 11.7894C84.9955 11.5654 85.0702 11.3201 85.1129 11.0534C85.1555 10.7761 85.1875 10.5041 85.2089 10.2374H86.1049C86.1049 10.6428 86.0622 11.0321 85.9769 11.4054C85.8915 11.7788 85.7475 12.1094 85.5449 12.3974C85.3529 12.6854 85.0969 12.9148 84.7769 13.0854C84.4675 13.2561 84.0889 13.3414 83.6409 13.3414C83.0222 13.3414 82.5369 13.1868 82.1849 12.8774C81.8435 12.5681 81.5875 12.1841 81.4169 11.7254C81.2569 11.2561 81.1555 10.7548 81.1129 10.2214C81.0809 9.6881 81.0649 9.1921 81.0649 8.73343C81.0649 8.28543 81.0809 7.79476 81.1129 7.26143C81.1555 6.71743 81.2569 6.21076 81.4169 5.74143C81.5875 5.26143 81.8435 4.86143 82.1849 4.54143C82.5262 4.22143 83.0009 4.06143 83.6089 4.06143C84.1209 4.06143 84.5369 4.17876 84.8569 4.41343C85.1875 4.63743 85.4489 4.93076 85.6409 5.29343C85.8329 5.64543 85.9609 6.0401 86.0249 6.47743C86.0995 6.91476 86.1369 7.34143 86.1369 7.75743V8.65343ZM85.2089 7.83743C85.2089 7.5601 85.1929 7.25076 85.1609 6.90943C85.1395 6.55743 85.0755 6.2321 84.9689 5.93343C84.8622 5.63476 84.6969 5.3841 84.4729 5.18143C84.2595 4.97876 83.9662 4.87743 83.5929 4.87743C83.2302 4.87743 82.9422 4.9841 82.7289 5.19743C82.5262 5.41076 82.3662 5.6721 82.2489 5.98143C82.1422 6.2801 82.0729 6.6001 82.0409 6.94143C82.0089 7.28276 81.9929 7.58143 81.9929 7.83743H85.2089ZM88.7076 5.30943H88.7396C88.9743 4.8401 89.2516 4.51476 89.5716 4.33343C89.9023 4.14143 90.3236 4.05076 90.8356 4.06143V5.03743C90.1103 5.02676 89.5823 5.23476 89.2516 5.66143C88.921 6.07743 88.7556 6.6321 88.7556 7.32543V13.1174H87.8276V4.28543H88.7076V5.30943ZM92.4888 13.1174V4.28543H93.4168V13.1174H92.4888ZM92.4248 2.63743V1.11743H93.4968V2.63743H92.4248ZM100.452 10.1894C100.452 10.5948 100.409 10.9894 100.324 11.3734C100.249 11.7468 100.116 12.0828 99.9236 12.3814C99.7316 12.6694 99.4756 12.9041 99.1556 13.0854C98.8463 13.2561 98.4623 13.3414 98.0036 13.3414C97.353 13.3414 96.8463 13.1921 96.4836 12.8934C96.1316 12.5841 95.865 12.2001 95.6836 11.7414C95.513 11.2828 95.4063 10.7814 95.3636 10.2374C95.3316 9.68276 95.3156 9.15476 95.3156 8.65343C95.3156 8.17343 95.337 7.66676 95.3796 7.13343C95.433 6.6001 95.545 6.1041 95.7156 5.64543C95.897 5.18676 96.1636 4.8081 96.5156 4.50943C96.8783 4.21076 97.3636 4.06143 97.9716 4.06143C98.3663 4.06143 98.713 4.14143 99.0116 4.30143C99.321 4.45076 99.5716 4.65876 99.7636 4.92543C99.9663 5.1921 100.116 5.4961 100.212 5.83743C100.318 6.17876 100.372 6.53076 100.372 6.89343H99.4596C99.449 6.62676 99.4063 6.37076 99.3316 6.12543C99.2676 5.8801 99.1716 5.66676 99.0436 5.48543C98.9156 5.29343 98.7556 5.1441 98.5636 5.03743C98.3823 4.9201 98.1636 4.86676 97.9076 4.87743C97.4703 4.8881 97.1343 5.03743 96.8996 5.32543C96.6756 5.60276 96.5156 5.9441 96.4196 6.34943C96.3236 6.75476 96.2703 7.18143 96.2596 7.62943C96.249 8.07743 96.2436 8.4721 96.2436 8.81343C96.2436 9.12276 96.249 9.49076 96.2596 9.91743C96.281 10.3441 96.345 10.7494 96.4516 11.1334C96.5583 11.5174 96.7343 11.8481 96.9796 12.1254C97.225 12.3921 97.5716 12.5254 98.0196 12.5254C98.3396 12.5254 98.5956 12.4508 98.7876 12.3014C98.9796 12.1521 99.1236 11.9654 99.2196 11.7414C99.3263 11.5068 99.3956 11.2561 99.4276 10.9894C99.4703 10.7121 99.5023 10.4454 99.5236 10.1894H100.452ZM105.278 8.34943C104.969 8.5201 104.66 8.66943 104.35 8.79743C104.052 8.91476 103.748 9.03743 103.438 9.16543C103.204 9.2721 103.012 9.37876 102.862 9.48543C102.713 9.5921 102.596 9.71476 102.51 9.85343C102.425 9.98143 102.366 10.1414 102.334 10.3334C102.302 10.5148 102.286 10.7334 102.286 10.9894C102.286 11.4268 102.372 11.7948 102.542 12.0934C102.713 12.3814 103.038 12.5254 103.518 12.5254C103.828 12.5254 104.089 12.4668 104.302 12.3494C104.516 12.2321 104.692 12.0721 104.83 11.8694C105.022 11.5921 105.145 11.2774 105.198 10.9254C105.252 10.5734 105.278 10.2321 105.278 9.90143V8.34943ZM101.598 6.50943C101.577 5.73076 101.769 5.1281 102.174 4.70143C102.59 4.27476 103.182 4.06143 103.95 4.06143C104.324 4.06143 104.665 4.10943 104.974 4.20543C105.294 4.30143 105.561 4.47743 105.774 4.73343C105.977 4.98943 106.1 5.26676 106.142 5.56543C106.185 5.85343 106.206 6.1521 106.206 6.46143V11.8854C106.206 12.1521 106.244 12.3228 106.318 12.3974C106.393 12.4614 106.569 12.4881 106.846 12.4774V13.1494C106.686 13.2134 106.516 13.2454 106.334 13.2454C106.164 13.2454 105.993 13.2294 105.822 13.1974C105.609 13.1121 105.486 13.0108 105.454 12.8934C105.422 12.7761 105.38 12.6108 105.326 12.3974H105.31C105.076 12.7174 104.788 12.9574 104.446 13.1174C104.105 13.2668 103.742 13.3414 103.358 13.3414C102.953 13.3414 102.622 13.2774 102.366 13.1494C102.11 13.0214 101.908 12.8454 101.758 12.6214C101.609 12.3974 101.502 12.1361 101.438 11.8374C101.385 11.5281 101.358 11.1974 101.358 10.8454C101.358 10.3334 101.444 9.89076 101.614 9.51743C101.785 9.13343 102.105 8.81876 102.574 8.57343C102.969 8.3921 103.369 8.22676 103.774 8.07743C104.19 7.9281 104.596 7.76276 104.99 7.58143C105.065 7.54943 105.118 7.4961 105.15 7.42143C105.193 7.34676 105.22 7.28276 105.23 7.22943C105.241 7.13343 105.246 7.02143 105.246 6.89343C105.257 6.76543 105.262 6.6321 105.262 6.49343C105.262 6.35476 105.252 6.22143 105.23 6.09343C105.22 5.96543 105.209 5.85343 105.198 5.75743C105.134 5.49076 105.006 5.27743 104.814 5.11743C104.633 4.95743 104.34 4.87743 103.934 4.87743C103.604 4.87743 103.348 4.92543 103.166 5.02143C102.996 5.11743 102.862 5.24543 102.766 5.40543C102.681 5.55476 102.622 5.73076 102.59 5.93343C102.558 6.12543 102.526 6.31743 102.494 6.50943H101.598ZM118.58 9.05343C118.591 9.56543 118.532 10.0828 118.404 10.6054C118.276 11.1174 118.073 11.5814 117.796 11.9974C117.519 12.4134 117.161 12.7548 116.724 13.0214C116.297 13.2774 115.785 13.4054 115.188 13.4054C114.612 13.4054 114.121 13.3041 113.716 13.1014C113.321 12.8881 112.996 12.6054 112.74 12.2534C112.484 11.9014 112.287 11.5014 112.148 11.0534C112.009 10.5948 111.908 10.1201 111.844 9.62943C111.78 9.13876 111.743 8.6481 111.732 8.15743C111.721 7.66676 111.716 7.2081 111.716 6.78143C111.716 6.36543 111.727 5.93343 111.748 5.48543C111.78 5.02676 111.833 4.57876 111.908 4.14143C111.993 3.7041 112.111 3.2881 112.26 2.89343C112.42 2.4881 112.628 2.1361 112.884 1.83743C113.151 1.5281 113.471 1.28276 113.844 1.10143C114.228 0.920098 114.687 0.829432 115.22 0.829432C115.764 0.829432 116.239 0.930765 116.644 1.13343C117.049 1.32543 117.385 1.5921 117.652 1.93343C117.929 2.27476 118.137 2.67476 118.276 3.13343C118.415 3.58143 118.484 4.06143 118.484 4.57343H117.444C117.423 4.22143 117.369 3.87476 117.284 3.53343C117.199 3.1921 117.065 2.89343 116.884 2.63743C116.713 2.37076 116.489 2.15743 116.212 1.99743C115.935 1.83743 115.593 1.75743 115.188 1.75743C114.761 1.75743 114.404 1.85343 114.116 2.04543C113.839 2.22676 113.609 2.46676 113.428 2.76543C113.247 3.0641 113.108 3.40543 113.012 3.78943C112.927 4.16276 112.863 4.54676 112.82 4.94143C112.788 5.32543 112.767 5.7041 112.756 6.07743C112.756 6.4401 112.756 6.75476 112.756 7.02143C112.756 7.33076 112.756 7.68276 112.756 8.07743C112.767 8.46143 112.788 8.8561 112.82 9.26143C112.863 9.6561 112.932 10.0508 113.028 10.4454C113.135 10.8294 113.279 11.1708 113.46 11.4694C113.652 11.7681 113.897 12.0134 114.196 12.2054C114.495 12.3868 114.863 12.4774 115.3 12.4774C115.748 12.4774 116.111 12.3708 116.388 12.1574C116.676 11.9334 116.9 11.6561 117.06 11.3254C117.231 10.9841 117.348 10.6161 117.412 10.2214C117.487 9.8161 117.529 9.42676 117.54 9.05343H118.58ZM123.135 13.3414C122.687 13.3414 122.308 13.2668 121.999 13.1174C121.689 12.9788 121.433 12.7868 121.231 12.5414C121.028 12.2961 120.868 12.0134 120.751 11.6934C120.633 11.3628 120.548 11.0214 120.495 10.6694C120.441 10.3068 120.409 9.93876 120.399 9.56543C120.388 9.1921 120.383 8.83476 120.383 8.49343C120.383 8.00276 120.415 7.4961 120.479 6.97343C120.543 6.4401 120.671 5.9601 120.863 5.53343C121.065 5.10676 121.348 4.75476 121.711 4.47743C122.084 4.2001 122.575 4.06143 123.183 4.06143C123.801 4.06143 124.292 4.21076 124.655 4.50943C125.017 4.8081 125.295 5.18676 125.487 5.64543C125.679 6.09343 125.801 6.58943 125.855 7.13343C125.908 7.67743 125.935 8.18943 125.935 8.66943C125.935 9.17076 125.908 9.69876 125.855 10.2534C125.801 10.7974 125.679 11.2988 125.487 11.7574C125.295 12.2161 125.012 12.5948 124.639 12.8934C124.276 13.1921 123.775 13.3414 123.135 13.3414ZM123.119 12.5254C123.588 12.5254 123.951 12.3868 124.207 12.1094C124.463 11.8321 124.649 11.4961 124.767 11.1014C124.884 10.7068 124.953 10.2908 124.975 9.85343C124.996 9.40543 125.007 9.0161 125.007 8.68543C125.007 8.3441 124.996 7.95476 124.975 7.51743C124.953 7.06943 124.879 6.65343 124.751 6.26943C124.633 5.87476 124.441 5.5441 124.175 5.27743C123.919 5.01076 123.551 4.87743 123.071 4.87743C122.655 4.87743 122.329 5.01076 122.095 5.27743C121.86 5.5441 121.684 5.8641 121.567 6.23743C121.449 6.61076 121.375 7.01076 121.343 7.43743C121.321 7.85343 121.311 8.21076 121.311 8.50943C121.311 8.8401 121.316 9.23476 121.327 9.69343C121.337 10.1521 121.396 10.5948 121.503 11.0214C121.609 11.4374 121.785 11.7948 122.031 12.0934C122.276 12.3814 122.639 12.5254 123.119 12.5254ZM128.564 13.1174H127.636V4.28543H128.564V5.06943H128.596C128.788 4.74943 129.049 4.5041 129.38 4.33343C129.721 4.1521 130.084 4.06143 130.468 4.06143C130.649 4.06143 130.82 4.0721 130.98 4.09343C131.151 4.1041 131.311 4.14143 131.46 4.20543C131.609 4.26943 131.753 4.37076 131.892 4.50943C132.041 4.63743 132.185 4.81876 132.324 5.05343H132.356C132.601 4.7121 132.905 4.46143 133.268 4.30143C133.641 4.14143 134.031 4.06143 134.436 4.06143C134.831 4.06143 135.156 4.1201 135.412 4.23743C135.679 4.35476 135.887 4.5201 136.036 4.73343C136.196 4.94676 136.308 5.20276 136.372 5.50143C136.436 5.78943 136.468 6.10943 136.468 6.46143V13.1174H135.54V6.34943C135.54 6.1681 135.519 5.98676 135.476 5.80543C135.444 5.6241 135.38 5.4641 135.284 5.32543C135.188 5.18676 135.06 5.07476 134.9 4.98943C134.751 4.9041 134.559 4.86143 134.324 4.86143C133.78 4.86143 133.343 5.02143 133.012 5.34143C132.681 5.66143 132.516 6.1041 132.516 6.66943V13.1174H131.588V6.73343C131.588 6.4881 131.572 6.25343 131.54 6.02943C131.519 5.80543 131.465 5.6081 131.38 5.43743C131.295 5.26676 131.161 5.13343 130.98 5.03743C130.809 4.93076 130.575 4.87743 130.276 4.87743C130.095 4.87743 129.903 4.9201 129.7 5.00543C129.497 5.09076 129.311 5.20276 129.14 5.34143C128.969 5.4801 128.831 5.6401 128.724 5.82143C128.617 6.00276 128.564 6.18943 128.564 6.38143V13.1174ZM139.236 8.65343C139.236 8.99476 139.241 9.38943 139.252 9.83743C139.263 10.2748 139.321 10.6961 139.428 11.1014C139.535 11.4961 139.711 11.8321 139.956 12.1094C140.201 12.3868 140.559 12.5254 141.028 12.5254C141.465 12.5254 141.801 12.3868 142.036 12.1094C142.271 11.8214 142.441 11.4801 142.548 11.0854C142.655 10.6908 142.713 10.2801 142.724 9.85343C142.745 9.42676 142.756 9.06943 142.756 8.78143C142.756 8.48276 142.745 8.11476 142.724 7.67743C142.713 7.22943 142.655 6.79743 142.548 6.38143C142.441 5.96543 142.271 5.61343 142.036 5.32543C141.812 5.02676 141.487 4.87743 141.06 4.87743C140.58 4.87743 140.212 5.01076 139.956 5.27743C139.711 5.5441 139.535 5.87476 139.428 6.26943C139.321 6.65343 139.263 7.0641 139.252 7.50143C139.241 7.93876 139.236 8.32276 139.236 8.65343ZM139.268 16.1574H138.308V4.28543H139.236V5.08543C139.449 4.7761 139.705 4.53076 140.004 4.34943C140.313 4.15743 140.655 4.06143 141.028 4.06143C141.636 4.06143 142.116 4.20543 142.468 4.49343C142.82 4.77076 143.087 5.1281 143.268 5.56543C143.449 5.9921 143.561 6.46676 143.604 6.98943C143.657 7.5121 143.684 8.0081 143.684 8.47743C143.684 8.95743 143.668 9.4801 143.636 10.0454C143.615 10.6108 143.524 11.1388 143.364 11.6294C143.204 12.1201 142.948 12.5308 142.596 12.8614C142.244 13.1814 141.748 13.3414 141.108 13.3414C140.713 13.3414 140.367 13.2668 140.068 13.1174C139.769 12.9681 139.503 12.7281 139.268 12.3974V16.1574ZM146.473 5.30943H146.505C146.74 4.8401 147.017 4.51476 147.337 4.33343C147.668 4.14143 148.089 4.05076 148.601 4.06143V5.03743C147.876 5.02676 147.348 5.23476 147.017 5.66143C146.687 6.07743 146.521 6.6321 146.521 7.32543V13.1174H145.593V4.28543H146.473V5.30943ZM154.574 8.65343H150.43C150.43 8.84543 150.43 9.07476 150.43 9.34143C150.43 9.59743 150.441 9.86943 150.462 10.1574C150.484 10.4454 150.521 10.7334 150.574 11.0214C150.638 11.2988 150.729 11.5494 150.846 11.7734C150.974 11.9974 151.134 12.1788 151.326 12.3174C151.529 12.4561 151.785 12.5254 152.094 12.5254C152.425 12.5254 152.686 12.4561 152.878 12.3174C153.07 12.1788 153.22 12.0028 153.326 11.7894C153.433 11.5654 153.508 11.3201 153.55 11.0534C153.593 10.7761 153.625 10.5041 153.646 10.2374H154.542C154.542 10.6428 154.5 11.0321 154.414 11.4054C154.329 11.7788 154.185 12.1094 153.982 12.3974C153.79 12.6854 153.534 12.9148 153.214 13.0854C152.905 13.2561 152.526 13.3414 152.078 13.3414C151.46 13.3414 150.974 13.1868 150.622 12.8774C150.281 12.5681 150.025 12.1841 149.854 11.7254C149.694 11.2561 149.593 10.7548 149.55 10.2214C149.518 9.6881 149.502 9.1921 149.502 8.73343C149.502 8.28543 149.518 7.79476 149.55 7.26143C149.593 6.71743 149.694 6.21076 149.854 5.74143C150.025 5.26143 150.281 4.86143 150.622 4.54143C150.964 4.22143 151.438 4.06143 152.046 4.06143C152.558 4.06143 152.974 4.17876 153.294 4.41343C153.625 4.63743 153.886 4.93076 154.078 5.29343C154.27 5.64543 154.398 6.0401 154.462 6.47743C154.537 6.91476 154.574 7.34143 154.574 7.75743V8.65343ZM153.646 7.83743C153.646 7.5601 153.63 7.25076 153.598 6.90943C153.577 6.55743 153.513 6.2321 153.406 5.93343C153.3 5.63476 153.134 5.3841 152.91 5.18143C152.697 4.97876 152.404 4.87743 152.03 4.87743C151.668 4.87743 151.38 4.9841 151.166 5.19743C150.964 5.41076 150.804 5.6721 150.686 5.98143C150.58 6.2801 150.51 6.6001 150.478 6.94143C150.446 7.28276 150.43 7.58143 150.43 7.83743H153.646ZM155.865 6.60543C155.79 5.80543 155.945 5.18143 156.329 4.73343C156.724 4.28543 157.326 4.06143 158.137 4.06143C158.905 4.06143 159.497 4.28543 159.913 4.73343C160.329 5.17076 160.537 5.77343 160.537 6.54143H159.625C159.604 6.0721 159.465 5.67743 159.209 5.35743C158.964 5.03743 158.596 4.87743 158.105 4.87743C157.657 4.87743 157.326 5.00543 157.113 5.26143C156.9 5.50676 156.793 5.8481 156.793 6.28543C156.793 6.63743 156.894 6.9201 157.097 7.13343C157.3 7.34676 157.556 7.5121 157.865 7.62943C158.26 7.81076 158.628 7.99743 158.969 8.18943C159.321 8.37076 159.63 8.5841 159.897 8.82943C160.164 9.07476 160.372 9.3681 160.521 9.70943C160.681 10.0401 160.761 10.4401 160.761 10.9094C160.761 11.6988 160.532 12.3014 160.073 12.7174C159.625 13.1334 159.017 13.3414 158.249 13.3414C157.385 13.3414 156.74 13.1174 156.313 12.6694C155.886 12.2108 155.673 11.5601 155.673 10.7174H156.617C156.66 11.2614 156.809 11.6988 157.065 12.0294C157.321 12.3601 157.737 12.5254 158.313 12.5254C158.804 12.5254 159.177 12.3654 159.433 12.0454C159.7 11.7254 159.833 11.3308 159.833 10.8614C159.833 10.4774 159.737 10.1574 159.545 9.90143C159.353 9.64543 159.113 9.42676 158.825 9.24543C158.548 9.0641 158.238 8.89876 157.897 8.74943C157.556 8.6001 157.236 8.43476 156.937 8.25343C156.649 8.06143 156.404 7.83743 156.201 7.58143C155.998 7.32543 155.886 7.0001 155.865 6.60543ZM162.084 6.60543C162.009 5.80543 162.164 5.18143 162.548 4.73343C162.943 4.28543 163.545 4.06143 164.356 4.06143C165.124 4.06143 165.716 4.28543 166.132 4.73343C166.548 5.17076 166.756 5.77343 166.756 6.54143H165.844C165.823 6.0721 165.684 5.67743 165.428 5.35743C165.183 5.03743 164.815 4.87743 164.324 4.87743C163.876 4.87743 163.545 5.00543 163.332 5.26143C163.119 5.50676 163.012 5.8481 163.012 6.28543C163.012 6.63743 163.113 6.9201 163.316 7.13343C163.519 7.34676 163.775 7.5121 164.084 7.62943C164.479 7.81076 164.847 7.99743 165.188 8.18943C165.54 8.37076 165.849 8.5841 166.116 8.82943C166.383 9.07476 166.591 9.3681 166.74 9.70943C166.9 10.0401 166.98 10.4401 166.98 10.9094C166.98 11.6988 166.751 12.3014 166.292 12.7174C165.844 13.1334 165.236 13.3414 164.468 13.3414C163.604 13.3414 162.959 13.1174 162.532 12.6694C162.105 12.2108 161.892 11.5601 161.892 10.7174H162.836C162.879 11.2614 163.028 11.6988 163.284 12.0294C163.54 12.3601 163.956 12.5254 164.532 12.5254C165.023 12.5254 165.396 12.3654 165.652 12.0454C165.919 11.7254 166.052 11.3308 166.052 10.8614C166.052 10.4774 165.956 10.1574 165.764 9.90143C165.572 9.64543 165.332 9.42676 165.044 9.24543C164.767 9.0641 164.457 8.89876 164.116 8.74943C163.775 8.6001 163.455 8.43476 163.156 8.25343C162.868 8.06143 162.623 7.83743 162.42 7.58143C162.217 7.32543 162.105 7.0001 162.084 6.60543ZM173.231 8.65343H169.087C169.087 8.84543 169.087 9.07476 169.087 9.34143C169.087 9.59743 169.097 9.86943 169.119 10.1574C169.14 10.4454 169.177 10.7334 169.231 11.0214C169.295 11.2988 169.385 11.5494 169.503 11.7734C169.631 11.9974 169.791 12.1788 169.983 12.3174C170.185 12.4561 170.441 12.5254 170.751 12.5254C171.081 12.5254 171.343 12.4561 171.535 12.3174C171.727 12.1788 171.876 12.0028 171.983 11.7894C172.089 11.5654 172.164 11.3201 172.207 11.0534C172.249 10.7761 172.281 10.5041 172.303 10.2374H173.199C173.199 10.6428 173.156 11.0321 173.071 11.4054C172.985 11.7788 172.841 12.1094 172.639 12.3974C172.447 12.6854 172.191 12.9148 171.871 13.0854C171.561 13.2561 171.183 13.3414 170.735 13.3414C170.116 13.3414 169.631 13.1868 169.279 12.8774C168.937 12.5681 168.681 12.1841 168.511 11.7254C168.351 11.2561 168.249 10.7548 168.207 10.2214C168.175 9.6881 168.159 9.1921 168.159 8.73343C168.159 8.28543 168.175 7.79476 168.207 7.26143C168.249 6.71743 168.351 6.21076 168.511 5.74143C168.681 5.26143 168.937 4.86143 169.279 4.54143C169.62 4.22143 170.095 4.06143 170.703 4.06143C171.215 4.06143 171.631 4.17876 171.951 4.41343C172.281 4.63743 172.543 4.93076 172.735 5.29343C172.927 5.64543 173.055 6.0401 173.119 6.47743C173.193 6.91476 173.231 7.34143 173.231 7.75743V8.65343ZM172.303 7.83743C172.303 7.5601 172.287 7.25076 172.255 6.90943C172.233 6.55743 172.169 6.2321 172.063 5.93343C171.956 5.63476 171.791 5.3841 171.567 5.18143C171.353 4.97876 171.06 4.87743 170.687 4.87743C170.324 4.87743 170.036 4.9841 169.823 5.19743C169.62 5.41076 169.46 5.6721 169.343 5.98143C169.236 6.2801 169.167 6.6001 169.135 6.94143C169.103 7.28276 169.087 7.58143 169.087 7.83743H172.303ZM177.225 4.87743C176.788 4.87743 176.447 5.02676 176.201 5.32543C175.967 5.6241 175.791 5.98676 175.673 6.41343C175.567 6.82943 175.503 7.26676 175.481 7.72543C175.46 8.17343 175.449 8.54676 175.449 8.84543C175.449 9.15476 175.46 9.52276 175.481 9.94943C175.513 10.3654 175.588 10.7654 175.705 11.1494C175.823 11.5334 176.004 11.8588 176.249 12.1254C176.495 12.3921 176.836 12.5254 177.273 12.5254C177.583 12.5254 177.839 12.4508 178.041 12.3014C178.255 12.1521 178.425 11.9548 178.553 11.7094C178.681 11.4641 178.777 11.1868 178.841 10.8774C178.905 10.5681 178.948 10.2588 178.969 9.94943C178.991 9.6401 179.001 9.34143 179.001 9.05343C179.001 8.76543 179.001 8.5201 179.001 8.31743C179.001 8.01876 178.985 7.6721 178.953 7.27743C178.932 6.88276 178.863 6.50943 178.745 6.15743C178.628 5.79476 178.452 5.49076 178.217 5.24543C177.983 5.0001 177.652 4.87743 177.225 4.87743ZM179.001 1.11743H179.929V13.1174H179.001V12.2854H178.969C178.788 12.6481 178.532 12.9148 178.201 13.0854C177.871 13.2561 177.492 13.3414 177.065 13.3414C176.468 13.3414 175.999 13.1814 175.657 12.8614C175.316 12.5414 175.06 12.1468 174.889 11.6774C174.729 11.1974 174.628 10.6908 174.585 10.1574C174.543 9.61343 174.521 9.11743 174.521 8.66943C174.521 8.22143 174.543 7.73076 174.585 7.19743C174.639 6.6641 174.751 6.1681 174.921 5.70943C175.092 5.2401 175.348 4.85076 175.689 4.54143C176.031 4.22143 176.5 4.06143 177.097 4.06143C177.449 4.06143 177.791 4.14676 178.121 4.31743C178.452 4.47743 178.735 4.70676 178.969 5.00543H179.001V1.11743Z" fill="black"/>
<path d="M1.79301 26.4054C2.19834 26.3948 2.56101 26.3574 2.88101 26.2934C3.20101 26.2294 3.47301 26.1174 3.69701 25.9574C3.93167 25.7974 4.11834 25.5788 4.25701 25.3014C4.39567 25.0241 4.48634 24.6614 4.52901 24.2134H5.37701V36.1174H4.33701V26.9654C4.12367 27.0081 3.92101 27.0348 3.72901 27.0454C3.53701 27.0561 3.33967 27.0721 3.13701 27.0934C2.91301 27.1148 2.68901 27.1361 2.46501 27.1574C2.24101 27.1681 2.01701 27.1681 1.79301 27.1574V26.4054ZM14.2784 35.1414V36.1174H8.48638V35.2854C8.50772 34.8054 8.57172 34.4108 8.67838 34.1014C8.78505 33.7814 8.92905 33.4934 9.11038 33.2374C9.30238 32.9814 9.52638 32.7308 9.78238 32.4854C10.0384 32.2401 10.3264 31.9574 10.6464 31.6374C11.0517 31.2214 11.4144 30.8534 11.7344 30.5334C12.0544 30.2134 12.3264 29.8988 12.5504 29.5894C12.7744 29.2801 12.945 28.9494 13.0624 28.5974C13.1797 28.2348 13.2384 27.8028 13.2384 27.3014C13.2384 27.0668 13.2064 26.8214 13.1424 26.5654C13.089 26.3094 12.9984 26.0748 12.8704 25.8614C12.7424 25.6481 12.5824 25.4721 12.3904 25.3334C12.1984 25.1841 11.969 25.0988 11.7024 25.0774C11.265 25.0241 10.9077 25.0668 10.6304 25.2054C10.3637 25.3441 10.1504 25.5414 9.99038 25.7974C9.84105 26.0534 9.73438 26.3574 9.67038 26.7094C9.61705 27.0508 9.58505 27.3974 9.57438 27.7494H8.58238C8.56105 27.2801 8.60372 26.8321 8.71038 26.4054C8.81705 25.9788 8.98772 25.6054 9.22238 25.2854C9.45705 24.9548 9.75572 24.6934 10.1184 24.5014C10.4917 24.3094 10.9344 24.2134 11.4464 24.2134C11.8624 24.2134 12.241 24.2881 12.5824 24.4374C12.9344 24.5868 13.233 24.8001 13.4784 25.0774C13.7344 25.3548 13.9317 25.6908 14.0704 26.0854C14.209 26.4694 14.2784 26.9068 14.2784 27.3974C14.2784 28.0374 14.1397 28.6348 13.8624 29.1894C13.5957 29.7441 13.2544 30.2668 12.8384 30.7574C12.433 31.2481 11.9904 31.7121 11.5104 32.1494C11.041 32.5868 10.5984 33.0134 10.1824 33.4294C10.0864 33.5254 9.95305 33.7228 9.78238 34.0214C9.62238 34.3094 9.53705 34.6828 9.52638 35.1414H14.2784ZM17.4198 30.4694V29.6054H17.7398C19.3291 29.6054 20.1238 28.8108 20.1238 27.2214C20.1238 26.9548 20.0918 26.6934 20.0278 26.4374C19.9744 26.1708 19.8838 25.9414 19.7558 25.7494C19.6278 25.5468 19.4571 25.3868 19.2438 25.2694C19.0304 25.1414 18.7638 25.0774 18.4438 25.0774C18.1131 25.0774 17.8411 25.1521 17.6278 25.3014C17.4144 25.4401 17.2438 25.6214 17.1158 25.8454C16.9878 26.0694 16.8971 26.3201 16.8438 26.5974C16.7904 26.8748 16.7531 27.1468 16.7318 27.4134H15.7878C15.7878 27.0081 15.8358 26.6134 15.9318 26.2294C16.0278 25.8454 16.1771 25.5041 16.3798 25.2054C16.5931 24.9068 16.8598 24.6668 17.1798 24.4854C17.5104 24.3041 17.9051 24.2134 18.3638 24.2134C18.8331 24.2134 19.2438 24.2934 19.5958 24.4534C19.9478 24.6028 20.2358 24.8161 20.4598 25.0934C20.6944 25.3708 20.8704 25.7014 20.9878 26.0854C21.1051 26.4588 21.1638 26.8641 21.1638 27.3014C21.1638 27.4188 21.1478 27.5948 21.1158 27.8294C21.0838 28.0534 21.0091 28.2988 20.8918 28.5654C20.7744 28.8214 20.5984 29.0774 20.3638 29.3334C20.1398 29.5788 19.8251 29.7868 19.4198 29.9574C19.8358 30.0534 20.1771 30.2081 20.4438 30.4214C20.7104 30.6348 20.9184 30.8854 21.0678 31.1734C21.2171 31.4508 21.3184 31.7494 21.3718 32.0694C21.4358 32.3788 21.4678 32.6828 21.4678 32.9814C21.4678 33.5254 21.4038 33.9841 21.2758 34.3574C21.1584 34.7308 21.0038 35.0454 20.8118 35.3014C20.6198 35.5468 20.4064 35.7388 20.1718 35.8774C19.9371 36.0161 19.7078 36.1174 19.4838 36.1814C19.2598 36.2561 19.0571 36.2988 18.8758 36.3094C18.6944 36.3308 18.5611 36.3414 18.4758 36.3414C18.4438 36.3414 18.3478 36.3361 18.1878 36.3254C18.0278 36.3254 17.8358 36.2988 17.6118 36.2454C17.3878 36.2028 17.1531 36.1174 16.9078 35.9894C16.6624 35.8614 16.4331 35.6748 16.2198 35.4294C16.0171 35.1841 15.8464 34.8694 15.7078 34.4854C15.5798 34.0908 15.5211 33.6001 15.5318 33.0134H16.5078C16.5184 33.3334 16.5504 33.6428 16.6038 33.9414C16.6678 34.2401 16.7744 34.5068 16.9238 34.7414C17.0731 34.9654 17.2704 35.1468 17.5158 35.2854C17.7611 35.4134 18.0704 35.4774 18.4438 35.4774C18.8064 35.4774 19.1158 35.4081 19.3718 35.2694C19.6278 35.1201 19.8304 34.9281 19.9798 34.6934C20.1398 34.4588 20.2518 34.1921 20.3158 33.8934C20.3904 33.5841 20.4278 33.2694 20.4278 32.9494C20.4278 32.7254 20.4011 32.4748 20.3478 32.1974C20.2944 31.9201 20.1824 31.6588 20.0118 31.4134C19.8518 31.1574 19.6171 30.9441 19.3078 30.7734C19.0091 30.5921 18.6144 30.4908 18.1238 30.4694H17.4198ZM26.7211 24.2134H27.6971V32.0534H28.7531V32.9174H27.6971V36.1174H26.6571V32.9174H22.6091V31.9574L26.7211 24.2134ZM26.6571 32.0534V26.0854H26.6251L23.5531 32.0534H26.6571ZM30.7265 33.2694C30.7372 33.5574 30.7745 33.8348 30.8385 34.1014C30.9132 34.3574 31.0145 34.5921 31.1425 34.8054C31.2812 35.0081 31.4625 35.1734 31.6865 35.3014C31.9105 35.4188 32.1878 35.4774 32.5185 35.4774C32.9345 35.4774 33.2758 35.3814 33.5425 35.1894C33.8092 34.9974 34.0172 34.7521 34.1665 34.4534C34.3265 34.1441 34.4385 33.7974 34.5025 33.4134C34.5665 33.0188 34.5985 32.6294 34.5985 32.2454C34.5985 31.8721 34.5665 31.5094 34.5025 31.1574C34.4492 30.7948 34.3478 30.4801 34.1985 30.2134C34.0492 29.9361 33.8412 29.7174 33.5745 29.5574C33.3078 29.3868 32.9665 29.3014 32.5505 29.3014C32.1772 29.3014 31.8465 29.4081 31.5585 29.6214C31.2705 29.8348 31.0518 30.1121 30.9025 30.4534H30.0225L30.7105 24.4374H35.1585V25.4134H31.5745L31.1265 29.0454C31.3612 28.8001 31.6278 28.6401 31.9265 28.5654C32.2358 28.4801 32.5185 28.4374 32.7745 28.4374C33.3292 28.4374 33.7878 28.5494 34.1505 28.7734C34.5238 28.9974 34.8172 29.2908 35.0305 29.6534C35.2545 30.0054 35.4092 30.4108 35.4945 30.8694C35.5905 31.3281 35.6385 31.7974 35.6385 32.2774C35.6385 32.7894 35.5852 33.2908 35.4785 33.7814C35.3718 34.2721 35.1958 34.7094 34.9505 35.0934C34.7052 35.4668 34.3852 35.7708 33.9905 36.0054C33.5958 36.2294 33.1105 36.3414 32.5345 36.3414C32.0332 36.3414 31.6065 36.2668 31.2545 36.1174C30.9132 35.9681 30.6252 35.7601 30.3905 35.4934C30.1665 35.2161 29.9958 34.8908 29.8785 34.5174C29.7718 34.1334 29.7132 33.7174 29.7025 33.2694H30.7265ZM39.9319 29.4614C39.5479 29.4614 39.2279 29.5468 38.9719 29.7174C38.7265 29.8774 38.5292 30.0908 38.3799 30.3574C38.2412 30.6241 38.1452 30.9174 38.0919 31.2374C38.0385 31.5574 38.0119 31.8774 38.0119 32.1974C38.0119 32.5068 38.0385 32.8534 38.0919 33.2374C38.1452 33.6214 38.2412 33.9788 38.3799 34.3094C38.5185 34.6401 38.7105 34.9174 38.9559 35.1414C39.2119 35.3654 39.5425 35.4774 39.9479 35.4774C40.3319 35.4774 40.6465 35.3761 40.8919 35.1734C41.1372 34.9601 41.3292 34.6988 41.4679 34.3894C41.6172 34.0801 41.7185 33.7494 41.7719 33.3974C41.8359 33.0348 41.8679 32.7041 41.8679 32.4054C41.8679 32.0854 41.8412 31.7548 41.7879 31.4134C41.7345 31.0614 41.6385 30.7414 41.4999 30.4534C41.3612 30.1654 41.1639 29.9308 40.9079 29.7494C40.6519 29.5574 40.3265 29.4614 39.9319 29.4614ZM39.9959 36.3414C39.5265 36.3414 39.1265 36.2561 38.7959 36.0854C38.4652 35.9148 38.1879 35.6854 37.9639 35.3974C37.7399 35.1094 37.5639 34.7841 37.4359 34.4214C37.3079 34.0481 37.2065 33.6588 37.1319 33.2534C37.0679 32.8481 37.0252 32.4481 37.0039 32.0534C36.9825 31.6481 36.9719 31.2748 36.9719 30.9334C36.9932 30.5708 37.0092 30.1548 37.0199 29.6854C37.0305 29.2054 37.0625 28.7201 37.1159 28.2294C37.1692 27.7281 37.2545 27.2374 37.3719 26.7574C37.4892 26.2774 37.6652 25.8508 37.8999 25.4774C38.1345 25.0934 38.4332 24.7894 38.7959 24.5654C39.1585 24.3308 39.6119 24.2134 40.1559 24.2134C40.5292 24.2134 40.8705 24.2774 41.1799 24.4054C41.4892 24.5334 41.7505 24.7094 41.9639 24.9334C42.1879 25.1574 42.3585 25.4348 42.4759 25.7654C42.6039 26.0854 42.6679 26.4428 42.6679 26.8374H41.7079C41.6865 26.5708 41.6385 26.3308 41.5639 26.1174C41.4999 25.9041 41.4039 25.7228 41.2759 25.5734C41.1479 25.4134 40.9825 25.2908 40.7799 25.2054C40.5879 25.1201 40.3479 25.0774 40.0599 25.0774C39.8145 25.0774 39.5959 25.1361 39.4039 25.2534C39.2225 25.3708 39.0625 25.5201 38.9239 25.7014C38.7852 25.8828 38.6679 26.0854 38.5719 26.3094C38.4759 26.5228 38.4065 26.7308 38.3639 26.9334C38.2679 27.3494 38.1879 27.7814 38.1239 28.2294C38.0705 28.6668 38.0332 29.1681 38.0119 29.7334H38.0439C38.3212 29.3814 38.6252 29.1041 38.9559 28.9014C39.2972 28.6988 39.6972 28.5974 40.1559 28.5974C40.6892 28.5974 41.1319 28.7201 41.4839 28.9654C41.8465 29.2001 42.1292 29.5041 42.3319 29.8774C42.5452 30.2401 42.6945 30.6454 42.7799 31.0934C42.8652 31.5308 42.9079 31.9468 42.9079 32.3414C42.9079 32.7361 42.8652 33.1681 42.7799 33.6374C42.7052 34.1068 42.5612 34.5441 42.3479 34.9494C42.1345 35.3441 41.8359 35.6748 41.4519 35.9414C41.0785 36.2081 40.5932 36.3414 39.9959 36.3414ZM44.3053 24.4374H50.0813V25.3814C49.8253 25.7014 49.5639 26.0908 49.2973 26.5494C49.0306 26.9974 48.7799 27.4614 48.5453 27.9414C48.3106 28.4108 48.0973 28.8641 47.9053 29.3014C47.7133 29.7388 47.5639 30.1014 47.4573 30.3894C47.0839 31.3921 46.8173 32.3628 46.6573 33.3014C46.5079 34.2294 46.3959 35.1681 46.3213 36.1174H45.2813C45.3239 35.2748 45.4359 34.3841 45.6173 33.4454C45.7986 32.4961 46.0493 31.5521 46.3693 30.6134C46.6893 29.6641 47.0733 28.7468 47.5213 27.8614C47.9693 26.9654 48.4759 26.1494 49.0413 25.4134H44.3053V24.4374ZM54.1186 30.2934C53.564 30.2934 53.1053 30.4961 52.7426 30.9014C52.3906 31.3068 52.2146 31.9414 52.2146 32.8054C52.2146 33.1254 52.2466 33.4454 52.3106 33.7654C52.3746 34.0748 52.476 34.3574 52.6146 34.6134C52.764 34.8588 52.956 35.0614 53.1906 35.2214C53.4253 35.3814 53.7133 35.4668 54.0546 35.4774C54.46 35.4774 54.7906 35.4028 55.0466 35.2534C55.3133 35.1041 55.5213 34.9068 55.6706 34.6614C55.8306 34.4054 55.9426 34.1174 56.0066 33.7974C56.0706 33.4774 56.1026 33.1468 56.1026 32.8054C56.1026 32.4641 56.0706 32.1441 56.0066 31.8454C55.9426 31.5361 55.836 31.2694 55.6866 31.0454C55.5373 30.8108 55.3346 30.6294 55.0786 30.5014C54.8226 30.3628 54.5026 30.2934 54.1186 30.2934ZM54.1346 25.0774C53.8466 25.0774 53.6066 25.1361 53.4146 25.2534C53.2226 25.3708 53.068 25.5201 52.9506 25.7014C52.8333 25.8721 52.7426 26.0588 52.6786 26.2614C52.6253 26.4641 52.588 26.6508 52.5666 26.8214C52.5453 26.9921 52.5346 27.1361 52.5346 27.2534C52.5346 27.3708 52.5346 27.4241 52.5346 27.4134H52.5666C52.5666 27.6801 52.5933 27.9361 52.6466 28.1814C52.7 28.4268 52.7906 28.6401 52.9186 28.8214C53.0466 29.0028 53.212 29.1521 53.4146 29.2694C53.628 29.3761 53.884 29.4294 54.1826 29.4294C54.4813 29.4294 54.732 29.3654 54.9346 29.2374C55.1373 29.1094 55.2973 28.9441 55.4146 28.7414C55.5426 28.5281 55.628 28.2934 55.6706 28.0374C55.724 27.7814 55.7506 27.5254 55.7506 27.2694C55.7506 26.9921 55.724 26.7254 55.6706 26.4694C55.628 26.2028 55.5426 25.9681 55.4146 25.7654C55.2973 25.5521 55.132 25.3868 54.9186 25.2694C54.716 25.1414 54.4546 25.0774 54.1346 25.0774ZM52.8706 29.7494C52.604 29.6428 52.3853 29.5041 52.2146 29.3334C52.044 29.1521 51.9106 28.9494 51.8146 28.7254C51.7186 28.5014 51.6546 28.2614 51.6226 28.0054C51.5906 27.7388 51.5746 27.4721 51.5746 27.2054C51.5746 26.8001 51.628 26.4161 51.7346 26.0534C51.8413 25.6908 52.0013 25.3761 52.2146 25.1094C52.428 24.8321 52.6946 24.6134 53.0146 24.4534C53.3346 24.2934 53.7133 24.2134 54.1506 24.2134C54.62 24.2134 55.02 24.2934 55.3506 24.4534C55.6813 24.6134 55.948 24.8321 56.1506 25.1094C56.364 25.3868 56.5133 25.7174 56.5986 26.1014C56.6946 26.4748 56.7426 26.8748 56.7426 27.3014C56.7426 27.5468 56.7213 27.7974 56.6786 28.0534C56.636 28.2988 56.5613 28.5281 56.4546 28.7414C56.3586 28.9548 56.2253 29.1521 56.0546 29.3334C55.8946 29.5041 55.6973 29.6428 55.4626 29.7494V29.7814C55.7933 29.9414 56.0653 30.1388 56.2786 30.3734C56.492 30.5974 56.6626 30.8428 56.7906 31.1094C56.9186 31.3654 57.0093 31.6428 57.0626 31.9414C57.116 32.2401 57.1426 32.5441 57.1426 32.8534C57.1426 33.4721 57.0786 33.9894 56.9506 34.4054C56.8226 34.8108 56.6573 35.1414 56.4546 35.3974C56.252 35.6534 56.0226 35.8454 55.7666 35.9734C55.5213 36.1014 55.276 36.1921 55.0306 36.2454C54.796 36.2988 54.5773 36.3254 54.3746 36.3254C54.172 36.3361 54.0173 36.3414 53.9106 36.3414C53.5266 36.3521 53.164 36.2774 52.8226 36.1174C52.492 35.9574 52.204 35.7281 51.9586 35.4294C51.7133 35.1201 51.5213 34.7521 51.3826 34.3254C51.244 33.8988 51.1746 33.4241 51.1746 32.9014C51.1746 32.5814 51.196 32.2774 51.2386 31.9894C51.292 31.6908 51.3773 31.4081 51.4946 31.1414C51.6226 30.8748 51.7933 30.6294 52.0066 30.4054C52.2306 30.1708 52.5186 29.9628 52.8706 29.7814V29.7494ZM61.244 25.0774C60.86 25.0774 60.5453 25.1841 60.3 25.3974C60.0653 25.6108 59.8787 25.8721 59.74 26.1814C59.6013 26.4908 59.5053 26.8268 59.452 27.1894C59.4093 27.5414 59.388 27.8668 59.388 28.1654C59.388 28.4854 59.4093 28.8214 59.452 29.1734C59.4947 29.5148 59.5853 29.8294 59.724 30.1174C59.8627 30.4054 60.0493 30.6454 60.284 30.8374C60.5293 31.0188 60.8547 31.1094 61.26 31.1094C61.644 31.1094 61.9587 31.0294 62.204 30.8694C62.4493 30.6988 62.6413 30.4801 62.78 30.2134C62.9187 29.9468 63.0147 29.6534 63.068 29.3334C63.1213 29.0134 63.148 28.6934 63.148 28.3734C63.148 28.0641 63.1213 27.7174 63.068 27.3334C63.0253 26.9494 62.9347 26.5921 62.796 26.2614C62.6573 25.9201 62.46 25.6374 62.204 25.4134C61.9587 25.1894 61.6387 25.0774 61.244 25.0774ZM61.244 24.2134C61.9267 24.2134 62.4653 24.3948 62.86 24.7574C63.2547 25.1201 63.548 25.5734 63.74 26.1174C63.9427 26.6508 64.0653 27.2268 64.108 27.8454C64.1613 28.4641 64.188 29.0294 64.188 29.5414C64.1667 29.9148 64.1507 30.3414 64.14 30.8214C64.14 31.3014 64.1133 31.7921 64.06 32.2934C64.0173 32.7948 63.9373 33.2908 63.82 33.7814C63.7133 34.2614 63.548 34.6934 63.324 35.0774C63.1 35.4508 62.8013 35.7548 62.428 35.9894C62.0653 36.2241 61.6067 36.3414 61.052 36.3414C60.316 36.3308 59.7187 36.0961 59.26 35.6374C58.8013 35.1681 58.572 34.5334 58.572 33.7334H59.532C59.5747 34.2668 59.7133 34.6934 59.948 35.0134C60.1933 35.3228 60.604 35.4774 61.18 35.4774C61.4147 35.4774 61.628 35.4188 61.82 35.3014C62.012 35.1841 62.1773 35.0401 62.316 34.8694C62.4547 34.6881 62.5667 34.4908 62.652 34.2774C62.748 34.0534 62.8227 33.8401 62.876 33.6374C62.972 33.2214 63.0413 32.7948 63.084 32.3574C63.1267 31.9094 63.148 31.4028 63.148 30.8374H63.116C62.8707 31.1894 62.5827 31.4668 62.252 31.6694C61.932 31.8721 61.5427 31.9734 61.084 31.9734C60.5507 31.9734 60.108 31.8561 59.756 31.6214C59.404 31.3761 59.1213 31.0721 58.908 30.7094C58.7053 30.3361 58.5613 29.9308 58.476 29.4934C58.3907 29.0454 58.348 28.6241 58.348 28.2294C58.348 27.8348 58.3853 27.4028 58.46 26.9334C58.5347 26.4641 58.6787 26.0321 58.892 25.6374C59.1053 25.2321 59.3987 24.8961 59.772 24.6294C60.156 24.3521 60.6467 24.2134 61.244 24.2134ZM65.4094 30.1974C65.4094 28.9174 65.4894 27.8881 65.6494 27.1094C65.82 26.3308 66.0387 25.7281 66.3054 25.3014C66.5827 24.8641 66.9027 24.5761 67.2654 24.4374C67.628 24.2881 68.012 24.2134 68.4174 24.2134C68.94 24.2134 69.3774 24.3308 69.7294 24.5654C70.0814 24.7894 70.364 25.0881 70.5774 25.4614C70.7907 25.8241 70.9507 26.2401 71.0574 26.7094C71.164 27.1681 71.2334 27.6321 71.2654 28.1014C71.308 28.5601 71.3294 28.9974 71.3294 29.4134C71.3294 29.8294 71.3294 30.1814 71.3294 30.4694C71.3294 31.1841 71.3027 31.8934 71.2494 32.5974C71.196 33.3014 71.0627 33.9308 70.8494 34.4854C70.6467 35.0401 70.3427 35.4881 69.9374 35.8294C69.5427 36.1708 69.004 36.3414 68.3214 36.3414C67.6707 36.3414 67.1534 36.1761 66.7694 35.8454C66.3854 35.5148 66.092 35.0721 65.8894 34.5174C65.6867 33.9521 65.5534 33.2961 65.4894 32.5494C65.436 31.8028 65.4094 31.0188 65.4094 30.1974ZM66.4494 30.4694C66.4494 31.3974 66.4814 32.1814 66.5454 32.8214C66.62 33.4508 66.7267 33.9628 66.8654 34.3574C67.0147 34.7521 67.2067 35.0401 67.4414 35.2214C67.676 35.3921 67.964 35.4774 68.3054 35.4774C68.4227 35.4774 68.5507 35.4721 68.6894 35.4614C68.828 35.4401 68.972 35.3814 69.1214 35.2854C69.2707 35.1894 69.4147 35.0401 69.5534 34.8374C69.692 34.6241 69.8147 34.3308 69.9214 33.9574C70.0387 33.5841 70.1294 33.1094 70.1934 32.5334C70.2574 31.9468 70.2894 31.2321 70.2894 30.3894C70.2894 29.6214 70.2734 28.9121 70.2414 28.2614C70.2094 27.6108 70.124 27.0508 69.9854 26.5814C69.8574 26.1121 69.66 25.7441 69.3934 25.4774C69.1267 25.2108 68.7534 25.0774 68.2734 25.0774C67.9427 25.0774 67.66 25.1681 67.4254 25.3494C67.2014 25.5308 67.0147 25.8294 66.8654 26.2454C66.7267 26.6614 66.62 27.2161 66.5454 27.9094C66.4814 28.5921 66.4494 29.4454 66.4494 30.4694Z" fill="black"/>
</svg>
