<svg width="128" height="46" viewBox="0 0 128 46" fill="none" xmlns="http://www.w3.org/2000/svg">
<path d="M2.00391 2.80103H4.89453V14.7151H9.03516V2.80103H11.916V14.7151H16.1934V2.80103H19.0742L19.0938 17.1272L2.00391 17.1174V2.80103ZM21.9551 6.74634H24.5137V8.26978C24.8457 7.74894 25.2949 7.32576 25.8613 7.00024C26.4277 6.67472 27.056 6.51196 27.7461 6.51196C28.9505 6.51196 29.9727 6.98397 30.8125 7.92798C31.6523 8.87199 32.0723 10.1871 32.0723 11.8733C32.0723 13.6051 31.6491 14.9527 30.8027 15.9163C29.9564 16.8733 28.931 17.3518 27.7266 17.3518C27.1536 17.3518 26.6328 17.2379 26.1641 17.01C25.7018 16.7821 25.2135 16.3915 24.6992 15.8381V21.0627H21.9551V6.74634ZM24.6699 11.7561C24.6699 12.9215 24.901 13.7841 25.3633 14.344C25.8255 14.8974 26.3887 15.1741 27.0527 15.1741C27.6908 15.1741 28.2214 14.9202 28.6445 14.4124C29.0677 13.898 29.2793 13.0582 29.2793 11.8928C29.2793 10.8056 29.0612 9.99829 28.625 9.47095C28.1888 8.9436 27.6484 8.67993 27.0039 8.67993C26.3333 8.67993 25.7767 8.94035 25.334 9.46118C24.8913 9.9755 24.6699 10.7405 24.6699 11.7561ZM34.1914 6.74634H36.8281V13.26L41.0469 6.74634H43.7422V17.1174H41.1055V10.4866L36.8281 17.1174H34.1914V6.74634ZM52.5312 2.80103H55.2559V8.0647C55.5879 7.55037 55.985 7.16626 56.4473 6.91235C56.9095 6.65194 57.4368 6.52173 58.0293 6.52173C59.1426 6.52173 60.0508 7.06209 60.7539 8.14282C61.4635 9.21704 61.8184 10.5028 61.8184 12.0002C61.8184 13.5042 61.4212 14.7737 60.627 15.8088C59.8392 16.8375 58.9049 17.3518 57.8242 17.3518C57.3359 17.3518 56.877 17.2314 56.4473 16.9905C56.0176 16.7431 55.6204 16.3785 55.2559 15.8967V21.0627H52.5312V15.8967C52.1341 16.3785 51.7077 16.7431 51.252 16.9905C50.8027 17.2314 50.3242 17.3518 49.8164 17.3518C48.6966 17.3518 47.7721 16.8342 47.043 15.7991C46.3138 14.7639 45.9492 13.4618 45.9492 11.8928C45.9492 10.3368 46.3659 9.05103 47.1992 8.0354C48.0326 7.01978 48.9342 6.51196 49.9043 6.51196C50.4316 6.51196 50.9134 6.63566 51.3496 6.88306C51.7858 7.13045 52.1797 7.50155 52.5312 7.99634V2.80103ZM50.6953 8.61157C50.1875 8.61157 49.7415 8.91756 49.3574 9.52954C48.9798 10.135 48.791 10.9358 48.791 11.9319C48.791 12.9345 48.9668 13.7385 49.3184 14.344C49.6764 14.9495 50.1191 15.2522 50.6465 15.2522C51.1803 15.2522 51.6328 14.9495 52.0039 14.344C52.375 13.7385 52.5605 12.9117 52.5605 11.8635C52.5605 10.7242 52.3587 9.89738 51.9551 9.38306C51.5514 8.86873 51.1315 8.61157 50.6953 8.61157ZM57.1113 8.6311C56.5514 8.6311 56.0957 8.95988 55.7441 9.61743C55.3926 10.2685 55.2168 11.0855 55.2168 12.0686C55.2168 13.0517 55.4023 13.8329 55.7734 14.4124C56.151 14.9853 56.597 15.2717 57.1113 15.2717C57.6257 15.2717 58.0684 14.9462 58.4395 14.2952C58.8105 13.6441 58.9961 12.8759 58.9961 11.9905C58.9961 11.0465 58.8268 10.2522 58.4883 9.60767C58.1497 8.95662 57.6908 8.6311 57.1113 8.6311ZM62.5605 6.74634H71.9453V8.96313H68.625V17.1174H65.8809V8.96313H62.5605V6.74634ZM92.0918 17.1174H88.9473L87.6973 13.8655H81.9746L80.793 17.1174H77.7266L83.3027 2.80103H86.3594L92.0918 17.1174ZM86.7695 11.4534L84.7969 6.14087L82.8633 11.4534H86.7695ZM96.2422 17.1174H93.498V6.74634H96.0469V8.22095C96.4831 7.52433 96.8737 7.06535 97.2188 6.84399C97.5703 6.62264 97.9674 6.51196 98.4102 6.51196C99.0352 6.51196 99.6374 6.68449 100.217 7.02954L99.3672 9.42212C98.9049 9.12264 98.4753 8.9729 98.0781 8.9729C97.694 8.9729 97.3685 9.08032 97.1016 9.29517C96.8346 9.5035 96.623 9.88436 96.4668 10.4377C96.3171 10.9911 96.2422 12.15 96.2422 13.9143V17.1174ZM101.408 5.34009V2.80103H104.152V5.34009H101.408ZM101.408 17.1174V6.74634H104.152V17.1174H101.408ZM109.025 9.9104L106.535 9.46118C106.815 8.45858 107.297 7.71639 107.98 7.23462C108.664 6.75285 109.68 6.51196 111.027 6.51196C112.251 6.51196 113.163 6.65845 113.762 6.95142C114.361 7.23787 114.781 7.60571 115.021 8.05493C115.269 8.49764 115.393 9.3147 115.393 10.5061L115.363 13.7092C115.363 14.6207 115.406 15.2945 115.49 15.7307C115.581 16.1604 115.747 16.6226 115.988 17.1174H113.273C113.202 16.9351 113.114 16.665 113.01 16.3069C112.964 16.1441 112.932 16.0367 112.912 15.9846C112.443 16.4403 111.942 16.7821 111.408 17.01C110.874 17.2379 110.305 17.3518 109.699 17.3518C108.632 17.3518 107.788 17.0621 107.17 16.4827C106.558 15.9032 106.252 15.1708 106.252 14.2854C106.252 13.6995 106.392 13.1786 106.672 12.7229C106.952 12.2607 107.342 11.9091 107.844 11.6682C108.352 11.4208 109.081 11.206 110.031 11.0237C111.314 10.7828 112.202 10.5582 112.697 10.3499V10.0764C112.697 9.54907 112.567 9.17472 112.307 8.95337C112.046 8.7255 111.555 8.61157 110.832 8.61157C110.344 8.61157 109.963 8.70923 109.689 8.90454C109.416 9.09334 109.195 9.42863 109.025 9.9104ZM112.697 12.137C112.346 12.2542 111.789 12.3941 111.027 12.5569C110.266 12.7196 109.768 12.8792 109.533 13.0354C109.175 13.2893 108.996 13.6116 108.996 14.0022C108.996 14.3863 109.139 14.7183 109.426 14.9983C109.712 15.2782 110.077 15.4182 110.52 15.4182C111.014 15.4182 111.486 15.2555 111.936 14.9299C112.268 14.6825 112.486 14.3798 112.59 14.0217C112.661 13.7874 112.697 13.3414 112.697 12.6838V12.137ZM118.107 17.1174V2.80103H120.852V17.1174H118.107Z" fill="black"/>
<path d="M8.37109 42.1174H5.62695V31.7756C4.62435 32.7131 3.44271 33.4065 2.08203 33.8557V31.3655C2.79818 31.1311 3.57617 30.6884 4.41602 30.0374C5.25586 29.3798 5.83203 28.6148 6.14453 27.7424H8.37109V42.1174ZM21.75 39.5686V42.1174H12.1309C12.235 41.1539 12.5475 40.2424 13.0684 39.3831C13.5892 38.5172 14.6178 37.3713 16.1543 35.9456C17.3913 34.7932 18.1497 34.012 18.4297 33.6018C18.8073 33.0354 18.9961 32.4755 18.9961 31.9221C18.9961 31.3101 18.8301 30.8414 18.498 30.5159C18.1725 30.1838 17.7201 30.0178 17.1406 30.0178C16.5677 30.0178 16.112 30.1903 15.7734 30.5354C15.4349 30.8805 15.2396 31.4534 15.1875 32.2542L12.4531 31.9807C12.6159 30.4703 13.127 29.3863 13.9863 28.7288C14.8457 28.0712 15.9199 27.7424 17.209 27.7424C18.6217 27.7424 19.7318 28.1233 20.5391 28.885C21.3464 29.6467 21.75 30.594 21.75 31.7268C21.75 32.3713 21.6328 32.9866 21.3984 33.5725C21.1706 34.1519 20.806 34.7607 20.3047 35.3987C19.9727 35.8219 19.3737 36.4306 18.5078 37.2249C17.6419 38.0191 17.0918 38.5465 16.8574 38.8069C16.6296 39.0673 16.444 39.3212 16.3008 39.5686H21.75ZM23.5176 38.3186L26.1738 37.9963C26.2585 38.6734 26.4863 39.191 26.8574 39.5491C27.2285 39.9071 27.6777 40.0862 28.2051 40.0862C28.7715 40.0862 29.2467 39.8713 29.6309 39.4417C30.0215 39.012 30.2168 38.4325 30.2168 37.7034C30.2168 37.0133 30.0312 36.4664 29.6602 36.0627C29.2891 35.6591 28.8366 35.4573 28.3027 35.4573C27.9512 35.4573 27.5312 35.5256 27.043 35.6624L27.3457 33.426C28.0879 33.4456 28.6543 33.2861 29.0449 32.9475C29.4355 32.6025 29.6309 32.1467 29.6309 31.5803C29.6309 31.0986 29.4876 30.7144 29.2012 30.428C28.9147 30.1415 28.5339 29.9983 28.0586 29.9983C27.5898 29.9983 27.1895 30.1611 26.8574 30.4866C26.5254 30.8121 26.3236 31.2874 26.252 31.9124L23.7227 31.4827C23.8984 30.6168 24.1621 29.9267 24.5137 29.4124C24.8717 28.8915 25.3665 28.4846 25.998 28.1917C26.6361 27.8922 27.349 27.7424 28.1367 27.7424C29.4844 27.7424 30.5651 28.1721 31.3789 29.0315C32.0495 29.7346 32.3848 30.5289 32.3848 31.4143C32.3848 32.6708 31.6979 33.6734 30.3242 34.4221C31.1445 34.5979 31.7988 34.9918 32.2871 35.6038C32.7819 36.2157 33.0293 36.9547 33.0293 37.8206C33.0293 39.0771 32.5703 40.148 31.6523 41.0334C30.7344 41.9189 29.5918 42.3616 28.2246 42.3616C26.929 42.3616 25.8548 41.9905 25.002 41.2483C24.1491 40.4996 23.6543 39.523 23.5176 38.3186ZM40.1289 42.1174V39.2366H34.2695V36.8342L40.4805 27.7424H42.7852V36.8245H44.5625V39.2366H42.7852V42.1174H40.1289ZM40.1289 36.8245V31.9319L36.8379 36.8245H40.1289ZM45.9199 38.4358L48.6543 38.1526C48.7324 38.7711 48.9635 39.2626 49.3477 39.6272C49.7318 39.9853 50.1745 40.1643 50.6758 40.1643C51.2487 40.1643 51.7337 39.9332 52.1309 39.4709C52.528 39.0022 52.7266 38.2991 52.7266 37.3616C52.7266 36.4827 52.528 35.8251 52.1309 35.3889C51.7402 34.9462 51.2292 34.7249 50.5977 34.7249C49.8099 34.7249 49.1035 35.0732 48.4785 35.7698L46.252 35.4475L47.6582 27.9963H54.9141V30.5647H49.7383L49.3086 32.9963C49.9206 32.6903 50.5456 32.5374 51.1836 32.5374C52.401 32.5374 53.4329 32.9801 54.2793 33.8655C55.1257 34.7509 55.5488 35.9 55.5488 37.3127C55.5488 38.4911 55.207 39.5426 54.5234 40.467C53.5924 41.7301 52.3001 42.3616 50.6465 42.3616C49.3249 42.3616 48.2474 42.0068 47.4141 41.2971C46.5807 40.5875 46.0827 39.6337 45.9199 38.4358ZM66.3105 31.3069L63.6543 31.5999C63.5892 31.053 63.4199 30.6493 63.1465 30.3889C62.873 30.1285 62.5182 29.9983 62.082 29.9983C61.5026 29.9983 61.0111 30.2587 60.6074 30.7795C60.2103 31.3004 59.9596 32.3844 59.8555 34.0315C60.5391 33.2242 61.3887 32.8206 62.4043 32.8206C63.5501 32.8206 64.5299 33.2568 65.3438 34.1292C66.1641 35.0015 66.5742 36.1278 66.5742 37.5081C66.5742 38.9729 66.1445 40.148 65.2852 41.0334C64.4258 41.9189 63.3223 42.3616 61.9746 42.3616C60.5293 42.3616 59.3411 41.8017 58.4102 40.6819C57.4792 39.5556 57.0137 37.7131 57.0137 35.1545C57.0137 32.5308 57.4987 30.6396 58.4688 29.4807C59.4388 28.3219 60.6986 27.7424 62.248 27.7424C63.3353 27.7424 64.2337 28.0484 64.9434 28.6604C65.6595 29.2659 66.1152 30.148 66.3105 31.3069ZM60.0898 37.2932C60.0898 38.1851 60.2949 38.8752 60.7051 39.3635C61.1152 39.8453 61.584 40.0862 62.1113 40.0862C62.6191 40.0862 63.0423 39.8876 63.3809 39.4905C63.7194 39.0933 63.8887 38.4423 63.8887 37.5374C63.8887 36.6064 63.7064 35.926 63.3418 35.4963C62.9772 35.0601 62.5215 34.842 61.9746 34.842C61.4473 34.842 61.0013 35.0504 60.6367 35.467C60.2721 35.8772 60.0898 36.4859 60.0898 37.2932ZM68.1465 30.5452V27.9963H77.5312V29.9885C76.7565 30.7502 75.9688 31.844 75.168 33.2698C74.3672 34.6956 73.7552 36.2125 73.332 37.8206C72.9154 39.4221 72.7103 40.8544 72.7168 42.1174H70.0703C70.1159 40.1383 70.5228 38.12 71.291 36.0627C72.0658 34.0055 73.0977 32.1663 74.3867 30.5452H68.1465ZM81.6328 34.3928C80.9232 34.0933 80.4056 33.6832 80.0801 33.1624C79.7611 32.635 79.6016 32.0588 79.6016 31.4338C79.6016 30.3661 79.9727 29.484 80.7148 28.7874C81.4635 28.0907 82.5247 27.7424 83.8984 27.7424C85.2591 27.7424 86.3138 28.0907 87.0625 28.7874C87.8177 29.484 88.1953 30.3661 88.1953 31.4338C88.1953 32.0979 88.0228 32.6903 87.6777 33.2112C87.3327 33.7255 86.8477 34.1194 86.2227 34.3928C87.0169 34.7118 87.6191 35.1773 88.0293 35.7893C88.446 36.4013 88.6543 37.1077 88.6543 37.9084C88.6543 39.2301 88.2311 40.3043 87.3848 41.1311C86.5449 41.9579 85.4251 42.3713 84.0254 42.3713C82.7233 42.3713 81.6393 42.0295 80.7734 41.3459C79.7513 40.5387 79.2402 39.4319 79.2402 38.0256C79.2402 37.2509 79.4323 36.5413 79.8164 35.8967C80.2005 35.2457 80.806 34.7444 81.6328 34.3928ZM82.1992 31.6292C82.1992 32.176 82.3522 32.6025 82.6582 32.9084C82.9707 33.2144 83.3841 33.3674 83.8984 33.3674C84.4193 33.3674 84.8359 33.2144 85.1484 32.9084C85.4609 32.5959 85.6172 32.1663 85.6172 31.6194C85.6172 31.1051 85.4609 30.6949 85.1484 30.3889C84.8424 30.0764 84.4355 29.9202 83.9277 29.9202C83.4004 29.9202 82.9805 30.0764 82.668 30.3889C82.3555 30.7014 82.1992 31.1148 82.1992 31.6292ZM81.9453 37.762C81.9453 38.5172 82.1374 39.1064 82.5215 39.5295C82.9121 39.9527 83.3971 40.1643 83.9766 40.1643C84.543 40.1643 85.0117 39.9625 85.3828 39.5588C85.7539 39.1487 85.9395 38.5595 85.9395 37.7913C85.9395 37.1207 85.7507 36.5836 85.373 36.1799C84.9954 35.7698 84.5169 35.5647 83.9375 35.5647C83.2669 35.5647 82.7656 35.7958 82.4336 36.2581C82.1081 36.7203 81.9453 37.2216 81.9453 37.762ZM90.4707 38.8069L93.127 38.5139C93.1921 39.0543 93.3613 39.4547 93.6348 39.7151C93.9082 39.9755 94.2695 40.1057 94.7188 40.1057C95.2852 40.1057 95.7669 39.8453 96.1641 39.3245C96.5612 38.8036 96.8151 37.7229 96.9258 36.0823C96.2357 36.8831 95.373 37.2834 94.3379 37.2834C93.2116 37.2834 92.2383 36.8505 91.418 35.9846C90.6042 35.1122 90.1973 33.9794 90.1973 32.5862C90.1973 31.1344 90.627 29.9657 91.4863 29.0803C92.3522 28.1884 93.4525 27.7424 94.7871 27.7424C96.2389 27.7424 97.4303 28.3056 98.3613 29.4319C99.2923 30.5517 99.7578 32.3974 99.7578 34.969C99.7578 37.5862 99.2728 39.4742 98.3027 40.6331C97.3327 41.7919 96.0697 42.3713 94.5137 42.3713C93.3939 42.3713 92.4889 42.0751 91.7988 41.4827C91.1087 40.8837 90.666 39.9918 90.4707 38.8069ZM96.6816 32.8108C96.6816 31.9254 96.4766 31.2385 96.0664 30.7502C95.6628 30.262 95.194 30.0178 94.6602 30.0178C94.1523 30.0178 93.7292 30.2196 93.3906 30.6233C93.0586 31.0204 92.8926 31.6747 92.8926 32.5862C92.8926 33.5107 93.0749 34.191 93.4395 34.6272C93.804 35.0569 94.2598 35.2717 94.8066 35.2717C95.334 35.2717 95.7767 35.0634 96.1348 34.6467C96.4993 34.2301 96.6816 33.6181 96.6816 32.8108ZM106.184 27.7424C107.57 27.7424 108.654 28.2372 109.436 29.2268C110.367 30.3987 110.832 32.342 110.832 35.0569C110.832 37.7652 110.363 39.7118 109.426 40.8967C108.651 41.8733 107.57 42.3616 106.184 42.3616C104.79 42.3616 103.667 41.8277 102.814 40.76C101.962 39.6858 101.535 37.775 101.535 35.0276C101.535 32.3323 102.004 30.3922 102.941 29.2073C103.716 28.2307 104.797 27.7424 106.184 27.7424ZM106.184 30.0178C105.852 30.0178 105.555 30.1252 105.295 30.3401C105.035 30.5484 104.833 30.926 104.689 31.4729C104.501 32.1825 104.406 33.3772 104.406 35.0569C104.406 36.7366 104.491 37.8922 104.66 38.5237C104.829 39.1487 105.041 39.5653 105.295 39.7737C105.555 39.982 105.852 40.0862 106.184 40.0862C106.516 40.0862 106.812 39.982 107.072 39.7737C107.333 39.5588 107.535 39.178 107.678 38.6311C107.867 37.928 107.961 36.7366 107.961 35.0569C107.961 33.3772 107.876 32.2249 107.707 31.5999C107.538 30.9683 107.323 30.5484 107.062 30.3401C106.809 30.1252 106.516 30.0178 106.184 30.0178Z" fill="black"/>
</svg>
