<svg width="149" height="46" viewBox="0 0 149 46" fill="none" xmlns="http://www.w3.org/2000/svg">
<path d="M7.24699 1.55743H11.607V4.13743C11.3003 4.13743 11.147 4.5841 11.147 5.47743V13.1374H12.767V5.47743C12.767 5.01076 12.7337 4.67076 12.667 4.45743C12.6003 4.2441 12.4803 4.13743 12.307 4.13743V1.55743H17.827V4.13743C17.6403 4.13743 17.507 4.2441 17.427 4.45743C17.347 4.67076 17.307 5.01076 17.307 5.47743V12.2374C17.307 13.1041 17.4803 13.5374 17.827 13.5374V16.1174H1.00699V13.5374C1.36699 13.5374 1.54699 13.1041 1.54699 12.2374V5.47743C1.54699 4.5841 1.36699 4.13743 1.00699 4.13743V1.55743H6.56699V4.13743C6.39366 4.13743 6.27366 4.2441 6.20699 4.45743C6.14033 4.67076 6.10699 5.01076 6.10699 5.47743V13.1374H7.70699V5.47743C7.70699 5.01076 7.67366 4.67076 7.60699 4.45743C7.54033 4.2441 7.42033 4.13743 7.24699 4.13743V1.55743ZM23.9226 7.71743V13.3774C24.1226 13.5241 24.3426 13.5974 24.5826 13.5974C24.9026 13.5974 25.1293 13.4574 25.2626 13.1774C25.396 12.8974 25.4626 12.3441 25.4626 11.5174V8.73743C25.4626 8.03076 25.396 7.57076 25.2626 7.35743C25.1426 7.1441 24.9293 7.03743 24.6226 7.03743C24.5026 7.03743 24.356 7.0841 24.1826 7.17743C24.0093 7.27076 23.9226 7.45076 23.9226 7.71743ZM19.4226 4.53743H23.6626L23.7626 5.23743C24.096 4.9441 24.496 4.71076 24.9626 4.53743C25.4426 4.3641 25.9426 4.27743 26.4626 4.27743C27.516 4.27743 28.2826 4.61076 28.7626 5.27743C29.2426 5.9441 29.4826 7.09743 29.4826 8.73743V11.5174C29.4826 12.3441 29.4426 13.0574 29.3626 13.6574C29.296 14.2574 29.1493 14.7574 28.9226 15.1574C28.7093 15.5574 28.4026 15.8574 28.0026 16.0574C27.616 16.2441 27.1026 16.3374 26.4626 16.3374C26.0493 16.3374 25.6093 16.2708 25.1426 16.1374C24.6893 16.0041 24.2826 15.8041 23.9226 15.5374V16.2374C23.9226 16.8641 23.9826 17.3041 24.1026 17.5574C24.2226 17.8108 24.376 17.9374 24.5626 17.9374V20.0774H19.4226V17.9374C19.5693 17.9374 19.696 17.8108 19.8026 17.5574C19.9093 17.3174 19.9626 16.8908 19.9626 16.2774V7.89743C19.9626 7.47076 19.9093 7.15743 19.8026 6.95743C19.696 6.75743 19.5693 6.65743 19.4226 6.65743V4.53743ZM36.1428 16.1174H31.1628V13.9974C31.5228 13.9974 31.7028 13.6374 31.7028 12.9174V7.69743C31.7028 7.0041 31.5228 6.65743 31.1628 6.65743V4.53743H36.1428V6.57743C35.9961 6.57743 35.8828 6.63743 35.8028 6.75743C35.7361 6.8641 35.7028 7.0841 35.7028 7.41743V9.65743L37.0428 8.11743C37.2161 7.91743 37.3294 7.75743 37.3828 7.63743C37.4361 7.5041 37.4628 7.35076 37.4628 7.17743C37.4628 6.95076 37.4294 6.79743 37.3628 6.71743C37.3094 6.6241 37.2028 6.57743 37.0428 6.57743V4.53743H42.0228V6.65743C41.6628 6.65743 41.4828 7.0041 41.4828 7.69743V12.9174C41.4828 13.6374 41.6628 13.9974 42.0228 13.9974V16.1174H37.0428V14.0774C37.2028 14.0774 37.3094 14.0041 37.3628 13.8574C37.4294 13.7108 37.4628 13.4241 37.4628 12.9974V10.8174L36.1428 12.4574C35.9428 12.7108 35.8161 12.8841 35.7628 12.9774C35.7228 13.0574 35.7028 13.1508 35.7028 13.2574C35.7028 13.5108 35.7294 13.7108 35.7828 13.8574C35.8494 14.0041 35.9694 14.0774 36.1428 14.0774V16.1174ZM52.9028 7.51743V12.8574C53.1294 13.0041 53.3361 13.0774 53.5228 13.0774C53.8294 13.0774 54.0428 12.9774 54.1628 12.7774C54.2961 12.5774 54.3628 12.1374 54.3628 11.4574V8.91743C54.3628 8.33076 54.2961 7.93076 54.1628 7.71743C54.0294 7.5041 53.7961 7.39743 53.4628 7.39743C53.2894 7.39743 53.1028 7.43743 52.9028 7.51743ZM49.0428 5.17743V4.13743C49.0428 3.69743 48.9894 3.4041 48.8828 3.25743C48.7894 3.09743 48.6494 3.01743 48.4628 3.01743V0.897431H53.4628V3.01743C53.2894 3.01743 53.1494 3.09743 53.0428 3.25743C52.9494 3.4041 52.9028 3.69743 52.9028 4.13743V5.17743C53.2894 4.8841 53.6761 4.6641 54.0628 4.51743C54.4494 4.35743 54.8828 4.27743 55.3628 4.27743C56.3761 4.27743 57.1094 4.65743 57.5628 5.41743C58.0161 6.17743 58.2428 7.27076 58.2428 8.69743V11.4574C58.2428 12.1641 58.2028 12.8041 58.1228 13.3774C58.0561 13.9374 57.9161 14.4241 57.7028 14.8374C57.4894 15.2508 57.1894 15.5708 56.8028 15.7974C56.4294 16.0108 55.9361 16.1174 55.3228 16.1174C54.9494 16.1174 54.5494 16.0641 54.1228 15.9574C53.6961 15.8508 53.2894 15.6908 52.9028 15.4774V16.4974C52.9028 17.0308 52.9494 17.4041 53.0428 17.6174C53.1494 17.8308 53.2894 17.9374 53.4628 17.9374V20.0774H48.4628V17.9374C48.6494 17.9374 48.7894 17.8308 48.8828 17.6174C48.9894 17.4041 49.0428 17.0308 49.0428 16.4974V15.4774C48.6561 15.6908 48.2494 15.8508 47.8228 15.9574C47.4094 16.0641 47.0094 16.1174 46.6228 16.1174C46.0094 16.1174 45.5094 16.0108 45.1228 15.7974C44.7494 15.5708 44.4561 15.2508 44.2428 14.8374C44.0294 14.4241 43.8828 13.9374 43.8028 13.3774C43.7361 12.8041 43.7028 12.1641 43.7028 11.4574V8.69743C43.7028 7.27076 43.9228 6.17743 44.3628 5.41743C44.8161 4.65743 45.5561 4.27743 46.5828 4.27743C47.0628 4.27743 47.4961 4.35743 47.8828 4.51743C48.2694 4.6641 48.6561 4.8841 49.0428 5.17743ZM49.0428 12.8574V7.51743C48.8428 7.43743 48.6494 7.39743 48.4628 7.39743C48.1428 7.39743 47.9094 7.5041 47.7628 7.71743C47.6294 7.93076 47.5628 8.33076 47.5628 8.91743V11.4574C47.5628 12.1374 47.6228 12.5774 47.7428 12.7774C47.8761 12.9774 48.1028 13.0774 48.4228 13.0774C48.6094 13.0774 48.8161 13.0041 49.0428 12.8574ZM59.4123 4.53743H70.6923V9.13743H67.9923V7.67743C67.9923 7.17076 67.679 6.91743 67.0523 6.91743V12.9174C67.0523 13.2908 67.119 13.5641 67.2523 13.7374C67.399 13.9108 67.5656 13.9974 67.7523 13.9974V16.1174H62.3923V13.9974C62.579 13.9974 62.7323 13.9108 62.8523 13.7374C62.9856 13.5641 63.0523 13.2908 63.0523 12.9174V6.91743C62.439 6.91743 62.1323 7.17076 62.1323 7.67743V9.13743H59.4123V4.53743ZM80.1042 1.55743H88.1642V4.13743C87.9508 4.13743 87.8442 4.29743 87.8442 4.61743C87.8442 4.69743 87.8508 4.79743 87.8642 4.91743C87.8775 5.0241 87.9042 5.15076 87.9442 5.29743L89.6642 12.3174C89.7975 12.8241 89.9042 13.1574 89.9842 13.3174C90.0642 13.4641 90.1775 13.5374 90.3242 13.5374V16.1174H84.9242V13.5374C85.0442 13.4841 85.1442 13.4041 85.2242 13.2974C85.3175 13.1774 85.3642 13.0174 85.3642 12.8174C85.3642 12.7641 85.3575 12.6841 85.3442 12.5774C85.3308 12.4574 85.3108 12.2908 85.2842 12.0774H82.8842C82.8308 12.4641 82.8042 12.7108 82.8042 12.8174C82.8042 13.1908 82.9508 13.4308 83.2442 13.5374V16.1174H77.9442V13.5374C78.0775 13.5374 78.1908 13.4641 78.2842 13.3174C78.3775 13.1574 78.4775 12.8308 78.5842 12.3374L80.3042 5.31743C80.3442 5.1841 80.3708 5.05743 80.3842 4.93743C80.3975 4.81743 80.4042 4.71743 80.4042 4.63743C80.4042 4.45076 80.3708 4.3241 80.3042 4.25743C80.2508 4.17743 80.1842 4.13743 80.1042 4.13743V1.55743ZM83.2842 9.55743H84.8842L84.1042 4.21743H84.0642L83.2842 9.55743ZM91.3595 15.0974V12.1974H95.1795V12.6374C95.1795 13.0641 95.2395 13.3708 95.3595 13.5574C95.4928 13.7308 95.7128 13.8174 96.0195 13.8174C96.5528 13.8174 96.8195 13.4774 96.8195 12.7974C96.8195 12.6774 96.7928 12.5708 96.7395 12.4774C96.6995 12.3708 96.5928 12.2641 96.4195 12.1574C96.2595 12.0508 96.0195 11.9308 95.6995 11.7974C95.3795 11.6508 94.9462 11.4708 94.3995 11.2574C93.7195 10.9908 93.1662 10.7308 92.7395 10.4774C92.3128 10.2241 91.9862 9.95743 91.7595 9.67743C91.5328 9.39743 91.3795 9.1041 91.2995 8.79743C91.2195 8.47743 91.1795 8.1241 91.1795 7.73743C91.1795 5.43076 92.7795 4.27743 95.9795 4.27743C96.8728 4.27743 97.6862 4.39743 98.4195 4.63743C99.1528 4.87743 99.8462 5.2241 100.499 5.67743V8.17743H96.8195V7.63743C96.8195 7.2641 96.7395 7.03076 96.5795 6.93743C96.4328 6.8441 96.2328 6.79743 95.9795 6.79743C95.4462 6.79743 95.1795 7.0641 95.1795 7.59743C95.1795 7.8641 95.3662 8.1041 95.7395 8.31743C96.1262 8.51743 96.6728 8.7241 97.3795 8.93743C98.0328 9.13743 98.5795 9.3441 99.0195 9.55743C99.4595 9.75743 99.8128 9.99743 100.079 10.2774C100.346 10.5574 100.533 10.9041 100.639 11.3174C100.746 11.7308 100.799 12.2508 100.799 12.8774C100.799 14.1308 100.413 15.0241 99.6395 15.5574C98.8662 16.0774 97.6862 16.3374 96.0995 16.3374C95.1262 16.3374 94.2328 16.2308 93.4195 16.0174C92.6062 15.8041 91.9195 15.4974 91.3595 15.0974ZM102.317 15.0974V12.1974H106.137V12.6374C106.137 13.0641 106.197 13.3708 106.317 13.5574C106.45 13.7308 106.67 13.8174 106.977 13.8174C107.51 13.8174 107.777 13.4774 107.777 12.7974C107.777 12.6774 107.75 12.5708 107.697 12.4774C107.657 12.3708 107.55 12.2641 107.377 12.1574C107.217 12.0508 106.977 11.9308 106.657 11.7974C106.337 11.6508 105.903 11.4708 105.357 11.2574C104.677 10.9908 104.123 10.7308 103.697 10.4774C103.27 10.2241 102.943 9.95743 102.717 9.67743C102.49 9.39743 102.337 9.1041 102.257 8.79743C102.177 8.47743 102.137 8.1241 102.137 7.73743C102.137 5.43076 103.737 4.27743 106.937 4.27743C107.83 4.27743 108.643 4.39743 109.377 4.63743C110.11 4.87743 110.803 5.2241 111.457 5.67743V8.17743H107.777V7.63743C107.777 7.2641 107.697 7.03076 107.537 6.93743C107.39 6.8441 107.19 6.79743 106.937 6.79743C106.403 6.79743 106.137 7.0641 106.137 7.59743C106.137 7.8641 106.323 8.1041 106.697 8.31743C107.083 8.51743 107.63 8.7241 108.337 8.93743C108.99 9.13743 109.537 9.3441 109.977 9.55743C110.417 9.75743 110.77 9.99743 111.037 10.2774C111.303 10.5574 111.49 10.9041 111.597 11.3174C111.703 11.7308 111.757 12.2508 111.757 12.8774C111.757 14.1308 111.37 15.0241 110.597 15.5574C109.823 16.0774 108.643 16.3374 107.057 16.3374C106.083 16.3374 105.19 16.2308 104.377 16.0174C103.563 15.8041 102.877 15.4974 102.317 15.0974ZM118.614 4.53743H123.074V12.4774C123.074 13.0908 123.127 13.4974 123.234 13.6974C123.354 13.8974 123.48 13.9974 123.614 13.9974V16.1174H119.274L119.234 15.3574C118.874 15.6508 118.44 15.8908 117.934 16.0774C117.44 16.2641 116.994 16.3574 116.594 16.3574C115.487 16.3574 114.707 16.0508 114.254 15.4374C113.814 14.8241 113.594 13.9641 113.594 12.8574V8.03743C113.594 7.5041 113.547 7.1441 113.454 6.95743C113.36 6.75743 113.24 6.65743 113.094 6.65743V4.53743H117.174C117.32 5.13743 117.42 5.71076 117.474 6.25743C117.527 6.8041 117.554 7.49076 117.554 8.31743V11.9174C117.554 12.5308 117.62 12.9441 117.754 13.1574C117.9 13.3708 118.134 13.4774 118.454 13.4774C118.6 13.4774 118.72 13.4374 118.814 13.3574C118.92 13.2641 119.02 13.1574 119.114 13.0374V8.07743C119.114 7.65076 119.067 7.31076 118.974 7.05743C118.88 6.79076 118.76 6.65743 118.614 6.65743V4.53743ZM130.785 12.8974V11.4774H130.445C129.965 11.4774 129.625 11.5574 129.425 11.7174C129.225 11.8641 129.125 12.1708 129.125 12.6374C129.125 13.0374 129.185 13.2974 129.305 13.4174C129.425 13.5374 129.592 13.5974 129.805 13.5974C130.125 13.5974 130.365 13.5308 130.525 13.3974C130.699 13.2508 130.785 13.0841 130.785 12.8974ZM135.265 16.1174H130.885L130.785 15.1574C130.452 15.5308 130.072 15.8174 129.645 16.0174C129.219 16.2041 128.699 16.2974 128.085 16.2974C127.139 16.2974 126.399 16.0308 125.865 15.4974C125.345 14.9508 125.085 14.1908 125.085 13.2174C125.085 12.8174 125.125 12.3908 125.205 11.9374C125.285 11.4708 125.465 11.0441 125.745 10.6574C126.025 10.2574 126.432 9.93076 126.965 9.67743C127.499 9.4241 128.219 9.29743 129.125 9.29743C129.459 9.29743 129.752 9.31743 130.005 9.35743C130.259 9.39743 130.519 9.47076 130.785 9.57743V7.87743C130.785 7.4641 130.719 7.17743 130.585 7.01743C130.465 6.85743 130.272 6.77743 130.005 6.77743C129.752 6.77743 129.559 6.85743 129.425 7.01743C129.305 7.17743 129.245 7.4641 129.245 7.87743V8.23743H125.605V5.71743C126.165 5.3041 126.852 4.9641 127.665 4.69743C128.479 4.41743 129.259 4.27743 130.005 4.27743C131.499 4.27743 132.659 4.55076 133.485 5.09743C134.325 5.6441 134.745 6.61076 134.745 7.99743V12.7374C134.745 13.5774 134.919 13.9974 135.265 13.9974V16.1174ZM141.768 16.1174H136.768V13.9974C136.942 13.9974 137.075 13.8708 137.168 13.6174C137.262 13.3641 137.308 13.0308 137.308 12.6174V8.17743C137.308 7.5641 137.255 7.15743 137.148 6.95743C137.042 6.75743 136.915 6.65743 136.768 6.65743V4.53743H141.108L141.148 5.29743C141.508 4.99076 141.935 4.7441 142.428 4.55743C142.935 4.37076 143.388 4.27743 143.788 4.27743C144.348 4.27743 144.815 4.3841 145.188 4.59743C145.575 4.81076 145.882 5.09743 146.108 5.45743C146.348 5.81743 146.522 6.23743 146.628 6.71743C146.735 7.1841 146.788 7.67743 146.788 8.19743V12.6174C146.788 13.1641 146.835 13.5308 146.928 13.7174C147.035 13.9041 147.168 13.9974 147.328 13.9974V16.1174H143.208C143.062 15.5174 142.962 14.9441 142.908 14.3974C142.855 13.8508 142.828 13.1574 142.828 12.3174V8.73743C142.828 8.11076 142.755 7.69743 142.608 7.49743C142.475 7.2841 142.248 7.17743 141.928 7.17743C141.782 7.17743 141.655 7.2241 141.548 7.31743C141.455 7.39743 141.362 7.49743 141.268 7.61743V12.5774C141.268 13.0041 141.315 13.3508 141.408 13.6174C141.502 13.8708 141.622 13.9974 141.768 13.9974V16.1174Z" fill="black"/>
<path d="M4.24699 37.1974V30.3774C4.24699 29.9641 4.20699 29.6641 4.12699 29.4774C4.04699 29.2774 3.91366 29.1241 3.72699 29.0174V26.5574L8.62699 26.1174V37.1974C8.62699 37.6241 8.66033 37.9308 8.72699 38.1174C8.80699 38.2908 8.94033 38.4308 9.12699 38.5374V41.1174H3.72699V38.5374C3.91366 38.4308 4.04699 38.2841 4.12699 38.0974C4.20699 37.8974 4.24699 37.5974 4.24699 37.1974ZM24.0056 41.1174H13.7656V37.8374C13.7656 37.1574 13.8123 36.5841 13.9056 36.1174C14.0123 35.6508 14.1856 35.2441 14.4256 34.8974C14.6789 34.5508 15.0123 34.2374 15.4256 33.9574C15.8389 33.6774 16.3523 33.3774 16.9656 33.0574C17.0723 32.9908 17.1989 32.9241 17.3456 32.8574C17.5056 32.7908 17.6789 32.7041 17.8656 32.5974C19.2389 31.9441 19.9256 31.2708 19.9256 30.5774C19.9256 30.2041 19.8456 29.9108 19.6856 29.6974C19.5256 29.4708 19.3189 29.3574 19.0656 29.3574C18.4523 29.3574 18.1456 29.8174 18.1456 30.7374V31.7374H14.0456V27.7974C14.8056 27.2774 15.6056 26.8974 16.4456 26.6574C17.2989 26.4041 18.2389 26.2774 19.2656 26.2774C20.9723 26.2774 22.2389 26.6508 23.0656 27.3974C23.8923 28.1441 24.3056 29.2974 24.3056 30.8574C24.3056 31.5774 24.2189 32.1908 24.0456 32.6974C23.8723 33.2041 23.5923 33.6508 23.2056 34.0374C23.1389 34.0908 22.9723 34.2041 22.7056 34.3774C22.4523 34.5374 22.1456 34.7241 21.7856 34.9374C21.4256 35.1374 21.0456 35.3508 20.6456 35.5774C20.2456 35.8041 19.8723 36.0041 19.5256 36.1774C19.0323 36.4308 18.6523 36.6574 18.3856 36.8574C18.1189 37.0574 17.9856 37.3908 17.9856 37.8574V37.9974H18.6856C19.1656 37.9974 19.4856 37.9041 19.6456 37.7174C19.8056 37.5308 19.8989 37.1441 19.9256 36.5574H24.0056V41.1174ZM26.3242 30.5974V26.5574H36.4242V29.9374L34.1042 31.8974C34.5575 32.0574 34.9575 32.2508 35.3042 32.4774C35.6642 32.7041 35.9642 32.9908 36.2042 33.3374C36.4442 33.6708 36.6242 34.0841 36.7442 34.5774C36.8775 35.0574 36.9442 35.6441 36.9442 36.3374C36.9442 39.6708 35.1375 41.3374 31.5242 41.3374C30.4842 41.3374 29.5108 41.2174 28.6042 40.9774C27.7108 40.7241 26.8908 40.3708 26.1442 39.9174V35.6974H30.2242V36.5174C30.2242 37.2641 30.3108 37.7374 30.4842 37.9374C30.6708 38.1374 30.9975 38.2374 31.4642 38.2374C31.8908 38.2374 32.1975 38.0974 32.3842 37.8174C32.5842 37.5374 32.6842 36.9841 32.6842 36.1574C32.6842 35.3574 32.5842 34.8174 32.3842 34.5374C32.1975 34.2574 31.9108 34.1174 31.5242 34.1174C31.3375 34.1174 31.1642 34.1641 31.0042 34.2574C30.8442 34.3508 30.6375 34.5241 30.3842 34.7774L28.6242 32.8174L31.9642 29.5574H31.2842C30.8042 29.5574 30.5042 29.5908 30.3842 29.6574C30.2775 29.7241 30.2242 29.8708 30.2242 30.0974V30.5974H26.3242ZM48.5228 41.1174H42.9228V38.5374C43.1094 38.5374 43.2828 38.4641 43.4428 38.3174C43.6161 38.1574 43.7028 37.9441 43.7028 37.6774V37.5574H38.5828V34.7974C39.4761 33.4908 40.2161 32.1241 40.8028 30.6974C41.3894 29.2708 41.7961 27.8641 42.0228 26.4774H47.2628C46.5961 27.9974 45.8228 29.4374 44.9428 30.7974C44.0628 32.1574 43.0894 33.4908 42.0228 34.7974H43.7028V33.5174L47.7828 31.3574V34.7974H49.4628V37.5574H47.7828C47.7828 37.8508 47.8428 38.0908 47.9628 38.2774C48.0828 38.4508 48.2694 38.5374 48.5228 38.5374V41.1174ZM51.7814 39.6374V36.1574H55.8614V36.7574C55.8614 37.2641 55.928 37.6374 56.0614 37.8774C56.1947 38.1041 56.4147 38.2174 56.7214 38.2174C57.2414 38.2174 57.5014 37.8374 57.5014 37.0774V35.3174C57.5014 34.4641 57.2147 34.0374 56.6414 34.0374C56.4414 34.0374 56.2614 34.0974 56.1014 34.2174C55.9414 34.3374 55.8614 34.5241 55.8614 34.7774H51.7814V26.4774H61.6414V30.2374H57.5014C57.5014 29.9841 57.4547 29.7974 57.3614 29.6774C57.2814 29.5574 57.1214 29.4974 56.8814 29.4974H55.8614V31.4974C56.1547 31.3641 56.4747 31.2641 56.8214 31.1974C57.1814 31.1174 57.5547 31.0774 57.9414 31.0774C59.368 31.0774 60.408 31.4641 61.0614 32.2374C61.7147 32.9974 62.0414 34.3041 62.0414 36.1574C62.0414 38.0241 61.628 39.3574 60.8014 40.1574C59.9747 40.9441 58.668 41.3374 56.8814 41.3374C54.948 41.3374 53.248 40.7708 51.7814 39.6374ZM68.36 35.9574V36.7974C68.36 37.3308 68.4266 37.7041 68.56 37.9174C68.6933 38.1308 68.9133 38.2374 69.22 38.2374C69.5266 38.2374 69.7466 38.1241 69.88 37.8974C70.0133 37.6708 70.08 37.3041 70.08 36.7974V35.9574C70.08 35.4374 70.0133 35.0708 69.88 34.8574C69.7466 34.6308 69.5266 34.5174 69.22 34.5174C68.9133 34.5174 68.6933 34.6308 68.56 34.8574C68.4266 35.0708 68.36 35.4374 68.36 35.9574ZM64.04 36.0774V31.5374C64.04 30.5774 64.12 29.7641 64.28 29.0974C64.4533 28.4174 64.7266 27.8708 65.1 27.4574C65.4866 27.0441 65.9933 26.7441 66.62 26.5574C67.2466 26.3574 68.0266 26.2574 68.96 26.2574C70.96 26.2574 72.68 26.7908 74.12 27.8574V31.0574H70.08V30.7774C70.08 30.2441 70.0133 29.8708 69.88 29.6574C69.7466 29.4308 69.5266 29.3174 69.22 29.3174C68.9133 29.3174 68.6933 29.4308 68.56 29.6574C68.4266 29.8708 68.36 30.2441 68.36 30.7774V32.0774C68.9866 31.8241 69.74 31.6974 70.62 31.6974C73.18 31.6974 74.46 33.2441 74.46 36.3374C74.46 37.3108 74.36 38.1174 74.16 38.7574C73.96 39.3974 73.6466 39.9108 73.22 40.2974C72.8066 40.6708 72.2666 40.9374 71.6 41.0974C70.9466 41.2574 70.1533 41.3374 69.22 41.3374C68.26 41.3374 67.4466 41.2574 66.78 41.0974C66.1266 40.9241 65.5933 40.6374 65.18 40.2374C64.78 39.8241 64.4866 39.2841 64.3 38.6174C64.1266 37.9374 64.04 37.0908 64.04 36.0774ZM76.7186 26.4774H87.0586V29.5374C86.5252 30.3108 86.0452 31.1708 85.6186 32.1174C85.1919 33.0508 84.8252 34.0241 84.5186 35.0374C84.2252 36.0508 83.9986 37.0774 83.8386 38.1174C83.6786 39.1574 83.5986 40.1574 83.5986 41.1174H79.1586C79.1586 39.1841 79.4652 37.2374 80.0786 35.2774C80.6919 33.3041 81.4852 31.3908 82.4586 29.5374H81.6986C81.1252 29.5374 80.7452 29.6374 80.5586 29.8374C80.3852 30.0241 80.2986 30.3508 80.2986 30.8174V31.7174H76.7186V26.4774ZM90.9171 33.4574C90.2905 33.1908 89.8438 32.8374 89.5771 32.3974C89.3238 31.9441 89.1971 31.3108 89.1971 30.4974C89.1971 29.0174 89.6038 27.9441 90.4171 27.2774C91.2305 26.5974 92.5371 26.2574 94.3371 26.2574C96.1505 26.2574 97.4638 26.5908 98.2771 27.2574C99.0905 27.9241 99.4971 29.0041 99.4971 30.4974C99.4971 31.3108 99.3705 31.9441 99.1171 32.3974C98.8638 32.8374 98.4305 33.1908 97.8171 33.4574C99.1105 33.9908 99.7571 35.1308 99.7571 36.8774C99.7571 38.3841 99.3105 39.5041 98.4171 40.2374C97.5238 40.9708 96.1638 41.3374 94.3371 41.3374C92.5105 41.3374 91.1505 40.9708 90.2571 40.2374C89.3771 39.5041 88.9371 38.3841 88.9371 36.8774C88.9371 35.1308 89.5971 33.9908 90.9171 33.4574ZM93.4771 36.3574V36.7974C93.4771 37.3308 93.5438 37.7041 93.6771 37.9174C93.8105 38.1308 94.0305 38.2374 94.3371 38.2374C94.6438 38.2374 94.8638 38.1241 94.9971 37.8974C95.1305 37.6708 95.1971 37.3041 95.1971 36.7974V36.3574C95.1971 35.8374 95.1305 35.4708 94.9971 35.2574C94.8638 35.0308 94.6438 34.9174 94.3371 34.9174C94.0305 34.9174 93.8105 35.0308 93.6771 35.2574C93.5438 35.4708 93.4771 35.8374 93.4771 36.3574ZM95.1971 30.7774C95.1971 30.2574 95.1305 29.8841 94.9971 29.6574C94.8638 29.4308 94.6438 29.3174 94.3371 29.3174C94.0305 29.3174 93.8105 29.4308 93.6771 29.6574C93.5438 29.8708 93.4771 30.2441 93.4771 30.7774C93.4771 31.3108 93.5438 31.6841 93.6771 31.8974C93.8105 32.1108 94.0305 32.2174 94.3371 32.2174C94.6571 32.2174 94.8771 32.1174 94.9971 31.9174C95.1305 31.7041 95.1971 31.3241 95.1971 30.7774ZM107.756 31.8174V30.8174C107.756 30.2974 107.689 29.9241 107.556 29.6974C107.422 29.4708 107.202 29.3574 106.896 29.3574C106.589 29.3574 106.369 29.4708 106.236 29.6974C106.102 29.9241 106.036 30.2974 106.036 30.8174V31.8174C106.036 32.3508 106.102 32.7308 106.236 32.9574C106.369 33.1708 106.589 33.2774 106.896 33.2774C107.202 33.2774 107.422 33.1641 107.556 32.9374C107.689 32.6974 107.756 32.3241 107.756 31.8174ZM112.136 31.5374V36.0574C112.136 37.0174 112.049 37.8374 111.876 38.5174C111.716 39.1974 111.436 39.7508 111.036 40.1774C110.649 40.5908 110.136 40.8974 109.496 41.0974C108.869 41.2841 108.096 41.3774 107.176 41.3774C105.162 41.3774 103.442 40.8841 102.016 39.8974V36.7574H106.036V36.9374C106.036 37.4041 106.102 37.7441 106.236 37.9574C106.369 38.1708 106.589 38.2774 106.896 38.2774C107.216 38.2774 107.436 38.1708 107.556 37.9574C107.689 37.7441 107.756 37.3708 107.756 36.8374V35.6374C107.209 35.9574 106.489 36.1174 105.596 36.1174C104.262 36.1174 103.282 35.7241 102.656 34.9374C102.029 34.1374 101.716 32.8974 101.716 31.2174C101.716 30.2708 101.809 29.4774 101.996 28.8374C102.196 28.1974 102.502 27.6908 102.916 27.3174C103.342 26.9308 103.882 26.6574 104.536 26.4974C105.189 26.3374 105.976 26.2574 106.896 26.2574C107.869 26.2574 108.689 26.3441 109.356 26.5174C110.022 26.6774 110.562 26.9641 110.976 27.3774C111.389 27.7774 111.682 28.3174 111.856 28.9974C112.042 29.6774 112.136 30.5241 112.136 31.5374ZM120.314 36.7974V30.7774C120.314 30.2441 120.248 29.8708 120.114 29.6574C119.981 29.4308 119.761 29.3174 119.454 29.3174C119.148 29.3174 118.928 29.4308 118.794 29.6574C118.661 29.8708 118.594 30.2441 118.594 30.7774V36.7974C118.594 37.3308 118.661 37.7041 118.794 37.9174C118.928 38.1308 119.148 38.2374 119.454 38.2374C119.761 38.2374 119.981 38.1241 120.114 37.8974C120.248 37.6708 120.314 37.3041 120.314 36.7974ZM114.274 36.0774V31.5374C114.274 30.5241 114.361 29.6774 114.534 28.9974C114.708 28.3174 114.994 27.7774 115.394 27.3774C115.808 26.9641 116.341 26.6774 116.994 26.5174C117.661 26.3441 118.481 26.2574 119.454 26.2574C120.428 26.2574 121.248 26.3441 121.914 26.5174C122.581 26.6774 123.121 26.9641 123.534 27.3774C123.948 27.7774 124.241 28.3174 124.414 28.9974C124.601 29.6774 124.694 30.5241 124.694 31.5374V36.0774C124.694 37.0908 124.601 37.9374 124.414 38.6174C124.241 39.2841 123.948 39.8241 123.534 40.2374C123.121 40.6374 122.581 40.9241 121.914 41.0974C121.248 41.2574 120.428 41.3374 119.454 41.3374C118.494 41.3374 117.681 41.2574 117.014 41.0974C116.361 40.9241 115.828 40.6374 115.414 40.2374C115.014 39.8241 114.721 39.2841 114.534 38.6174C114.361 37.9374 114.274 37.0908 114.274 36.0774Z" fill="black"/>
</svg>
