<svg width="111" height="46" viewBox="0 0 111 46" fill="none" xmlns="http://www.w3.org/2000/svg">
<path d="M13.473 15.5293H1.43301V1.0293H4.39301V13.0293H5.97301V1.0293H8.93301V13.0293H10.513V1.0293H13.473V15.5293ZM17.5552 3.5693V9.2693H18.9952C19.1152 9.2693 19.1885 9.2493 19.2152 9.2093C19.2552 9.15596 19.2752 9.07596 19.2752 8.9693V3.8493C19.2752 3.66263 19.1885 3.5693 19.0152 3.5693H17.5552ZM20.3752 1.0293C20.9485 1.0293 21.3752 1.1893 21.6552 1.5093C21.9485 1.8293 22.0952 2.25596 22.0952 2.7893V9.7293C22.0952 10.0093 22.0619 10.2693 21.9952 10.5093C21.9419 10.736 21.8352 10.936 21.6752 11.1093C21.5152 11.2826 21.3019 11.4226 21.0352 11.5293C20.7685 11.6226 20.4352 11.6693 20.0352 11.6693H17.5552V15.5293H14.6752V1.0293H20.3752ZM30.4499 15.5293H27.7699V9.4693L26.2099 15.5293H23.2299V1.0293H26.2099V6.8493L27.6899 1.0293H30.4499V15.5293ZM38.8679 1.0293V1.6293H41.6879C42.2612 1.6293 42.6879 1.7893 42.9679 2.1093C43.2612 2.4293 43.4079 2.85596 43.4079 3.3893V12.1293C43.4079 12.4093 43.3745 12.6693 43.3079 12.9093C43.2545 13.136 43.1479 13.336 42.9879 13.5093C42.8279 13.6826 42.6145 13.8226 42.3479 13.9293C42.0812 14.0226 41.7479 14.0693 41.3479 14.0693H38.8679V15.5293H35.9879V14.0693H33.5079C33.1079 14.0693 32.7745 14.0226 32.5079 13.9293C32.2412 13.8226 32.0279 13.6826 31.8679 13.5093C31.7079 13.336 31.5945 13.136 31.5279 12.9093C31.4745 12.6693 31.4479 12.4093 31.4479 12.1293V3.3893C31.4479 2.85596 31.5879 2.4293 31.8679 2.1093C32.1612 1.7893 32.5945 1.6293 33.1679 1.6293H35.9879V1.0293H38.8679ZM34.5279 4.1693C34.3545 4.1693 34.2679 4.26263 34.2679 4.4493V11.3693C34.2679 11.476 34.2812 11.556 34.3079 11.6093C34.3479 11.6493 34.4279 11.6693 34.5479 11.6693H35.9879V4.1693H34.5279ZM38.8679 4.1693V11.6693H40.3079C40.4279 11.6693 40.5012 11.6493 40.5279 11.6093C40.5679 11.556 40.5879 11.476 40.5879 11.3693V4.4493C40.5879 4.26263 40.5012 4.1693 40.3279 4.1693H38.8679ZM50.9785 1.0293V3.7293H49.0385V15.5293H46.0785V3.7293H44.1385V1.0293H50.9785ZM60.7246 1.0293V3.7293H58.7846V15.5293H55.8246V3.7293H53.8846V1.0293H60.7246ZM69.0307 15.5293H66.0707V9.7293H64.4907V15.5293H61.5307V1.0293H64.4907V7.2293H66.0707V1.0293H69.0307V15.5293ZM70.2221 1.0293H76.3621V3.7293H73.2021V7.1693H75.6021V9.6693H73.2021V12.8293H76.2421V15.5293H70.2221V1.0293ZM82.1305 15.5293C81.2905 15.5293 80.7038 15.356 80.3705 15.0093C80.0372 14.6626 79.8705 14.0893 79.8705 13.2893V2.8093C79.8705 2.23596 80.0305 1.79596 80.3505 1.4893C80.6838 1.18263 81.0905 1.0293 81.5705 1.0293H85.8905V3.7293H83.1105C82.9372 3.7293 82.8505 3.82263 82.8505 4.0093V12.5493C82.8505 12.736 82.9372 12.8293 83.1105 12.8293H85.8905V15.5293H82.1305ZM89.6622 13.7293L89.4022 15.5293H86.4822L89.1022 1.0293H92.2022L94.8222 15.5293H91.9022L91.6422 13.7293H89.6622ZM89.9822 11.4293H91.3222L90.6622 6.2893L89.9822 11.4293ZM98.4927 3.5693V9.2693H99.9327C100.053 9.2693 100.126 9.2493 100.153 9.2093C100.193 9.15596 100.213 9.07596 100.213 8.9693V3.8493C100.213 3.66263 100.126 3.5693 99.9527 3.5693H98.4927ZM101.313 1.0293C101.886 1.0293 102.313 1.1893 102.593 1.5093C102.886 1.8293 103.033 2.25596 103.033 2.7893V9.7293C103.033 10.0093 102.999 10.2693 102.933 10.5093C102.879 10.736 102.773 10.936 102.613 11.1093C102.453 11.2826 102.239 11.4226 101.973 11.5293C101.706 11.6226 101.373 11.6693 100.973 11.6693H98.4927V15.5293H95.6127V1.0293H101.313ZM110.607 1.0293V3.7293H108.667V15.5293H105.707V3.7293H103.767V1.0293H110.607Z" fill="black"/>
<path d="M1.19301 26.0293H5.35301V40.5293H2.37301V28.7293H1.17301L1.19301 26.0293ZM13.9329 31.5093C13.9329 31.8826 13.8662 32.176 13.7329 32.3893C13.6129 32.6026 13.3862 32.8226 13.0529 33.0493L10.3129 35.2293C10.2195 35.296 10.1729 35.4093 10.1729 35.5693V37.8293H13.6729V40.5293H7.27285V35.3093C7.27285 34.8426 7.33952 34.4493 7.47285 34.1293C7.60618 33.8093 7.85285 33.536 8.21285 33.3093L10.9529 31.2093C11.0462 31.1426 11.0995 31.0893 11.1129 31.0493C11.1395 31.0093 11.1529 30.956 11.1529 30.8893V28.9893C11.1529 28.816 11.0595 28.7293 10.8729 28.7293H7.33285V26.0293H12.2329C12.7129 26.0293 13.1129 26.1826 13.4329 26.4893C13.7662 26.796 13.9329 27.236 13.9329 27.8093V31.5093ZM14.9244 26.0293H19.1244C19.8711 26.0293 20.3844 26.1826 20.6644 26.4893C20.9444 26.7826 21.0844 27.2626 21.0844 27.9293V31.9493C21.0844 32.2826 21.0111 32.5693 20.8644 32.8093C20.7311 33.0493 20.4311 33.1893 19.9644 33.2293C20.4577 33.2293 20.7777 33.376 20.9244 33.6693C21.0844 33.9493 21.1644 34.2826 21.1644 34.6693V38.2893C21.1644 39.0893 20.9977 39.6626 20.6644 40.0093C20.3311 40.356 19.7444 40.5293 18.9044 40.5293H14.9444V37.8293H17.8444C17.9777 37.8293 18.0777 37.816 18.1444 37.7893C18.2111 37.7493 18.2444 37.6426 18.2444 37.4693V35.0893C18.2444 34.9826 18.2244 34.896 18.1844 34.8293C18.1444 34.7626 18.0444 34.7293 17.8844 34.7293H15.6644V32.2293H17.8444C18.0044 32.2293 18.1111 32.2026 18.1644 32.1493C18.2177 32.096 18.2444 31.9893 18.2444 31.8293V29.0893C18.2444 28.9426 18.2111 28.8493 18.1444 28.8093C18.0911 28.756 18.0111 28.7293 17.9044 28.7293H14.9244V26.0293ZM25.5105 26.0293H29.5505V35.5893H30.3505V37.8893H29.5505V40.5293H26.6905V37.8893H22.2705V34.6093L25.5105 26.5293V26.0293ZM26.6905 35.5893V30.0093L25.0505 34.7493V35.5893H26.6905ZM31.5725 40.5293V37.8293H34.8125C34.9725 37.8293 35.0525 37.756 35.0525 37.6093V34.3493C35.0525 34.216 34.9859 34.1493 34.8525 34.1493L32.3125 34.1693L31.4325 33.2893V26.0493H37.6725V28.7293H34.2725V31.8093H36.4525C36.8925 31.8093 37.2525 31.9493 37.5325 32.2293C37.8259 32.496 37.9725 32.8226 37.9725 33.2093V38.3493C37.9725 39.1493 37.8059 39.716 37.4725 40.0493C37.1392 40.3693 36.5592 40.5293 35.7325 40.5293H31.5725ZM31.4325 33.2893L32.3125 34.1693C31.8992 33.996 31.6059 33.7026 31.4325 33.2893ZM42.1069 37.7493C42.1069 37.9093 42.1802 37.9893 42.3269 37.9893H43.5069C43.6536 37.9893 43.7269 37.9093 43.7269 37.7493V33.7893C43.7269 33.656 43.6669 33.5893 43.5469 33.5893H42.1069V37.7493ZM41.4469 40.5293C40.6069 40.5293 40.0202 40.356 39.6869 40.0093C39.3536 39.6626 39.1869 39.0893 39.1869 38.2893V27.7893C39.1869 27.2693 39.3402 26.8493 39.6469 26.5293C39.9669 26.196 40.3869 26.0293 40.9069 26.0293H45.8869V28.7293H42.3469C42.1869 28.7293 42.1069 28.8226 42.1069 29.0093V31.4493H45.0069C45.4869 31.4493 45.8602 31.576 46.1269 31.8293C46.3936 32.0693 46.5269 32.456 46.5269 32.9893V38.2893C46.5269 39.0893 46.3602 39.6626 46.0269 40.0093C45.6936 40.356 45.1069 40.5293 44.2669 40.5293H41.4469ZM47.3221 26.0293H54.5221L53.9821 27.8293L50.7221 40.5293H47.7021L50.9021 28.7293H47.3221V26.0293ZM58.6997 28.5693C58.4731 28.5693 58.3597 28.676 58.3597 28.8893V31.5693C58.3597 31.716 58.3931 31.816 58.4597 31.8693C58.5264 31.9093 58.6331 31.9293 58.7797 31.9293H59.6997C59.8464 31.9293 59.9464 31.9093 59.9997 31.8693C60.0664 31.816 60.0997 31.716 60.0997 31.5693V28.8893C60.0997 28.7826 60.0797 28.7026 60.0397 28.6493C59.9997 28.596 59.9064 28.5693 59.7597 28.5693H58.6997ZM59.6997 38.0093C59.8197 38.0093 59.9131 37.9893 59.9797 37.9493C60.0597 37.9093 60.0997 37.796 60.0997 37.6093V34.4693C60.0997 34.3626 60.0731 34.2826 60.0197 34.2293C59.9664 34.1626 59.8664 34.1293 59.7197 34.1293H58.7397C58.4864 34.1293 58.3597 34.2426 58.3597 34.4693V37.6093C58.3597 37.796 58.3931 37.9093 58.4597 37.9493C58.5397 37.9893 58.6397 38.0093 58.7597 38.0093H59.6997ZM62.9797 31.2293C62.9797 31.6026 62.9197 31.936 62.7997 32.2293C62.6797 32.5093 62.4131 32.7426 61.9997 32.9293C62.4131 33.0226 62.7064 33.236 62.8797 33.5693C63.0531 33.8893 63.1397 34.2226 63.1397 34.5693V38.2493C63.1397 39.0493 62.9597 39.6293 62.5997 39.9893C62.2531 40.3493 61.6597 40.5293 60.8197 40.5293H57.6397C56.7997 40.5293 56.1997 40.3493 55.8397 39.9893C55.4931 39.6293 55.3197 39.0493 55.3197 38.2493V34.5693C55.3197 34.396 55.3464 34.2226 55.3997 34.0493C55.4531 33.8626 55.5264 33.696 55.6197 33.5493C55.7264 33.3893 55.8531 33.256 55.9997 33.1493C56.1464 33.0426 56.3197 32.9693 56.5197 32.9293C56.1331 32.796 55.8731 32.5693 55.7397 32.2493C55.6064 31.916 55.5397 31.576 55.5397 31.2293V28.2493C55.5397 27.4493 55.7264 26.8826 56.0997 26.5493C56.4864 26.2026 57.0997 26.0293 57.9397 26.0293H60.5797C61.4197 26.0293 62.0264 26.2026 62.3997 26.5493C62.7864 26.8826 62.9797 27.4493 62.9797 28.2493V31.2293ZM68.7832 28.8093C68.7832 28.6493 68.7098 28.5693 68.5632 28.5693H67.3832C67.2365 28.5693 67.1632 28.6493 67.1632 28.8093V33.0893C67.1632 33.2226 67.2232 33.2893 67.3432 33.2893H68.7832V28.8093ZM71.7032 38.2893C71.7032 39.0893 71.5365 39.6626 71.2032 40.0093C70.8698 40.356 70.2832 40.5293 69.4432 40.5293H64.7832V37.8293H68.5432C68.7032 37.8293 68.7832 37.736 68.7832 37.5493V35.4893H65.8632C65.4232 35.4893 65.0565 35.3626 64.7632 35.1093C64.4832 34.8426 64.3432 34.4426 64.3432 33.9093V27.8093C64.3432 27.236 64.5032 26.796 64.8232 26.4893C65.1565 26.1826 65.5632 26.0293 66.0432 26.0293H70.0032C70.4832 26.0293 70.8832 26.1826 71.2032 26.4893C71.5365 26.796 71.7032 27.236 71.7032 27.8093V38.2893ZM76.0779 28.5693C75.9045 28.5693 75.8179 28.6626 75.8179 28.8493V37.6893C75.8179 37.796 75.8312 37.876 75.8579 37.9293C75.8979 37.9693 75.9779 37.9893 76.0979 37.9893H77.1579C77.2779 37.9893 77.3512 37.9693 77.3779 37.9293C77.4179 37.876 77.4379 37.796 77.4379 37.6893V28.8493C77.4379 28.6626 77.3512 28.5693 77.1779 28.5693H76.0779ZM72.8979 28.0293C72.8979 27.456 73.0579 26.9826 73.3779 26.6093C73.6979 26.2226 74.1912 26.0293 74.8579 26.0293H78.4179C79.0845 26.0293 79.5779 26.2226 79.8979 26.6093C80.2179 26.9826 80.3779 27.456 80.3779 28.0293V38.5293C80.3779 39.1026 80.2179 39.5826 79.8979 39.9693C79.5779 40.3426 79.0845 40.5293 78.4179 40.5293H74.8579C74.1912 40.5293 73.6979 40.3426 73.3779 39.9693C73.0579 39.5826 72.8979 39.1026 72.8979 38.5293V28.0293Z" fill="black"/>
</svg>
