<svg width="184" height="38" viewBox="0 0 184 38" fill="none" xmlns="http://www.w3.org/2000/svg">
<path d="M6.76074 12.5605V3.03711H8.96387V12.5605H12.0889V3.03711H14.3076V14.5293H1.47168V3.03711H3.69043V12.5605H6.76074ZM18.7998 6.0293V6.9668C19.1852 6.58138 19.6019 6.29232 20.0498 6.09961C20.4977 5.9069 20.9769 5.81055 21.4873 5.81055C22.5967 5.81055 23.5394 6.22982 24.3154 7.06836C25.0915 7.9069 25.4795 8.98242 25.4795 10.2949C25.4795 11.5605 25.0785 12.6204 24.2764 13.4746C23.4743 14.3236 22.5238 14.748 21.4248 14.748C20.9352 14.748 20.4795 14.6621 20.0576 14.4902C19.6357 14.3132 19.2165 14.0267 18.7998 13.6309V17.6387H16.6826V6.0293H18.7998ZM21.042 7.7793C20.3701 7.7793 19.8128 8.00846 19.3701 8.4668C18.9274 8.92513 18.7061 9.52409 18.7061 10.2637C18.7061 11.0189 18.9274 11.6309 19.3701 12.0996C19.8128 12.5632 20.3701 12.7949 21.042 12.7949C21.693 12.7949 22.2399 12.5579 22.6826 12.084C23.1305 11.61 23.3545 11.0059 23.3545 10.2715C23.3545 9.54232 23.1357 8.94596 22.6982 8.48242C22.2607 8.01367 21.7087 7.7793 21.042 7.7793ZM28.3701 14.5293H27.2373V6.0293H29.3154V11.0215L33.667 6.0293H34.6904V14.5293H32.6123V9.63867L28.3701 14.5293ZM42.7842 13.8027C42.0394 14.4486 41.2269 14.7715 40.3467 14.7715C39.279 14.7715 38.3519 14.3496 37.5654 13.5059C36.779 12.6569 36.3857 11.597 36.3857 10.3262C36.3857 8.99805 36.7686 7.91992 37.5342 7.0918C38.2998 6.25846 39.2191 5.8418 40.292 5.8418C41.2503 5.8418 42.0811 6.16732 42.7842 6.81836V2.74805H44.9014V6.81836C45.6045 6.14648 46.4352 5.81055 47.3936 5.81055C48.0758 5.81055 48.7113 5.99023 49.2998 6.34961C49.8883 6.70898 50.3675 7.22461 50.7373 7.89648C51.1071 8.56836 51.292 9.36784 51.292 10.2949C51.292 11.5918 50.8936 12.6595 50.0967 13.498C49.305 14.3314 48.3857 14.748 47.3389 14.748C46.4587 14.748 45.6462 14.4329 44.9014 13.8027V17.6387H42.7842V13.8027ZM49.1592 10.2793C49.1592 9.55534 48.9535 8.96159 48.542 8.49805C48.1305 8.0293 47.5993 7.79492 46.9482 7.79492C46.3857 7.79492 45.8936 8.01888 45.4717 8.4668C45.055 8.90951 44.8467 9.54232 44.8467 10.3652C44.8467 11.1309 45.0472 11.7298 45.4482 12.1621C45.8545 12.5944 46.3571 12.8105 46.9561 12.8105C47.5758 12.8105 48.0967 12.5736 48.5186 12.0996C48.9456 11.6204 49.1592 11.0137 49.1592 10.2793ZM42.8467 10.3574C42.8467 9.80013 42.7529 9.3444 42.5654 8.99023C42.3779 8.63086 42.1253 8.3444 41.8076 8.13086C41.4951 7.91732 41.1383 7.81055 40.7373 7.81055C40.0498 7.81055 39.5107 8.05534 39.1201 8.54492C38.7295 9.0293 38.5342 9.61263 38.5342 10.2949C38.5342 11.0241 38.7451 11.6283 39.167 12.1074C39.5889 12.5866 40.1097 12.8262 40.7295 12.8262C41.3285 12.8262 41.8311 12.6126 42.2373 12.1855C42.6436 11.7533 42.8467 11.1439 42.8467 10.3574ZM52.2217 6.0293H60.1436V8.06055H57.3232V14.5293H55.1826V8.06055H52.2217V6.0293ZM76.8232 5.06055L75.292 6.52148C74.2503 5.42253 73.0785 4.87305 71.7764 4.87305C70.6774 4.87305 69.7503 5.24805 68.9951 5.99805C68.2451 6.74805 67.8701 7.67253 67.8701 8.77148C67.8701 9.53711 68.0368 10.2168 68.3701 10.8105C68.7035 11.4043 69.1748 11.8704 69.7842 12.209C70.3936 12.5475 71.0706 12.7168 71.8154 12.7168C72.4508 12.7168 73.0316 12.5996 73.5576 12.3652C74.0837 12.1257 74.6618 11.6934 75.292 11.0684L76.7764 12.6152C75.9274 13.4434 75.1253 14.0189 74.3701 14.3418C73.6149 14.6595 72.7529 14.8184 71.7842 14.8184C69.9977 14.8184 68.5342 14.2533 67.3936 13.123C66.2581 11.9876 65.6904 10.5345 65.6904 8.76367C65.6904 7.61784 65.9482 6.59961 66.4639 5.70898C66.9847 4.81836 67.7269 4.10221 68.6904 3.56055C69.6592 3.01888 70.7008 2.74805 71.8154 2.74805C72.7633 2.74805 73.6748 2.94857 74.5498 3.34961C75.43 3.75065 76.1878 4.32096 76.8232 5.06055ZM87.0264 10.8965H80.1748C80.2738 11.5007 80.5368 11.9824 80.9639 12.3418C81.3962 12.696 81.9456 12.873 82.6123 12.873C83.4092 12.873 84.0941 12.5944 84.667 12.0371L86.4639 12.8809C86.016 13.5163 85.4795 13.9876 84.8545 14.2949C84.2295 14.597 83.4873 14.748 82.6279 14.748C81.2946 14.748 80.2087 14.3288 79.3701 13.4902C78.5316 12.6465 78.1123 11.5918 78.1123 10.3262C78.1123 9.0293 78.529 7.95378 79.3623 7.09961C80.2008 6.24023 81.2503 5.81055 82.5107 5.81055C83.8493 5.81055 84.9378 6.24023 85.7764 7.09961C86.6149 7.95378 87.0342 9.08398 87.0342 10.4902L87.0264 10.8965ZM84.8857 9.2168C84.7451 8.74284 84.4665 8.35742 84.0498 8.06055C83.6383 7.76367 83.1592 7.61523 82.6123 7.61523C82.0186 7.61523 81.4977 7.7819 81.0498 8.11523C80.7686 8.32357 80.5081 8.69076 80.2686 9.2168H84.8857ZM88.7607 6.0293H90.8857V6.89648C91.3701 6.49023 91.8076 6.20898 92.1982 6.05273C92.5941 5.89128 92.9977 5.81055 93.4092 5.81055C94.2529 5.81055 94.9691 6.10482 95.5576 6.69336C96.0524 7.19336 96.2998 7.93294 96.2998 8.91211V14.5293H94.1904V10.8027C94.1904 9.78711 94.1436 9.11263 94.0498 8.7793C93.9613 8.44596 93.8024 8.19336 93.5732 8.02148C93.3493 7.8444 93.0706 7.75586 92.7373 7.75586C92.305 7.75586 91.9326 7.90169 91.6201 8.19336C91.3128 8.47982 91.0993 8.87826 90.9795 9.38867C90.917 9.6543 90.8857 10.2298 90.8857 11.1152V14.5293H88.7607V6.0293ZM98.6279 2.89648H100.753V6.0293H102.019V7.86523H100.753V14.5293H98.6279V7.86523H97.5342V6.0293H98.6279V2.89648ZM103.159 6.0293H105.315V10.123C105.315 10.9199 105.37 11.4746 105.479 11.7871C105.589 12.0944 105.763 12.334 106.003 12.5059C106.248 12.6777 106.547 12.7637 106.901 12.7637C107.256 12.7637 107.555 12.6803 107.8 12.5137C108.05 12.3418 108.235 12.0918 108.354 11.7637C108.443 11.5189 108.487 10.9954 108.487 10.1934V6.0293H110.628V9.63086C110.628 11.1152 110.511 12.1309 110.276 12.6777C109.99 13.3444 109.568 13.8574 109.011 14.2168C108.453 14.571 107.745 14.748 106.886 14.748C105.953 14.748 105.198 14.5397 104.62 14.123C104.047 13.7064 103.644 13.1257 103.409 12.3809C103.243 11.8652 103.159 10.9277 103.159 9.56836V6.0293ZM112.276 6.0293H114.104V7.09961C114.302 6.67773 114.565 6.35742 114.894 6.13867C115.222 5.91992 115.581 5.81055 115.972 5.81055C116.248 5.81055 116.537 5.88346 116.839 6.0293L116.175 7.86523C115.925 7.74023 115.719 7.67773 115.558 7.67773C115.229 7.67773 114.951 7.88086 114.722 8.28711C114.498 8.69336 114.386 9.49023 114.386 10.6777L114.394 11.0918V14.5293H112.276V6.0293ZM116.956 6.0293H119.136L121.347 11.3652L123.784 6.0293H125.972L120.644 17.6387H118.44L120.19 13.8965L116.956 6.0293ZM142.511 4.91211L140.972 6.43555C139.998 5.4043 138.862 4.88867 137.565 4.88867C136.435 4.88867 135.487 5.26367 134.722 6.01367C133.961 6.76367 133.581 7.67513 133.581 8.74805C133.581 9.85742 133.977 10.7975 134.769 11.5684C135.56 12.3392 136.537 12.7246 137.698 12.7246C138.453 12.7246 139.089 12.5658 139.604 12.248C140.125 11.9303 140.545 11.4329 140.862 10.7559H137.534V8.70117H143.315L143.331 9.18555C143.331 10.1908 143.071 11.1439 142.55 12.0449C142.029 12.946 141.354 13.6335 140.526 14.1074C139.698 14.5814 138.727 14.8184 137.612 14.8184C136.42 14.8184 135.354 14.5605 134.417 14.0449C133.485 13.5241 132.745 12.7845 132.198 11.8262C131.657 10.8678 131.386 9.83398 131.386 8.72461C131.386 7.20378 131.888 5.88086 132.894 4.75586C134.086 3.41732 135.638 2.74805 137.55 2.74805C138.55 2.74805 139.485 2.93294 140.354 3.30273C141.089 3.61523 141.808 4.15169 142.511 4.91211ZM149.097 5.81055C149.899 5.81055 150.651 6.01107 151.354 6.41211C152.063 6.81315 152.615 7.35742 153.011 8.04492C153.407 8.73242 153.604 9.47461 153.604 10.2715C153.604 11.0736 153.404 11.8236 153.003 12.5215C152.607 13.2194 152.065 13.7663 151.378 14.1621C150.69 14.5527 149.933 14.748 149.104 14.748C147.886 14.748 146.844 14.3158 145.979 13.4512C145.12 12.5814 144.69 11.5267 144.69 10.2871C144.69 8.95898 145.177 7.85221 146.151 6.9668C147.006 6.19596 147.987 5.81055 149.097 5.81055ZM149.128 7.81836C148.466 7.81836 147.914 8.05013 147.472 8.51367C147.034 8.97201 146.815 9.56055 146.815 10.2793C146.815 11.0189 147.032 11.6178 147.464 12.0762C147.901 12.5345 148.453 12.7637 149.12 12.7637C149.787 12.7637 150.341 12.5319 150.784 12.0684C151.227 11.6048 151.448 11.0085 151.448 10.2793C151.448 9.55013 151.229 8.95898 150.792 8.50586C150.36 8.04753 149.805 7.81836 149.128 7.81836ZM155.612 2.89648H157.737V6.0293H159.003V7.86523H157.737V14.5293H155.612V7.86523H154.519V6.0293H155.612V2.89648ZM160.159 2.74805H162.276V6.88867C162.693 6.5293 163.112 6.26107 163.534 6.08398C163.956 5.90169 164.383 5.81055 164.815 5.81055C165.659 5.81055 166.37 6.10221 166.948 6.68555C167.443 7.19076 167.69 7.93294 167.69 8.91211V14.5293H165.589V10.8027C165.589 9.81836 165.542 9.15169 165.448 8.80273C165.354 8.45378 165.193 8.19336 164.964 8.02148C164.74 7.84961 164.461 7.76367 164.128 7.76367C163.696 7.76367 163.323 7.9069 163.011 8.19336C162.703 8.47982 162.49 8.87044 162.37 9.36523C162.308 9.62044 162.276 10.2038 162.276 11.1152V14.5293H160.159V2.74805ZM170.597 2.5293C170.972 2.5293 171.292 2.66471 171.558 2.93555C171.828 3.20638 171.964 3.53451 171.964 3.91992C171.964 4.30013 171.831 4.62565 171.565 4.89648C171.3 5.16211 170.982 5.29492 170.612 5.29492C170.232 5.29492 169.907 5.15951 169.636 4.88867C169.37 4.61263 169.237 4.2793 169.237 3.88867C169.237 3.51367 169.37 3.19336 169.636 2.92773C169.901 2.66211 170.222 2.5293 170.597 2.5293ZM169.526 6.0293H171.667V14.5293H169.526V6.0293ZM181.925 7.74805L180.151 8.72461C179.818 8.37565 179.487 8.13346 179.159 7.99805C178.836 7.86263 178.456 7.79492 178.019 7.79492C177.222 7.79492 176.576 8.03451 176.081 8.51367C175.591 8.98763 175.347 9.59701 175.347 10.3418C175.347 11.0658 175.584 11.6569 176.058 12.1152C176.532 12.5736 177.154 12.8027 177.925 12.8027C178.878 12.8027 179.62 12.4772 180.151 11.8262L181.831 12.9746C180.92 14.1569 179.633 14.748 177.972 14.748C176.477 14.748 175.305 14.3053 174.456 13.4199C173.612 12.5345 173.19 11.498 173.19 10.3105C173.19 9.48763 173.396 8.72982 173.808 8.03711C174.219 7.3444 174.792 6.80013 175.526 6.4043C176.266 6.00846 177.091 5.81055 178.003 5.81055C178.847 5.81055 179.604 5.97982 180.276 6.31836C180.948 6.65169 181.498 7.12826 181.925 7.74805Z" fill="black"/>
<path d="M2.7998 24.0371H6.07324V35.5293H3.90137V26.0918H1.53418L2.7998 24.0371ZM11.9248 27.7402H9.79199C9.84928 26.5007 10.2373 25.5267 10.9561 24.8184C11.68 24.1048 12.6071 23.748 13.7373 23.748C14.4352 23.748 15.0498 23.8965 15.5811 24.1934C16.1175 24.485 16.5446 24.9095 16.8623 25.4668C17.1852 26.0189 17.3467 26.5814 17.3467 27.1543C17.3467 27.8366 17.1514 28.571 16.7607 29.3574C16.3753 30.1439 15.667 31.0736 14.6357 32.1465L13.3467 33.5059H17.4404V35.5293H9.47949V34.4824L13.0342 30.8574C13.8936 29.9876 14.4639 29.2897 14.7451 28.7637C15.0316 28.2324 15.1748 27.7533 15.1748 27.3262C15.1748 26.8835 15.0264 26.5189 14.7295 26.2324C14.4378 25.9408 14.0602 25.7949 13.5967 25.7949C13.1279 25.7949 12.7373 25.9694 12.4248 26.3184C12.1123 26.6673 11.9456 27.1413 11.9248 27.7402ZM21.1436 26.873H19.042C19.1514 26.0241 19.4561 25.3418 19.9561 24.8262C20.654 24.1074 21.5316 23.748 22.5889 23.748C23.5316 23.748 24.3206 24.0475 24.9561 24.6465C25.5967 25.2454 25.917 25.9564 25.917 26.7793C25.917 27.2897 25.7764 27.7559 25.4951 28.1777C25.2191 28.5996 24.8154 28.9408 24.2842 29.2012C24.9821 29.4095 25.5264 29.7741 25.917 30.2949C26.3128 30.8105 26.5107 31.4199 26.5107 32.123C26.5107 33.1543 26.1305 34.0293 25.3701 34.748C24.6097 35.4616 23.641 35.8184 22.4639 35.8184C21.3493 35.8184 20.4404 35.4824 19.7373 34.8105C19.0342 34.1335 18.6488 33.2142 18.5811 32.0527H20.7451C20.8389 32.6465 21.0446 33.0892 21.3623 33.3809C21.6852 33.6673 22.0915 33.8105 22.5811 33.8105C23.0915 33.8105 23.5133 33.6465 23.8467 33.3184C24.1852 32.9902 24.3545 32.5892 24.3545 32.1152C24.3545 31.5944 24.1279 31.1543 23.6748 30.7949C23.2217 30.4355 22.568 30.2507 21.7139 30.2402V28.3652C22.2399 28.3236 22.6305 28.2428 22.8857 28.123C23.1462 27.998 23.3467 27.8288 23.4873 27.6152C23.6331 27.4017 23.7061 27.1751 23.7061 26.9355C23.7061 26.623 23.5967 26.3652 23.3779 26.1621C23.1592 25.9538 22.8727 25.8496 22.5186 25.8496C22.2061 25.8496 21.9222 25.946 21.667 26.1387C21.4118 26.3262 21.2373 26.571 21.1436 26.873ZM32.3701 23.748H34.5576V31.1465H35.5811V33.1699H34.5576V35.5293H32.417V33.1699H27.4014V31.1465L32.3701 23.748ZM32.417 31.1465V27.2949L29.792 31.1465H32.417ZM38.7139 24.0371H44.0967V26.0527H40.3467L39.8779 28.1465C40.0081 28.11 40.1357 28.084 40.2607 28.0684C40.3857 28.0475 40.5055 28.0371 40.6201 28.0371C41.6618 28.0371 42.5264 28.3939 43.2139 29.1074C43.9066 29.8158 44.2529 30.7246 44.2529 31.834C44.2529 32.9538 43.8701 33.8991 43.1045 34.6699C42.3441 35.4355 41.417 35.8184 40.3232 35.8184C39.3441 35.8184 38.5029 35.5397 37.7998 34.9824C37.0967 34.4251 36.6357 33.6621 36.417 32.6934H38.7139C38.891 33.0527 39.1227 33.3262 39.4092 33.5137C39.7008 33.696 40.0212 33.7871 40.3701 33.7871C40.8545 33.7871 41.266 33.6126 41.6045 33.2637C41.943 32.9147 42.1123 32.4668 42.1123 31.9199C42.1123 31.3887 41.9535 30.9538 41.6357 30.6152C41.3232 30.2715 40.943 30.0996 40.4951 30.0996C40.2555 30.0996 40.0186 30.1595 39.7842 30.2793C39.555 30.3991 39.3285 30.5788 39.1045 30.8184L37.3232 30.4199L38.7139 24.0371ZM49.6514 23.748L51.5107 24.6777L49.5029 28.584C50.4769 28.584 51.305 28.9329 51.9873 29.6309C52.6696 30.3288 53.0107 31.196 53.0107 32.2324C53.0107 33.2324 52.6592 34.0814 51.9561 34.7793C51.2581 35.472 50.4144 35.8184 49.4248 35.8184C48.3883 35.8184 47.5238 35.459 46.8311 34.7402C46.1436 34.0163 45.7998 33.1882 45.7998 32.2559C45.7998 31.9017 45.8519 31.5449 45.9561 31.1855C46.0654 30.8262 46.3128 30.2741 46.6982 29.5293L49.6514 23.748ZM49.3779 30.6543C48.9717 30.6543 48.6305 30.8027 48.3545 31.0996C48.0785 31.3913 47.9404 31.7585 47.9404 32.2012C47.9404 32.6439 48.0837 33.0163 48.3701 33.3184C48.6618 33.6204 49.0003 33.7715 49.3857 33.7715C49.792 33.7715 50.141 33.623 50.4326 33.3262C50.7243 33.0293 50.8701 32.6543 50.8701 32.2012C50.8701 31.7585 50.7269 31.3913 50.4404 31.0996C50.1592 30.8027 49.805 30.6543 49.3779 30.6543ZM54.9404 24.0371H62.4795V25.1855L57.292 35.8184L55.4404 34.9199L59.7529 26.0918H54.9404V24.0371ZM69.7842 29.3027C70.305 29.6361 70.7061 30.0658 70.9873 30.5918C71.2738 31.1126 71.417 31.6777 71.417 32.2871C71.417 32.9486 71.2503 33.5605 70.917 34.123C70.5889 34.6855 70.1462 35.11 69.5889 35.3965C69.0316 35.6777 68.3206 35.8184 67.4561 35.8184C66.529 35.8184 65.792 35.6829 65.2451 35.4121C64.6982 35.1361 64.2607 34.722 63.9326 34.1699C63.6045 33.6126 63.4404 32.985 63.4404 32.2871C63.4404 31.6829 63.5706 31.1335 63.8311 30.6387C64.0967 30.1387 64.4925 29.6934 65.0186 29.3027C64.6748 28.9538 64.4144 28.584 64.2373 28.1934C64.0654 27.7975 63.9795 27.3809 63.9795 26.9434C63.9795 26.3444 64.1227 25.8001 64.4092 25.3105C64.7008 24.8158 65.1071 24.4329 65.6279 24.1621C66.1488 23.8861 66.7503 23.748 67.4326 23.748C68.1045 23.748 68.6956 23.8861 69.2061 24.1621C69.7165 24.4382 70.1175 24.8314 70.4092 25.3418C70.7061 25.847 70.8545 26.3913 70.8545 26.9746C70.8545 27.3861 70.7764 27.7689 70.6201 28.123C70.4691 28.472 70.1904 28.8652 69.7842 29.3027ZM67.3623 25.8574C67.0029 25.8574 66.7061 25.9772 66.4717 26.2168C66.2425 26.4512 66.1279 26.7533 66.1279 27.123C66.1279 27.4928 66.2503 27.8027 66.4951 28.0527C66.7399 28.3027 67.042 28.4277 67.4014 28.4277C67.7712 28.4277 68.0732 28.3053 68.3076 28.0605C68.5472 27.8158 68.667 27.498 68.667 27.1074C68.667 26.7376 68.5472 26.4382 68.3076 26.209C68.068 25.9746 67.7529 25.8574 67.3623 25.8574ZM67.4482 30.4668C66.9222 30.4668 66.4795 30.6283 66.1201 30.9512C65.7607 31.2689 65.5811 31.6491 65.5811 32.0918C65.5811 32.5553 65.7503 32.9486 66.0889 33.2715C66.4274 33.5892 66.8727 33.748 67.4248 33.748C67.9821 33.748 68.4248 33.5996 68.7529 33.3027C69.0863 33.0007 69.2529 32.6126 69.2529 32.1387C69.2529 31.6647 69.0811 31.2689 68.7373 30.9512C68.3936 30.6283 67.9639 30.4668 67.4482 30.4668ZM76.2373 35.8184L74.3779 34.8965L76.3857 30.9902C75.4118 30.9902 74.5837 30.6413 73.9014 29.9434C73.2191 29.2454 72.8779 28.3783 72.8779 27.3418C72.8779 26.3366 73.2269 25.4876 73.9248 24.7949C74.6279 24.097 75.4743 23.748 76.4639 23.748C77.5003 23.748 78.3623 24.11 79.0498 24.834C79.7425 25.5527 80.0889 26.3809 80.0889 27.3184C80.0889 27.6725 80.0342 28.0293 79.9248 28.3887C79.8206 28.7428 79.5758 29.2923 79.1904 30.0371L76.2373 35.8184ZM76.5107 28.9199C76.917 28.9199 77.2581 28.7715 77.5342 28.4746C77.8102 28.1777 77.9482 27.8105 77.9482 27.373C77.9482 26.9251 77.8024 26.5501 77.5107 26.248C77.2243 25.946 76.8883 25.7949 76.5029 25.7949C76.0967 25.7949 75.7477 25.946 75.4561 26.248C75.1644 26.5449 75.0186 26.9173 75.0186 27.3652C75.0186 27.8079 75.1592 28.1777 75.4404 28.4746C75.7269 28.7715 76.0837 28.9199 76.5107 28.9199ZM85.3311 23.748C86.1696 23.748 86.891 23.9538 87.4951 24.3652C88.1045 24.7767 88.5732 25.4069 88.9014 26.2559C89.2347 27.0996 89.4014 28.2767 89.4014 29.7871C89.4014 31.3132 89.2321 32.5007 88.8936 33.3496C88.5602 34.1986 88.1097 34.8236 87.542 35.2246C86.9743 35.6204 86.2581 35.8184 85.3936 35.8184C84.529 35.8184 83.8024 35.6178 83.2139 35.2168C82.6253 34.8158 82.1644 34.2064 81.8311 33.3887C81.4977 32.571 81.3311 31.4069 81.3311 29.8965C81.3311 27.7871 81.6566 26.2585 82.3076 25.3105C83.0316 24.2689 84.0394 23.748 85.3311 23.748ZM85.3857 25.8262C85.016 25.8262 84.6878 25.946 84.4014 26.1855C84.1149 26.4199 83.8962 26.8262 83.7451 27.4043C83.5941 27.9824 83.5186 28.8288 83.5186 29.9434C83.5186 31.3965 83.6904 32.4017 84.0342 32.959C84.3831 33.5111 84.8337 33.7871 85.3857 33.7871C85.917 33.7871 86.3389 33.5241 86.6514 32.998C87.0316 32.3626 87.2217 31.3001 87.2217 29.8105C87.2217 28.3001 87.0498 27.2585 86.7061 26.6855C86.3675 26.1126 85.9274 25.8262 85.3857 25.8262Z" fill="black"/>
</svg>
