<svg width="123" height="46" viewBox="0 0 123 46" fill="none" xmlns="http://www.w3.org/2000/svg">
<path d="M1.62 18.9409V2.14092H1.82H5.18V17.1009H6.04V2.14092H6.24H9.6V17.1009H10.46V2.14092H10.66H14.02V18.9409H13.82H1.62ZM15.9884 23.4209V5.50092H16.1884H19.0284V5.88092C19.2684 5.69425 19.5418 5.54092 19.8484 5.42092C20.1684 5.28758 20.5151 5.22092 20.8884 5.22092H21.0884C21.6351 5.22092 22.0284 5.36758 22.2684 5.66092C22.5218 5.95425 22.6884 6.28092 22.7684 6.64092C22.7951 6.81425 22.8151 6.98758 22.8284 7.16092C22.8418 7.32092 22.8484 7.46758 22.8484 7.60092V16.8209C22.8484 16.9543 22.8418 17.1009 22.8284 17.2609C22.8284 17.4209 22.8084 17.5809 22.7684 17.7409C22.7018 18.1143 22.5351 18.4543 22.2684 18.7609C22.0151 19.0543 21.5751 19.2009 20.9484 19.2009L20.7484 19.2209C20.5351 19.2076 20.2751 19.1543 19.9684 19.0609C19.6618 18.9809 19.3484 18.8009 19.0284 18.5209V23.4209H18.8284H15.9884ZM19.0284 7.40092V17.0209C19.0284 17.1276 19.0618 17.2209 19.1284 17.3009C19.2084 17.3809 19.2951 17.4343 19.3884 17.4609C19.4951 17.4343 19.5884 17.3876 19.6684 17.3209C19.7618 17.2543 19.8084 17.1543 19.8084 17.0209V7.40092C19.8084 7.26758 19.7618 7.16758 19.6684 7.10092C19.5884 7.02092 19.4951 6.97425 19.3884 6.96092C19.2951 6.97425 19.2084 7.02758 19.1284 7.12092C19.0618 7.20092 19.0284 7.29425 19.0284 7.40092ZM24.5236 18.9409V5.50092H24.7236H27.5636V10.8809L28.8236 5.50092H29.0236H31.8636V18.9409H31.6636H28.8236V13.1209L27.5636 18.9409H27.3636H24.5236ZM37.367 23.4009V18.5809C37.007 18.8209 36.667 18.9809 36.347 19.0609C36.0404 19.1543 35.7337 19.2009 35.427 19.2009L35.227 19.2209C34.707 19.2076 34.3337 19.0676 34.107 18.8009C33.8804 18.5343 33.727 18.2409 33.647 17.9209C33.607 17.7476 33.5804 17.5743 33.567 17.4009C33.5537 17.2276 33.547 17.0809 33.547 16.9609V7.48092C33.547 6.74758 33.6737 6.22092 33.927 5.90092C34.1937 5.58092 34.487 5.37425 34.807 5.28092C34.887 5.26758 34.9737 5.25425 35.067 5.24092C35.1604 5.22758 35.247 5.22092 35.327 5.22092H35.527C35.6204 5.22092 35.7137 5.22758 35.807 5.24092C35.9137 5.25425 36.0204 5.27425 36.127 5.30092C36.3537 5.35425 36.5737 5.42758 36.787 5.52092C37.0004 5.61425 37.1937 5.72092 37.367 5.84092V1.86092H37.567H40.407V5.84092C40.6604 5.66758 40.947 5.52092 41.267 5.40092C41.6004 5.28092 41.947 5.22092 42.307 5.22092H42.507C43.0137 5.22092 43.387 5.34758 43.627 5.60092C43.867 5.85425 44.0337 6.13425 44.127 6.44092C44.1804 6.64092 44.2137 6.83425 44.227 7.02092C44.2404 7.20758 44.247 7.36092 44.247 7.48092V16.9609C44.247 17.0809 44.2404 17.2276 44.227 17.4009C44.2137 17.5609 44.187 17.7276 44.147 17.9009C44.0804 18.2343 43.927 18.5343 43.687 18.8009C43.4604 19.0676 43.087 19.2009 42.567 19.2009L42.367 19.2209C42.0737 19.2076 41.767 19.1543 41.447 19.0609C41.1404 18.9809 40.7937 18.8209 40.407 18.5809V23.4009H40.207H37.367ZM36.587 7.58092V16.9409C36.587 17.0609 36.6204 17.1543 36.687 17.2209C36.7537 17.2876 36.827 17.3343 36.907 17.3609C36.9204 17.3609 36.9337 17.3676 36.947 17.3809C36.9604 17.3809 36.9737 17.3809 36.987 17.3809C37.0004 17.3809 37.007 17.3809 37.007 17.3809C37.0204 17.3809 37.027 17.3809 37.027 17.3809C37.1204 17.3543 37.2004 17.3076 37.267 17.2409C37.3337 17.1743 37.367 17.0809 37.367 16.9609V7.58092C37.367 7.46092 37.3337 7.36758 37.267 7.30092C37.2004 7.23425 37.1204 7.18758 37.027 7.16092C37.027 7.16092 37.0204 7.16092 37.007 7.16092C37.007 7.16092 37.0004 7.16092 36.987 7.16092C36.9737 7.16092 36.9604 7.16758 36.947 7.18092C36.9337 7.18092 36.9204 7.18092 36.907 7.18092C36.827 7.20758 36.7537 7.25425 36.687 7.32092C36.6204 7.38758 36.587 7.47425 36.587 7.58092ZM40.407 7.58092V16.9609C40.407 17.0543 40.447 17.1409 40.527 17.2209C40.6204 17.3009 40.7137 17.3543 40.807 17.3809C40.8204 17.3809 40.8337 17.3809 40.847 17.3809C40.8604 17.3676 40.8737 17.3609 40.887 17.3609C40.967 17.3343 41.0404 17.2876 41.107 17.2209C41.1737 17.1543 41.207 17.0676 41.207 16.9609V7.58092C41.207 7.47425 41.1737 7.38758 41.107 7.32092C41.0404 7.25425 40.967 7.20758 40.887 7.18092C40.8737 7.18092 40.8604 7.18092 40.847 7.18092C40.8337 7.16758 40.8204 7.16092 40.807 7.16092C40.7137 7.17425 40.6204 7.22092 40.527 7.30092C40.447 7.38092 40.407 7.47425 40.407 7.58092ZM47.6498 18.9409V7.26092H45.5098V5.50092H45.7098H52.8298V7.26092H50.6898V18.9409H50.4898H47.6498ZM66.2405 13.0609H69.6005V16.4809C69.6005 16.6276 69.5938 16.7943 69.5805 16.9809C69.5805 17.1543 69.5671 17.3276 69.5405 17.5009C69.4605 17.9276 69.2538 18.3209 68.9205 18.6809C68.6005 19.0276 68.0071 19.2009 67.1405 19.2009L66.9405 19.2209H64.1005C63.9805 19.2076 63.8605 19.1943 63.7405 19.1809C63.6205 19.1809 63.4938 19.1743 63.3605 19.1609C62.9205 19.0943 62.5138 18.8876 62.1405 18.5409C61.7805 18.1943 61.6005 17.5143 61.6005 16.5009V4.78092C61.6005 4.76758 61.6005 4.75425 61.6005 4.74092C61.6005 4.72758 61.6005 4.71425 61.6005 4.70092C61.6005 4.54092 61.6005 4.36092 61.6005 4.16092C61.6138 3.96092 61.6471 3.75425 61.7005 3.54092C61.8071 3.15425 62.0271 2.80092 62.3605 2.48092C62.7071 2.16092 63.2805 2.00092 64.0805 2.00092H64.2805H67.1205C67.2405 2.00092 67.3738 2.00758 67.5205 2.02092C67.6671 2.02092 67.8071 2.03425 67.9405 2.06092C68.3538 2.12758 68.7338 2.34758 69.0805 2.72092C69.4271 3.08092 69.6005 3.76758 69.6005 4.78092V7.80092H69.4005H66.0405V4.22092C66.0405 4.20758 66.0405 4.20092 66.0405 4.20092C66.0405 4.18758 66.0405 4.17425 66.0405 4.16092C66.0271 4.05425 65.9805 3.96092 65.9005 3.88092C65.8205 3.78758 65.7205 3.72758 65.6005 3.70092C65.4805 3.72758 65.3871 3.78092 65.3205 3.86092C65.2538 3.92758 65.2071 4.00092 65.1805 4.08092C65.1805 4.10758 65.1738 4.13425 65.1605 4.16092C65.1605 4.17425 65.1605 4.19425 65.1605 4.22092V16.8609C65.1605 16.8876 65.1605 16.9143 65.1605 16.9409C65.1738 16.9543 65.1805 16.9743 65.1805 17.0009C65.2071 17.0809 65.2538 17.1609 65.3205 17.2409C65.3871 17.3076 65.4805 17.3543 65.6005 17.3809C65.7205 17.3543 65.8205 17.3009 65.9005 17.2209C65.9805 17.1276 66.0271 17.0276 66.0405 16.9209C66.0405 16.9076 66.0405 16.9009 66.0405 16.9009C66.0405 16.8876 66.0405 16.8743 66.0405 16.8609V13.0609H66.2405ZM71.2814 16.8409V7.66092C71.2814 6.92758 71.4281 6.39425 71.7214 6.06092C72.0147 5.71425 72.3347 5.48092 72.6814 5.36092C72.8547 5.30758 73.0281 5.27425 73.2014 5.26092C73.3747 5.23425 73.5281 5.22092 73.6614 5.22092H73.8614H75.7614C76.4147 5.22092 76.9081 5.35425 77.2414 5.62092C77.5747 5.87425 77.8014 6.16092 77.9214 6.48092C78.0281 6.73425 78.0881 6.97425 78.1014 7.20092C78.1281 7.41425 78.1414 7.56758 78.1414 7.66092V16.8409C78.1414 16.9476 78.1347 17.1076 78.1214 17.3209C78.1081 17.5209 78.0547 17.7343 77.9614 17.9609C77.8414 18.2809 77.6147 18.5676 77.2814 18.8209C76.9614 19.0743 76.4547 19.2009 75.7614 19.2009L75.5614 19.2209H73.6614C72.9681 19.2076 72.4547 19.0743 72.1214 18.8209C71.8014 18.5676 71.5814 18.2809 71.4614 17.9609C71.3681 17.7343 71.3147 17.5209 71.3014 17.3209C71.2881 17.1076 71.2814 16.9476 71.2814 16.8409ZM74.3214 7.44092V17.0009C74.3214 17.1076 74.3547 17.2076 74.4214 17.3009C74.5014 17.3809 74.5947 17.4343 74.7014 17.4609C74.7814 17.4476 74.8481 17.4143 74.9014 17.3609C74.9547 17.3076 75.0014 17.2543 75.0414 17.2009C75.0547 17.1609 75.0681 17.1276 75.0814 17.1009C75.0947 17.0609 75.1014 17.0276 75.1014 17.0009V7.44092C75.1014 7.41425 75.0947 7.38758 75.0814 7.36092C75.0681 7.32092 75.0547 7.28092 75.0414 7.24092C75.0014 7.18758 74.9547 7.13425 74.9014 7.08092C74.8481 7.02758 74.7814 6.99425 74.7014 6.98092C74.5947 7.00758 74.5014 7.06758 74.4214 7.16092C74.3547 7.24092 74.3214 7.33425 74.3214 7.44092ZM79.8166 18.9409V5.50092H80.0166H82.8566V5.98092C82.8966 5.94092 82.9432 5.90758 82.9966 5.88092C83.0499 5.84092 83.1032 5.80092 83.1566 5.76092C83.3699 5.62758 83.6166 5.50758 83.8966 5.40092C84.1766 5.28092 84.4832 5.22092 84.8166 5.22092H85.0166C85.1499 5.22092 85.2899 5.24092 85.4366 5.28092C85.5832 5.30758 85.7299 5.36758 85.8766 5.46092C85.9699 5.52758 86.0632 5.60758 86.1566 5.70092C86.2499 5.78092 86.3366 5.88758 86.4166 6.02092C86.9232 5.63425 87.3699 5.40758 87.7566 5.34092C88.1432 5.26092 88.4432 5.22092 88.6566 5.22092H88.8566C89.3899 5.22092 89.7699 5.37425 89.9966 5.68092C90.2232 5.98758 90.3699 6.32092 90.4366 6.68092C90.4632 6.85425 90.4766 7.02092 90.4766 7.18092C90.4899 7.34092 90.4966 7.48758 90.4966 7.62092V18.9409H90.2966H87.4566V7.58092C87.4566 7.46092 87.4232 7.36092 87.3566 7.28092C87.2899 7.18758 87.2032 7.13425 87.0966 7.12092C86.9766 7.13425 86.8766 7.18758 86.7966 7.28092C86.7166 7.36092 86.6766 7.46092 86.6766 7.58092V18.9409H86.4766H83.6366V7.56092C83.6366 7.45425 83.6032 7.36092 83.5366 7.28092C83.4699 7.18758 83.3832 7.13425 83.2766 7.12092C83.1566 7.13425 83.0566 7.18092 82.9766 7.26092C82.8966 7.34092 82.8566 7.44092 82.8566 7.56092V18.9409H82.6566H79.8166ZM92.1798 23.4209V5.50092H92.3798H95.2198V5.88092C95.4598 5.69425 95.7332 5.54092 96.0398 5.42092C96.3598 5.28758 96.7065 5.22092 97.0798 5.22092H97.2798C97.8265 5.22092 98.2198 5.36758 98.4598 5.66092C98.7132 5.95425 98.8798 6.28092 98.9598 6.64092C98.9865 6.81425 99.0065 6.98758 99.0198 7.16092C99.0332 7.32092 99.0398 7.46758 99.0398 7.60092V16.8209C99.0398 16.9543 99.0332 17.1009 99.0198 17.2609C99.0198 17.4209 98.9998 17.5809 98.9598 17.7409C98.8932 18.1143 98.7265 18.4543 98.4598 18.7609C98.2065 19.0543 97.7665 19.2009 97.1398 19.2009L96.9398 19.2209C96.7265 19.2076 96.4665 19.1543 96.1598 19.0609C95.8532 18.9809 95.5398 18.8009 95.2198 18.5209V23.4209H95.0198H92.1798ZM95.2198 7.40092V17.0209C95.2198 17.1276 95.2532 17.2209 95.3198 17.3009C95.3998 17.3809 95.4865 17.4343 95.5798 17.4609C95.6865 17.4343 95.7798 17.3876 95.8598 17.3209C95.9532 17.2543 95.9998 17.1543 95.9998 17.0209V7.40092C95.9998 7.26758 95.9532 7.16758 95.8598 7.10092C95.7798 7.02092 95.6865 6.97425 95.5798 6.96092C95.4865 6.97425 95.3998 7.02758 95.3198 7.12092C95.2532 7.20092 95.2198 7.29425 95.2198 7.40092ZM100.715 9.76092V7.42092C100.715 6.74092 100.855 6.24758 101.135 5.94092C101.415 5.63425 101.722 5.43425 102.055 5.34092C102.242 5.28758 102.422 5.25425 102.595 5.24092C102.782 5.22758 102.942 5.22092 103.075 5.22092H103.275H105.715C106.288 5.22092 106.742 5.40758 107.075 5.78092C107.408 6.15425 107.575 6.69425 107.575 7.40092V18.9409H107.375H104.535V18.4209C104.295 18.6343 104.015 18.8143 103.695 18.9609C103.375 19.1209 103.022 19.2009 102.635 19.2009L102.435 19.2209C101.915 19.2076 101.535 19.0809 101.295 18.8409C101.055 18.6009 100.895 18.3343 100.815 18.0409C100.762 17.8409 100.728 17.6543 100.715 17.4809C100.715 17.2943 100.715 17.1476 100.715 17.0409C100.715 17.0276 100.715 17.0209 100.715 17.0209C100.715 17.0076 100.715 17.0009 100.715 17.0009V13.6009C100.715 13.2809 100.788 13.0009 100.935 12.7609C101.095 12.5209 101.342 12.2943 101.675 12.0809C101.848 11.9743 102.035 11.8676 102.235 11.7609C102.448 11.6543 102.688 11.5409 102.955 11.4209C102.982 11.4076 103.008 11.3943 103.035 11.3809C103.075 11.3676 103.108 11.3543 103.135 11.3409C103.522 11.1676 103.848 10.9676 104.115 10.7409C104.395 10.5009 104.535 10.1276 104.535 9.62092V7.44092C104.535 7.33425 104.495 7.24092 104.415 7.16092C104.335 7.06758 104.235 7.00758 104.115 6.98092C104.008 6.99425 103.922 7.04758 103.855 7.14092C103.788 7.23425 103.755 7.33425 103.755 7.44092V9.76092H103.555H100.715ZM104.535 16.8209V12.0809C104.228 12.2009 104.022 12.3409 103.915 12.5009C103.822 12.6609 103.768 12.8276 103.755 13.0009C103.755 13.0409 103.755 13.0809 103.755 13.1209C103.755 13.1609 103.755 13.2009 103.755 13.2409C103.755 13.2543 103.755 13.2676 103.755 13.2809V16.8209C103.755 16.9276 103.788 17.0276 103.855 17.1209C103.935 17.2009 104.028 17.2543 104.135 17.2809C104.228 17.2676 104.308 17.2276 104.375 17.1609C104.442 17.0943 104.488 17.0276 104.515 16.9609C104.515 16.9343 104.515 16.9143 104.515 16.9009C104.528 16.8743 104.535 16.8476 104.535 16.8209ZM113.27 14.1809H116.11V16.8209C116.11 17.9543 115.89 18.6343 115.45 18.8609C115.023 19.0876 114.55 19.2009 114.03 19.2009C114.003 19.2009 113.977 19.2009 113.95 19.2009C113.937 19.2009 113.923 19.2009 113.91 19.2009L113.71 19.2209H111.45C111.343 19.2076 111.23 19.1943 111.11 19.1809C111.003 19.1809 110.89 19.1743 110.77 19.1609C110.397 19.0943 110.05 18.9143 109.73 18.6209C109.41 18.3143 109.25 17.7209 109.25 16.8409V7.64092C109.25 6.66758 109.417 6.03425 109.75 5.74092C110.083 5.44758 110.45 5.28092 110.85 5.24092C110.957 5.22758 111.057 5.22092 111.15 5.22092C111.243 5.22092 111.337 5.22092 111.43 5.22092H111.63H113.91C114.67 5.22092 115.197 5.36758 115.49 5.66092C115.797 5.95425 115.983 6.28092 116.05 6.64092C116.077 6.78758 116.09 6.94092 116.09 7.10092C116.103 7.24758 116.11 7.38092 116.11 7.50092C116.11 7.51425 116.11 7.52758 116.11 7.54092C116.11 7.55425 116.11 7.56758 116.11 7.58092V10.0409H115.91H113.07V7.44092C113.07 7.33425 113.03 7.24092 112.95 7.16092C112.87 7.06758 112.763 7.00758 112.63 6.98092C112.537 7.00758 112.463 7.05425 112.41 7.12092C112.357 7.18758 112.323 7.25425 112.31 7.32092C112.297 7.34758 112.29 7.37425 112.29 7.40092C112.29 7.41425 112.29 7.42758 112.29 7.44092V17.0209C112.29 17.1276 112.323 17.2209 112.39 17.3009C112.457 17.3809 112.543 17.4343 112.65 17.4609C112.77 17.4476 112.87 17.4009 112.95 17.3209C113.03 17.2276 113.07 17.1276 113.07 17.0209V14.1809H113.27ZM117.225 7.26092V5.50092H118.365V2.18092H118.565H121.385V5.50092H122.805V7.26092H121.385V16.1009C121.385 16.4476 121.472 16.7143 121.645 16.9009C121.832 17.0743 122.065 17.1743 122.345 17.2009C122.372 17.2009 122.392 17.2009 122.405 17.2009C122.432 17.1876 122.459 17.1809 122.485 17.1809C122.499 17.1809 122.519 17.1809 122.545 17.1809C122.572 17.1676 122.592 17.1609 122.605 17.1609H122.805V19.2209H122.605H120.745C120.012 19.2076 119.479 19.0743 119.145 18.8209C118.812 18.5543 118.592 18.2609 118.485 17.9409C118.432 17.7409 118.399 17.5476 118.385 17.3609C118.372 17.1743 118.365 17.0209 118.365 16.9009C118.365 16.8876 118.365 16.8809 118.365 16.8809C118.365 16.8676 118.365 16.8543 118.365 16.8409V7.26092H117.225Z" fill="black"/>
<path d="M3.26 43.9409V31.2409C3.08667 31.3343 2.89333 31.4276 2.68 31.5209C2.46667 31.6009 2.18 31.6809 1.82 31.7609H1.62V29.2809C2.16667 29.2143 2.63333 28.9943 3.02 28.6209C3.42 28.2476 3.66 27.7543 3.74 27.1409H3.94H6.82V43.9409H6.62H3.26ZM9.33484 43.9409V41.3609C9.33484 40.6943 9.48151 40.0609 9.77484 39.4609C10.0682 38.8609 10.3882 38.3209 10.7348 37.8409C10.9348 37.5876 11.1215 37.3543 11.2948 37.1409C11.4815 36.9276 11.6415 36.7476 11.7748 36.6009C12.0948 36.2409 12.3748 35.9143 12.6148 35.6209C12.8548 35.3276 13.0615 35.0409 13.2348 34.7609C13.4082 34.4543 13.5348 34.1476 13.6148 33.8409C13.7082 33.5343 13.7548 33.1809 13.7548 32.7809V29.1609C13.7548 29.0276 13.7148 28.9209 13.6348 28.8409C13.5682 28.7609 13.4815 28.7143 13.3748 28.7009C13.2548 28.7143 13.1415 28.7609 13.0348 28.8409C12.9415 28.9076 12.8948 29.0143 12.8948 29.1609V32.6209H12.6948H9.33484V29.7209C9.33484 29.7076 9.33484 29.7009 9.33484 29.7009C9.33484 29.6876 9.33484 29.6809 9.33484 29.6809C9.33484 29.5209 9.33484 29.3543 9.33484 29.1809C9.34818 28.9943 9.36818 28.8076 9.39484 28.6209C9.47484 28.1809 9.68818 27.7809 10.0348 27.4209C10.3815 27.0476 11.0082 26.8609 11.9148 26.8609H12.1148H14.7148C14.7415 26.8609 14.7615 26.8609 14.7748 26.8609C14.8015 26.8609 14.8215 26.8609 14.8348 26.8609C14.9415 26.8609 15.0548 26.8609 15.1748 26.8609C15.2948 26.8609 15.4082 26.8676 15.5148 26.8809C15.9682 26.9343 16.3815 27.1343 16.7548 27.4809C17.1282 27.8276 17.3148 28.5609 17.3148 29.6809V32.9409C17.3148 32.9809 17.3148 33.0209 17.3148 33.0609C17.3148 33.0876 17.3148 33.1143 17.3148 33.1409C17.3148 33.2476 17.3148 33.3543 17.3148 33.4609C17.3148 33.5676 17.3148 33.6676 17.3148 33.7609C17.2882 34.2676 17.1748 34.8009 16.9748 35.3609C16.7882 35.9209 16.3482 36.6143 15.6548 37.4409C15.4015 37.7476 15.1615 38.0343 14.9348 38.3009C14.7082 38.5543 14.4948 38.8009 14.2948 39.0409C13.9748 39.4543 13.7082 39.8943 13.4948 40.3609C13.2815 40.8143 13.1215 41.3943 13.0148 42.1009H17.3748V43.9409H17.1748H9.33484ZM19.8083 38.0609H23.0083V41.9209C23.0083 42.0543 23.0483 42.1609 23.1283 42.2409C23.2083 42.3076 23.3149 42.3543 23.4483 42.3809C23.5816 42.3543 23.6816 42.3076 23.7483 42.2409C23.8283 42.1609 23.8683 42.0543 23.8683 41.9209V37.9609C23.8683 37.9476 23.8683 37.9409 23.8683 37.9409C23.8683 37.9276 23.8683 37.9143 23.8683 37.9009C23.8683 37.8743 23.8683 37.8476 23.8683 37.8209C23.8683 37.7943 23.8683 37.7743 23.8683 37.7609C23.8683 37.3609 23.7949 36.9943 23.6483 36.6609C23.5149 36.3276 23.1016 36.1543 22.4083 36.1409C22.3816 36.1409 22.3549 36.1409 22.3283 36.1409C22.3016 36.1409 22.2749 36.1409 22.2483 36.1409C22.2216 36.1409 22.1949 36.1476 22.1683 36.1609C22.1416 36.1609 22.1149 36.1609 22.0883 36.1609H21.8883V34.3209H22.0883C22.1149 34.3209 22.1416 34.3276 22.1683 34.3409C22.2083 34.3409 22.2483 34.3409 22.2883 34.3409C22.3149 34.3409 22.3416 34.3409 22.3683 34.3409C22.4083 34.3409 22.4416 34.3409 22.4683 34.3409C23.0816 34.3276 23.4616 34.1809 23.6083 33.9009C23.7683 33.6209 23.8549 33.3076 23.8683 32.9609C23.8683 32.9343 23.8683 32.9076 23.8683 32.8809C23.8683 32.8409 23.8683 32.8009 23.8683 32.7609V29.2209C23.8683 29.1943 23.8616 29.1743 23.8483 29.1609C23.8483 29.1343 23.8483 29.1076 23.8483 29.0809C23.8216 29.0009 23.7749 28.9276 23.7083 28.8609C23.6416 28.7809 23.5549 28.7276 23.4483 28.7009C23.3149 28.7276 23.2083 28.7876 23.1283 28.8809C23.0483 28.9609 23.0083 29.0743 23.0083 29.2209V32.6009H22.8083H19.6083V29.7009C19.6083 29.5409 19.6149 29.3609 19.6283 29.1609C19.6416 28.9476 19.6749 28.7276 19.7283 28.5009C19.8349 28.1009 20.0549 27.7343 20.3883 27.4009C20.7349 27.0543 21.3083 26.8809 22.1083 26.8809H22.3083H24.9483C25.0816 26.8809 25.2216 26.8876 25.3683 26.9009C25.5283 26.9009 25.6949 26.9209 25.8683 26.9609C26.2549 27.0543 26.6083 27.2876 26.9283 27.6609C27.2616 28.0343 27.4283 28.7076 27.4283 29.6809V32.7809C27.4283 32.9009 27.4149 33.0676 27.3883 33.2809C27.3749 33.4943 27.3283 33.7209 27.2483 33.9609C27.1416 34.2809 26.9416 34.5809 26.6483 34.8609C26.3683 35.1276 25.9283 35.2743 25.3283 35.3009V35.4809C25.3416 35.4809 25.3549 35.4809 25.3683 35.4809C25.3816 35.4809 25.3949 35.4809 25.4083 35.4809C25.4216 35.4809 25.4349 35.4809 25.4483 35.4809C25.4616 35.4809 25.4749 35.4809 25.4883 35.4809C26.0083 35.4809 26.4016 35.5943 26.6683 35.8209C26.9349 36.0476 27.1283 36.3009 27.2483 36.5809C27.3416 36.8076 27.3949 37.0276 27.4083 37.2409C27.4216 37.4409 27.4283 37.5743 27.4283 37.6409V41.4209C27.4283 41.5676 27.4216 41.7276 27.4083 41.9009C27.4083 42.0609 27.4016 42.2276 27.3883 42.4009C27.3216 42.8543 27.1216 43.2676 26.7883 43.6409C26.4683 44.0143 25.8549 44.2009 24.9483 44.2009L24.7483 44.2209H22.0883C21.9549 44.2076 21.8083 44.1943 21.6483 44.1809C21.5016 44.1676 21.3549 44.1409 21.2083 44.1009C20.8083 44.0076 20.4416 43.7809 20.1083 43.4209C19.7749 43.0476 19.6083 42.3943 19.6083 41.4609V38.0609H19.8083ZM34.0869 43.9409V39.9009H29.3869V37.9209L32.3669 27.1409H32.5669H37.6469V38.0609H38.6669V39.9009H37.6469V43.9409H37.4469H34.0869ZM32.5669 38.0609H34.0869V31.2409L32.5669 38.0609ZM40.8239 38.0609H44.1839V41.8809C44.1839 42.0409 44.2306 42.1609 44.3239 42.2409C44.4172 42.3076 44.5172 42.3543 44.6239 42.3809C44.7439 42.3543 44.8372 42.3076 44.9039 42.2409C44.9706 42.1609 45.0106 42.0809 45.0239 42.0009C45.0372 41.9743 45.0439 41.9543 45.0439 41.9409C45.0439 41.9143 45.0439 41.8943 45.0439 41.8809V34.4409C45.0439 34.4276 45.0439 34.4143 45.0439 34.4009C45.0439 34.3743 45.0372 34.3476 45.0239 34.3209C45.0106 34.2409 44.9706 34.1676 44.9039 34.1009C44.8372 34.0209 44.7506 33.9676 44.6439 33.9409C44.5239 33.9543 44.4172 34.0076 44.3239 34.1009C44.2306 34.1809 44.1839 34.2943 44.1839 34.4409V35.6209H43.9839H40.6239V27.1409H40.8239H47.9039V28.9809H44.1639V32.6809C44.2039 32.6409 44.2439 32.6076 44.2839 32.5809C44.3372 32.5409 44.3906 32.5009 44.4439 32.4609C44.6972 32.2743 44.9906 32.1009 45.3239 31.9409C45.6706 31.7809 46.0306 31.7009 46.4039 31.7009H46.6039C47.3639 31.7009 47.8839 31.9209 48.1639 32.3609C48.4572 32.8009 48.6039 33.4876 48.6039 34.4209V41.4609C48.6039 42.6743 48.3906 43.4276 47.9639 43.7209C47.5372 44.0143 47.0706 44.1743 46.5639 44.2009C46.4972 44.2009 46.4239 44.2009 46.3439 44.2009C46.2772 44.2009 46.2106 44.2009 46.1439 44.2009L45.9439 44.2209H43.1839C43.0372 44.2076 42.8706 44.1943 42.6839 44.1809C42.5106 44.1809 42.3306 44.1543 42.1439 44.1009C41.7706 43.9943 41.4239 43.7609 41.1039 43.4009C40.7839 43.0276 40.6239 42.3809 40.6239 41.4609V38.0609H40.8239ZM58.6188 32.4609H55.2588V29.1609C55.2588 29.0276 55.2188 28.9209 55.1388 28.8409C55.0721 28.7609 54.9988 28.7076 54.9188 28.6809C54.8921 28.6809 54.8654 28.6809 54.8388 28.6809C54.8254 28.6676 54.8121 28.6609 54.7988 28.6609C54.7854 28.6609 54.7721 28.6676 54.7588 28.6809C54.7454 28.6809 54.7321 28.6809 54.7188 28.6809C54.6388 28.7209 54.5654 28.7809 54.4988 28.8609C54.4321 28.9276 54.3988 29.0276 54.3988 29.1609V34.5009C54.4121 34.4876 54.4254 34.4809 54.4388 34.4809C54.4521 34.4676 54.4588 34.4543 54.4588 34.4409C54.7254 34.2276 55.0388 34.0343 55.3988 33.8609C55.7588 33.6876 56.1521 33.6009 56.5788 33.6009H56.7788C57.4054 33.6009 57.8588 33.7543 58.1388 34.0609C58.4321 34.3543 58.6188 34.6809 58.6988 35.0409C58.7521 35.2409 58.7854 35.4409 58.7988 35.6409C58.8121 35.8276 58.8188 35.9876 58.8188 36.1209V41.4809C58.8188 41.4943 58.8188 41.5143 58.8188 41.5409C58.8188 41.5543 58.8188 41.5743 58.8188 41.6009C58.8188 41.7209 58.8188 41.8543 58.8188 42.0009C58.8188 42.1343 58.8121 42.2676 58.7988 42.4009C58.7454 42.8543 58.5588 43.2676 58.2388 43.6409C57.9321 44.0143 57.2988 44.2009 56.3388 44.2009L56.1388 44.2209H53.3788C52.5921 44.2076 52.0188 44.0476 51.6588 43.7409C51.3121 43.4343 51.0854 43.0943 50.9788 42.7209C50.9121 42.4943 50.8721 42.2743 50.8588 42.0609C50.8454 41.8476 50.8388 41.6676 50.8388 41.5209C50.8388 41.5076 50.8388 41.5009 50.8388 41.5009C50.8388 41.4876 50.8388 41.4809 50.8388 41.4809V29.7409C50.8388 28.7276 51.0121 28.0276 51.3588 27.6409C51.7054 27.2543 52.0854 27.0209 52.4988 26.9409C52.6454 26.9009 52.7921 26.8809 52.9388 26.8809C53.0988 26.8676 53.2454 26.8609 53.3788 26.8609H53.5788H56.3188C56.4121 26.8609 56.4988 26.8609 56.5788 26.8609C56.6721 26.8609 56.7654 26.8676 56.8588 26.8809C57.3521 26.9209 57.7988 27.1143 58.1988 27.4609C58.6121 27.8076 58.8188 28.5676 58.8188 29.7409V32.4609H58.6188ZM54.3988 36.2409V41.8809C54.3988 42.0009 54.4388 42.1076 54.5188 42.2009C54.5988 42.2943 54.7054 42.3543 54.8388 42.3809C54.9854 42.3543 55.0921 42.3009 55.1588 42.2209C55.2254 42.1276 55.2588 42.0143 55.2588 41.8809V36.2409C55.2588 36.1209 55.2188 36.0143 55.1388 35.9209C55.0588 35.8276 54.9588 35.7676 54.8388 35.7409C54.7188 35.7543 54.6121 35.8076 54.5188 35.9009C54.4388 35.9809 54.3988 36.0943 54.3988 36.2409ZM61.4736 43.9409L64.2736 28.9809H60.7736V27.1409H60.9736H67.7136V29.0609L65.0736 43.9409H64.8736H61.4736ZM75.2798 44.2209H72.3198C71.5065 44.2076 70.9398 44.0409 70.6198 43.7209C70.2998 43.3876 70.0998 43.0209 70.0198 42.6209C69.9932 42.4343 69.9732 42.2543 69.9598 42.0809C69.9598 41.9076 69.9598 41.7476 69.9598 41.6009C69.9598 41.5876 69.9598 41.5676 69.9598 41.5409C69.9598 41.5143 69.9598 41.4943 69.9598 41.4809V37.5609C69.9598 36.9743 70.0865 36.5476 70.3398 36.2809C70.5932 36.0009 70.8732 35.8076 71.1798 35.7009C71.3265 35.6609 71.4732 35.6343 71.6198 35.6209C71.7665 35.5943 71.8932 35.5809 71.9998 35.5809V35.3609C71.3998 35.3609 70.9532 35.2543 70.6598 35.0409C70.3798 34.8276 70.1932 34.5943 70.0998 34.3409C70.0332 34.1676 69.9932 34.0009 69.9798 33.8409C69.9665 33.6809 69.9598 33.5543 69.9598 33.4609V29.7609C69.9598 29.7476 69.9598 29.7409 69.9598 29.7409C69.9598 29.7276 69.9598 29.7143 69.9598 29.7009C69.9598 29.5543 69.9598 29.3743 69.9598 29.1609C69.9732 28.9343 70.0132 28.7076 70.0798 28.4809C70.1865 28.0676 70.4132 27.6943 70.7598 27.3609C71.1065 27.0276 71.6798 26.8609 72.4798 26.8609H72.6798H75.4198C76.1798 26.8609 76.7332 27.0276 77.0798 27.3609C77.4265 27.6809 77.6598 28.0409 77.7798 28.4409C77.8598 28.6943 77.9065 28.9409 77.9198 29.1809C77.9332 29.4209 77.9398 29.6143 77.9398 29.7609V33.4609C77.9398 33.9809 77.8198 34.3743 77.5798 34.6409C77.3532 34.9076 77.1065 35.0943 76.8398 35.2009C76.6532 35.2676 76.4732 35.3143 76.2998 35.3409C76.1398 35.3543 76.0065 35.3609 75.8998 35.3609V35.5809C76.4598 35.5943 76.8798 35.7076 77.1598 35.9209C77.4398 36.1209 77.6398 36.3476 77.7598 36.6009C77.8532 36.8009 77.9065 36.9943 77.9198 37.1809C77.9332 37.3543 77.9398 37.4809 77.9398 37.5609V41.4809C77.9398 41.5076 77.9398 41.5343 77.9398 41.5609C77.9398 41.5876 77.9398 41.6143 77.9398 41.6409C77.9398 41.7743 77.9332 41.9276 77.9198 42.1009C77.9198 42.2743 77.9065 42.4476 77.8798 42.6209C77.7998 43.0209 77.5932 43.3876 77.2598 43.7209C76.9265 44.0409 76.3332 44.2009 75.4798 44.2009L75.2798 44.2209ZM73.5198 36.7409V41.8609C73.5198 41.9943 73.5598 42.1076 73.6398 42.2009C73.7198 42.2943 73.8198 42.3543 73.9398 42.3809C74.0598 42.3543 74.1532 42.3076 74.2198 42.2409C74.2865 42.1609 74.3332 42.0809 74.3598 42.0009C74.3598 41.9743 74.3598 41.9543 74.3598 41.9409C74.3732 41.9143 74.3798 41.8876 74.3798 41.8609V36.7409C74.3798 36.5943 74.3332 36.4809 74.2398 36.4009C74.1465 36.3076 74.0465 36.2476 73.9398 36.2209C73.8332 36.2476 73.7332 36.3076 73.6398 36.4009C73.5598 36.4809 73.5198 36.5943 73.5198 36.7409ZM73.5198 29.2209V34.1409C73.5198 34.2743 73.5465 34.3809 73.5998 34.4609C73.6532 34.5276 73.7198 34.5809 73.7998 34.6209C73.8265 34.6343 73.8465 34.6476 73.8598 34.6609C73.8865 34.6609 73.9132 34.6609 73.9398 34.6609C74.0465 34.6343 74.1465 34.5743 74.2398 34.4809C74.3332 34.3876 74.3798 34.2743 74.3798 34.1409V29.2209C74.3798 29.2076 74.3798 29.2009 74.3798 29.2009C74.3798 29.1876 74.3798 29.1743 74.3798 29.1609C74.3665 29.0543 74.3198 28.9609 74.2398 28.8809C74.1598 28.7876 74.0598 28.7276 73.9398 28.7009C73.8198 28.7276 73.7198 28.7876 73.6398 28.8809C73.5598 28.9743 73.5198 29.0876 73.5198 29.2209ZM80.4147 38.3409H83.7747V41.8809C83.7747 41.9076 83.7747 41.9343 83.7747 41.9609C83.788 41.9876 83.8014 42.0143 83.8147 42.0409C83.8414 42.1209 83.888 42.1943 83.9547 42.2609C84.0214 42.3143 84.1147 42.3543 84.2347 42.3809C84.3414 42.3543 84.4214 42.3143 84.4747 42.2609C84.5414 42.1943 84.588 42.1209 84.6147 42.0409C84.628 42.0143 84.6347 41.9876 84.6347 41.9609C84.648 41.9343 84.6547 41.9076 84.6547 41.8809V36.4009C84.1614 36.8143 83.708 37.0676 83.2947 37.1609C82.8947 37.2543 82.5814 37.3009 82.3547 37.3009H82.1547C81.4214 37.3009 80.9214 37.0943 80.6547 36.6809C80.4014 36.2676 80.2547 35.8143 80.2147 35.3209C80.2014 35.2009 80.188 35.0809 80.1747 34.9609C80.1747 34.8276 80.1747 34.7009 80.1747 34.5809V29.7209C80.1747 29.6543 80.1747 29.5876 80.1747 29.5209C80.1747 29.4409 80.1747 29.3609 80.1747 29.2809C80.1747 29.1609 80.1747 29.0276 80.1747 28.8809C80.188 28.7343 80.2147 28.5876 80.2547 28.4409C80.3347 28.0543 80.5414 27.6943 80.8747 27.3609C81.208 27.0276 81.7947 26.8609 82.6347 26.8609H82.8347H85.6747C86.5547 26.8609 87.1614 27.0476 87.4947 27.4209C87.8414 27.7809 88.0547 28.1809 88.1347 28.6209C88.1747 28.8209 88.1947 29.0143 88.1947 29.2009C88.208 29.3876 88.2147 29.5609 88.2147 29.7209V41.4609C88.2147 42.3676 88.0547 43.0076 87.7347 43.3809C87.4147 43.7543 87.068 43.9943 86.6947 44.1009C86.508 44.1409 86.3214 44.1676 86.1347 44.1809C85.9614 44.1943 85.8014 44.2009 85.6547 44.2009L85.4547 44.2209H82.7147C82.7147 44.2076 82.708 44.2009 82.6947 44.2009C82.5614 44.2009 82.408 44.1943 82.2347 44.1809C82.0747 44.1809 81.908 44.1609 81.7347 44.1209C81.3614 44.0276 81.0147 43.8009 80.6947 43.4409C80.3747 43.0809 80.2147 42.4209 80.2147 41.4609V38.3409H80.4147ZM83.7147 29.2009L83.7347 34.7009C83.7347 34.8609 83.7814 34.9809 83.8747 35.0609C83.9814 35.1409 84.0947 35.1943 84.2147 35.2209C84.348 35.1943 84.4547 35.1343 84.5347 35.0409C84.6147 34.9343 84.6547 34.8209 84.6547 34.7009V29.2009C84.6547 29.0809 84.6214 28.9743 84.5547 28.8809C84.488 28.7743 84.3814 28.7143 84.2347 28.7009C84.0614 28.7143 83.928 28.7743 83.8347 28.8809C83.7547 28.9743 83.7147 29.0809 83.7147 29.2009ZM90.4481 41.3409V29.8609C90.4481 29.7009 90.4481 29.5343 90.4481 29.3609C90.4615 29.1743 90.4881 28.9876 90.5281 28.8009C90.6081 28.3076 90.8148 27.8609 91.1481 27.4609C91.4948 27.0609 92.1015 26.8609 92.9681 26.8609H93.1681H95.9481C96.0815 26.8609 96.2148 26.8676 96.3481 26.8809C96.4948 26.8809 96.6415 26.9009 96.7881 26.9409C97.2015 27.0343 97.5815 27.2876 97.9281 27.7009C98.2748 28.1009 98.4481 28.8209 98.4481 29.8609V41.3409C98.4481 41.3409 98.4481 41.3476 98.4481 41.3609C98.4481 41.5209 98.4415 41.6943 98.4281 41.8809C98.4281 42.0543 98.4148 42.2276 98.3881 42.4009C98.3081 42.8543 98.1015 43.2676 97.7681 43.6409C97.4481 44.0143 96.8415 44.2009 95.9481 44.2009L95.7481 44.2209H92.9481C92.1215 44.2076 91.5348 44.0276 91.1881 43.6809C90.8548 43.3343 90.6415 42.9476 90.5481 42.5209C90.4948 42.3076 90.4615 42.1009 90.4481 41.9009C90.4481 41.6876 90.4481 41.5009 90.4481 41.3409ZM94.0081 29.2609V41.8209C94.0081 41.9543 94.0548 42.0743 94.1481 42.1809C94.2415 42.2743 94.3415 42.3343 94.4481 42.3609C94.5548 42.3343 94.6548 42.2743 94.7481 42.1809C94.8415 42.0743 94.8881 41.9543 94.8881 41.8209V29.2609C94.8881 29.2476 94.8881 29.2409 94.8881 29.2409C94.8881 29.2276 94.8881 29.2143 94.8881 29.2009C94.8748 29.0809 94.8281 28.9743 94.7481 28.8809C94.6815 28.7876 94.5815 28.7276 94.4481 28.7009C94.3148 28.7276 94.2081 28.7876 94.1281 28.8809C94.0615 28.9743 94.0215 29.0809 94.0081 29.2009C94.0081 29.2143 94.0081 29.2276 94.0081 29.2409C94.0081 29.2409 94.0081 29.2476 94.0081 29.2609Z" fill="black"/>
</svg>
