<svg width="188" height="52" viewBox="0 0 188 52" fill="none" xmlns="http://www.w3.org/2000/svg">
<path d="M2.03301 4.14092H5.35301V15.1809H8.87301V4.14092H12.193V15.1809H15.713V4.14092H19.033V17.9409H2.03301V4.14092ZM29.9275 12.2209V13.6209C29.9275 16.3209 28.5475 18.1409 26.0875 18.1409C25.2275 18.1409 24.5875 18.0009 24.1275 17.7409V21.7409H21.1275V7.94092H24.1275V8.44092C24.6275 7.98092 25.2875 7.74092 26.1075 7.74092C28.4075 7.74092 29.9275 9.42092 29.9275 12.2209ZM25.5275 15.6209C26.6675 15.6209 26.9275 14.8809 26.9275 13.3609V12.4809C26.9275 10.9409 26.5675 10.2609 25.5275 10.2609C24.4875 10.2609 24.1275 10.9409 24.1275 12.4809V13.6609C24.1275 14.9409 24.4275 15.6209 25.5275 15.6209ZM31.4205 7.94092H34.4205V12.5609L37.6805 7.94092H40.2205V17.9409H37.2205V13.1009L33.9205 17.9409H31.4205V7.94092ZM46.846 4.14092H49.846V7.74092C53.266 7.74092 54.966 9.24092 54.966 12.2209V13.6209C54.966 16.6409 53.266 18.1409 49.846 18.1409V21.7409H46.846V18.1409C43.426 18.1409 41.726 16.6409 41.726 13.6209V12.2209C41.726 9.24092 43.426 7.74092 46.846 7.74092V4.14092ZM51.966 13.4609V12.4409C51.966 10.7409 51.306 10.2609 49.846 10.2609V15.6209C51.426 15.6209 51.966 15.0609 51.966 13.4609ZM44.726 12.4409V13.4609C44.726 15.0609 45.266 15.6209 46.846 15.6209V10.2609C45.386 10.2609 44.726 10.7409 44.726 12.4409ZM55.5596 10.4609V7.94092H64.0996V10.4609H61.3196V17.9409H58.3196V10.4609H55.5596ZM75.4347 17.9409H70.2947V4.14092H75.4347C78.7947 4.14092 80.8747 5.90092 80.8747 10.0409V12.0409C80.8747 16.1409 78.7947 17.9409 75.4347 17.9409ZM73.6147 15.1809H75.4347C77.0347 15.1809 77.5547 14.1009 77.5547 12.0409V10.0409C77.5547 7.98092 77.0347 6.90092 75.4347 6.90092H73.6147V15.1809ZM83.1705 4.14092H86.4905V17.9409H83.1705V4.14092ZM96.8438 11.8809V4.14092H99.9638V17.9409H97.2838L92.2038 10.3009V17.9409H89.0838V4.14092H91.7238L96.8438 11.8809ZM117.585 8.40092H114.425C114.265 7.44092 113.605 6.70092 112.505 6.70092C111.085 6.70092 110.385 7.78092 110.385 9.96092V12.1209C110.385 14.3009 111.085 15.3809 112.505 15.3809C113.585 15.3809 114.225 14.8209 114.425 13.6809H117.585C117.105 16.7409 115.465 18.1409 112.505 18.1409C109.225 18.1409 107.065 16.1009 107.065 12.1209V9.96092C107.065 5.96092 109.205 3.94092 112.505 3.94092C115.305 3.94092 117.125 5.44092 117.585 8.40092ZM121.721 18.0809L118.081 7.94092H121.221L123.081 13.5809L124.781 7.94092H127.781L124.281 18.4609C123.821 19.8209 123.281 20.7009 122.641 21.1209C122.001 21.5409 120.961 21.7409 119.501 21.7409V19.1009C120.921 19.1009 121.401 18.8809 121.721 18.0809ZM136.228 9.42092L133.988 11.0209C133.688 10.5409 133.348 10.3009 132.948 10.3009C132.048 10.3009 131.588 10.9409 131.588 12.2409V17.9409H128.588V7.94092H131.508V8.70092C132.008 8.06092 132.708 7.74092 133.608 7.74092C134.788 7.74092 135.648 8.30092 136.228 9.42092ZM142.228 17.9409V4.14092H147.048C150.488 4.14092 152.208 5.36092 152.208 7.80092C152.208 9.02092 151.688 9.98092 150.628 10.6809C151.968 11.3409 152.648 12.4409 152.648 13.9809C152.648 16.3609 150.988 17.9409 147.488 17.9409H142.228ZM146.888 12.1609H145.548V15.1809H147.128C148.588 15.1809 149.328 14.6809 149.328 13.6609C149.328 12.5609 148.588 12.1609 146.888 12.1609ZM146.648 6.88092H145.548V9.40092H146.948C148.248 9.40092 148.888 9.00092 148.888 8.18092C148.888 7.30092 148.388 6.88092 146.648 6.88092ZM154.155 14.6809V4.14092H157.155V14.0209C157.155 15.0609 157.555 15.3809 158.415 15.3809V17.9409C156.915 17.9409 155.835 17.7209 155.155 17.2809C154.495 16.8209 154.155 15.9609 154.155 14.6809ZM163.097 11.8409H164.877V11.5409C164.877 10.5009 164.637 10.1809 163.297 10.1809C162.437 10.1809 162.017 10.3609 161.677 10.8609L159.577 9.40092C160.357 8.18092 161.477 7.74092 163.637 7.74092C165.037 7.74092 166.077 8.02092 166.757 8.56092C167.457 9.10092 167.797 10.1009 167.797 11.5609V17.9409H164.877V17.1209C164.457 17.8009 163.797 18.1409 162.897 18.1409C160.837 18.1409 159.417 16.9809 159.417 14.9609C159.417 12.9409 160.917 11.8409 163.097 11.8409ZM164.877 14.2609V13.9609H163.517C162.737 13.9609 162.337 14.2609 162.337 14.8809C162.337 15.4809 162.737 15.7809 163.557 15.7809C164.437 15.7809 164.877 15.2809 164.877 14.2609ZM175.324 14.8809L177.544 16.4209C176.804 17.6209 175.684 18.1409 173.824 18.1409C170.964 18.1409 169.304 16.3609 169.304 13.6209V12.2209C169.304 9.28092 170.904 7.74092 174.024 7.74092C175.684 7.74092 176.864 8.32092 177.544 9.46092L175.304 11.0209C174.944 10.5209 174.484 10.2609 173.944 10.2609C172.684 10.2609 172.304 10.9009 172.304 12.4809V13.3609C172.304 14.9009 172.584 15.6209 173.944 15.6209C174.564 15.6209 175.024 15.3809 175.324 14.8809ZM181.549 11.1409L183.749 7.94092H187.269L184.169 11.9809L187.829 17.9409H184.389L182.229 14.5209L181.549 15.4009V17.9409H178.549V4.14092H181.549V11.1409Z" fill="black"/>
<path d="M5.73301 32.1409H8.65301V45.9409H5.33301V35.5209L3.35301 36.7409V33.6609L5.73301 32.1409ZM17.6644 43.1809H21.8844V45.9409H13.1844V43.9809L17.6844 38.6809C18.4444 37.7809 18.8244 36.9209 18.8244 36.0809C18.8244 35.1809 18.1844 34.6609 17.3644 34.6609C16.5444 34.6609 15.9844 35.1809 15.9044 36.0809H13.0444C13.0444 34.9009 13.4844 33.9009 14.3444 33.1209C15.2244 32.3409 16.3044 31.9409 17.5644 31.9409C18.8644 31.9409 19.9444 32.3409 20.8044 33.1409C21.6844 33.9409 22.1244 34.9209 22.1244 36.0609C22.1244 36.6409 22.0044 37.2409 21.7444 37.8409C21.4844 38.4409 21.2444 38.9209 20.9844 39.2609C20.7444 39.6009 20.4244 40.0009 20.0244 40.4609L17.6644 43.1809ZM28.2558 40.2009H27.1758V37.4409H28.2558C29.1558 37.4409 29.8558 36.9609 29.8558 36.0209C29.8558 35.1609 29.2558 34.6609 28.3958 34.6609C27.6158 34.6609 27.1158 35.0609 26.9358 35.8809H24.0758C24.1358 34.7409 24.5958 33.8009 25.4358 33.0609C26.2958 32.3209 27.3358 31.9409 28.5958 31.9409C29.8758 31.9409 30.9558 32.3209 31.8358 33.1009C32.7158 33.8809 33.1558 34.7809 33.1558 35.8209C33.1558 37.1009 32.5558 38.0809 31.3558 38.7809C32.6958 39.5009 33.3558 40.5809 33.3558 42.0409C33.3558 43.2409 32.9558 44.2209 32.1558 45.0009C31.3558 45.7609 30.2158 46.1409 28.7558 46.1409C25.7958 46.1409 23.9758 44.5209 23.8758 42.1209H26.7358C26.8758 42.9609 27.4558 43.3809 28.4958 43.3809C29.5158 43.3809 30.0558 42.7409 30.0558 41.8009C30.0558 40.7409 29.4558 40.2009 28.2558 40.2009ZM34.4872 41.8409L39.1472 32.1409H42.8472L38.6872 41.3409H40.6672V38.0809H43.9872V41.3409H45.2472V44.1009H43.9872V45.9409H40.6672V44.1009H34.4872V41.8409ZM51.2786 39.1009C50.7386 39.1009 50.3186 39.4409 50.0586 40.1209H47.0786V32.1409H55.3386V35.0609H50.3386V36.8209C50.8786 36.4009 51.5386 36.1809 52.2986 36.1809C54.3586 36.1809 55.8386 37.8409 55.8386 41.0609C55.8386 44.5209 54.3586 46.1409 51.3786 46.1409C50.0986 46.1409 49.0186 45.8209 48.1186 45.1609C47.2386 44.5009 46.7386 43.5209 46.6186 42.2409H49.8986C50.0786 43.0009 50.5386 43.3809 51.2786 43.3809C52.0986 43.3809 52.5186 42.6809 52.5186 41.2609C52.5186 39.8209 52.0986 39.1009 51.2786 39.1009ZM61.61 32.1409H65.13L62.13 37.6209C62.55 37.4609 62.99 37.3809 63.49 37.3809C64.55 37.3809 65.45 37.7809 66.21 38.5809C66.97 39.3609 67.35 40.3609 67.35 41.5409C67.35 43.1209 66.89 44.2809 65.97 45.0209C65.05 45.7609 63.87 46.1409 62.41 46.1409C60.95 46.1409 59.75 45.7809 58.81 45.0409C57.89 44.3009 57.43 43.1209 57.43 41.5409C57.43 40.3609 57.91 38.9209 58.85 37.2209L61.61 32.1409ZM62.41 43.3809C63.51 43.3809 64.03 42.7409 64.03 41.7209C64.03 40.7009 63.51 40.0609 62.41 40.0609C61.29 40.0609 60.75 40.7009 60.75 41.7209C60.75 42.7409 61.29 43.3809 62.41 43.3809ZM72.1614 34.9009V36.9209H69.4014V32.1409H78.1614V34.3009L74.3814 45.9409H70.9614L74.7614 34.9009H72.1614ZM79.8129 42.1209C79.8129 40.6209 80.6929 39.3409 81.8329 38.7809C80.7329 38.2009 80.0129 37.0009 80.0129 35.7209C80.0129 34.5409 80.4729 33.6009 81.3929 32.9409C82.3329 32.2809 83.4529 31.9409 84.7729 31.9409C86.0929 31.9409 87.2129 32.2809 88.1329 32.9409C89.0729 33.6009 89.5329 34.5409 89.5329 35.7209C89.5329 37.0009 88.8129 38.2009 87.6929 38.7809C88.8729 39.3209 89.7329 40.6209 89.7329 42.1209C89.7329 43.4009 89.2729 44.4009 88.3329 45.1009C87.3929 45.8009 86.2129 46.1409 84.7729 46.1409C83.3329 46.1409 82.1529 45.8009 81.2129 45.1009C80.2729 44.4009 79.8129 43.4009 79.8129 42.1209ZM83.1129 41.7209C83.1129 42.6809 83.8129 43.4009 84.7729 43.4009C85.7129 43.4009 86.4329 42.6609 86.4329 41.7209C86.4329 40.7609 85.6329 40.0609 84.7729 40.0609C83.8929 40.0609 83.1129 40.7409 83.1129 41.7209ZM83.2929 36.1409C83.2929 36.9609 83.9529 37.6209 84.7729 37.6209C85.5729 37.6209 86.2329 36.9609 86.2329 36.1409C86.2329 35.3409 85.5729 34.7009 84.7729 34.7009C83.9529 34.7009 83.2929 35.3409 83.2929 36.1409ZM96.7443 45.9409H93.2243L96.2243 40.4609C95.8043 40.6209 95.3643 40.7009 94.8643 40.7009C93.8043 40.7009 92.9043 40.3009 92.1443 39.5209C91.3843 38.7209 91.0043 37.7209 91.0043 36.5409C91.0043 34.9609 91.4643 33.8009 92.3843 33.0609C93.3043 32.3209 94.4843 31.9409 95.9443 31.9409C97.4043 31.9409 98.6043 32.3209 99.5243 33.0609C100.464 33.8009 100.924 34.9609 100.924 36.5409C100.924 37.7209 100.444 39.1609 99.5043 40.8609L96.7443 45.9409ZM95.9443 34.7009C94.8443 34.7009 94.3243 35.3409 94.3243 36.3609C94.3243 37.3809 94.8443 38.0209 95.9443 38.0209C97.0643 38.0209 97.6043 37.3809 97.6043 36.3609C97.6043 35.3409 97.0643 34.7009 95.9443 34.7009ZM112.116 36.5209V41.5409C112.116 43.1209 111.656 44.3009 110.736 45.0409C109.816 45.7809 108.616 46.1409 107.156 46.1409C105.696 46.1409 104.496 45.7809 103.576 45.0409C102.656 44.3009 102.196 43.1209 102.196 41.5409V36.5409C102.196 33.4809 103.856 31.9409 107.156 31.9409C110.456 31.9409 112.116 33.4609 112.116 36.5209ZM105.496 36.9209V41.1609C105.496 42.7009 105.936 43.3809 107.156 43.3809C108.356 43.3809 108.796 42.6809 108.796 41.1609V36.9209C108.796 35.4009 108.356 34.7009 107.156 34.7009C105.936 34.7009 105.496 35.3809 105.496 36.9209Z" fill="black"/>
</svg>
