<svg width="170" height="38" viewBox="0 0 170 38" fill="none" xmlns="http://www.w3.org/2000/svg">
<path d="M4.38965 10.1558H7.49512V0.940918H10.6943V10.1558H13.7998V0.940918H16.999V12.9409H1.19043V0.940918H4.38965V10.1558ZM21.6592 8.74951C21.6592 9.28337 21.6865 9.69873 21.7412 9.99561C21.7959 10.2925 21.9222 10.5216 22.1201 10.6831C22.3206 10.8446 22.6253 10.9253 23.0342 10.9253C23.4378 10.9253 23.7451 10.8745 23.9561 10.7729C24.167 10.6688 24.3193 10.4618 24.4131 10.1519C24.5068 9.84196 24.5537 9.37451 24.5537 8.74951C24.5537 8.12451 24.516 7.66227 24.4404 7.36279C24.3675 7.06331 24.2243 6.85498 24.0107 6.73779C23.7972 6.618 23.4717 6.55811 23.0342 6.55811C22.641 6.55811 22.3467 6.618 22.1514 6.73779C21.9587 6.85498 21.8285 7.06462 21.7607 7.3667C21.693 7.66878 21.6592 8.12972 21.6592 8.74951ZM21.6592 11.6753V16.5737H18.9053V4.54248H21.6592L21.5928 5.87061H21.7217C21.8727 5.33675 22.1462 4.96566 22.542 4.75732C22.9378 4.54899 23.4652 4.44482 24.124 4.44482C25.1761 4.44482 25.9691 4.68962 26.5029 5.1792C27.0394 5.66618 27.3076 6.45133 27.3076 7.53467V9.45264C27.3076 10.312 27.2021 11.0034 26.9912 11.5269C26.7803 12.0503 26.4417 12.4331 25.9756 12.6753C25.5094 12.9175 24.8923 13.0386 24.124 13.0386C23.5485 13.0386 23.0667 12.9448 22.6787 12.7573C22.2907 12.5698 21.9938 12.2091 21.7881 11.6753H21.6592ZM36.7803 4.54248V12.9409H34.3154V7.75732H34.2373L31.9795 12.9409H28.8271V4.54248H31.292V9.69482H31.4209L33.6592 4.54248H36.7803ZM46.0654 8.74951C46.0654 9.29378 46.0889 9.71305 46.1357 10.0073C46.1852 10.299 46.2946 10.5256 46.4639 10.687C46.6331 10.8459 46.8896 10.9253 47.2334 10.9253C47.5745 10.9253 47.8324 10.8745 48.0068 10.7729C48.1839 10.6714 48.3102 10.4657 48.3857 10.1558C48.4613 9.84326 48.499 9.37451 48.499 8.74951C48.499 8.12451 48.4678 7.66227 48.4053 7.36279C48.3454 7.06331 48.2269 6.85498 48.0498 6.73779C47.8727 6.618 47.6006 6.55811 47.2334 6.55811C46.8975 6.55811 46.6475 6.618 46.4834 6.73779C46.3219 6.85498 46.2113 7.06462 46.1514 7.3667C46.0941 7.66878 46.0654 8.12972 46.0654 8.74951ZM46.0811 16.5737H43.4756V11.6753H43.3467C43.1878 12.0972 42.9248 12.4305 42.5576 12.6753C42.1904 12.9175 41.7712 13.0386 41.2998 13.0386C40.5706 13.0386 39.986 12.9162 39.5459 12.6714C39.1084 12.4266 38.7894 12.0425 38.5889 11.519C38.391 10.993 38.292 10.299 38.292 9.43701V7.51514C38.292 6.79899 38.4027 6.21566 38.624 5.76514C38.8454 5.31201 39.1787 4.97868 39.624 4.76514C40.0719 4.5516 40.6305 4.44482 41.2998 4.44482C42.3753 4.44482 43.0785 4.92008 43.4092 5.87061H43.4756V0.940918H46.0811V5.87061H46.1475C46.4808 4.92008 47.1839 4.44482 48.2568 4.44482C49.2699 4.44482 50.0173 4.68962 50.499 5.1792C50.9808 5.66618 51.2256 6.44482 51.2334 7.51514L51.2178 9.43701C51.2178 10.3146 51.1175 11.0164 50.917 11.5425C50.7191 12.0659 50.404 12.4461 49.9717 12.6831C49.5394 12.9201 48.9678 13.0386 48.2568 13.0386C47.7855 13.0386 47.3662 12.9175 46.999 12.6753C46.6318 12.4305 46.3688 12.0972 46.21 11.6753H46.0811V16.5737ZM43.4756 8.74951C43.4756 8.12972 43.4456 7.66878 43.3857 7.3667C43.3285 7.06462 43.2191 6.85498 43.0576 6.73779C42.8962 6.618 42.6462 6.55811 42.3076 6.55811C41.9404 6.55811 41.6683 6.618 41.4912 6.73779C41.3141 6.85498 41.1943 7.06331 41.1318 7.36279C41.0719 7.66227 41.042 8.12451 41.042 8.74951C41.042 9.37451 41.0798 9.84326 41.1553 10.1558C41.2308 10.4657 41.3558 10.6714 41.5303 10.7729C41.7074 10.8745 41.9665 10.9253 42.3076 10.9253C42.6514 10.9253 42.9079 10.8459 43.0771 10.687C43.2464 10.5256 43.3545 10.299 43.4014 10.0073C43.4508 9.71305 43.4756 9.29378 43.4756 8.74951ZM59.0225 4.54248V6.55811H56.8154V12.9409H54.0615V6.55811H51.8545V4.54248H59.0225ZM69.0146 3.56592V5.75732H74.1357V7.97998H69.0146V10.3159H74.585V12.9409H65.8154V0.940918H74.4717V3.56592H69.0146ZM81.7646 9.71045V4.54248H84.5146V12.9409H81.8428L81.9404 11.3237H81.8115C81.473 12.467 80.6357 13.0386 79.2998 13.0386C77.4014 13.0386 76.4521 12.1206 76.4521 10.2847V4.54248H79.2021V9.55029C79.2021 10.0138 79.279 10.3615 79.4326 10.5933C79.5889 10.825 79.8701 10.9409 80.2764 10.9409C80.6748 10.9409 81.0225 10.8341 81.3193 10.6206C81.6162 10.4045 81.7646 10.1011 81.7646 9.71045ZM89.0967 7.90186V12.9409H86.3428V4.54248H89.0146V5.77295H89.1279C89.4665 4.88753 90.1709 4.44482 91.2412 4.44482C91.8376 4.44482 92.2881 4.58805 92.5928 4.87451C92.8975 5.15837 93.0941 5.52165 93.1826 5.96436C93.2738 6.40446 93.3193 6.93311 93.3193 7.55029V8.20654H90.8389V7.8042C90.8389 7.40055 90.7985 7.09196 90.7178 6.87842C90.637 6.66488 90.4378 6.55811 90.1201 6.55811C89.4378 6.55811 89.0967 7.00602 89.0967 7.90186ZM98.2295 4.44482C99.1462 4.44482 99.8714 4.50472 100.405 4.62451C100.942 4.7443 101.358 4.95785 101.655 5.26514C101.952 5.56982 102.157 5.9943 102.269 6.53857C102.383 7.08024 102.44 7.81722 102.44 8.74951C102.44 9.66097 102.382 10.3849 102.265 10.9214C102.147 11.4578 101.939 11.881 101.64 12.1909C101.343 12.5008 100.927 12.7196 100.394 12.8472C99.8597 12.9748 99.1383 13.0386 98.2295 13.0386C97.3493 13.0386 96.641 12.9709 96.1045 12.8354C95.5706 12.7 95.1527 12.4735 94.8506 12.1558C94.5485 11.8381 94.3376 11.411 94.2178 10.8745C94.098 10.3354 94.0381 9.62712 94.0381 8.74951C94.0381 7.84066 94.0941 7.118 94.2061 6.58154C94.3206 6.04248 94.5251 5.6167 94.8193 5.3042C95.1136 4.9917 95.5316 4.77035 96.0732 4.64014C96.6149 4.50993 97.3337 4.44482 98.2295 4.44482ZM98.2803 6.55811C97.8245 6.55811 97.4951 6.6141 97.292 6.72607C97.0889 6.83805 96.9548 7.04378 96.8896 7.34326C96.8245 7.64014 96.792 8.10889 96.792 8.74951C96.792 9.39014 96.8245 9.85889 96.8896 10.1558C96.9548 10.45 97.0889 10.6519 97.292 10.7612C97.4977 10.8706 97.8271 10.9253 98.2803 10.9253C98.6084 10.9253 98.8649 10.8966 99.0498 10.8394C99.2347 10.7795 99.3727 10.6753 99.4639 10.5269C99.555 10.3758 99.6149 10.1675 99.6436 9.90186C99.6722 9.63363 99.6865 9.24951 99.6865 8.74951C99.6865 8.10368 99.6566 7.63363 99.5967 7.33936C99.5394 7.04248 99.4144 6.83805 99.2217 6.72607C99.0316 6.6141 98.7178 6.55811 98.2803 6.55811ZM106.612 8.74951C106.612 9.28337 106.64 9.69873 106.694 9.99561C106.749 10.2925 106.875 10.5216 107.073 10.6831C107.274 10.8446 107.578 10.9253 107.987 10.9253C108.391 10.9253 108.698 10.8745 108.909 10.7729C109.12 10.6688 109.272 10.4618 109.366 10.1519C109.46 9.84196 109.507 9.37451 109.507 8.74951C109.507 8.12451 109.469 7.66227 109.394 7.36279C109.321 7.06331 109.177 6.85498 108.964 6.73779C108.75 6.618 108.425 6.55811 107.987 6.55811C107.594 6.55811 107.3 6.618 107.104 6.73779C106.912 6.85498 106.782 7.06462 106.714 7.3667C106.646 7.66878 106.612 8.12972 106.612 8.74951ZM106.612 11.6753V16.5737H103.858V4.54248H106.612L106.546 5.87061H106.675C106.826 5.33675 107.099 4.96566 107.495 4.75732C107.891 4.54899 108.418 4.44482 109.077 4.44482C110.129 4.44482 110.922 4.68962 111.456 5.1792C111.993 5.66618 112.261 6.45133 112.261 7.53467V9.45264C112.261 10.312 112.155 11.0034 111.944 11.5269C111.733 12.0503 111.395 12.4331 110.929 12.6753C110.463 12.9175 109.845 13.0386 109.077 13.0386C108.502 13.0386 108.02 12.9448 107.632 12.7573C107.244 12.5698 106.947 12.2091 106.741 11.6753H106.612ZM116.101 7.69482H118.808C118.808 7.1167 118.706 6.75081 118.503 6.59717C118.3 6.44352 117.937 6.3667 117.413 6.3667C117.069 6.3667 116.808 6.40186 116.628 6.47217C116.451 6.53988 116.322 6.66748 116.241 6.85498C116.16 7.03988 116.114 7.31982 116.101 7.69482ZM118.854 10.1401H121.558C121.558 11.3042 121.179 12.105 120.421 12.5425C120.082 12.73 119.674 12.8602 119.194 12.9331C118.715 13.0034 118.138 13.0386 117.464 13.0386C116.37 13.0386 115.526 12.9006 114.933 12.6245C114.339 12.3485 113.926 11.9045 113.694 11.2925C113.465 10.6805 113.351 9.83285 113.351 8.74951C113.351 7.62712 113.46 6.76253 113.679 6.15576C113.9 5.54639 114.304 5.10889 114.89 4.84326C115.476 4.57764 116.334 4.44482 117.464 4.44482C118.539 4.44482 119.368 4.56722 119.948 4.81201C120.532 5.0542 120.946 5.48258 121.19 6.09717C121.435 6.71175 121.558 7.59587 121.558 8.74951V9.21436H116.101C116.101 9.59196 116.119 9.90186 116.155 10.144C116.194 10.3862 116.262 10.5776 116.358 10.7183C116.455 10.8589 116.59 10.9604 116.765 11.0229C116.942 11.0854 117.175 11.1167 117.464 11.1167C117.953 11.1167 118.308 11.0555 118.526 10.9331C118.745 10.8107 118.854 10.5464 118.854 10.1401ZM135.647 8.39795H138.944V8.74951C138.944 9.1818 138.935 9.53597 138.917 9.81201C138.901 10.0854 138.858 10.3641 138.788 10.6479C138.72 10.9292 138.612 11.1948 138.464 11.4448C138.315 11.6922 138.107 11.9292 137.839 12.1558C137.503 12.4292 137.134 12.631 136.733 12.7612C136.335 12.8888 135.938 12.967 135.542 12.9956C135.146 13.0243 134.642 13.0386 134.03 13.0386C133.046 13.0386 132.241 13.0008 131.616 12.9253C130.991 12.8498 130.43 12.6675 129.933 12.3784C129.438 12.0868 129.055 11.631 128.784 11.0112C128.516 10.3888 128.382 9.54899 128.382 8.4917V5.39014C128.382 4.1193 128.598 3.15446 129.03 2.49561C129.465 1.83415 130.081 1.39404 130.878 1.17529C131.675 0.953939 132.726 0.843262 134.03 0.843262C135.145 0.843262 136.058 0.961751 136.769 1.19873C137.479 1.43571 138.017 1.84196 138.382 2.41748C138.746 2.9904 138.929 3.77816 138.929 4.78076V5.24561H135.632V4.78076C135.595 4.43962 135.495 4.18701 135.331 4.02295C135.17 3.85628 134.961 3.74951 134.706 3.70264C134.451 3.65316 134.108 3.62842 133.679 3.62842C133.075 3.62842 132.632 3.69743 132.351 3.83545C132.072 3.97347 131.89 4.19613 131.804 4.50342C131.72 4.80811 131.679 5.27425 131.679 5.90186V7.77295C131.679 8.3016 131.696 8.70785 131.729 8.9917C131.766 9.27295 131.848 9.50993 131.976 9.70264C132.103 9.89535 132.3 10.036 132.565 10.1245C132.831 10.2104 133.202 10.2534 133.679 10.2534C134.181 10.2534 134.567 10.2235 134.835 10.1636C135.103 10.1011 135.305 9.96305 135.44 9.74951C135.578 9.53597 135.647 9.20264 135.647 8.74951V8.39795ZM144.214 4.44482C145.131 4.44482 145.856 4.50472 146.39 4.62451C146.926 4.7443 147.343 4.95785 147.64 5.26514C147.937 5.56982 148.141 5.9943 148.253 6.53857C148.368 7.08024 148.425 7.81722 148.425 8.74951C148.425 9.66097 148.366 10.3849 148.249 10.9214C148.132 11.4578 147.924 11.881 147.624 12.1909C147.327 12.5008 146.912 12.7196 146.378 12.8472C145.844 12.9748 145.123 13.0386 144.214 13.0386C143.334 13.0386 142.625 12.9709 142.089 12.8354C141.555 12.7 141.137 12.4735 140.835 12.1558C140.533 11.8381 140.322 11.411 140.202 10.8745C140.082 10.3354 140.022 9.62712 140.022 8.74951C140.022 7.84066 140.078 7.118 140.19 6.58154C140.305 6.04248 140.509 5.6167 140.804 5.3042C141.098 4.9917 141.516 4.77035 142.058 4.64014C142.599 4.50993 143.318 4.44482 144.214 4.44482ZM144.265 6.55811C143.809 6.55811 143.479 6.6141 143.276 6.72607C143.073 6.83805 142.939 7.04378 142.874 7.34326C142.809 7.64014 142.776 8.10889 142.776 8.74951C142.776 9.39014 142.809 9.85889 142.874 10.1558C142.939 10.45 143.073 10.6519 143.276 10.7612C143.482 10.8706 143.812 10.9253 144.265 10.9253C144.593 10.9253 144.849 10.8966 145.034 10.8394C145.219 10.7795 145.357 10.6753 145.448 10.5269C145.539 10.3758 145.599 10.1675 145.628 9.90186C145.657 9.63363 145.671 9.24951 145.671 8.74951C145.671 8.10368 145.641 7.63363 145.581 7.33936C145.524 7.04248 145.399 6.83805 145.206 6.72607C145.016 6.6141 144.702 6.55811 144.265 6.55811ZM152.628 8.31592V12.9409H149.874V4.54248H152.628V6.10889H152.741C152.931 5.47607 153.224 5.04118 153.62 4.8042C154.016 4.56462 154.56 4.44482 155.253 4.44482C156.177 4.44482 156.858 4.66488 157.296 5.10498C157.736 5.54508 157.956 6.22087 157.956 7.13232V12.9409H155.202V7.77295C155.194 7.34066 155.111 7.03076 154.952 6.84326C154.793 6.65316 154.499 6.55811 154.069 6.55811C153.679 6.55811 153.377 6.63102 153.163 6.77686C152.952 6.92008 152.81 7.118 152.737 7.37061C152.664 7.62321 152.628 7.93831 152.628 8.31592ZM165.046 8.74951C165.046 8.12191 165.02 7.66618 164.968 7.38232C164.918 7.09847 164.789 6.89014 164.581 6.75732C164.373 6.62451 164.032 6.55811 163.558 6.55811C163.107 6.55811 162.783 6.62321 162.585 6.75342C162.39 6.88363 162.269 7.08936 162.222 7.37061C162.175 7.65186 162.151 8.11149 162.151 8.74951C162.151 9.44482 162.188 9.94092 162.261 10.2378C162.336 10.5321 162.465 10.7209 162.647 10.8042C162.832 10.8849 163.136 10.9253 163.558 10.9253C163.961 10.9253 164.266 10.8745 164.472 10.7729C164.677 10.6714 164.825 10.467 164.913 10.1597C165.002 9.84977 165.046 9.37972 165.046 8.74951ZM165.046 5.7417V0.940918H167.8V12.9409H165.046L165.108 11.4839H164.983C164.835 12.075 164.562 12.4826 164.163 12.7065C163.767 12.9279 163.24 13.0386 162.581 13.0386C161.534 13.0386 160.741 12.7938 160.202 12.3042C159.666 11.812 159.397 11.0269 159.397 9.94873V8.03076C159.397 7.37972 159.456 6.82764 159.573 6.37451C159.693 5.91878 159.877 5.5516 160.124 5.27295C160.374 4.9917 160.7 4.78337 161.101 4.64795C161.504 4.51253 161.998 4.44482 162.581 4.44482C163.159 4.44482 163.641 4.53467 164.026 4.71436C164.414 4.89404 164.711 5.23649 164.917 5.7417H165.046Z" fill="black"/>
<path d="M9.09668 21.9409V33.9409H5.89355V24.7729L2.79199 27.605L0.983398 25.5581L5.35059 21.9409H9.09668ZM22.1475 31.4448V33.9409H12.6748V31.4448C12.6748 30.7183 12.7269 30.1427 12.8311 29.7183C12.9378 29.2938 13.1357 28.9448 13.4248 28.6714C13.7139 28.3979 14.124 28.1649 14.6553 27.9722C15.1865 27.7795 15.9339 27.5711 16.8975 27.3472C17.7308 27.1519 18.2633 27.0151 18.4951 26.937C18.7269 26.8563 18.8831 26.7326 18.9639 26.5659C19.0472 26.3993 19.0889 26.0998 19.0889 25.6675C19.0889 25.2664 19.0381 24.9735 18.9365 24.7886C18.8376 24.6037 18.6735 24.4826 18.4443 24.4253C18.2152 24.368 17.8701 24.3394 17.4092 24.3394C16.8883 24.3394 16.5173 24.368 16.2959 24.4253C16.0745 24.48 15.9235 24.6037 15.8428 24.7964C15.762 24.9865 15.7191 25.299 15.7139 25.7339V26.3237H12.6748V25.7339C12.6748 24.9292 12.7751 24.2716 12.9756 23.7612C13.1787 23.2508 13.4782 22.8576 13.874 22.5815C14.2725 22.3029 14.7555 22.1102 15.3232 22.0034C15.8936 21.8966 16.5889 21.8433 17.4092 21.8433C18.4795 21.8433 19.3454 21.9305 20.0068 22.105C20.6683 22.2769 21.1878 22.6388 21.5654 23.1909C21.943 23.7404 22.1318 24.5503 22.1318 25.6206C22.1318 26.3055 22.0771 26.8576 21.9678 27.2769C21.861 27.6961 21.6839 28.0386 21.4365 28.3042C21.1917 28.5672 20.8701 28.786 20.4717 28.9604C20.0732 29.1349 19.5277 29.3172 18.835 29.5073C18.4782 29.6037 18.0186 29.7118 17.4561 29.8315C16.8962 29.9487 16.5146 30.0503 16.3115 30.1362C16.1084 30.2196 15.9574 30.3589 15.8584 30.5542C15.762 30.7469 15.7139 31.0438 15.7139 31.4448H22.1475ZM28.9404 28.9644H28.1748V26.644H28.9404C29.4587 26.644 29.835 26.6193 30.0693 26.5698C30.3037 26.5203 30.4548 26.4305 30.5225 26.3003C30.5902 26.1701 30.624 25.9591 30.624 25.6675C30.624 25.2847 30.5941 25.0086 30.5342 24.8394C30.4769 24.6675 30.3311 24.5412 30.0967 24.4604C29.8649 24.3797 29.4795 24.3394 28.9404 24.3394C28.4717 24.3394 28.1292 24.3628 27.9131 24.4097C27.6995 24.4539 27.5342 24.575 27.417 24.7729C27.3024 24.9709 27.2451 25.2912 27.2451 25.7339V25.9722H24.2061V25.5581C24.2061 24.4644 24.3896 23.6506 24.7568 23.1167C25.1266 22.5802 25.6462 22.2339 26.3154 22.0776C26.9847 21.9214 27.9079 21.8433 29.085 21.8433C29.7178 21.8433 30.279 21.8732 30.7686 21.9331C31.2607 21.993 31.7282 22.1271 32.1709 22.3354C32.6136 22.5438 32.973 22.8719 33.249 23.3198C33.5251 23.7651 33.6631 24.3511 33.6631 25.0776C33.6631 25.8407 33.5264 26.4591 33.2529 26.9331C32.9795 27.4071 32.5029 27.6896 31.8232 27.7808V27.9097C33.1462 27.9644 33.8076 28.8224 33.8076 30.4839C33.8076 31.2391 33.693 31.8537 33.4639 32.3276C33.2347 32.799 32.9131 33.1571 32.499 33.4019C32.0876 33.6466 31.6058 33.8146 31.0537 33.9058C30.5016 33.9943 29.8454 34.0386 29.085 34.0386C28.262 34.0386 27.5706 34.0034 27.0107 33.9331C26.4508 33.8628 25.9456 33.7065 25.4951 33.4644C25.0472 33.2196 24.6982 32.8485 24.4482 32.3511C24.2008 31.8511 24.0771 31.1922 24.0771 30.3745V29.7339H27.1201V30.1323C27.1201 30.5568 27.1904 30.8719 27.3311 31.0776C27.4717 31.2808 27.6644 31.4097 27.9092 31.4644C28.1566 31.5164 28.5003 31.5425 28.9404 31.5425C29.4404 31.5425 29.8102 31.5164 30.0498 31.4644C30.2894 31.4097 30.4678 31.2808 30.585 31.0776C30.7048 30.8719 30.7646 30.5412 30.7646 30.0854C30.7646 29.7834 30.7269 29.5568 30.6514 29.4058C30.5785 29.2547 30.4118 29.144 30.1514 29.0737C29.891 29.0008 29.4873 28.9644 28.9404 28.9644ZM44.6006 21.9409V29.2534H45.624V31.5737H44.6006V33.9409H41.5615V31.5737H35.2881V28.1479L39.8818 21.9409H44.6006ZM41.5615 29.2534V24.4058H41.4482L37.8037 29.2534H41.5615ZM47.2686 30.4526H50.3076C50.3389 30.9162 50.473 31.2144 50.71 31.3472C50.9469 31.4774 51.3258 31.5425 51.8467 31.5425C52.3805 31.5425 52.7633 31.5164 52.9951 31.4644C53.2295 31.4097 53.4001 31.2729 53.5068 31.0542C53.6162 30.8354 53.6709 30.4696 53.6709 29.9565C53.6709 29.3758 53.641 28.9683 53.5811 28.7339C53.5212 28.4969 53.3688 28.3302 53.124 28.2339C52.8792 28.1349 52.4535 28.0854 51.8467 28.0854C51.443 28.0854 51.154 28.0946 50.9795 28.1128C50.805 28.1284 50.6631 28.1779 50.5537 28.2612C50.4469 28.342 50.3649 28.4748 50.3076 28.6597H47.5576V21.9409H56.2295V24.2612H50.3076V26.5659C50.5758 26.2821 50.8115 26.0802 51.0146 25.9604C51.2178 25.8381 51.4508 25.7612 51.7139 25.73C51.9769 25.6987 52.3883 25.6831 52.9482 25.6831C53.6826 25.6831 54.2907 25.7586 54.7725 25.9097C55.2542 26.0581 55.637 26.2899 55.9209 26.605C56.2048 26.9175 56.4066 27.3172 56.5264 27.8042C56.6488 28.2886 56.71 28.894 56.71 29.6206C56.71 30.5763 56.6188 31.3433 56.4365 31.9214C56.2568 32.4995 55.9782 32.9409 55.6006 33.2456C55.223 33.5503 54.736 33.7586 54.1396 33.8706C53.5433 33.9826 52.779 34.0386 51.8467 34.0386C51.0628 34.0386 50.3962 33.9878 49.8467 33.8862C49.2972 33.7847 48.8337 33.605 48.4561 33.3472C48.0811 33.0868 47.7946 32.7248 47.5967 32.2612C47.4014 31.7951 47.292 31.1922 47.2686 30.4526ZM63.2334 29.1558C62.8037 29.1558 62.4847 29.1792 62.2764 29.2261C62.0706 29.2729 61.9222 29.3719 61.8311 29.5229C61.7425 29.6714 61.6982 29.9019 61.6982 30.2144C61.6982 30.605 61.7334 30.8901 61.8037 31.0698C61.8766 31.2495 62.0173 31.3732 62.2256 31.4409C62.4339 31.5086 62.7699 31.5425 63.2334 31.5425C63.8584 31.5425 64.2946 31.5164 64.542 31.4644C64.792 31.4097 64.9587 31.2912 65.042 31.1089C65.1279 30.924 65.1709 30.6037 65.1709 30.1479C65.1709 29.825 65.1097 29.5946 64.9873 29.4565C64.8649 29.3185 64.6813 29.2339 64.4365 29.2026C64.1917 29.1714 63.7907 29.1558 63.2334 29.1558ZM68.3037 25.605H65.2646C65.2646 25.217 65.21 24.9331 65.1006 24.7534C64.9912 24.5737 64.8258 24.4604 64.6045 24.4136C64.3831 24.3641 64.0485 24.3394 63.6006 24.3394C63.0511 24.3394 62.654 24.3693 62.4092 24.4292C62.1644 24.4891 61.9873 24.6349 61.8779 24.8667C61.7686 25.0959 61.7139 25.4748 61.7139 26.0034V27.9097H61.7451C61.8727 27.5243 62.0368 27.2404 62.2373 27.0581C62.4404 26.8758 62.6618 26.7638 62.9014 26.7222C63.1436 26.6805 63.4834 26.6597 63.9209 26.6597C64.7152 26.6597 65.3636 26.6961 65.8662 26.769C66.3688 26.842 66.7946 26.993 67.1436 27.2222C67.4951 27.4513 67.7607 27.7964 67.9404 28.2573C68.1201 28.7157 68.21 29.3302 68.21 30.1011C68.21 30.9318 68.1149 31.605 67.9248 32.1206C67.7347 32.6362 67.4521 33.0321 67.0771 33.3081C66.7021 33.5841 66.2334 33.7756 65.6709 33.8823C65.1084 33.9865 64.4183 34.0386 63.6006 34.0386C62.5745 34.0386 61.7503 33.9722 61.1279 33.8394C60.5081 33.7065 60.0186 33.4683 59.6592 33.1245C59.2998 32.7782 59.0459 32.2964 58.8975 31.6792C58.749 31.0594 58.6748 30.2287 58.6748 29.187V26.1792C58.6748 24.9631 58.8402 24.0451 59.1709 23.4253C59.5016 22.8029 60.0133 22.3836 60.7061 22.1675C61.3988 21.9513 62.3636 21.8433 63.6006 21.8433C64.624 21.8433 65.4574 21.9045 66.1006 22.0269C66.7464 22.1493 67.2751 22.4474 67.6865 22.9214C68.098 23.3953 68.3037 24.1193 68.3037 25.0933V25.605ZM79.2451 21.9409V24.6284L75.2607 33.9409H71.9014L75.9639 24.6284H70.1904V21.9409H79.2451ZM86.5029 28.9956C85.9795 28.9956 85.5954 29.0243 85.3506 29.0815C85.1084 29.1388 84.9391 29.256 84.8428 29.4331C84.7464 29.6076 84.6982 29.8888 84.6982 30.2769C84.6982 30.6258 84.7529 30.8901 84.8623 31.0698C84.9717 31.2495 85.1514 31.3732 85.4014 31.4409C85.6514 31.5086 86.0186 31.5425 86.5029 31.5425C87.1071 31.5425 87.5368 31.5073 87.792 31.437C88.0472 31.3667 88.2087 31.2469 88.2764 31.0776C88.3441 30.9084 88.3779 30.6258 88.3779 30.23C88.3779 29.8394 88.3363 29.562 88.2529 29.3979C88.1696 29.2339 88.0055 29.1258 87.7607 29.0737C87.516 29.0216 87.0967 28.9956 86.5029 28.9956ZM86.5381 24.3394C86.0719 24.3394 85.7282 24.3667 85.5068 24.4214C85.2881 24.4735 85.1357 24.5841 85.0498 24.7534C84.9639 24.9201 84.9209 25.1831 84.9209 25.5425C84.9209 25.8758 84.973 26.1232 85.0771 26.2847C85.1839 26.4461 85.3467 26.5516 85.5654 26.6011C85.7842 26.6506 86.1084 26.6753 86.5381 26.6753C87.0173 26.6753 87.3701 26.6493 87.5967 26.5972C87.8232 26.5425 87.9808 26.4279 88.0693 26.2534C88.1579 26.0789 88.2021 25.8042 88.2021 25.4292C88.2021 25.1219 88.1683 24.8966 88.1006 24.7534C88.0355 24.6076 87.8883 24.5021 87.6592 24.437C87.43 24.3719 87.0563 24.3394 86.5381 24.3394ZM83.8311 27.8628V27.7495C83.1201 27.5698 82.6175 27.2638 82.3232 26.8315C82.029 26.3993 81.8818 25.7925 81.8818 25.0112C81.8818 24.3133 82.0068 23.7482 82.2568 23.3159C82.5094 22.8836 82.8493 22.5633 83.2764 22.355C83.7035 22.1466 84.18 22.0099 84.7061 21.9448C85.2321 21.8771 85.8428 21.8433 86.5381 21.8433C87.3167 21.8433 87.9665 21.8758 88.4873 21.9409C89.0107 22.006 89.4808 22.1466 89.8975 22.3628C90.3141 22.5763 90.6423 22.911 90.8818 23.3667C91.1214 23.8198 91.2412 24.4162 91.2412 25.1558C91.2412 25.7131 91.1904 26.1479 91.0889 26.4604C90.9873 26.7729 90.8089 27.0256 90.5537 27.2183C90.3011 27.4084 89.9222 27.5854 89.417 27.7495V27.8628C90.7503 28.0399 91.417 28.9618 91.417 30.6284C91.417 31.3862 91.2933 31.9982 91.0459 32.4644C90.8011 32.9305 90.4613 33.2756 90.0264 33.4995C89.5915 33.7235 89.0993 33.8693 88.5498 33.937C88.0029 34.0047 87.3324 34.0386 86.5381 34.0386C85.5173 34.0386 84.6631 33.9644 83.9756 33.8159C83.2907 33.6649 82.7321 33.3407 82.2998 32.8433C81.8701 32.3459 81.6553 31.6076 81.6553 30.6284C81.6553 29.8758 81.8389 29.2339 82.2061 28.7026C82.5732 28.1714 83.1149 27.8914 83.8311 27.8628ZM98.2764 26.7261C98.7061 26.7261 99.0238 26.7026 99.2295 26.6558C99.4378 26.6089 99.5863 26.5112 99.6748 26.3628C99.766 26.2118 99.8115 25.98 99.8115 25.6675C99.8115 25.2769 99.7751 24.9917 99.7021 24.812C99.6318 24.6323 99.4925 24.5086 99.2842 24.4409C99.0758 24.3732 98.7399 24.3394 98.2764 24.3394C97.6514 24.3394 97.2139 24.3667 96.9639 24.4214C96.7165 24.4735 96.5498 24.592 96.4639 24.7769C96.3805 24.9591 96.3389 25.2782 96.3389 25.7339C96.3389 26.0568 96.4001 26.2873 96.5225 26.4253C96.6449 26.5633 96.8271 26.6479 97.0693 26.6792C97.3141 26.7104 97.7165 26.7261 98.2764 26.7261ZM93.2021 30.2769H96.2451C96.2451 30.6649 96.2998 30.9487 96.4092 31.1284C96.5186 31.3081 96.6839 31.4227 96.9053 31.4722C97.1266 31.519 97.4613 31.5425 97.9092 31.5425C98.4561 31.5425 98.8519 31.5125 99.0967 31.4526C99.3441 31.3927 99.5225 31.2482 99.6318 31.019C99.7412 30.7873 99.7959 30.4071 99.7959 29.8784V27.9722H99.7646C99.6318 28.3576 99.4652 28.6414 99.2646 28.8237C99.0667 29.006 98.8467 29.118 98.6045 29.1597C98.3649 29.2013 98.0264 29.2222 97.5889 29.2222C96.7946 29.2222 96.1449 29.1844 95.6396 29.1089C95.137 29.0334 94.7113 28.8823 94.3623 28.6558C94.0133 28.4266 93.749 28.0802 93.5693 27.6167C93.3896 27.1506 93.2998 26.5386 93.2998 25.7808C93.2998 24.6948 93.4652 23.868 93.7959 23.3003C94.1266 22.7326 94.6188 22.3485 95.2725 22.1479C95.9287 21.9448 96.8076 21.8433 97.9092 21.8433C98.9404 21.8433 99.766 21.9097 100.386 22.0425C101.006 22.1727 101.494 22.4084 101.851 22.7495C102.207 23.0907 102.46 23.5737 102.608 24.1987C102.759 24.8237 102.835 25.6558 102.835 26.6948V29.7026C102.835 30.6271 102.741 31.3732 102.554 31.9409C102.366 32.5086 102.077 32.9448 101.687 33.2495C101.299 33.5516 100.806 33.7586 100.21 33.8706C99.6136 33.9826 98.8467 34.0386 97.9092 34.0386C97.141 34.0386 96.499 34.0099 95.9834 33.9526C95.4704 33.8979 95.0016 33.7664 94.5771 33.5581C94.1527 33.3472 93.8167 33.019 93.5693 32.5737C93.3245 32.1258 93.2021 31.5308 93.2021 30.7886V30.2769ZM109.569 21.8433C110.371 21.8433 111.041 21.8797 111.577 21.9526C112.114 22.0229 112.611 22.1935 113.069 22.4644C113.528 22.7326 113.891 23.1545 114.159 23.73C114.427 24.3055 114.562 25.0802 114.562 26.0542V29.8276C114.562 30.7964 114.427 31.5711 114.159 32.1519C113.891 32.73 113.529 33.1532 113.073 33.4214C112.62 33.687 112.119 33.8563 111.569 33.9292C111.02 34.0021 110.353 34.0386 109.569 34.0386C108.509 34.0386 107.636 33.9591 106.948 33.8003C106.263 33.6414 105.697 33.256 105.249 32.644C104.801 32.0295 104.577 31.0907 104.577 29.8276V26.0542C104.577 24.7912 104.801 23.8537 105.249 23.2417C105.697 22.6271 106.263 22.2404 106.948 22.0815C107.636 21.9227 108.509 21.8433 109.569 21.8433ZM109.569 24.4839C109.093 24.4839 108.745 24.4995 108.526 24.5308C108.308 24.5594 108.131 24.6362 107.995 24.7612C107.86 24.8836 107.762 25.0841 107.702 25.3628C107.645 25.6414 107.616 26.0425 107.616 26.5659V29.3159C107.616 29.8368 107.645 30.2365 107.702 30.5151C107.762 30.7938 107.858 30.9956 107.991 31.1206C108.127 31.243 108.309 31.3198 108.538 31.3511C108.767 31.3823 109.111 31.3979 109.569 31.3979C110.028 31.3979 110.37 31.3823 110.597 31.3511C110.826 31.3198 111.008 31.243 111.144 31.1206C111.282 30.9956 111.378 30.7938 111.433 30.5151C111.49 30.2365 111.519 29.8368 111.519 29.3159V26.5659C111.519 26.0425 111.49 25.6414 111.433 25.3628C111.378 25.0841 111.282 24.8836 111.144 24.7612C111.006 24.6362 110.827 24.5594 110.608 24.5308C110.392 24.4995 110.046 24.4839 109.569 24.4839Z" fill="black"/>
</svg>
