<svg width="185" height="38" viewBox="0 0 185 38" fill="none" xmlns="http://www.w3.org/2000/svg">
<path d="M14.932 3.31278V14.3528H12.548V3.31278H14.932ZM4.036 3.31278V14.3528H1.652V3.31278H4.036ZM13.14 12.6408V14.3528H3.908L3.892 12.6408H13.14ZM9.476 3.31278V14.3528H7.108V3.31278H9.476ZM22.2701 6.25678C23.2728 6.25678 23.9875 6.61945 24.4141 7.34478C24.8408 8.07012 25.0541 9.11012 25.0541 10.4648C25.0541 11.5208 24.9421 12.3474 24.7181 12.9448C24.4941 13.5421 24.1581 13.9634 23.7101 14.2088C23.2728 14.4434 22.7235 14.5608 22.0621 14.5608C21.5075 14.5608 20.9688 14.4808 20.4461 14.3208C19.9341 14.1608 19.4861 13.8941 19.1021 13.5208L19.2461 12.4648C19.6088 12.5714 19.9341 12.6674 20.2221 12.7528C20.5101 12.8274 20.8408 12.8648 21.2141 12.8648C21.5555 12.8648 21.8275 12.8061 22.0301 12.6888C22.2328 12.5714 22.3768 12.3421 22.4621 12.0008C22.5581 11.6488 22.6061 11.1421 22.6061 10.4808C22.6061 9.83012 22.5635 9.33412 22.4781 8.99278C22.3928 8.64078 22.2541 8.40078 22.0621 8.27278C21.8808 8.13412 21.6355 8.06478 21.3261 8.06478C20.9741 8.06478 20.6541 8.13412 20.3661 8.27278C20.0781 8.40078 19.7528 8.58745 19.3901 8.83278L19.0861 7.74478C19.2995 7.45678 19.5715 7.20078 19.9021 6.97678C20.2435 6.75278 20.6168 6.57678 21.0221 6.44878C21.4275 6.32078 21.8435 6.25678 22.2701 6.25678ZM18.9901 6.44878L19.2301 7.88878L19.4381 8.12878V13.2648L19.3581 13.4568C19.3901 13.7768 19.4115 14.1074 19.4221 14.4488C19.4435 14.8008 19.4488 15.1474 19.4381 15.4888V17.3928H17.0861V6.44878H18.9901ZM34.4708 6.44878V14.3528L32.3428 14.3688V10.2248C32.3428 10.0114 32.3481 9.80345 32.3588 9.60078C32.3801 9.39812 32.4068 9.17945 32.4388 8.94478H32.3748C32.3108 9.13678 32.2201 9.34478 32.1028 9.56878C31.9854 9.78212 31.8734 9.96878 31.7668 10.1288L28.7748 14.3528H26.7108V6.44878H28.8228V10.7048C28.8228 10.8968 28.8174 11.0888 28.8068 11.2808C28.7961 11.4621 28.7748 11.6594 28.7428 11.8728H28.7908C28.8761 11.6701 28.9668 11.4834 29.0628 11.3128C29.1694 11.1314 29.2761 10.9608 29.3828 10.8008L32.4228 6.44878H34.4708ZM41.4844 6.24078C42.7857 6.24078 43.8257 6.37945 44.6044 6.65678C45.383 6.92345 45.9484 7.36078 46.3004 7.96878C46.6524 8.57678 46.8284 9.39278 46.8284 10.4168C46.8284 11.4194 46.6524 12.2248 46.3004 12.8328C45.9484 13.4301 45.383 13.8674 44.6044 14.1448C43.8257 14.4114 42.7857 14.5448 41.4844 14.5448C40.183 14.5448 39.1377 14.4114 38.3484 14.1448C37.5697 13.8674 37.0044 13.4301 36.6524 12.8328C36.3004 12.2248 36.1244 11.4194 36.1244 10.4168C36.1244 9.39278 36.3004 8.57678 36.6524 7.96878C37.0044 7.36078 37.5697 6.92345 38.3484 6.65678C39.1377 6.37945 40.183 6.24078 41.4844 6.24078ZM41.4844 7.88878C40.6844 7.88878 40.055 7.95812 39.5964 8.09678C39.1484 8.23545 38.8284 8.49145 38.6364 8.86478C38.455 9.22745 38.3644 9.74478 38.3644 10.4168C38.3644 11.0781 38.455 11.5901 38.6364 11.9528C38.8284 12.3154 39.1484 12.5661 39.5964 12.7048C40.055 12.8434 40.6844 12.9128 41.4844 12.9128C42.2844 12.9128 42.9084 12.8434 43.3564 12.7048C43.8044 12.5661 44.119 12.3154 44.3004 11.9528C44.4817 11.5901 44.5724 11.0781 44.5724 10.4168C44.5724 9.74478 44.4817 9.22745 44.3004 8.86478C44.119 8.49145 43.8044 8.23545 43.3564 8.09678C42.9084 7.95812 42.2844 7.88878 41.4844 7.88878ZM42.5404 3.15278V6.60878L42.4444 7.07278V13.4408L42.5404 14.0328V17.3928H40.4124V14.0328L40.5084 13.4408V7.08878L40.4124 6.60878V3.15278H42.5404ZM52.7804 6.44878V14.3528H50.4124V6.44878H52.7804ZM55.4044 6.44878V8.27278H47.7724V6.44878H55.4044ZM62.5323 3.26478C63.1296 3.26478 63.7323 3.27012 64.3403 3.28078C64.9483 3.28078 65.5456 3.29145 66.1323 3.31278C66.7189 3.33412 67.2683 3.37145 67.7803 3.42478L67.6683 5.20078H63.4283C63.1616 5.20078 62.9589 5.27012 62.8203 5.40878C62.6923 5.54745 62.6283 5.75012 62.6283 6.01678V11.6488C62.6283 11.9154 62.6923 12.1181 62.8203 12.2568C62.9589 12.3954 63.1616 12.4648 63.4283 12.4648H67.6683L67.7803 14.2408C67.2683 14.2834 66.7189 14.3208 66.1323 14.3528C65.5456 14.3741 64.9483 14.3848 64.3403 14.3848C63.7323 14.3954 63.1296 14.4008 62.5323 14.4008C61.8283 14.4008 61.2576 14.1981 60.8203 13.7928C60.3936 13.3768 60.1803 12.8381 60.1803 12.1768V5.48878C60.1803 4.81678 60.3936 4.27812 60.8203 3.87278C61.2576 3.46745 61.8283 3.26478 62.5323 3.26478ZM60.4683 7.74478H67.0763V9.47278H60.4683V7.74478ZM78.3423 3.31278L75.6223 8.68878L78.5503 14.3528H76.0543L73.3023 8.68878L75.8623 3.31278H78.3423ZM71.2543 3.31278L73.8143 8.68878L71.0623 14.3528H68.5663L71.4783 8.68878L68.7743 3.31278H71.2543ZM74.7423 7.90478V9.40878H72.2303V7.90478H74.7423ZM83.8946 3.08878C84.7693 3.08878 85.5106 3.18478 86.1186 3.37678C86.7266 3.55812 87.212 3.86745 87.5746 4.30478C87.948 4.73145 88.22 5.31812 88.3906 6.06478C88.5613 6.80078 88.6466 7.72345 88.6466 8.83278C88.6466 9.94212 88.5613 10.8701 88.3906 11.6168C88.22 12.3528 87.948 12.9394 87.5746 13.3768C87.212 13.8034 86.7266 14.1128 86.1186 14.3048C85.5106 14.4861 84.7693 14.5768 83.8946 14.5768C83.02 14.5768 82.2786 14.4861 81.6706 14.3048C81.0626 14.1128 80.572 13.8034 80.1986 13.3768C79.8253 12.9394 79.5533 12.3528 79.3826 11.6168C79.212 10.8701 79.1266 9.94212 79.1266 8.83278C79.1266 7.72345 79.212 6.80078 79.3826 6.06478C79.5533 5.31812 79.8253 4.73145 80.1986 4.30478C80.572 3.86745 81.0626 3.55812 81.6706 3.37678C82.2786 3.18478 83.02 3.08878 83.8946 3.08878ZM83.8946 5.02478C83.3293 5.02478 82.8866 5.13678 82.5666 5.36078C82.2573 5.58478 82.0333 5.97412 81.8946 6.52878C81.7666 7.07278 81.7026 7.84078 81.7026 8.83278C81.7026 9.81412 81.7666 10.5821 81.8946 11.1368C82.0333 11.6914 82.2573 12.0808 82.5666 12.3048C82.8866 12.5288 83.3293 12.6408 83.8946 12.6408C84.4493 12.6408 84.8813 12.5288 85.1906 12.3048C85.5106 12.0808 85.7346 11.6914 85.8626 11.1368C86.0013 10.5821 86.0706 9.81412 86.0706 8.83278C86.0706 7.84078 86.0013 7.07278 85.8626 6.52878C85.7346 5.97412 85.5106 5.58478 85.1906 5.36078C84.8813 5.13678 84.4493 5.02478 83.8946 5.02478ZM97.4034 3.12078C98.1714 3.12078 98.8327 3.19012 99.3874 3.32878C99.942 3.45678 100.374 3.70745 100.683 4.08078C100.993 4.45412 101.147 4.99278 101.147 5.69678C101.147 6.11278 101.094 6.50212 100.987 6.86478C100.891 7.21678 100.71 7.58478 100.443 7.96878C100.187 8.35278 99.814 8.80612 99.3234 9.32878L96.4274 12.3208C96.694 12.2781 96.9607 12.2514 97.2274 12.2408C97.5047 12.2194 97.782 12.2088 98.0594 12.2088H101.467V14.3528H93.5634V13.0408C93.5634 12.8488 93.59 12.6728 93.6434 12.5128C93.6967 12.3421 93.782 12.1874 93.8994 12.0488L96.6514 9.10478C97.302 8.43278 97.798 7.83545 98.1394 7.31278C98.4914 6.79012 98.662 6.33678 98.6514 5.95278C98.6407 5.71812 98.5767 5.54745 98.4594 5.44078C98.3527 5.33412 98.1874 5.26478 97.9634 5.23278C97.7394 5.20078 97.462 5.18478 97.1314 5.18478C96.758 5.18478 96.406 5.19012 96.0754 5.20078C95.7554 5.20078 95.4087 5.21145 95.0354 5.23278C94.6727 5.25412 94.246 5.28612 93.7554 5.32878L93.6594 3.50478C94.182 3.38745 94.6514 3.30212 95.0674 3.24878C95.494 3.19545 95.894 3.16345 96.2674 3.15278C96.6514 3.13145 97.03 3.12078 97.4034 3.12078ZM108.985 3.26478C109.583 3.26478 110.185 3.27012 110.793 3.28078C111.401 3.28078 111.999 3.29145 112.585 3.31278C113.172 3.33412 113.721 3.37145 114.233 3.42478L114.121 5.20078H109.881C109.615 5.20078 109.412 5.27012 109.273 5.40878C109.145 5.54745 109.081 5.75012 109.081 6.01678V11.6488C109.081 11.9154 109.145 12.1181 109.273 12.2568C109.412 12.3954 109.615 12.4648 109.881 12.4648H114.121L114.233 14.2408C113.721 14.2834 113.172 14.3208 112.585 14.3528C111.999 14.3741 111.401 14.3848 110.793 14.3848C110.185 14.3954 109.583 14.4008 108.985 14.4008C108.281 14.4008 107.711 14.1981 107.273 13.7928C106.847 13.3768 106.633 12.8381 106.633 12.1768V5.48878C106.633 4.81678 106.847 4.27812 107.273 3.87278C107.711 3.46745 108.281 3.26478 108.985 3.26478ZM106.921 7.74478H113.529V9.47278H106.921V7.74478ZM123.595 6.44878L121.307 10.3048L123.771 14.3528H121.371L119.035 10.3048L121.195 6.44878H123.595ZM117.595 6.44878L119.755 10.3048L117.435 14.3528H115.019L117.483 10.3048L115.195 6.44878H117.595ZM120.651 9.53678V11.0088H118.155V9.53678H120.651ZM127.986 4.25678V11.8248C127.986 12.1128 128.05 12.3208 128.178 12.4488C128.316 12.5661 128.54 12.6248 128.85 12.6248H129.874L130.13 14.2248C129.938 14.2888 129.703 14.3421 129.426 14.3848C129.148 14.4381 128.871 14.4754 128.594 14.4968C128.316 14.5288 128.082 14.5448 127.89 14.5448C127.175 14.5448 126.615 14.3528 126.21 13.9688C125.815 13.5848 125.618 13.0461 125.618 12.3528L125.602 4.25678H127.986ZM130.194 6.44878V8.00078H124.226V6.52878L125.762 6.44878H130.194ZM133.316 6.44878L133.604 8.01678L133.828 8.22478V14.3528H131.46V6.44878H133.316ZM137.172 6.24078L136.948 8.43278H136.292C135.919 8.43278 135.529 8.48612 135.124 8.59278C134.719 8.69945 134.207 8.85945 133.588 9.07278L133.428 7.74478C133.983 7.25412 134.543 6.88078 135.108 6.62478C135.673 6.36878 136.223 6.24078 136.756 6.24078H137.172ZM142.417 6.24078C143.079 6.24078 143.639 6.33145 144.097 6.51278C144.556 6.68345 144.903 6.98212 145.137 7.40878C145.383 7.82478 145.505 8.40078 145.505 9.13678V14.3528H143.617L143.281 12.6408L143.121 12.4008V9.12078C143.121 8.74745 143.031 8.47545 142.849 8.30478C142.679 8.13412 142.348 8.04878 141.857 8.04878C141.452 8.04878 140.945 8.06478 140.337 8.09678C139.729 8.11812 139.105 8.15012 138.465 8.19278L138.241 6.62478C138.625 6.55012 139.068 6.48612 139.569 6.43278C140.071 6.37945 140.572 6.33678 141.073 6.30478C141.575 6.26212 142.023 6.24078 142.417 6.24078ZM144.529 9.48878L144.513 10.8168L140.993 10.8328C140.705 10.8328 140.497 10.9021 140.369 11.0408C140.252 11.1794 140.193 11.3661 140.193 11.6008V11.9848C140.193 12.2514 140.268 12.4594 140.417 12.6088C140.567 12.7474 140.807 12.8168 141.137 12.8168C141.415 12.8168 141.713 12.7581 142.033 12.6408C142.364 12.5234 142.689 12.3581 143.009 12.1448C143.329 11.9314 143.612 11.6808 143.857 11.3928V12.4168C143.761 12.5768 143.617 12.7794 143.425 13.0248C143.244 13.2594 143.009 13.4941 142.721 13.7288C142.433 13.9528 142.097 14.1448 141.713 14.3048C141.329 14.4648 140.892 14.5448 140.401 14.5448C139.921 14.5448 139.489 14.4594 139.105 14.2888C138.721 14.1181 138.417 13.8674 138.193 13.5368C137.969 13.2061 137.857 12.7954 137.857 12.3048V11.4888C137.857 10.8594 138.071 10.3688 138.497 10.0168C138.924 9.66478 139.511 9.48878 140.257 9.48878H144.529ZM155.155 3.18478C156.115 3.18478 156.878 3.27012 157.443 3.44078C158.019 3.60078 158.435 3.88878 158.691 4.30478C158.947 4.72078 159.075 5.30745 159.075 6.06478C159.075 6.85412 158.921 7.45678 158.611 7.87278C158.313 8.27812 157.817 8.51278 157.123 8.57678V8.67278C157.977 8.74745 158.574 9.03545 158.915 9.53678C159.257 10.0274 159.427 10.7154 159.427 11.6008C159.427 12.3581 159.294 12.9448 159.027 13.3608C158.771 13.7768 158.366 14.0701 157.811 14.2408C157.267 14.4008 156.553 14.4808 155.667 14.4808C154.953 14.4808 154.329 14.4754 153.795 14.4648C153.273 14.4648 152.787 14.4541 152.339 14.4328C151.891 14.4114 151.433 14.3848 150.963 14.3528L151.203 12.6568C151.459 12.6674 151.95 12.6781 152.675 12.6888C153.411 12.6994 154.265 12.7048 155.235 12.7048C155.683 12.7048 156.035 12.6621 156.291 12.5768C156.547 12.4914 156.723 12.3368 156.819 12.1128C156.926 11.8781 156.979 11.5474 156.979 11.1208C156.979 10.6621 156.926 10.3154 156.819 10.0808C156.713 9.83545 156.526 9.66478 156.259 9.56878C156.003 9.47278 155.646 9.41945 155.187 9.40878H151.187V7.85678H155.155C155.55 7.84612 155.859 7.80345 156.083 7.72878C156.318 7.65412 156.483 7.51012 156.579 7.29678C156.675 7.08345 156.723 6.78478 156.723 6.40078C156.723 6.00612 156.67 5.70745 156.563 5.50478C156.467 5.29145 156.297 5.14745 156.051 5.07278C155.806 4.99812 155.465 4.96078 155.027 4.96078C154.43 4.96078 153.902 4.96078 153.443 4.96078C152.985 4.96078 152.574 4.96612 152.211 4.97678C151.849 4.97678 151.513 4.98745 151.203 5.00878L150.963 3.31278C151.39 3.27012 151.801 3.24345 152.195 3.23278C152.601 3.21145 153.038 3.20078 153.507 3.20078C153.977 3.19012 154.526 3.18478 155.155 3.18478ZM153.363 3.31278V14.3528H150.963V3.31278H153.363ZM164.814 6.24078C165.806 6.24078 166.6 6.37945 167.198 6.65678C167.795 6.92345 168.222 7.36078 168.478 7.96878C168.744 8.57678 168.878 9.39278 168.878 10.4168C168.878 11.4194 168.744 12.2248 168.478 12.8328C168.222 13.4408 167.795 13.8781 167.198 14.1448C166.6 14.4114 165.806 14.5448 164.814 14.5448C163.832 14.5448 163.038 14.4114 162.43 14.1448C161.832 13.8781 161.4 13.4408 161.134 12.8328C160.867 12.2248 160.734 11.4194 160.734 10.4168C160.734 9.39278 160.867 8.57678 161.134 7.96878C161.4 7.36078 161.832 6.92345 162.43 6.65678C163.038 6.37945 163.832 6.24078 164.814 6.24078ZM164.814 7.96878C164.408 7.96878 164.088 8.03812 163.854 8.17678C163.619 8.31545 163.454 8.56078 163.358 8.91278C163.262 9.26478 163.214 9.76612 163.214 10.4168C163.214 11.0568 163.262 11.5528 163.358 11.9048C163.454 12.2568 163.619 12.5021 163.854 12.6408C164.088 12.7688 164.408 12.8328 164.814 12.8328C165.219 12.8328 165.539 12.7688 165.774 12.6408C166.008 12.5021 166.174 12.2568 166.27 11.9048C166.366 11.5528 166.414 11.0568 166.414 10.4168C166.414 9.76612 166.366 9.26478 166.27 8.91278C166.174 8.56078 166.008 8.31545 165.774 8.17678C165.539 8.03812 165.219 7.96878 164.814 7.96878ZM172.875 3.15278L172.859 11.8248C172.859 12.0914 172.939 12.2941 173.099 12.4328C173.259 12.5608 173.494 12.6248 173.803 12.6248H174.443L174.715 14.2248C174.587 14.2888 174.406 14.3421 174.171 14.3848C173.937 14.4381 173.697 14.4754 173.451 14.4968C173.206 14.5288 172.998 14.5448 172.827 14.5448C172.113 14.5448 171.547 14.3581 171.131 13.9848C170.715 13.6114 170.507 13.0888 170.507 12.4168V3.15278H172.875ZM178.445 6.24078C179 6.24078 179.533 6.32078 180.045 6.48078C180.568 6.64078 181.027 6.90212 181.421 7.26478L181.261 8.35278C180.899 8.24612 180.573 8.15012 180.285 8.06478C179.997 7.97945 179.661 7.93678 179.277 7.93678C178.947 7.93678 178.68 7.99545 178.477 8.11278C178.275 8.23012 178.125 8.45945 178.029 8.80078C177.933 9.14212 177.885 9.64878 177.885 10.3208C177.885 10.9501 177.928 11.4301 178.013 11.7608C178.109 12.0808 178.253 12.3048 178.445 12.4328C178.648 12.5501 178.904 12.6088 179.213 12.6088C179.491 12.6088 179.731 12.5821 179.933 12.5288C180.136 12.4648 180.339 12.3741 180.541 12.2568C180.744 12.1288 180.973 11.9741 181.229 11.7928L181.405 12.9608C181.085 13.4088 180.669 13.7874 180.157 14.0968C179.645 14.3954 179.016 14.5448 178.269 14.5448C177.256 14.5448 176.531 14.1821 176.093 13.4568C175.667 12.7314 175.453 11.6914 175.453 10.3368C175.453 9.28078 175.56 8.45945 175.773 7.87278C175.997 7.27545 176.333 6.85412 176.781 6.60878C177.229 6.36345 177.784 6.24078 178.445 6.24078ZM183.357 3.15278V14.3528H181.485L181.245 12.8968L180.989 12.7208V7.53678L181.085 7.32878C181.053 6.99812 181.027 6.66745 181.005 6.33678C180.995 5.99545 180.989 5.64878 180.989 5.29678V3.15278H183.357Z" fill="black"/>
<path d="M5.94 24.3128V35.3528H3.508V27.5288C3.508 27.3261 3.51333 27.1288 3.524 26.9368C3.53467 26.7341 3.56133 26.5314 3.604 26.3288L0.98 27.0008L0.692 25.4168L3.508 24.3128H5.94ZM11.9503 24.1208C12.7183 24.1208 13.3796 24.1901 13.9343 24.3288C14.4889 24.4568 14.9209 24.7074 15.2303 25.0808C15.5396 25.4541 15.6943 25.9928 15.6943 26.6968C15.6943 27.1128 15.6409 27.5021 15.5343 27.8648C15.4383 28.2168 15.2569 28.5848 14.9903 28.9688C14.7343 29.3528 14.3609 29.8061 13.8703 30.3288L10.9743 33.3208C11.2409 33.2781 11.5076 33.2514 11.7743 33.2408C12.0516 33.2194 12.3289 33.2088 12.6063 33.2088H16.0143V35.3528H8.11025V34.0408C8.11025 33.8488 8.13692 33.6728 8.19025 33.5128C8.24358 33.3421 8.32892 33.1874 8.44625 33.0488L11.1983 30.1048C11.8489 29.4328 12.3449 28.8354 12.6863 28.3128C13.0383 27.7901 13.2089 27.3368 13.1983 26.9528C13.1876 26.7181 13.1236 26.5474 13.0063 26.4408C12.8996 26.3341 12.7343 26.2648 12.5103 26.2328C12.2863 26.2008 12.0089 26.1848 11.6783 26.1848C11.3049 26.1848 10.9529 26.1901 10.6223 26.2008C10.3023 26.2008 9.95558 26.2114 9.58225 26.2328C9.21958 26.2541 8.79292 26.2861 8.30225 26.3288L8.20625 24.5048C8.72892 24.3874 9.19825 24.3021 9.61425 24.2488C10.0409 24.1954 10.4409 24.1634 10.8143 24.1528C11.1983 24.1314 11.5769 24.1208 11.9503 24.1208ZM21.0551 24.0888C21.9298 24.0888 22.6285 24.1688 23.1511 24.3288C23.6845 24.4781 24.0685 24.7394 24.3031 25.1128C24.5485 25.4861 24.6711 26.0034 24.6711 26.6648C24.6711 27.1768 24.6231 27.6301 24.5271 28.0248C24.4311 28.4088 24.2605 28.7234 24.0151 28.9688C23.7698 29.2141 23.4178 29.3741 22.9591 29.4488V29.5128C23.7165 29.6301 24.2391 29.9181 24.5271 30.3768C24.8151 30.8354 24.9645 31.4701 24.9751 32.2808C24.9858 33.0488 24.8685 33.6781 24.6231 34.1688C24.3778 34.6488 23.9725 35.0061 23.4071 35.2408C22.8525 35.4648 22.1058 35.5768 21.1671 35.5768C20.5271 35.5768 19.8818 35.5448 19.2311 35.4808C18.5805 35.4274 17.9511 35.3581 17.3431 35.2728L17.4391 33.4808C17.8658 33.5128 18.2445 33.5394 18.5751 33.5608C18.9165 33.5714 19.2418 33.5821 19.5511 33.5928C19.8605 33.6034 20.1751 33.6088 20.4951 33.6088C21.0178 33.6088 21.4285 33.5661 21.7271 33.4808C22.0258 33.3848 22.2391 33.2194 22.3671 32.9848C22.4951 32.7394 22.5591 32.3981 22.5591 31.9608C22.5591 31.6194 22.5111 31.3368 22.4151 31.1128C22.3298 30.8781 22.1645 30.7021 21.9191 30.5848C21.6738 30.4568 21.3165 30.3981 20.8471 30.4088L18.7511 30.4248V28.8088H20.8471C21.1991 28.8088 21.4765 28.7714 21.6791 28.6968C21.8818 28.6114 22.0311 28.5048 22.1271 28.3768C22.2338 28.2381 22.3031 28.0781 22.3351 27.8968C22.3671 27.7154 22.3831 27.5181 22.3831 27.3048C22.3725 26.9528 22.3138 26.6861 22.2071 26.5048C22.1111 26.3234 21.9351 26.2008 21.6791 26.1368C21.4338 26.0728 21.0871 26.0408 20.6391 26.0408C20.0845 26.0408 19.5458 26.0514 19.0231 26.0728C18.5111 26.0834 18.0578 26.0941 17.6631 26.1048L17.5511 24.3928C18.1485 24.2861 18.7351 24.2114 19.3111 24.1688C19.8978 24.1154 20.4791 24.0888 21.0551 24.0888ZM31.4773 24.3128L28.8213 30.6648C28.7466 30.8354 28.7466 30.9688 28.8213 31.0648C28.8959 31.1501 29.0079 31.1928 29.1573 31.1928H35.4933V32.6488L34.1333 32.8888H27.3973C27.0986 32.8888 26.8426 32.8088 26.6293 32.6488C26.4159 32.4781 26.2719 32.2648 26.1973 32.0088C26.1333 31.7421 26.1599 31.4754 26.2773 31.2088L29.1733 24.3128H31.4773ZM34.1493 26.4568V35.3528H31.8933V28.2168L32.2933 26.4568H34.1493ZM43.8088 24.3128L43.7288 26.1528H39.1368L39.0088 28.2328L40.6248 28.4088C41.2968 28.4728 41.8568 28.6008 42.3048 28.7928C42.7634 28.9848 43.1261 29.2354 43.3928 29.5448C43.6594 29.8541 43.8514 30.2114 43.9688 30.6168C44.0861 31.0221 44.1448 31.4754 44.1448 31.9768C44.1448 32.4568 44.0861 32.9154 43.9688 33.3528C43.8514 33.7794 43.6488 34.1581 43.3608 34.4888C43.0834 34.8194 42.6941 35.0808 42.1928 35.2728C41.6914 35.4541 41.0514 35.5448 40.2728 35.5448C39.7608 35.5448 39.1794 35.5128 38.5288 35.4488C37.8888 35.3954 37.2381 35.3154 36.5768 35.2088L36.8008 33.3368C37.3234 33.3901 37.8301 33.4381 38.3207 33.4808C38.8221 33.5128 39.2648 33.5288 39.6488 33.5288C40.2141 33.5288 40.6408 33.4701 40.9288 33.3528C41.2168 33.2354 41.4141 33.0594 41.5208 32.8248C41.6381 32.5794 41.7074 32.2754 41.7288 31.9128C41.7394 31.5608 41.6968 31.2834 41.6008 31.0808C41.5154 30.8674 41.3661 30.7021 41.1528 30.5848C40.9501 30.4674 40.6781 30.3874 40.3368 30.3448C40.0061 30.2914 39.5954 30.2488 39.1048 30.2168L37.7288 30.0568C37.5048 30.0248 37.3234 29.9341 37.1848 29.7848C37.0461 29.6248 36.9821 29.4328 36.9928 29.2088L37.2648 24.3128H43.8088ZM50.2529 24.1208C50.5195 24.1208 50.8929 24.1368 51.3729 24.1688C51.8529 24.1901 52.3542 24.2754 52.8769 24.4248L52.7489 25.9608C52.4715 25.9501 52.2155 25.9448 51.9809 25.9448C51.7462 25.9341 51.4955 25.9288 51.2289 25.9288C50.9622 25.9288 50.6369 25.9288 50.2529 25.9288C49.7835 25.9288 49.3942 25.9821 49.0849 26.0888C48.7862 26.1848 48.5515 26.3768 48.3809 26.6648C48.2209 26.9528 48.1089 27.3794 48.0449 27.9448C47.9915 28.4994 47.9649 29.2301 47.9649 30.1368C47.9649 30.8728 47.9809 31.4754 48.0129 31.9448C48.0449 32.4141 48.1142 32.7821 48.2209 33.0488C48.3382 33.3048 48.5142 33.4861 48.7489 33.5928C48.9835 33.6888 49.3089 33.7368 49.7249 33.7368C50.2049 33.7368 50.5569 33.6621 50.7809 33.5128C51.0049 33.3634 51.1489 33.1341 51.2129 32.8248C51.2769 32.5154 51.3089 32.1208 51.3089 31.6408C51.3089 31.1714 51.2662 30.8034 51.1809 30.5368C51.0955 30.2701 50.9355 30.0834 50.7009 29.9768C50.4769 29.8701 50.1569 29.8168 49.7409 29.8168C49.4422 29.8168 49.1649 29.8541 48.9089 29.9288C48.6635 30.0034 48.3969 30.1314 48.1089 30.3128C47.8315 30.4834 47.4849 30.7288 47.0689 31.0488L47.0049 30.1208C47.3569 29.5874 47.6929 29.1768 48.0129 28.8888C48.3329 28.5901 48.6849 28.3874 49.0689 28.2808C49.4529 28.1634 49.9115 28.1048 50.4449 28.1048C51.2662 28.1048 51.9009 28.2221 52.3489 28.4568C52.8075 28.6914 53.1275 29.0648 53.3089 29.5768C53.5009 30.0781 53.5969 30.7501 53.5969 31.5928C53.5969 32.2434 53.5435 32.8194 53.4369 33.3208C53.3409 33.8114 53.1489 34.2221 52.8609 34.5528C52.5835 34.8834 52.1889 35.1341 51.6769 35.3048C51.1755 35.4648 50.5142 35.5448 49.6929 35.5448C48.8929 35.5448 48.2262 35.4594 47.6929 35.2888C47.1595 35.1181 46.7382 34.8301 46.4289 34.4248C46.1302 34.0088 45.9169 33.4434 45.7889 32.7288C45.6609 32.0034 45.5969 31.0968 45.5969 30.0088C45.5969 28.7288 45.6929 27.6994 45.8849 26.9208C46.0769 26.1421 46.3649 25.5501 46.7489 25.1448C47.1329 24.7394 47.6182 24.4674 48.2049 24.3288C48.7915 24.1901 49.4742 24.1208 50.2529 24.1208ZM61.3224 24.3128C61.589 24.3128 61.8077 24.3714 61.9784 24.4888C62.1597 24.6061 62.2824 24.7608 62.3464 24.9528C62.4104 25.1448 62.3997 25.3634 62.3144 25.6088L58.9384 35.3528H56.5384L59.3544 27.3368C59.4184 27.1554 59.4877 26.9794 59.5624 26.8088C59.637 26.6381 59.7277 26.4674 59.8344 26.2968H54.7624L54.6504 24.3128H61.3224ZM67.6795 24.1208C68.4795 24.1208 69.1302 24.1794 69.6315 24.2968C70.1328 24.4141 70.5222 24.5901 70.7995 24.8248C71.0875 25.0594 71.2848 25.3634 71.3915 25.7368C71.4982 26.1101 71.5515 26.5528 71.5515 27.0648C71.5515 27.4914 71.4928 27.8914 71.3755 28.2648C71.2688 28.6274 71.0928 28.9314 70.8475 29.1768C70.6128 29.4114 70.2982 29.5501 69.9035 29.5928V29.6568C70.4155 29.6994 70.8102 29.8594 71.0875 30.1368C71.3648 30.4034 71.5568 30.7501 71.6635 31.1768C71.7702 31.6034 71.8235 32.0781 71.8235 32.6008C71.8235 33.3048 71.7115 33.8754 71.4875 34.3128C71.2635 34.7501 70.8528 35.0648 70.2555 35.2568C69.6582 35.4488 68.7995 35.5448 67.6795 35.5448C66.5808 35.5448 65.7328 35.4488 65.1355 35.2568C64.5382 35.0648 64.1222 34.7501 63.8875 34.3128C63.6528 33.8754 63.5355 33.3048 63.5355 32.6008C63.5355 32.0781 63.5888 31.6034 63.6955 31.1768C63.8022 30.7501 63.9942 30.4034 64.2715 30.1368C64.5488 29.8594 64.9435 29.6994 65.4555 29.6568V29.5928C65.0608 29.5501 64.7408 29.4114 64.4955 29.1768C64.2502 28.9314 64.0688 28.6274 63.9515 28.2648C63.8448 27.8914 63.7915 27.4914 63.7915 27.0648C63.7915 26.5528 63.8448 26.1101 63.9515 25.7368C64.0688 25.3634 64.2662 25.0594 64.5435 24.8248C64.8315 24.5901 65.2262 24.4141 65.7275 24.2968C66.2395 24.1794 66.8902 24.1208 67.6795 24.1208ZM67.7115 30.4408C67.3275 30.4408 67.0128 30.4674 66.7675 30.5208C66.5222 30.5634 66.3302 30.6488 66.1915 30.7768C66.0528 30.8941 65.9568 31.0648 65.9035 31.2888C65.8502 31.5021 65.8235 31.7848 65.8235 32.1368C65.8235 32.5421 65.8715 32.8621 65.9675 33.0968C66.0742 33.3314 66.2608 33.4968 66.5275 33.5928C66.8048 33.6781 67.1942 33.7208 67.6955 33.7208C68.1862 33.7208 68.5595 33.6781 68.8155 33.5928C69.0822 33.4968 69.2635 33.3314 69.3595 33.0968C69.4555 32.8621 69.5035 32.5421 69.5035 32.1368C69.5035 31.7848 69.4768 31.5021 69.4235 31.2888C69.3702 31.0648 69.2795 30.8941 69.1515 30.7768C69.0235 30.6488 68.8422 30.5634 68.6075 30.5208C68.3728 30.4674 68.0742 30.4408 67.7115 30.4408ZM67.6955 25.8168C67.2368 25.8168 66.8848 25.8594 66.6395 25.9448C66.4048 26.0301 66.2395 26.1848 66.1435 26.4088C66.0475 26.6328 65.9995 26.9528 65.9995 27.3688C65.9995 27.7634 66.0475 28.0674 66.1435 28.2808C66.2395 28.4834 66.4102 28.6221 66.6555 28.6968C66.9115 28.7714 67.2688 28.8088 67.7275 28.8088C68.1862 28.8088 68.5328 28.7714 68.7675 28.6968C69.0022 28.6114 69.1568 28.4674 69.2315 28.2648C69.3168 28.0514 69.3595 27.7528 69.3595 27.3688C69.3595 26.9528 69.3168 26.6328 69.2315 26.4088C69.1462 26.1848 68.9808 26.0301 68.7355 25.9448C68.5008 25.8594 68.1542 25.8168 67.6955 25.8168ZM77.2323 24.1208C78.0856 24.1208 78.7736 24.2114 79.2963 24.3928C79.8296 24.5634 80.2349 24.8568 80.5123 25.2728C80.8003 25.6888 80.9976 26.2594 81.1042 26.9848C81.2109 27.6994 81.2643 28.6114 81.2643 29.7208C81.2643 30.9688 81.1789 31.9768 81.0083 32.7448C80.8376 33.5128 80.5709 34.0994 80.2083 34.5048C79.8456 34.9101 79.3656 35.1874 78.7683 35.3368C78.1816 35.4754 77.4669 35.5448 76.6243 35.5448C76.3363 35.5448 75.9363 35.5288 75.4243 35.4968C74.9229 35.4754 74.3789 35.3901 73.7923 35.2408L73.9203 33.6888C74.2296 33.6994 74.5016 33.7101 74.7363 33.7208C74.9816 33.7208 75.2483 33.7208 75.5363 33.7208C75.8243 33.7208 76.1869 33.7208 76.6243 33.7208C77.1043 33.7208 77.4936 33.6621 77.7923 33.5448C78.0909 33.4274 78.3203 33.2194 78.4803 32.9208C78.6509 32.6114 78.7629 32.1901 78.8163 31.6568C78.8803 31.1128 78.9123 30.4248 78.9123 29.5928C78.9123 28.8461 78.8963 28.2328 78.8643 27.7528C78.8429 27.2728 78.7789 26.8994 78.6723 26.6328C78.5656 26.3661 78.3949 26.1848 78.1603 26.0888C77.9363 25.9821 77.6216 25.9288 77.2163 25.9288C76.7469 25.9288 76.3949 26.0034 76.1603 26.1528C75.9363 26.3021 75.7869 26.5368 75.7123 26.8568C75.6483 27.1661 75.6163 27.5608 75.6163 28.0408C75.6163 28.4674 75.6589 28.8194 75.7443 29.0968C75.8296 29.3634 75.9843 29.5608 76.2083 29.6888C76.4323 29.8061 76.7469 29.8648 77.1523 29.8648C77.4509 29.8648 77.7176 29.8274 77.9523 29.7528C78.1976 29.6674 78.4589 29.5341 78.7363 29.3528C79.0243 29.1714 79.3763 28.9261 79.7923 28.6168L79.8563 29.5448C79.5043 30.0781 79.1629 30.4941 78.8323 30.7928C78.5123 31.0808 78.1656 31.2834 77.7923 31.4008C77.4189 31.5074 76.9656 31.5608 76.4323 31.5608C75.6323 31.5608 75.0029 31.4168 74.5443 31.1288C74.0963 30.8301 73.7763 30.4194 73.5843 29.8968C73.4029 29.3741 73.3123 28.7714 73.3123 28.0888C73.3123 27.1714 73.4243 26.4248 73.6483 25.8488C73.8829 25.2621 74.2829 24.8301 74.8483 24.5528C75.4243 24.2648 76.2189 24.1208 77.2323 24.1208ZM87.1338 24.0888C88.1898 24.0888 89.0271 24.2754 89.6458 24.6488C90.2751 25.0221 90.7231 25.6301 90.9898 26.4728C91.2671 27.3048 91.4058 28.4248 91.4058 29.8328C91.4058 31.2408 91.2671 32.3661 90.9898 33.2088C90.7231 34.0408 90.2751 34.6434 89.6458 35.0168C89.0271 35.3901 88.1898 35.5768 87.1338 35.5768C86.0778 35.5768 85.2351 35.3901 84.6058 35.0168C83.9871 34.6434 83.5444 34.0408 83.2778 33.2088C83.0111 32.3661 82.8778 31.2408 82.8778 29.8328C82.8778 28.4248 83.0111 27.3048 83.2778 26.4728C83.5444 25.6301 83.9871 25.0221 84.6058 24.6488C85.2351 24.2754 86.0778 24.0888 87.1338 24.0888ZM87.1178 26.0088C86.7658 26.0088 86.4724 26.0674 86.2378 26.1848C86.0031 26.3021 85.8164 26.4994 85.6778 26.7768C85.5391 27.0541 85.4378 27.4434 85.3738 27.9448C85.3204 28.4354 85.2938 29.0648 85.2938 29.8328C85.2938 30.5901 85.3204 31.2194 85.3738 31.7208C85.4378 32.2221 85.5391 32.6114 85.6778 32.8888C85.8164 33.1661 86.0031 33.3634 86.2378 33.4808C86.4724 33.5981 86.7658 33.6568 87.1178 33.6568C87.4804 33.6568 87.7791 33.5981 88.0138 33.4808C88.2591 33.3634 88.4511 33.1661 88.5898 32.8888C88.7391 32.6114 88.8404 32.2221 88.8938 31.7208C88.9578 31.2194 88.9898 30.5901 88.9898 29.8328C88.9898 29.0648 88.9578 28.4354 88.8938 27.9448C88.8404 27.4434 88.7391 27.0541 88.5898 26.7768C88.4511 26.4994 88.2591 26.3021 88.0138 26.1848C87.7791 26.0674 87.4804 26.0088 87.1178 26.0088Z" fill="black"/>
</svg>
