<svg width="175" height="42" viewBox="0 0 175 42" fill="none" xmlns="http://www.w3.org/2000/svg">
<path d="M1.91895 15.3528V4.68872H4.2627V13.3528H6.21582V4.68872H8.55957V13.3528H10.5127V4.68872H12.8486V15.3528H1.91895ZM14.7549 7.46216H16.7861V8.64185C17.2184 7.78768 17.8174 7.3606 18.583 7.3606C19.307 7.3606 19.9085 7.68351 20.3877 8.32935C20.8669 8.96997 21.1064 9.95174 21.1064 11.2747C21.1064 12.6601 20.8721 13.7043 20.4033 14.4075C19.9346 15.1106 19.2757 15.4622 18.4268 15.4622C17.8174 15.4622 17.3148 15.2304 16.9189 14.7668V18.0247H14.7549V7.46216ZM16.9189 12.1262C16.9189 12.8814 16.9788 13.3736 17.0986 13.6028C17.2236 13.8267 17.4736 13.9387 17.8486 13.9387C18.182 13.9387 18.4294 13.7877 18.5908 13.4856C18.7523 13.1835 18.833 12.4517 18.833 11.2903C18.833 10.3215 18.7627 9.66528 18.6221 9.32153C18.4814 8.97778 18.2445 8.80591 17.9111 8.80591C17.6351 8.80591 17.4007 8.91528 17.208 9.13403C17.0153 9.34757 16.9189 9.84757 16.9189 10.634V12.1262ZM24.5986 14.4075V15.3528H22.3955V7.46216H24.5986L24.5908 11.2512L26.3721 8.47778V7.46216H28.5752V15.3528H26.3721V11.6731L26.0127 12.2668L24.5986 14.4075ZM33.1064 17.9934V15.3137C32.07 15.1627 31.2679 14.733 30.7002 14.0247C30.1325 13.3163 29.8486 12.4465 29.8486 11.4153C29.8486 9.18612 30.9346 7.83716 33.1064 7.36841V4.82153H34.9189V7.36841C37.0908 7.83716 38.1768 9.1757 38.1768 11.384C38.1768 12.4413 37.8903 13.3241 37.3174 14.0325C36.7497 14.7356 35.9502 15.1627 34.9189 15.3137V17.9934H33.1064ZM33.1064 13.72V8.9856C32.3564 9.35018 31.9814 10.1392 31.9814 11.3528C31.9814 12.5663 32.3564 13.3554 33.1064 13.72ZM34.9189 13.72C35.6689 13.3502 36.0439 12.5611 36.0439 11.3528C36.0439 10.1392 35.6689 9.35018 34.9189 8.9856V13.72ZM38.6846 7.46216H44.6377V9.21216H42.7314V15.3528H40.5361V9.21216H38.6846V7.46216ZM48.5752 4.68872H54.9033V6.51685H50.9189V9.30591H53.9893V11.134H50.9189V15.3528H48.5752V4.68872ZM55.3174 7.46216H57.2549V9.36841C57.6038 8.02987 58.2262 7.3606 59.1221 7.3606C59.2314 7.3606 59.3564 7.37362 59.4971 7.39966V9.5481C59.3356 9.52726 59.2132 9.51685 59.1299 9.51685C58.057 9.51685 57.5205 10.3293 57.5205 11.9543V15.3528H55.3174V7.46216ZM62.4111 9.96997L60.3252 9.76685C60.4242 8.97518 60.7601 8.3658 61.333 7.93872C61.9111 7.51164 62.6377 7.2981 63.5127 7.2981C64.2523 7.2981 64.846 7.44132 65.2939 7.72778C65.7419 8.00903 66.0231 8.33716 66.1377 8.71216C66.2575 9.08716 66.3174 9.66789 66.3174 10.4543V13.6028C66.3174 14.5819 66.3617 15.1653 66.4502 15.3528H64.4111C64.3382 15.1392 64.3018 14.7356 64.3018 14.1418C63.8174 15.0585 63.096 15.5168 62.1377 15.5168C61.5231 15.5168 61.0231 15.3346 60.6377 14.97C60.2523 14.6002 60.0596 14.0637 60.0596 13.3606C60.0596 12.4804 60.3512 11.8007 60.9346 11.3215C61.5179 10.8372 62.5804 10.5481 64.1221 10.4543V10.1575C64.1221 9.63143 64.0674 9.26685 63.958 9.06372C63.8538 8.8606 63.6481 8.75903 63.3408 8.75903C62.7783 8.75903 62.4684 9.16268 62.4111 9.96997ZM64.1221 11.5793C63.4814 11.6523 63.0231 11.7955 62.7471 12.009C62.4762 12.2174 62.3408 12.5715 62.3408 13.0715C62.3408 13.7382 62.5856 14.0715 63.0752 14.0715C63.3408 14.0715 63.5804 13.9231 63.7939 13.6262C64.0127 13.3241 64.1221 12.7721 64.1221 11.97V11.5793ZM67.9424 7.46216H70.0283V8.54028C70.3929 7.71737 71.0518 7.30591 72.0049 7.30591C72.5205 7.30591 72.945 7.4231 73.2783 7.65747C73.6169 7.88664 73.833 8.18091 73.9268 8.54028C74.0205 8.89966 74.0674 9.44653 74.0674 10.1809V15.3528H71.8643V10.1809C71.8643 9.64966 71.7965 9.32153 71.6611 9.19653C71.5257 9.07153 71.3434 9.00903 71.1143 9.00903C70.7184 9.00903 70.458 9.13143 70.333 9.37622C70.208 9.6158 70.1455 10.0663 70.1455 10.7278V15.3528H67.9424V7.46216ZM75.583 4.68872H77.7861V10.509L80.0049 7.46216H82.0049L80.0127 10.1106L82.2002 15.3528H79.8252L78.5908 11.6887L77.7861 12.7981V15.3528H75.583V4.68872ZM82.9346 4.68872H85.1377V15.3528H82.9346V4.68872ZM88.9658 6.81372H86.7314V4.63403H88.9658V6.81372ZM86.7471 7.46216H88.9502V15.3528H86.7471V7.46216ZM90.5674 7.46216H92.6533V8.54028C93.0179 7.71737 93.6768 7.30591 94.6299 7.30591C95.1455 7.30591 95.57 7.4231 95.9033 7.65747C96.2419 7.88664 96.458 8.18091 96.5518 8.54028C96.6455 8.89966 96.6924 9.44653 96.6924 10.1809V15.3528H94.4893V10.1809C94.4893 9.64966 94.4215 9.32153 94.2861 9.19653C94.1507 9.07153 93.9684 9.00903 93.7393 9.00903C93.3434 9.00903 93.083 9.13143 92.958 9.37622C92.833 9.6158 92.7705 10.0663 92.7705 10.7278V15.3528H90.5674V7.46216ZM105.13 9.66528H108.833V15.3528H107.841L107.536 14.134C106.963 15.0559 106.104 15.5168 104.958 15.5168C103.744 15.5168 102.781 15.0403 102.067 14.0872C101.359 13.1288 101.005 11.8424 101.005 10.2278C101.005 8.47257 101.354 7.08455 102.052 6.06372C102.755 5.03768 103.791 4.52466 105.161 4.52466C107.343 4.52466 108.567 5.74341 108.833 8.18091L106.724 8.52466C106.578 7.12882 106.073 6.43091 105.208 6.43091C104.682 6.43091 104.26 6.68872 103.942 7.20435C103.63 7.71997 103.474 8.69653 103.474 10.134C103.474 11.4101 103.627 12.3085 103.935 12.8293C104.242 13.3502 104.692 13.6106 105.286 13.6106C106.239 13.6106 106.718 12.9075 106.724 11.5012H105.13V9.66528ZM116.552 11.4075C116.552 14.1471 115.484 15.5168 113.349 15.5168C111.208 15.5168 110.138 14.1471 110.138 11.4075C110.138 8.6731 111.208 7.30591 113.349 7.30591C115.484 7.30591 116.552 8.6731 116.552 11.4075ZM114.278 11.4075C114.278 10.4023 114.208 9.72257 114.067 9.36841C113.932 9.01424 113.692 8.83716 113.349 8.83716C113.015 8.83716 112.776 9.00643 112.63 9.34497C112.484 9.6783 112.411 10.3658 112.411 11.4075C112.411 12.371 112.474 13.0403 112.599 13.4153C112.724 13.7903 112.974 13.9778 113.349 13.9778C113.708 13.9778 113.953 13.7929 114.083 13.4231C114.213 13.0481 114.278 12.3762 114.278 11.4075ZM118.161 5.04028L120.302 4.96997V7.46216H121.755V9.19653H120.302V12.095C120.302 12.6314 120.312 12.9804 120.333 13.1418C120.359 13.2981 120.437 13.4309 120.567 13.5403C120.703 13.6444 120.927 13.6965 121.239 13.6965C121.406 13.6965 121.614 13.6913 121.864 13.6809V15.3528C121.375 15.4622 120.927 15.5168 120.521 15.5168C119.854 15.5168 119.343 15.3892 118.989 15.134C118.635 14.8788 118.409 14.5585 118.31 14.1731C118.211 13.7877 118.161 13.1757 118.161 12.3372V9.19653H117.286V7.46216H118.161V5.04028ZM122.739 4.68872H124.942V8.2981C125.338 7.63143 125.984 7.2981 126.88 7.2981C127.416 7.2981 127.838 7.4231 128.146 7.6731C128.458 7.9231 128.656 8.2408 128.739 8.62622C128.823 9.00643 128.864 9.56112 128.864 10.2903V15.3528H126.661V10.2903C126.661 9.77466 126.612 9.43351 126.513 9.26685C126.419 9.09497 126.221 9.00903 125.919 9.00903C125.622 9.00903 125.385 9.08976 125.208 9.25122C125.031 9.41268 124.942 9.77987 124.942 10.3528V15.3528H122.739V4.68872ZM132.591 6.81372H130.356V4.63403H132.591V6.81372ZM130.372 7.46216H132.575V15.3528H130.372V7.46216ZM140.083 10.3684L138.036 10.4465C138.005 9.96216 137.927 9.59757 137.802 9.35278C137.677 9.10278 137.466 8.97778 137.169 8.97778C136.429 8.97778 136.06 9.75382 136.06 11.3059C136.06 12.2069 136.148 12.8372 136.325 13.1965C136.507 13.5559 136.776 13.7356 137.13 13.7356C137.682 13.7356 137.984 13.2486 138.036 12.2747L140.083 12.4075C139.901 14.4804 138.869 15.5168 136.989 15.5168C135.974 15.5168 135.195 15.1757 134.653 14.4934C134.117 13.8059 133.849 12.7851 133.849 11.4309C133.849 10.0872 134.13 9.06372 134.692 8.3606C135.26 7.65747 136.054 7.30591 137.075 7.30591C138.919 7.30591 139.922 8.32674 140.083 10.3684ZM144.466 4.68872H146.989C148.083 4.68872 148.971 4.83716 149.653 5.13403C150.341 5.4257 150.89 5.96737 151.302 6.75903C151.713 7.5507 151.919 8.62101 151.919 9.96997C151.919 10.9283 151.794 11.7799 151.544 12.5247C151.294 13.2642 150.966 13.8476 150.56 14.2747C150.153 14.7017 149.695 14.9882 149.185 15.134C148.674 15.2799 148.036 15.3528 147.271 15.3528H144.466V4.68872ZM146.81 6.51685V13.5168H147.208C147.75 13.5168 148.169 13.4127 148.466 13.2043C148.763 12.996 149 12.634 149.177 12.1184C149.354 11.5976 149.442 10.8476 149.442 9.86841C149.442 8.96216 149.343 8.26424 149.146 7.77466C148.953 7.28507 148.708 6.95435 148.411 6.78247C148.119 6.60539 147.718 6.51685 147.208 6.51685H146.81ZM159.341 11.7747H155.2V12.2122C155.2 12.9205 155.297 13.3944 155.489 13.634C155.682 13.8736 155.935 13.9934 156.247 13.9934C156.919 13.9934 157.297 13.5429 157.38 12.6418L159.341 12.7668C158.992 14.6002 157.948 15.5168 156.208 15.5168C155.135 15.5168 154.32 15.1549 153.763 14.4309C153.205 13.7069 152.927 12.7382 152.927 11.5247C152.927 10.1549 153.221 9.1106 153.81 8.39185C154.403 7.66789 155.198 7.30591 156.192 7.30591C157.088 7.30591 157.836 7.62622 158.435 8.26685C159.039 8.90226 159.341 10.0715 159.341 11.7747ZM157.263 10.5012C157.268 10.4075 157.271 10.3346 157.271 10.2825C157.271 9.26685 156.927 8.75903 156.239 8.75903C155.562 8.75903 155.221 9.33976 155.216 10.5012H157.263ZM160.63 7.46216H162.716V8.54028C163.091 7.71737 163.729 7.30591 164.63 7.30591C165.567 7.30591 166.135 7.71737 166.333 8.54028C166.687 7.71737 167.325 7.30591 168.247 7.30591C168.763 7.30591 169.172 7.39966 169.474 7.58716C169.781 7.77466 169.994 8.03247 170.114 8.3606C170.234 8.68351 170.294 9.29549 170.294 10.1965V15.3528H168.099V10.4231C168.099 9.83455 168.057 9.45174 167.974 9.27466C167.89 9.09757 167.705 9.00903 167.419 9.00903C167.075 9.00903 166.851 9.12622 166.747 9.3606C166.643 9.58976 166.591 10.0559 166.591 10.759V15.3528H164.388V10.3528C164.388 9.79028 164.346 9.4257 164.263 9.25903C164.185 9.09237 164.002 9.00903 163.716 9.00903C163.362 9.00903 163.125 9.13143 163.005 9.37622C162.89 9.6158 162.833 10.0767 162.833 10.759V15.3528H160.63V7.46216ZM174.013 6.81372H171.778V4.63403H174.013V6.81372ZM171.794 7.46216H173.997V15.3528H171.794V7.46216Z" fill="black"/>
<path d="M4.77832 27.595H6.56738V36.6106H8.33301V38.3528H2.42676V36.6106H4.22363V30.3137C3.69238 30.8658 3.09342 31.3111 2.42676 31.6497V29.5637C3.37988 29.0637 4.16374 28.4075 4.77832 27.595ZM11.6455 31.4465L9.5127 31.0168C9.86165 28.6887 11.0387 27.5247 13.0439 27.5247C14.1273 27.5247 14.9502 27.8267 15.5127 28.4309C16.0804 29.0299 16.3643 29.7642 16.3643 30.634C16.3643 31.5299 16.0518 32.4075 15.4268 33.2668C14.8018 34.121 13.6273 35.121 11.9033 36.2668H16.5127L16.3408 38.3528H9.5127V36.2668C11.4658 34.595 12.6846 33.4153 13.1689 32.7278C13.6533 32.0351 13.8955 31.3788 13.8955 30.759C13.8955 29.8736 13.5622 29.4309 12.8955 29.4309C12.4945 29.4309 12.2002 29.6054 12.0127 29.9543C11.8304 30.3033 11.708 30.8007 11.6455 31.4465ZM19.7939 30.6497L17.7549 30.2668C18.2913 28.4387 19.4632 27.5247 21.2705 27.5247C22.2601 27.5247 23.0309 27.7825 23.583 28.2981C24.1403 28.8085 24.4189 29.5038 24.4189 30.384C24.4189 31.509 23.8903 32.3007 22.833 32.759C24.0309 33.1392 24.6299 33.9856 24.6299 35.2981C24.6299 36.3502 24.3018 37.1497 23.6455 37.6965C22.9893 38.2434 22.1533 38.5168 21.1377 38.5168C20.2262 38.5168 19.4346 38.2773 18.7627 37.7981C18.0908 37.3189 17.6742 36.5064 17.5127 35.3606L19.583 35.0168C19.6872 36.0793 20.1507 36.6106 20.9736 36.6106C21.3538 36.6106 21.6559 36.483 21.8799 36.2278C22.1038 35.9726 22.2158 35.608 22.2158 35.134C22.2158 34.1653 21.6689 33.6809 20.5752 33.6809L19.9268 33.6887V31.9622H20.5752C20.9242 31.9622 21.1976 31.9309 21.3955 31.8684C21.5934 31.8007 21.7575 31.6627 21.8877 31.4543C22.0231 31.246 22.0908 30.9726 22.0908 30.634C22.0908 29.7694 21.734 29.3372 21.0205 29.3372C20.3955 29.3372 19.9867 29.7747 19.7939 30.6497ZM29.4736 27.5247H32.0205V34.0247H33.2158V35.845H32.0205V38.3528H29.6768V35.845H25.8408V34.0247L29.4736 27.5247ZM29.8643 34.1497V29.759L27.4971 34.1497H29.8643ZM35.0127 27.6887H40.7158L40.4893 29.7747H36.7236L36.5908 32.1809C37.0335 31.5715 37.6403 31.2668 38.4111 31.2668C39.1715 31.2668 39.8382 31.5455 40.4111 32.1028C40.9893 32.6601 41.2783 33.5455 41.2783 34.759C41.2783 35.9986 40.9476 36.9361 40.2861 37.5715C39.6247 38.2017 38.7627 38.5168 37.7002 38.5168C36.7106 38.5168 35.8981 38.2434 35.2627 37.6965C34.6273 37.1497 34.2627 36.4179 34.1689 35.5012L36.3018 35.1497C36.4215 36.1236 36.8825 36.6106 37.6846 36.6106C38.5648 36.6106 39.0049 36.0351 39.0049 34.884C39.0049 34.3736 38.8877 33.9622 38.6533 33.6497C38.4189 33.3319 38.083 33.1731 37.6455 33.1731C37.0726 33.1731 36.682 33.4491 36.4736 34.0012L34.6377 33.6497L35.0127 27.6887ZM49.4814 30.3606L47.583 30.9309C47.4111 29.7955 46.9658 29.2278 46.2471 29.2278C45.7992 29.2278 45.4502 29.4596 45.2002 29.9231C44.9502 30.3814 44.8174 31.3528 44.8018 32.8372C45.2393 32.0299 45.8903 31.6262 46.7549 31.6262C47.5413 31.6262 48.2028 31.9257 48.7393 32.5247C49.2757 33.1184 49.5439 33.9335 49.5439 34.97C49.5439 36.1314 49.2288 37.0142 48.5986 37.6184C47.9684 38.2174 47.1611 38.5168 46.1768 38.5168C43.8174 38.5168 42.6377 36.7304 42.6377 33.1575C42.6377 31.2252 42.9632 29.8033 43.6143 28.8918C44.2653 27.9804 45.1663 27.5247 46.3174 27.5247C47.1559 27.5247 47.8486 27.7642 48.3955 28.2434C48.9424 28.7174 49.3044 29.4231 49.4814 30.3606ZM47.2705 34.97C47.2705 33.8814 46.8851 33.3372 46.1143 33.3372C45.307 33.3372 44.9033 33.9335 44.9033 35.1262C44.9033 35.6939 45.0101 36.1184 45.2236 36.3997C45.4424 36.6757 45.7288 36.8137 46.083 36.8137C46.8747 36.8137 47.2705 36.1991 47.2705 34.97ZM51.1064 27.6887H57.4424V29.4856C55.7445 31.6783 54.8825 34.634 54.8564 38.3528H52.3096C52.3512 35.0976 53.3929 32.2382 55.4346 29.7747H50.9268L51.1064 27.6887ZM64.2471 32.5325C65.346 33.1783 65.8955 34.1002 65.8955 35.2981C65.8955 36.1939 65.5804 36.9543 64.9502 37.5793C64.32 38.2043 63.3929 38.5168 62.1689 38.5168C60.9919 38.5168 60.1117 38.2434 59.5283 37.6965C58.9502 37.1497 58.6611 36.4439 58.6611 35.5793C58.6611 35.0637 58.7809 34.6106 59.0205 34.22C59.2653 33.8241 59.7262 33.4491 60.4033 33.095C59.445 32.4908 58.9658 31.6549 58.9658 30.5872C58.9658 29.7538 59.2471 29.0351 59.8096 28.4309C60.3721 27.8267 61.2236 27.5247 62.3643 27.5247C63.4476 27.5247 64.2575 27.7773 64.7939 28.2825C65.3356 28.7825 65.6064 29.4387 65.6064 30.2512C65.6064 31.246 65.1533 32.0064 64.2471 32.5325ZM62.833 31.8293C63.3382 31.3502 63.5908 30.8606 63.5908 30.3606C63.5908 29.97 63.4867 29.6549 63.2783 29.4153C63.0752 29.1705 62.7835 29.0481 62.4033 29.0481C62.0387 29.0481 61.7419 29.1575 61.5127 29.3762C61.2835 29.595 61.1689 29.8736 61.1689 30.2122C61.1689 30.6184 61.3486 30.9491 61.708 31.2043C62.0726 31.4596 62.4476 31.6679 62.833 31.8293ZM61.7549 33.8606C61.0726 34.2773 60.7314 34.7981 60.7314 35.4231C60.7314 35.871 60.8669 36.2304 61.1377 36.5012C61.4085 36.7668 61.7809 36.8997 62.2549 36.8997C62.6976 36.8997 63.0492 36.7773 63.3096 36.5325C63.57 36.2877 63.7002 35.996 63.7002 35.6575C63.7002 35.3814 63.5908 35.108 63.3721 34.8372C63.1585 34.5663 62.6195 34.2408 61.7549 33.8606ZM67.0752 35.9153L69.1143 35.5168C69.2497 36.3814 69.6299 36.8137 70.2549 36.8137C71.1299 36.8137 71.5674 35.8007 71.5674 33.7747L71.5596 33.4465C71.1429 34.0872 70.5231 34.4075 69.7002 34.4075C68.7731 34.4075 68.0622 34.0559 67.5674 33.3528C67.0778 32.6444 66.833 31.8606 66.833 31.0012C66.833 30.0533 67.1143 29.2382 67.6768 28.5559C68.2393 27.8684 69.083 27.5247 70.208 27.5247C71.1976 27.5247 71.9476 27.7903 72.458 28.3215C72.9684 28.8476 73.3096 29.5194 73.4814 30.3372C73.6585 31.1497 73.7471 31.983 73.7471 32.8372C73.7471 36.6236 72.5518 38.5168 70.1611 38.5168C68.4997 38.5168 67.471 37.6497 67.0752 35.9153ZM71.4736 30.8684C71.4736 30.3476 71.3643 29.9439 71.1455 29.6575C70.9268 29.371 70.6299 29.2278 70.2549 29.2278C69.9372 29.2278 69.6637 29.3632 69.4346 29.634C69.2106 29.9049 69.0986 30.3137 69.0986 30.8606C69.0986 31.9543 69.4945 32.5012 70.2861 32.5012C71.0778 32.5012 71.4736 31.9569 71.4736 30.8684ZM82.2158 32.8918C82.2158 34.8189 81.9372 36.2382 81.3799 37.1497C80.8278 38.0611 79.9189 38.5168 78.6533 38.5168C77.346 38.5168 76.4242 38.0455 75.8877 37.1028C75.3564 36.1549 75.0908 34.8398 75.0908 33.1575C75.0908 31.22 75.3669 29.7981 75.9189 28.8918C76.4762 27.9804 77.3877 27.5247 78.6533 27.5247C79.9606 27.5247 80.8799 27.9986 81.4111 28.9465C81.9476 29.8892 82.2158 31.2043 82.2158 32.8918ZM79.7393 33.0168C79.7393 31.4023 79.6663 30.3684 79.5205 29.9153C79.3747 29.4569 79.0856 29.2278 78.6533 29.2278C78.2627 29.2278 77.9814 29.4205 77.8096 29.8059C77.6429 30.1913 77.5596 31.2616 77.5596 33.0168C77.5596 34.7512 77.6403 35.8163 77.8018 36.2122C77.9684 36.608 78.2523 36.8059 78.6533 36.8059C79.0387 36.8059 79.3148 36.621 79.4814 36.2512C79.6533 35.8762 79.7393 34.7981 79.7393 33.0168Z" fill="black"/>
</svg>
