<svg width="173" height="46" viewBox="0 0 173 46" fill="none" xmlns="http://www.w3.org/2000/svg">
<path d="M14.967 1.35278H17.727V15.3528H1.46699V1.35278H4.22699V12.7128H8.22699V1.35278H10.967V12.7128H14.967V1.35278ZM26.0342 5.07278C27.3808 5.07278 28.5275 5.58612 29.4742 6.61278C30.4342 7.62612 30.9142 8.87278 30.9142 10.3528C30.9142 11.8328 30.4342 13.0861 29.4742 14.1128C28.5275 15.1261 27.3808 15.6328 26.0342 15.6328C24.6342 15.6328 23.5542 15.1461 22.7942 14.1728V19.3528H20.2142V5.35278H22.7942V6.53278C23.5542 5.55945 24.6342 5.07278 26.0342 5.07278ZM23.5742 12.3928C24.0942 12.9128 24.7542 13.1728 25.5542 13.1728C26.3542 13.1728 27.0142 12.9128 27.5342 12.3928C28.0675 11.8594 28.3342 11.1794 28.3342 10.3528C28.3342 9.52612 28.0675 8.85278 27.5342 8.33278C27.0142 7.79945 26.3542 7.53278 25.5542 7.53278C24.7542 7.53278 24.0942 7.79945 23.5742 8.33278C23.0542 8.85278 22.7942 9.52612 22.7942 10.3528C22.7942 11.1794 23.0542 11.8594 23.5742 12.3928ZM39.9537 5.35278H41.8737V15.3528H39.3537V9.67278L34.6537 15.3528H32.7337V5.35278H35.2537V11.0328L39.9537 5.35278ZM54.7976 6.93278C55.6776 7.87945 56.1176 9.01945 56.1176 10.3528C56.1176 11.6861 55.6776 12.8261 54.7976 13.7728C53.9176 14.7194 52.711 15.2994 51.1776 15.5128V19.3528H48.6576V15.5128C47.1243 15.2994 45.9176 14.7194 45.0376 13.7728C44.1576 12.8261 43.7176 11.6861 43.7176 10.3528C43.7176 9.01945 44.1576 7.87945 45.0376 6.93278C45.9176 5.98612 47.1243 5.40612 48.6576 5.19278V1.35278H51.1776V5.19278C52.711 5.40612 53.9176 5.98612 54.7976 6.93278ZM46.2576 10.3528C46.2576 11.0194 46.4643 11.5928 46.8776 12.0728C47.291 12.5528 47.8843 12.8794 48.6576 13.0528V7.65278C47.8843 7.82612 47.291 8.15278 46.8776 8.63278C46.4643 9.09945 46.2576 9.67278 46.2576 10.3528ZM51.1776 13.0328C51.951 12.8594 52.5376 12.5394 52.9376 12.0728C53.351 11.5928 53.5576 11.0194 53.5576 10.3528C53.5576 9.67278 53.351 9.09945 52.9376 8.63278C52.5376 8.15278 51.951 7.82612 51.1776 7.65278V13.0328ZM65.4184 5.35278V7.83278H62.2984V15.3528H59.7184V7.83278H56.5584V5.35278H65.4184ZM85.6562 7.83278V8.91278C85.6562 10.9128 85.0162 12.5328 83.7362 13.7728C82.4562 15.0128 80.8029 15.6328 78.7762 15.6328C76.6162 15.6328 74.8229 14.9328 73.3962 13.5328C71.9829 12.1194 71.2762 10.3994 71.2762 8.37278C71.2762 6.33278 71.9762 4.60612 73.3762 3.19278C74.7895 1.77945 76.5362 1.07278 78.6162 1.07278C79.9229 1.07278 81.1162 1.37278 82.1962 1.97278C83.2762 2.55945 84.1162 3.34612 84.7162 4.33278L82.3562 5.69278C82.0229 5.11945 81.5162 4.65278 80.8362 4.29278C80.1695 3.93278 79.4229 3.75278 78.5962 3.75278C77.2629 3.75278 76.1629 4.19278 75.2962 5.07278C74.4429 5.93945 74.0162 7.03945 74.0162 8.37278C74.0162 9.69278 74.4495 10.7861 75.3162 11.6528C76.1962 12.5061 77.3562 12.9328 78.7962 12.9328C79.8629 12.9328 80.7429 12.6994 81.4362 12.2328C82.1429 11.7528 82.6229 11.0994 82.8762 10.2728H78.6362V7.83278H85.6562ZM88.7793 4.15278C88.3527 4.15278 87.9793 3.99945 87.6593 3.69278C87.3527 3.37278 87.1993 2.99945 87.1993 2.57278C87.1993 2.14612 87.3527 1.77278 87.6593 1.45278C87.9793 1.13278 88.3527 0.972782 88.7793 0.972782C89.2193 0.972782 89.5927 1.13278 89.8993 1.45278C90.2193 1.77278 90.3793 2.14612 90.3793 2.57278C90.3793 2.99945 90.2193 3.37278 89.8993 3.69278C89.5927 3.99945 89.2193 4.15278 88.7793 4.15278ZM87.4993 15.3528V5.35278H90.0793V15.3528H87.4993ZM92.4407 15.3528V0.752783H95.0207V15.3528H92.4407ZM99.9621 7.07278C100.202 6.43278 100.595 5.95278 101.142 5.63278C101.702 5.31278 102.322 5.15278 103.002 5.15278V8.03278C102.215 7.93945 101.509 8.09945 100.882 8.51278C100.269 8.92612 99.9621 9.61278 99.9621 10.5728V15.3528H97.3821V5.35278H99.9621V7.07278ZM112.66 14.1128C111.633 15.1261 110.38 15.6328 108.9 15.6328C107.42 15.6328 106.167 15.1261 105.14 14.1128C104.127 13.0861 103.62 11.8328 103.62 10.3528C103.62 8.87278 104.127 7.62612 105.14 6.61278C106.167 5.58612 107.42 5.07278 108.9 5.07278C110.38 5.07278 111.633 5.58612 112.66 6.61278C113.687 7.62612 114.2 8.87278 114.2 10.3528C114.2 11.8328 113.687 13.0861 112.66 14.1128ZM106.96 12.3328C107.48 12.8528 108.127 13.1128 108.9 13.1128C109.673 13.1128 110.32 12.8528 110.84 12.3328C111.36 11.8128 111.62 11.1528 111.62 10.3528C111.62 9.55278 111.36 8.89278 110.84 8.37278C110.32 7.85278 109.673 7.59278 108.9 7.59278C108.127 7.59278 107.48 7.85278 106.96 8.37278C106.453 8.89278 106.2 9.55278 106.2 10.3528C106.2 11.1528 106.453 11.8128 106.96 12.3328ZM122.144 5.35278H124.904L121.264 15.3528C120.744 16.7928 120.051 17.8328 119.184 18.4728C118.331 19.1261 117.264 19.4195 115.984 19.3528V16.9528C116.678 16.9661 117.224 16.8194 117.624 16.5128C118.038 16.2061 118.364 15.7128 118.604 15.0328L114.504 5.35278H117.324L119.924 12.0728L122.144 5.35278ZM139.712 8.09278C140.939 8.79945 141.552 9.86612 141.552 11.2928C141.552 12.4794 141.132 13.4528 140.292 14.2128C139.452 14.9728 138.419 15.3528 137.192 15.3528H131.252V1.35278H136.772C137.972 1.35278 138.979 1.72612 139.792 2.47278C140.619 3.20612 141.032 4.14612 141.032 5.29278C141.032 6.45278 140.592 7.38612 139.712 8.09278ZM136.772 3.93278H134.012V7.01278H136.772C137.199 7.01278 137.552 6.86612 137.832 6.57278C138.125 6.27945 138.272 5.91278 138.272 5.47278C138.272 5.03278 138.132 4.66612 137.852 4.37278C137.572 4.07945 137.212 3.93278 136.772 3.93278ZM137.192 12.7728C137.659 12.7728 138.045 12.6194 138.352 12.3128C138.659 11.9928 138.812 11.5928 138.812 11.1128C138.812 10.6461 138.659 10.2594 138.352 9.95278C138.045 9.63278 137.659 9.47278 137.192 9.47278H134.012V12.7728H137.192ZM151.918 14.1128C150.891 15.1261 149.638 15.6328 148.158 15.6328C146.678 15.6328 145.424 15.1261 144.398 14.1128C143.384 13.0861 142.878 11.8328 142.878 10.3528C142.878 8.87278 143.384 7.62612 144.398 6.61278C145.424 5.58612 146.678 5.07278 148.158 5.07278C149.638 5.07278 150.891 5.58612 151.918 6.61278C152.944 7.62612 153.458 8.87278 153.458 10.3528C153.458 11.8328 152.944 13.0861 151.918 14.1128ZM146.218 12.3328C146.738 12.8528 147.384 13.1128 148.158 13.1128C148.931 13.1128 149.578 12.8528 150.098 12.3328C150.618 11.8128 150.878 11.1528 150.878 10.3528C150.878 9.55278 150.618 8.89278 150.098 8.37278C149.578 7.85278 148.931 7.59278 148.158 7.59278C147.384 7.59278 146.738 7.85278 146.218 8.37278C145.711 8.89278 145.458 9.55278 145.458 10.3528C145.458 11.1528 145.711 11.8128 146.218 12.3328ZM155.273 15.3528V0.752783H157.853V15.3528H155.273ZM167.794 1.35278H170.374V15.3528H167.794V14.1728C167.034 15.1461 165.954 15.6328 164.554 15.6328C163.208 15.6328 162.054 15.1261 161.094 14.1128C160.148 13.0861 159.674 11.8328 159.674 10.3528C159.674 8.87278 160.148 7.62612 161.094 6.61278C162.054 5.58612 163.208 5.07278 164.554 5.07278C165.954 5.07278 167.034 5.55945 167.794 6.53278V1.35278ZM163.034 12.3928C163.568 12.9128 164.234 13.1728 165.034 13.1728C165.834 13.1728 166.494 12.9128 167.014 12.3928C167.534 11.8594 167.794 11.1794 167.794 10.3528C167.794 9.52612 167.534 8.85278 167.014 8.33278C166.494 7.79945 165.834 7.53278 165.034 7.53278C164.234 7.53278 163.568 7.79945 163.034 8.33278C162.514 8.85278 162.254 9.52612 162.254 10.3528C162.254 11.1794 162.514 11.8594 163.034 12.3928Z" fill="black"/>
<path d="M4.06699 26.3528H6.46699V40.3528H3.70699V29.2728L1.06699 30.0128L0.386992 27.6528L4.06699 26.3528ZM8.44137 40.3528V38.2928L13.2214 33.3728C14.288 32.2528 14.8214 31.3194 14.8214 30.5728C14.8214 30.0261 14.648 29.5861 14.3014 29.2528C13.968 28.9194 13.5347 28.7528 13.0014 28.7528C11.948 28.7528 11.168 29.2994 10.6614 30.3928L8.34137 29.0328C8.78137 28.0728 9.4147 27.3394 10.2414 26.8328C11.068 26.3261 11.9747 26.0728 12.9614 26.0728C14.228 26.0728 15.3147 26.4728 16.2214 27.2728C17.128 28.0594 17.5814 29.1261 17.5814 30.4728C17.5814 31.9261 16.8147 33.4194 15.2814 34.9528L12.5414 37.6928H17.8014V40.3528H8.44137ZM25.3911 32.0328C26.3377 32.3128 27.1044 32.8061 27.6911 33.5128C28.2911 34.2061 28.5911 35.0461 28.5911 36.0328C28.5911 37.4728 28.1044 38.5994 27.1311 39.4128C26.1711 40.2261 24.9911 40.6328 23.5911 40.6328C22.4977 40.6328 21.5177 40.3861 20.6511 39.8928C19.7977 39.3861 19.1777 38.6461 18.7911 37.6728L21.1511 36.3128C21.4977 37.3928 22.3111 37.9328 23.5911 37.9328C24.2977 37.9328 24.8444 37.7661 25.2311 37.4328C25.6311 37.0861 25.8311 36.6194 25.8311 36.0328C25.8311 35.4594 25.6311 34.9994 25.2311 34.6528C24.8444 34.3061 24.2977 34.1328 23.5911 34.1328H22.9911L21.9311 32.5328L24.6911 28.9328H19.2111V26.3528H28.0111V28.6328L25.3911 32.0328ZM40.9401 35.4128V37.9728H39.4401V40.3528H36.6601V37.9728H30.0401V35.4128L34.7001 26.3528H37.6601L33.0201 35.4128H36.6601V32.0928H39.4401V35.4128H40.9401ZM46.8217 31.4528C48.1683 31.4528 49.3017 31.8594 50.2217 32.6728C51.1417 33.4728 51.6017 34.5928 51.6017 36.0328C51.6017 37.4728 51.115 38.5994 50.1417 39.4128C49.1817 40.2261 48.0017 40.6328 46.6017 40.6328C45.4683 40.6328 44.4683 40.3794 43.6017 39.8728C42.735 39.3661 42.1083 38.6194 41.7217 37.6328L44.0817 36.2528C44.4283 37.3728 45.2683 37.9328 46.6017 37.9328C47.3083 37.9328 47.855 37.7661 48.2417 37.4328C48.6417 37.0861 48.8417 36.6194 48.8417 36.0328C48.8417 35.4594 48.6483 34.9994 48.2617 34.6528C47.875 34.3061 47.3483 34.1328 46.6817 34.1328H42.4417L43.0017 26.3528H50.9417V28.9328H45.5617L45.3817 31.4528H46.8217ZM57.8787 30.8928C59.332 30.9328 60.512 31.4061 61.4187 32.3128C62.3254 33.2061 62.7787 34.3528 62.7787 35.7528C62.7787 37.1794 62.3054 38.3528 61.3587 39.2728C60.412 40.1794 59.192 40.6328 57.6987 40.6328C56.2054 40.6328 54.9854 40.1794 54.0387 39.2728C53.1054 38.3661 52.6387 37.1928 52.6387 35.7528C52.6387 34.6861 52.912 33.7461 53.4587 32.9328L57.8187 26.3528H60.9787L57.8787 30.8928ZM56.0387 37.4128C56.4787 37.8261 57.032 38.0328 57.6987 38.0328C58.3654 38.0328 58.9187 37.8261 59.3587 37.4128C59.812 36.9994 60.0387 36.4461 60.0387 35.7528C60.0387 35.0728 59.812 34.5261 59.3587 34.1128C58.9187 33.6994 58.3654 33.4928 57.6987 33.4928C57.032 33.4928 56.4787 33.6994 56.0387 34.1128C55.5987 34.5128 55.3787 35.0594 55.3787 35.7528C55.3787 36.4461 55.5987 36.9994 56.0387 37.4128ZM62.2825 26.3528H71.3225V28.6928L66.5825 40.3528H63.6625L68.2625 28.9928H62.2825V26.3528ZM79.8059 33.0728C81.0992 33.8461 81.7459 34.9728 81.7459 36.4528C81.7459 37.7461 81.2926 38.7661 80.3859 39.5128C79.4926 40.2594 78.2726 40.6328 76.7259 40.6328C75.1659 40.6328 73.9392 40.2594 73.0459 39.5128C72.1526 38.7661 71.7059 37.7461 71.7059 36.4528C71.7059 34.9728 72.3459 33.8461 73.6259 33.0728C72.6526 32.3661 72.1659 31.3994 72.1659 30.1728C72.1659 28.8794 72.5992 27.8728 73.4659 27.1528C74.3459 26.4328 75.4326 26.0728 76.7259 26.0728C78.0192 26.0728 79.0992 26.4328 79.9659 27.1528C80.8326 27.8728 81.2659 28.8794 81.2659 30.1728C81.2659 31.4128 80.7792 32.3794 79.8059 33.0728ZM78.0259 29.1128C77.6926 28.8194 77.2592 28.6728 76.7259 28.6728C76.1926 28.6728 75.7592 28.8194 75.4259 29.1128C75.0926 29.4061 74.9259 29.8061 74.9259 30.3128C74.9259 30.8194 75.0926 31.2261 75.4259 31.5328C75.7592 31.8261 76.1926 31.9728 76.7259 31.9728C77.2592 31.9728 77.6926 31.8261 78.0259 31.5328C78.3592 31.2261 78.5259 30.8194 78.5259 30.3128C78.5259 29.8061 78.3592 29.4061 78.0259 29.1128ZM75.0659 37.5328C75.4926 37.8661 76.0459 38.0328 76.7259 38.0328C77.4059 38.0328 77.9526 37.8661 78.3659 37.5328C78.7926 37.1861 79.0059 36.7061 79.0059 36.0928C79.0059 35.4928 78.7926 35.0261 78.3659 34.6928C77.9526 34.3461 77.4059 34.1728 76.7259 34.1728C76.0459 34.1728 75.4926 34.3461 75.0659 34.6928C74.6526 35.0261 74.4459 35.4928 74.4459 36.0928C74.4459 36.7061 74.6526 37.1861 75.0659 37.5328ZM93.0131 30.9328C93.0131 32.0128 92.7331 32.9594 92.1731 33.7728H92.1931L87.8331 40.3528H84.6731L87.7931 35.7928C86.3398 35.7661 85.1531 35.3061 84.2331 34.4128C83.3264 33.5061 82.8731 32.3461 82.8731 30.9328C82.8731 29.5061 83.3398 28.3394 84.2731 27.4328C85.2198 26.5261 86.4398 26.0728 87.9331 26.0728C89.4398 26.0728 90.6598 26.5261 91.5931 27.4328C92.5398 28.3261 93.0131 29.4928 93.0131 30.9328ZM85.6131 30.9328C85.6131 31.6261 85.8331 32.1794 86.2731 32.5928C86.7264 33.0061 87.2798 33.2128 87.9331 33.2128C88.6131 33.2128 89.1731 33.0061 89.6131 32.5928C90.0531 32.1794 90.2731 31.6261 90.2731 30.9328C90.2731 30.2394 90.0531 29.6928 89.6131 29.2928C89.1731 28.8794 88.6131 28.6728 87.9331 28.6728C87.2798 28.6728 86.7264 28.8794 86.2731 29.2928C85.8331 29.7061 85.6131 30.2528 85.6131 30.9328ZM99.7678 40.6328C98.0211 40.6328 96.6478 39.9728 95.6478 38.6528C94.6611 37.3194 94.1678 35.5528 94.1678 33.3528C94.1678 31.1528 94.6611 29.3928 95.6478 28.0728C96.6478 26.7394 98.0211 26.0728 99.7678 26.0728C101.528 26.0728 102.901 26.7394 103.888 28.0728C104.874 29.3928 105.368 31.1528 105.368 33.3528C105.368 35.5528 104.874 37.3194 103.888 38.6528C102.901 39.9728 101.528 40.6328 99.7678 40.6328ZM97.6478 36.7728C98.1278 37.5461 98.8344 37.9328 99.7678 37.9328C100.701 37.9328 101.408 37.5394 101.888 36.7528C102.381 35.9661 102.628 34.8328 102.628 33.3528C102.628 31.8594 102.381 30.7194 101.888 29.9328C101.408 29.1461 100.701 28.7528 99.7678 28.7528C98.8344 28.7528 98.1278 29.1461 97.6478 29.9328C97.1678 30.7194 96.9278 31.8594 96.9278 33.3528C96.9278 34.8461 97.1678 35.9861 97.6478 36.7728Z" fill="black"/>
</svg>
