<svg width="115" height="46" viewBox="0 0 115 46" fill="none" xmlns="http://www.w3.org/2000/svg">
<path d="M5.99805 14.075C6.43424 13.1179 6.89974 11.8809 7.39453 10.364C7.88932 8.84058 8.32878 7.49618 8.71289 6.33081C9.09701 5.15894 9.45833 4.23446 9.79688 3.55737C10.1419 2.88029 10.4967 2.54175 10.8613 2.54175C11.0632 2.54175 11.2747 2.61011 11.4961 2.74683C11.7174 2.87703 11.9062 3.04305 12.0625 3.24487C12.2122 3.44019 12.2871 3.62573 12.2871 3.80151C12.2871 4.02287 12.222 4.36466 12.0918 4.8269C11.9681 5.28263 11.8346 5.71232 11.6914 6.11597C11.5482 6.5131 11.3594 7.0144 11.125 7.61987C10.8906 8.21883 10.7702 8.52482 10.7637 8.53784C10.3796 9.50789 10.0475 10.3315 9.76758 11.0085C9.48763 11.6791 9.26302 12.213 9.09375 12.6101C8.92448 13.0007 8.82031 13.2546 8.78125 13.3718C8.74219 13.4825 8.72266 13.5802 8.72266 13.6648C8.72266 13.8471 8.88867 13.9382 9.2207 13.9382C9.83919 13.9382 10.5391 13.8178 11.3203 13.5769C11.7956 12.392 12.2546 11.1713 12.6973 9.91479C13.1465 8.65828 13.5143 7.58732 13.8008 6.7019C14.0938 5.823 14.4062 4.8562 14.7383 3.80151C14.8945 3.34578 15.0475 3.01375 15.1973 2.80542C15.347 2.59058 15.5293 2.48315 15.7441 2.48315C15.8874 2.48315 16.0273 2.51571 16.1641 2.58081C16.4245 2.698 16.6784 2.85425 16.9258 3.04956C17.1797 3.24487 17.3066 3.42391 17.3066 3.58667C17.3066 3.71688 17.1504 4.23771 16.8379 5.14917C16.5254 6.06063 16.1771 7.04696 15.793 8.10815C15.4089 9.16284 14.9694 10.351 14.4746 11.6726C13.9798 12.9877 13.6543 13.8308 13.498 14.2019C13.2897 14.7227 13.0814 15.1036 12.873 15.3445C12.6647 15.5789 12.3327 15.7579 11.877 15.8816C11.4212 16.0053 10.7832 16.0834 9.96289 16.116C9.14258 16.1485 7.82096 16.1648 5.99805 16.1648H3.49805C3.16602 16.1648 2.8763 16.1355 2.62891 16.0769C2.38802 16.0183 2.15039 15.8588 1.91602 15.5984C1.68815 15.338 1.5026 14.9376 1.35938 14.3972C1.35938 14.3647 1.35286 14.3289 1.33984 14.2898C1.33333 14.2507 1.32682 14.2117 1.32031 14.1726C1.30729 14.127 1.30078 14.0912 1.30078 14.0652C1.30078 13.8699 1.33333 13.6518 1.39844 13.4109C1.46354 13.1635 1.63607 12.6296 1.91602 11.8093C2.20247 10.989 2.4987 10.1329 2.80469 9.24097C3.11068 8.34904 3.42969 7.38875 3.76172 6.36011C3.97005 5.7286 4.17839 4.98966 4.38672 4.14331C4.60156 3.29045 4.76107 2.72078 4.86523 2.43433C4.97591 2.14787 5.1224 2.00464 5.30469 2.00464C5.51953 2.00464 5.77669 2.11206 6.07617 2.3269C6.37565 2.54175 6.63932 2.78263 6.86719 3.04956C7.10156 3.30998 7.21875 3.48901 7.21875 3.58667C7.21875 3.65828 7.15039 3.90568 7.01367 4.32886C6.87695 4.74552 6.49284 5.82951 5.86133 7.58081C5.48372 8.64201 5.19401 9.43628 4.99219 9.96362C4.79036 10.491 4.55273 11.1127 4.2793 11.8289C4.00586 12.5385 3.83984 12.9779 3.78125 13.1472C3.72917 13.31 3.70312 13.4467 3.70312 13.5574C3.70312 13.9545 3.96354 14.1531 4.48438 14.1531C4.88151 14.1531 5.38607 14.127 5.99805 14.075ZM17.7363 14.241C17.3587 15.0287 16.9681 15.9532 16.5645 17.0144C16.1608 18.0756 15.9036 18.7332 15.793 18.9871C15.6823 19.241 15.5488 19.3679 15.3926 19.3679C15.2298 19.3679 15.0182 19.2768 14.7578 19.0945C14.4909 18.9187 14.25 18.7201 14.0352 18.4988C13.8138 18.2839 13.7031 18.1407 13.7031 18.0691C13.7031 17.8477 13.7845 17.5483 13.9473 17.1707C14.11 16.7931 14.4518 16.0606 14.9727 14.9734C15.5 13.8796 15.9688 12.8575 16.3789 11.907C16.7956 10.9565 17.1732 9.9799 17.5117 8.97729C17.349 8.95776 17.235 8.91545 17.1699 8.85034C17.1113 8.77873 17.0788 8.71362 17.0723 8.65503C17.0658 8.58993 17.0592 8.45321 17.0527 8.24487C17.0397 8.04305 17.0007 7.87378 16.9355 7.73706C16.877 7.60034 16.8477 7.47664 16.8477 7.36597C16.8477 7.05347 17.3424 6.68563 18.332 6.26245C18.4297 5.87834 18.5371 5.46493 18.6543 5.02222C18.778 4.57951 18.931 4.35815 19.1133 4.35815C19.2826 4.35815 19.4974 4.40373 19.7578 4.49487C20.0117 4.57951 20.2331 4.69995 20.4219 4.8562C20.6172 5.00594 20.7148 5.1687 20.7148 5.34448C20.7148 5.52026 20.6595 5.7937 20.5488 6.16479C20.9395 5.96297 21.3691 5.86206 21.8379 5.86206C22.2546 5.86206 22.6387 6.00203 22.9902 6.28198C23.3418 6.55542 23.6185 6.92326 23.8203 7.3855C24.0286 7.84774 24.1328 8.33276 24.1328 8.84058C24.1328 9.57625 23.9147 10.351 23.4785 11.1648C23.0488 11.9786 22.5182 12.7338 21.8867 13.4304C21.2552 14.1205 20.6432 14.6837 20.0508 15.1199C19.4648 15.5496 19.0417 15.7644 18.7812 15.7644C18.5924 15.7644 18.4297 15.6537 18.293 15.4324C18.1628 15.2045 17.9772 14.8074 17.7363 14.241ZM18.0684 13.3816C18.8496 13.2449 19.5592 12.8933 20.1973 12.3269C20.8418 11.767 21.3464 11.1485 21.7109 10.4714C22.0755 9.78784 22.2578 9.2312 22.2578 8.80151C22.2578 8.61271 22.1862 8.42065 22.043 8.22534C21.9062 8.04305 21.6654 7.9519 21.3203 7.9519C20.8451 7.9519 20.3763 8.1049 19.9141 8.41089C19.6471 9.12703 19.3932 9.79435 19.1523 10.4128C18.9115 11.0313 18.7357 11.4903 18.625 11.7898C18.5143 12.0828 18.3288 12.6134 18.0684 13.3816ZM28.8594 14.6804C28.4362 14.9213 27.9447 15.1622 27.3848 15.4031C26.8249 15.644 26.4245 15.7644 26.1836 15.7644C25.7669 15.7644 25.3861 15.504 25.041 14.9832C24.7025 14.4558 24.5332 13.9285 24.5332 13.4011C24.5332 13.0951 24.7969 12.2878 25.3242 10.9792C25.8516 9.66414 26.4147 8.46623 27.0137 7.3855C27.6191 6.30477 28.0944 5.7644 28.4395 5.7644C28.5762 5.7644 28.8398 5.87508 29.2305 6.09644C29.6211 6.31128 29.8164 6.47404 29.8164 6.58472C29.8164 6.73446 29.6243 7.09904 29.2402 7.67847C28.9538 8.12118 28.6152 8.72664 28.2246 9.49487C27.821 10.2631 27.4824 11.002 27.209 11.7117C26.9355 12.4213 26.7988 12.9519 26.7988 13.3035C26.7988 13.4923 26.8379 13.6355 26.916 13.7332C27.0007 13.8308 27.0885 13.8796 27.1797 13.8796C27.3424 13.8796 27.6354 13.782 28.0586 13.5867C28.4883 13.3914 28.8008 13.2221 28.9961 13.0789C29.1393 12.6687 29.3737 12.0535 29.6992 11.2332C30.0247 10.4063 30.3665 9.60229 30.7246 8.82104C31.0827 8.03979 31.431 7.37899 31.7695 6.83862C32.1016 6.29175 32.3717 6.01831 32.5801 6.01831C32.7038 6.01831 32.86 6.08016 33.0488 6.20386C33.2441 6.32756 33.4134 6.47404 33.5566 6.64331C33.7064 6.81258 33.7812 6.96558 33.7812 7.10229C33.7812 7.34318 33.7422 7.54175 33.6641 7.698C33.5859 7.85425 33.4134 8.13094 33.1465 8.52808C32.8796 8.9187 32.6126 9.37769 32.3457 9.90503C32.0788 10.4324 31.7956 11.1127 31.4961 11.946C31.2943 12.519 31.1543 13.0398 31.0762 13.5085C31.0046 13.9708 30.946 14.446 30.9004 14.9343C30.8548 15.4226 30.8027 15.7514 30.7441 15.9207C30.679 16.0834 30.5521 16.1648 30.3633 16.1648C30.0312 16.1648 29.6829 16.0899 29.3184 15.9402C28.9603 15.7904 28.7812 15.517 28.7812 15.1199C28.7812 14.9701 28.8073 14.8236 28.8594 14.6804ZM42.1504 7.31714L42.248 7.40503C42.5931 7.04696 42.9967 6.70841 43.459 6.3894C43.9212 6.06388 44.3053 5.90112 44.6113 5.90112C44.8978 5.90112 45.1908 6.02482 45.4902 6.27222C45.7962 6.51961 46.0469 6.85164 46.2422 7.26831C46.444 7.67847 46.5449 8.12443 46.5449 8.6062C46.5449 9.27026 46.3464 10.019 45.9492 10.8523C45.5521 11.6856 45.041 12.4897 44.416 13.2644C43.7975 14.0326 43.1628 14.6641 42.5117 15.1589C41.8607 15.6472 41.3008 15.8914 40.832 15.8914C40.6172 15.8914 40.3991 15.7677 40.1777 15.5203C39.9629 15.2729 39.7936 14.9669 39.6699 14.6023C38.2962 18.4434 37.362 20.364 36.8672 20.364C36.8086 20.364 36.6751 20.2729 36.4668 20.0906C36.265 19.9018 36.0794 19.6902 35.9102 19.4558C35.7474 19.2214 35.666 19.0326 35.666 18.8894C35.666 18.7917 35.7799 18.5313 36.0078 18.1082C36.2357 17.685 36.4635 17.2292 36.6914 16.741C36.9258 16.2527 37.2122 15.5398 37.5508 14.6023C37.2513 14.8692 36.8639 15.1264 36.3887 15.3738C35.9199 15.6212 35.5521 15.7449 35.2852 15.7449C34.9987 15.7449 34.7057 15.5756 34.4062 15.2371C34.1133 14.892 33.8724 14.4884 33.6836 14.0261C33.4883 13.5574 33.3906 13.183 33.3906 12.9031C33.3906 12.3562 33.5924 11.6921 33.9961 10.9109C34.3997 10.1296 34.9076 9.36466 35.5195 8.61597C36.1315 7.86727 36.7402 7.24878 37.3457 6.7605C37.9577 6.27873 38.4525 6.03784 38.8301 6.03784C39.0449 6.03784 39.2826 6.17782 39.543 6.45776C39.8099 6.73771 39.9922 7.04696 40.0898 7.3855C40.6237 5.71232 41.0143 4.58602 41.2617 4.00659C41.5156 3.42716 41.7174 3.13745 41.8672 3.13745C41.9453 3.13745 42.0983 3.21232 42.3262 3.36206C42.554 3.50529 42.7656 3.66479 42.9609 3.84058C43.1628 4.01636 43.2637 4.1368 43.2637 4.2019C43.2637 4.27352 43.1953 4.46232 43.0586 4.76831C42.9219 5.0743 42.7819 5.41284 42.6387 5.78394C42.4954 6.14852 42.3327 6.65959 42.1504 7.31714ZM39.9238 13.9187C40.8092 13.6518 41.5905 13.1993 42.2676 12.5613C42.9512 11.9233 43.472 11.2527 43.8301 10.5496C44.1882 9.83993 44.3672 9.25073 44.3672 8.78198C44.3672 8.62573 44.3411 8.49552 44.2891 8.39136C44.237 8.28068 44.1686 8.22534 44.084 8.22534C43.8626 8.22534 43.4395 8.47925 42.8145 8.98706C42.1895 9.48836 41.7337 9.89201 41.4473 10.198C41.252 10.6212 41.0436 11.1225 40.8223 11.7019C40.6009 12.2813 40.3014 13.0203 39.9238 13.9187ZM39.9043 7.9812C39.39 8.08537 38.8691 8.31974 38.3418 8.68433C37.8145 9.04891 37.3424 9.4786 36.9258 9.97339C36.5026 10.4617 36.1641 10.963 35.9102 11.4773C35.6562 11.9851 35.5293 12.4278 35.5293 12.8054C35.5293 13.3653 35.7344 13.6453 36.1445 13.6453C36.5417 13.6453 37.2546 13.2449 38.2832 12.4441C38.6217 11.5326 38.9017 10.7872 39.123 10.2078C39.3444 9.62834 39.4974 9.22144 39.582 8.98706C39.6667 8.74618 39.7741 8.41089 39.9043 7.9812ZM55.3047 7.54175C55.6432 7.30737 56.0664 7.06323 56.5742 6.80933C57.0885 6.54891 57.4792 6.4187 57.7461 6.4187C57.974 6.4187 58.2116 6.53589 58.459 6.77026C58.7064 6.99813 58.9115 7.28133 59.0742 7.61987C59.237 7.95841 59.3184 8.27091 59.3184 8.55737C59.3184 9.07821 59.2337 9.68368 59.0645 10.3738C58.8952 11.0574 58.7161 11.6726 58.5273 12.2195C58.3385 12.7664 58.1107 13.4011 57.8438 14.1238C57.6029 14.7748 57.388 15.2794 57.1992 15.6375C57.0169 15.989 56.7858 16.1648 56.5059 16.1648C56.4408 16.1648 56.3724 16.1485 56.3008 16.116C56.2292 16.0769 56.125 16.0118 55.9883 15.9207C55.8516 15.823 55.7572 15.7579 55.7051 15.7253C55.5033 15.5951 55.3633 15.4942 55.2852 15.4226C55.2005 15.3445 55.1582 15.2371 55.1582 15.1003C55.1582 15.0092 55.2689 14.7553 55.4902 14.3386C55.7181 13.922 55.9004 13.5574 56.0371 13.2449C56.3171 12.6134 56.5775 11.8907 56.8184 11.0769C57.0592 10.2566 57.1992 9.65112 57.2383 9.2605V9.08472C57.2188 8.98055 57.1699 8.89917 57.0918 8.84058C57.0137 8.77547 56.929 8.74292 56.8379 8.74292C56.6296 8.74292 56.3138 8.88615 55.8906 9.17261C55.4674 9.45256 55.1387 9.72274 54.9043 9.98315C54.4941 11.3959 54.1589 12.4929 53.8984 13.2742C53.6315 14.0489 53.3711 14.6576 53.1172 15.1003C52.8698 15.5431 52.6257 15.7644 52.3848 15.7644C52.3001 15.7644 52.222 15.7481 52.1504 15.7156C52.0788 15.6765 51.9779 15.6147 51.8477 15.53C51.724 15.4454 51.6165 15.377 51.5254 15.325C51.4147 15.2598 51.3236 15.2078 51.252 15.1687C51.1868 15.1296 51.1283 15.0743 51.0762 15.0027C51.0241 14.9311 50.998 14.8497 50.998 14.7585C50.998 14.7065 51.0078 14.6446 51.0273 14.573C51.0534 14.5079 51.125 14.3484 51.2422 14.0945C51.3659 13.8406 51.4505 13.6615 51.4961 13.5574C52.5117 11.2852 53.0195 9.77482 53.0195 9.02612C53.0195 8.74618 52.9284 8.6062 52.7461 8.6062C52.6224 8.6062 52.4824 8.65503 52.3262 8.75269C52.1764 8.84383 51.9323 9.03263 51.5938 9.31909C51.2487 9.59904 50.985 9.81388 50.8027 9.96362C50.7897 9.98966 50.5716 10.6147 50.1484 11.8386C49.7318 13.0561 49.4355 13.8927 49.2598 14.3484C49.084 14.8041 48.9147 15.1524 48.752 15.3933C48.5957 15.6407 48.4329 15.7644 48.2637 15.7644C48.2051 15.7644 48.1562 15.7579 48.1172 15.7449C48.0846 15.7253 47.9902 15.6733 47.834 15.5886C47.6777 15.504 47.5378 15.4356 47.4141 15.3835C47.2057 15.2859 47.0527 15.1915 46.9551 15.1003C46.8444 15.0157 46.7891 14.8888 46.7891 14.7195C46.7891 14.5893 46.8249 14.4265 46.8965 14.2312C46.9681 14.0359 47.1178 13.6778 47.3457 13.157C47.5736 12.6361 47.8275 12.0209 48.1074 11.3113C48.3939 10.6016 48.6836 9.83341 48.9766 9.00659C49.1198 8.62248 49.2988 8.05282 49.5137 7.29761C49.735 6.5424 49.9043 6.03133 50.0215 5.7644C50.1387 5.49748 50.2852 5.36401 50.4609 5.36401C50.6497 5.36401 50.9362 5.4812 51.3203 5.71558C51.7044 5.94995 51.8965 6.12573 51.8965 6.24292C51.8965 6.28198 51.8867 6.33407 51.8672 6.39917C51.8477 6.46427 51.8053 6.58146 51.7402 6.75073C51.6751 6.92 51.6068 7.10881 51.5352 7.31714C51.9128 6.99813 52.3424 6.69214 52.8242 6.39917C53.306 6.1062 53.6999 5.95972 54.0059 5.95972C54.3574 5.95972 54.6406 6.1355 54.8555 6.48706C55.0703 6.83862 55.2201 7.19019 55.3047 7.54175ZM68.5664 16.1648C68.3711 16.1648 68.127 16.0802 67.834 15.9109C67.5475 15.7416 67.2969 15.5398 67.082 15.3054C66.8672 15.0645 66.7598 14.8432 66.7598 14.6414C66.7598 14.2247 67.7298 11.7312 69.6699 7.16089C70.2428 5.81323 70.6693 4.82365 70.9492 4.19214C71.2357 3.56063 71.4798 3.05607 71.6816 2.67847C71.89 2.30086 72.056 2.05347 72.1797 1.93628C72.3099 1.81909 72.4466 1.7605 72.5898 1.7605C72.694 1.7605 72.7721 1.78003 72.8242 1.81909C72.8828 1.85815 72.9577 1.93302 73.0488 2.0437C73.1465 2.15438 73.2539 2.2618 73.3711 2.36597C73.7682 2.72404 73.9668 3.03003 73.9668 3.28394C73.9668 3.46623 73.9017 3.7006 73.7715 3.98706C73.6413 4.26701 73.4622 4.6381 73.2344 5.10034C73.013 5.56258 72.7005 6.26245 72.2969 7.19995C71.8932 8.13745 71.418 9.33862 70.8711 10.8035C70.5911 11.5391 70.2982 12.4311 69.9922 13.4792C69.6862 14.5209 69.4421 15.2306 69.2598 15.6082C69.084 15.9792 68.8529 16.1648 68.5664 16.1648ZM76.4473 7.19995C76.9486 6.78979 77.4043 6.48055 77.8145 6.27222C78.2311 6.06388 78.5599 5.95972 78.8008 5.95972C79.0482 5.95972 79.2891 6.09969 79.5234 6.37964C79.7578 6.65959 79.9466 6.99487 80.0898 7.3855C80.2396 7.77612 80.3145 8.12118 80.3145 8.42065C80.3145 8.68107 80.2526 8.98706 80.1289 9.33862C80.0117 9.69019 79.7969 10.2208 79.4844 10.9304C79.1784 11.6335 78.9896 12.0763 78.918 12.2585C78.638 12.9356 78.4264 13.5118 78.2832 13.9871C78.1465 14.4623 78.0358 14.892 77.9512 15.2761C77.8665 15.6602 77.7982 15.9076 77.7461 16.0183C77.7005 16.129 77.6257 16.1843 77.5215 16.1843C77.4434 16.1843 77.2936 16.1322 77.0723 16.0281C76.8574 15.9239 76.6589 15.8295 76.4766 15.7449C76.4245 15.7188 76.3333 15.6733 76.2031 15.6082C76.0794 15.5431 75.9753 15.4714 75.8906 15.3933C75.8125 15.3087 75.7734 15.211 75.7734 15.1003C75.7734 14.8985 75.946 14.2963 76.291 13.2937C76.6361 12.2846 76.89 11.5945 77.0527 11.2234C77.4043 10.4161 77.6908 9.77157 77.9121 9.28979C78.14 8.80802 78.2539 8.53133 78.2539 8.45972C78.2539 8.2644 78.1758 8.16675 78.0195 8.16675C77.8242 8.16675 77.502 8.29045 77.0527 8.53784C76.6035 8.77873 76.2064 9.07495 75.8613 9.42651C75.4447 10.377 75.1257 11.1681 74.9043 11.7996C74.6829 12.4246 74.4453 13.1277 74.1914 13.9089C73.944 14.6902 73.7617 15.1947 73.6445 15.4226C73.5273 15.6505 73.3841 15.7644 73.2148 15.7644C73.1302 15.7644 72.9479 15.6765 72.668 15.5007C72.388 15.325 72.1341 15.1296 71.9062 14.9148C71.6784 14.6934 71.5645 14.5014 71.5645 14.3386C71.5645 14.1368 71.61 13.9382 71.7012 13.7429C71.7858 13.5411 71.9714 13.1733 72.2578 12.6394C72.5443 12.1056 72.847 11.4838 73.166 10.7742C73.4915 10.058 73.8529 9.15959 74.25 8.07886C74.4648 7.50594 74.6504 6.97209 74.8066 6.47729C74.9629 5.97599 75.0703 5.66675 75.1289 5.54956C75.1875 5.42586 75.2754 5.36401 75.3926 5.36401C75.5488 5.36401 75.7344 5.40959 75.9492 5.50073C76.1641 5.58537 76.3496 5.69279 76.5059 5.823C76.6686 5.9467 76.75 6.05412 76.75 6.14526C76.75 6.17131 76.6491 6.52287 76.4473 7.19995ZM85.1875 8.45972C84.8034 9.34513 84.4323 10.3412 84.0742 11.448C83.7161 12.5548 83.4329 13.4369 83.2246 14.0945C83.0228 14.752 82.834 15.2631 82.6582 15.6277C82.4824 15.9858 82.2871 16.1648 82.0723 16.1648C81.8639 16.1648 81.6361 16.0867 81.3887 15.9304C81.1413 15.7677 80.9329 15.5691 80.7637 15.3347C80.6009 15.0938 80.5195 14.8562 80.5195 14.6218C80.5195 14.4526 80.666 13.9708 80.959 13.1765C81.2585 12.3757 81.571 11.575 81.8965 10.7742C82.222 9.96688 82.4564 9.3842 82.5996 9.02612C82.1895 9.02612 81.9844 8.49227 81.9844 7.42456C81.9844 7.24227 82.1471 7.06323 82.4727 6.88745C82.8047 6.70516 83.1335 6.59123 83.459 6.54565C84.1947 4.83341 84.9857 3.53784 85.832 2.65894C86.6784 1.79305 87.4661 1.36011 88.1953 1.36011C88.5664 1.36011 88.9017 1.49683 89.2012 1.77026C89.5007 2.03719 89.6504 2.39526 89.6504 2.84448C89.6504 3.28068 89.5495 3.67131 89.3477 4.01636C89.1523 4.3549 88.8724 4.52417 88.5078 4.52417C88.013 4.52417 87.7201 4.25724 87.6289 3.72339C87.3815 3.87313 87.1309 4.12703 86.877 4.48511C86.623 4.84318 86.3268 5.46818 85.9883 6.36011C86.3138 6.295 86.5938 6.26245 86.8281 6.26245C86.9128 6.26245 87.0527 6.35685 87.248 6.54565C87.4499 6.72795 87.6289 6.94604 87.7852 7.19995C87.9479 7.44735 88.0293 7.66219 88.0293 7.84448C88.0293 7.99422 87.9447 8.08862 87.7754 8.12769C87.6126 8.16024 87.2448 8.1993 86.6719 8.24487C86.1055 8.29045 85.6107 8.36206 85.1875 8.45972ZM93.3027 7.25854C93.9668 7.42131 94.4323 7.6687 94.6992 8.00073C94.9661 8.33276 95.0996 8.83407 95.0996 9.50464C95.0996 10.1361 94.9499 10.8132 94.6504 11.5359C94.3509 12.2585 93.9375 12.9486 93.4102 13.6062C92.8893 14.2572 92.3132 14.7781 91.6816 15.1687C91.0566 15.5658 90.4349 15.7644 89.8164 15.7644C89.0156 15.7644 88.3874 15.4226 87.9316 14.739C87.4824 14.0554 87.2578 13.297 87.2578 12.4636C87.2578 11.474 87.5866 10.4324 88.2441 9.33862C88.9082 8.23836 89.8457 7.27808 91.0566 6.45776C91.7402 5.99552 92.196 5.7644 92.4238 5.7644C92.7624 5.7644 93.0553 6.26245 93.3027 7.25854ZM92.6582 7.84448C91.9616 8.1049 91.3594 8.55412 90.8516 9.19214C90.3438 9.83016 89.9629 10.5138 89.709 11.2429C89.4616 11.9656 89.3379 12.5971 89.3379 13.1375C89.3379 13.4695 89.4062 13.7104 89.543 13.8601C89.6862 14.0098 89.8457 14.0847 90.0215 14.0847C90.3926 14.0847 90.8223 13.7917 91.3105 13.2058C91.8053 12.6199 92.2285 11.9298 92.5801 11.1355C92.9382 10.3412 93.1172 9.67716 93.1172 9.14331C93.1172 8.60946 92.9642 8.17651 92.6582 7.84448ZM100.51 6.94604C100.894 6.74422 101.392 6.54565 102.004 6.35034C102.603 6.15503 103.059 6.05737 103.371 6.05737C103.534 6.05737 103.651 6.09969 103.723 6.18433C103.794 6.26896 103.83 6.3536 103.83 6.43823C103.83 7.12183 103.706 7.61662 103.459 7.92261C103.212 8.22209 102.941 8.40112 102.648 8.45972C102.355 8.51831 101.926 8.56714 101.359 8.6062C100.793 8.63875 100.396 8.71688 100.168 8.84058C99.6927 9.1075 99.2988 9.58276 98.9863 10.2664C98.6803 10.9434 98.3743 11.8484 98.0684 12.9812C97.7689 14.1075 97.5443 14.8888 97.3945 15.325C97.2448 15.7546 97.0495 15.9695 96.8086 15.9695C96.6589 15.9695 96.444 15.9011 96.1641 15.7644C95.8906 15.6277 95.6432 15.4617 95.4219 15.2664C95.207 15.071 95.0996 14.8822 95.0996 14.7C95.0996 14.5502 95.2363 14.241 95.5098 13.7722C95.7897 13.3035 96.0957 12.7436 96.4277 12.0925C96.7663 11.4415 97.1992 10.4519 97.7266 9.12378C97.9609 8.55086 98.1758 7.93563 98.3711 7.27808C98.5729 6.62052 98.7161 6.2006 98.8008 6.01831C98.8854 5.83602 99.0156 5.74487 99.1914 5.74487C99.3802 5.74487 99.6667 5.82625 100.051 5.98901C100.435 6.14526 100.627 6.28198 100.627 6.39917C100.627 6.57495 100.588 6.75724 100.51 6.94604ZM110.773 7.54175C111.112 7.30737 111.535 7.06323 112.043 6.80933C112.557 6.54891 112.948 6.4187 113.215 6.4187C113.443 6.4187 113.68 6.53589 113.928 6.77026C114.175 6.99813 114.38 7.28133 114.543 7.61987C114.706 7.95841 114.787 8.27091 114.787 8.55737C114.787 9.07821 114.702 9.68368 114.533 10.3738C114.364 11.0574 114.185 11.6726 113.996 12.2195C113.807 12.7664 113.579 13.4011 113.312 14.1238C113.072 14.7748 112.857 15.2794 112.668 15.6375C112.486 15.989 112.255 16.1648 111.975 16.1648C111.91 16.1648 111.841 16.1485 111.77 16.116C111.698 16.0769 111.594 16.0118 111.457 15.9207C111.32 15.823 111.226 15.7579 111.174 15.7253C110.972 15.5951 110.832 15.4942 110.754 15.4226C110.669 15.3445 110.627 15.2371 110.627 15.1003C110.627 15.0092 110.738 14.7553 110.959 14.3386C111.187 13.922 111.369 13.5574 111.506 13.2449C111.786 12.6134 112.046 11.8907 112.287 11.0769C112.528 10.2566 112.668 9.65112 112.707 9.2605V9.08472C112.688 8.98055 112.639 8.89917 112.561 8.84058C112.482 8.77547 112.398 8.74292 112.307 8.74292C112.098 8.74292 111.783 8.88615 111.359 9.17261C110.936 9.45256 110.607 9.72274 110.373 9.98315C109.963 11.3959 109.628 12.4929 109.367 13.2742C109.1 14.0489 108.84 14.6576 108.586 15.1003C108.339 15.5431 108.094 15.7644 107.854 15.7644C107.769 15.7644 107.691 15.7481 107.619 15.7156C107.548 15.6765 107.447 15.6147 107.316 15.53C107.193 15.4454 107.085 15.377 106.994 15.325C106.883 15.2598 106.792 15.2078 106.721 15.1687C106.656 15.1296 106.597 15.0743 106.545 15.0027C106.493 14.9311 106.467 14.8497 106.467 14.7585C106.467 14.6869 106.577 14.4102 106.799 13.9285C107.027 13.4402 107.303 12.7794 107.629 11.946C108.202 10.4747 108.488 9.50138 108.488 9.02612C108.488 8.74618 108.397 8.6062 108.215 8.6062C108.091 8.6062 107.951 8.65503 107.795 8.75269C107.645 8.84383 107.401 9.03263 107.062 9.31909C106.717 9.59904 106.454 9.81388 106.271 9.96362C106.258 9.98966 106.04 10.6147 105.617 11.8386C105.201 13.0561 104.904 13.8927 104.729 14.3484C104.553 14.8041 104.383 15.1524 104.221 15.3933C104.064 15.6407 103.902 15.7644 103.732 15.7644C103.674 15.7644 103.625 15.7579 103.586 15.7449C103.553 15.7253 103.459 15.6733 103.303 15.5886C103.146 15.504 103.007 15.4356 102.883 15.3835C102.674 15.2859 102.521 15.1915 102.424 15.1003C102.313 15.0157 102.258 14.8888 102.258 14.7195C102.258 14.5893 102.294 14.4265 102.365 14.2312C102.437 14.0359 102.587 13.6778 102.814 13.157C103.042 12.6361 103.296 12.0209 103.576 11.3113C103.863 10.6016 104.152 9.83341 104.445 9.00659C104.589 8.62248 104.768 8.05282 104.982 7.29761C105.204 6.5424 105.373 6.03133 105.49 5.7644C105.607 5.49748 105.754 5.36401 105.93 5.36401C106.118 5.36401 106.405 5.4812 106.789 5.71558C107.173 5.94995 107.365 6.12573 107.365 6.24292C107.365 6.28198 107.355 6.33407 107.336 6.39917C107.316 6.46427 107.274 6.58146 107.209 6.75073C107.144 6.92 107.076 7.10881 107.004 7.31714C107.382 6.99813 107.811 6.69214 108.293 6.39917C108.775 6.1062 109.169 5.95972 109.475 5.95972C109.826 5.95972 110.109 6.1355 110.324 6.48706C110.539 6.83862 110.689 7.19019 110.773 7.54175Z" fill="black"/>
<path d="M8.24414 30.0222C6.27799 30.8621 5.1582 31.282 4.88477 31.282C4.71549 31.282 4.51693 31.1095 4.28906 30.7644C4.06771 30.4194 3.95703 30.1654 3.95703 30.0027C3.95703 29.9376 4.10677 29.8236 4.40625 29.6609C4.70573 29.4916 5.55859 29.0522 6.96484 28.3425C8.33854 27.6459 9.17188 27.226 9.46484 27.0828C9.76432 26.933 10.002 26.8582 10.1777 26.8582C10.3145 26.8582 10.4707 26.9623 10.6465 27.1707C10.8223 27.3725 10.9753 27.6036 11.1055 27.864C11.2357 28.1244 11.3008 28.3165 11.3008 28.4402C11.3008 28.5574 11.2617 28.6908 11.1836 28.8406C11.1055 28.9838 10.9232 29.3223 10.6367 29.8562C10.3503 30.3835 9.93685 31.2332 9.39648 32.405C8.85612 33.5704 8.16602 35.1427 7.32617 37.1218C7.22201 37.3757 7.03646 37.8217 6.76953 38.4597C6.5026 39.0912 6.30078 39.5535 6.16406 39.8464C6.02734 40.1329 5.89388 40.3575 5.76367 40.5203C5.63346 40.683 5.50651 40.7644 5.38281 40.7644C5.32422 40.7644 5.20703 40.7123 5.03125 40.6082C4.85547 40.504 4.67318 40.4161 4.48438 40.3445C4.1849 40.2208 3.97656 40.1199 3.85938 40.0417C3.7487 39.9636 3.69336 39.8432 3.69336 39.6804C3.69336 39.5177 4.00911 38.7592 4.64062 37.405C5.27214 36.0444 5.98177 34.5632 6.76953 32.9617C7.55729 31.3601 8.04883 30.3803 8.24414 30.0222ZM14.0547 38.6453C16.2487 38.4044 17.502 38.2839 17.8145 38.2839C18.1595 38.2839 18.4362 38.45 18.6445 38.782C18.8594 39.114 18.9668 39.433 18.9668 39.739C18.9668 40.2078 18.5762 40.4421 17.7949 40.4421C16.9941 40.4421 16.3952 40.4291 15.998 40.4031C15.6074 40.377 15.1973 40.364 14.7676 40.364C13.9863 40.364 13.4688 40.3868 13.2148 40.4324C12.9609 40.4714 12.681 40.5365 12.375 40.6277C12.069 40.7188 11.7402 40.7644 11.3887 40.7644C11.1608 40.7644 10.9557 40.5658 10.7734 40.1687C10.5977 39.7716 10.5098 39.4363 10.5098 39.1628C10.5098 38.9936 10.5586 38.8634 10.6562 38.7722C10.7604 38.6746 11.0273 38.4695 11.457 38.157C11.8867 37.8445 12.3685 37.4506 12.9023 36.9753C13.4427 36.5001 14.0807 35.8686 14.8164 35.0808C17.1146 32.6003 18.2637 30.8393 18.2637 29.7976C18.2637 29.4786 18.1725 29.2572 17.9902 29.1335C17.8014 29.0033 17.5898 28.9382 17.3555 28.9382C16.9062 28.9382 16.3594 29.0717 15.7148 29.3386C15.6367 29.3712 15.5065 29.4298 15.3242 29.5144C15.1484 29.599 15.0052 29.6707 14.8945 29.7292C14.7839 29.7813 14.7025 29.8171 14.6504 29.8367C14.5983 29.8562 14.5527 29.866 14.5137 29.866C14.3444 29.866 14.1198 29.6544 13.8398 29.2312C13.5664 28.8015 13.4297 28.4858 13.4297 28.2839C13.4297 28.0496 13.6706 27.8347 14.1523 27.6394C14.6406 27.4376 15.194 27.2813 15.8125 27.1707C16.4375 27.06 16.916 27.0046 17.248 27.0046C17.9967 27.0046 18.6152 27.1772 19.1035 27.5222C19.5983 27.8608 19.9564 28.2839 20.1777 28.7917C20.3991 29.2996 20.5098 29.7911 20.5098 30.2664C20.5098 30.9955 20.1517 31.8809 19.4355 32.9226C18.7129 33.9578 17.8698 34.9701 16.9062 35.9597C15.9427 36.9428 14.9922 37.838 14.0547 38.6453ZM24.9629 32.405C26.1413 31.5912 26.9095 30.9434 27.2676 30.4617C27.6257 29.9799 27.8047 29.6251 27.8047 29.3972C27.8047 29.2735 27.7493 29.1531 27.6387 29.0359C27.5345 28.9187 27.3555 28.8601 27.1016 28.8601C26.6589 28.8601 26.1185 29.0001 25.4805 29.28C25.0182 29.4949 24.7383 29.6023 24.6406 29.6023C24.4388 29.6023 24.2435 29.3875 24.0547 28.9578C23.8724 28.5281 23.7812 28.2221 23.7812 28.0398C23.7812 27.8184 23.9635 27.6199 24.3281 27.4441C24.6927 27.2618 25.1159 27.1186 25.5977 27.0144C26.0794 26.9102 26.4473 26.8582 26.7012 26.8582C27.515 26.8582 28.1628 27.0209 28.6445 27.3464C29.1263 27.6654 29.4583 28.0333 29.6406 28.45C29.8294 28.8666 29.9238 29.2442 29.9238 29.5828C29.9238 30.2403 29.6341 30.9141 29.0547 31.6042C28.4688 32.2878 27.8275 32.8608 27.1309 33.323C28.179 33.629 28.7031 34.3028 28.7031 35.3445C28.7031 36.1908 28.3678 37.0372 27.6973 37.8835C27.0332 38.7234 26.1966 39.4135 25.1875 39.9539C24.1849 40.4942 23.2279 40.7644 22.3164 40.7644C21.9193 40.7644 21.5156 40.6765 21.1055 40.5007C20.7018 40.3315 20.3698 40.1231 20.1094 39.8757C19.849 39.6218 19.7188 39.3972 19.7188 39.2019C19.7188 39.1238 19.7871 38.974 19.9238 38.7527C20.0671 38.5248 20.2201 38.3165 20.3828 38.1277C20.5521 37.9389 20.666 37.8445 20.7246 37.8445C21.0632 37.8445 21.2943 37.8901 21.418 37.9812C21.5417 38.0658 21.6361 38.1993 21.7012 38.3816C21.7728 38.5639 21.8542 38.6973 21.9453 38.782C22.043 38.8601 22.235 38.8992 22.5215 38.8992C22.9251 38.8992 23.446 38.7071 24.084 38.323C24.7285 37.9389 25.2852 37.4832 25.7539 36.9558C26.2292 36.4285 26.4668 35.963 26.4668 35.5593C26.4668 35.2598 26.3529 35.0027 26.125 34.7878C25.9036 34.573 25.6302 34.4656 25.3047 34.4656C24.8685 34.4656 24.5495 34.5046 24.3477 34.5828C24.1523 34.6609 24.0026 34.7 23.8984 34.7C23.7161 34.7 23.5762 34.5014 23.4785 34.1042C23.4395 33.9285 23.3711 33.7201 23.2734 33.4792C23.1823 33.2384 23.1367 33.0723 23.1367 32.9812C23.1367 32.7273 23.2995 32.5678 23.625 32.5027C23.9505 32.4376 24.3965 32.405 24.9629 32.405ZM32.7656 35.198C33.9961 35.1394 35.002 34.9929 35.7832 34.7585C36.2454 33.6648 36.7272 32.6166 37.2285 31.614C37.7298 30.6049 38.0716 30.1003 38.2539 30.1003C38.5013 30.1003 38.778 30.2436 39.084 30.53C39.3965 30.8165 39.5527 31.0671 39.5527 31.282C39.5527 31.3601 39.5267 31.461 39.4746 31.5847C39.4225 31.7084 39.25 32.0958 38.957 32.7468C38.6641 33.3979 38.4102 33.9773 38.1953 34.4851C38.8073 34.3614 39.1654 34.2996 39.2695 34.2996C39.5755 34.2996 39.7285 34.5014 39.7285 34.905C39.7285 35.2631 39.6862 35.5333 39.6016 35.7156C39.5169 35.8979 39.3835 36.0346 39.2012 36.1257C39.0254 36.2104 38.791 36.282 38.498 36.3406C38.2051 36.3927 37.8145 36.4675 37.3262 36.5652C37.0983 37.1576 36.8184 37.9519 36.4863 38.948C36.1608 39.9441 35.9102 40.6309 35.7344 41.0085C35.5586 41.3796 35.3633 41.5652 35.1484 41.5652C35.0182 41.5652 34.8294 41.5098 34.582 41.3992C34.3411 41.2885 34.1263 41.1615 33.9375 41.0183C33.7552 40.8751 33.6641 40.7481 33.6641 40.6375C33.6641 40.4942 33.8333 39.9539 34.1719 39.0164C34.5169 38.0723 34.7806 37.3822 34.9629 36.946C33.7585 37.1674 32.8796 37.2781 32.3262 37.2781C32.0332 37.2781 31.7956 37.2423 31.6133 37.1707C31.431 37.0925 31.291 36.9884 31.1934 36.8582C31.0957 36.7279 31.0143 36.5782 30.9492 36.4089C30.8906 36.2397 30.8223 36.0509 30.7441 35.8425C30.5944 35.4975 30.5195 35.211 30.5195 34.9832C30.5195 34.6186 30.7962 34.0131 31.3496 33.1667C31.9095 32.3204 32.4824 31.5229 33.0684 30.7742C33.6608 30.019 34.1393 29.4298 34.5039 29.0066C35.7214 27.5092 36.418 26.7605 36.5938 26.7605C36.6914 26.7605 36.8835 26.9949 37.1699 27.4636C37.4629 27.9324 37.6094 28.2384 37.6094 28.3816C37.6094 28.7397 37.515 29.0424 37.3262 29.2898C37.1439 29.5307 36.7663 29.9343 36.1934 30.5007C35.627 31.0736 35.0638 31.7182 34.5039 32.4343C33.944 33.1505 33.3646 34.0717 32.7656 35.198ZM46.0957 29.6707C45.9069 30.0808 45.7148 30.4812 45.5195 30.8718C45.3307 31.2625 45.1549 31.6466 44.9922 32.0242C45.1419 32.0111 45.3698 32.0046 45.6758 32.0046C46.4831 32.0046 47.1048 32.3009 47.541 32.8933C47.9772 33.4858 48.1953 34.2279 48.1953 35.1199C48.1953 35.6798 48.0456 36.2885 47.7461 36.946C47.4531 37.6036 47.0365 38.2253 46.4961 38.8113C45.9557 39.3972 45.3372 39.8692 44.6406 40.2273C43.944 40.5854 43.2181 40.7644 42.4629 40.7644C41.929 40.7644 41.3854 40.6667 40.832 40.4714C40.2786 40.2696 39.8229 40.019 39.4648 39.7195C39.1068 39.4135 38.9277 39.1205 38.9277 38.8406C38.9277 38.6908 39.0124 38.502 39.1816 38.2742C39.3379 38.0463 39.5267 37.8445 39.748 37.6687C39.9694 37.4929 40.1549 37.405 40.3047 37.405C40.4544 37.405 40.5749 37.4441 40.666 37.5222C40.7572 37.6003 40.8548 37.7338 40.959 37.9226C41.0632 38.1114 41.1315 38.2253 41.1641 38.2644C41.418 38.6225 41.776 38.8015 42.2383 38.8015C42.7266 38.8015 43.2637 38.5671 43.8496 38.0984C44.4355 37.6427 44.9336 37.0893 45.3438 36.4382C45.7539 35.7872 45.959 35.2208 45.959 34.739C45.959 34.4265 45.8516 34.1759 45.6367 33.9871C45.4284 33.7983 45.1289 33.7039 44.7383 33.7039C44.5365 33.7039 44.3704 33.7266 44.2402 33.7722C44.1165 33.8113 43.9635 33.8731 43.7812 33.9578C43.599 34.0424 43.472 34.0847 43.4004 34.0847C43.2767 34.0847 43.0781 33.8243 42.8047 33.3035C42.5182 32.7826 42.375 32.4766 42.375 32.3855C42.375 32.3269 42.4271 32.1934 42.5312 31.9851C42.6419 31.7703 42.7949 31.4545 42.9902 31.0378L43.8008 29.3386C43.8138 29.3061 43.9212 29.0489 44.123 28.5671C44.3314 28.0854 44.5104 27.7468 44.6602 27.5515C44.8099 27.3562 44.9759 27.2585 45.1582 27.2585C45.2949 27.2585 45.4707 27.2846 45.6855 27.3367C45.9069 27.3822 46.2389 27.405 46.6816 27.405C47.5605 27.405 48.1497 27.3725 48.4492 27.3074C48.7552 27.2358 49.0254 27.1446 49.2598 27.0339C49.4941 26.9167 49.7611 26.8582 50.0605 26.8582C50.1908 26.8582 50.3014 27.0079 50.3926 27.3074C50.4902 27.6003 50.5391 27.851 50.5391 28.0593C50.5391 28.5085 50.2526 28.8959 49.6797 29.2214C49.1133 29.547 48.2279 29.7097 47.0234 29.7097C46.8086 29.7097 46.4993 29.6967 46.0957 29.6707ZM53.4688 33.2449C54.2305 32.9259 54.9499 32.7664 55.627 32.7664C56.0892 32.7664 56.5124 32.8542 56.8965 33.03C57.2806 33.1993 57.5866 33.4597 57.8145 33.8113C58.0358 34.1563 58.1465 34.573 58.1465 35.0613C58.1465 36.0183 57.8665 36.9395 57.3066 37.825C56.7467 38.7039 56.0469 39.4135 55.207 39.9539C54.3672 40.4942 53.5664 40.7644 52.8047 40.7644C52.3294 40.7644 51.8704 40.6537 51.4277 40.4324C50.9915 40.2045 50.6367 39.866 50.3633 39.4167C50.0898 38.961 49.9531 38.4109 49.9531 37.7664C49.9531 37.3822 49.9889 36.9265 50.0605 36.3992C50.1322 35.8653 50.2917 35.2208 50.5391 34.4656C50.793 33.7039 51.1771 32.8835 51.6914 32.0046C52.2057 31.1257 52.873 30.2501 53.6934 29.3777C54.2858 28.7462 54.9987 28.1179 55.832 27.4929C56.6654 26.8614 57.2578 26.5457 57.6094 26.5457C57.7201 26.5457 57.8861 26.6303 58.1074 26.7996C58.3288 26.9623 58.5241 27.1511 58.6934 27.366C58.8626 27.5743 58.9473 27.7468 58.9473 27.8835C58.9473 28.1049 58.7617 28.3295 58.3906 28.5574C58.026 28.7787 57.5378 29.0717 56.9258 29.4363C56.3138 29.7944 55.7051 30.2761 55.0996 30.8816C54.5007 31.4871 53.957 32.2748 53.4688 33.2449ZM53.2539 33.9578C52.5443 35.3966 52.1895 36.7247 52.1895 37.9421C52.1895 38.6192 52.4499 38.9578 52.9707 38.9578C53.3743 38.9578 53.8073 38.7494 54.2695 38.3328C54.7383 37.9096 55.1289 37.4115 55.4414 36.8386C55.7539 36.2592 55.9102 35.7677 55.9102 35.364C55.9102 34.9734 55.6693 34.7781 55.1875 34.7781C55.0052 34.7781 54.8587 34.8041 54.748 34.8562C54.6374 34.9018 54.5039 34.9701 54.3477 35.0613C54.1914 35.1524 54.071 35.198 53.9863 35.198C53.8561 35.198 53.7552 35.1264 53.6836 34.9832C53.612 34.8399 53.4688 34.4981 53.2539 33.9578ZM67.1602 29.2019C66.737 29.2865 66.1999 29.3842 65.5488 29.4949C64.9043 29.599 64.2695 29.6934 63.6445 29.7781C63.026 29.8627 62.5508 29.905 62.2188 29.905C61.8477 29.905 61.5872 29.7097 61.4375 29.3191C61.2943 28.922 61.2227 28.5085 61.2227 28.0789C61.2227 27.9356 61.2617 27.8315 61.3398 27.7664C61.4245 27.7013 61.5579 27.6557 61.7402 27.6296C61.929 27.5971 62.2122 27.5743 62.5898 27.5613C62.9609 27.5483 63.3711 27.5352 63.8203 27.5222C64.7773 27.4897 65.4967 27.4343 65.9785 27.3562C66.4668 27.2781 66.9583 27.1739 67.4531 27.0437C67.9544 26.92 68.3613 26.8582 68.6738 26.8582C68.7715 26.8582 68.9245 26.9688 69.1328 27.1902C69.3477 27.4115 69.543 27.6622 69.7188 27.9421C69.8815 28.2286 69.9629 28.463 69.9629 28.6453C69.9629 28.7364 69.9238 28.8438 69.8457 28.9675C69.7611 29.0847 69.6243 29.2638 69.4355 29.5046C69.2467 29.7455 69.071 29.9832 68.9082 30.2175C67.4564 32.3204 66.304 34.0489 65.4512 35.4031C64.6048 36.7507 63.9082 37.8933 63.3613 38.8308C62.8079 39.7618 62.4564 40.3184 62.3066 40.5007C62.1569 40.6765 61.9681 40.7644 61.7402 40.7644C61.6751 40.7644 61.5807 40.7546 61.457 40.7351C61.3398 40.7156 61.2552 40.7058 61.2031 40.7058C61.125 40.7058 61.0176 40.7091 60.8809 40.7156C60.7376 40.7221 60.6302 40.7253 60.5586 40.7253C60.3242 40.7253 60.1322 40.6505 59.9824 40.5007C59.8327 40.351 59.7578 40.2045 59.7578 40.0613C59.7578 39.866 59.8783 39.573 60.1191 39.1824C60.3665 38.7852 60.7604 38.2156 61.3008 37.4734C61.8411 36.7247 62.6647 35.5821 63.7715 34.0457C64.8783 32.5092 66.0078 30.8946 67.1602 29.2019ZM76.0078 33.5378C76.3398 33.9285 76.5905 34.3516 76.7598 34.8074C76.929 35.2631 77.0137 35.7026 77.0137 36.1257C77.0137 36.7052 76.8607 37.2748 76.5547 37.8347C76.2487 38.3946 75.832 38.8959 75.3047 39.3386C74.7773 39.7813 74.1849 40.1296 73.5273 40.3835C72.8763 40.6375 72.222 40.7644 71.5645 40.7644C70.8613 40.7644 70.1517 40.5919 69.4355 40.2468C68.7194 39.8953 68.3613 39.1466 68.3613 38.0007C68.3613 37.5841 68.4492 37.1804 68.625 36.7898C68.8008 36.3927 69.0677 35.9988 69.4258 35.6082C69.7839 35.211 70.2396 34.8074 70.793 34.3972C71.3464 33.9871 72.0234 33.5476 72.8242 33.0789C72.0951 32.3497 71.7305 31.5457 71.7305 30.6667C71.7305 29.9766 71.9551 29.3386 72.4043 28.7527C72.86 28.1667 73.4557 27.7013 74.1914 27.3562C74.9206 27.0242 75.679 26.8582 76.4668 26.8582C76.8314 26.8582 77.2611 26.9233 77.7559 27.0535C78.2507 27.1967 78.6803 27.3692 79.0449 27.571C79.3965 27.7729 79.5723 27.9714 79.5723 28.1667C79.5723 28.4597 79.2109 28.9447 78.4883 29.6218C78.918 30.071 79.1328 30.4194 79.1328 30.6667C79.1328 31.0053 78.8822 31.422 78.3809 31.9167C77.8665 32.4181 77.0755 32.9584 76.0078 33.5378ZM77.7363 29.6218C77.2871 29.2247 76.7109 29.0261 76.0078 29.0261C75.4674 29.0261 74.9922 29.1759 74.582 29.4753C74.1719 29.7683 73.9668 30.1036 73.9668 30.4812C73.9668 30.7546 74.2337 31.2429 74.7676 31.946C75.2754 31.6921 75.819 31.3406 76.3984 30.8914C76.9844 30.4356 77.4303 30.0125 77.7363 29.6218ZM74.0059 34.7585C73.3092 35.2013 72.7428 35.5821 72.3066 35.9011C71.8639 36.2136 71.4701 36.5684 71.125 36.9656C70.7799 37.3562 70.6074 37.7338 70.6074 38.0984C70.6074 38.4109 70.7376 38.6127 70.998 38.7039C71.2585 38.795 71.5026 38.8406 71.7305 38.8406C72.1341 38.8406 72.5768 38.7169 73.0586 38.4695C73.5404 38.2156 73.944 37.9063 74.2695 37.5417C74.6016 37.1707 74.7676 36.8158 74.7676 36.4773C74.7676 36.2429 74.6895 35.9597 74.5332 35.6277C74.3835 35.2957 74.2077 35.0059 74.0059 34.7585ZM83.5762 35.0808C83.1009 35.2175 82.6354 35.2859 82.1797 35.2859C81.7305 35.2859 81.3236 35.1427 80.959 34.8562C80.6009 34.5632 80.3242 34.1889 80.1289 33.7332C79.9336 33.2774 79.8359 32.8152 79.8359 32.3464C79.8359 31.6954 79.9954 31.0411 80.3145 30.3835C80.6335 29.7195 81.0599 29.1108 81.5938 28.5574C82.1276 28.004 82.7005 27.5678 83.3125 27.2488C83.9245 26.9233 84.5072 26.7605 85.0605 26.7605C85.64 26.7605 86.151 26.92 86.5938 27.239C87.0365 27.5515 87.3815 27.9617 87.6289 28.4695C87.8633 28.9838 87.9805 29.5209 87.9805 30.0808C87.9805 30.9011 87.8275 31.7312 87.5215 32.571C87.222 33.4109 86.8184 34.2214 86.3105 35.0027C85.8092 35.7839 85.2656 36.5066 84.6797 37.1707C84.0938 37.8347 83.485 38.4532 82.8535 39.0261C81.2454 40.4389 80.181 41.1453 79.6602 41.1453C79.4583 41.1453 79.224 41.0704 78.957 40.9207C78.6966 40.7644 78.4688 40.5821 78.2734 40.3738C78.0781 40.1589 77.9805 39.9832 77.9805 39.8464C77.9805 39.4623 78.0814 39.1954 78.2832 39.0457C78.4915 38.8894 78.9277 38.6583 79.5918 38.3523C80.2559 38.0398 80.9102 37.6459 81.5547 37.1707C82.1927 36.6889 82.8665 35.9923 83.5762 35.0808ZM84.9531 32.4636C85.207 32.0274 85.3991 31.5717 85.5293 31.0964C85.666 30.6147 85.7344 30.2045 85.7344 29.866C85.7344 29.1889 85.5033 28.8503 85.041 28.8503C84.6374 28.8503 84.2012 29.0424 83.7324 29.4265C83.2637 29.8041 82.8698 30.2761 82.5508 30.8425C82.2383 31.4024 82.082 31.9363 82.082 32.4441C82.082 33.1602 82.3685 33.5183 82.9414 33.5183C83.2018 33.5183 83.5273 33.4109 83.918 33.196C84.3086 32.9812 84.6536 32.7371 84.9531 32.4636ZM94.6895 27.9031C95.2624 27.2065 95.6953 26.8582 95.9883 26.8582C96.151 26.8582 96.3626 27.0079 96.623 27.3074C96.877 27.6003 97.1016 28.0496 97.2969 28.655C97.4922 29.254 97.5898 29.9701 97.5898 30.8035C97.5898 31.9233 97.3913 33.0723 96.9941 34.2507C96.584 35.4291 96.0469 36.5164 95.3828 37.5125C94.7253 38.502 94.0156 39.2931 93.2539 39.8855C92.4922 40.4714 91.776 40.7644 91.1055 40.7644C90.5846 40.7644 90.1191 40.6147 89.709 40.3152C89.2988 40.0157 88.9766 39.5828 88.7422 39.0164C88.5078 38.4434 88.3906 37.7729 88.3906 37.0046C88.3906 36.1583 88.5762 35.185 88.9473 34.0847C89.3184 32.9779 89.7969 31.9102 90.3828 30.8816C90.9622 29.8464 91.5514 29.0098 92.1504 28.3718C92.7559 27.7273 93.2669 27.405 93.6836 27.405C93.8073 27.405 93.9733 27.4604 94.1816 27.571C94.39 27.6752 94.5592 27.7859 94.6895 27.9031ZM91.125 38.5378C91.457 38.5378 91.8639 38.2449 92.3457 37.6589C92.834 37.073 93.306 36.3308 93.7617 35.4324C94.2174 34.5339 94.5951 33.6029 94.8945 32.6394C95.194 31.6759 95.3438 30.836 95.3438 30.1199C95.3438 29.4167 95.1647 29.0652 94.8066 29.0652C94.5658 29.0652 94.2109 29.3516 93.7422 29.9246C93.2799 30.504 92.8047 31.2494 92.3164 32.1609C91.8281 33.0723 91.4245 34.0098 91.1055 34.9734C90.7865 35.9304 90.627 36.7931 90.627 37.5613C90.627 38.2123 90.793 38.5378 91.125 38.5378Z" fill="black"/>
</svg>
