<svg width="125" height="52" viewBox="0 0 125 52" fill="none" xmlns="http://www.w3.org/2000/svg">
<path d="M5.73301 6.1644C4.83967 6.53774 4.14634 7.09774 3.65301 7.8444C3.17301 8.59107 2.93301 9.49107 2.93301 10.5444C2.93301 11.0377 2.97967 11.3844 3.07301 11.5844C3.16634 11.7711 3.21301 11.8777 3.21301 11.9044C2.49301 11.9044 1.95301 11.7577 1.59301 11.4644C1.24634 11.1577 1.07301 10.6577 1.07301 9.9644C1.07301 9.11107 1.41967 8.2844 2.11301 7.4844C2.81967 6.67107 3.71967 6.01774 4.81301 5.5244C5.90634 5.01774 6.99967 4.7644 8.09301 4.7644C8.27967 4.7644 8.54634 4.77774 8.89301 4.8044L6.01301 18.2844H8.35301L11.233 4.8044H14.113L11.233 18.2844H13.773L16.653 4.8044H19.533L16.353 19.7644H2.83301L5.73301 6.1644ZM20.478 9.0244H23.358L23.038 10.5244C23.7047 9.95107 24.4847 9.6644 25.378 9.6644C26.1247 9.6644 26.718 9.91107 27.158 10.4044C27.598 10.8977 27.818 11.7044 27.818 12.8244C27.818 13.8777 27.6647 14.9444 27.358 16.0244C27.0513 17.0911 26.5313 18.0044 25.798 18.7644C25.0647 19.5111 24.098 19.8844 22.898 19.8844C22.0447 19.8844 21.478 19.6444 21.198 19.1644L20.158 24.0444L17.138 24.7644L20.478 9.0244ZM22.278 18.1444C22.918 18.1444 23.4447 17.8444 23.858 17.2444C24.2847 16.6444 24.5913 15.9311 24.778 15.1044C24.978 14.2644 25.078 13.4844 25.078 12.7644C25.078 11.6577 24.7447 11.1044 24.078 11.1044C23.838 11.1044 23.5913 11.1911 23.338 11.3644C23.098 11.5377 22.8847 11.7777 22.698 12.0844L21.518 17.6844C21.6247 17.9911 21.878 18.1444 22.278 18.1444ZM30.2935 19.8844C29.6535 19.8844 29.1335 19.6844 28.7335 19.2844C28.3468 18.8844 28.1535 18.2844 28.1535 17.4844C28.1535 17.1511 28.2068 16.7177 28.3135 16.1844L29.6735 9.7644H32.5535L31.1135 16.5644C31.0735 16.7644 31.0535 16.9511 31.0535 17.1244C31.0535 17.6711 31.2535 17.9444 31.6535 17.9444C32.0268 17.9444 32.3468 17.7911 32.6135 17.4844C32.8801 17.1644 33.0935 16.7311 33.2535 16.1844L34.6135 9.7644H37.4935L36.0535 16.5644C36.0001 16.7644 35.9735 16.9777 35.9735 17.2044C35.9735 17.4711 36.0335 17.6644 36.1535 17.7844C36.2868 17.8911 36.5001 17.9444 36.7935 17.9444C37.1668 17.9444 37.4868 17.7844 37.7535 17.4644C38.0335 17.1444 38.2535 16.7177 38.4135 16.1844H39.2535C38.7601 17.6244 38.1468 18.6044 37.4135 19.1244C36.6935 19.6311 35.9668 19.8844 35.2335 19.8844C34.6601 19.8844 34.2001 19.7244 33.8535 19.4044C33.5201 19.0844 33.3201 18.6111 33.2535 17.9844C32.8001 18.7177 32.3201 19.2177 31.8135 19.4844C31.3201 19.7511 30.8135 19.8844 30.2935 19.8844ZM43.2111 18.7844C42.5311 19.5177 41.7578 19.8844 40.8911 19.8844C40.0245 19.8844 39.3445 19.6177 38.8511 19.0844C38.3711 18.5511 38.1311 17.7444 38.1311 16.6644C38.1311 15.1577 38.5511 13.6577 39.3911 12.1644C39.8045 11.4177 40.3511 10.8177 41.0311 10.3644C41.7111 9.89774 42.4578 9.6644 43.2711 9.6644C44.3645 9.6644 44.9111 10.0311 44.9111 10.7644L45.9111 6.1644L48.6711 5.7644L47.5911 10.5244C48.2445 9.95107 49.0245 9.6644 49.9311 9.6644C51.5578 9.6644 52.3711 10.7177 52.3711 12.8244C52.3711 14.1044 52.1978 15.2777 51.8511 16.3444C51.5045 17.3977 50.9511 18.2511 50.1911 18.9044C49.4445 19.5577 48.5045 19.8844 47.3711 19.8844C46.5711 19.8844 46.0311 19.6444 45.7511 19.1644L44.7111 24.0444L41.8911 24.7644L43.2111 18.7844ZM41.4711 17.7644C41.5911 17.8844 41.7645 17.9444 41.9911 17.9444C42.2978 17.9444 42.6111 17.8244 42.9311 17.5844C43.2511 17.3444 43.4911 16.9911 43.6511 16.5244L44.7111 11.5844C44.6311 11.1311 44.3378 10.9044 43.8311 10.9044C43.3511 10.9044 42.8778 11.2377 42.4111 11.9044C41.9711 12.5577 41.6378 13.3044 41.4111 14.1444C41.1845 15.0511 41.0711 15.7911 41.0711 16.3644C41.0711 16.7511 41.1111 17.0644 41.1911 17.3044C41.2711 17.5311 41.3645 17.6844 41.4711 17.7644ZM46.8311 18.1444C47.4045 18.1444 47.9045 17.8777 48.3311 17.3444C48.7578 16.8111 49.0778 16.1311 49.2911 15.3044C49.5178 14.4777 49.6311 13.6311 49.6311 12.7644C49.6311 11.6577 49.2978 11.1044 48.6311 11.1044C48.0845 11.1044 47.6245 11.4311 47.2511 12.0844L46.0711 17.6844C46.1778 17.9911 46.4311 18.1444 46.8311 18.1444ZM64.9968 19.8844C64.2901 19.8844 63.7768 19.6711 63.4568 19.2444C63.1368 18.8177 62.9768 18.2777 62.9768 17.6244C62.9768 17.3444 63.0101 17.0311 63.0768 16.6844C63.1434 16.3244 63.2101 15.9777 63.2768 15.6444C63.3568 15.3111 63.4101 15.0977 63.4368 15.0044C63.5434 14.5377 63.6434 14.0777 63.7368 13.6244C63.8301 13.1711 63.8768 12.8044 63.8768 12.5244C63.8768 11.8444 63.6368 11.5044 63.1568 11.5044C62.8101 11.5044 62.5034 11.6777 62.2368 12.0244C61.9701 12.3577 61.7568 12.7977 61.5968 13.3444L60.2368 19.7644H57.3568L58.8168 12.8644C58.8568 12.7044 58.8768 12.5377 58.8768 12.3644C58.8768 11.7777 58.6768 11.4844 58.2768 11.4844C57.9034 11.4844 57.5768 11.6577 57.2968 12.0044C57.0301 12.3377 56.8168 12.7844 56.6568 13.3444L55.2968 19.7644H52.4168L54.5368 9.7644H57.4168L57.1968 10.8044C57.8768 10.0444 58.6901 9.6644 59.6368 9.6644C60.8101 9.6644 61.4968 10.2377 61.6968 11.3844C62.4301 10.2511 63.3568 9.6844 64.4768 9.6844C65.1568 9.6844 65.6968 9.87107 66.0968 10.2444C66.4968 10.6177 66.6968 11.1844 66.6968 11.9444C66.6968 12.3311 66.6501 12.7644 66.5568 13.2444C66.4634 13.7111 66.3301 14.2844 66.1568 14.9644C66.0501 15.3777 65.9501 15.7844 65.8568 16.1844C65.7768 16.5711 65.7368 16.8777 65.7368 17.1044C65.7368 17.3711 65.7968 17.5777 65.9168 17.7244C66.0368 17.8711 66.2434 17.9444 66.5368 17.9444C66.8568 17.9444 67.0768 17.9044 67.1968 17.8244C67.1168 18.5044 66.8701 19.0177 66.4568 19.3644C66.0568 19.7111 65.5701 19.8844 64.9968 19.8844ZM82.7161 24.7644C82.1161 24.7644 81.5228 24.5911 80.9361 24.2444C80.3628 23.9111 79.6295 23.3911 78.7361 22.6844C78.0695 22.1511 77.4961 21.7177 77.0161 21.3844C76.5495 21.0644 76.0361 20.7911 75.4761 20.5644C74.9295 20.3377 74.3695 20.2244 73.7961 20.2244C73.5961 20.2244 73.4428 20.2311 73.3361 20.2444L76.3161 6.3844C75.4228 6.7444 74.7295 7.29774 74.2361 8.0444C73.7561 8.77774 73.5161 9.67774 73.5161 10.7444C73.5161 11.2377 73.5628 11.5844 73.6561 11.7844C73.7495 11.9711 73.7961 12.0777 73.7961 12.1044C73.0761 12.1044 72.5361 11.9577 72.1761 11.6644C71.8295 11.3577 71.6561 10.8577 71.6561 10.1644C71.6561 9.31107 72.0028 8.4844 72.6961 7.6844C73.4028 6.87107 74.3028 6.21774 75.3961 5.7244C76.4895 5.21774 77.5828 4.9644 78.6761 4.9644C78.8628 4.9644 79.1295 4.97774 79.4761 5.0044L76.3961 19.3644C76.7695 19.4577 77.1495 19.5911 77.5361 19.7644C77.9361 19.9511 78.4161 20.1977 78.9761 20.5044C79.8428 20.9711 80.5828 21.3244 81.1961 21.5644C81.8095 21.8177 82.4495 21.9444 83.1161 21.9444C83.7161 21.9444 84.2761 21.8377 84.7961 21.6244C84.6895 22.5977 84.4495 23.3644 84.0761 23.9244C83.7161 24.4844 83.2628 24.7644 82.7161 24.7644ZM82.0343 19.8444C81.0476 19.8444 80.2676 19.5911 79.6943 19.0844C79.1209 18.5777 78.8343 17.7777 78.8343 16.6844C78.8343 15.7777 79.0209 14.7711 79.3943 13.6644C79.7676 12.5577 80.3676 11.6044 81.1943 10.8044C82.0209 9.99107 83.0609 9.5844 84.3143 9.5844C86.0209 9.5844 86.8743 10.6511 86.8743 12.7844V12.8044C86.9143 12.8177 86.9876 12.8244 87.0943 12.8244C87.5343 12.8244 88.0409 12.7111 88.6143 12.4844C89.1876 12.2444 89.7076 11.9577 90.1743 11.6244L90.3543 12.1644C89.9676 12.5777 89.4609 12.9311 88.8343 13.2244C88.2209 13.5044 87.5476 13.7044 86.8143 13.8244C86.7076 15.0377 86.4343 16.0977 85.9943 17.0044C85.5543 17.9111 84.9876 18.6111 84.2943 19.1044C83.6009 19.5977 82.8476 19.8444 82.0343 19.8444ZM82.8343 18.0444C83.1543 18.0444 83.4743 17.8644 83.7943 17.5044C84.1143 17.1311 84.3943 16.6311 84.6343 16.0044C84.8743 15.3644 85.0476 14.6577 85.1543 13.8844C84.7943 13.8044 84.6143 13.5244 84.6143 13.0444C84.6143 12.4977 84.8209 12.1377 85.2343 11.9644C85.2076 11.5244 85.1409 11.2244 85.0343 11.0644C84.9276 10.8911 84.7409 10.8044 84.4743 10.8044C84.0343 10.8044 83.6076 11.1244 83.1943 11.7644C82.7809 12.4044 82.4476 13.1711 82.1943 14.0644C81.9409 14.9577 81.8143 15.7444 81.8143 16.4244C81.8143 17.0644 81.8876 17.4977 82.0343 17.7244C82.1809 17.9377 82.4476 18.0444 82.8343 18.0444ZM90.5633 19.8844C89.6567 19.8844 88.9633 19.6644 88.4833 19.2244C88.0033 18.7711 87.7633 18.1377 87.7633 17.3244C87.7633 16.9244 87.81 16.5444 87.9033 16.1844L90.0433 6.1644L93.0033 5.7644L92.0433 10.2644C92.4167 10.0377 92.7233 9.89107 92.9633 9.8244C93.2033 9.7444 93.4433 9.7044 93.6833 9.7044C95.15 9.7044 95.9367 10.7044 96.0433 12.7044C96.95 12.5311 97.9767 11.4777 99.1233 9.5444L102.083 9.1444C102.15 10.8511 102.263 12.6977 102.423 14.6844C102.49 15.4844 102.523 16.0644 102.523 16.4244C102.523 16.6911 102.503 16.9377 102.463 17.1644C102.863 16.9377 103.337 16.6111 103.883 16.1844H104.723C103.99 17.0377 103.063 17.8177 101.943 18.5244C101.61 19.0044 101.183 19.3511 100.663 19.5644C100.157 19.7777 99.6033 19.8844 99.0033 19.8844C97.9367 19.8844 97.2033 19.6311 96.8033 19.1244C96.4167 18.6177 96.2233 17.9844 96.2233 17.2244C96.2233 16.6644 96.37 16.2111 96.6633 15.8644C96.9567 15.5044 97.29 15.3244 97.6633 15.3244C98.3567 15.3244 98.7033 15.6044 98.7033 16.1644C98.7033 16.4044 98.61 16.6177 98.4233 16.8044C98.2367 16.9777 98.01 17.0644 97.7433 17.0644C97.4633 17.0644 97.2833 16.9777 97.2033 16.8044C97.2033 17.2844 97.2967 17.6577 97.4833 17.9244C97.6833 18.1777 97.9767 18.3044 98.3633 18.3044C98.8167 18.3044 99.1367 18.1711 99.3233 17.9044C99.5233 17.6244 99.6233 17.1377 99.6233 16.4444C99.6233 16.0444 99.5833 15.5377 99.5033 14.9244C99.37 13.6444 99.2633 12.3377 99.1833 11.0044C98.2633 12.3911 97.21 13.2911 96.0233 13.7044C95.9567 14.6377 95.73 15.5777 95.3433 16.5244C94.9567 17.4577 94.3633 18.2511 93.5633 18.9044C92.7767 19.5577 91.7767 19.8844 90.5633 19.8844ZM91.6833 17.9444C92.0433 17.9444 92.3833 17.7444 92.7033 17.3444C93.0367 16.9311 93.31 16.4044 93.5233 15.7644C93.75 15.1244 93.9033 14.4711 93.9833 13.8044C93.77 13.6444 93.6633 13.3777 93.6633 13.0044C93.6633 12.6711 93.75 12.3977 93.9233 12.1844C93.8433 11.8644 93.7233 11.6111 93.5633 11.4244C93.4033 11.2244 93.2033 11.1244 92.9633 11.1244C92.7633 11.1244 92.5367 11.1577 92.2833 11.2244C92.0433 11.2777 91.8767 11.3644 91.7833 11.4844L90.6833 16.5644C90.6433 16.7244 90.6233 16.8777 90.6233 17.0244C90.6233 17.6377 90.9767 17.9444 91.6833 17.9444ZM105.86 19.8844C105.22 19.8844 104.7 19.6844 104.3 19.2844C103.913 18.8844 103.72 18.2844 103.72 17.4844C103.72 17.1511 103.773 16.7177 103.88 16.1844L105.08 10.5644H104.42L104.58 9.7644H105.24L105.84 7.0044L108.8 6.6044L108.12 9.7644H109.32L109.16 10.5644H107.96L106.68 16.5644C106.627 16.7644 106.6 16.9777 106.6 17.2044C106.6 17.4711 106.66 17.6644 106.78 17.7844C106.913 17.8911 107.127 17.9444 107.42 17.9444C107.807 17.9444 108.167 17.7844 108.5 17.4644C108.833 17.1311 109.073 16.7044 109.22 16.1844H110.06C109.567 17.6244 108.933 18.6044 108.16 19.1244C107.387 19.6311 106.62 19.8844 105.86 19.8844ZM112.072 19.8844C111.085 19.8844 110.319 19.6311 109.772 19.1244C109.225 18.6044 108.952 17.7977 108.952 16.7044C108.952 15.7844 109.132 14.7711 109.492 13.6644C109.852 12.5577 110.439 11.6044 111.252 10.8044C112.065 9.99107 113.099 9.5844 114.352 9.5844C115.819 9.5844 116.552 10.2244 116.552 11.5044C116.552 12.2511 116.339 12.9377 115.912 13.5644C115.485 14.1911 114.919 14.6977 114.212 15.0844C113.505 15.4577 112.752 15.6711 111.952 15.7244C111.925 16.1244 111.912 16.3911 111.912 16.5244C111.912 17.1777 112.025 17.6244 112.252 17.8644C112.479 18.0911 112.845 18.2044 113.352 18.2044C114.072 18.2044 114.685 18.0377 115.192 17.7044C115.712 17.3711 116.279 16.8644 116.892 16.1844H117.572C116.092 18.6511 114.259 19.8844 112.072 19.8844ZM112.112 14.7644C112.605 14.7377 113.072 14.5644 113.512 14.2444C113.965 13.9244 114.325 13.5177 114.592 13.0244C114.872 12.5311 115.012 12.0111 115.012 11.4644C115.012 10.9177 114.845 10.6444 114.512 10.6444C114.032 10.6444 113.559 11.0644 113.092 11.9044C112.639 12.7444 112.312 13.6977 112.112 14.7644ZM118.248 9.7644H121.128L120.868 11.0044C121.321 10.6044 121.728 10.2977 122.088 10.0844C122.461 9.87107 122.861 9.7644 123.288 9.7644C123.714 9.7644 124.048 9.91107 124.288 10.2044C124.541 10.4977 124.668 10.8511 124.668 11.2644C124.668 11.6511 124.541 11.9911 124.288 12.2844C124.034 12.5777 123.681 12.7244 123.228 12.7244C122.934 12.7244 122.734 12.6577 122.628 12.5244C122.534 12.3777 122.461 12.1711 122.408 11.9044C122.368 11.7311 122.328 11.6044 122.288 11.5244C122.248 11.4444 122.174 11.4044 122.068 11.4044C121.788 11.4044 121.548 11.4644 121.348 11.5844C121.161 11.6911 120.914 11.8844 120.608 12.1644L119.008 19.7644H116.128L118.248 9.7644Z" fill="black"/>
<path d="M3.89301 35.2844H1.99301L2.23301 34.3644C2.96634 34.3644 3.72634 34.2644 4.51301 34.0644C5.29967 33.8644 6.23301 33.4444 7.31301 32.8044L4.13301 47.7644H1.25301L3.89301 35.2844ZM13.636 48.0044C13.3693 48.0044 13.0893 47.9711 12.796 47.9044C12.516 47.8377 12.1693 47.7444 11.756 47.6244C11.2626 47.4777 10.856 47.3711 10.536 47.3044C10.216 47.2377 9.88264 47.2044 9.53598 47.2044C8.78931 47.2044 8.05598 47.3977 7.33598 47.7844H7.25598C7.17598 47.4644 7.13598 47.1511 7.13598 46.8444C7.13598 46.2844 7.27598 45.7377 7.55598 45.2044C7.84931 44.6577 8.20264 44.1577 8.61598 43.7044C9.02931 43.2511 9.59598 42.6711 10.316 41.9644C11.076 41.2311 11.6893 40.6044 12.156 40.0844C12.6226 39.5511 13.016 38.9711 13.336 38.3444C13.656 37.7044 13.816 37.0377 13.816 36.3444C13.816 35.5844 13.6893 34.9844 13.436 34.5444C13.196 34.1044 12.8226 33.8844 12.316 33.8844C11.8493 33.8844 11.4693 34.0444 11.176 34.3644C10.8826 34.6711 10.736 35.0511 10.736 35.5044C10.736 35.9577 10.8226 36.3644 10.996 36.7244C11.1826 37.0711 11.416 37.3244 11.696 37.4844V37.5644C11.4693 37.7777 11.2226 37.9444 10.956 38.0644C10.6893 38.1844 10.4293 38.2444 10.176 38.2444C9.76264 38.2444 9.41598 38.0577 9.13598 37.6844C8.86931 37.3111 8.73598 36.8044 8.73598 36.1644C8.73598 35.6044 8.89598 35.0644 9.21598 34.5444C9.54931 34.0244 10.036 33.5977 10.676 33.2644C11.316 32.9311 12.0693 32.7644 12.936 32.7644C14.096 32.7644 15.0293 33.0911 15.736 33.7444C16.456 34.3844 16.816 35.2711 16.816 36.4044C16.816 37.1244 16.6293 37.7911 16.256 38.4044C15.896 39.0177 15.4493 39.5644 14.916 40.0444C14.3826 40.5244 13.6693 41.1044 12.776 41.7844C11.896 42.4511 11.196 43.0244 10.676 43.5044C10.156 43.9844 9.75598 44.4911 9.47598 45.0244C9.86264 44.9177 10.276 44.8644 10.716 44.8644C11.036 44.8644 11.3693 44.8911 11.716 44.9444C12.0626 44.9977 12.3893 45.0577 12.696 45.1244C12.7493 45.1377 12.9226 45.1777 13.216 45.2444C13.5226 45.2977 13.796 45.3244 14.036 45.3244C14.396 45.3244 14.7293 45.2511 15.036 45.1044C15.3426 44.9444 15.6626 44.6777 15.996 44.3044L16.056 44.3444C16.2293 44.8377 16.316 45.2511 16.316 45.5844C16.316 46.0511 16.1893 46.4711 15.936 46.8444C15.696 47.2044 15.3693 47.4911 14.956 47.7044C14.5426 47.9044 14.1026 48.0044 13.636 48.0044ZM21.4174 47.8644C20.4707 47.8644 19.5707 47.6311 18.7174 47.1644C17.864 46.6977 17.4374 45.7977 17.4374 44.4644C17.4374 43.5977 17.644 42.9044 18.0574 42.3844C18.484 41.8644 19.084 41.6044 19.8574 41.6044C20.764 41.6044 21.284 41.9444 21.4174 42.6244C20.7374 42.6644 20.2707 42.8977 20.0174 43.3244C19.7774 43.7511 19.6574 44.2377 19.6574 44.7844C19.6574 45.3577 19.824 45.8044 20.1574 46.1244C20.4907 46.4444 20.8974 46.6044 21.3774 46.6044C21.804 46.6044 22.2107 46.4777 22.5974 46.2244C22.9974 45.9711 23.324 45.5844 23.5774 45.0644C23.8307 44.5444 23.9574 43.9177 23.9574 43.1844C23.9574 42.3711 23.7307 41.6177 23.2774 40.9244C22.8374 40.2177 22.1774 39.7111 21.2974 39.4044C22.004 39.2044 22.6174 38.8911 23.1374 38.4644C23.6574 38.0244 24.0507 37.5444 24.3174 37.0244C24.584 36.4911 24.7174 35.9844 24.7174 35.5044C24.7174 35.0111 24.584 34.6177 24.3174 34.3244C24.0641 34.0177 23.6907 33.8644 23.1974 33.8644C22.7174 33.8644 22.3307 34.0111 22.0374 34.3044C21.7574 34.5844 21.6174 34.9577 21.6174 35.4244C21.6174 35.7444 21.6774 36.0444 21.7974 36.3244C21.9307 36.6044 22.124 36.7777 22.3774 36.8444C21.884 37.2977 21.3774 37.5244 20.8574 37.5244C20.444 37.5244 20.0974 37.3777 19.8174 37.0844C19.5507 36.7777 19.4174 36.3577 19.4174 35.8244C19.4174 35.2244 19.5974 34.6977 19.9574 34.2444C20.3307 33.7777 20.8307 33.4177 21.4574 33.1644C22.084 32.9111 22.784 32.7844 23.5574 32.7844C24.344 32.7844 25.0174 32.9177 25.5774 33.1844C26.1374 33.4511 26.5574 33.8044 26.8374 34.2444C27.1307 34.6844 27.2774 35.1711 27.2774 35.7044C27.2774 36.3977 27.0441 37.0777 26.5774 37.7444C26.1107 38.4111 25.4307 38.9711 24.5374 39.4244C25.3774 39.7044 26.004 40.1377 26.4174 40.7244C26.844 41.2977 27.0574 41.9644 27.0574 42.7244C27.0574 43.5511 26.8174 44.3644 26.3374 45.1644C25.8707 45.9511 25.204 46.5977 24.3374 47.1044C23.484 47.6111 22.5107 47.8644 21.4174 47.8644ZM37.2871 41.4844C37.2871 42.0044 37.0871 42.4644 36.6871 42.8644C36.2871 43.2644 35.7737 43.5244 35.1471 43.6444L34.2671 47.7644H31.4871L32.9871 43.4644L32.6071 43.3444C32.0737 43.1977 31.6537 43.0911 31.3471 43.0244C31.0404 42.9577 30.7137 42.9244 30.3671 42.9244C29.4871 42.9244 28.7671 43.0644 28.2071 43.3444H28.1271L27.7071 42.5644V42.4644C29.0804 40.8244 30.1537 39.3511 30.9271 38.0444C31.7004 36.7377 32.0871 35.4911 32.0871 34.3044C32.0871 33.9044 32.0337 33.4911 31.9271 33.0644C32.2071 32.9711 32.5404 32.9244 32.9271 32.9244C33.5271 32.9244 33.9937 33.0911 34.3271 33.4244C34.6604 33.7444 34.8271 34.1577 34.8271 34.6644C34.8271 35.2644 34.5604 35.9777 34.0271 36.8044C33.5071 37.6177 32.8604 38.4311 32.0871 39.2444C31.3271 40.0444 30.5804 40.7377 29.8471 41.3244L29.8671 41.3844C30.1071 41.2911 30.3871 41.2111 30.7071 41.1444C31.0404 41.0644 31.3537 41.0244 31.6471 41.0244C31.9804 41.0244 32.3804 41.0644 32.8471 41.1444C33.3137 41.2244 33.6071 41.2777 33.7271 41.3044L35.3471 36.6444H36.6271L35.6471 41.2844C36.1137 41.1111 36.5337 40.7977 36.9071 40.3444L36.9671 40.3844C37.1804 40.7577 37.2871 41.1244 37.2871 41.4844ZM41.2964 47.8644C40.1231 47.8644 39.2231 47.6111 38.5964 47.1044C37.9698 46.5977 37.6564 45.8777 37.6564 44.9444C37.6564 44.1044 37.8964 43.4311 38.3764 42.9244C38.8564 42.4044 39.4831 42.1444 40.2564 42.1444C41.0698 42.1444 41.5431 42.4844 41.6764 43.1644C41.1298 43.2311 40.6898 43.4311 40.3564 43.7644C40.0364 44.0844 39.8764 44.5044 39.8764 45.0244C39.8764 45.4911 40.0164 45.8577 40.2964 46.1244C40.5764 46.3911 40.9498 46.5244 41.4164 46.5244C42.1898 46.5244 42.8231 46.1777 43.3164 45.4844C43.8098 44.7911 44.0564 43.9044 44.0564 42.8244C44.0564 41.9044 43.8631 41.1977 43.4764 40.7044C43.0898 40.1977 42.5498 39.9444 41.8564 39.9444C41.1498 39.9444 40.2764 40.2444 39.2364 40.8444L38.9764 40.6644L40.5164 33.0844C42.0231 33.2577 43.1431 33.3444 43.8764 33.3444C45.0898 33.3444 46.2498 33.1577 47.3564 32.7844C47.3831 33.0777 47.3964 33.2977 47.3964 33.4444C47.3964 34.1377 47.2098 34.6977 46.8364 35.1244C46.4764 35.5511 45.8964 35.7644 45.0964 35.7644C44.7898 35.7644 44.4231 35.7311 43.9964 35.6644C43.5698 35.5977 43.1631 35.5244 42.7764 35.4444C42.4431 35.3777 42.1031 35.3177 41.7564 35.2644L40.9564 38.8844C41.8231 38.4711 42.6498 38.2644 43.4364 38.2644C44.5298 38.2644 45.3898 38.6377 46.0164 39.3844C46.6564 40.1177 46.9764 41.1177 46.9764 42.3844C46.9764 43.4644 46.7364 44.4177 46.2564 45.2444C45.7898 46.0711 45.1231 46.7177 44.2564 47.1844C43.4031 47.6377 42.4164 47.8644 41.2964 47.8644ZM52.1666 47.8644C50.7666 47.8644 49.7333 47.4511 49.0666 46.6244C48.4133 45.7844 48.0866 44.4377 48.0866 42.5844C48.0866 40.7977 48.3933 39.1577 49.0066 37.6644C49.6333 36.1577 50.4799 34.9711 51.5466 34.1044C52.6133 33.2244 53.7866 32.7844 55.0666 32.7844C55.9466 32.7844 56.6466 32.9911 57.1666 33.4044C57.6999 33.8177 57.9666 34.3644 57.9666 35.0444C57.9666 35.5644 57.8266 36.0044 57.5466 36.3644C57.2666 36.7111 56.9199 36.8844 56.5066 36.8844C56.2799 36.8844 56.0733 36.8244 55.8866 36.7044C55.6999 36.5844 55.5666 36.4311 55.4866 36.2444C55.6999 36.1377 55.8599 35.9777 55.9666 35.7644C56.0866 35.5511 56.1466 35.3244 56.1466 35.0844C56.1466 34.7777 56.0533 34.5177 55.8666 34.3044C55.6933 34.0777 55.4399 33.9644 55.1066 33.9644C54.5599 33.9644 54.0199 34.2511 53.4866 34.8244C52.9666 35.3977 52.4999 36.1911 52.0866 37.2044C51.6733 38.2044 51.3733 39.3244 51.1866 40.5644L51.2466 40.5444C51.4866 39.9311 51.8799 39.4644 52.4266 39.1444C52.9733 38.8244 53.6199 38.6644 54.3666 38.6644C55.2866 38.6644 56.0266 38.9777 56.5866 39.6044C57.1466 40.2177 57.4266 41.0577 57.4266 42.1244C57.4266 43.1111 57.1866 44.0444 56.7066 44.9244C56.2266 45.8044 55.5799 46.5177 54.7666 47.0644C53.9666 47.5977 53.0999 47.8644 52.1666 47.8644ZM52.5866 46.3044C52.9599 46.3044 53.3199 46.1244 53.6666 45.7644C54.0266 45.3911 54.3199 44.8911 54.5466 44.2644C54.7733 43.6244 54.8866 42.9311 54.8866 42.1844C54.8866 41.4644 54.7399 40.9377 54.4466 40.6044C54.1666 40.2577 53.7799 40.0844 53.2866 40.0844C51.7666 40.0844 51.0066 41.1844 51.0066 43.3844C51.0066 45.3311 51.5333 46.3044 52.5866 46.3044ZM61.5791 47.8444C60.9658 47.8444 60.4791 47.6311 60.1191 47.2044C59.7591 46.7644 59.5791 46.1711 59.5791 45.4244C59.5791 44.6244 59.7791 43.8044 60.1791 42.9644C60.5791 42.1244 61.0391 41.3511 61.5591 40.6444C62.0924 39.9244 62.7724 39.0777 63.5991 38.1044C64.2658 37.3044 64.7391 36.7111 65.0191 36.3244C65.3124 35.9244 65.4591 35.5977 65.4591 35.3444C65.2191 35.4111 64.9858 35.4711 64.7591 35.5244C64.5324 35.5777 64.3191 35.6044 64.1191 35.6044C63.7724 35.6044 63.3524 35.5311 62.8591 35.3844C62.8058 35.3711 62.6324 35.3311 62.3391 35.2644C62.0591 35.1977 61.7791 35.1644 61.4991 35.1644C61.1124 35.1644 60.7658 35.2444 60.4591 35.4044C60.1524 35.5644 59.8458 35.8311 59.5391 36.2044L59.4791 36.1844C59.3058 35.7977 59.2191 35.3911 59.2191 34.9644C59.2191 34.2577 59.4724 33.6977 59.9791 33.2844C60.4858 32.8577 61.1458 32.6444 61.9591 32.6444C62.2524 32.6444 62.5324 32.6711 62.7991 32.7244C63.0658 32.7644 63.3791 32.8377 63.7391 32.9444C64.1658 33.0644 64.5258 33.1511 64.8191 33.2044C65.1124 33.2577 65.4324 33.2844 65.7791 33.2844C66.5258 33.2844 67.4258 33.1444 68.4791 32.8644L68.4991 32.9444C68.4991 33.2511 68.3391 33.6844 68.0191 34.2444C67.7124 34.7911 67.2191 35.5911 66.5391 36.6444C65.7391 37.8844 65.0791 38.9511 64.5591 39.8444C64.0391 40.7244 63.5858 41.6644 63.1991 42.6644C62.8124 43.6511 62.6191 44.5644 62.6191 45.4044C62.6191 46.0977 62.7391 46.7844 62.9791 47.4644C62.5124 47.7177 62.0458 47.8444 61.5791 47.8444ZM73.9486 39.0044C74.5086 39.5244 74.9553 39.9777 75.2886 40.3644C75.6353 40.7511 75.9286 41.1977 76.1686 41.7044C76.4086 42.1977 76.5286 42.7311 76.5286 43.3044C76.5286 44.1311 76.2886 44.8977 75.8086 45.6044C75.342 46.2977 74.702 46.8511 73.8886 47.2644C73.0886 47.6777 72.2086 47.8844 71.2486 47.8844C70.3953 47.8844 69.6286 47.7244 68.9486 47.4044C68.282 47.0711 67.7553 46.6177 67.3686 46.0444C66.9953 45.4577 66.8086 44.7844 66.8086 44.0244C66.8086 43.0911 67.1153 42.2777 67.7286 41.5844C68.342 40.8777 69.302 40.2311 70.6086 39.6444C70.0353 39.0444 69.5886 38.4844 69.2686 37.9644C68.962 37.4311 68.8086 36.8577 68.8086 36.2444C68.8086 35.5777 69.002 34.9711 69.3886 34.4244C69.7753 33.8644 70.302 33.4244 70.9686 33.1044C71.6486 32.7844 72.3953 32.6244 73.2086 32.6244C73.9153 32.6244 74.5486 32.7444 75.1086 32.9844C75.6686 33.2244 76.102 33.5644 76.4086 34.0044C76.7286 34.4311 76.8886 34.9111 76.8886 35.4444C76.8886 36.7511 75.9086 37.9377 73.9486 39.0044ZM73.4286 33.5844C72.922 33.5844 72.4953 33.7711 72.1486 34.1444C71.8153 34.5044 71.6486 34.9711 71.6486 35.5444C71.6486 36.0244 71.7753 36.4777 72.0286 36.9044C72.282 37.3177 72.6486 37.7577 73.1286 38.2244C73.622 37.7844 74.0153 37.2844 74.3086 36.7244C74.602 36.1644 74.7486 35.6244 74.7486 35.1044C74.7486 34.6377 74.6286 34.2711 74.3886 34.0044C74.162 33.7244 73.842 33.5844 73.4286 33.5844ZM71.3486 46.5044C71.9486 46.5044 72.462 46.2644 72.8886 45.7844C73.3286 45.3044 73.5486 44.7377 73.5486 44.0844C73.5486 43.4577 73.3686 42.8711 73.0086 42.3244C72.6486 41.7777 72.122 41.1577 71.4286 40.4644C70.7886 40.8911 70.2953 41.4177 69.9486 42.0444C69.6153 42.6577 69.4486 43.3244 69.4486 44.0444C69.4486 44.7911 69.622 45.3911 69.9686 45.8444C70.3153 46.2844 70.7753 46.5044 71.3486 46.5044ZM80.2821 47.8244C79.4021 47.8244 78.6954 47.6177 78.1621 47.2044C77.6421 46.7911 77.3821 46.2444 77.3821 45.5644C77.3821 45.0444 77.5221 44.6044 77.8021 44.2444C78.0821 43.8844 78.4221 43.7044 78.8221 43.7044C79.0621 43.7044 79.2754 43.7644 79.4621 43.8844C79.6621 44.0044 79.7887 44.1577 79.8421 44.3444C79.6421 44.4644 79.4821 44.6311 79.3621 44.8444C79.2554 45.0444 79.2021 45.2577 79.2021 45.4844C79.2021 45.7644 79.2821 45.9977 79.4421 46.1844C79.6154 46.3711 79.8687 46.4644 80.2021 46.4644C80.7487 46.4644 81.2754 46.1777 81.7821 45.6044C82.2887 45.0311 82.7287 44.2377 83.1021 43.2244C83.4754 42.2111 83.7421 41.0844 83.9021 39.8444L83.8421 39.8644C83.6021 40.4777 83.2087 40.9444 82.6621 41.2644C82.1287 41.5844 81.4887 41.7444 80.7421 41.7444C79.8087 41.7444 79.0621 41.4377 78.5021 40.8244C77.9421 40.1977 77.6621 39.3511 77.6621 38.2844C77.6621 37.3111 77.9154 36.4044 78.4221 35.5644C78.9421 34.7111 79.6287 34.0311 80.4821 33.5244C81.3354 33.0177 82.2554 32.7644 83.2421 32.7644C84.4687 32.7644 85.3954 33.2111 86.0221 34.1044C86.6487 34.9844 86.9621 36.2911 86.9621 38.0244C86.9621 39.8244 86.6687 41.4711 86.0821 42.9644C85.4954 44.4577 84.6887 45.6444 83.6621 46.5244C82.6354 47.3911 81.5087 47.8244 80.2821 47.8244ZM81.6021 40.2844C82.4687 40.2844 83.1021 39.9577 83.5021 39.3044C83.9021 38.6511 84.1021 37.7511 84.1021 36.6044C84.1021 34.9111 83.6154 34.0644 82.6421 34.0644C82.2021 34.0644 81.7954 34.2711 81.4221 34.6844C81.0487 35.0844 80.7487 35.6044 80.5221 36.2444C80.3087 36.8844 80.2021 37.5444 80.2021 38.2244C80.2021 38.9311 80.3287 39.4511 80.5821 39.7844C80.8354 40.1177 81.1754 40.2844 81.6021 40.2844ZM91.7969 47.9644C90.3302 47.9644 89.2902 47.5177 88.6769 46.6244C88.0636 45.7311 87.7569 44.5111 87.7569 42.9644C87.7569 41.1244 88.0436 39.4177 88.6169 37.8444C89.1902 36.2711 89.9902 35.0177 91.0169 34.0844C92.0569 33.1377 93.2369 32.6644 94.5569 32.6644C95.8369 32.6644 96.7969 33.0911 97.4369 33.9444C98.0902 34.7977 98.4169 35.9711 98.4169 37.4644C98.4169 38.9444 98.1902 40.4977 97.7369 42.1244C97.2836 43.7377 96.5569 45.1177 95.5569 46.2644C94.5702 47.3977 93.3169 47.9644 91.7969 47.9644ZM92.0569 46.4644C92.6836 46.4644 93.2769 45.9844 93.8369 45.0244C94.3969 44.0644 94.8436 42.8311 95.1769 41.3244C95.5236 39.8177 95.6969 38.2977 95.6969 36.7644C95.6969 35.9244 95.5969 35.2311 95.3969 34.6844C95.1969 34.1244 94.9102 33.8444 94.5369 33.8444C93.9236 33.8444 93.3236 34.3311 92.7369 35.3044C92.1502 36.2777 91.6702 37.5177 91.2969 39.0244C90.9236 40.5311 90.7369 42.0111 90.7369 43.4644C90.7369 45.4644 91.1769 46.4644 92.0569 46.4644Z" fill="black"/>
</svg>
