<svg width="173" height="38" viewBox="0 0 173 38" fill="none" xmlns="http://www.w3.org/2000/svg">
<path d="M7.46299 3.5644H9.57499V13.0844H13.223C13.3083 13.0844 13.3937 13.0791 13.479 13.0684C13.5643 13.0471 13.639 12.9937 13.703 12.9084C13.7563 12.8231 13.783 12.7377 13.783 12.6524C13.7937 12.5564 13.799 12.4657 13.799 12.3804V3.5644H15.911V13.3404C15.911 13.4577 15.895 13.6231 15.863 13.8364C15.831 14.0391 15.7297 14.2257 15.559 14.3964C15.3777 14.5777 15.175 14.6844 14.951 14.7164C14.727 14.7484 14.5617 14.7644 14.455 14.7644H2.58299C2.41233 14.7644 2.23099 14.7431 2.03899 14.7004C1.84699 14.6577 1.66566 14.5564 1.49499 14.3964C1.31366 14.2257 1.20699 14.0551 1.17499 13.8844C1.14299 13.7031 1.12699 13.5217 1.12699 13.3404V3.5644H3.23899V12.3804C3.23899 12.4657 3.23899 12.5564 3.23899 12.6524C3.24966 12.7377 3.28166 12.8231 3.33499 12.9084C3.39899 12.9937 3.47366 13.0471 3.55899 13.0684C3.65499 13.0791 3.74566 13.0844 3.83099 13.0844H7.46299V3.5644ZM19.3821 14.7644V17.4844H17.5101V7.5964C17.5101 7.31907 17.5635 7.1004 17.6701 6.9404C17.7768 6.76974 17.8835 6.64174 17.9901 6.5564C18.1501 6.43907 18.3261 6.3644 18.5181 6.3324C18.7101 6.3004 18.8861 6.2844 19.0461 6.2844H22.0061C22.1448 6.2844 22.3101 6.29507 22.5021 6.3164C22.7048 6.32707 22.9181 6.3644 23.1421 6.4284C23.3768 6.4924 23.6115 6.5884 23.8461 6.7164C24.0808 6.83374 24.2995 6.99907 24.5021 7.2124C24.7155 7.4364 24.8808 7.68174 24.9981 7.9484C25.1261 8.21507 25.2168 8.48707 25.2701 8.7644C25.3341 9.04174 25.3715 9.31907 25.3821 9.5964C25.3928 9.86307 25.3981 10.1137 25.3981 10.3484C25.3981 10.6257 25.3928 10.9084 25.3821 11.1964C25.3715 11.4844 25.3395 11.7671 25.2861 12.0444C25.2435 12.3217 25.1741 12.5884 25.0781 12.8444C24.9928 13.1004 24.8755 13.3351 24.7261 13.5484C24.5235 13.8364 24.2941 14.0657 24.0381 14.2364C23.7928 14.3964 23.5315 14.5191 23.2541 14.6044C22.9875 14.6791 22.7208 14.7271 22.4541 14.7484C22.1981 14.7591 21.9635 14.7644 21.7501 14.7644H19.3821ZM19.3821 13.3244H21.5101C21.9795 13.3244 22.3368 13.2391 22.5821 13.0684C22.8275 12.8871 23.0035 12.7111 23.1101 12.5404C23.1955 12.4124 23.2755 12.1991 23.3501 11.9004C23.4248 11.6017 23.4621 11.1377 23.4621 10.5084C23.4621 9.9324 23.4355 9.5164 23.3821 9.2604C23.3395 8.99374 23.2915 8.80174 23.2381 8.6844C23.1208 8.40707 22.9235 8.17774 22.6461 7.9964C22.3688 7.81507 22.0221 7.7244 21.6061 7.7244H19.7661C19.7235 7.7244 19.6755 7.7404 19.6221 7.7724C19.5795 7.79374 19.5421 7.81507 19.5101 7.8364C19.4248 7.92174 19.3821 8.01774 19.3821 8.1244V13.3244ZM34.7516 14.7644H32.8796L32.9436 8.7324C32.9436 8.6684 32.9436 8.61507 32.9436 8.5724C32.9436 8.52974 32.9116 8.5084 32.8476 8.5084C32.8263 8.5084 32.7996 8.5244 32.7676 8.5564C32.7356 8.57774 32.6876 8.6364 32.6236 8.7324L28.8956 14.1884C28.7463 14.4124 28.5863 14.5831 28.4156 14.7004C28.245 14.8071 27.9996 14.8604 27.6796 14.8604C27.4023 14.8604 27.1836 14.8177 27.0236 14.7324C26.8636 14.6471 26.741 14.5457 26.6556 14.4284C26.5703 14.3111 26.5116 14.1831 26.4796 14.0444C26.4583 13.9057 26.4476 13.7777 26.4476 13.6604V6.2844H28.3196L28.2396 12.3164C28.2396 12.3911 28.245 12.4497 28.2556 12.4924C28.2663 12.5244 28.3036 12.5404 28.3676 12.5404C28.421 12.5404 28.4636 12.5191 28.4956 12.4764C28.5276 12.4231 28.5596 12.3697 28.5916 12.3164L32.3676 6.7644C32.5383 6.51907 32.725 6.3644 32.9276 6.3004C33.1303 6.22574 33.3276 6.1884 33.5196 6.1884C33.5836 6.1884 33.685 6.19907 33.8236 6.2204C33.9623 6.23107 34.0956 6.27907 34.2236 6.3644C34.3623 6.44974 34.485 6.57774 34.5916 6.7484C34.6983 6.91907 34.7516 7.1644 34.7516 7.4844V14.7644ZM40.9057 3.5644H42.7777V6.2844H44.5057C44.7297 6.2844 44.9644 6.3004 45.2097 6.3324C45.4657 6.3644 45.7164 6.4284 45.9617 6.5244C46.2071 6.60974 46.4417 6.74307 46.6657 6.9244C46.8897 7.09507 47.0924 7.3244 47.2737 7.6124C47.5724 8.0924 47.7431 8.59374 47.7857 9.1164C47.8391 9.63907 47.8657 10.1404 47.8657 10.6204C47.8657 11.1964 47.8284 11.7297 47.7537 12.2204C47.6791 12.7004 47.4817 13.1644 47.1617 13.6124C46.9591 13.8897 46.7404 14.1084 46.5057 14.2684C46.2817 14.4177 46.0471 14.5297 45.8017 14.6044C45.5671 14.6791 45.3324 14.7271 45.0977 14.7484C44.8631 14.7591 44.6444 14.7644 44.4417 14.7644H42.7777V17.4844H40.9057V14.7644H39.2257C39.0337 14.7644 38.8204 14.7591 38.5857 14.7484C38.3511 14.7271 38.1111 14.6791 37.8657 14.6044C37.6311 14.5297 37.3964 14.4177 37.1617 14.2684C36.9271 14.1084 36.7084 13.8897 36.5057 13.6124C36.1964 13.1964 35.9991 12.7271 35.9137 12.2044C35.8391 11.6817 35.8017 11.1537 35.8017 10.6204C35.8017 10.3964 35.8071 10.1564 35.8177 9.9004C35.8284 9.6444 35.8497 9.3884 35.8817 9.1324C35.9244 8.86574 35.9831 8.6044 36.0577 8.3484C36.1431 8.08174 36.2551 7.8364 36.3937 7.6124C36.5644 7.3244 36.7617 7.09507 36.9857 6.9244C37.2204 6.74307 37.4604 6.60974 37.7057 6.5244C37.9617 6.4284 38.2124 6.3644 38.4577 6.3324C38.7031 6.3004 38.9377 6.2844 39.1617 6.2844H40.9057V3.5644ZM40.9057 13.3244V7.7244H39.9297C39.8017 7.7244 39.6577 7.72974 39.4977 7.7404C39.3377 7.75107 39.1777 7.78307 39.0177 7.8364C38.8577 7.87907 38.6977 7.94307 38.5377 8.0284C38.3884 8.11374 38.2551 8.2364 38.1377 8.3964C37.9991 8.5884 37.8977 8.85507 37.8337 9.1964C37.7697 9.53774 37.7377 10.0177 37.7377 10.6364C37.7377 10.9991 37.7537 11.3457 37.7857 11.6764C37.8177 12.0071 37.9137 12.3057 38.0737 12.5724C38.2337 12.8497 38.4577 13.0471 38.7457 13.1644C39.0444 13.2711 39.4497 13.3244 39.9617 13.3244H40.9057ZM42.7777 13.3244H43.7057C44.2177 13.3244 44.6177 13.2711 44.9057 13.1644C45.2044 13.0471 45.4337 12.8497 45.5937 12.5724C45.7537 12.3057 45.8497 12.0071 45.8817 11.6764C45.9137 11.3457 45.9297 10.9991 45.9297 10.6364C45.9297 10.1031 45.9031 9.65507 45.8497 9.2924C45.7964 8.91907 45.6897 8.6204 45.5297 8.3964C45.4124 8.2364 45.2791 8.11374 45.1297 8.0284C44.9804 7.94307 44.8257 7.87907 44.6657 7.8364C44.5057 7.78307 44.3404 7.75107 44.1697 7.7404C44.0097 7.72974 43.8657 7.7244 43.7377 7.7244H42.7777V13.3244ZM53.3324 14.7644H51.4604V7.7244H48.2764V6.2844H56.5164V7.7244H53.3324V14.7644ZM72.6451 6.0764L69.7811 13.5484C69.6958 13.7617 69.6105 13.9537 69.5251 14.1244C69.4505 14.2844 69.3545 14.4231 69.2371 14.5404C69.1198 14.6577 68.9758 14.7431 68.8051 14.7964C68.6345 14.8604 68.4265 14.8924 68.1811 14.8924C67.9145 14.8924 67.6905 14.8551 67.5091 14.7804C67.3385 14.7057 67.1945 14.6097 67.0771 14.4924C66.9598 14.3644 66.8638 14.2204 66.7891 14.0604C66.7145 13.9004 66.6451 13.7297 66.5811 13.5484L63.7171 6.0764C63.6958 6.0124 63.6585 5.93774 63.6051 5.8524C63.5518 5.7564 63.4985 5.7084 63.4451 5.7084C63.3598 5.7084 63.3065 5.76174 63.2851 5.8684C63.2745 5.9644 63.2691 6.02307 63.2691 6.0444L63.3171 14.7644H61.2051V4.9084C61.2051 4.54574 61.2851 4.2684 61.4451 4.0764C61.6051 3.87374 61.7865 3.7244 61.9891 3.6284C62.1918 3.5324 62.3891 3.47907 62.5811 3.4684C62.7838 3.44707 62.9278 3.4364 63.0131 3.4364C63.3331 3.4364 63.5998 3.47374 63.8131 3.5484C64.0371 3.62307 64.2185 3.72974 64.3571 3.8684C64.5065 3.9964 64.6291 4.15107 64.7251 4.3324C64.8211 4.50307 64.9065 4.6844 64.9811 4.8764L67.8771 12.3484C67.9305 12.4657 67.9785 12.5671 68.0211 12.6524C68.0745 12.7271 68.1278 12.7644 68.1811 12.7644C68.2345 12.7644 68.2825 12.7271 68.3251 12.6524C68.3785 12.5671 68.4318 12.4657 68.4851 12.3484L71.3811 4.8764C71.4985 4.5564 71.6265 4.30574 71.7651 4.1244C71.9145 3.9324 72.0745 3.7884 72.2451 3.6924C72.4158 3.58574 72.5918 3.5164 72.7731 3.4844C72.9545 3.4524 73.1465 3.4364 73.3491 3.4364C73.8718 3.4364 74.3038 3.55374 74.6451 3.7884C74.9865 4.02307 75.1571 4.3964 75.1571 4.9084V14.7644H73.0451L73.1091 6.0444C73.1091 5.89507 73.0825 5.8044 73.0291 5.7724C72.9865 5.72974 72.9491 5.7084 72.9171 5.7084C72.8638 5.7084 72.8105 5.7564 72.7571 5.8524C72.7038 5.93774 72.6665 6.0124 72.6451 6.0764ZM77.1601 6.2844H81.9761C82.3388 6.2844 82.6748 6.34307 82.9841 6.4604C83.2935 6.57774 83.5441 6.73774 83.7361 6.9404C83.9175 7.12174 84.0668 7.38307 84.1841 7.7244C84.3015 8.05507 84.3601 8.4604 84.3601 8.9404V13.3404C84.3601 13.4897 84.3388 13.6711 84.2961 13.8844C84.2641 14.0977 84.1735 14.2791 84.0241 14.4284C83.8748 14.5777 83.6935 14.6737 83.4801 14.7164C83.2668 14.7484 83.0588 14.7644 82.8561 14.7644H78.8081C78.5735 14.7644 78.3175 14.7484 78.0401 14.7164C77.7735 14.6844 77.5175 14.5617 77.2721 14.3484C77.1015 14.1991 76.9628 14.0284 76.8561 13.8364C76.7601 13.6337 76.6855 13.4257 76.6321 13.2124C76.5895 12.9991 76.5628 12.7911 76.5521 12.5884C76.5415 12.3857 76.5361 12.2044 76.5361 12.0444C76.5361 11.6711 76.5735 11.3031 76.6481 10.9404C76.7335 10.5777 76.9361 10.2577 77.2561 9.9804C77.5228 9.74574 77.7895 9.60707 78.0561 9.5644C78.3335 9.51107 78.5841 9.4844 78.8081 9.4844H82.4881V8.8924C82.4881 8.7644 82.4721 8.63107 82.4401 8.4924C82.4188 8.35374 82.3548 8.2204 82.2481 8.0924C82.1201 7.9324 81.9708 7.83107 81.8001 7.7884C81.6401 7.74574 81.4855 7.7244 81.3361 7.7244H77.1601V6.2844ZM82.4881 10.9244H79.3681C79.3041 10.9244 79.1975 10.9404 79.0481 10.9724C78.9095 10.9937 78.7868 11.0737 78.6801 11.2124C78.6481 11.2551 78.6055 11.3404 78.5521 11.4684C78.4988 11.5964 78.4721 11.8151 78.4721 12.1244C78.4721 12.2524 78.4828 12.4124 78.5041 12.6044C78.5361 12.7964 78.6108 12.9511 78.7281 13.0684C78.7921 13.1324 78.8775 13.1911 78.9841 13.2444C79.1015 13.2977 79.2188 13.3244 79.3361 13.3244H81.9441C81.9975 13.3244 82.0615 13.3244 82.1361 13.3244C82.2215 13.3137 82.2961 13.2817 82.3601 13.2284C82.4241 13.1751 82.4615 13.1217 82.4721 13.0684C82.4828 13.0044 82.4881 12.9404 82.4881 12.8764V10.9244ZM91.6351 14.7644H88.6271C88.4031 14.7644 88.1738 14.7537 87.9391 14.7324C87.7151 14.7111 87.4911 14.6684 87.2671 14.6044C87.0431 14.5297 86.8245 14.4231 86.6111 14.2844C86.4085 14.1351 86.2271 13.9324 86.0671 13.6764C85.6298 12.9937 85.4111 11.9004 85.4111 10.3964C85.4111 9.7244 85.4645 9.12707 85.5711 8.6044C85.6885 8.08174 85.9338 7.61774 86.3071 7.2124C86.5098 6.9884 86.7178 6.81774 86.9311 6.7004C87.1445 6.5724 87.3631 6.48174 87.5871 6.4284C87.8111 6.3644 88.0351 6.32707 88.2591 6.3164C88.4831 6.29507 88.7018 6.2844 88.9151 6.2844H91.6511C91.8965 6.2844 92.1365 6.3004 92.3711 6.3324C92.6058 6.3644 92.8245 6.4604 93.0271 6.6204C93.2405 6.80174 93.3738 7.00974 93.4271 7.2444C93.4911 7.4684 93.5231 7.67107 93.5231 7.8524V13.8044C93.5231 14.3484 93.4751 14.8551 93.3791 15.3244C93.2938 15.7937 93.1125 16.1991 92.8351 16.5404C92.6431 16.7751 92.4138 16.9564 92.1471 17.0844C91.8805 17.2231 91.6138 17.3244 91.3471 17.3884C91.0805 17.4631 90.8245 17.5111 90.5791 17.5324C90.3445 17.5537 90.1525 17.5644 90.0031 17.5644H86.0031V16.1244H89.5711C89.7738 16.1244 90.0298 16.1031 90.3391 16.0604C90.6485 16.0284 90.9151 15.9217 91.1391 15.7404C91.4165 15.4951 91.5818 15.1697 91.6351 14.7644ZM91.6511 13.3244V8.3964C91.6511 8.27907 91.6351 8.17774 91.6031 8.0924C91.5818 8.00707 91.5178 7.92707 91.4111 7.8524C91.3258 7.79907 91.2405 7.76707 91.1551 7.7564C91.0805 7.73507 91.0005 7.7244 90.9151 7.7244H89.3151C89.0058 7.7244 88.7231 7.7724 88.4671 7.8684C88.2111 7.95374 88.0085 8.08174 87.8591 8.2524C87.7311 8.40174 87.6298 8.5884 87.5551 8.8124C87.4911 9.02574 87.4431 9.2444 87.4111 9.4684C87.3791 9.6924 87.3578 9.90574 87.3471 10.1084C87.3471 10.3004 87.3471 10.4444 87.3471 10.5404C87.3471 10.9244 87.3631 11.2497 87.3951 11.5164C87.4271 11.7724 87.4645 11.9911 87.5071 12.1724C87.5605 12.3431 87.6138 12.4817 87.6671 12.5884C87.7205 12.6951 87.7738 12.7751 87.8271 12.8284C88.0405 13.0737 88.2911 13.2177 88.5791 13.2604C88.8671 13.3031 89.1498 13.3244 89.4271 13.3244H91.6511ZM94.807 14.7644V6.2844H96.679V14.7644H94.807ZM96.679 5.0524H94.807V3.5644H96.679V5.0524ZM97.8512 14.7644V13.3244H102.619C102.715 13.3244 102.822 13.3137 102.939 13.2924C103.057 13.2604 103.158 13.1911 103.243 13.0844C103.329 12.9991 103.377 12.9084 103.387 12.8124C103.398 12.7057 103.403 12.6204 103.403 12.5564C103.403 12.4391 103.387 12.3271 103.355 12.2204C103.334 12.1137 103.27 12.0124 103.163 11.9164C103.131 11.8844 103.089 11.8577 103.035 11.8364C102.982 11.8044 102.897 11.7671 102.779 11.7244C102.673 11.6817 102.529 11.6337 102.347 11.5804C102.166 11.5271 101.926 11.4577 101.627 11.3724L99.9952 10.9244C99.5472 10.8071 99.1686 10.6684 98.8592 10.5084C98.5499 10.3377 98.3099 10.1351 98.1392 9.9004C97.9686 9.66574 97.8566 9.4204 97.8032 9.1644C97.7606 8.9084 97.7392 8.67374 97.7392 8.4604C97.7392 8.24707 97.7606 8.0124 97.8032 7.7564C97.8566 7.5004 97.9686 7.25507 98.1392 7.0204C98.2672 6.84974 98.4112 6.7164 98.5712 6.6204C98.7312 6.51374 98.8966 6.43907 99.0672 6.3964C99.2486 6.34307 99.4299 6.31107 99.6112 6.3004C99.8032 6.28974 99.9899 6.2844 100.171 6.2844H104.955V7.7244H100.459C100.353 7.7244 100.241 7.72974 100.123 7.7404C100.017 7.75107 99.9099 7.79907 99.8032 7.8844C99.6859 7.96974 99.6166 8.06574 99.5952 8.1724C99.5739 8.2684 99.5632 8.37507 99.5632 8.4924C99.5632 8.60974 99.5739 8.72174 99.5952 8.8284C99.6272 8.93507 99.7072 9.04174 99.8352 9.1484C99.8992 9.20174 99.9792 9.24974 100.075 9.2924C100.171 9.33507 100.267 9.37774 100.363 9.4204C100.47 9.4524 100.571 9.4844 100.667 9.5164C100.763 9.5484 100.838 9.56974 100.891 9.5804L102.715 10.0924C103.227 10.2417 103.654 10.3857 103.995 10.5244C104.337 10.6524 104.614 10.8284 104.827 11.0524C105.062 11.2977 105.206 11.5591 105.259 11.8364C105.323 12.1137 105.355 12.3697 105.355 12.6044C105.355 12.7111 105.35 12.8444 105.339 13.0044C105.329 13.1537 105.297 13.3137 105.243 13.4844C105.201 13.6551 105.131 13.8204 105.035 13.9804C104.939 14.1404 104.806 14.2844 104.635 14.4124C104.422 14.5724 104.193 14.6737 103.947 14.7164C103.713 14.7484 103.489 14.7644 103.275 14.7644H97.8512ZM111.232 14.7644H110.064C109.488 14.7644 109.03 14.7164 108.688 14.6204C108.358 14.5137 108.059 14.3537 107.792 14.1404C107.515 13.9164 107.302 13.6391 107.152 13.3084C107.014 12.9777 106.944 12.5404 106.944 11.9964V7.7244H105.776V6.2844H106.944V3.5644H108.816V6.2844H111.184V7.7244H108.816V11.1324C108.816 11.2817 108.816 11.4417 108.816 11.6124C108.816 11.7724 108.827 11.9324 108.848 12.0924C108.88 12.2524 108.928 12.4124 108.992 12.5724C109.067 12.7217 109.174 12.8497 109.312 12.9564C109.526 13.1377 109.776 13.2444 110.064 13.2764C110.363 13.3084 110.598 13.3244 110.768 13.3244H111.232V14.7644ZM111.869 14.7644V9.4844C111.869 9.01507 111.923 8.56707 112.029 8.1404C112.147 7.70307 112.387 7.32974 112.749 7.0204C112.941 6.84974 113.149 6.7164 113.373 6.6204C113.608 6.51374 113.837 6.43907 114.061 6.3964C114.296 6.34307 114.52 6.31107 114.733 6.3004C114.947 6.28974 115.133 6.2844 115.293 6.2844H116.557V7.7244H115.773C115.528 7.7244 115.256 7.7564 114.957 7.8204C114.659 7.8844 114.397 8.04974 114.173 8.3164C113.992 8.52974 113.875 8.7804 113.821 9.0684C113.768 9.3564 113.741 9.6604 113.741 9.9804V14.7644H111.869ZM117.285 6.2844H122.101C122.464 6.2844 122.8 6.34307 123.109 6.4604C123.418 6.57774 123.669 6.73774 123.861 6.9404C124.042 7.12174 124.192 7.38307 124.309 7.7244C124.426 8.05507 124.485 8.4604 124.485 8.9404V13.3404C124.485 13.4897 124.464 13.6711 124.421 13.8844C124.389 14.0977 124.298 14.2791 124.149 14.4284C124 14.5777 123.818 14.6737 123.605 14.7164C123.392 14.7484 123.184 14.7644 122.981 14.7644H118.933C118.698 14.7644 118.442 14.7484 118.165 14.7164C117.898 14.6844 117.642 14.5617 117.397 14.3484C117.226 14.1991 117.088 14.0284 116.981 13.8364C116.885 13.6337 116.81 13.4257 116.757 13.2124C116.714 12.9991 116.688 12.7911 116.677 12.5884C116.666 12.3857 116.661 12.2044 116.661 12.0444C116.661 11.6711 116.698 11.3031 116.773 10.9404C116.858 10.5777 117.061 10.2577 117.381 9.9804C117.648 9.74574 117.914 9.60707 118.181 9.5644C118.458 9.51107 118.709 9.4844 118.933 9.4844H122.613V8.8924C122.613 8.7644 122.597 8.63107 122.565 8.4924C122.544 8.35374 122.48 8.2204 122.373 8.0924C122.245 7.9324 122.096 7.83107 121.925 7.7884C121.765 7.74574 121.61 7.7244 121.461 7.7244H117.285V6.2844ZM122.613 10.9244H119.493C119.429 10.9244 119.322 10.9404 119.173 10.9724C119.034 10.9937 118.912 11.0737 118.805 11.2124C118.773 11.2551 118.73 11.3404 118.677 11.4684C118.624 11.5964 118.597 11.8151 118.597 12.1244C118.597 12.2524 118.608 12.4124 118.629 12.6044C118.661 12.7964 118.736 12.9511 118.853 13.0684C118.917 13.1324 119.002 13.1911 119.109 13.2444C119.226 13.2977 119.344 13.3244 119.461 13.3244H122.069C122.122 13.3244 122.186 13.3244 122.261 13.3244C122.346 13.3137 122.421 13.2817 122.485 13.2284C122.549 13.1751 122.586 13.1217 122.597 13.0684C122.608 13.0044 122.613 12.9404 122.613 12.8764V10.9244ZM125.76 14.7644V3.5644H127.632V14.7644H125.76ZM135.083 9.9484V12.2524C135.083 12.4337 135.093 12.5777 135.115 12.6844C135.136 12.7804 135.168 12.8551 135.211 12.9084C135.296 13.0044 135.408 13.0577 135.547 13.0684C135.696 13.0791 135.813 13.0844 135.899 13.0844H139.227C139.397 13.0844 139.605 13.0684 139.851 13.0364C140.096 12.9937 140.299 12.8764 140.459 12.6844C140.576 12.5351 140.651 12.3537 140.683 12.1404C140.725 11.9271 140.747 11.7297 140.747 11.5484C140.747 11.3884 140.731 11.1964 140.699 10.9724C140.677 10.7484 140.613 10.5617 140.507 10.4124C140.443 10.3271 140.32 10.2311 140.139 10.1244C139.968 10.0071 139.712 9.9484 139.371 9.9484H135.083ZM135.083 5.8684V8.2684H139.179C139.392 8.2684 139.6 8.2524 139.803 8.2204C140.005 8.1884 140.181 8.07107 140.331 7.8684C140.373 7.81507 140.421 7.7084 140.475 7.5484C140.539 7.3884 140.571 7.1164 140.571 6.7324C140.571 6.58307 140.555 6.39107 140.523 6.1564C140.491 5.91107 140.384 5.70307 140.203 5.5324C140.053 5.38307 139.888 5.29774 139.707 5.2764C139.525 5.25507 139.344 5.2444 139.163 5.2444H135.707C135.621 5.2444 135.536 5.24974 135.451 5.2604C135.365 5.2604 135.291 5.29774 135.227 5.3724C135.163 5.44707 135.12 5.5324 135.099 5.6284C135.088 5.7244 135.083 5.8044 135.083 5.8684ZM141.163 9.1004C141.429 9.12174 141.664 9.19107 141.867 9.3084C142.08 9.41507 142.256 9.54307 142.395 9.6924C142.523 9.84174 142.624 10.0017 142.699 10.1724C142.773 10.3324 142.827 10.5031 142.859 10.6844C142.891 10.8551 142.907 11.0257 142.907 11.1964C142.917 11.3671 142.923 11.5324 142.923 11.6924C142.923 12.0657 142.896 12.4604 142.843 12.8764C142.789 13.2924 142.603 13.6817 142.283 14.0444C142.123 14.2257 141.957 14.3644 141.787 14.4604C141.616 14.5564 141.445 14.6311 141.275 14.6844C141.104 14.7271 140.928 14.7537 140.747 14.7644C140.576 14.7644 140.405 14.7644 140.235 14.7644H134.875C134.597 14.7644 134.331 14.7537 134.075 14.7324C133.819 14.7111 133.579 14.5724 133.355 14.3164C133.301 14.2524 133.221 14.1297 133.115 13.9484C133.019 13.7564 132.971 13.5004 132.971 13.1804V5.1804C132.971 4.96707 132.997 4.75907 133.051 4.5564C133.115 4.35374 133.205 4.17774 133.323 4.0284C133.493 3.82574 133.685 3.69774 133.899 3.6444C134.123 3.59107 134.325 3.5644 134.507 3.5644H140.011C140.16 3.5644 140.32 3.56974 140.491 3.5804C140.672 3.59107 140.853 3.62307 141.035 3.6764C141.216 3.71907 141.392 3.7884 141.563 3.8844C141.733 3.96974 141.893 4.08707 142.043 4.2364C142.203 4.3964 142.325 4.57774 142.411 4.7804C142.507 4.98307 142.576 5.19107 142.619 5.4044C142.672 5.61774 142.704 5.83107 142.715 6.0444C142.736 6.25774 142.747 6.45507 142.747 6.6364C142.747 6.94574 142.72 7.25507 142.667 7.5644C142.613 7.86307 142.464 8.16174 142.219 8.4604C142.059 8.6524 141.893 8.79107 141.723 8.8764C141.563 8.96174 141.376 9.01507 141.163 9.0364V9.1004ZM144.198 14.7644V3.5644H146.07V14.7644H144.198ZM147.754 6.2844H152.57C152.933 6.2844 153.269 6.34307 153.578 6.4604C153.887 6.57774 154.138 6.73774 154.33 6.9404C154.511 7.12174 154.661 7.38307 154.778 7.7244C154.895 8.05507 154.954 8.4604 154.954 8.9404V13.3404C154.954 13.4897 154.933 13.6711 154.89 13.8844C154.858 14.0977 154.767 14.2791 154.618 14.4284C154.469 14.5777 154.287 14.6737 154.074 14.7164C153.861 14.7484 153.653 14.7644 153.45 14.7644H149.402C149.167 14.7644 148.911 14.7484 148.634 14.7164C148.367 14.6844 148.111 14.5617 147.866 14.3484C147.695 14.1991 147.557 14.0284 147.45 13.8364C147.354 13.6337 147.279 13.4257 147.226 13.2124C147.183 12.9991 147.157 12.7911 147.146 12.5884C147.135 12.3857 147.13 12.2044 147.13 12.0444C147.13 11.6711 147.167 11.3031 147.242 10.9404C147.327 10.5777 147.53 10.2577 147.85 9.9804C148.117 9.74574 148.383 9.60707 148.65 9.5644C148.927 9.51107 149.178 9.4844 149.402 9.4844H153.082V8.8924C153.082 8.7644 153.066 8.63107 153.034 8.4924C153.013 8.35374 152.949 8.2204 152.842 8.0924C152.714 7.9324 152.565 7.83107 152.394 7.7884C152.234 7.74574 152.079 7.7244 151.93 7.7244H147.754V6.2844ZM153.082 10.9244H149.962C149.898 10.9244 149.791 10.9404 149.642 10.9724C149.503 10.9937 149.381 11.0737 149.274 11.2124C149.242 11.2551 149.199 11.3404 149.146 11.4684C149.093 11.5964 149.066 11.8151 149.066 12.1244C149.066 12.2524 149.077 12.4124 149.098 12.6044C149.13 12.7964 149.205 12.9511 149.322 13.0684C149.386 13.1324 149.471 13.1911 149.578 13.2444C149.695 13.2977 149.813 13.3244 149.93 13.3244H152.538C152.591 13.3244 152.655 13.3244 152.73 13.3244C152.815 13.3137 152.89 13.2817 152.954 13.2284C153.018 13.1751 153.055 13.1217 153.066 13.0684C153.077 13.0044 153.082 12.9404 153.082 12.8764V10.9244ZM163.381 14.7644H159.301C159.141 14.7644 158.954 14.7537 158.741 14.7324C158.528 14.7111 158.309 14.6631 158.085 14.5884C157.861 14.5137 157.632 14.4071 157.397 14.2684C157.173 14.1297 156.965 13.9484 156.773 13.7244C156.421 13.3084 156.202 12.8444 156.117 12.3324C156.042 11.8097 156.005 11.2444 156.005 10.6364C156.005 10.3804 156.01 10.1031 156.021 9.8044C156.032 9.50574 156.069 9.20707 156.133 8.9084C156.197 8.59907 156.293 8.3004 156.421 8.0124C156.549 7.71374 156.73 7.44174 156.965 7.1964C157.05 7.11107 157.162 7.01507 157.301 6.9084C157.44 6.80174 157.61 6.70574 157.813 6.6204C158.026 6.5244 158.272 6.4444 158.549 6.3804C158.837 6.3164 159.173 6.2844 159.557 6.2844H163.189V7.7244H160.165C159.536 7.7244 159.056 7.85774 158.725 8.1244C158.405 8.39107 158.192 8.70574 158.085 9.0684C158.053 9.18574 158.026 9.3244 158.005 9.4844C157.984 9.63374 157.968 9.7884 157.957 9.9484C157.957 10.0977 157.952 10.2417 157.941 10.3804C157.941 10.5084 157.941 10.6044 157.941 10.6684C157.941 10.7964 157.941 10.9404 157.941 11.1004C157.952 11.2497 157.968 11.4044 157.989 11.5644C158.01 11.7244 158.037 11.8844 158.069 12.0444C158.112 12.1937 158.16 12.3217 158.213 12.4284C158.32 12.6311 158.453 12.7911 158.613 12.9084C158.773 13.0257 158.949 13.1164 159.141 13.1804C159.333 13.2444 159.53 13.2871 159.733 13.3084C159.946 13.3191 160.149 13.3244 160.341 13.3244H163.381V14.7644ZM172.608 14.7644H170.368L167.44 11.6604C167.323 11.5324 167.195 11.3617 167.056 11.1484C166.928 10.9351 166.864 10.6791 166.864 10.3804C166.864 10.0604 166.933 9.8044 167.072 9.6124C167.211 9.40974 167.339 9.23907 167.456 9.1004L170.016 6.2844H172.192L169.008 9.7084C168.933 9.79374 168.869 9.8844 168.816 9.9804C168.763 10.0657 168.736 10.1777 168.736 10.3164C168.736 10.4551 168.773 10.5937 168.848 10.7324C168.933 10.8604 169.029 10.9831 169.136 11.1004L172.608 14.7644ZM166.304 14.7644H164.432V3.5644H166.304V14.7644Z" fill="black"/>
<path d="M1.92699 35.7644V27.0124C1.92699 26.9164 1.92166 26.8151 1.91099 26.7084C1.90033 26.5911 1.86833 26.4951 1.81499 26.4204C1.76166 26.3351 1.69766 26.2871 1.62299 26.2764C1.55899 26.2551 1.48433 26.2444 1.39899 26.2444H0.166992V24.5644H2.58299C3.02033 24.5644 3.36699 24.6657 3.62299 24.8684C3.81499 25.0284 3.93233 25.2097 3.97499 25.4124C4.01766 25.6151 4.03899 25.8017 4.03899 25.9724V35.7644H1.92699ZM6.81912 35.7644C6.76578 35.7644 6.67512 35.7591 6.54712 35.7484C6.41912 35.7271 6.28578 35.6737 6.14712 35.5884C6.00845 35.5031 5.88578 35.3697 5.77912 35.1884C5.68312 35.0071 5.63512 34.7511 5.63512 34.4204C5.63512 33.9724 5.70445 33.6471 5.84312 33.4444C5.99245 33.2311 6.15245 33.0657 6.32312 32.9484L11.5071 29.3964C11.8591 29.1617 12.0671 28.9164 12.1311 28.6604C12.1951 28.3937 12.2271 28.1004 12.2271 27.7804C12.2271 27.5991 12.2165 27.4017 12.1951 27.1884C12.1738 26.9644 12.1045 26.7777 11.9871 26.6284C11.9018 26.5324 11.7685 26.4471 11.5871 26.3724C11.4165 26.2871 11.1711 26.2444 10.8511 26.2444H6.38712V24.5644H11.8271C11.9551 24.5644 12.0938 24.5697 12.2431 24.5804C12.4031 24.5911 12.5685 24.6231 12.7391 24.6764C12.9098 24.7191 13.0751 24.7831 13.2351 24.8684C13.4058 24.9537 13.5658 25.0711 13.7151 25.2204C14.0031 25.5191 14.1845 25.8817 14.2591 26.3084C14.3338 26.7244 14.3711 27.1351 14.3711 27.5404C14.3711 27.6897 14.3658 27.8551 14.3551 28.0364C14.3445 28.2177 14.3231 28.4097 14.2911 28.6124C14.2591 28.8044 14.2111 29.0017 14.1471 29.2044C14.0831 29.4071 13.9925 29.5937 13.8751 29.7644C13.7365 29.9777 13.5818 30.1537 13.4111 30.2924C13.2405 30.4204 13.0698 30.5431 12.8991 30.6604L8.38712 33.7964C8.36578 33.8177 8.32845 33.8444 8.27512 33.8764C8.23245 33.9084 8.21112 33.9457 8.21112 33.9884C8.21112 34.0097 8.21645 34.0311 8.22712 34.0524C8.24845 34.0737 8.28578 34.0844 8.33912 34.0844H13.9071V35.7644H6.81912ZM15.6507 35.7644V34.0844H20.1467C20.4987 34.0844 20.7921 34.0791 21.0267 34.0684C21.2614 34.0471 21.4534 33.9884 21.6027 33.8924C21.8374 33.7431 21.9761 33.5457 22.0187 33.3004C22.0721 33.0551 22.0987 32.8097 22.0987 32.5644C22.0987 32.3084 22.0774 32.0631 22.0347 31.8284C21.9921 31.5937 21.8587 31.3911 21.6347 31.2204C21.4641 31.0924 21.2721 31.0177 21.0587 30.9964C20.8454 30.9644 20.6854 30.9484 20.5787 30.9484H15.9387V29.2684H20.4507C20.6214 29.2684 20.8187 29.2524 21.0427 29.2204C21.2774 29.1884 21.4747 29.0817 21.6347 28.9004C21.7734 28.7511 21.8587 28.5697 21.8907 28.3564C21.9227 28.1324 21.9387 27.9244 21.9387 27.7324C21.9387 27.5297 21.9227 27.3271 21.8907 27.1244C21.8587 26.9111 21.7734 26.7297 21.6347 26.5804C21.4854 26.4311 21.3201 26.3404 21.1387 26.3084C20.9574 26.2657 20.7867 26.2444 20.6267 26.2444H15.8427V24.5644H21.4587C21.6081 24.5644 21.7734 24.5697 21.9547 24.5804C22.1361 24.5911 22.3227 24.6231 22.5147 24.6764C22.7067 24.7297 22.8934 24.8151 23.0747 24.9324C23.2561 25.0391 23.4267 25.1937 23.5867 25.3964C23.8321 25.7164 23.9814 26.0737 24.0347 26.4684C24.0881 26.8631 24.1147 27.2097 24.1147 27.5084C24.1147 27.8391 24.0881 28.1804 24.0347 28.5324C23.9814 28.8844 23.8321 29.1991 23.5867 29.4764C23.4801 29.5937 23.3307 29.7164 23.1387 29.8444C22.9467 29.9617 22.7121 30.0311 22.4347 30.0524V30.1004C22.6907 30.1111 22.9201 30.1644 23.1227 30.2604C23.3361 30.3564 23.5121 30.4684 23.6507 30.5964C23.8001 30.7457 23.9174 30.9111 24.0027 31.0924C24.0881 31.2631 24.1467 31.4444 24.1787 31.6364C24.2214 31.8177 24.2481 31.9991 24.2587 32.1804C24.2694 32.3617 24.2747 32.5271 24.2747 32.6764C24.2747 33.1457 24.2321 33.5884 24.1467 34.0044C24.0721 34.4097 23.8694 34.7777 23.5387 35.1084C23.2507 35.3964 22.9414 35.5777 22.6107 35.6524C22.2907 35.7271 21.9654 35.7644 21.6347 35.7644H15.6507ZM31.989 35.7644V33.8764H26.613C26.4637 33.8764 26.3037 33.8657 26.133 33.8444C25.9623 33.8124 25.7917 33.7111 25.621 33.5404C25.525 33.4337 25.4343 33.2844 25.349 33.0924C25.2743 32.9004 25.237 32.6444 25.237 32.3244C25.237 32.1111 25.269 31.8924 25.333 31.6684C25.4077 31.4337 25.5837 31.1671 25.861 30.8684L31.269 25.0764C31.5357 24.7884 31.813 24.6124 32.101 24.5484C32.3997 24.4737 32.6397 24.4364 32.821 24.4364C32.981 24.4364 33.1517 24.4577 33.333 24.5004C33.5143 24.5431 33.6797 24.6391 33.829 24.7884C33.9783 24.9377 34.0583 25.0871 34.069 25.2364C34.0903 25.3751 34.101 25.5137 34.101 25.6524V32.1964H35.525V33.8764H34.101V35.7644H31.989ZM31.989 32.1964V26.8844C31.989 26.8417 31.9677 26.8204 31.925 26.8204C31.9037 26.8204 31.8823 26.8311 31.861 26.8524C31.8397 26.8631 31.797 26.9057 31.733 26.9804L27.445 31.7324C27.4023 31.7751 27.3597 31.8231 27.317 31.8764C27.2743 31.9191 27.253 31.9617 27.253 32.0044C27.253 32.0364 27.269 32.0791 27.301 32.1324C27.333 32.1751 27.413 32.1964 27.541 32.1964H31.989ZM36.7147 35.7644V34.0844H41.7067C41.8667 34.0844 42.0587 34.0631 42.2827 34.0204C42.5067 33.9671 42.6934 33.8284 42.8427 33.6044C42.9281 33.4764 42.9867 33.2951 43.0187 33.0604C43.0614 32.8151 43.0827 32.5857 43.0827 32.3724C43.0827 32.2231 43.0667 32.0364 43.0347 31.8124C43.0134 31.5884 42.9494 31.4017 42.8427 31.2524C42.7894 31.1671 42.6881 31.0764 42.5387 30.9804C42.3894 30.8844 42.1654 30.8364 41.8667 30.8364H38.8907C38.7841 30.8364 38.6614 30.8364 38.5227 30.8364C38.3841 30.8257 38.2401 30.8151 38.0907 30.8044C37.9521 30.7831 37.8081 30.7511 37.6587 30.7084C37.5201 30.6657 37.3974 30.6017 37.2907 30.5164C37.1307 30.4097 37.0081 30.2817 36.9227 30.1324C36.8374 29.9724 36.7734 29.8124 36.7307 29.6524C36.6987 29.4924 36.6774 29.3431 36.6667 29.2044C36.6561 29.0551 36.6507 28.9324 36.6507 28.8364V26.0044C36.6507 25.7271 36.6881 25.5084 36.7627 25.3484C36.8374 25.1777 36.9174 25.0497 37.0027 24.9644C37.0987 24.8684 37.2001 24.7937 37.3067 24.7404C37.4134 24.6871 37.5201 24.6497 37.6267 24.6284C37.7334 24.5964 37.8294 24.5804 37.9147 24.5804C38.0107 24.5697 38.0854 24.5644 38.1387 24.5644H44.8907V26.2444H39.2907C39.2054 26.2444 39.1201 26.2551 39.0347 26.2764C38.9601 26.2977 38.9014 26.3351 38.8587 26.3884C38.8054 26.4417 38.7734 26.5111 38.7627 26.5964C38.7627 26.6817 38.7627 26.7564 38.7627 26.8204V28.2124C38.7627 28.3297 38.7681 28.4577 38.7787 28.5964C38.8001 28.7351 38.8534 28.8524 38.9387 28.9484C39.0241 29.0337 39.1414 29.0924 39.2907 29.1244C39.4401 29.1457 39.5734 29.1564 39.6907 29.1564H42.7787C43.1201 29.1564 43.4507 29.2097 43.7707 29.3164C44.1014 29.4231 44.4054 29.6524 44.6827 30.0044C44.9601 30.3564 45.1254 30.7297 45.1787 31.1244C45.2321 31.5191 45.2587 31.9084 45.2587 32.2924C45.2587 32.5484 45.2481 32.8097 45.2267 33.0764C45.2161 33.3324 45.1841 33.5831 45.1307 33.8284C45.0881 34.0737 45.0134 34.3084 44.9067 34.5324C44.8001 34.7564 44.6614 34.9537 44.4907 35.1244C44.3307 35.2844 44.1547 35.4071 43.9627 35.4924C43.7814 35.5777 43.5947 35.6417 43.4027 35.6844C43.2107 35.7271 43.0241 35.7537 42.8427 35.7644C42.6721 35.7644 42.5121 35.7644 42.3627 35.7644H36.7147ZM48.9734 28.9004H52.5734C52.8934 28.9004 53.2294 28.9324 53.5814 28.9964C53.944 29.0497 54.2854 29.2204 54.6054 29.5084C54.808 29.6897 54.968 29.8977 55.0854 30.1324C55.2134 30.3564 55.304 30.5857 55.3574 30.8204C55.4107 31.0551 55.4427 31.2897 55.4534 31.5244C55.4747 31.7484 55.4854 31.9511 55.4854 32.1324C55.4854 32.2604 55.48 32.4257 55.4694 32.6284C55.4587 32.8311 55.4374 33.0497 55.4054 33.2844C55.3734 33.5191 55.3254 33.7537 55.2614 33.9884C55.1974 34.2124 55.112 34.4204 55.0054 34.6124C54.8667 34.8577 54.696 35.0551 54.4934 35.2044C54.3014 35.3537 54.0934 35.4711 53.8694 35.5564C53.6454 35.6311 53.416 35.6844 53.1814 35.7164C52.9467 35.7484 52.7174 35.7644 52.4934 35.7644H49.6934C49.3094 35.7644 48.9574 35.7164 48.6374 35.6204C48.328 35.5137 48.0667 35.3804 47.8534 35.2204C47.448 34.9217 47.1814 34.5537 47.0534 34.1164C46.9254 33.6684 46.8614 33.1884 46.8614 32.6764V27.4764C46.8614 27.1457 46.8934 26.8524 46.9574 26.5964C47.0214 26.3404 47.1014 26.1164 47.1974 25.9244C47.2934 25.7324 47.4 25.5724 47.5174 25.4444C47.6347 25.3164 47.7414 25.2097 47.8374 25.1244C48.1467 24.8791 48.4827 24.7244 48.8454 24.6604C49.2187 24.5964 49.5334 24.5644 49.7894 24.5644H54.9254V26.2444H50.5414C50.392 26.2444 50.2 26.2604 49.9654 26.2924C49.7307 26.3244 49.5227 26.4311 49.3414 26.6124C49.16 26.7937 49.0534 26.9964 49.0214 27.2204C48.9894 27.4337 48.9734 27.5937 48.9734 27.7004V28.9004ZM48.9734 30.5804V32.5804C48.9734 32.6444 48.9734 32.7244 48.9734 32.8204C48.984 32.9164 49 33.0177 49.0214 33.1244C49.0427 33.2311 49.0694 33.3431 49.1014 33.4604C49.144 33.5671 49.2027 33.6577 49.2774 33.7324C49.3627 33.8177 49.4907 33.8977 49.6614 33.9724C49.832 34.0471 50.088 34.0844 50.4294 34.0844H51.7894C51.9387 34.0844 52.12 34.0631 52.3334 34.0204C52.5574 33.9777 52.76 33.8551 52.9414 33.6524C53.1227 33.4497 53.2294 33.2151 53.2614 32.9484C53.2934 32.6817 53.3094 32.4524 53.3094 32.2604C53.3094 32.0577 53.288 31.8444 53.2454 31.6204C53.2134 31.3857 53.1067 31.1777 52.9254 30.9964C52.744 30.8044 52.5307 30.6871 52.2854 30.6444C52.0507 30.6017 51.8267 30.5804 51.6134 30.5804H48.9734ZM56.6321 35.7644L62.4081 26.8684C62.4828 26.7511 62.5308 26.6657 62.5521 26.6124C62.5735 26.5591 62.5841 26.5057 62.5841 26.4524C62.5841 26.3457 62.5415 26.2871 62.4561 26.2764C62.3815 26.2551 62.3121 26.2444 62.2481 26.2444H55.9601V24.5644H63.6561C63.9228 24.5644 64.1361 24.6017 64.2961 24.6764C64.4561 24.7404 64.5788 24.8257 64.6641 24.9324C64.7601 25.0391 64.8188 25.1671 64.8401 25.3164C64.8721 25.4551 64.8881 25.5937 64.8881 25.7324C64.8881 25.9991 64.8561 26.2337 64.7921 26.4364C64.7281 26.6284 64.6321 26.8257 64.5041 27.0284L58.9841 35.7644H56.6321ZM68.9535 24.5644H70.6175C70.8308 24.5644 71.0548 24.5697 71.2895 24.5804C71.5242 24.5911 71.7535 24.6177 71.9775 24.6604C72.2122 24.7031 72.4308 24.7671 72.6335 24.8524C72.8468 24.9377 73.0335 25.0551 73.1935 25.2044C73.3855 25.3751 73.5295 25.5724 73.6255 25.7964C73.7322 26.0097 73.8068 26.2284 73.8495 26.4524C73.9028 26.6764 73.9348 26.8951 73.9455 27.1084C73.9562 27.3217 73.9615 27.5031 73.9615 27.6524C73.9615 27.9511 73.9348 28.2657 73.8815 28.5964C73.8282 28.9271 73.6522 29.2471 73.3535 29.5564C73.0868 29.8444 72.7775 30.0097 72.4255 30.0524V30.0844C72.6388 30.1164 72.8468 30.1751 73.0495 30.2604C73.2522 30.3457 73.4175 30.4471 73.5455 30.5644C73.7055 30.7137 73.8282 30.8844 73.9135 31.0764C74.0095 31.2577 74.0788 31.4497 74.1215 31.6524C74.1642 31.8551 74.1908 32.0577 74.2015 32.2604C74.2122 32.4524 74.2175 32.6337 74.2175 32.8044C74.2175 33.1777 74.1962 33.5244 74.1535 33.8444C74.1108 34.1644 73.9668 34.4791 73.7215 34.7884C73.5402 35.0337 73.3375 35.2204 73.1135 35.3484C72.9002 35.4764 72.6762 35.5724 72.4415 35.6364C72.2068 35.7004 71.9668 35.7377 71.7215 35.7484C71.4762 35.7591 71.2362 35.7644 71.0015 35.7644H68.5855C68.3508 35.7644 68.1108 35.7591 67.8655 35.7484C67.6202 35.7377 67.3802 35.7004 67.1455 35.6364C66.9108 35.5724 66.6815 35.4764 66.4575 35.3484C66.2442 35.2204 66.0468 35.0337 65.8655 34.7884C65.6415 34.4791 65.5028 34.1591 65.4495 33.8284C65.3962 33.4977 65.3695 33.1564 65.3695 32.8044C65.3695 32.6337 65.3748 32.4524 65.3855 32.2604C65.3962 32.0577 65.4228 31.8551 65.4655 31.6524C65.5082 31.4497 65.5722 31.2577 65.6575 31.0764C65.7535 30.8844 65.8815 30.7137 66.0415 30.5644C66.1908 30.4257 66.3668 30.3191 66.5695 30.2444C66.7828 30.1591 66.9802 30.1057 67.1615 30.0844V30.0524C66.8095 30.0097 66.5002 29.8444 66.2335 29.5564C65.9348 29.2471 65.7588 28.9271 65.7055 28.5964C65.6522 28.2657 65.6255 27.9511 65.6255 27.6524C65.6255 27.5137 65.6308 27.3377 65.6415 27.1244C65.6522 26.9111 65.6788 26.6924 65.7215 26.4684C65.7748 26.2337 65.8495 26.0044 65.9455 25.7804C66.0522 25.5564 66.1962 25.3644 66.3775 25.2044C66.5482 25.0444 66.7508 24.9217 66.9855 24.8364C67.2202 24.7511 67.4548 24.6924 67.6895 24.6604C67.9348 24.6177 68.1695 24.5911 68.3935 24.5804C68.6175 24.5697 68.8042 24.5644 68.9535 24.5644ZM69.1135 29.2524H70.4735C70.6442 29.2524 70.8308 29.2364 71.0335 29.2044C71.2362 29.1724 71.4122 29.0497 71.5615 28.8364C71.7108 28.6231 71.7855 28.2657 71.7855 27.7644C71.7855 27.6044 71.7642 27.3964 71.7215 27.1404C71.6788 26.8844 71.5668 26.6764 71.3855 26.5164C71.2362 26.3777 71.0602 26.2977 70.8575 26.2764C70.6655 26.2551 70.4788 26.2444 70.2975 26.2444H69.2735C69.0922 26.2444 68.9055 26.2551 68.7135 26.2764C68.5322 26.2977 68.3615 26.3777 68.2015 26.5164C67.9988 26.6871 67.8815 26.8951 67.8495 27.1404C67.8175 27.3857 67.8015 27.5937 67.8015 27.7644C67.8015 28.2764 67.8708 28.6337 68.0095 28.8364C68.1588 29.0497 68.3402 29.1724 68.5535 29.2044C68.7775 29.2364 68.9642 29.2524 69.1135 29.2524ZM68.9535 34.0844H70.6335C70.9428 34.0844 71.1828 34.0417 71.3535 33.9564C71.5348 33.8604 71.6682 33.7644 71.7535 33.6684C71.8815 33.5191 71.9615 33.3217 71.9935 33.0764C72.0255 32.8204 72.0415 32.6177 72.0415 32.4684C72.0415 32.3191 72.0148 32.1164 71.9615 31.8604C71.9188 31.6044 71.7908 31.3857 71.5775 31.2044C71.4175 31.0764 71.2362 31.0017 71.0335 30.9804C70.8308 30.9484 70.6762 30.9324 70.5695 30.9324H69.0175C68.9108 30.9324 68.7562 30.9484 68.5535 30.9804C68.3508 31.0017 68.1695 31.0764 68.0095 31.2044C67.7962 31.3857 67.6628 31.6044 67.6095 31.8604C67.5668 32.1164 67.5455 32.3191 67.5455 32.4684C67.5455 32.6177 67.5615 32.8204 67.5935 33.0764C67.6255 33.3217 67.7055 33.5191 67.8335 33.6684C67.9188 33.7644 68.0468 33.8604 68.2175 33.9564C68.3988 34.0417 68.6442 34.0844 68.9535 34.0844ZM76.0065 35.7644V34.0844H80.3425C80.5238 34.0844 80.7318 34.0684 80.9665 34.0364C81.2012 34.0044 81.4092 33.8977 81.5905 33.7164C81.7718 33.5351 81.8785 33.3111 81.9105 33.0444C81.9532 32.7671 81.9745 32.5377 81.9745 32.3564V31.4124H78.1025C78.0065 31.4124 77.8785 31.4071 77.7185 31.3964C77.5692 31.3751 77.4038 31.3377 77.2225 31.2844C77.0412 31.2311 76.8545 31.1511 76.6625 31.0444C76.4812 30.9271 76.3105 30.7724 76.1505 30.5804C75.8412 30.2177 75.6545 29.8124 75.5905 29.3644C75.5265 28.9164 75.4945 28.4577 75.4945 27.9884C75.4945 27.7964 75.4998 27.5831 75.5105 27.3484C75.5212 27.1031 75.5532 26.8577 75.6065 26.6124C75.6705 26.3564 75.7558 26.1111 75.8625 25.8764C75.9798 25.6417 76.1398 25.4284 76.3425 25.2364C76.6732 24.9377 77.0412 24.7511 77.4465 24.6764C77.8625 24.6017 78.2465 24.5644 78.5985 24.5644H80.8545C81.0678 24.5644 81.2972 24.5751 81.5425 24.5964C81.7985 24.6177 82.0492 24.6657 82.2945 24.7404C82.5398 24.8044 82.7745 24.9111 82.9985 25.0604C83.2225 25.1991 83.4198 25.3964 83.5905 25.6524C83.8038 25.9617 83.9372 26.2924 83.9905 26.6444C84.0545 26.9857 84.0865 27.2951 84.0865 27.5724V32.0844C84.0865 32.4897 84.0652 32.8897 84.0225 33.2844C83.9798 33.6791 83.8732 34.0471 83.7025 34.3884C83.5318 34.7297 83.3292 34.9964 83.0945 35.1884C82.8598 35.3697 82.6198 35.5031 82.3745 35.5884C82.1292 35.6737 81.8892 35.7271 81.6545 35.7484C81.4198 35.7591 81.2172 35.7644 81.0465 35.7644H76.0065ZM81.9745 29.7324V27.7324C81.9745 27.6044 81.9585 27.4337 81.9265 27.2204C81.8945 26.9964 81.7932 26.7991 81.6225 26.6284C81.5265 26.5324 81.3878 26.4471 81.2065 26.3724C81.0358 26.2871 80.8118 26.2444 80.5345 26.2444H79.2385C78.9505 26.2444 78.7158 26.2817 78.5345 26.3564C78.3638 26.4311 78.2252 26.5217 78.1185 26.6284C78.0012 26.7351 77.8945 26.9004 77.7985 27.1244C77.7132 27.3377 77.6705 27.6417 77.6705 28.0364C77.6705 28.2817 77.7025 28.5324 77.7665 28.7884C77.8305 29.0444 77.9372 29.2471 78.0865 29.3964C78.1718 29.4711 78.2732 29.5297 78.3905 29.5724C78.5078 29.6151 78.6252 29.6524 78.7425 29.6844C78.8705 29.7057 78.9878 29.7217 79.0945 29.7324C79.2118 29.7324 79.3078 29.7324 79.3825 29.7324H81.9745ZM85.3695 31.7164V28.5004C85.3695 28.0417 85.4068 27.6417 85.4815 27.3004C85.5562 26.9484 85.6468 26.6444 85.7535 26.3884C85.8708 26.1217 85.9988 25.9031 86.1375 25.7324C86.2762 25.5511 86.4095 25.4017 86.5375 25.2844C86.7615 25.0924 87.0015 24.9431 87.2575 24.8364C87.5242 24.7191 87.8015 24.6337 88.0895 24.5804C88.3775 24.5164 88.6708 24.4791 88.9695 24.4684C89.2682 24.4577 89.5722 24.4524 89.8815 24.4524C90.1802 24.4524 90.4788 24.4577 90.7775 24.4684C91.0868 24.4791 91.3855 24.5164 91.6735 24.5804C91.9615 24.6337 92.2335 24.7191 92.4895 24.8364C92.7562 24.9431 93.0015 25.0924 93.2255 25.2844C93.3535 25.4017 93.4868 25.5511 93.6255 25.7324C93.7642 25.9031 93.8868 26.1217 93.9935 26.3884C94.1108 26.6444 94.2068 26.9484 94.2815 27.3004C94.3562 27.6417 94.3935 28.0417 94.3935 28.5004V31.7164C94.3935 32.2497 94.3508 32.7191 94.2655 33.1244C94.1908 33.5191 94.0895 33.8604 93.9615 34.1484C93.8335 34.4364 93.6895 34.6764 93.5295 34.8684C93.3695 35.0497 93.2095 35.1937 93.0495 35.3004C92.8255 35.4604 92.5695 35.5777 92.2815 35.6524C92.0042 35.7271 91.7215 35.7751 91.4335 35.7964C91.1455 35.8284 90.8628 35.8444 90.5855 35.8444C90.3188 35.8444 90.0842 35.8444 89.8815 35.8444C89.6682 35.8444 89.4282 35.8444 89.1615 35.8444C88.8948 35.8444 88.6175 35.8284 88.3295 35.7964C88.0415 35.7751 87.7535 35.7271 87.4655 35.6524C87.1882 35.5777 86.9375 35.4604 86.7135 35.3004C86.4042 35.0871 86.1588 34.8257 85.9775 34.5164C85.8068 34.2071 85.6735 33.8871 85.5775 33.5564C85.4922 33.2151 85.4335 32.8844 85.4015 32.5644C85.3802 32.2337 85.3695 31.9511 85.3695 31.7164ZM87.4815 28.5964V31.4764C87.4815 31.9991 87.5135 32.4311 87.5775 32.7724C87.6522 33.1137 87.7748 33.3857 87.9455 33.5884C88.0735 33.7377 88.2175 33.8497 88.3775 33.9244C88.5375 33.9991 88.7028 34.0577 88.8735 34.1004C89.0548 34.1324 89.2308 34.1537 89.4015 34.1644C89.5722 34.1644 89.7322 34.1644 89.8815 34.1644C90.0308 34.1644 90.1908 34.1644 90.3615 34.1644C90.5322 34.1537 90.7028 34.1324 90.8735 34.1004C91.0442 34.0577 91.2095 33.9991 91.3695 33.9244C91.5295 33.8497 91.6735 33.7377 91.8015 33.5884C92.0255 33.3217 92.1588 32.9857 92.2015 32.5804C92.2548 32.1751 92.2815 31.8071 92.2815 31.4764V28.5964C92.2815 28.4684 92.2762 28.3191 92.2655 28.1484C92.2548 27.9671 92.2228 27.7857 92.1695 27.6044C92.1268 27.4231 92.0575 27.2471 91.9615 27.0764C91.8655 26.8951 91.7322 26.7351 91.5615 26.5964C91.3482 26.4151 91.0762 26.2924 90.7455 26.2284C90.4148 26.1644 90.1268 26.1324 89.8815 26.1324C89.6362 26.1324 89.3482 26.1644 89.0175 26.2284C88.6868 26.2924 88.4148 26.4151 88.2015 26.5964C88.0308 26.7351 87.8975 26.8951 87.8015 27.0764C87.7055 27.2471 87.6308 27.4231 87.5775 27.6044C87.5348 27.7857 87.5082 27.9671 87.4975 28.1484C87.4868 28.3191 87.4815 28.4684 87.4815 28.5964Z" fill="black"/>
</svg>
