<svg width="187" height="55" viewBox="0 0 187 55" fill="none" xmlns="http://www.w3.org/2000/svg">
<path d="M6.228 2.28827V3.40827L5.012 3.61627V12.9603H8.484V3.61627L7.316 3.40827V2.28827H12.356V3.40827L11.172 3.61627V12.9603H14.596V3.63227L13.46 3.40827V2.28827H18.532V3.40827L17.316 3.61627V12.9443L18.612 13.1203V14.1763H0.98V13.1203L2.292 12.9443V3.61627L1.076 3.40827V2.28827H6.228ZM28.7898 9.44027C28.7898 10.3256 28.6031 11.1416 28.2298 11.8883C27.8671 12.6349 27.3231 13.2323 26.5978 13.6803C25.8831 14.1283 25.0191 14.3523 24.0058 14.3523C23.8351 14.3523 23.6484 14.3363 23.4458 14.3043C23.2538 14.2723 23.1044 14.2349 22.9978 14.1923L23.0458 15.4883V16.8483L24.4218 17.0563V18.0483H19.5098V17.0563L20.4858 16.8483V6.96027L19.5098 6.67227V5.42427L22.3738 5.07227H22.4058L22.8378 5.40827V6.27227C23.0831 5.9416 23.4244 5.65894 23.8618 5.42427C24.3098 5.17894 24.7951 5.05627 25.3178 5.05627C26.3418 5.05627 27.1738 5.41894 27.8138 6.14427C28.4644 6.85894 28.7898 7.9576 28.7898 9.44027ZM24.3738 6.52827C24.0964 6.52827 23.8351 6.58694 23.5898 6.70427C23.3444 6.81094 23.1631 6.94427 23.0458 7.10427V12.9603C23.1204 13.0563 23.2484 13.1363 23.4298 13.2003C23.6218 13.2643 23.8298 13.2963 24.0538 13.2963C24.6511 13.2963 25.1258 13.0083 25.4778 12.4323C25.8404 11.8563 26.0218 10.9229 26.0218 9.63227C26.0218 8.58694 25.8724 7.80827 25.5738 7.29627C25.2751 6.78427 24.8751 6.52827 24.3738 6.52827ZM34.8641 5.28027V6.32027L33.6961 6.51227V11.0083L34.5441 9.88827L37.3281 6.88027V6.51227L36.3201 6.32027V5.28027H41.0241V6.32027L39.9841 6.51227V12.9763L41.0721 13.1203V14.1763H36.1921V13.1203L37.3281 12.9763V8.36827L36.4801 9.61627L33.6961 12.5923V13.0083L34.7361 13.1203V14.1763H30.0001V13.1203L31.0561 12.9763V6.51227L30.0161 6.32027V5.28027H34.8641ZM47.8471 13.5043C47.3245 14.0803 46.6098 14.3683 45.7031 14.3683C44.6685 14.3683 43.8311 14.0056 43.1911 13.2803C42.5511 12.5443 42.2311 11.4349 42.2311 9.95227C42.2311 8.99227 42.3965 8.14427 42.7271 7.40827C43.0685 6.67227 43.5645 6.1016 44.2151 5.69627C44.8765 5.28027 45.6711 5.07227 46.5991 5.07227C46.8125 5.07227 47.0365 5.09894 47.2711 5.15227C47.5058 5.2056 47.6978 5.2696 47.8471 5.34427L47.7831 4.08027V2.59227L46.6631 2.36827V1.44027L49.7671 1.05627L50.3111 1.37627V4.08027L50.2791 5.92027C50.8231 5.35494 51.5271 5.07227 52.3911 5.07227C53.4258 5.07227 54.2631 5.44027 54.9031 6.17627C55.5538 6.9016 55.8791 8.0056 55.8791 9.48827C55.8791 10.4589 55.7085 11.3123 55.3671 12.0483C55.0365 12.7736 54.5405 13.3443 53.8791 13.7603C53.2285 14.1656 52.4391 14.3683 51.5111 14.3683C51.2871 14.3683 51.0685 14.3469 50.8551 14.3043C50.6418 14.2616 50.4658 14.2029 50.3271 14.1283L50.3751 15.0243V16.8483L51.6551 17.0403V18.0643H46.5351V17.0403L47.7991 16.8323V15.0243L47.8471 13.5043ZM47.7991 6.57627C47.7245 6.48027 47.6071 6.39494 47.4471 6.32027C47.2871 6.23494 47.1058 6.19227 46.9031 6.19227C46.3378 6.19227 45.8738 6.49094 45.5111 7.08827C45.1485 7.6856 44.9671 8.60827 44.9671 9.85627C44.9671 10.8696 45.1271 11.6536 45.4471 12.2083C45.7671 12.7523 46.1885 13.0243 46.7111 13.0243C47.1911 13.0243 47.5538 12.9016 47.7991 12.6563V6.57627ZM50.3111 12.8323C50.3645 12.9176 50.4765 13.0029 50.6471 13.0883C50.8178 13.1629 51.0045 13.2003 51.2071 13.2003C51.7725 13.2003 52.2365 12.9176 52.5991 12.3523C52.9618 11.7869 53.1431 10.8803 53.1431 9.63227C53.1431 8.61894 52.9778 7.82427 52.6471 7.24827C52.3271 6.6616 51.9111 6.36827 51.3991 6.36827C50.9405 6.36827 50.5778 6.49094 50.3111 6.73627V12.8323ZM66.4062 5.28027L66.5823 9.07227H65.0143L64.5023 6.48027L63.0623 6.33627V12.9603L65.1423 13.1203V14.1763H58.3903V13.1203L60.4062 12.9603V6.33627L58.8703 6.48027L58.3743 9.07227H56.8063L56.9503 5.28027H66.4062ZM73.3245 3.63227L71.6285 3.40827V2.28827H77.0685L78.7645 8.97627L79.1485 10.7523L79.4685 8.97627L81.1485 2.28827H86.5565V3.40827L84.8125 3.63227L86.0925 12.9443L87.3245 13.1203V14.1763H81.9325V13.1203L83.2925 12.9443L82.6205 6.04827L82.3325 3.23227L81.7725 5.79227L79.6765 13.7123H77.5805L75.3405 6.01627L74.6045 3.21627L74.4125 6.04827L73.8205 12.9443L75.4525 13.1203V14.1763H70.8285V13.1203L72.1565 12.9603L73.3245 3.63227ZM92.1594 14.3523C90.698 14.3523 89.6154 13.9416 88.9114 13.1203C88.2074 12.2883 87.8554 11.1576 87.8554 9.72827C87.8554 8.7576 88.0367 7.92027 88.3994 7.21627C88.762 6.51227 89.2687 5.97894 89.9194 5.61627C90.5807 5.24294 91.354 5.05627 92.2394 5.05627C93.3594 5.05627 94.2127 5.33894 94.7994 5.90427C95.3967 6.4696 95.706 7.2696 95.7274 8.30427C95.7274 8.98694 95.6794 9.53627 95.5834 9.95227H90.5754C90.6287 10.8589 90.8474 11.5523 91.2314 12.0323C91.626 12.5016 92.1754 12.7363 92.8794 12.7363C93.274 12.7363 93.6847 12.6723 94.1114 12.5443C94.5487 12.4056 94.9007 12.2509 95.1674 12.0803L95.6154 13.0563C95.338 13.3656 94.8634 13.6589 94.1914 13.9363C93.53 14.2136 92.8527 14.3523 92.1594 14.3523ZM93.1834 8.89627L93.1994 8.22427C93.1994 7.55227 93.1087 7.04027 92.9274 6.68827C92.746 6.33627 92.4367 6.16027 91.9994 6.16027C91.5514 6.16027 91.2047 6.3576 90.9594 6.75227C90.714 7.13627 90.5807 7.85094 90.5594 8.89627H93.1834ZM96.9068 13.1203L97.8828 12.9763V6.96027L96.9388 6.67227V5.42427L99.5948 5.07227H99.6428L100.091 5.40827V5.79227L100.043 7.12027H100.091C100.165 6.87494 100.336 6.59227 100.603 6.27227C100.869 5.9416 101.205 5.65894 101.611 5.42427C102.027 5.17894 102.475 5.05627 102.955 5.05627C103.232 5.05627 103.445 5.0936 103.595 5.16827V7.95227C103.424 7.82427 103.237 7.72294 103.035 7.64827C102.843 7.5736 102.592 7.53627 102.283 7.53627C101.899 7.53627 101.552 7.5896 101.243 7.69627C100.933 7.79227 100.688 7.90427 100.507 8.03227V12.9763L102.267 13.1363V14.1763H96.9068V13.1203ZM104.594 13.1203L105.57 12.9763V6.96027L104.626 6.67227V5.42427L107.282 5.07227H107.33L107.778 5.40827V5.79227L107.73 7.12027H107.778C107.853 6.87494 108.024 6.59227 108.29 6.27227C108.557 5.9416 108.893 5.65894 109.298 5.42427C109.714 5.17894 110.162 5.05627 110.642 5.05627C110.92 5.05627 111.133 5.0936 111.282 5.16827V7.95227C111.112 7.82427 110.925 7.72294 110.722 7.64827C110.53 7.5736 110.28 7.53627 109.97 7.53627C109.586 7.53627 109.24 7.5896 108.93 7.69627C108.621 7.79227 108.376 7.90427 108.194 8.03227V12.9763L109.954 13.1363V14.1763H104.594V13.1203ZM114.218 3.90427C113.802 3.90427 113.466 3.7816 113.21 3.53627C112.954 3.29094 112.826 2.97627 112.826 2.59227C112.826 2.14427 112.964 1.77627 113.242 1.48827C113.53 1.20027 113.914 1.05627 114.394 1.05627C114.874 1.05627 115.242 1.17894 115.498 1.42427C115.754 1.6696 115.882 1.98427 115.882 2.36827C115.882 2.82694 115.738 3.20027 115.45 3.48827C115.162 3.7656 114.756 3.90427 114.234 3.90427H114.218ZM113.242 6.96027L112.17 6.65627V5.45627L115.37 5.07227H115.402L115.898 5.40827V12.9763L116.858 13.1203V14.1763H112.25V13.1203L113.242 12.9763V6.96027ZM117.009 5.29627H121.393V6.30427L120.321 6.48027L121.409 10.4643L121.745 12.0483L122.033 10.4643L123.409 5.29627H125.569L127.153 10.4643L127.489 12.0323L127.809 10.4643L128.817 6.49627L127.665 6.30427V5.29627H131.185V6.30427L130.417 6.48027L128.001 14.3043H125.969L124.385 9.40827L124.049 7.55227L123.809 9.40827L122.385 14.3043H120.305L117.761 6.48027L117.009 6.30427V5.29627ZM135.55 14.3523C134.089 14.3523 133.006 13.9416 132.302 13.1203C131.598 12.2883 131.246 11.1576 131.246 9.72827C131.246 8.7576 131.427 7.92027 131.79 7.21627C132.153 6.51227 132.659 5.97894 133.31 5.61627C133.971 5.24294 134.745 5.05627 135.63 5.05627C136.75 5.05627 137.603 5.33894 138.19 5.90427C138.787 6.4696 139.097 7.2696 139.118 8.30427C139.118 8.98694 139.07 9.53627 138.974 9.95227H133.966C134.019 10.8589 134.238 11.5523 134.622 12.0323C135.017 12.5016 135.566 12.7363 136.27 12.7363C136.665 12.7363 137.075 12.6723 137.502 12.5443C137.939 12.4056 138.291 12.2509 138.558 12.0803L139.006 13.0563C138.729 13.3656 138.254 13.6589 137.582 13.9363C136.921 14.2136 136.243 14.3523 135.55 14.3523ZM136.574 8.89627L136.59 8.22427C136.59 7.55227 136.499 7.04027 136.318 6.68827C136.137 6.33627 135.827 6.16027 135.39 6.16027C134.942 6.16027 134.595 6.3576 134.35 6.75227C134.105 7.13627 133.971 7.85094 133.95 8.89627H136.574ZM140.057 11.6163C140.057 10.6776 140.532 9.9576 141.481 9.45627C142.441 8.95494 143.7 8.69894 145.257 8.68827V8.36827C145.257 7.98427 145.215 7.68027 145.129 7.45627C145.044 7.23227 144.889 7.06694 144.665 6.96027C144.441 6.84294 144.111 6.78427 143.673 6.78427C143.151 6.78427 142.681 6.84827 142.265 6.97627C141.86 7.0936 141.433 7.2536 140.985 7.45627L140.441 6.30427C140.612 6.1656 140.889 6.00027 141.273 5.80827C141.657 5.6056 142.116 5.43494 142.649 5.29627C143.193 5.14694 143.759 5.07227 144.345 5.07227C145.199 5.07227 145.865 5.18427 146.345 5.40827C146.836 5.63227 147.183 5.97894 147.385 6.44827C147.599 6.9176 147.705 7.5576 147.705 8.36827V13.1203H148.537V14.1283C148.292 14.1816 147.951 14.2349 147.513 14.2883C147.076 14.3416 146.703 14.3683 146.393 14.3683C145.988 14.3683 145.716 14.3096 145.577 14.1923C145.449 14.0749 145.385 13.8403 145.385 13.4883V13.1203C145.119 13.4403 144.761 13.7283 144.313 13.9843C143.865 14.2296 143.348 14.3523 142.761 14.3523C142.26 14.3523 141.801 14.2456 141.385 14.0323C140.98 13.8083 140.655 13.4936 140.409 13.0883C140.175 12.6723 140.057 12.1816 140.057 11.6163ZM144.009 12.8803C144.201 12.8803 144.415 12.8269 144.649 12.7203C144.884 12.6029 145.087 12.4643 145.257 12.3043V9.76027C144.425 9.76027 143.807 9.9096 143.401 10.2083C143.007 10.5069 142.809 10.8909 142.809 11.3603C142.809 11.8403 142.916 12.2136 143.129 12.4803C143.343 12.7469 143.636 12.8803 144.009 12.8803ZM152.11 14.3203C151.406 14.3203 150.884 14.1603 150.542 13.8403C150.212 13.5096 150.046 13.0029 150.046 12.3203V6.62427H149.07V5.69627L149.39 5.56827C149.646 5.48294 149.87 5.39227 150.062 5.29627C150.276 5.0936 150.446 4.82694 150.574 4.49627C150.734 4.11227 150.91 3.5736 151.102 2.88027H152.59L152.686 5.28027H154.974V6.62427H152.718V10.8643C152.718 11.4509 152.734 11.8616 152.766 12.0963C152.798 12.3309 152.857 12.4856 152.942 12.5603C153.038 12.6243 153.209 12.6563 153.454 12.6563C153.956 12.6563 154.43 12.5709 154.878 12.4003L155.214 13.4083C154.916 13.6536 154.473 13.8669 153.886 14.0483C153.3 14.2296 152.708 14.3203 152.11 14.3203ZM156.658 2.62427L155.522 2.41627V1.44027L158.738 1.05627H158.786L159.25 1.39227L159.266 4.86427L159.138 6.28827C159.468 5.97894 159.906 5.70694 160.45 5.47227C160.994 5.22694 161.591 5.10427 162.242 5.10427C162.914 5.10427 163.436 5.22694 163.81 5.47227C164.183 5.7176 164.444 6.09094 164.594 6.59227C164.743 7.0936 164.818 7.76027 164.818 8.59227V12.9763L165.794 13.1203V14.1763H161.346V13.1203L162.194 12.9763V8.60827C162.194 7.8616 162.114 7.34427 161.954 7.05627C161.794 6.7576 161.468 6.60827 160.978 6.60827C160.679 6.60827 160.38 6.6776 160.082 6.81627C159.783 6.94427 159.532 7.10427 159.33 7.29627V12.9763L160.21 13.1203V14.1763H155.826V13.1203L156.658 12.9763V2.62427ZM170.894 14.3523C169.432 14.3523 168.35 13.9416 167.646 13.1203C166.942 12.2883 166.59 11.1576 166.59 9.72827C166.59 8.7576 166.771 7.92027 167.134 7.21627C167.496 6.51227 168.003 5.97894 168.654 5.61627C169.315 5.24294 170.088 5.05627 170.974 5.05627C172.094 5.05627 172.947 5.33894 173.534 5.90427C174.131 6.4696 174.44 7.2696 174.462 8.30427C174.462 8.98694 174.414 9.53627 174.318 9.95227H169.31C169.363 10.8589 169.582 11.5523 169.966 12.0323C170.36 12.5016 170.91 12.7363 171.614 12.7363C172.008 12.7363 172.419 12.6723 172.846 12.5443C173.283 12.4056 173.635 12.2509 173.902 12.0803L174.35 13.0563C174.072 13.3656 173.598 13.6589 172.926 13.9363C172.264 14.2136 171.587 14.3523 170.894 14.3523ZM171.918 8.89627L171.934 8.22427C171.934 7.55227 171.843 7.04027 171.662 6.68827C171.48 6.33627 171.171 6.16027 170.734 6.16027C170.286 6.16027 169.939 6.3576 169.694 6.75227C169.448 7.13627 169.315 7.85094 169.294 8.89627H171.918ZM175.641 13.1203L176.617 12.9763V6.96027L175.673 6.67227V5.42427L178.329 5.07227H178.377L178.825 5.40827V5.79227L178.777 7.12027H178.825C178.9 6.87494 179.07 6.59227 179.337 6.27227C179.604 5.9416 179.94 5.65894 180.345 5.42427C180.761 5.17894 181.209 5.05627 181.689 5.05627C181.966 5.05627 182.18 5.0936 182.329 5.16827V7.95227C182.158 7.82427 181.972 7.72294 181.769 7.64827C181.577 7.5736 181.326 7.53627 181.017 7.53627C180.633 7.53627 180.286 7.5896 179.977 7.69627C179.668 7.79227 179.422 7.90427 179.241 8.03227V12.9763L181.001 13.1363V14.1763H175.641V13.1203ZM2.276 19.6323L1.076 19.4083V18.2883H3.604C3.96667 18.2883 4.44667 18.2669 5.044 18.2243C5.172 18.2136 5.332 18.2029 5.524 18.1923C5.716 18.1816 5.94 18.1763 6.196 18.1763C7.35867 18.1763 8.27067 18.2829 8.932 18.4963C9.59333 18.7096 10.052 19.0136 10.308 19.4083C10.5747 19.8029 10.708 20.2989 10.708 20.8963C10.708 21.6963 10.4573 22.3576 9.956 22.8803C9.46533 23.4029 8.836 23.7176 8.068 23.8243C9.13467 23.8243 9.972 24.0643 10.58 24.5443C11.1987 25.0243 11.508 25.7016 11.508 26.5763C11.508 27.7176 11.1133 28.6189 10.324 29.2803C9.54533 29.9416 8.21733 30.2723 6.34 30.2723C6.04133 30.2723 5.75333 30.2616 5.476 30.2403C5.19867 30.2296 5.00133 30.2243 4.884 30.2243C4.5 30.1923 4.084 30.1763 3.636 30.1763H1.044V29.1203L2.276 28.9443V19.6323ZM4.98 23.4243C5.172 23.4456 5.604 23.4563 6.276 23.4563C6.86267 23.4563 7.29467 23.2589 7.572 22.8643C7.84933 22.4589 7.988 21.8936 7.988 21.1683C7.988 20.4963 7.83867 20.0056 7.54 19.6963C7.24133 19.3869 6.756 19.2323 6.084 19.2323C5.924 19.2323 5.73733 19.2429 5.524 19.2643C5.31067 19.2749 5.12933 19.2909 4.98 19.3123V23.4243ZM4.98 29.0403C5.19333 29.1256 5.61467 29.1683 6.244 29.1683C7.03333 29.1683 7.604 28.9603 7.956 28.5443C8.31867 28.1283 8.5 27.5256 8.5 26.7363C8.5 25.9896 8.33467 25.4563 8.004 25.1363C7.67333 24.8163 7.15067 24.6563 6.436 24.6563C5.84933 24.6563 5.364 24.6669 4.98 24.6883V29.0403ZM13.4728 18.6243L12.3528 18.4163V17.4403L15.5528 17.0563H15.6008L16.0648 17.3923V28.9763L17.1048 29.1203V30.1763H12.4488V29.1203L13.4728 28.9763V18.6243ZM17.9168 27.6163C17.9168 26.6776 18.3914 25.9576 19.3408 25.4563C20.3008 24.9549 21.5594 24.6989 23.1168 24.6883V24.3683C23.1168 23.9843 23.0741 23.6803 22.9888 23.4563C22.9034 23.2323 22.7488 23.0669 22.5248 22.9603C22.3008 22.8429 21.9701 22.7843 21.5328 22.7843C21.0101 22.7843 20.5408 22.8483 20.1248 22.9763C19.7194 23.0936 19.2928 23.2536 18.8448 23.4563L18.3008 22.3043C18.4714 22.1656 18.7488 22.0003 19.1328 21.8083C19.5168 21.6056 19.9754 21.4349 20.5088 21.2963C21.0528 21.1469 21.6181 21.0723 22.2048 21.0723C23.0581 21.0723 23.7248 21.1843 24.2048 21.4083C24.6954 21.6323 25.0421 21.9789 25.2448 22.4483C25.4581 22.9176 25.5648 23.5576 25.5648 24.3683V29.1203H26.3968V30.1283C26.1514 30.1816 25.8101 30.2349 25.3728 30.2883C24.9354 30.3416 24.5621 30.3683 24.2528 30.3683C23.8474 30.3683 23.5754 30.3096 23.4368 30.1923C23.3088 30.0749 23.2448 29.8403 23.2448 29.4883V29.1203C22.9781 29.4403 22.6208 29.7283 22.1727 29.9843C21.7248 30.2296 21.2074 30.3523 20.6208 30.3523C20.1194 30.3523 19.6608 30.2456 19.2448 30.0323C18.8394 29.8083 18.5141 29.4936 18.2688 29.0883C18.0341 28.6723 17.9168 28.1816 17.9168 27.6163ZM21.8688 28.8803C22.0608 28.8803 22.2741 28.8269 22.5088 28.7203C22.7434 28.6029 22.9461 28.4643 23.1168 28.3043V25.7603C22.2848 25.7603 21.6661 25.9096 21.2608 26.2083C20.8661 26.5069 20.6688 26.8909 20.6688 27.3603C20.6688 27.8403 20.7754 28.2136 20.9888 28.4803C21.2021 28.7469 21.4954 28.8803 21.8688 28.8803ZM27.0898 25.7923C27.0898 24.8429 27.2818 24.0109 27.6658 23.2963C28.0498 22.5816 28.5884 22.0323 29.2818 21.6483C29.9751 21.2536 30.7751 21.0563 31.6818 21.0563C32.1298 21.0563 32.5138 21.0883 32.8338 21.1523C33.1644 21.2056 33.5004 21.2856 33.8418 21.3923C34.1511 21.4776 34.3431 21.5256 34.4178 21.5363L34.3058 24.4323H32.6898L32.2738 22.5923C32.2418 22.4536 32.1511 22.3576 32.0018 22.3043C31.8631 22.2403 31.6924 22.2083 31.4898 22.2083C30.9884 22.2083 30.5938 22.4536 30.3058 22.9443C30.0284 23.4349 29.8898 24.2509 29.8898 25.3923C29.8898 26.4803 30.0658 27.3176 30.4178 27.9043C30.7804 28.4803 31.2658 28.7683 31.8738 28.7683C32.6631 28.7683 33.3884 28.5656 34.0498 28.1603L34.4818 29.1043C34.2258 29.3923 33.8044 29.6749 33.2178 29.9523C32.6311 30.2189 31.9804 30.3523 31.2658 30.3523C29.8684 30.3523 28.8231 29.9416 28.1298 29.1203C27.4364 28.2883 27.0898 27.1789 27.0898 25.7923ZM36.3608 18.6243L35.2728 18.4163V17.4403L38.4568 17.0563H38.5048L38.9688 17.3923V24.8643L38.9208 25.6483L41.9288 22.4803L40.7448 22.3043V21.2963H45.0968V22.3043L43.7847 22.5123L42.0568 24.1603L44.6968 28.9763L45.5288 29.1203V30.1763H41.0808V29.1203L41.8008 28.9763L40.2168 25.8083L38.9208 27.1523L38.9528 27.9683V28.9763L39.8808 29.1203V30.1763H35.4808V29.1203L36.3608 28.9763V18.6243Z" fill="black"/>
<path d="M3.268 43.5923C3.08667 43.6456 2.76133 43.7203 2.292 43.8163C1.83333 43.9016 1.48667 43.9549 1.252 43.9763L1.076 42.7123C1.67333 42.5949 2.30267 42.3763 2.964 42.0563C3.62533 41.7363 4.15333 41.4109 4.548 41.0803H4.564L6.004 41.2723V49.9443L7.732 50.1363V51.1763H1.412V50.1363L3.268 49.9603V43.5923ZM8.528 50.2003C9.98933 49.3149 11.1627 48.3816 12.048 47.4003C12.944 46.4083 13.392 45.4269 13.392 44.4563C13.392 43.9763 13.232 43.5923 12.912 43.3043C12.6027 43.0163 12.1813 42.8723 11.648 42.8723C11.2853 42.8723 10.9547 42.9256 10.656 43.0323C10.368 43.1389 10.1333 43.2563 9.952 43.3843C9.78133 43.5016 9.56267 43.6723 9.296 43.8963L8.64 42.9203C8.84267 42.6536 9.152 42.3816 9.568 42.1043C9.984 41.8163 10.4587 41.5763 10.992 41.3843C11.536 41.1923 12.0853 41.0963 12.64 41.0963C13.44 41.0963 14.112 41.2296 14.656 41.4963C15.2 41.7523 15.6 42.0989 15.856 42.5363C16.1227 42.9736 16.256 43.4589 16.256 43.9923C16.256 44.9949 15.776 45.9869 14.816 46.9683C13.8667 47.9496 12.624 48.8723 11.088 49.7363L15.536 49.2723L16.176 47.9443L17.28 48.1843L16.8 51.1763H8.912L8.528 50.2003ZM20.582 53.7363C20.23 53.7363 19.8407 53.7043 19.414 53.6403C18.998 53.5869 18.6673 53.5229 18.422 53.4483V52.1043C18.8913 52.2536 19.4087 52.3283 19.974 52.3283C20.6673 52.3283 21.2647 52.2163 21.766 51.9923C22.278 51.7683 22.6673 51.4589 22.934 51.0643C23.2007 50.6696 23.334 50.2323 23.334 49.7523C23.334 48.4403 22.5873 47.7416 21.094 47.6563L20.166 47.8963L19.814 46.8243C20.198 46.7709 20.63 46.6376 21.11 46.4243C21.6967 46.1469 22.1393 45.8109 22.438 45.4163C22.7473 45.0216 22.902 44.6003 22.902 44.1523C22.902 43.6723 22.7473 43.3203 22.438 43.0963C22.1287 42.8616 21.7447 42.7443 21.286 42.7443C20.8167 42.7443 20.3847 42.8243 19.99 42.9843C19.606 43.1336 19.2807 43.3203 19.014 43.5443L18.374 42.4243C18.566 42.2429 18.8593 42.0509 19.254 41.8483C19.6593 41.6349 20.1127 41.4589 20.614 41.3203C21.126 41.1709 21.638 41.0963 22.15 41.0963C23.206 41.0963 24.0593 41.3149 24.71 41.7523C25.3607 42.1896 25.686 42.8456 25.686 43.7203C25.686 44.4989 25.3873 45.1709 24.79 45.7363C24.2033 46.3016 23.462 46.7443 22.566 47.0643C22.6833 47.0536 22.8487 47.0483 23.062 47.0483C24.022 47.0483 24.8007 47.2883 25.398 47.7683C25.9953 48.2376 26.294 48.8829 26.294 49.7043C26.294 50.4616 26.0647 51.1443 25.606 51.7523C25.1473 52.3709 24.486 52.8563 23.622 53.2083C22.758 53.5603 21.7447 53.7363 20.582 53.7363ZM33.131 51.1763H27.867L27.275 50.2643C28.0963 48.7389 29.563 45.4109 31.675 40.2803H32.203L34.331 41.3523L30.395 48.7923L29.675 49.8643L33.147 49.6403L33.371 46.7283L35.339 46.5843V49.4803L37.259 49.3683V51.1763H35.339V53.7363H33.131V51.1763ZM39.0014 52.4723C39.3107 52.5043 39.62 52.5203 39.9294 52.5203C40.644 52.5203 41.2947 52.3709 41.8814 52.0723C42.4787 51.7843 42.948 51.3896 43.2894 50.8883C43.6307 50.3763 43.8014 49.8269 43.8014 49.2403C43.8014 48.5043 43.6147 47.9816 43.2414 47.6723C42.8787 47.3523 42.3507 47.1923 41.6574 47.1923C41.3054 47.1923 40.9267 47.2403 40.5214 47.3363C40.116 47.4216 39.7747 47.5229 39.4974 47.6403L38.9054 47.2243L39.6734 41.2403H44.8574L45.0174 40.9363H46.1854L45.8174 43.1603H41.3534L40.7294 46.2323C41.5614 45.8163 42.404 45.6083 43.2574 45.6083C44.3774 45.6083 45.2254 45.8909 45.8014 46.4563C46.388 47.0109 46.6814 47.7843 46.6814 48.7763C46.6814 49.7469 46.3987 50.6109 45.8334 51.3683C45.268 52.1256 44.484 52.7123 43.4814 53.1283C42.4894 53.5443 41.3694 53.7523 40.1214 53.7523C39.716 53.7523 39.3427 53.7149 39.0014 53.6403V52.4723ZM53.0341 51.3683C52.1168 51.3683 51.3221 51.1496 50.6501 50.7123C49.9888 50.2643 49.4821 49.6563 49.1301 48.8883C48.7781 48.1203 48.6021 47.2563 48.6021 46.2963C48.6021 44.9096 48.9435 43.6509 49.6261 42.5203C50.3195 41.3789 51.1941 40.4669 52.2501 39.7843C53.3061 39.1016 54.3621 38.7069 55.4181 38.6003L55.9621 39.5603C54.8741 39.8803 53.9675 40.4296 53.2421 41.2083C52.5275 41.9869 52.0155 42.9096 51.7061 43.9763C52.3141 43.4536 53.1035 43.1923 54.0741 43.1923C55.1088 43.1923 55.9355 43.5176 56.5541 44.1683C57.1728 44.8189 57.4821 45.7149 57.4821 46.8563C57.4821 47.6563 57.3061 48.4029 56.9541 49.0963C56.6128 49.7789 56.1061 50.3283 55.4341 50.7443C54.7621 51.1603 53.9621 51.3683 53.0341 51.3683ZM53.1141 44.5363C52.7621 44.5363 52.4368 44.6056 52.1381 44.7443C51.8501 44.8829 51.6208 45.0483 51.4501 45.2403C51.4075 45.5389 51.3861 45.9976 51.3861 46.6163C51.3861 49.0696 51.9621 50.2963 53.1141 50.2963C53.6475 50.2963 54.0581 50.0243 54.3461 49.4803C54.6341 48.9256 54.7781 48.2163 54.7781 47.3523C54.7781 45.4749 54.2235 44.5363 53.1141 44.5363ZM60.6146 53.4003C61.308 52.0456 61.9853 50.6003 62.6466 49.0643C63.3186 47.5176 64.0653 45.7523 64.8866 43.7683L65.3026 42.7763L61.3826 42.8563L60.4546 45.3363L58.9346 45.0323L59.3506 41.2403H67.1906L67.6706 41.8483L63.3986 54.1363L60.6146 53.4003ZM68.7051 48.2643C68.7051 47.6563 68.9078 47.1016 69.3131 46.6003C69.7185 46.0883 70.3051 45.6776 71.0731 45.3683C70.4865 44.9736 70.0278 44.5363 69.6971 44.0563C69.3771 43.5656 69.2171 42.9683 69.2171 42.2643C69.2171 41.6136 69.3931 41.0536 69.7451 40.5843C70.0971 40.1149 70.5771 39.7576 71.1851 39.5123C71.7931 39.2563 72.4705 39.1283 73.2171 39.1283C73.9958 39.1283 74.6625 39.2456 75.2171 39.4803C75.7825 39.7043 76.2091 40.0189 76.4971 40.4243C76.7958 40.8296 76.9451 41.2883 76.9451 41.8003C76.9451 42.3763 76.7638 42.9043 76.4011 43.3843C76.0491 43.8536 75.5318 44.2429 74.8491 44.5523C75.7025 45.0323 76.3691 45.5389 76.8491 46.0723C77.3398 46.6056 77.5851 47.2723 77.5851 48.0723C77.5851 48.7336 77.3931 49.3149 77.0091 49.8163C76.6251 50.3069 76.0865 50.6856 75.3931 50.9523C74.7105 51.2189 73.9211 51.3523 73.0251 51.3523C71.8091 51.3523 70.7851 51.1016 69.9531 50.6003C69.1211 50.0883 68.7051 49.3096 68.7051 48.2643ZM71.5531 41.6723C71.5531 42.0136 71.6545 42.3176 71.8571 42.5843C72.0598 42.8509 72.3211 43.0909 72.6411 43.3043C72.9611 43.5069 73.3878 43.7523 73.9211 44.0403C74.2625 43.7949 74.5238 43.5123 74.7051 43.1923C74.8971 42.8616 74.9931 42.5149 74.9931 42.1523C74.9931 41.5123 74.8385 41.0163 74.5291 40.6643C74.2305 40.3123 73.7931 40.1363 73.2171 40.1363C72.7585 40.1363 72.3638 40.2749 72.0331 40.5523C71.7131 40.8189 71.5531 41.1923 71.5531 41.6723ZM74.9451 48.5363C74.9451 48.2056 74.8438 47.9069 74.6411 47.6403C74.4385 47.3736 74.1771 47.1443 73.8571 46.9523C73.5478 46.7496 73.1318 46.5096 72.6091 46.2323L71.9211 45.8643C71.5905 46.1096 71.3291 46.4029 71.1371 46.7443C70.9451 47.0856 70.8491 47.4643 70.8491 47.8803C70.8491 48.5949 71.0411 49.1763 71.4251 49.6243C71.8198 50.0616 72.3691 50.2803 73.0731 50.2803C73.5638 50.2803 73.9958 50.1203 74.3691 49.8003C74.7531 49.4803 74.9451 49.0589 74.9451 48.5363ZM83.5925 41.0963C84.5418 41.0963 85.3418 41.3096 85.9925 41.7363C86.6538 42.1523 87.1498 42.7336 87.4805 43.4803C87.8218 44.2269 87.9925 45.0856 87.9925 46.0563C87.9925 47.4749 87.6672 48.7656 87.0165 49.9283C86.3765 51.0803 85.5445 52.0029 84.5205 52.6963C83.4965 53.4003 82.4458 53.8056 81.3685 53.9123L80.8405 52.9523C81.9178 52.6323 82.7925 52.0829 83.4645 51.3043C84.1472 50.5256 84.6272 49.5816 84.9045 48.4723C84.6485 48.7069 84.3285 48.8989 83.9445 49.0483C83.5605 49.1976 83.1285 49.2723 82.6485 49.2723C81.9658 49.2723 81.3525 49.1176 80.8085 48.8083C80.2752 48.4883 79.8538 48.0403 79.5445 47.4643C79.2458 46.8776 79.0965 46.2003 79.0965 45.4323C79.0965 44.6536 79.2725 43.9336 79.6245 43.2723C79.9872 42.6109 80.5045 42.0829 81.1765 41.6883C81.8592 41.2936 82.6645 41.0963 83.5925 41.0963ZM83.5285 47.9123C83.8698 47.9123 84.1845 47.8429 84.4725 47.7043C84.7605 47.5656 84.9845 47.4056 85.1445 47.2243C85.1872 46.6909 85.2138 46.2909 85.2245 46.0243C85.2245 44.7656 85.0858 43.8056 84.8085 43.1443C84.5312 42.4829 84.0778 42.1523 83.4485 42.1523C82.9258 42.1523 82.5205 42.4243 82.2325 42.9683C81.9445 43.5016 81.8005 44.1736 81.8005 44.9843C81.8005 45.9869 81.9552 46.7283 82.2645 47.2083C82.5738 47.6776 82.9952 47.9123 83.5285 47.9123ZM94.0423 51.3363C92.6769 51.3363 91.6209 50.9043 90.8743 50.0403C90.1276 49.1656 89.7543 47.9229 89.7543 46.3123C89.7543 45.1603 89.9676 44.1949 90.3943 43.4163C90.8209 42.6269 91.3916 42.0456 92.1063 41.6723C92.8209 41.2883 93.6103 41.0963 94.4743 41.0963C95.8396 41.0963 96.8849 41.5229 97.6103 42.3763C98.3463 43.2189 98.7143 44.4509 98.7143 46.0723C98.7143 47.2243 98.5009 48.1949 98.0743 48.9843C97.6583 49.7736 97.0983 50.3656 96.3943 50.7603C95.6903 51.1443 94.9063 51.3363 94.0423 51.3363ZM94.2503 50.2963C94.8156 50.2963 95.2369 49.9656 95.5143 49.3043C95.7916 48.6429 95.9303 47.6349 95.9303 46.2803C95.9303 45.2669 95.8716 44.4616 95.7543 43.8643C95.6476 43.2669 95.4716 42.8349 95.2263 42.5683C94.9809 42.2909 94.6503 42.1523 94.2343 42.1523C93.1036 42.1523 92.5383 43.4696 92.5383 46.1043C92.5383 47.5869 92.6716 48.6589 92.9383 49.3203C93.2049 49.9709 93.6423 50.2963 94.2503 50.2963Z" fill="black"/>
</svg>
