<svg width="179" height="54" viewBox="0 0 179 54" fill="none" xmlns="http://www.w3.org/2000/svg">
<path d="M16.884 3.38813V14.5881H1.7V3.38813H4.82V12.0761H7.748V3.38813H10.868V12.0761H13.764V3.38813H16.884ZM23.7421 5.77213C24.6915 5.77213 25.5181 5.95347 26.2221 6.31613C26.9261 6.6788 27.4648 7.20147 27.8381 7.88413C28.2221 8.55613 28.4141 9.34547 28.4141 10.2521C28.4141 11.1481 28.2381 11.9375 27.8861 12.6201C27.5341 13.2921 27.0381 13.8148 26.3981 14.1881C25.7581 14.5508 25.0168 14.7321 24.1741 14.7321C23.1821 14.7321 22.4035 14.4281 21.8381 13.8201V17.6921H18.7981V10.2841C18.7981 9.38813 19.0008 8.5988 19.4061 7.91613C19.8115 7.23347 20.3875 6.70547 21.1341 6.33213C21.8808 5.9588 22.7501 5.77213 23.7421 5.77213ZM23.5981 12.3161C24.1421 12.3161 24.5795 12.1295 24.9101 11.7561C25.2515 11.3721 25.4221 10.8708 25.4221 10.2521C25.4221 9.63347 25.2515 9.13747 24.9101 8.76413C24.5795 8.38013 24.1421 8.18813 23.5981 8.18813C23.0541 8.18813 22.6168 8.38013 22.2861 8.76413C21.9555 9.13747 21.7901 9.63347 21.7901 10.2521C21.7901 10.8815 21.9501 11.3828 22.2701 11.7561C22.6008 12.1295 23.0435 12.3161 23.5981 12.3161ZM38.8114 5.91613V14.5881H35.9154V13.6761C35.5954 14.0175 35.2114 14.2788 34.7634 14.4601C34.326 14.6415 33.8567 14.7321 33.3554 14.7321C32.2247 14.7321 31.3234 14.4015 30.6514 13.7401C29.99 13.0788 29.6594 12.0868 29.6594 10.7641V5.91613H32.6994V10.2681C32.6994 11.5161 33.1847 12.1401 34.1554 12.1401C34.6354 12.1401 35.0247 11.9748 35.3234 11.6441C35.622 11.3028 35.7714 10.7855 35.7714 10.0921V5.91613H38.8114ZM53.4121 10.2201C53.4121 11.5748 52.9588 12.6415 52.0521 13.4201C51.1455 14.1881 49.8495 14.6361 48.1641 14.7641V17.6921H45.4761V14.7801C43.7801 14.6415 42.4788 14.1881 41.5721 13.4201C40.6761 12.6415 40.2281 11.5748 40.2281 10.2201C40.2281 8.87613 40.6708 7.8308 41.5561 7.08413C42.4521 6.33747 43.7588 5.90013 45.4761 5.77213V2.71613H48.1641V5.77213C49.8601 5.9108 51.1561 6.35347 52.0521 7.10013C52.9588 7.8468 53.4121 8.8868 53.4121 10.2201ZM43.1241 10.2201C43.1241 10.9241 43.3055 11.4628 43.6681 11.8361C44.0415 12.1988 44.6441 12.4335 45.4761 12.5401V7.99613C44.6335 8.1028 44.0308 8.33213 43.6681 8.68413C43.3055 9.03613 43.1241 9.54813 43.1241 10.2201ZM48.1641 12.5401C49.0068 12.4335 49.6095 12.1988 49.9721 11.8361C50.3455 11.4628 50.5321 10.9241 50.5321 10.2201C50.5321 9.54813 50.3455 9.03613 49.9721 8.68413C49.6095 8.33213 49.0068 8.10813 48.1641 8.01213V12.5401ZM66.1325 5.77213C67.1992 5.77213 68.0472 6.09213 68.6765 6.73213C69.3165 7.37213 69.6365 8.33747 69.6365 9.62813V14.5881H66.5965V10.1241C66.5965 9.51613 66.4792 9.06813 66.2445 8.78013C66.0205 8.49213 65.7005 8.34813 65.2845 8.34813C64.8258 8.34813 64.4578 8.50813 64.1805 8.82813C63.9032 9.14813 63.7645 9.63347 63.7645 10.2841V14.5881H60.7245V10.1241C60.7245 8.94013 60.2872 8.34813 59.4125 8.34813C58.9432 8.34813 58.5698 8.50813 58.2925 8.82813C58.0152 9.14813 57.8765 9.63347 57.8765 10.2841V14.5881H54.8365V5.91613H57.7325V6.82813C58.0525 6.47613 58.4312 6.2148 58.8685 6.04413C59.3165 5.8628 59.8018 5.77213 60.3245 5.77213C60.9325 5.77213 61.4765 5.88413 61.9565 6.10813C62.4365 6.33213 62.8258 6.67347 63.1245 7.13213C63.4658 6.6948 63.8978 6.3588 64.4205 6.12413C64.9432 5.88947 65.5138 5.77213 66.1325 5.77213ZM89.3334 3.16413C90.656 3.16413 91.6854 3.5588 92.4214 4.34813C93.168 5.1268 93.5414 6.25747 93.5414 7.74013V14.5881H90.3734V7.83613C90.3734 7.16413 90.1974 6.65747 89.8454 6.31613C89.4934 5.96413 89.024 5.78813 88.4374 5.78813C87.808 5.78813 87.3067 5.9748 86.9334 6.34813C86.5707 6.7108 86.3894 7.26013 86.3894 7.99613V14.5881H83.2214V7.83613C83.2214 7.16413 83.056 6.65747 82.7254 6.31613C82.4054 5.96413 81.9627 5.78813 81.3974 5.78813C80.7894 5.78813 80.304 5.9748 79.9414 6.34813C79.5787 6.7108 79.3974 7.26013 79.3974 7.99613V14.5881H76.2294V3.38813H79.3014V4.63613C79.6427 4.15613 80.08 3.79347 80.6134 3.54813C81.1574 3.29213 81.7867 3.16413 82.5014 3.16413C83.2374 3.16413 83.8774 3.29747 84.4214 3.56413C84.976 3.8308 85.424 4.22013 85.7654 4.73213C86.1494 4.22013 86.6507 3.8308 87.2694 3.56413C87.888 3.29747 88.576 3.16413 89.3334 3.16413ZM99.9061 14.7321C98.9781 14.7321 98.1408 14.5401 97.3941 14.1561C96.6475 13.7721 96.0608 13.2388 95.6341 12.5561C95.2181 11.8735 95.0101 11.1001 95.0101 10.2361C95.0101 9.3828 95.2181 8.6148 95.6341 7.93213C96.0608 7.24947 96.6421 6.72147 97.3781 6.34813C98.1248 5.96413 98.9675 5.77213 99.9061 5.77213C100.845 5.77213 101.687 5.96413 102.434 6.34813C103.181 6.72147 103.762 7.24947 104.178 7.93213C104.594 8.60413 104.802 9.37213 104.802 10.2361C104.802 11.1001 104.594 11.8735 104.178 12.5561C103.762 13.2388 103.181 13.7721 102.434 14.1561C101.687 14.5401 100.845 14.7321 99.9061 14.7321ZM99.9061 12.3161C100.439 12.3161 100.877 12.1348 101.218 11.7721C101.559 11.3988 101.73 10.8868 101.73 10.2361C101.73 9.59613 101.559 9.0948 101.218 8.73213C100.877 8.36947 100.439 8.18813 99.9061 8.18813C99.3728 8.18813 98.9355 8.36947 98.5941 8.73213C98.2528 9.0948 98.0821 9.59613 98.0821 10.2361C98.0821 10.8868 98.2528 11.3988 98.5941 11.7721C98.9355 12.1348 99.3728 12.3161 99.9061 12.3161ZM111.858 5.77213C112.936 5.77213 113.8 6.09213 114.45 6.73213C115.112 7.37213 115.442 8.33747 115.442 9.62813V14.5881H112.402V10.1241C112.402 8.94013 111.928 8.34813 110.978 8.34813C110.456 8.34813 110.034 8.5188 109.714 8.86013C109.405 9.20147 109.25 9.71347 109.25 10.3961V14.5881H106.21V5.91613H109.106V6.86013C109.448 6.50813 109.853 6.24147 110.322 6.06013C110.792 5.86813 111.304 5.77213 111.858 5.77213ZM122.935 14.2361C122.679 14.3961 122.364 14.5188 121.991 14.6041C121.628 14.6895 121.239 14.7321 120.823 14.7321C119.692 14.7321 118.823 14.4548 118.215 13.9001C117.618 13.3455 117.319 12.5188 117.319 11.4201V3.98013H120.359V6.23613H122.327V8.50813H120.359V11.3881C120.359 11.7081 120.439 11.9535 120.599 12.1241C120.759 12.2948 120.978 12.3801 121.255 12.3801C121.607 12.3801 121.916 12.2895 122.183 12.1081L122.935 14.2361ZM127.253 14.7321C126.528 14.7321 125.813 14.6521 125.109 14.4921C124.405 14.3215 123.84 14.1028 123.413 13.8361L124.325 11.7561C124.72 12.0015 125.189 12.1988 125.733 12.3481C126.277 12.4868 126.816 12.5561 127.349 12.5561C127.84 12.5561 128.186 12.5081 128.389 12.4121C128.602 12.3055 128.709 12.1561 128.709 11.9641C128.709 11.7721 128.581 11.6388 128.325 11.5641C128.08 11.4788 127.685 11.3988 127.141 11.3241C126.448 11.2388 125.856 11.1268 125.365 10.9881C124.885 10.8495 124.469 10.5935 124.117 10.2201C123.765 9.8468 123.589 9.32413 123.589 8.65213C123.589 8.09747 123.754 7.6068 124.085 7.18013C124.416 6.7428 124.896 6.40147 125.525 6.15613C126.165 5.90013 126.928 5.77213 127.813 5.77213C128.442 5.77213 129.066 5.83613 129.685 5.96413C130.304 6.09213 130.821 6.27347 131.237 6.50813L130.325 8.57213C129.557 8.14547 128.725 7.93213 127.829 7.93213C127.349 7.93213 126.997 7.9908 126.773 8.10813C126.549 8.2148 126.437 8.3588 126.437 8.54013C126.437 8.7428 126.56 8.8868 126.805 8.97213C127.05 9.0468 127.456 9.1268 128.021 9.21213C128.736 9.3188 129.328 9.44147 129.797 9.58013C130.266 9.7188 130.672 9.9748 131.013 10.3481C131.365 10.7108 131.541 11.2228 131.541 11.8841C131.541 12.4281 131.376 12.9188 131.045 13.3561C130.714 13.7828 130.224 14.1188 129.573 14.3641C128.933 14.6095 128.16 14.7321 127.253 14.7321ZM137.491 12.4121C137.907 12.4121 138.264 12.3535 138.563 12.2361C138.872 12.1188 139.182 11.9268 139.491 11.6601L141.075 13.3241C140.254 14.2628 139.027 14.7321 137.395 14.7321C136.382 14.7321 135.491 14.5401 134.723 14.1561C133.955 13.7721 133.358 13.2388 132.931 12.5561C132.515 11.8735 132.307 11.1001 132.307 10.2361C132.307 9.3828 132.515 8.62013 132.931 7.94813C133.347 7.26547 133.918 6.73213 134.643 6.34813C135.379 5.96413 136.2 5.77213 137.107 5.77213C137.95 5.77213 138.718 5.94813 139.411 6.30013C140.115 6.64147 140.675 7.14813 141.091 7.82013C141.507 8.48147 141.715 9.2708 141.715 10.1881L135.523 11.3721C135.854 12.0655 136.51 12.4121 137.491 12.4121ZM137.123 7.93213C136.6 7.93213 136.174 8.09747 135.843 8.42813C135.512 8.74813 135.326 9.21213 135.283 9.82013L138.803 9.13213C138.696 8.76947 138.494 8.48147 138.195 8.26813C137.896 8.04413 137.539 7.93213 137.123 7.93213ZM146.013 6.95613C146.322 6.56147 146.722 6.26813 147.213 6.07613C147.714 5.87347 148.285 5.77213 148.925 5.77213V8.50813C148.647 8.47613 148.418 8.46013 148.237 8.46013C147.586 8.46013 147.074 8.63613 146.701 8.98813C146.338 9.34013 146.157 9.8788 146.157 10.6041V14.5881H143.117V5.91613H146.013V6.95613ZM153.075 6.95613C153.384 6.56147 153.784 6.26813 154.275 6.07613C154.776 5.87347 155.347 5.77213 155.987 5.77213V8.50813C155.71 8.47613 155.48 8.46013 155.299 8.46013C154.648 8.46013 154.136 8.63613 153.763 8.98813C153.4 9.34013 153.219 9.8788 153.219 10.6041V14.5881H150.179V5.91613H153.075V6.95613ZM166.332 5.91613V14.5881H163.436V13.7241C162.87 14.3961 162.017 14.7321 160.876 14.7321C160.086 14.7321 159.366 14.5508 158.716 14.1881C158.076 13.8148 157.564 13.2868 157.18 12.6041C156.806 11.9215 156.62 11.1321 156.62 10.2361C156.62 9.34013 156.806 8.55613 157.18 7.88413C157.564 7.20147 158.076 6.6788 158.716 6.31613C159.366 5.95347 160.086 5.77213 160.876 5.77213C161.9 5.77213 162.705 6.0708 163.292 6.66813V5.91613H166.332ZM161.516 12.3161C162.049 12.3161 162.486 12.1348 162.828 11.7721C163.169 11.3988 163.34 10.8868 163.34 10.2361C163.34 9.59613 163.169 9.0948 162.828 8.73213C162.486 8.36947 162.049 8.18813 161.516 8.18813C160.982 8.18813 160.545 8.36947 160.204 8.73213C159.862 9.0948 159.692 9.59613 159.692 10.2361C159.692 10.8868 159.862 11.3988 160.204 11.7721C160.545 12.1348 160.982 12.3161 161.516 12.3161ZM173.873 14.2361C173.617 14.3961 173.302 14.5188 172.929 14.6041C172.566 14.6895 172.177 14.7321 171.761 14.7321C170.63 14.7321 169.761 14.4548 169.153 13.9001C168.555 13.3455 168.257 12.5188 168.257 11.4201V3.98013H171.297V6.23613H173.265V8.50813H171.297V11.3881C171.297 11.7081 171.377 11.9535 171.536 12.1241C171.697 12.2948 171.915 12.3801 172.193 12.3801C172.545 12.3801 172.854 12.2895 173.121 12.1081L173.873 14.2361ZM6.852 19.1641C7.908 19.1641 8.836 19.3775 9.636 19.8041C10.4467 20.2201 11.0707 20.8335 11.508 21.6441C11.956 22.4441 12.18 23.4095 12.18 24.5401V30.5881H9.012V28.1081H4.644V30.5881H1.524V24.5401C1.524 23.4095 1.74267 22.4441 2.18 21.6441C2.628 20.8335 3.252 20.2201 4.052 19.8041C4.86267 19.3775 5.796 19.1641 6.852 19.1641ZM9.012 25.6601V24.2681C9.012 23.4468 8.81467 22.8281 8.42 22.4121C8.02533 21.9961 7.49733 21.7881 6.836 21.7881C6.164 21.7881 5.63067 21.9961 5.236 22.4121C4.84133 22.8281 4.644 23.4468 4.644 24.2681V25.6601H9.012ZM17.5551 30.7321C16.4885 30.7321 15.6565 30.4601 15.0591 29.9161C14.4725 29.3615 14.1791 28.5721 14.1791 27.5481V18.7161H17.2191V27.3881C17.2191 27.7081 17.2991 27.9535 17.4591 28.1241C17.6298 28.2948 17.8645 28.3801 18.1631 28.3801C18.4085 28.3801 18.6378 28.3268 18.8511 28.2201L18.9791 30.5081C18.5205 30.6575 18.0458 30.7321 17.5551 30.7321ZM25.6538 30.2361C25.3978 30.3961 25.0831 30.5188 24.7098 30.6041C24.3471 30.6895 23.9578 30.7321 23.5418 30.7321C22.4111 30.7321 21.5418 30.4548 20.9338 29.9001C20.3364 29.3455 20.0378 28.5188 20.0378 27.4201V19.9801H23.0778V22.2361H25.0458V24.5081H23.0778V27.3881C23.0778 27.7081 23.1578 27.9535 23.3177 28.1241C23.4778 28.2948 23.6964 28.3801 23.9738 28.3801C24.3258 28.3801 24.6351 28.2895 24.9018 28.1081L25.6538 30.2361ZM31.2098 28.4121C31.6258 28.4121 31.9831 28.3535 32.2818 28.2361C32.5911 28.1188 32.9004 27.9268 33.2098 27.6601L34.7938 29.3241C33.9724 30.2628 32.7458 30.7321 31.1138 30.7321C30.1004 30.7321 29.2098 30.5401 28.4418 30.1561C27.6738 29.7721 27.0764 29.2388 26.6497 28.5561C26.2338 27.8735 26.0258 27.1001 26.0258 26.2361C26.0258 25.3828 26.2338 24.6201 26.6497 23.9481C27.0658 23.2655 27.6364 22.7321 28.3618 22.3481C29.0978 21.9641 29.9191 21.7721 30.8258 21.7721C31.6684 21.7721 32.4364 21.9481 33.1298 22.3001C33.8338 22.6415 34.3938 23.1481 34.8098 23.8201C35.2258 24.4815 35.4338 25.2708 35.4338 26.1881L29.2418 27.3721C29.5724 28.0655 30.2284 28.4121 31.2098 28.4121ZM30.8418 23.9321C30.3191 23.9321 29.8924 24.0975 29.5618 24.4281C29.2311 24.7481 29.0444 25.2121 29.0018 25.8201L32.5218 25.1321C32.4151 24.7695 32.2124 24.4815 31.9138 24.2681C31.6151 24.0441 31.2578 23.9321 30.8418 23.9321ZM39.7314 22.9561C40.0407 22.5615 40.4407 22.2681 40.9314 22.0761C41.4327 21.8735 42.0034 21.7721 42.6434 21.7721V24.5081C42.366 24.4761 42.1367 24.4601 41.9554 24.4601C41.3047 24.4601 40.7927 24.6361 40.4194 24.9881C40.0567 25.3401 39.8754 25.8788 39.8754 26.6041V30.5881H36.8354V21.9161H39.7314V22.9561ZM49.5459 21.7721C50.6232 21.7721 51.4872 22.0921 52.1379 22.7321C52.7992 23.3721 53.1299 24.3375 53.1299 25.6281V30.5881H50.0899V26.1241C50.0899 24.9401 49.6152 24.3481 48.6659 24.3481C48.1432 24.3481 47.7219 24.5188 47.4019 24.8601C47.0925 25.2015 46.9379 25.7135 46.9379 26.3961V30.5881H43.8979V21.9161H46.7939V22.8601C47.1352 22.5081 47.5405 22.2415 48.0099 22.0601C48.4792 21.8681 48.9912 21.7721 49.5459 21.7721ZM64.3315 21.9161V30.5881H61.4355V29.7241C60.8702 30.3961 60.0168 30.7321 58.8755 30.7321C58.0862 30.7321 57.3662 30.5508 56.7155 30.1881C56.0755 29.8148 55.5635 29.2868 55.1795 28.6041C54.8062 27.9215 54.6195 27.1321 54.6195 26.2361C54.6195 25.3401 54.8062 24.5561 55.1795 23.8841C55.5635 23.2015 56.0755 22.6788 56.7155 22.3161C57.3662 21.9535 58.0862 21.7721 58.8755 21.7721C59.8995 21.7721 60.7048 22.0708 61.2915 22.6681V21.9161H64.3315ZM59.5155 28.3161C60.0488 28.3161 60.4862 28.1348 60.8275 27.7721C61.1688 27.3988 61.3395 26.8868 61.3395 26.2361C61.3395 25.5961 61.1688 25.0948 60.8275 24.7321C60.4862 24.3695 60.0488 24.1881 59.5155 24.1881C58.9822 24.1881 58.5448 24.3695 58.2035 24.7321C57.8622 25.0948 57.6915 25.5961 57.6915 26.2361C57.6915 26.8868 57.8622 27.3988 58.2035 27.7721C58.5448 28.1348 58.9822 28.3161 59.5155 28.3161ZM71.8725 30.2361C71.6165 30.3961 71.3018 30.5188 70.9285 30.6041C70.5658 30.6895 70.1765 30.7321 69.7605 30.7321C68.6298 30.7321 67.7605 30.4548 67.1525 29.9001C66.5552 29.3455 66.2565 28.5188 66.2565 27.4201V19.9801H69.2965V22.2361H71.2645V24.5081H69.2965V27.3881C69.2965 27.7081 69.3765 27.9535 69.5365 28.1241C69.6965 28.2948 69.9152 28.3801 70.1925 28.3801C70.5445 28.3801 70.8538 28.2895 71.1205 28.1081L71.8725 30.2361ZM77.4285 28.4121C77.8445 28.4121 78.2018 28.3535 78.5005 28.2361C78.8098 28.1188 79.1192 27.9268 79.4285 27.6601L81.0125 29.3241C80.1912 30.2628 78.9645 30.7321 77.3325 30.7321C76.3192 30.7321 75.4285 30.5401 74.6605 30.1561C73.8925 29.7721 73.2952 29.2388 72.8685 28.5561C72.4525 27.8735 72.2445 27.1001 72.2445 26.2361C72.2445 25.3828 72.4525 24.6201 72.8685 23.9481C73.2845 23.2655 73.8552 22.7321 74.5805 22.3481C75.3165 21.9641 76.1378 21.7721 77.0445 21.7721C77.8872 21.7721 78.6552 21.9481 79.3485 22.3001C80.0525 22.6415 80.6125 23.1481 81.0285 23.8201C81.4445 24.4815 81.6525 25.2708 81.6525 26.1881L75.4605 27.3721C75.7912 28.0655 76.4472 28.4121 77.4285 28.4121ZM77.0605 23.9321C76.5378 23.9321 76.1112 24.0975 75.7805 24.4281C75.4498 24.7481 75.2632 25.2121 75.2205 25.8201L78.7405 25.1321C78.6338 24.7695 78.4312 24.4815 78.1325 24.2681C77.8338 24.0441 77.4765 23.9321 77.0605 23.9321ZM86.2061 30.7321C85.4808 30.7321 84.7661 30.6521 84.0621 30.4921C83.3581 30.3215 82.7928 30.1028 82.3661 29.8361L83.2781 27.7561C83.6728 28.0015 84.1421 28.1988 84.6861 28.3481C85.2301 28.4868 85.7688 28.5561 86.3021 28.5561C86.7928 28.5561 87.1395 28.5081 87.3421 28.4121C87.5555 28.3055 87.6621 28.1561 87.6621 27.9641C87.6621 27.7721 87.5341 27.6388 87.2781 27.5641C87.0328 27.4788 86.6381 27.3988 86.0941 27.3241C85.4008 27.2388 84.8088 27.1268 84.3181 26.9881C83.8381 26.8495 83.4221 26.5935 83.0701 26.2201C82.7181 25.8468 82.5421 25.3241 82.5421 24.6521C82.5421 24.0975 82.7075 23.6068 83.0381 23.1801C83.3688 22.7428 83.8488 22.4015 84.4781 22.1561C85.1181 21.9001 85.8808 21.7721 86.7661 21.7721C87.3955 21.7721 88.0195 21.8361 88.6381 21.9641C89.2568 22.0921 89.7741 22.2735 90.1901 22.5081L89.2781 24.5721C88.5101 24.1455 87.6781 23.9321 86.7821 23.9321C86.3021 23.9321 85.9501 23.9908 85.7261 24.1081C85.5021 24.2148 85.3901 24.3588 85.3901 24.5401C85.3901 24.7428 85.5128 24.8868 85.7581 24.9721C86.0035 25.0468 86.4088 25.1268 86.9741 25.2121C87.6888 25.3188 88.2808 25.4415 88.7501 25.5801C89.2195 25.7188 89.6248 25.9748 89.9661 26.3481C90.3181 26.7108 90.4941 27.2228 90.4941 27.8841C90.4941 28.4281 90.3288 28.9188 89.9981 29.3561C89.6675 29.7828 89.1768 30.1188 88.5261 30.3641C87.8861 30.6095 87.1128 30.7321 86.2061 30.7321ZM105.212 24.7481C105.852 24.9721 106.354 25.3241 106.716 25.8041C107.079 26.2735 107.26 26.8441 107.26 27.5161C107.26 28.4975 106.866 29.2548 106.076 29.7881C105.287 30.3215 104.146 30.5881 102.652 30.5881H96.6044V19.3881H102.332C103.762 19.3881 104.85 19.6548 105.596 20.1881C106.343 20.7108 106.716 21.4201 106.716 22.3161C106.716 22.8495 106.583 23.3295 106.316 23.7561C106.06 24.1721 105.692 24.5028 105.212 24.7481ZM99.7404 21.6761V23.8361H101.916C102.983 23.8361 103.516 23.4735 103.516 22.7481C103.516 22.0335 102.983 21.6761 101.916 21.6761H99.7404ZM102.396 28.3001C103.506 28.3001 104.06 27.9215 104.06 27.1641C104.06 26.4068 103.506 26.0281 102.396 26.0281H99.7404V28.3001H102.396ZM113.109 30.7321C112.181 30.7321 111.344 30.5401 110.597 30.1561C109.851 29.7721 109.264 29.2388 108.837 28.5561C108.421 27.8735 108.213 27.1001 108.213 26.2361C108.213 25.3828 108.421 24.6148 108.837 23.9321C109.264 23.2495 109.845 22.7215 110.581 22.3481C111.328 21.9641 112.171 21.7721 113.109 21.7721C114.048 21.7721 114.891 21.9641 115.637 22.3481C116.384 22.7215 116.965 23.2495 117.381 23.9321C117.797 24.6041 118.005 25.3721 118.005 26.2361C118.005 27.1001 117.797 27.8735 117.381 28.5561C116.965 29.2388 116.384 29.7721 115.637 30.1561C114.891 30.5401 114.048 30.7321 113.109 30.7321ZM113.109 28.3161C113.643 28.3161 114.08 28.1348 114.421 27.7721C114.763 27.3988 114.933 26.8868 114.933 26.2361C114.933 25.5961 114.763 25.0948 114.421 24.7321C114.08 24.3695 113.643 24.1881 113.109 24.1881C112.576 24.1881 112.139 24.3695 111.797 24.7321C111.456 25.0948 111.285 25.5961 111.285 26.2361C111.285 26.8868 111.456 27.3988 111.797 27.7721C112.139 28.1348 112.576 28.3161 113.109 28.3161ZM122.79 30.7321C121.723 30.7321 120.891 30.4601 120.294 29.9161C119.707 29.3615 119.414 28.5721 119.414 27.5481V18.7161H122.454V27.3881C122.454 27.7081 122.534 27.9535 122.694 28.1241C122.864 28.2948 123.099 28.3801 123.398 28.3801C123.643 28.3801 123.872 28.3268 124.086 28.2201L124.214 30.5081C123.755 30.6575 123.28 30.7321 122.79 30.7321ZM134.364 18.7161V30.5881H131.468V29.7241C130.903 30.3961 130.055 30.7321 128.924 30.7321C128.135 30.7321 127.415 30.5508 126.764 30.1881C126.113 29.8148 125.596 29.2868 125.212 28.6041C124.839 27.9215 124.652 27.1321 124.652 26.2361C124.652 25.3401 124.839 24.5561 125.212 23.8841C125.596 23.2015 126.113 22.6788 126.764 22.3161C127.415 21.9535 128.135 21.7721 128.924 21.7721C129.959 21.7721 130.759 22.0708 131.324 22.6681V18.7161H134.364ZM129.564 28.3161C130.087 28.3161 130.519 28.1348 130.86 27.7721C131.201 27.3988 131.372 26.8868 131.372 26.2361C131.372 25.5961 131.201 25.0948 130.86 24.7321C130.529 24.3695 130.097 24.1881 129.564 24.1881C129.031 24.1881 128.593 24.3695 128.252 24.7321C127.911 25.0948 127.74 25.5961 127.74 26.2361C127.74 26.8868 127.911 27.3988 128.252 27.7721C128.593 28.1348 129.031 28.3161 129.564 28.3161Z" fill="black"/>
<path d="M5.844 40.3881V51.5881H2.676V42.8361H0.596V40.3881H5.844ZM16.1844 49.0761V51.5881H7.46438V49.6041L11.6564 45.6841C12.0617 45.3001 12.3337 44.9748 12.4724 44.7081C12.611 44.4308 12.6804 44.1535 12.6804 43.8761C12.6804 43.5135 12.5577 43.2308 12.3124 43.0281C12.067 42.8255 11.7097 42.7241 11.2404 42.7241C10.8244 42.7241 10.4404 42.8201 10.0884 43.0121C9.74704 43.1935 9.46438 43.4601 9.24038 43.8121L6.88837 42.5001C7.32571 41.7748 7.93904 41.2041 8.72838 40.7881C9.51771 40.3721 10.451 40.1641 11.5284 40.1641C12.3817 40.1641 13.1337 40.3028 13.7844 40.5801C14.4457 40.8575 14.9577 41.2575 15.3204 41.7801C15.6937 42.2921 15.8804 42.8895 15.8804 43.5721C15.8804 44.1801 15.747 44.7561 15.4804 45.3001C15.2244 45.8335 14.723 46.4415 13.9764 47.1241L11.8644 49.0761H16.1844ZM22.8505 44.8681C23.7785 45.0601 24.4878 45.4441 24.9785 46.0201C25.4798 46.5855 25.7305 47.2735 25.7305 48.0841C25.7305 48.7455 25.5492 49.3588 25.1865 49.9241C24.8345 50.4895 24.2905 50.9481 23.5545 51.3001C22.8292 51.6415 21.9278 51.8121 20.8505 51.8121C20.0612 51.8121 19.2772 51.7161 18.4985 51.5241C17.7305 51.3321 17.0638 51.0601 16.4985 50.7081L17.6505 48.3241C18.0878 48.6228 18.5785 48.8521 19.1225 49.0121C19.6772 49.1721 20.2212 49.2521 20.7545 49.2521C21.2985 49.2521 21.7305 49.1508 22.0505 48.9481C22.3705 48.7455 22.5305 48.4575 22.5305 48.0841C22.5305 47.3588 21.9598 46.9961 20.8185 46.9961H19.4905V44.9961L21.4905 42.8361H17.0745V40.3881H25.1705V42.3721L22.8505 44.8681ZM37.3071 49.4441H35.6431V51.5881H32.5551V49.4441H26.6351V47.3801L31.6591 40.3881H34.9391L30.3791 46.9321H32.6511V45.0281H35.6431V46.9321H37.3071V49.4441ZM42.1266 44.4681C43.6946 44.4681 44.852 44.7881 45.5986 45.4281C46.356 46.0681 46.7346 46.9215 46.7346 47.9881C46.7346 48.6815 46.5533 49.3215 46.1906 49.9081C45.8386 50.4841 45.2946 50.9481 44.5586 51.3001C43.8333 51.6415 42.932 51.8121 41.8546 51.8121C41.0653 51.8121 40.2813 51.7161 39.5026 51.5241C38.7346 51.3321 38.0733 51.0601 37.5186 50.7081L38.6546 48.3241C39.1026 48.6228 39.5933 48.8521 40.1266 49.0121C40.6706 49.1721 41.2146 49.2521 41.7586 49.2521C42.3026 49.2521 42.7346 49.1508 43.0546 48.9481C43.3853 48.7348 43.5506 48.4415 43.5506 48.0681C43.5506 47.6948 43.3906 47.4121 43.0706 47.2201C42.7506 47.0281 42.1853 46.9321 41.3746 46.9321H38.3346L38.8946 40.3881H46.0306V42.8361H41.5186L41.3746 44.4681H42.1266ZM53.3814 44.4521C54.0854 44.4521 54.7307 44.6015 55.3174 44.9001C55.904 45.1881 56.368 45.6041 56.7094 46.1481C57.0614 46.6815 57.2374 47.2948 57.2374 47.9881C57.2374 48.7455 57.04 49.4175 56.6454 50.0041C56.2614 50.5801 55.7334 51.0281 55.0614 51.3481C54.4 51.6575 53.6587 51.8121 52.8374 51.8121C51.2374 51.8121 49.9734 51.3375 49.0454 50.3881C48.1174 49.4388 47.6534 48.0735 47.6534 46.2921C47.6534 45.0121 47.8987 43.9135 48.3894 42.9961C48.8907 42.0681 49.5894 41.3641 50.4854 40.8841C51.3814 40.4041 52.4214 40.1641 53.6054 40.1641C54.2454 40.1641 54.8534 40.2335 55.4294 40.3721C56.0054 40.5108 56.496 40.7135 56.9014 40.9801L55.7494 43.2521C55.2054 42.8681 54.5174 42.6761 53.6854 42.6761C52.8747 42.6761 52.2187 42.9001 51.7174 43.3481C51.216 43.7961 50.928 44.4415 50.8534 45.2841C51.4934 44.7295 52.336 44.4521 53.3814 44.4521ZM52.6454 49.5561C53.0934 49.5561 53.456 49.4281 53.7334 49.1721C54.0214 48.9161 54.1654 48.5695 54.1654 48.1321C54.1654 47.7055 54.0214 47.3641 53.7334 47.1081C53.456 46.8521 53.088 46.7241 52.6294 46.7241C52.1707 46.7241 51.7974 46.8575 51.5094 47.1241C51.2214 47.3801 51.0774 47.7215 51.0774 48.1481C51.0774 48.5641 51.216 48.9055 51.4934 49.1721C51.7814 49.4281 52.1654 49.5561 52.6454 49.5561ZM67.1168 40.3881V42.3721L63.1648 51.5881H59.7088L63.4848 42.9001H60.5408V44.6281H57.8368V40.3881H67.1168ZM75.9361 45.6841C76.4481 45.9828 76.8428 46.3508 77.1201 46.7881C77.3975 47.2255 77.5361 47.7268 77.5361 48.2921C77.5361 48.9961 77.3335 49.6148 76.9281 50.1481C76.5228 50.6815 75.9521 51.0921 75.2161 51.3801C74.4801 51.6681 73.6321 51.8121 72.6721 51.8121C71.7121 51.8121 70.8641 51.6681 70.1281 51.3801C69.3921 51.0921 68.8215 50.6815 68.4161 50.1481C68.0108 49.6148 67.8081 48.9961 67.8081 48.2921C67.8081 47.7268 67.9468 47.2255 68.2241 46.7881C68.5015 46.3508 68.8961 45.9828 69.4081 45.6841C69.0241 45.4175 68.7255 45.0921 68.5121 44.7081C68.3095 44.3241 68.2081 43.8975 68.2081 43.4281C68.2081 42.7775 68.3948 42.2068 68.7681 41.7161C69.1415 41.2148 69.6641 40.8308 70.3361 40.5641C71.0188 40.2975 71.7975 40.1641 72.6721 40.1641C73.5468 40.1641 74.3201 40.2975 74.9921 40.5641C75.6748 40.8308 76.2028 41.2148 76.5761 41.7161C76.9495 42.2068 77.1361 42.7775 77.1361 43.4281C77.1361 43.8975 77.0295 44.3241 76.8161 44.7081C76.6135 45.0921 76.3201 45.4175 75.9361 45.6841ZM72.6721 42.3881C72.2775 42.3881 71.9575 42.4948 71.7121 42.7081C71.4668 42.9108 71.3441 43.1988 71.3441 43.5721C71.3441 43.9348 71.4615 44.2228 71.6961 44.4361C71.9415 44.6388 72.2668 44.7401 72.6721 44.7401C73.0775 44.7401 73.4028 44.6388 73.6481 44.4361C73.8935 44.2228 74.0161 43.9348 74.0161 43.5721C74.0161 43.1988 73.8935 42.9108 73.6481 42.7081C73.4028 42.4948 73.0775 42.3881 72.6721 42.3881ZM72.6721 49.5881C73.1841 49.5881 73.5895 49.4655 73.8881 49.2201C74.1975 48.9641 74.3521 48.6228 74.3521 48.1961C74.3521 47.7695 74.1975 47.4335 73.8881 47.1881C73.5895 46.9321 73.1841 46.8041 72.6721 46.8041C72.1601 46.8041 71.7495 46.9321 71.4401 47.1881C71.1415 47.4335 70.9921 47.7695 70.9921 48.1961C70.9921 48.6228 71.1415 48.9641 71.4401 49.2201C71.7495 49.4655 72.1601 49.5881 72.6721 49.5881ZM82.6713 40.1641C84.2819 40.1641 85.5513 40.6388 86.4792 41.5881C87.4073 42.5375 87.8713 43.9028 87.8713 45.6841C87.8713 46.9641 87.6206 48.0681 87.1193 48.9961C86.6286 49.9135 85.9299 50.6121 85.0233 51.0921C84.1273 51.5721 83.0873 51.8121 81.9033 51.8121C81.2739 51.8121 80.6713 51.7375 80.0953 51.5881C79.5193 51.4495 79.0286 51.2521 78.6233 50.9961L79.7753 48.7241C80.3193 49.1081 81.0073 49.3001 81.8393 49.3001C82.6393 49.3001 83.2846 49.0815 83.7753 48.6441C84.2766 48.1961 84.5699 47.5508 84.6553 46.7081C84.0153 47.2521 83.1779 47.5241 82.1432 47.5241C81.4393 47.5241 80.7939 47.3801 80.2073 47.0921C79.6206 46.7935 79.1513 46.3775 78.7993 45.8441C78.4579 45.3001 78.2873 44.6815 78.2873 43.9881C78.2873 43.2308 78.4793 42.5641 78.8633 41.9881C79.2579 41.4015 79.7859 40.9535 80.4473 40.6441C81.1193 40.3241 81.8606 40.1641 82.6713 40.1641ZM82.8953 45.2521C83.3539 45.2521 83.7273 45.1241 84.0153 44.8681C84.3033 44.6015 84.4473 44.2548 84.4473 43.8281C84.4473 43.4121 84.3033 43.0761 84.0153 42.8201C83.7379 42.5535 83.3593 42.4201 82.8793 42.4201C82.4313 42.4201 82.0633 42.5481 81.7753 42.8041C81.4979 43.0601 81.3593 43.4068 81.3593 43.8441C81.3593 44.2708 81.4979 44.6121 81.7753 44.8681C82.0633 45.1241 82.4366 45.2521 82.8953 45.2521ZM93.9099 51.8121C92.9499 51.8121 92.0965 51.5828 91.3499 51.1241C90.6032 50.6655 90.0165 49.9988 89.5899 49.1241C89.1739 48.2388 88.9659 47.1935 88.9659 45.9881C88.9659 44.7828 89.1739 43.7428 89.5899 42.8681C90.0165 41.9828 90.6032 41.3108 91.3499 40.8521C92.0965 40.3935 92.9499 40.1641 93.9099 40.1641C94.8592 40.1641 95.7072 40.3935 96.4539 40.8521C97.2005 41.3108 97.7819 41.9828 98.1979 42.8681C98.6245 43.7428 98.8379 44.7828 98.8379 45.9881C98.8379 47.1935 98.6245 48.2388 98.1979 49.1241C97.7819 49.9988 97.2005 50.6655 96.4539 51.1241C95.7072 51.5828 94.8592 51.8121 93.9099 51.8121ZM93.9099 49.2201C94.4432 49.2201 94.8645 48.9641 95.1739 48.4521C95.4939 47.9295 95.6539 47.1081 95.6539 45.9881C95.6539 44.8681 95.4939 44.0521 95.1739 43.5401C94.8645 43.0175 94.4432 42.7561 93.9099 42.7561C93.3659 42.7561 92.9339 43.0175 92.6139 43.5401C92.3045 44.0521 92.1499 44.8681 92.1499 45.9881C92.1499 47.1081 92.3045 47.9295 92.6139 48.4521C92.9339 48.9641 93.3659 49.2201 93.9099 49.2201Z" fill="black"/>
</svg>
