<svg width="187" height="46" viewBox="0 0 187 46" fill="none" xmlns="http://www.w3.org/2000/svg">
<path d="M18.967 16.1763H1.36699V2.17627H4.96699V13.3763H8.36699V2.17627H11.967V13.3763H15.367V2.17627H18.967V16.1763ZM27.067 8.27627C26.3603 8.27627 25.5603 8.4096 24.667 8.67627V13.4763H27.667C28.2003 13.4763 28.467 13.2096 28.467 12.6763V8.97627C28.467 8.77627 28.4003 8.6096 28.267 8.47627C28.1337 8.34294 27.967 8.27627 27.767 8.27627H27.067ZM24.667 16.1763V19.5763H21.167V5.57627H24.267L24.467 6.57627C25.0937 6.16294 25.7337 5.86294 26.387 5.67627C27.0537 5.47627 27.6137 5.37627 28.067 5.37627H28.967C29.8737 5.37627 30.6003 5.6496 31.147 6.19627C31.6937 6.74294 31.967 7.4696 31.967 8.37627V12.9763C31.967 13.9763 31.6803 14.7629 31.107 15.3363C30.547 15.8963 29.767 16.1763 28.767 16.1763H24.667ZM40.6646 5.57627H44.3646V16.1763H40.8646V10.3763L37.4646 16.1763H33.7646V5.57627H37.2646V11.3763L40.6646 5.57627ZM60.4623 12.9763C60.4623 13.9763 60.1756 14.7629 59.6023 15.3363C59.0423 15.8963 58.2623 16.1763 57.2623 16.1763H55.0623V19.5763H51.5623V16.1763H49.3623C48.3623 16.1763 47.5756 15.8963 47.0023 15.3363C46.4423 14.7629 46.1623 13.9763 46.1623 12.9763V8.77627C46.1623 7.77627 46.4423 6.99627 47.0023 6.43627C47.5756 5.86294 48.3623 5.57627 49.3623 5.57627H51.5623V2.17627H55.0623V5.57627H57.2623C58.2623 5.57627 59.0423 5.86294 59.6023 6.43627C60.1756 6.99627 60.4623 7.77627 60.4623 8.77627V12.9763ZM49.6623 12.6763C49.6623 13.2096 49.929 13.4763 50.4623 13.4763H51.8623V8.27627H50.4623C49.929 8.27627 49.6623 8.54294 49.6623 9.07627V12.6763ZM56.9623 9.07627C56.9623 8.54294 56.6956 8.27627 56.1623 8.27627H54.9623V13.4763H56.1623C56.6956 13.4763 56.9623 13.2096 56.9623 12.6763V9.07627ZM68.2607 8.27627V16.1763H64.7607V8.27627H61.4607V5.57627H71.5607V8.27627H68.2607ZM78.9646 2.17627H87.3646C88.7646 2.17627 89.778 2.49627 90.4046 3.13627C91.0446 3.76294 91.3646 4.77627 91.3646 6.17627V7.97627C91.3646 9.08294 91.178 9.94294 90.8046 10.5563C90.4446 11.1696 89.8646 11.5763 89.0646 11.7763L91.5646 16.1763H87.6646L85.3646 11.9763H82.5646V16.1763H78.9646V2.17627ZM87.7646 6.17627C87.7646 5.37627 87.3646 4.97627 86.5646 4.97627H82.5646V9.17627H86.5646C87.3646 9.17627 87.7646 8.77627 87.7646 7.97627V6.17627ZM98.0592 13.4763C98.7658 13.4763 99.5658 13.3429 100.459 13.0763V5.57627H103.959V16.1763H100.859L100.659 15.1763C100.033 15.5896 99.3858 15.8963 98.7192 16.0963C98.0658 16.2829 97.5125 16.3763 97.0592 16.3763H96.1592C95.2525 16.3763 94.5258 16.1029 93.9792 15.5563C93.4325 15.0096 93.1592 14.2829 93.1592 13.3763V5.57627H96.6592V12.7763C96.6592 12.9763 96.7258 13.1429 96.8592 13.2763C96.9925 13.4096 97.1592 13.4763 97.3592 13.4763H98.0592ZM105.552 13.3763C108.259 13.5763 110.392 13.6763 111.952 13.6763C112.152 13.6763 112.319 13.6096 112.452 13.4763C112.585 13.3429 112.652 13.1763 112.652 12.9763V12.2763H108.352C107.445 12.2763 106.719 12.0029 106.172 11.4563C105.625 10.9096 105.352 10.1829 105.352 9.27627V8.57627C105.352 7.6696 105.625 6.94294 106.172 6.39627C106.719 5.8496 107.445 5.57627 108.352 5.57627H115.152V8.17627H109.552C109.352 8.17627 109.185 8.24294 109.052 8.37627C108.919 8.5096 108.852 8.67627 108.852 8.87627C108.852 9.07627 108.919 9.24294 109.052 9.37627C109.185 9.5096 109.352 9.57627 109.552 9.57627H113.152C114.059 9.57627 114.785 9.8496 115.332 10.3963C115.879 10.9429 116.152 11.6696 116.152 12.5763V13.3763C116.152 14.2829 115.879 15.0096 115.332 15.5563C114.785 16.1029 114.059 16.3763 113.152 16.3763C110.792 16.3763 108.259 16.2429 105.552 15.9763V13.3763ZM117.154 13.3763C119.86 13.5763 121.994 13.6763 123.554 13.6763C123.754 13.6763 123.92 13.6096 124.054 13.4763C124.187 13.3429 124.254 13.1763 124.254 12.9763V12.2763H119.954C119.047 12.2763 118.32 12.0029 117.774 11.4563C117.227 10.9096 116.954 10.1829 116.954 9.27627V8.57627C116.954 7.6696 117.227 6.94294 117.774 6.39627C118.32 5.8496 119.047 5.57627 119.954 5.57627H126.754V8.17627H121.154C120.954 8.17627 120.787 8.24294 120.654 8.37627C120.52 8.5096 120.454 8.67627 120.454 8.87627C120.454 9.07627 120.52 9.24294 120.654 9.37627C120.787 9.5096 120.954 9.57627 121.154 9.57627H124.754C125.66 9.57627 126.387 9.8496 126.934 10.3963C127.48 10.9429 127.754 11.6696 127.754 12.5763V13.3763C127.754 14.2829 127.48 15.0096 126.934 15.5563C126.387 16.1029 125.66 16.3763 124.754 16.3763C122.394 16.3763 119.86 16.2429 117.154 15.9763V13.3763ZM139.955 13.1763C139.955 14.1763 139.669 14.9629 139.095 15.5363C138.535 16.0963 137.755 16.3763 136.755 16.3763H132.155C131.155 16.3763 130.369 16.0963 129.795 15.5363C129.235 14.9629 128.955 14.1763 128.955 13.1763V8.57627C128.955 7.57627 129.235 6.79627 129.795 6.23627C130.369 5.66294 131.155 5.37627 132.155 5.37627H136.755C137.755 5.37627 138.535 5.66294 139.095 6.23627C139.669 6.79627 139.955 7.57627 139.955 8.57627V13.1763ZM136.455 8.87627C136.455 8.34294 136.189 8.07627 135.655 8.07627H133.255C132.722 8.07627 132.455 8.34294 132.455 8.87627V12.8763C132.455 13.4096 132.722 13.6763 133.255 13.6763H135.655C136.189 13.6763 136.455 13.4096 136.455 12.8763V8.87627ZM156.949 5.97627C156.949 5.17627 156.549 4.77627 155.749 4.77627H152.349C151.549 4.77627 151.149 5.17627 151.149 5.97627V12.3763C151.149 13.1763 151.549 13.5763 152.349 13.5763H155.749C156.549 13.5763 156.949 13.1763 156.949 12.3763V5.97627ZM160.549 12.3763C160.549 13.7763 160.229 14.7963 159.589 15.4363C158.962 16.0629 157.949 16.3763 156.549 16.3763H151.549C150.149 16.3763 149.129 16.0629 148.489 15.4363C147.862 14.7963 147.549 13.7763 147.549 12.3763V5.97627C147.549 4.57627 147.862 3.56294 148.489 2.93627C149.129 2.29627 150.149 1.97627 151.549 1.97627H156.549C157.949 1.97627 158.962 2.29627 159.589 2.93627C160.229 3.56294 160.549 4.57627 160.549 5.97627V12.3763ZM168.258 8.27627C167.552 8.27627 166.752 8.4096 165.858 8.67627V16.1763H162.358V5.57627H165.458L165.658 6.57627C166.285 6.16294 166.925 5.86294 167.578 5.67627C168.245 5.47627 168.805 5.37627 169.258 5.37627H170.158C171.065 5.37627 171.792 5.6496 172.338 6.19627C172.885 6.74294 173.158 7.4696 173.158 8.37627V16.1763H169.658V8.97627C169.658 8.77627 169.592 8.6096 169.458 8.47627C169.325 8.34294 169.158 8.27627 168.958 8.27627H168.258ZM179.056 7.87627C178.523 7.87627 178.256 8.14294 178.256 8.67627V9.77627H181.656V8.67627C181.656 8.14294 181.389 7.87627 180.856 7.87627H179.056ZM184.756 15.9763C182.183 16.2429 179.849 16.3763 177.756 16.3763C176.849 16.3763 176.123 16.1029 175.576 15.5563C175.029 15.0096 174.756 14.2829 174.756 13.3763V8.57627C174.756 7.57627 175.036 6.79627 175.596 6.23627C176.169 5.66294 176.956 5.37627 177.956 5.37627H181.956C182.956 5.37627 183.736 5.66294 184.296 6.23627C184.869 6.79627 185.156 7.57627 185.156 8.57627V12.2763H178.256V13.0763C178.256 13.2763 178.323 13.4429 178.456 13.5763C178.589 13.7096 178.756 13.7763 178.956 13.7763C180.276 13.7763 182.209 13.6763 184.756 13.4763V15.9763Z" fill="black"/>
<path d="M3.46699 41.1763V30.2763L1.16699 31.0763L0.166992 28.7763L3.86699 27.1763H7.06699V41.1763H3.46699ZM19.4725 31.5763C19.4725 32.7096 18.9925 33.6896 18.0325 34.5163C17.7391 34.7696 17.4191 35.0229 17.0725 35.2763L12.7725 38.3763H19.4725V41.1763H8.67246V37.3763L15.8725 32.1763V31.1763C15.8725 30.3763 15.4725 29.9763 14.6725 29.9763H9.07246V27.1763H15.4725C16.8725 27.1763 17.8858 27.4963 18.5125 28.1363C19.1525 28.7629 19.4725 29.7763 19.4725 31.1763V31.5763ZM27.8693 41.3763C25.6427 41.3763 23.176 41.2429 20.4693 40.9763V38.2763C23.416 38.4763 25.616 38.5763 27.0693 38.5763C27.376 38.5763 27.616 38.4896 27.7893 38.3163C27.976 38.1296 28.0693 37.8829 28.0693 37.5763V36.7763C28.0693 35.9763 27.6693 35.5763 26.8693 35.5763H22.6693V32.7763H26.4693C27.2693 32.7763 27.6693 32.3763 27.6693 31.5763V31.1763C27.6693 30.3763 27.2693 29.9763 26.4693 29.9763H20.6693V27.1763H27.4693C28.776 27.1763 29.736 27.4763 30.3493 28.0763C30.9627 28.6629 31.2693 29.5629 31.2693 30.7763C31.2693 31.5763 31.0827 32.2296 30.7093 32.7363C30.3493 33.2296 29.8693 33.5763 29.2693 33.7763C30.3493 34.0696 31.0827 34.7896 31.4693 35.9363C31.6027 36.3496 31.6693 36.8296 31.6693 37.3763V37.5763C31.6693 38.8829 31.3627 39.8429 30.7493 40.4563C30.136 41.0696 29.176 41.3763 27.8693 41.3763ZM40.0764 38.3763H32.6764V35.5763L37.4764 27.1763H41.4764L36.6764 35.5763H40.0764V32.5763H43.6764V35.5763H45.0764V38.3763H43.6764V41.1763H40.0764V38.3763ZM53.0842 41.3763C50.8575 41.3763 48.3908 41.2429 45.6842 40.9763V38.2763C48.6308 38.4763 50.8308 38.5763 52.2842 38.5763C52.5908 38.5763 52.8308 38.4896 53.0042 38.3163C53.1908 38.1296 53.2842 37.8829 53.2842 37.5763V36.5763C53.2842 35.7763 52.8842 35.3763 52.0842 35.3763H46.2842V27.1763H55.8842V29.9763H49.8842V32.5763H53.0842C54.3908 32.5763 55.3508 32.8763 55.9642 33.4763C56.5775 34.0629 56.8842 34.9629 56.8842 36.1763V37.5763C56.8842 38.8829 56.5775 39.8429 55.9642 40.4563C55.3508 41.0696 54.3908 41.3763 53.0842 41.3763ZM61.8764 26.9763C63.703 26.9763 65.903 27.1096 68.4764 27.3763V30.0763C67.743 30.0363 67.1164 30.0029 66.5964 29.9763C66.0897 29.9363 65.6697 29.9096 65.3364 29.8963C65.0164 29.8696 64.6964 29.8429 64.3764 29.8163C63.843 29.7896 63.3497 29.7763 62.8964 29.7763C62.083 29.7763 61.6764 30.1096 61.6764 30.7763V32.5763C62.9697 32.3096 64.103 32.1763 65.0764 32.1763H66.4764C67.383 32.1763 68.1097 32.4496 68.6564 32.9963C69.203 33.5429 69.4764 34.2696 69.4764 35.1763V37.7763C69.4764 38.9896 69.1697 39.8963 68.5564 40.4963C67.943 41.0829 66.983 41.3763 65.6764 41.3763H61.8764C60.5697 41.3763 59.6097 41.0829 58.9964 40.4963C58.383 39.8963 58.0764 38.9896 58.0764 37.7763V30.7763C58.0764 29.4696 58.383 28.5096 58.9964 27.8963C59.6097 27.2829 60.5697 26.9763 61.8764 26.9763ZM64.0764 34.9763C63.5697 34.9763 63.103 35.0029 62.6764 35.0563C62.263 35.1096 61.9297 35.1496 61.6764 35.1763V37.3763C61.6764 38.1763 62.0764 38.5763 62.8764 38.5763H64.6764C65.4764 38.5763 65.8764 38.1763 65.8764 37.3763V35.6763C65.8764 35.4763 65.8097 35.3096 65.6764 35.1763C65.543 35.0429 65.3764 34.9763 65.1764 34.9763H64.0764ZM69.6834 27.1763H80.4834V29.9763L75.8834 41.1763H71.8834L76.6834 29.9763H69.6834V27.1763ZM86.0748 35.5763C85.2748 35.5763 84.8748 35.9763 84.8748 36.7763V37.5763C84.8748 37.8829 84.9615 38.1296 85.1348 38.3163C85.3215 38.4896 85.5681 38.5763 85.8748 38.5763H88.8748C89.1815 38.5763 89.4215 38.4896 89.5948 38.3163C89.7815 38.1296 89.8748 37.8829 89.8748 37.5763V36.7763C89.8748 35.9763 89.4748 35.5763 88.6748 35.5763H86.0748ZM86.4748 29.7763C85.6748 29.7763 85.2748 30.1763 85.2748 30.9763V31.5763C85.2748 32.3763 85.6748 32.7763 86.4748 32.7763H88.2748C89.0748 32.7763 89.4748 32.3763 89.4748 31.5763V30.9763C89.4748 30.1763 89.0748 29.7763 88.2748 29.7763H86.4748ZM93.4748 37.5763C93.4748 38.8829 93.1681 39.8429 92.5548 40.4563C91.9415 41.0696 90.9815 41.3763 89.6748 41.3763H85.0748C83.7681 41.3763 82.8081 41.0696 82.1948 40.4563C81.5815 39.8429 81.2748 38.8829 81.2748 37.5763V37.3763C81.2748 36.3629 81.5281 35.5229 82.0348 34.8563C82.4348 34.3229 82.9815 33.9629 83.6748 33.7763C83.0748 33.5763 82.5881 33.2296 82.2148 32.7363C81.8548 32.2296 81.6748 31.5763 81.6748 30.7763V30.5763C81.6748 29.3629 81.9815 28.4629 82.5948 27.8763C83.2081 27.2763 84.1681 26.9763 85.4748 26.9763H89.2748C90.5815 26.9763 91.5415 27.2763 92.1548 27.8763C92.7681 28.4629 93.0748 29.3629 93.0748 30.5763V30.7763C93.0748 31.5763 92.8881 32.2296 92.5148 32.7363C92.1548 33.2296 91.6748 33.5763 91.0748 33.7763C92.1548 34.0696 92.8881 34.7896 93.2748 35.9363C93.4081 36.3496 93.4748 36.8296 93.4748 37.3763V37.5763ZM95.4732 38.2763C98.2199 38.4763 100.153 38.5763 101.273 38.5763C101.58 38.5763 101.82 38.4896 101.993 38.3163C102.18 38.1296 102.273 37.8829 102.273 37.5763V35.7763C100.98 36.0429 99.8466 36.1763 98.8732 36.1763H97.4732C96.5666 36.1763 95.8399 35.9029 95.2932 35.3563C94.7466 34.8096 94.4732 34.0829 94.4732 33.1763V30.5763C94.4732 29.3629 94.7799 28.4629 95.3932 27.8763C96.0066 27.2763 96.9666 26.9763 98.2732 26.9763H102.073C103.38 26.9763 104.34 27.2763 104.953 27.8763C105.567 28.4629 105.873 29.3629 105.873 30.5763V37.5763C105.873 38.8829 105.567 39.8429 104.953 40.4563C104.34 41.0696 103.38 41.3763 102.073 41.3763C100.247 41.3763 98.0466 41.2429 95.4732 40.9763V38.2763ZM99.8732 33.3763C100.633 33.3763 101.433 33.3096 102.273 33.1763V30.9763C102.273 30.1763 101.873 29.7763 101.073 29.7763H99.2732C98.4732 29.7763 98.0732 30.1763 98.0732 30.9763V32.6763C98.0732 32.8763 98.1399 33.0429 98.2732 33.1763C98.4066 33.3096 98.5732 33.3763 98.7732 33.3763H99.8732ZM115.671 30.9763C115.671 30.1763 115.271 29.7763 114.471 29.7763H112.271C111.471 29.7763 111.071 30.1763 111.071 30.9763V37.3763C111.071 38.1763 111.471 38.5763 112.271 38.5763H114.471C115.271 38.5763 115.671 38.1763 115.671 37.3763V30.9763ZM119.271 37.3763C119.271 38.7763 118.951 39.7963 118.311 40.4363C117.684 41.0629 116.671 41.3763 115.271 41.3763H111.471C110.071 41.3763 109.051 41.0629 108.411 40.4363C107.784 39.7963 107.471 38.7763 107.471 37.3763V30.9763C107.471 29.5763 107.784 28.5629 108.411 27.9363C109.051 27.2963 110.071 26.9763 111.471 26.9763H115.271C116.671 26.9763 117.684 27.2963 118.311 27.9363C118.951 28.5629 119.271 29.5763 119.271 30.9763V37.3763Z" fill="black"/>
</svg>
