<svg width="163" height="42" viewBox="0 0 163 42" fill="none" xmlns="http://www.w3.org/2000/svg">
<path d="M3.31348 2.0686V9.04517C3.31348 11.1129 4.13509 12.1467 5.77832 12.1467H7.45801V2.0686H8.99316V12.1467H13.2002V2.0686H14.7354V13.5881H5.71191C4.89941 13.5881 4.19629 13.4111 3.60254 13.0569C3.01139 12.7027 2.55957 12.1897 2.24707 11.5178C1.93457 10.8433 1.77832 10.04 1.77832 9.10767V2.0686H3.31348ZM16.54 17.1897V10.2444C16.54 9.64803 16.5648 9.15975 16.6143 8.77954C16.6663 8.39673 16.7861 8.02563 16.9736 7.66626C17.195 7.22355 17.4854 6.83944 17.8447 6.51392C18.2067 6.1884 18.6169 5.9397 19.0752 5.76782C19.5335 5.59595 20.0114 5.51001 20.5088 5.51001C21.2562 5.51001 21.932 5.68579 22.5361 6.03735C23.1429 6.38631 23.6182 6.8759 23.9619 7.5061C24.3057 8.13371 24.4775 8.83813 24.4775 9.61938C24.4775 10.3616 24.3044 11.0439 23.958 11.6663C23.6117 12.2887 23.139 12.7808 22.54 13.1428C21.9411 13.5048 21.2848 13.6858 20.5713 13.6858C19.9906 13.6858 19.4632 13.5946 18.9893 13.4124L18.4268 11.635C19.0856 12.1168 19.7523 12.3577 20.4268 12.3577C20.8018 12.3577 21.1494 12.2926 21.4697 12.1624C21.7926 12.0295 22.0713 11.842 22.3057 11.5999C22.54 11.3577 22.7197 11.0699 22.8447 10.7366C22.9723 10.4032 23.0361 10.0361 23.0361 9.63501C23.0361 9.07772 22.9268 8.58944 22.708 8.17017C22.4893 7.74829 22.1846 7.42407 21.7939 7.19751C21.4033 6.96834 20.9645 6.85376 20.4775 6.85376C19.9932 6.85376 19.5583 6.96704 19.1729 7.1936C18.7874 7.42017 18.4867 7.74438 18.2705 8.16626C18.057 8.58813 17.9502 9.07251 17.9502 9.61938V17.1897H16.54ZM32.5244 5.68579V13.6038H31.1338V12.9788C30.7015 13.4814 30.0452 13.7327 29.165 13.7327C28.0947 13.7327 27.2692 13.4215 26.6885 12.7991C26.1104 12.1741 25.8213 11.3173 25.8213 10.2288V5.68579H27.2158V10.26C27.2158 10.872 27.4007 11.3772 27.7705 11.7756C28.1403 12.1741 28.6104 12.3733 29.1807 12.3733C29.5817 12.3733 29.9294 12.2782 30.2236 12.0881C30.5205 11.8954 30.7458 11.6441 30.8994 11.3342C31.0557 11.0217 31.1338 10.691 31.1338 10.342V5.68579H32.5244ZM41.8096 17.1897H40.4033V9.61938C40.4033 9.07251 40.2952 8.58813 40.0791 8.16626C39.8656 7.74438 39.5661 7.42017 39.1807 7.1936C38.7952 6.96704 38.3604 6.85376 37.876 6.85376C37.389 6.85376 36.9489 6.96834 36.5557 7.19751C36.1624 7.42668 35.8564 7.7509 35.6377 8.17017C35.4215 8.58944 35.3135 9.07772 35.3135 9.63501C35.3135 10.1611 35.4242 10.6324 35.6455 11.0491C35.8695 11.4657 36.1794 11.7887 36.5752 12.0178C36.9736 12.2444 37.4229 12.3577 37.9229 12.3577C38.5973 12.3577 39.264 12.1168 39.9229 11.635L39.3643 13.4124C38.8903 13.5946 38.3617 13.6858 37.7783 13.6858C37.0648 13.6858 36.4085 13.5048 35.8096 13.1428C35.2106 12.7808 34.738 12.2887 34.3916 11.6663C34.0479 11.0413 33.876 10.359 33.876 9.61938C33.876 8.83813 34.0479 8.13371 34.3916 7.5061C34.7354 6.8759 35.2093 6.38631 35.8135 6.03735C36.4202 5.68579 37.0973 5.51001 37.8447 5.51001C38.2822 5.51001 38.7067 5.57642 39.1182 5.70923C39.5296 5.84204 39.9046 6.03605 40.2432 6.29126C40.5817 6.54647 40.8695 6.85116 41.1064 7.20532C41.3434 6.85116 41.6325 6.54647 41.9736 6.29126C42.3148 6.03345 42.6911 5.83944 43.1025 5.70923C43.514 5.57642 43.9372 5.51001 44.3721 5.51001C45.1195 5.51001 45.7952 5.68579 46.3994 6.03735C47.0062 6.38631 47.4814 6.8759 47.8252 7.5061C48.1689 8.13371 48.3408 8.83813 48.3408 9.61938C48.3408 10.3616 48.1676 11.0439 47.8213 11.6663C47.4749 12.2887 47.0023 12.7808 46.4033 13.1428C45.8044 13.5048 45.1481 13.6858 44.4346 13.6858C43.8538 13.6858 43.3265 13.5946 42.8525 13.4124L42.29 11.635C42.9489 12.1168 43.6156 12.3577 44.29 12.3577C44.79 12.3577 45.238 12.2444 45.6338 12.0178C46.0322 11.7887 46.3421 11.4657 46.5635 11.0491C46.7874 10.6324 46.8994 10.1611 46.8994 9.63501C46.8994 9.07772 46.79 8.58944 46.5713 8.17017C46.3551 7.7509 46.0505 7.42668 45.6572 7.19751C45.2666 6.96834 44.8278 6.85376 44.3408 6.85376C43.8564 6.85376 43.4215 6.96704 43.0361 7.1936C42.6507 7.42017 42.3499 7.74438 42.1338 8.16626C41.9176 8.58553 41.8096 9.06991 41.8096 9.61938V17.1897ZM52.8018 5.55688C53.8148 5.55688 54.6195 5.96183 55.2158 6.77173C55.8356 5.96183 56.6416 5.55688 57.6338 5.55688C58.5713 5.55688 59.3278 5.86548 59.9033 6.48267C60.4814 7.09725 60.7705 7.94621 60.7705 9.02954V13.5881H59.376V8.77173C59.376 8.21183 59.2132 7.76261 58.8877 7.42407C58.5648 7.08553 58.1468 6.91626 57.6338 6.91626C57.1338 6.91626 56.7236 7.08553 56.4033 7.42407C56.083 7.76261 55.9229 8.21183 55.9229 8.77173V13.5881H54.5283V8.77173C54.5283 8.21183 54.3669 7.76261 54.0439 7.42407C53.721 7.08553 53.307 6.91626 52.8018 6.91626C52.2939 6.91626 51.8786 7.08553 51.5557 7.42407C51.2354 7.76261 51.0752 8.21183 51.0752 8.77173V13.5881H49.6807V9.02954C49.6807 7.9384 49.9658 7.08683 50.5361 6.47485C51.109 5.86287 51.8643 5.55688 52.8018 5.55688ZM69.3291 13.5881V3.49048H66.3721V2.0686H73.8096V3.49048H70.8682V13.5881H69.3291ZM80.0439 13.5881V9.65063C80.0439 9.10376 79.9359 8.61938 79.7197 8.19751C79.5062 7.77563 79.2067 7.45142 78.8213 7.22485C78.4359 6.99829 78.001 6.88501 77.5166 6.88501C77.0296 6.88501 76.5921 6.99959 76.2041 7.22876C75.8187 7.45793 75.5166 7.77954 75.2979 8.1936C75.0817 8.60506 74.9736 9.07511 74.9736 9.60376C74.9736 10.1454 75.0856 10.6285 75.3096 11.053C75.5335 11.4749 75.8447 11.803 76.2432 12.0374C76.6416 12.2717 77.0869 12.3889 77.5791 12.3889C78.264 12.3889 78.9255 12.148 79.5635 11.6663L79.0049 13.4436C78.596 13.6259 78.0674 13.717 77.4189 13.717C76.9215 13.717 76.4385 13.6207 75.9697 13.428C75.5036 13.2327 75.0882 12.9553 74.7236 12.5959C74.359 12.234 74.0713 11.8004 73.8604 11.2952C73.652 10.79 73.5479 10.2366 73.5479 9.63501C73.5479 9.04907 73.6455 8.5048 73.8408 8.0022C74.0387 7.49959 74.3148 7.066 74.6689 6.70142C75.0257 6.33423 75.4463 6.05168 75.9307 5.85376C76.4176 5.65584 76.9411 5.55688 77.501 5.55688C77.9984 5.55688 78.4749 5.64282 78.9307 5.8147C79.389 5.98397 79.7965 6.22876 80.1533 6.54907C80.5101 6.86938 80.7992 7.24829 81.0205 7.68579C81.2106 8.05558 81.3291 8.43058 81.376 8.81079C81.4255 9.191 81.4502 9.67928 81.4502 10.2756V13.5881H80.0439ZM89.8682 5.66626V9.98657C89.8682 10.7652 89.7262 11.4358 89.4424 11.9983C89.1611 12.5582 88.7653 12.9853 88.2549 13.2795C87.7471 13.5712 87.165 13.717 86.5088 13.717C85.5036 13.717 84.695 13.3876 84.083 12.7288C83.471 12.0699 83.165 11.1558 83.165 9.98657V5.66626H84.5596V10.2444C84.5596 10.8694 84.7445 11.3785 85.1143 11.7717C85.4867 12.1624 85.9567 12.3577 86.5244 12.3577C86.8942 12.3577 87.2275 12.2691 87.5244 12.092C87.8213 11.915 88.0544 11.6663 88.2236 11.3459C88.3929 11.0256 88.4775 10.6584 88.4775 10.2444V5.66626H89.8682ZM91.7158 13.5881V9.02954C91.7158 8.2535 91.8577 7.60376 92.1416 7.08032C92.4255 6.55688 92.8031 6.17277 93.2744 5.92798C93.7484 5.68058 94.2679 5.55688 94.833 5.55688C95.8148 5.55688 96.6051 5.941 97.2041 6.70923L96.2744 7.68579C96.1546 7.46444 95.9658 7.28084 95.708 7.13501C95.4502 6.98918 95.165 6.91626 94.8525 6.91626C94.2718 6.91626 93.8408 7.11027 93.5596 7.49829C93.2783 7.88631 93.1377 8.39673 93.1377 9.02954V13.5881H91.7158ZM104.868 5.66626V9.98657C104.868 10.7652 104.726 11.4358 104.442 11.9983C104.161 12.5582 103.765 12.9853 103.255 13.2795C102.747 13.5712 102.165 13.717 101.509 13.717C100.504 13.717 99.695 13.3876 99.083 12.7288C98.471 12.0699 98.165 11.1558 98.165 9.98657V5.66626H99.5596V10.2444C99.5596 10.8694 99.7445 11.3785 100.114 11.7717C100.487 12.1624 100.957 12.3577 101.524 12.3577C101.894 12.3577 102.228 12.2691 102.524 12.092C102.821 11.915 103.054 11.6663 103.224 11.3459C103.393 11.0256 103.478 10.6584 103.478 10.2444V5.66626H104.868ZM106.349 12.2444H107.212C107.571 12.2444 107.876 12.1597 108.126 11.9905C108.376 11.8186 108.61 11.5165 108.829 11.0842C109.05 10.6519 109.28 10.0465 109.517 9.26782C109.754 8.48397 110.032 7.82121 110.353 7.27954C110.675 6.73787 111.027 6.33423 111.407 6.0686C111.787 5.80037 112.191 5.66626 112.618 5.66626H113.771V6.99438H112.907C112.631 6.99438 112.381 7.07902 112.157 7.24829C111.936 7.41496 111.703 7.74308 111.458 8.23267C111.213 8.72225 110.949 9.41886 110.665 10.3225C110.368 11.2548 110.058 11.9579 109.735 12.4319C109.415 12.9058 109.08 13.217 108.731 13.3655C108.382 13.5139 107.961 13.5881 107.466 13.5881H106.349V12.2444ZM119.591 13.5881V2.0686H121.095V6.83423H126.071V2.0686H127.591V13.5881H126.071V8.29126H121.095V13.5881H119.591ZM129.126 9.61938C129.126 8.92407 129.304 8.26131 129.661 7.6311C130.018 7.0009 130.502 6.49829 131.114 6.12329C131.729 5.74569 132.394 5.55688 133.11 5.55688C133.655 5.55688 134.17 5.66626 134.657 5.88501C135.144 6.10376 135.57 6.40194 135.935 6.77954C136.302 7.15715 136.59 7.59204 136.798 8.08423C137.006 8.57642 137.11 9.08813 137.11 9.61938C137.11 9.83293 137.095 10.0361 137.063 10.2288H130.661C130.791 10.8616 131.084 11.3772 131.54 11.7756C131.996 12.1741 132.519 12.3733 133.11 12.3733C133.97 12.3733 134.674 11.9736 135.224 11.1741L136.263 12.1467C135.95 12.5816 135.521 12.9553 134.974 13.2678C134.429 13.5777 133.808 13.7327 133.11 13.7327C132.386 13.7327 131.717 13.5452 131.103 13.1702C130.491 12.7926 130.007 12.2887 129.653 11.6584C129.302 11.0282 129.126 10.3486 129.126 9.61938ZM133.11 6.88501C132.517 6.88501 131.992 7.08423 131.536 7.48267C131.083 7.8785 130.791 8.38892 130.661 9.01392H135.575C135.494 8.59985 135.336 8.23267 135.099 7.91235C134.864 7.58944 134.573 7.33813 134.224 7.15845C133.875 6.97616 133.504 6.88501 133.11 6.88501ZM144.606 13.5881V9.65063C144.606 9.10376 144.498 8.61938 144.282 8.19751C144.069 7.77563 143.769 7.45142 143.384 7.22485C142.998 6.99829 142.563 6.88501 142.079 6.88501C141.592 6.88501 141.155 6.99959 140.767 7.22876C140.381 7.45793 140.079 7.77954 139.86 8.1936C139.644 8.60506 139.536 9.07511 139.536 9.60376C139.536 10.1454 139.648 10.6285 139.872 11.053C140.096 11.4749 140.407 11.803 140.806 12.0374C141.204 12.2717 141.649 12.3889 142.142 12.3889C142.826 12.3889 143.488 12.148 144.126 11.6663L143.567 13.4436C143.159 13.6259 142.63 13.717 141.981 13.717C141.484 13.717 141.001 13.6207 140.532 13.428C140.066 13.2327 139.651 12.9553 139.286 12.5959C138.922 12.234 138.634 11.8004 138.423 11.2952C138.215 10.79 138.11 10.2366 138.11 9.63501C138.11 9.04907 138.208 8.5048 138.403 8.0022C138.601 7.49959 138.877 7.066 139.231 6.70142C139.588 6.33423 140.009 6.05168 140.493 5.85376C140.98 5.65584 141.504 5.55688 142.063 5.55688C142.561 5.55688 143.037 5.64282 143.493 5.8147C143.951 5.98397 144.359 6.22876 144.716 6.54907C145.073 6.86938 145.362 7.24829 145.583 7.68579C145.773 8.05558 145.892 8.43058 145.938 8.81079C145.988 9.191 146.013 9.67928 146.013 10.2756V13.5881H144.606ZM148.321 5.70142L150.575 11.9084L152.833 5.70142H154.29L151.649 12.803C151.418 13.4332 151.054 13.7483 150.56 13.7483C150.304 13.7483 150.092 13.6741 149.923 13.5256C149.756 13.3746 149.612 13.1337 149.489 12.803L146.849 5.70142H148.321ZM158.126 15.8108C159.738 15.8108 160.544 14.9631 160.544 13.2678V12.342C159.893 12.9592 159.161 13.2678 158.349 13.2678C157.377 13.2678 156.617 12.9462 156.067 12.303C155.521 11.6597 155.247 10.7392 155.247 9.54126V5.63501H156.653V9.77954C156.653 10.4514 156.817 10.9722 157.146 11.342C157.476 11.7092 157.942 11.8928 158.544 11.8928C159.122 11.8928 159.6 11.6741 159.978 11.2366C160.355 10.7991 160.544 10.2118 160.544 9.47485V5.63501H161.95V13.1077C161.95 13.9722 161.8 14.7092 161.501 15.3186C161.201 15.928 160.763 16.3889 160.185 16.7014C159.609 17.0165 158.912 17.1741 158.095 17.1741C157.373 17.1741 156.541 17.0243 155.599 16.7249L155.919 15.3655C156.802 15.6624 157.537 15.8108 158.126 15.8108Z" fill="black"/>
<path d="M4.89551 36.6038V25.0842H6.46582V36.6038H4.89551ZM12.376 35.053H18.2002V36.5881H11.833C11.3981 36.5881 11.0596 36.484 10.8174 36.2756C10.5778 36.0647 10.458 35.7743 10.458 35.4045C10.458 34.9696 10.7249 34.5321 11.2588 34.092L15.3877 30.7795C16.208 30.1129 16.6182 29.3446 16.6182 28.4749C16.6182 28.0764 16.5218 27.7118 16.3291 27.3811C16.1364 27.0504 15.8721 26.7926 15.5361 26.6077C15.2002 26.4228 14.8252 26.3303 14.4111 26.3303C13.9971 26.3303 13.6182 26.4267 13.2744 26.6194C12.9333 26.8121 12.6663 27.0803 12.4736 27.4241C12.2809 27.7652 12.1846 28.1428 12.1846 28.5569C12.1846 28.9814 12.2692 29.3603 12.4385 29.6936C12.6104 30.0243 12.8577 30.29 13.1807 30.4905C13.5062 30.691 13.889 30.8147 14.3291 30.8616L12.9541 31.9475C12.1911 31.6402 11.6051 31.1975 11.1963 30.6194C10.79 30.0413 10.5869 29.3642 10.5869 28.5881C10.5869 27.885 10.7523 27.2483 11.083 26.678C11.4163 26.1077 11.8799 25.6624 12.4736 25.342C13.0674 25.0217 13.734 24.8616 14.4736 24.8616C15.2002 24.8616 15.8512 25.0165 16.4268 25.3264C17.0049 25.6363 17.4528 26.0647 17.7705 26.6116C18.0908 27.1584 18.251 27.7691 18.251 28.4436C18.251 29.1676 18.0713 29.829 17.7119 30.428C17.3551 31.0269 16.7979 31.6194 16.04 32.2053L12.376 35.053ZM19.8252 25.0842H24.626C25.7458 25.0842 26.3057 25.484 26.3057 26.2834C26.3057 26.7262 26.1299 27.1155 25.7783 27.4514L23.4268 29.6428C24.2028 29.6532 24.8643 29.7939 25.4111 30.0647C25.958 30.3329 26.3721 30.7222 26.6533 31.2327C26.9346 31.7431 27.0752 32.3551 27.0752 33.0686C27.0752 33.7665 26.9202 34.3837 26.6104 34.9202C26.3005 35.454 25.8669 35.8681 25.3096 36.1624C24.7523 36.4566 24.1143 36.6038 23.3955 36.6038H19.54V35.0686H22.915C23.7406 35.0686 24.3708 34.8876 24.8057 34.5256C25.2406 34.1611 25.458 33.648 25.458 32.9866C25.458 32.5777 25.3656 32.2209 25.1807 31.9163C24.9984 31.609 24.734 31.372 24.3877 31.2053C24.0413 31.0387 23.6351 30.9553 23.1689 30.9553H21.1221V29.9006L24.7393 26.5256H19.8252V25.0842ZM33.1963 36.5881V33.885H29.2275C28.4906 33.885 28.1221 33.5491 28.1221 32.8772C28.1221 32.6012 28.2236 32.26 28.4268 31.8538L32.1221 25.0686H33.8369L29.8369 32.3811H33.1963V30.3811H34.6846V32.3811H36.4424V33.885H34.6846V36.5881H33.1963ZM39.4775 29.4827H41.1064C41.9398 29.4827 42.652 29.622 43.2432 29.9006C43.8343 30.1793 44.2822 30.5816 44.5869 31.1077C44.8916 31.6337 45.0439 32.26 45.0439 32.9866C45.0439 33.7027 44.8851 34.3342 44.5674 34.8811C44.2523 35.4254 43.7979 35.8486 43.2041 36.1506C42.613 36.4527 41.9255 36.6038 41.1416 36.6038H37.5244V35.0686H41.0752C41.8096 35.0686 42.3721 34.8915 42.7627 34.5374C43.1533 34.1832 43.3486 33.678 43.3486 33.0217C43.3486 32.3941 43.1546 31.898 42.7666 31.5334C42.3812 31.1689 41.8499 30.9866 41.1729 30.9866H37.9893V25.0842H43.9736V26.5569H39.4775V29.4827ZM49.1025 29.5959C48.7952 30.0178 48.5465 30.3837 48.3564 30.6936C48.1663 31.0035 48.0153 31.3173 47.9033 31.635C47.7939 31.9527 47.7393 32.2808 47.7393 32.6194C47.7393 33.1194 47.8499 33.5751 48.0713 33.9866C48.2926 34.3954 48.5947 34.7157 48.9775 34.9475C49.3604 35.1767 49.7848 35.2913 50.251 35.2913C50.7041 35.2913 51.1221 35.1702 51.5049 34.928C51.8877 34.6832 52.1898 34.3499 52.4111 33.928C52.6351 33.5061 52.7471 33.0439 52.7471 32.5413C52.7471 32.0413 52.6403 31.5972 52.4268 31.2092C52.2132 30.8186 51.9072 30.5165 51.5088 30.303C51.1104 30.0868 50.6494 29.9788 50.126 29.9788C49.9984 29.9788 49.8005 29.9905 49.5322 30.0139L50.54 28.6194C51.3135 28.6454 51.9867 28.8225 52.5596 29.1506C53.1351 29.4762 53.5739 29.928 53.876 30.5061C54.1807 31.0842 54.333 31.7522 54.333 32.51C54.333 33.3303 54.1585 34.0621 53.8096 34.7053C53.4632 35.3486 52.9801 35.8499 52.3604 36.2092C51.7432 36.5686 51.0518 36.7483 50.2861 36.7483C49.7549 36.7483 49.2419 36.6493 48.7471 36.4514C48.2523 36.2509 47.8161 35.9736 47.4385 35.6194C47.0635 35.2652 46.7692 34.8499 46.5557 34.3733C46.3421 33.8967 46.2354 33.3876 46.2354 32.8459C46.2354 32.1012 46.3903 31.4045 46.7002 30.7561C47.0101 30.1051 47.4854 29.3394 48.126 28.4592L50.5244 25.0686H52.3643L49.1025 29.5959ZM56.9346 36.6038L61.4619 26.5256H55.415V25.0842H61.4307C61.9801 25.0842 62.3864 25.1819 62.6494 25.3772C62.9124 25.5725 63.0439 25.8798 63.0439 26.2991C63.0439 26.6064 62.9268 27.0178 62.6924 27.5334L58.7588 36.6038H56.9346ZM66.5439 27.8538C66.5439 28.2913 66.6937 28.6571 66.9932 28.9514C67.2926 29.2431 67.6598 29.3889 68.0947 29.3889C68.5296 29.3889 68.8968 29.2418 69.1963 28.9475C69.4958 28.6506 69.6455 28.2861 69.6455 27.8538C69.6455 27.5621 69.5778 27.2978 69.4424 27.0608C69.3096 26.8212 69.1234 26.635 68.8838 26.5022C68.6468 26.3668 68.3838 26.2991 68.0947 26.2991C67.8057 26.2991 67.5413 26.3668 67.3018 26.5022C67.0648 26.635 66.8786 26.8212 66.7432 27.0608C66.6104 27.2978 66.5439 27.5621 66.5439 27.8538ZM65.7432 33.0842C65.7432 33.7066 65.9697 34.2275 66.4229 34.6467C66.876 35.066 67.4333 35.2756 68.0947 35.2756C68.5348 35.2756 68.9333 35.1793 69.29 34.9866C69.6494 34.7939 69.932 34.5308 70.1377 34.1975C70.3434 33.8642 70.4463 33.4931 70.4463 33.0842C70.4463 32.6884 70.3421 32.3212 70.1338 31.9827C69.9281 31.6415 69.6442 31.372 69.2822 31.1741C68.9229 30.9762 68.527 30.8772 68.0947 30.8772C67.6676 30.8772 67.2731 30.9775 66.9111 31.178C66.5492 31.3759 66.264 31.6441 66.0557 31.9827C65.8473 32.3186 65.7432 32.6858 65.7432 33.0842ZM66.2393 29.9631C65.333 29.385 64.8799 28.6285 64.8799 27.6936C64.8799 27.1728 65.0166 26.6975 65.29 26.2678C65.5661 25.8381 65.9489 25.4996 66.4385 25.2522C66.9281 25.0022 67.4801 24.8772 68.0947 24.8772C68.7093 24.8772 69.2614 25.0022 69.751 25.2522C70.2406 25.4996 70.6221 25.8381 70.8955 26.2678C71.1715 26.6975 71.3096 27.1728 71.3096 27.6936C71.3096 28.6025 70.8564 29.359 69.9502 29.9631C70.6299 30.2522 71.1455 30.665 71.4971 31.2014C71.8512 31.7379 72.0283 32.3707 72.0283 33.0999C72.0283 33.8134 71.863 34.4514 71.5322 35.0139C71.2041 35.5764 70.7406 36.0139 70.1416 36.3264C69.5426 36.6389 68.8604 36.7952 68.0947 36.7952C67.3291 36.7952 66.6468 36.6389 66.0479 36.3264C65.4489 36.0139 64.984 35.5764 64.6533 35.0139C64.3226 34.4514 64.1572 33.8134 64.1572 33.0999C64.1572 32.3707 64.3343 31.7379 64.6885 31.2014C65.0426 30.665 65.5596 30.2522 66.2393 29.9631ZM78.2158 32.0608C78.6898 31.4071 79.0348 30.8616 79.251 30.4241C79.4671 29.9866 79.5752 29.5243 79.5752 29.0374C79.5752 28.5374 79.4645 28.0829 79.2432 27.6741C79.0244 27.2626 78.7223 26.9423 78.3369 26.7131C77.9541 26.4814 77.5296 26.3655 77.0635 26.3655C76.6104 26.3655 76.1924 26.4866 75.8096 26.7288C75.4294 26.9709 75.1273 27.3043 74.9033 27.7288C74.6794 28.1506 74.5674 28.6129 74.5674 29.1155C74.5674 29.8759 74.8083 30.4931 75.29 30.967C75.7744 31.441 76.4137 31.678 77.208 31.678C77.2575 31.678 77.4489 31.6663 77.7822 31.6428L76.79 33.0217C76.2015 32.9983 75.6729 32.8928 75.2041 32.7053C74.738 32.5178 74.3395 32.2535 74.0088 31.9124C73.6781 31.5712 73.4268 31.1663 73.2549 30.6975C73.083 30.2262 72.9971 29.7092 72.9971 29.1467C72.9971 28.3264 73.1715 27.5946 73.5205 26.9514C73.8695 26.3056 74.3512 25.8043 74.9658 25.4475C75.583 25.0881 76.277 24.9084 77.0479 24.9084C77.764 24.9084 78.432 25.0803 79.0518 25.4241C79.6742 25.7678 80.1702 26.2379 80.54 26.8342C80.9098 27.428 81.0947 28.0868 81.0947 28.8108C81.0947 29.5504 80.9424 30.2392 80.6377 30.8772C80.3356 31.5126 79.859 32.2808 79.208 33.1819L76.8057 36.5881H74.9658L78.2158 32.0608ZM83.6494 30.8108C83.6494 31.3863 83.7601 31.9488 83.9814 32.4983C84.2054 33.0452 84.5153 33.5334 84.9111 33.9631C85.307 34.3902 85.7653 34.7275 86.2861 34.9749C86.807 35.2196 87.3564 35.342 87.9346 35.342C88.5257 35.342 89.083 35.2196 89.6064 34.9749C90.1325 34.7275 90.5895 34.3902 90.9775 33.9631C91.3682 33.5361 91.6702 33.0504 91.8838 32.5061C92.0999 31.9592 92.208 31.3941 92.208 30.8108C92.208 30.2327 92.0999 29.6702 91.8838 29.1233C91.6676 28.5764 91.363 28.0907 90.9697 27.6663C90.5791 27.2392 90.1247 26.9045 89.6064 26.6624C89.0882 26.4202 88.5309 26.2991 87.9346 26.2991C87.1585 26.2991 86.4424 26.5074 85.7861 26.9241C85.1299 27.3407 84.609 27.898 84.2236 28.5959C83.8408 29.2913 83.6494 30.0295 83.6494 30.8108ZM82.0791 30.8264C82.0791 29.7874 82.3473 28.8095 82.8838 27.8928C83.4202 26.9762 84.139 26.2444 85.04 25.6975C85.9437 25.1506 86.9085 24.8772 87.9346 24.8772C88.7314 24.8772 89.4854 25.0334 90.1963 25.3459C90.9072 25.6558 91.5309 26.0894 92.0674 26.6467C92.6064 27.2014 93.0257 27.8381 93.3252 28.5569C93.6247 29.2756 93.7744 30.0321 93.7744 30.8264C93.7744 31.6207 93.6247 32.3772 93.3252 33.0959C93.0257 33.8147 92.609 34.4527 92.0752 35.01C91.5413 35.5647 90.9163 36.0009 90.2002 36.3186C89.4867 36.6363 88.7314 36.7952 87.9346 36.7952C87.1585 36.7952 86.415 36.6402 85.7041 36.3303C84.9932 36.0204 84.363 35.5868 83.8135 35.0295C83.2666 34.4696 82.8408 33.829 82.5361 33.1077C82.2314 32.3863 82.0791 31.6259 82.0791 30.8264Z" fill="black"/>
</svg>
