<svg width="146" height="39" viewBox="0 0 146 39" fill="none" xmlns="http://www.w3.org/2000/svg">
<path d="M0.729492 13.5881V11.5256H1.19043C1.38835 11.5256 1.53158 11.4918 1.62012 11.4241C1.70866 11.3564 1.75293 11.1819 1.75293 10.9006V5.09595C1.75293 4.86157 1.72168 4.69751 1.65918 4.60376C1.60189 4.5048 1.44564 4.45532 1.19043 4.45532H0.729492V2.38501H5.69043V4.45532H5.65137C5.40658 4.45532 5.25293 4.49699 5.19043 4.58032C5.12793 4.66366 5.09668 4.83553 5.09668 5.09595V11.3303H6.94824V5.09595C6.94824 4.86157 6.91699 4.69751 6.85449 4.60376C6.7972 4.5048 6.64355 4.45532 6.39355 4.45532H6.3623V2.38501H10.8857V4.45532H10.8389C10.6097 4.45532 10.4613 4.5048 10.3936 4.60376C10.3258 4.69751 10.292 4.86157 10.292 5.09595V11.3303H12.1357V5.09595C12.1357 4.84595 12.1019 4.67668 12.0342 4.58813C11.9717 4.49959 11.818 4.45532 11.5732 4.45532H11.542V2.38501H16.5186V4.45532H16.0576C15.8128 4.45532 15.654 4.49699 15.5811 4.58032C15.5133 4.66366 15.4795 4.83553 15.4795 5.09595V10.9006C15.4795 11.1767 15.5238 11.3512 15.6123 11.4241C15.7008 11.4918 15.8493 11.5256 16.0576 11.5256H16.5186V13.5881H0.729492ZM21.5186 13.2678V14.76C21.5186 14.9683 21.5602 15.1038 21.6436 15.1663C21.7321 15.234 21.8571 15.2678 22.0186 15.2678H22.6436V16.9475H17.8389V15.2678H18.1123C18.279 15.2678 18.4092 15.2392 18.5029 15.1819C18.5967 15.1246 18.6436 14.984 18.6436 14.76V7.29907C18.6436 7.09074 18.5993 6.95532 18.5107 6.89282C18.4274 6.82511 18.2946 6.79126 18.1123 6.79126H17.8389V5.11157H20.9951L21.2842 5.89282H21.3467C21.8102 5.51782 22.167 5.26522 22.417 5.13501C22.6722 4.99959 23.0133 4.93188 23.4404 4.93188C24.3102 4.93188 25.0003 5.16105 25.5107 5.61938C26.0212 6.07251 26.3727 6.62459 26.5654 7.27563C26.7633 7.92147 26.8623 8.59595 26.8623 9.29907C26.8623 9.65845 26.8128 10.0777 26.7139 10.5569C26.6149 11.0308 26.43 11.5152 26.1592 12.01C25.8936 12.5048 25.5029 12.9215 24.9873 13.26C24.4717 13.5986 23.8232 13.7678 23.042 13.7678C22.7139 13.7678 22.4326 13.7236 22.1982 13.635C21.9691 13.5465 21.7425 13.4241 21.5186 13.2678ZM21.5186 7.61938V11.3147C21.7425 11.7001 22.042 11.8928 22.417 11.8928C23.0837 11.8928 23.4352 11.4345 23.4717 10.5178C23.4821 10.372 23.4899 10.2652 23.4951 10.1975C23.5003 10.1246 23.5055 10.0647 23.5107 10.0178C23.516 9.97095 23.5186 9.90324 23.5186 9.8147V8.99438V8.47095C23.5186 7.90324 23.4587 7.48136 23.3389 7.20532C23.2191 6.92928 22.9482 6.79126 22.5264 6.79126C22.0055 6.79126 21.6696 7.0673 21.5186 7.61938ZM31.6279 9.28345H31.7217L33.8701 5.11157H37.2139V6.79126H36.9561C36.7842 6.79126 36.6566 6.81991 36.5732 6.8772C36.4899 6.92928 36.4482 7.06991 36.4482 7.29907V11.3928C36.4482 11.6116 36.4847 11.7522 36.5576 11.8147C36.6357 11.8772 36.7686 11.9084 36.9561 11.9084H37.2139V13.5881H32.9404V11.9084H33.0889C33.2764 11.9084 33.4014 11.8746 33.4639 11.8069C33.5316 11.7392 33.5654 11.6012 33.5654 11.3928V9.33032H33.4873L31.292 13.5881H27.9795V11.9084H28.2529C28.3883 11.9084 28.4925 11.8876 28.5654 11.8459C28.6436 11.8043 28.693 11.747 28.7139 11.6741C28.7399 11.6012 28.7529 11.5074 28.7529 11.3928V7.29907C28.7529 7.11678 28.7217 6.98657 28.6592 6.90845C28.6019 6.83032 28.4665 6.79126 28.2529 6.79126H27.9795V5.11157H32.2529V6.79126H32.1279C31.9561 6.79126 31.8285 6.82511 31.7451 6.89282C31.667 6.95532 31.6279 7.09074 31.6279 7.29907V9.28345ZM42.0889 1.07251H46.042V5.11157C46.3649 4.98136 46.7165 4.91626 47.0967 4.91626C47.654 4.91626 48.1462 5.03866 48.5732 5.28345C49.0055 5.52303 49.3415 5.76261 49.5811 6.0022C49.8571 6.27303 50.0941 6.60116 50.292 6.98657C50.4899 7.36678 50.6357 7.76522 50.7295 8.18188C50.8285 8.59855 50.8779 8.98657 50.8779 9.34595C50.8779 9.84074 50.8102 10.3407 50.6748 10.8459C50.5394 11.3459 50.3232 11.8199 50.0264 12.2678C49.7295 12.7157 49.3389 13.0777 48.8545 13.3538C48.3701 13.6298 47.7842 13.7678 47.0967 13.7678C46.6748 13.7678 46.3232 13.7027 46.042 13.5725V14.76C46.042 14.9319 46.0732 15.0595 46.1357 15.1428C46.2035 15.2262 46.3441 15.2678 46.5576 15.2678H47.1123V16.9475H42.0889V15.2678H42.6514C42.8649 15.2678 43.0029 15.2262 43.0654 15.1428C43.1331 15.0595 43.167 14.9319 43.167 14.76V13.5725C42.8857 13.7027 42.5316 13.7678 42.1045 13.7678C41.4222 13.7678 40.8415 13.6298 40.3623 13.3538C39.8831 13.0777 39.4899 12.7105 39.1826 12.2522C38.8805 11.7939 38.6618 11.3121 38.5264 10.8069C38.3962 10.3017 38.3311 9.8147 38.3311 9.34595C38.3311 8.98657 38.3779 8.59855 38.4717 8.18188C38.5706 7.76522 38.7191 7.36157 38.917 6.97095C39.1201 6.58032 39.3571 6.25741 39.6279 6.0022C39.8988 5.74699 40.2399 5.5022 40.6514 5.26782C41.068 5.03345 41.5524 4.91626 42.1045 4.91626C42.4847 4.91626 42.8389 4.98136 43.167 5.11157V3.26782C43.167 3.08553 43.1331 2.95532 43.0654 2.8772C43.0029 2.79907 42.8649 2.76001 42.6514 2.76001H42.0889V1.07251ZM43.167 11.8772V6.79126C42.9795 6.66105 42.8389 6.59595 42.7451 6.59595C42.391 6.59595 42.1279 6.71574 41.9561 6.95532C41.7894 7.19491 41.6878 7.49438 41.6514 7.85376C41.6149 8.20793 41.5967 8.69491 41.5967 9.3147C41.5967 9.45532 41.5967 9.52824 41.5967 9.53345C41.6019 9.53866 41.6045 9.5673 41.6045 9.61938C41.6097 9.66626 41.6175 9.8147 41.6279 10.0647C41.6383 10.6793 41.7061 11.1741 41.8311 11.5491C41.9613 11.9189 42.2555 12.1038 42.7139 12.1038C42.8545 12.1038 43.0055 12.0282 43.167 11.8772ZM46.042 11.8772C46.2035 12.0282 46.3545 12.1038 46.4951 12.1038C46.9535 12.1038 47.2451 11.9241 47.3701 11.5647C47.5003 11.2001 47.5706 10.7001 47.5811 10.0647C47.5863 9.80428 47.5915 9.65584 47.5967 9.61938C47.6071 9.57772 47.6123 9.47616 47.6123 9.3147C47.6123 8.69491 47.5941 8.20793 47.5576 7.85376C47.5212 7.49438 47.417 7.19491 47.2451 6.95532C47.0785 6.71574 46.8154 6.59595 46.4561 6.59595C46.3675 6.59595 46.2295 6.66105 46.042 6.79126V11.8772ZM51.6123 5.11157H59.8076V8.18188H58.1436L58.1123 7.89282C58.0706 7.49699 58.0186 7.24699 57.9561 7.14282C57.8936 7.03345 57.7217 6.97876 57.4404 6.97876H57.1514V11.3928C57.1514 11.5439 57.1722 11.6584 57.2139 11.7366C57.2555 11.8095 57.3076 11.8564 57.3701 11.8772C57.4378 11.898 57.529 11.9084 57.6436 11.9084H58.0967V13.5881H53.3232V11.9084H53.7764C53.9535 11.9084 54.0785 11.8798 54.1514 11.8225C54.2295 11.76 54.2686 11.6168 54.2686 11.3928V6.97876H53.9951C53.7295 6.97876 53.5576 7.02303 53.4795 7.11157C53.4066 7.19491 53.3649 7.3173 53.3545 7.47876C53.3545 7.55168 53.3493 7.60897 53.3389 7.65063C53.3389 7.67147 53.3337 7.71053 53.3232 7.76782C53.3128 7.82511 53.3076 7.86678 53.3076 7.89282L53.292 8.18188H51.6123V5.11157ZM71.5967 2.38501V4.45532H71.4092C71.3467 4.45532 71.2868 4.47355 71.2295 4.51001C71.1774 4.54126 71.1514 4.60116 71.1514 4.6897C71.1514 4.76261 71.1982 4.86418 71.292 4.99438L71.9326 5.97095H72.0498L72.7217 4.96313C72.8467 4.7548 72.9092 4.63241 72.9092 4.59595C72.9092 4.5022 72.8519 4.45532 72.7373 4.45532H72.5264V2.38501H76.8623V4.45532H76.4326C76.193 4.45532 75.9977 4.53605 75.8467 4.69751C75.6956 4.85897 75.4639 5.16626 75.1514 5.61938L73.9873 7.3772L75.9873 10.4553C76.1279 10.6793 76.2399 10.8564 76.3232 10.9866C76.4118 11.1116 76.5238 11.234 76.6592 11.3538C76.7998 11.4683 76.9482 11.5256 77.1045 11.5256H77.5342V13.5881H71.9014V11.5256C72.167 11.5256 72.2998 11.4397 72.2998 11.2678C72.2998 11.2314 72.2764 11.1663 72.2295 11.0725C72.1878 10.9736 72.1436 10.8902 72.0967 10.8225L71.4561 9.84595H71.3623L70.6201 10.9475C70.5264 11.0413 70.4795 11.1637 70.4795 11.3147C70.4795 11.4553 70.6019 11.5256 70.8467 11.5256V13.5881H66.1904V11.5256H66.6201C66.8597 11.5256 67.0576 11.484 67.2139 11.4006C67.3701 11.3173 67.5003 11.2079 67.6045 11.0725C67.7087 10.9371 67.8675 10.7079 68.0811 10.385L69.4404 8.32251L67.5498 5.43188C67.2529 4.96313 67.0498 4.68449 66.9404 4.59595C66.8363 4.5022 66.6826 4.45532 66.4795 4.45532H66.1748V2.38501H71.5967ZM83.7607 10.9788H86.4795C86.2712 11.7183 85.8519 12.3694 85.2217 12.9319C84.5915 13.4892 83.6878 13.7678 82.5107 13.7678C82.0316 13.7678 81.4691 13.6741 80.8232 13.4866C80.1774 13.2939 79.6201 12.8954 79.1514 12.2913C78.5628 11.5204 78.2686 10.5595 78.2686 9.40845C78.2686 8.87199 78.3519 8.34595 78.5186 7.83032C78.6904 7.30949 78.9222 6.86157 79.2139 6.48657C79.6514 5.91886 80.167 5.51782 80.7607 5.28345C81.3597 5.04907 81.9743 4.93188 82.6045 4.93188C83.4118 4.93188 84.1123 5.13241 84.7061 5.53345C85.305 5.93449 85.7607 6.51261 86.0732 7.26782C86.391 8.02303 86.5628 8.91886 86.5889 9.95532H81.5654V10.3538C81.5654 10.734 81.5993 11.0334 81.667 11.2522C81.7347 11.4709 81.8493 11.6324 82.0107 11.7366C82.1774 11.8407 82.4066 11.8928 82.6982 11.8928C83.3024 11.8928 83.6566 11.5881 83.7607 10.9788ZM81.5654 8.27563H83.7607C83.7607 7.76522 83.6592 7.39022 83.4561 7.15063C83.2581 6.91105 83.0055 6.79126 82.6982 6.79126C82.3805 6.79126 82.1123 6.91886 81.8936 7.17407C81.6748 7.42928 81.5654 7.79647 81.5654 8.27563ZM87.7139 13.5881V11.9084H88.0029C88.18 11.9084 88.3102 11.8772 88.3936 11.8147C88.4769 11.7522 88.5186 11.6116 88.5186 11.3928V7.29907C88.5186 7.11157 88.4873 6.98136 88.4248 6.90845C88.3623 6.83032 88.2217 6.79126 88.0029 6.79126H87.7139V5.11157H91.3936V5.74438H91.4795C92.2347 5.20272 93.1774 4.93188 94.3076 4.93188C94.8962 4.93188 95.3337 5.06209 95.6201 5.32251C95.9118 5.58293 96.0889 5.89803 96.1514 6.26782C96.2139 6.63241 96.2451 7.11418 96.2451 7.71313V11.3928C96.2451 11.5751 96.2816 11.7079 96.3545 11.7913C96.4274 11.8694 96.555 11.9084 96.7373 11.9084H97.042V13.5881H92.8389V11.9084H92.9482C93.1201 11.9084 93.2321 11.8642 93.2842 11.7756C93.3363 11.6871 93.3623 11.5595 93.3623 11.3928V7.84595C93.3623 7.58553 93.3024 7.34595 93.1826 7.1272C93.0628 6.90324 92.8311 6.79126 92.4873 6.79126C92.1852 6.79126 91.9274 6.85897 91.7139 6.99438C91.5003 7.1298 91.3936 7.41366 91.3936 7.84595V11.3928C91.3936 11.5595 91.4222 11.6871 91.4795 11.7756C91.5368 11.8642 91.6748 11.9084 91.8936 11.9084H91.9561V13.5881H87.7139ZM98.417 13.5881V11.9084H98.6279C98.7633 11.9084 98.8675 11.8876 98.9404 11.8459C99.0186 11.8043 99.068 11.747 99.0889 11.6741C99.1149 11.6012 99.1279 11.5074 99.1279 11.3928V7.29907C99.1279 7.1272 99.0967 6.99959 99.0342 6.91626C98.9769 6.83293 98.8415 6.79126 98.6279 6.79126H98.3545V5.11157H102.808V6.79126H102.519C102.305 6.79126 102.164 6.83032 102.097 6.90845C102.034 6.98657 102.003 7.11678 102.003 7.29907V11.3928C102.003 11.4866 102.013 11.5699 102.034 11.6428C102.055 11.7157 102.081 11.7678 102.112 11.7991C102.144 11.8303 102.193 11.8564 102.261 11.8772C102.334 11.898 102.42 11.9084 102.519 11.9084H102.808V13.5881H98.417ZM98.9951 2.33813C98.9951 1.93188 99.1462 1.5673 99.4482 1.24438C99.7503 0.921468 100.128 0.76001 100.581 0.76001C101.05 0.76001 101.43 0.921468 101.722 1.24438C102.019 1.56209 102.167 1.92668 102.167 2.33813C102.167 2.65063 102.089 2.92928 101.933 3.17407C101.782 3.41366 101.584 3.60116 101.339 3.73657C101.099 3.87199 100.847 3.9397 100.581 3.9397C100.289 3.9397 100.021 3.86157 99.7764 3.70532C99.5316 3.54907 99.3389 3.34855 99.1982 3.10376C99.0628 2.85897 98.9951 2.60376 98.9951 2.33813ZM112.534 11.5725V13.5881C112.107 13.7079 111.659 13.7678 111.19 13.7678C110.144 13.7678 109.563 13.4631 109.448 12.8538L109.3 12.8694C108.93 13.1975 108.552 13.4293 108.167 13.5647C107.782 13.7001 107.349 13.7678 106.87 13.7678C105.922 13.7678 105.227 13.5126 104.784 13.0022C104.341 12.4918 104.12 11.8824 104.12 11.1741C104.12 10.1116 104.513 9.38501 105.3 8.99438C106.086 8.59855 107.19 8.40063 108.612 8.40063H109.026V7.55688C109.026 7.3798 108.961 7.20793 108.831 7.04126C108.706 6.87459 108.43 6.79126 108.003 6.79126C107.696 6.79126 107.453 6.86938 107.276 7.02563C107.099 7.18188 107.011 7.39022 107.011 7.65063H104.487C104.487 5.83813 105.868 4.93188 108.628 4.93188C109.388 4.93188 109.995 5.02563 110.448 5.21313C110.907 5.40063 111.237 5.64803 111.44 5.95532C111.649 6.26261 111.779 6.58293 111.831 6.91626C111.883 7.24438 111.909 7.66105 111.909 8.16626V10.9944C111.909 11.2027 111.951 11.3512 112.034 11.4397C112.123 11.5282 112.289 11.5725 112.534 11.5725ZM109.026 11.4319V9.86157C108.485 9.86157 108.071 9.97876 107.784 10.2131C107.503 10.4423 107.362 10.7236 107.362 11.0569C107.362 11.2861 107.433 11.4866 107.573 11.6584C107.714 11.8251 107.927 11.9084 108.214 11.9084C108.427 11.9084 108.615 11.8642 108.776 11.7756C108.943 11.6871 109.026 11.5725 109.026 11.4319ZM123.558 6.67407H119.761C119.724 5.86157 119.625 5.27303 119.464 4.90845C119.308 4.53866 118.964 4.35376 118.433 4.35376C118.115 4.35376 117.862 4.42407 117.675 4.5647C117.487 4.70532 117.344 4.90063 117.245 5.15063C117.151 5.40063 117.089 5.67928 117.058 5.98657C117.026 6.29386 117.011 6.65584 117.011 7.07251V7.9397C117.016 8.05428 117.021 8.17668 117.026 8.30688C117.032 8.43709 117.037 8.70011 117.042 9.09595C117.047 9.82511 117.107 10.3798 117.222 10.76C117.336 11.135 117.487 11.372 117.675 11.4709C117.868 11.5699 118.131 11.6194 118.464 11.6194C118.615 11.6194 118.769 11.5986 118.925 11.5569C119.081 11.51 119.237 11.4084 119.394 11.2522C119.55 11.0907 119.68 10.8355 119.784 10.4866C119.888 10.1324 119.94 9.66105 119.94 9.07251H123.729C123.709 9.97355 123.479 10.7913 123.042 11.5256C122.604 12.2548 121.99 12.8277 121.198 13.2444C120.407 13.6558 119.5 13.8616 118.479 13.8616C117.698 13.8616 116.92 13.7079 116.144 13.4006C115.368 13.0881 114.696 12.497 114.128 11.6272C113.565 10.7574 113.284 9.54386 113.284 7.98657C113.284 6.88241 113.49 5.88501 113.901 4.99438C114.318 4.10376 114.914 3.40324 115.69 2.89282C116.472 2.3772 117.381 2.11938 118.417 2.11938C119.229 2.11938 119.956 2.24438 120.597 2.49438C121.237 2.73918 121.774 3.07511 122.206 3.5022C122.638 3.92407 122.969 4.40845 123.198 4.95532C123.427 5.49699 123.547 6.06991 123.558 6.67407ZM134.558 6.67407H130.761C130.724 5.86157 130.625 5.27303 130.464 4.90845C130.308 4.53866 129.964 4.35376 129.433 4.35376C129.115 4.35376 128.862 4.42407 128.675 4.5647C128.487 4.70532 128.344 4.90063 128.245 5.15063C128.151 5.40063 128.089 5.67928 128.058 5.98657C128.026 6.29386 128.011 6.65584 128.011 7.07251V7.9397C128.016 8.05428 128.021 8.17668 128.026 8.30688C128.032 8.43709 128.037 8.70011 128.042 9.09595C128.047 9.82511 128.107 10.3798 128.222 10.76C128.336 11.135 128.487 11.372 128.675 11.4709C128.868 11.5699 129.131 11.6194 129.464 11.6194C129.615 11.6194 129.769 11.5986 129.925 11.5569C130.081 11.51 130.237 11.4084 130.394 11.2522C130.55 11.0907 130.68 10.8355 130.784 10.4866C130.888 10.1324 130.94 9.66105 130.94 9.07251H134.729C134.709 9.97355 134.479 10.7913 134.042 11.5256C133.604 12.2548 132.99 12.8277 132.198 13.2444C131.407 13.6558 130.5 13.8616 129.479 13.8616C128.698 13.8616 127.92 13.7079 127.144 13.4006C126.368 13.0881 125.696 12.497 125.128 11.6272C124.565 10.7574 124.284 9.54386 124.284 7.98657C124.284 6.88241 124.49 5.88501 124.901 4.99438C125.318 4.10376 125.914 3.40324 126.69 2.89282C127.472 2.3772 128.381 2.11938 129.417 2.11938C130.229 2.11938 130.956 2.24438 131.597 2.49438C132.237 2.73918 132.774 3.07511 133.206 3.5022C133.638 3.92407 133.969 4.40845 134.198 4.95532C134.427 5.49699 134.547 6.06991 134.558 6.67407ZM135.284 2.38501H145.167V6.15063H143.3C143.263 5.96313 143.235 5.80949 143.214 5.6897C143.193 5.56991 143.162 5.40324 143.12 5.1897C143.089 4.97095 143.024 4.82511 142.925 4.7522C142.831 4.67928 142.61 4.64282 142.261 4.64282H141.909V10.9163C141.909 11.1975 141.953 11.372 142.042 11.4397C142.131 11.5074 142.271 11.5413 142.464 11.5413H143.073V13.6038H137.378V11.5413H137.987C138.19 11.5413 138.336 11.5074 138.425 11.4397C138.519 11.372 138.565 11.1975 138.565 10.9163V4.64282H138.214C137.927 4.64282 137.727 4.66886 137.612 4.72095C137.503 4.77303 137.42 4.89803 137.362 5.09595C137.305 5.29386 137.24 5.64543 137.167 6.15063H135.284V2.38501Z" fill="black"/>
<path d="M2.69824 34.5881V32.5256H3.22168C3.46126 32.5256 3.61491 32.4814 3.68262 32.3928C3.75033 32.2991 3.78418 32.1298 3.78418 31.885V27.8069H2.51855V25.8538C3.6748 25.3017 4.45866 24.4788 4.87012 23.385H7.12793V31.885C7.12793 32.1142 7.15918 32.2782 7.22168 32.3772C7.28939 32.4762 7.45085 32.5256 7.70605 32.5256H8.15137V34.5881H2.69824ZM10.5186 34.5881V32.2678C11.6383 31.6324 12.5837 30.9866 13.3545 30.3303C14.1253 29.6689 14.693 29.0308 15.0576 28.4163C15.4222 27.8017 15.6045 27.2131 15.6045 26.6506C15.6045 25.7861 15.3285 25.3538 14.7764 25.3538C14.4587 25.3538 14.2191 25.4866 14.0576 25.7522C13.8962 26.0126 13.7946 26.5569 13.7529 27.385H10.5654C10.6019 26.609 10.7686 25.9006 11.0654 25.26C11.3623 24.6194 11.8493 24.1038 12.5264 23.7131C13.2035 23.3173 14.0915 23.1194 15.1904 23.1194C16.029 23.1194 16.7633 23.2704 17.3936 23.5725C18.0238 23.8694 18.5055 24.273 18.8389 24.7834C19.1722 25.2939 19.3389 25.8486 19.3389 26.4475C19.3389 26.9579 19.2269 27.4866 19.0029 28.0334C18.7842 28.5751 18.4613 29.1064 18.0342 29.6272C17.6071 30.1428 17.0732 30.6272 16.4326 31.0803C15.7972 31.5334 15.0915 31.9137 14.3154 32.2209L14.2998 32.3303H16.4561C16.7686 32.3303 16.9743 32.2756 17.0732 32.1663C17.1722 32.0517 17.318 31.7861 17.5107 31.3694H19.5732L19.1279 34.5881H10.5186ZM24.4717 29.8225H23.6748V27.5803H24.6514C25.4378 27.5803 25.8311 27.1897 25.8311 26.4084C25.8311 25.7053 25.529 25.3538 24.9248 25.3538C24.529 25.3538 24.2555 25.4814 24.1045 25.7366C23.9535 25.9918 23.8779 26.3225 23.8779 26.7288H20.7451C20.7764 26.3694 20.8493 26.0048 20.9639 25.635C21.0785 25.26 21.2894 24.8798 21.5967 24.4944C21.9092 24.109 22.3701 23.7834 22.9795 23.5178C23.5889 23.2522 24.3493 23.1194 25.2607 23.1194C26.0212 23.1194 26.6618 23.2131 27.1826 23.4006C27.7087 23.5829 28.1149 23.8173 28.4014 24.1038C28.6878 24.3902 28.8936 24.7053 29.0186 25.0491C29.1436 25.3876 29.2061 25.7183 29.2061 26.0413C29.2061 26.6923 29.0186 27.2366 28.6436 27.6741C28.2738 28.1116 27.7946 28.3902 27.2061 28.51V28.5881C27.6175 28.6663 27.9951 28.8173 28.3389 29.0413C28.6826 29.26 28.9613 29.5751 29.1748 29.9866C29.3883 30.398 29.4951 30.9189 29.4951 31.5491C29.4951 32.2418 29.3519 32.8095 29.0654 33.2522C28.7842 33.6949 28.4222 34.0334 27.9795 34.2678C27.542 34.497 27.0889 34.6532 26.6201 34.7366C26.1566 34.8199 25.7087 34.8616 25.2764 34.8616C23.4899 34.8616 22.2633 34.4449 21.5967 33.6116C20.9352 32.7782 20.6045 31.872 20.6045 30.8928H23.6592C23.6696 31.2574 23.7035 31.5595 23.7607 31.7991C23.818 32.0334 23.93 32.2262 24.0967 32.3772C24.2633 32.5282 24.5003 32.6038 24.8076 32.6038C25.167 32.6038 25.4196 32.4918 25.5654 32.2678C25.7165 32.0439 25.7998 31.7288 25.8154 31.3225V31.0022C25.779 30.5439 25.6279 30.234 25.3623 30.0725C25.1019 29.9058 24.805 29.8225 24.4717 29.8225ZM39.5654 34.5881H34.0732V32.5256H34.5576C34.7347 32.5256 34.8753 32.497 34.9795 32.4397C35.0889 32.3824 35.1436 32.2444 35.1436 32.0256V31.7209H29.917V29.5334L36.0576 23.385H38.4873V29.6741H39.6436V31.7209H38.4873V32.0256C38.4873 32.2444 38.5394 32.3824 38.6436 32.4397C38.7529 32.497 38.8988 32.5256 39.0811 32.5256H39.5654V34.5881ZM35.1436 27.3381L32.8779 29.6741H35.1436V27.3381ZM40.4561 31.0334H43.5342C43.5342 31.6324 43.6462 32.0439 43.8701 32.2678C44.0941 32.4918 44.3493 32.6038 44.6357 32.6038C45.016 32.6038 45.292 32.4449 45.4639 32.1272C45.6357 31.8043 45.7217 31.4397 45.7217 31.0334V30.635C45.7217 30.234 45.6175 29.9293 45.4092 29.7209C45.2008 29.5126 44.9274 29.3746 44.5889 29.3069C44.2555 29.234 43.8232 29.1975 43.292 29.1975C42.5837 29.1975 41.9066 29.2444 41.2607 29.3381L41.6436 23.385H48.3154V25.5334C48.1383 25.6584 47.8493 25.7887 47.4482 25.9241C47.0524 26.0595 46.5628 26.1272 45.9795 26.1272C45.5055 26.1272 44.9561 26.0569 44.3311 25.9163L44.2217 27.2288C44.6071 27.1871 44.9482 27.1663 45.2451 27.1663C46.1201 27.1663 46.8441 27.2939 47.417 27.5491C47.9899 27.7991 48.4196 28.1116 48.7061 28.4866C48.9925 28.8564 49.1878 29.2418 49.292 29.6428C49.3962 30.0387 49.4482 30.4137 49.4482 30.7678C49.4482 31.2314 49.3727 31.7001 49.2217 32.1741C49.0706 32.6428 48.8258 33.0803 48.4873 33.4866C48.1488 33.8928 47.6904 34.2236 47.1123 34.4788C46.5394 34.734 45.8519 34.8616 45.0498 34.8616C44.1956 34.8616 43.4665 34.7574 42.8623 34.5491C42.2581 34.3355 41.7842 34.0517 41.4404 33.6975C41.0967 33.3381 40.8493 32.9371 40.6982 32.4944C40.5524 32.0517 40.4717 31.5647 40.4561 31.0334ZM53.9014 27.5959V27.9475C54.4118 27.6506 55.0732 27.5022 55.8857 27.5022C56.4639 27.5022 56.9717 27.5986 57.4092 27.7913C57.8519 27.984 58.2139 28.247 58.4951 28.5803C58.7816 28.9084 58.9925 29.2782 59.1279 29.6897C59.2686 30.1012 59.3389 30.5439 59.3389 31.0178C59.3389 31.523 59.2451 32.01 59.0576 32.4788C58.8701 32.9475 58.5915 33.3616 58.2217 33.7209C57.8571 34.0751 57.4092 34.3538 56.8779 34.5569C56.3519 34.76 55.766 34.8616 55.1201 34.8616C54.0785 34.8616 53.2087 34.635 52.5107 34.1819C51.818 33.7288 51.305 33.0959 50.9717 32.2834C50.6436 31.4657 50.4795 30.5178 50.4795 29.4397C50.4795 26.7834 50.9821 25.0673 51.9873 24.2913C52.9977 23.51 54.029 23.1194 55.0811 23.1194C56.0133 23.1194 56.8571 23.3433 57.6123 23.7913C58.3727 24.234 58.891 25.1558 59.167 26.5569H56.0576C56.0576 26.3694 56.0186 26.1793 55.9404 25.9866C55.8623 25.7939 55.7451 25.6402 55.5889 25.5256C55.4378 25.4111 55.2529 25.3538 55.0342 25.3538C54.7269 25.3538 54.4899 25.4553 54.3232 25.6584C54.1618 25.8616 54.0498 26.122 53.9873 26.4397C53.93 26.7574 53.9014 27.1428 53.9014 27.5959ZM55.1201 32.6038C55.5003 32.6038 55.7399 32.4709 55.8389 32.2053C55.943 31.9397 55.9951 31.5439 55.9951 31.0178C55.9951 30.5334 55.9378 30.1767 55.8232 29.9475C55.7139 29.7131 55.4795 29.5959 55.1201 29.5959C54.7087 29.5959 54.4274 29.7131 54.2764 29.9475C54.1305 30.1819 54.0576 30.5387 54.0576 31.0178C54.0576 31.3564 54.0837 31.6402 54.1357 31.8694C54.1878 32.0933 54.292 32.273 54.4482 32.4084C54.6045 32.5387 54.8285 32.6038 55.1201 32.6038ZM69.0186 23.385V25.5334C68.3467 26.523 67.8154 27.3902 67.4248 28.135C67.0342 28.8746 66.7399 29.5334 66.542 30.1116C66.3441 30.6897 66.2113 31.1715 66.1436 31.5569C66.0758 31.9423 66.0003 32.4788 65.917 33.1663C65.8753 33.5465 65.8545 34.0204 65.8545 34.5881H62.0967C62.1175 34.0621 62.2008 33.5048 62.3467 32.9163C62.4977 32.3225 62.68 31.747 62.8936 31.1897C63.1071 30.6324 63.3258 30.122 63.5498 29.6584C63.805 29.1584 64.0498 28.7053 64.2842 28.2991C64.5238 27.8928 64.805 27.4579 65.1279 26.9944C65.4561 26.5256 65.8154 26.0751 66.2061 25.6428H64.0967C63.7217 25.6428 63.4508 25.7288 63.2842 25.9006C63.1227 26.0673 63.0133 26.4137 62.9561 26.9397H61.0576V23.385H69.0186ZM74.8154 23.1194C75.9561 23.1194 76.8441 23.2965 77.4795 23.6506C78.1149 24.0048 78.5394 24.4137 78.7529 24.8772C78.9665 25.3355 79.0732 25.773 79.0732 26.1897C79.0732 26.7209 78.9014 27.2131 78.5576 27.6663C78.2191 28.1142 77.7191 28.4319 77.0576 28.6194V28.6819C77.4014 28.7548 77.7217 28.8902 78.0186 29.0881C78.3154 29.2808 78.5602 29.5126 78.7529 29.7834C78.9508 30.0491 79.1019 30.3459 79.2061 30.6741C79.3102 30.997 79.3623 31.3303 79.3623 31.6741C79.3623 32.1584 79.2373 32.6428 78.9873 33.1272C78.7373 33.6064 78.2738 34.0152 77.5967 34.3538C76.9196 34.6923 75.9925 34.8616 74.8154 34.8616C73.6436 34.8616 72.7165 34.6923 72.0342 34.3538C71.3519 34.0152 70.8857 33.6064 70.6357 33.1272C70.391 32.6428 70.2686 32.1584 70.2686 31.6741C70.2686 31.3303 70.3206 30.997 70.4248 30.6741C70.529 30.3459 70.68 30.0465 70.8779 29.7756C71.0758 29.5048 71.3206 29.273 71.6123 29.0803C71.904 28.8876 72.2243 28.7548 72.5732 28.6819V28.6194C71.9222 28.4371 71.4222 28.1168 71.0732 27.6584C70.7295 27.2001 70.5576 26.7105 70.5576 26.1897C70.5576 25.773 70.6644 25.3355 70.8779 24.8772C71.0915 24.4137 71.516 24.0048 72.1514 23.6506C72.7868 23.2965 73.6748 23.1194 74.8154 23.1194ZM74.8154 29.8381C74.1644 29.8381 73.8389 30.3069 73.8389 31.2444C73.8389 31.5569 73.8675 31.8147 73.9248 32.0178C73.9873 32.2157 74.0889 32.3668 74.2295 32.4709C74.3753 32.5699 74.5706 32.6194 74.8154 32.6194C75.2008 32.6194 75.4561 32.497 75.5811 32.2522C75.7113 32.0074 75.7764 31.6715 75.7764 31.2444C75.7764 30.3069 75.4561 29.8381 74.8154 29.8381ZM74.8154 27.5803C75.4248 27.5803 75.7295 27.1845 75.7295 26.3928C75.7295 25.8824 75.6253 25.5569 75.417 25.4163C75.2087 25.2704 75.0081 25.1975 74.8154 25.1975C74.1956 25.1975 73.8857 25.5959 73.8857 26.3928C73.8857 27.1845 74.1956 27.5803 74.8154 27.5803ZM85.7607 30.3772V30.0256C85.2816 30.3277 84.6253 30.4788 83.792 30.4788C83.2764 30.4788 82.805 30.3954 82.3779 30.2288C81.9508 30.0621 81.5837 29.8225 81.2764 29.51C80.9691 29.1975 80.7347 28.8303 80.5732 28.4084C80.417 27.9866 80.3389 27.5178 80.3389 27.0022C80.3389 26.1949 80.529 25.497 80.9092 24.9084C81.2946 24.3199 81.8076 23.8746 82.4482 23.5725C83.0889 23.2704 83.7868 23.1194 84.542 23.1194C85.1618 23.1194 85.7399 23.2027 86.2764 23.3694C86.818 23.5361 87.3076 23.8251 87.7451 24.2366C88.1878 24.648 88.5368 25.2079 88.792 25.9163C89.0524 26.6246 89.1826 27.4996 89.1826 28.5413C89.1826 29.9892 89.0003 31.1558 88.6357 32.0413C88.2712 32.9215 87.8285 33.5595 87.3076 33.9553C86.7868 34.3512 86.2946 34.6012 85.8311 34.7053C85.3727 34.8095 84.9587 34.8616 84.5889 34.8616C83.7347 34.8616 83.0055 34.7027 82.4014 34.385C81.7972 34.0673 81.3441 33.6454 81.042 33.1194C80.7451 32.5933 80.5889 32.0204 80.5732 31.4006H83.5967C83.5967 31.7131 83.6852 31.9918 83.8623 32.2366C84.0394 32.4814 84.292 32.6038 84.6201 32.6038C85.1097 32.6038 85.4222 32.4006 85.5576 31.9944C85.693 31.5829 85.7607 31.0439 85.7607 30.3772ZM84.6201 25.3538C84.2243 25.3538 83.9639 25.4996 83.8389 25.7913C83.7139 26.0829 83.6514 26.4709 83.6514 26.9553C83.6514 27.4032 83.7139 27.7522 83.8389 28.0022C83.9691 28.2522 84.2295 28.3772 84.6201 28.3772C85.0264 28.3772 85.2868 28.2522 85.4014 28.0022C85.5212 27.7522 85.5811 27.4579 85.5811 27.1194V26.9553V26.7444C85.5811 25.8173 85.2607 25.3538 84.6201 25.3538ZM94.7217 23.1194C95.2633 23.1194 95.7686 23.2053 96.2373 23.3772C96.7113 23.5491 97.1279 23.7861 97.4873 24.0881C97.8467 24.3902 98.1566 24.7444 98.417 25.1506C98.7451 25.6611 98.9951 26.2626 99.167 26.9553C99.3389 27.648 99.4248 28.3251 99.4248 28.9866C99.4248 29.9189 99.3285 30.7079 99.1357 31.3538C98.943 31.9996 98.7243 32.5126 98.4795 32.8928C98.2972 33.1897 98.0498 33.484 97.7373 33.7756C97.4248 34.0673 97.0133 34.3225 96.5029 34.5413C95.9925 34.7548 95.3988 34.8616 94.7217 34.8616C93.7477 34.8616 92.9561 34.6584 92.3467 34.2522C91.7425 33.8459 91.2816 33.3928 90.9639 32.8928C90.6722 32.4293 90.4404 31.8381 90.2686 31.1194C90.1019 30.3954 90.0186 29.6845 90.0186 28.9866C90.0186 28.5439 90.0785 27.9631 90.1982 27.2444C90.3232 26.5256 90.5993 25.8277 91.0264 25.1506C91.2868 24.7444 91.5967 24.3902 91.9561 24.0881C92.3154 23.7861 92.7295 23.5491 93.1982 23.3772C93.6722 23.2053 94.18 23.1194 94.7217 23.1194ZM94.7217 32.635C95.0498 32.635 95.2946 32.4293 95.4561 32.0178C95.6175 31.6012 95.6982 30.8538 95.6982 29.7756V28.6194C95.6982 27.6298 95.654 26.8954 95.5654 26.4163C95.4821 25.9319 95.3753 25.6324 95.2451 25.5178C95.1149 25.398 94.9404 25.3381 94.7217 25.3381C94.5029 25.3381 94.3285 25.3954 94.1982 25.51C94.068 25.6246 93.9587 25.9241 93.8701 26.4084C93.7868 26.8928 93.7451 27.6298 93.7451 28.6194V29.7756C93.7451 30.8486 93.8258 31.5933 93.9873 32.01C94.1488 32.4267 94.3936 32.635 94.7217 32.635Z" fill="black"/>
</svg>
