<svg width="71" height="70" viewBox="0 0 71 70" fill="none" xmlns="http://www.w3.org/2000/svg">
<path d="M30.3437 54.4345C27.8259 54.4345 25.5358 52.6208 25.5358 49.6621C25.5358 46.7033 27.7904 44.9252 30.1589 44.9252C31.6738 44.9252 33.0464 45.3306 34.2982 46.554L36.2968 43.1898C34.7463 41.6393 32.3423 40.9352 29.6041 40.9352C24.5401 40.9352 20.9839 44.8185 20.9839 49.6621C20.9839 54.911 24.6112 58.3889 30.0094 58.3889C32.7121 58.3889 35.2229 57.3932 36.6311 55.5013L34.6325 52.3932C33.5585 53.5739 32.1574 54.4274 30.3437 54.4274V54.4345Z" fill="#5A4499"/>
<path d="M46.6521 53.6949C46.1329 54.0647 45.5782 54.3634 44.9167 54.3634C43.921 54.3634 43.4729 53.5526 43.4729 51.6607V32.0946H39.2197V53.3961C39.2197 56.7959 40.5853 58.3535 43.1387 58.3535C45.1372 58.3535 46.581 57.7276 47.5412 56.9452L46.6521 53.6878V53.6949Z" fill="#5A4499"/>
<path d="M35.5 4.68347L0.5 65.3164H70.5L35.5 4.68347ZM35.5 12.1515L64.0348 61.5753H6.96512L35.5 12.1515Z" fill="#5A4499"/>
</svg>
