<svg width="71" height="70" viewBox="0 0 71 70" fill="none" xmlns="http://www.w3.org/2000/svg">
<path d="M17.7769 58.9933L14.0425 62.7277H57.6031L53.8687 58.9933H17.7769Z" fill="#5A4499"/>
<path d="M65.0577 62.7277H70.8335L50.049 26.7283L47.3176 29.4597L64.3676 58.9933H61.3304L37.345 35.0008L70.3782 1.96762C70.7979 1.54795 70.7979 0.872211 70.3782 0.459652C69.9586 0.0399793 69.2828 0.0399793 68.8703 0.459652L47.3318 21.9981L35.837 2.09566L24.3423 21.9981L2.80384 0.459652C2.38416 0.0399793 1.70842 0.0399793 1.29586 0.459652C0.876192 0.879325 0.876192 1.55507 1.29586 1.96762L34.329 35.0008L10.3366 58.9933H7.29928L24.3493 29.4597L21.6179 26.7283L0.833496 62.7277H6.60221L1.29586 68.0341C0.876192 68.4466 0.876192 69.1295 1.29586 69.542C1.50214 69.7483 1.77951 69.855 2.04981 69.855C2.32011 69.855 2.59756 69.7483 2.80384 69.542L35.837 36.5088L68.8703 69.542C69.0766 69.7483 69.3539 69.855 69.6242 69.855C69.8945 69.855 70.172 69.7483 70.3782 69.542C70.7979 69.1224 70.7979 68.4466 70.3782 68.0341L65.0718 62.7277H65.0577ZM27.0666 24.7367L35.8228 9.56441L44.579 24.7367L35.8228 33.4929L27.0666 24.7367Z" fill="#5A4499"/>
</svg>
