<svg width="71" height="70" viewBox="0 0 71 70" fill="none" xmlns="http://www.w3.org/2000/svg">
<path d="M25.7783 30.5647C22.9236 30.5647 19.7935 32.647 19.7935 36.5227C19.7935 39.6998 22.225 41.9366 25.0529 41.9366C26.1209 41.9366 27.0143 41.6881 27.7599 40.9963C26.9404 43.3271 25.1066 44.8652 21.8287 45.5907L23.0445 48.5462C28.0823 48.0021 32.1797 44.0525 32.1797 37.275C32.1797 33.2314 29.6473 30.5714 25.7716 30.5714L25.7783 30.5647ZM26 38.4572C24.6096 38.4572 23.7632 37.4362 23.7632 36.2473C23.7632 35.354 24.4349 34.286 25.7515 34.286C27.3165 34.286 28.2099 35.6025 28.2099 37.2414C27.7598 37.8863 27.068 38.4572 26 38.4572Z" fill="#5A4499"/>
<path d="M39.1521 36.7981H38.5543L38.9036 34.5883H44.2168V30.867H35.6257L34.4368 40.6C34.907 40.3783 36.2235 40.1499 37.4124 40.1499C39.5014 40.1499 40.6164 41.218 40.6164 42.6352C40.6164 43.9249 39.6962 44.8183 38.3595 44.8183C37.1908 44.8183 35.8742 44.1466 35.2092 43.354L33.127 46.2087C34.1681 47.6999 36.425 48.5395 38.2655 48.5395C41.8188 48.5395 44.5929 46.3565 44.5929 42.4606C44.5929 38.914 42.1613 36.7981 39.1588 36.7981H39.1521Z" fill="#5A4499"/>
<path d="M51.0477 29.6243C48.643 29.6243 46.6279 31.5387 46.6279 34.1449C46.6279 36.7511 48.6363 38.5647 51.0477 38.5647C53.4591 38.5647 55.5683 36.5025 55.5683 33.9702C55.5683 31.4379 53.533 29.6243 51.0477 29.6243ZM51.0947 35.3338C50.423 35.3338 49.8521 34.7628 49.8521 34.0911C49.8521 33.4194 50.423 32.8485 51.0947 32.8485C51.7664 32.8485 52.3374 33.4194 52.3374 34.0911C52.3374 34.7628 51.7664 35.3338 51.0947 35.3338Z" fill="#5A4499"/>
<path d="M68.5389 12.5698C67.444 12.3482 66.3827 13.0467 66.1611 14.1349C66.1409 14.2222 65.57 17.0031 64.7706 20.8922C59.3231 20.7579 56.952 15.8813 56.8513 15.6664C56.5356 14.9947 55.8773 14.5513 55.1384 14.511C54.4063 14.4775 53.6943 14.8402 53.3114 15.4783L53.13 15.7806C51.9008 17.8226 50.0469 20.8989 45.5667 20.8989C41.0864 20.8989 38.3392 17.1643 37.2241 15.5656L37.0764 15.3574C36.7136 14.8469 36.1427 14.5312 35.518 14.5043C34.8933 14.4775 34.2955 14.7394 33.8925 15.2231C33.6977 15.4581 33.4693 15.747 33.2208 16.0828C31.7699 17.9972 29.5802 20.8922 25.4693 20.8922C19.8606 20.8922 17.429 15.8679 17.3283 15.653C17.0126 14.9812 16.3543 14.5379 15.6087 14.4976C14.8699 14.4506 14.1646 14.8335 13.7817 15.4649L13.6071 15.7537C12.398 17.7688 10.571 20.7982 6.20489 20.872C5.40557 16.9762 4.82792 14.1953 4.81449 14.108C4.59282 13.0198 3.52481 12.3146 2.43665 12.543C1.3485 12.7646 0.643197 13.8326 0.871576 14.9208C0.932029 15.223 7.07139 45.0131 7.508 47.1827C9.03276 54.7057 12.7741 57.5 21.298 57.5H49.7043C58.2282 57.5 61.9629 54.7057 63.4944 47.1827C63.931 45.0131 70.0704 15.223 70.1308 14.9208C70.3525 13.8326 69.6539 12.7646 68.5658 12.543L68.5389 12.5698ZM59.5179 46.4102C58.4566 51.6427 56.811 53.5034 49.6775 53.5034H21.2712C14.1377 53.5034 12.492 51.6427 11.4307 46.4102C11.1621 45.1004 8.83125 33.7755 7.00422 24.9023C11.3031 24.5933 13.8892 22.2827 15.5013 20.1869C17.3082 22.3498 20.5054 24.9426 25.4559 24.9426C30.4063 24.9426 33.5633 22.0408 35.3904 19.8511C37.2846 22.1013 40.5491 24.9426 45.56 24.9426C50.5709 24.9426 53.3114 22.4371 55.0377 20.1869C56.905 22.3834 59.8874 24.5731 63.9444 24.8955C62.1174 33.7687 59.7866 45.1004 59.5179 46.4102Z" fill="#5A4499"/>
</svg>
