<svg width="71" height="70" viewBox="0 0 71 70" fill="none" xmlns="http://www.w3.org/2000/svg">
<path d="M26.1118 28.0647C23.2571 28.0647 20.127 30.147 20.127 34.0227C20.127 37.1998 22.5585 39.4366 25.3864 39.4366C26.4544 39.4366 27.3478 39.1881 28.0934 38.4963C27.2739 40.8271 25.4401 42.3652 22.1622 43.0907L23.378 46.0462C28.4158 45.5021 32.5131 41.5525 32.5131 34.775C32.5131 30.7314 29.9808 28.0714 26.1051 28.0714L26.1118 28.0647ZM26.3335 35.9572C24.9431 35.9572 24.0967 34.9362 24.0967 33.7473C24.0967 32.854 24.7684 31.786 26.0849 31.786C27.65 31.786 28.5434 33.1025 28.5434 34.7414C28.0933 35.3863 27.4015 35.9572 26.3335 35.9572Z" fill="#5A4499"/>
<path d="M39.4856 34.2981H38.8878L39.2371 32.0883H44.5503V28.367H35.9592L34.7703 38.1C35.2404 37.8783 36.557 37.6499 37.7459 37.6499C39.8349 37.6499 40.9499 38.718 40.9499 40.1352C40.9499 41.4249 40.0297 42.3183 38.693 42.3183C37.5243 42.3183 36.2077 41.6466 35.5427 40.854L33.4604 43.7087C34.5016 45.1999 36.7585 46.0395 38.599 46.0395C42.1523 46.0395 44.9264 43.8565 44.9264 39.9606C44.9264 36.414 42.4948 34.2981 39.4923 34.2981H39.4856Z" fill="#5A4499"/>
<path d="M51.3812 27.1243C48.9765 27.1243 46.9614 29.0387 46.9614 31.6449C46.9614 34.2511 48.9698 36.0647 51.3812 36.0647C53.7926 36.0647 55.9018 34.0025 55.9018 31.4702C55.9018 28.9379 53.8665 27.1243 51.3812 27.1243ZM51.4282 32.8338C50.7565 32.8338 50.1856 32.2628 50.1856 31.5911C50.1856 30.9194 50.7565 30.3485 51.4282 30.3485C52.0999 30.3485 52.6709 30.9194 52.6709 31.5911C52.6709 32.2628 52.0999 32.8338 51.4282 32.8338Z" fill="#5A4499"/>
<path d="M68.8724 10.0698C67.7775 9.84816 66.7162 10.5467 66.4946 11.6349C66.4744 11.7222 65.9035 14.5031 65.1041 18.3922C59.6566 18.2579 57.2855 13.3813 57.1848 13.1664C56.8691 12.4947 56.2108 12.0513 55.4719 12.011C54.7398 11.9775 54.0278 12.3402 53.6449 12.9783L53.4635 13.2806C52.2343 15.3226 50.3804 18.3989 45.9002 18.3989C41.4199 18.3989 38.6726 14.6643 37.5576 13.0656L37.4098 12.8574C37.0471 12.3469 36.4762 12.0312 35.8515 12.0043C35.2268 11.9775 34.629 12.2394 34.226 12.7231C34.0312 12.9581 33.8028 13.247 33.5543 13.5828C32.1034 15.4972 29.9136 18.3922 25.8028 18.3922C20.1941 18.3922 17.7625 13.3679 17.6618 13.153C17.3461 12.4812 16.6878 12.0379 15.9422 11.9976C15.2034 11.9506 14.4981 12.3335 14.1152 12.9649L13.9406 13.2537C12.7315 15.2688 10.9045 18.2982 6.53839 18.372C5.73906 14.4762 5.16142 11.6953 5.14798 11.608C4.92632 10.5198 3.85831 9.81459 2.77015 10.043C1.68199 10.2646 0.976693 11.3326 1.20507 12.4208C1.26553 12.723 7.40489 42.5131 7.8415 44.6827C9.36626 52.2057 13.1076 55 21.6315 55H50.0378C58.5617 55 62.2964 52.2057 63.8279 44.6827C64.2645 42.5131 70.4039 12.723 70.4643 12.4208C70.686 11.3326 69.9874 10.2646 68.8993 10.043L68.8724 10.0698ZM59.8514 43.9102C58.7901 49.1427 57.1444 51.0034 50.011 51.0034H21.6047C14.4712 51.0034 12.8255 49.1427 11.7642 43.9102C11.4956 42.6004 9.16475 31.2755 7.33772 22.4023C11.6366 22.0933 14.2227 19.7827 15.8348 17.6869C17.6416 19.8498 20.8389 22.4426 25.7894 22.4426C30.7398 22.4426 33.8968 19.5408 35.7239 17.3511C37.6181 19.6013 40.8825 22.4426 45.8934 22.4426C50.9044 22.4426 53.6449 19.9371 55.3712 17.6869C57.2385 19.8834 60.2209 22.0731 64.2779 22.3955C62.4509 31.2687 60.1201 42.6004 59.8514 43.9102Z" fill="#5A4499"/>
<line x1="64.2524" y1="62.5" x2="7.41455" y2="62.5" stroke="#5A4499" stroke-width="5"/>
</svg>
