<svg width="71" height="70" viewBox="0 0 71 70" fill="none" xmlns="http://www.w3.org/2000/svg">
<path d="M20.2407 34.5638H27.2122L21.7049 48.2113H25.775L31.6584 33.3683V30.8362H20.2407V34.5638Z" fill="#5A4499"/>
<path d="M38.6699 30.6415C34.6267 30.6415 32.6655 34.1138 32.6655 39.5271C32.6655 44.9405 34.6737 48.4129 38.7236 48.4129C42.7736 48.4129 44.681 44.9405 44.681 39.5271C44.681 34.1138 42.7198 30.6415 38.6766 30.6415H38.6699ZM38.7169 44.9405C37.4744 44.9405 36.6348 43.5502 36.6348 39.5271C36.6348 35.5041 37.2796 34.1138 38.6699 34.1138C40.0602 34.1138 40.705 35.4302 40.705 39.5271C40.705 43.6241 40.134 44.9405 38.7169 44.9405Z" fill="#5A4499"/>
<path d="M51.0145 29.5938C48.6034 29.5938 46.5952 31.5079 46.5952 34.1138C46.5952 36.7197 48.6034 38.5332 51.0145 38.5332C53.4257 38.5332 55.5346 36.4712 55.5346 33.9392C55.5346 31.4071 53.4996 29.5938 51.0145 29.5938ZM51.0616 35.3026C50.3899 35.3026 49.819 34.7317 49.819 34.0601C49.819 33.3885 50.3899 32.8176 51.0616 32.8176C51.7332 32.8176 52.3041 33.3885 52.3041 34.0601C52.3041 34.7317 51.7332 35.3026 51.0616 35.3026Z" fill="#5A4499"/>
<path d="M68.215 12.541C67.1203 12.3194 66.0591 13.0179 65.8375 14.1059C65.8173 14.1932 65.2464 16.9671 64.4472 20.8558C59.0002 20.7282 56.6227 15.8455 56.5219 15.6305C56.2063 14.9589 55.5481 14.5156 54.8093 14.482C54.0772 14.4417 53.3653 14.8111 52.9824 15.4492L52.8011 15.7514C51.572 17.7932 49.7183 20.8693 45.2385 20.8693C40.7588 20.8693 38.0118 17.135 36.8969 15.5432L36.7491 15.335C36.3864 14.8246 35.8156 14.5089 35.1909 14.482C34.5663 14.4485 33.9686 14.7171 33.5656 15.2007C33.3708 15.4358 33.1492 15.7245 32.894 16.0604C31.4432 17.9745 29.2537 20.8693 25.1433 20.8693C19.5352 20.8693 17.1039 15.8454 17.0032 15.6372C16.6875 14.9656 16.0293 14.5223 15.2838 14.4888C14.5652 14.4552 13.8398 14.8246 13.457 15.4559L13.2823 15.7447C12.0734 17.7596 10.2466 20.7887 5.87425 20.8625C5.075 16.9738 4.50411 14.2 4.48396 14.1127C4.26233 13.0246 3.19445 12.3194 2.10641 12.5477C1.01836 12.7694 0.313139 13.8373 0.541493 14.9253C0.60194 15.2275 6.74065 45.0144 7.17721 47.1838C8.70181 54.706 12.4428 57.5 20.9658 57.5H49.3691C57.8921 57.5 61.6263 54.706 63.1577 47.1838C63.5942 45.0144 69.7329 15.2275 69.7934 14.9253C70.015 13.8373 69.3165 12.7694 68.2285 12.5477L68.215 12.541ZM59.195 46.3778C58.1339 51.6098 56.4883 53.4702 49.3556 53.4702H20.9524C13.8196 53.4702 12.1741 51.6098 11.113 46.3778C10.8443 45.0681 8.51375 33.731 6.68691 24.8587C10.9854 24.5498 13.5711 22.2394 15.1831 20.1439C16.9897 22.3065 20.1867 24.899 25.1366 24.899C30.0865 24.899 33.2432 21.9976 35.07 19.8081C36.964 22.058 40.2282 24.899 45.2385 24.899C50.2489 24.899 52.9892 22.3939 54.7152 20.1439C56.5824 22.3401 59.5644 24.5296 63.6211 24.852C61.7942 33.7243 59.457 45.0681 59.195 46.3778Z" fill="#5A4499"/>
</svg>
