<svg width="71" height="70" viewBox="0 0 71 70" fill="none" xmlns="http://www.w3.org/2000/svg">
<path d="M28.5393 37.3959C27.122 37.3959 26.2286 37.6444 25.4897 38.3363C26.504 35.9518 28.6669 34.2188 31.2261 33.3456L29.7147 30.5378C25.9666 31.532 21.0767 35.6764 21.0767 42.0576C21.0767 45.6041 23.609 48.5126 27.4847 48.5126C30.3394 48.5126 33.3419 46.5512 33.3419 42.6822C33.3419 39.5051 31.0313 37.3959 28.5527 37.3959H28.5393ZM27.4981 44.7914C25.9331 44.7914 25.0397 43.7234 25.0397 42.0844C25.4897 41.4396 26.1816 40.8686 27.2496 40.8686C28.64 40.8686 29.3587 41.762 29.3587 42.9509C29.3587 43.8443 28.8147 44.7914 27.4981 44.7914Z" fill="#5A4499"/>
<path d="M40.8112 30.6386C36.7675 30.6386 34.8062 34.1113 34.8062 39.5252C34.8062 44.9391 36.8146 48.4118 40.8649 48.4118C44.9153 48.4118 46.8229 44.9391 46.8229 39.5252C46.8229 34.1113 44.8615 30.6386 40.8179 30.6386H40.8112ZM40.8582 44.9391C39.6155 44.9391 38.7759 43.5487 38.7759 39.5252C38.7759 35.5017 39.4207 34.1113 40.8112 34.1113C42.2016 34.1113 42.8464 35.4278 42.8464 39.5252C42.8464 43.6226 42.2755 44.9391 40.8582 44.9391Z" fill="#5A4499"/>
<path d="M53.1566 29.5975C50.7519 29.5975 48.7368 31.5118 48.7368 34.118C48.7368 36.7242 50.7452 38.5378 53.1566 38.5378C55.568 38.5378 57.6772 36.4757 57.6772 33.9434C57.6772 31.4111 55.6419 29.5975 53.1566 29.5975ZM53.2036 35.3069C52.5319 35.3069 51.961 34.736 51.961 34.0643C51.961 33.3926 52.5319 32.8216 53.2036 32.8216C53.8753 32.8216 54.4463 33.3926 54.4463 34.0643C54.4463 34.736 53.8753 35.3069 53.2036 35.3069Z" fill="#5A4499"/>
<path d="M68.5523 12.5497C67.4574 12.3213 66.3961 13.0266 66.1745 14.1147C66.1543 14.202 65.5834 16.9762 64.7841 20.8654C59.3366 20.7377 56.9587 15.8544 56.858 15.6395C56.5423 14.9678 55.884 14.5245 55.1451 14.4842C54.3928 14.4372 53.701 14.8133 53.3181 15.4514L53.1367 15.7537C51.9075 17.7957 50.0536 20.872 45.5734 20.872C41.0931 20.872 38.3459 17.1374 37.2308 15.5455L37.0831 15.3372C36.7203 14.8267 36.1494 14.5111 35.5247 14.4842C34.9 14.4506 34.3022 14.7193 33.8992 15.2029C33.7044 15.438 33.4827 15.7268 33.2275 16.0627C31.7766 17.977 29.5869 20.872 25.476 20.872C19.8673 20.872 17.4358 15.8477 17.335 15.6395C17.0193 14.9678 16.361 14.5245 15.6155 14.4842C14.8766 14.4573 14.1713 14.82 13.7884 15.4514L13.6138 15.7403C12.4047 17.7554 10.5777 20.7848 6.2049 20.8586C5.40557 16.9695 4.83462 14.1954 4.81447 14.108C4.5928 13.0199 3.52481 12.3146 2.43665 12.543C1.3485 12.7646 0.643197 13.8326 0.871576 14.9208C0.932029 15.223 7.07139 45.0131 7.508 47.1827C9.03276 54.7057 12.7741 57.5 21.298 57.5H49.7043C58.2283 57.5 61.9629 54.699 63.4944 47.1827C63.931 45.0131 70.0704 15.223 70.1308 14.9208C70.3525 13.8326 69.6539 12.7646 68.5657 12.543L68.5523 12.5497ZM59.5314 46.3901C58.4701 51.6226 56.8244 53.4832 49.6909 53.4832H21.2846C14.1511 53.4832 12.5055 51.6226 11.4442 46.3901C11.1755 45.0802 8.84468 33.7419 7.01765 24.8687C11.3165 24.5597 13.9026 22.2491 15.5147 20.1534C17.3216 22.3162 20.5189 24.909 25.4693 24.909C30.4198 24.909 33.5768 22.0073 35.4038 19.8175C37.298 22.0677 40.5625 24.909 45.5734 24.909C50.5843 24.909 53.3248 22.4036 55.0511 20.1534C56.9184 22.3498 59.9008 24.5395 63.9646 24.862C62.1376 33.7352 59.8 45.0802 59.5381 46.3901H59.5314Z" fill="#5A4499"/>
</svg>
