<svg width="71" height="70" viewBox="0 0 71 70" fill="none" xmlns="http://www.w3.org/2000/svg">
<path d="M28.8728 34.8959C27.4555 34.8959 26.5621 35.1444 25.8232 35.8363C26.8375 33.4518 29.0004 31.7188 31.5596 30.8456L30.0482 28.0378C26.3001 29.032 21.4102 33.1764 21.4102 39.5576C21.4102 43.1041 23.9425 46.0126 27.8182 46.0126C30.6729 46.0126 33.6754 44.0512 33.6754 40.1822C33.6754 37.0051 31.3648 34.8959 28.8862 34.8959H28.8728ZM27.8316 42.2914C26.2666 42.2914 25.3732 41.2234 25.3732 39.5844C25.8232 38.9396 26.5151 38.3686 27.5831 38.3686C28.9735 38.3686 29.6922 39.262 29.6922 40.4509C29.6922 41.3443 29.1482 42.2914 27.8316 42.2914Z" fill="#5A4499"/>
<path d="M41.1447 28.1386C37.101 28.1386 35.1396 31.6113 35.1396 37.0252C35.1396 42.4391 37.1481 45.9118 41.1984 45.9118C45.2488 45.9118 47.1564 42.4391 47.1564 37.0252C47.1564 31.6113 45.195 28.1386 41.1514 28.1386H41.1447ZM41.1917 42.4391C39.949 42.4391 39.1094 41.0487 39.1094 37.0252C39.1094 33.0017 39.7542 31.6113 41.1447 31.6113C42.5351 31.6113 43.1799 32.9278 43.1799 37.0252C43.1799 41.1226 42.609 42.4391 41.1917 42.4391Z" fill="#5A4499"/>
<path d="M53.4901 27.0975C51.0854 27.0975 49.0703 29.0118 49.0703 31.618C49.0703 34.2242 51.0787 36.0378 53.4901 36.0378C55.9015 36.0378 58.0107 33.9757 58.0107 31.4434C58.0107 28.9111 55.9754 27.0975 53.4901 27.0975ZM53.5371 32.8069C52.8654 32.8069 52.2945 32.236 52.2945 31.5643C52.2945 30.8926 52.8654 30.3216 53.5371 30.3216C54.2088 30.3216 54.7798 30.8926 54.7798 31.5643C54.7798 32.236 54.2088 32.8069 53.5371 32.8069Z" fill="#5A4499"/>
<path d="M68.8858 10.0497C67.7909 9.82131 66.7296 10.5266 66.508 11.6147C66.4878 11.702 65.9169 14.4762 65.1176 18.3654C59.67 18.2377 57.2922 13.3544 57.1915 13.1395C56.8758 12.4678 56.2175 12.0245 55.4786 11.9842C54.7263 11.9372 54.0345 12.3133 53.6516 12.9514L53.4702 13.2537C52.241 15.2957 50.3871 18.372 45.9069 18.372C41.4266 18.372 38.6794 14.6374 37.5643 13.0455L37.4166 12.8372C37.0538 12.3267 36.4829 12.0111 35.8582 11.9842C35.2335 11.9506 34.6357 12.2193 34.2327 12.7029C34.0379 12.938 33.8162 13.2268 33.561 13.5627C32.1101 15.477 29.9204 18.372 25.8095 18.372C20.2008 18.372 17.7693 13.3477 17.6685 13.1395C17.3528 12.4678 16.6945 12.0245 15.9489 11.9842C15.2101 11.9573 14.5048 12.32 14.1219 12.9514L13.9473 13.2403C12.7382 15.2554 10.9112 18.2848 6.53839 18.3586C5.73907 14.4695 5.16811 11.6954 5.14796 11.608C4.9263 10.5199 3.85831 9.81458 2.77015 10.043C1.68199 10.2646 0.976693 11.3326 1.20507 12.4208C1.26553 12.723 7.40489 42.5131 7.8415 44.6827C9.36626 52.2057 13.1076 55 21.6315 55H50.0378C58.5617 55 62.2964 52.199 63.8279 44.6827C64.2645 42.5131 70.4039 12.723 70.4643 12.4208C70.686 11.3326 69.9874 10.2646 68.8992 10.043L68.8858 10.0497ZM59.8649 43.8901C58.8036 49.1226 57.1579 50.9832 50.0244 50.9832H21.6181C14.4846 50.9832 12.839 49.1226 11.7777 43.8901C11.509 42.5802 9.17818 31.2419 7.35115 22.3687C11.65 22.0597 14.2361 19.7491 15.8482 17.6534C17.6551 19.8162 20.8524 22.409 25.8028 22.409C30.7533 22.409 33.9103 19.5073 35.7373 17.3175C37.6315 19.5677 40.896 22.409 45.9069 22.409C50.9178 22.409 53.6583 19.9036 55.3846 17.6534C57.2519 19.8498 60.2343 22.0395 64.2981 22.362C62.471 31.2352 60.1335 42.5802 59.8716 43.8901H59.8649Z" fill="#5A4499"/>
<line x1="64.2524" y1="62.5" x2="7.41455" y2="62.5" stroke="#5A4499" stroke-width="5"/>
</svg>
