<svg width="71" height="70" viewBox="0 0 71 70" fill="none" xmlns="http://www.w3.org/2000/svg">
<path d="M26.0232 34.2645H25.4254L25.7747 32.0546H31.0879V28.3334H22.4968L21.3079 38.0663C21.7781 37.8447 23.0946 37.623 24.2835 37.623C26.3658 37.623 27.4875 38.691 27.4875 40.1083C27.4875 41.398 26.5673 42.2913 25.2306 42.2913C24.0619 42.2913 22.7453 41.6196 22.0803 40.827L19.998 43.6818C21.0392 45.173 23.2961 46.0126 25.1366 46.0126C28.6832 46.0126 31.464 43.8295 31.464 39.9337C31.464 36.3871 29.0324 34.2712 26.0299 34.2712L26.0232 34.2645Z" fill="#5A4499"/>
<path d="M39.3898 28.132C35.3461 28.132 33.3848 31.6046 33.3848 37.0186C33.3848 42.4325 35.3932 45.9052 39.4435 45.9052C43.4939 45.9052 45.4015 42.4325 45.4015 37.0186C45.4015 31.6046 43.4402 28.132 39.3965 28.132H39.3898ZM39.4368 42.4325C38.1942 42.4325 37.3545 41.0421 37.3545 37.0186C37.3545 32.9951 37.9994 31.6046 39.3898 31.6046C40.7802 31.6046 41.425 32.9212 41.425 37.0186C41.425 41.1159 40.8541 42.4325 39.4368 42.4325Z" fill="#5A4499"/>
<path d="M51.7357 27.0908C49.331 27.0908 47.3159 29.0051 47.3159 31.6113C47.3159 34.2175 49.3243 36.0311 51.7357 36.0311C54.1471 36.0311 56.2563 33.969 56.2563 31.4367C56.2563 28.9044 54.221 27.0908 51.7357 27.0908ZM51.7827 32.8002C51.111 32.8002 50.5401 32.2293 50.5401 31.5576C50.5401 30.8859 51.111 30.3149 51.7827 30.3149C52.4544 30.3149 53.0254 30.8859 53.0254 31.5576C53.0254 32.2293 52.4544 32.8002 51.7827 32.8002Z" fill="#5A4499"/>
<path d="M68.2193 10.0497C67.1244 9.82802 66.0631 10.5266 65.8414 11.6148C65.8213 11.7021 65.2503 14.4762 64.451 18.3654C59.0035 18.2377 56.6257 13.3545 56.5249 13.1395C56.2092 12.4678 55.551 12.0245 54.8121 11.9842C54.0598 11.9372 53.368 12.3133 52.9851 12.9514L52.8037 13.2537C51.5745 15.2957 49.7206 18.3721 45.2404 18.3721C40.7601 18.3721 38.0128 14.6374 36.8978 13.0455L36.75 12.8372C36.3873 12.3268 35.8164 12.0111 35.1917 11.9842C34.567 11.9506 33.9692 12.2193 33.5662 12.7029C33.3714 12.938 33.1497 13.2268 32.8945 13.5627C31.4436 15.477 29.2538 18.3721 25.143 18.3721C19.5343 18.3721 17.1027 13.3477 17.002 13.1395C16.6863 12.4678 16.028 12.0245 15.2824 11.9842C14.5436 11.9506 13.8383 12.32 13.4554 12.9514L13.2808 13.2403C12.0717 15.2554 10.2447 18.2848 5.87188 18.3586C5.07256 14.4695 4.50161 11.6954 4.48146 11.608C4.25979 10.5199 3.1918 9.81458 2.10365 10.043C1.01549 10.2646 0.310189 11.3326 0.538568 12.4208C0.599021 12.7231 6.73838 42.5131 7.17499 44.6826C8.69975 52.2057 12.4411 55 20.965 55H49.3713C57.8952 55 61.6299 52.2057 63.1614 44.6826C63.598 42.5131 69.7373 12.7231 69.7978 12.4208C70.0194 11.3326 69.3209 10.2646 68.2327 10.043L68.2193 10.0497ZM59.1983 43.89C58.137 49.1226 56.4913 50.9832 49.3579 50.9832H20.9516C13.8181 50.9832 12.1724 49.1226 11.1112 43.89C10.8425 42.5802 8.51167 31.2419 6.68464 22.3687C10.9835 22.0597 13.5696 19.7491 15.1817 17.6534C16.9886 19.8162 20.1859 22.409 25.1363 22.409C30.0867 22.409 33.2437 19.5073 35.0708 17.3175C36.965 19.5677 40.2295 22.409 45.2404 22.409C50.2513 22.409 52.9918 19.9036 54.7181 17.6534C56.5854 19.8498 59.5677 22.0396 63.6315 22.362C61.8045 31.2352 59.467 42.5802 59.205 43.89H59.1983Z" fill="#5A4499"/>
<line x1="63.5859" y1="62.5" x2="6.74805" y2="62.5" stroke="#5A4499" stroke-width="5"/>
</svg>
