<svg width="71" height="70" viewBox="0 0 71 70" fill="none" xmlns="http://www.w3.org/2000/svg">
<path d="M31.9447 37.0332H28.2167V40.7544H25.1135L30.8028 30.8267H26.5308L20.3242 41.7015V44.4824H28.2167V48.2036H31.9447V44.4824H33.9799V40.7544H31.9447V37.0332Z" fill="#5A4499"/>
<path d="M41.402 30.6252C37.3583 30.6252 35.397 34.0979 35.397 39.5118C35.397 44.9257 37.4054 48.3984 41.4557 48.3984C45.5061 48.3984 47.4137 44.9257 47.4137 39.5118C47.4137 34.0979 45.4524 30.6252 41.4087 30.6252H41.402ZM41.449 44.9257C40.2064 44.9257 39.3667 43.5353 39.3667 39.5118C39.3667 35.4883 40.0116 34.0979 41.402 34.0979C42.7924 34.0979 43.4373 35.4144 43.4373 39.5118C43.4373 43.6092 42.8663 44.9257 41.449 44.9257Z" fill="#5A4499"/>
<path d="M53.7479 29.584C51.3432 29.584 49.3281 31.4984 49.3281 34.1046C49.3281 36.7108 51.3365 38.5244 53.7479 38.5244C56.1593 38.5244 58.2685 36.4623 58.2685 33.93C58.2685 31.3976 56.2332 29.584 53.7479 29.584ZM53.7949 35.2935C53.1232 35.2935 52.5523 34.7226 52.5523 34.0509C52.5523 33.3792 53.1232 32.8082 53.7949 32.8082C54.4666 32.8082 55.0376 33.3792 55.0376 34.0509C55.0376 34.7226 54.4666 35.2935 53.7949 35.2935Z" fill="#5A4499"/>
<path d="M68.5523 12.5564C67.4574 12.3347 66.3961 13.0333 66.1745 14.1215C66.1543 14.2088 65.5834 16.9829 64.784 20.8721C59.3365 20.7444 56.9587 15.8612 56.858 15.6462C56.5423 14.9745 55.884 14.5312 55.1451 14.4909C54.3928 14.4439 53.701 14.82 53.3181 15.4581L53.1367 15.7604C51.9075 17.8024 50.0536 20.8788 45.5734 20.8788C41.0931 20.8788 38.3459 17.1441 37.2308 15.5522L37.0831 15.344C36.7203 14.8335 36.1494 14.5178 35.5247 14.4909C34.9 14.4573 34.3022 14.726 33.8992 15.2029C33.7044 15.438 33.4827 15.7268 33.2275 16.0627C31.7766 17.977 29.5869 20.8721 25.476 20.8721C19.8673 20.8721 17.4358 15.8477 17.335 15.6395C17.0193 14.9678 16.361 14.5245 15.6155 14.4842C14.8766 14.4506 14.1713 14.82 13.7884 15.4514L13.6138 15.7403C12.4047 17.7554 10.5777 20.7847 6.20489 20.8586C5.40557 16.9695 4.83462 14.1954 4.81447 14.108C4.5928 13.0199 3.52481 12.3146 2.43665 12.543C1.3485 12.7646 0.643197 13.8326 0.871576 14.9208C0.932029 15.2231 7.07139 45.0131 7.508 47.1826C9.03276 54.7057 12.7741 57.5 21.298 57.5H49.7043C58.2282 57.5 61.9629 54.7057 63.4944 47.1826C63.931 45.0131 70.0704 15.2231 70.1308 14.9208C70.3525 13.8326 69.6539 12.7646 68.5657 12.543L68.5523 12.5564ZM59.5314 46.3968C58.4701 51.6293 56.8244 53.4899 49.6909 53.4899H21.2846C14.1511 53.4899 12.5055 51.6293 11.4442 46.3968C11.1755 45.0869 8.84468 33.7486 7.01765 24.8754C11.3165 24.5664 13.9026 22.2558 15.5147 20.1601C17.3216 22.3229 20.5189 24.9157 25.4693 24.9157C30.4198 24.9157 33.5768 22.014 35.4038 19.8242C37.298 22.0744 40.5625 24.9157 45.5734 24.9157C50.5843 24.9157 53.3248 22.4103 55.0511 20.1601C56.9184 22.3565 59.9008 24.5463 63.9646 24.8687C62.1375 33.7419 59.8 45.0869 59.5381 46.3968H59.5314Z" fill="#5A4499"/>
</svg>
