<svg width="71" height="70" viewBox="0 0 71 70" fill="none" xmlns="http://www.w3.org/2000/svg">
<path d="M32.2782 34.0332H28.5502V37.7544H25.447L31.1363 27.8267H26.8643L20.6577 38.7015V41.4824H28.5502V45.2036H32.2782V41.4824H34.3134V37.7544H32.2782V34.0332Z" fill="#5A4499"/>
<path d="M41.7355 27.6252C37.6918 27.6252 35.7305 31.0979 35.7305 36.5118C35.7305 41.9257 37.7389 45.3984 41.7892 45.3984C45.8396 45.3984 47.7472 41.9257 47.7472 36.5118C47.7472 31.0979 45.7859 27.6252 41.7422 27.6252H41.7355ZM41.7825 41.9257C40.5399 41.9257 39.7002 40.5353 39.7002 36.5118C39.7002 32.4883 40.3451 31.0979 41.7355 31.0979C43.1259 31.0979 43.7707 32.4144 43.7707 36.5118C43.7707 40.6092 43.1998 41.9257 41.7825 41.9257Z" fill="#5A4499"/>
<path d="M54.0814 26.584C51.6767 26.584 49.6616 28.4984 49.6616 31.1046C49.6616 33.7108 51.67 35.5244 54.0814 35.5244C56.4928 35.5244 58.602 33.4623 58.602 30.93C58.602 28.3976 56.5667 26.584 54.0814 26.584ZM54.1284 32.2935C53.4567 32.2935 52.8858 31.7226 52.8858 31.0509C52.8858 30.3792 53.4567 29.8082 54.1284 29.8082C54.8001 29.8082 55.3711 30.3792 55.3711 31.0509C55.3711 31.7226 54.8001 32.2935 54.1284 32.2935Z" fill="#5A4499"/>
<path d="M68.8858 9.55639C67.7909 9.33473 66.7296 10.0333 66.508 11.1215C66.4878 11.2088 65.9169 13.9829 65.1175 17.8721C59.67 17.7444 57.2922 12.8612 57.1915 12.6462C56.8758 11.9745 56.2175 11.5312 55.4786 11.4909C54.7263 11.4439 54.0345 11.82 53.6516 12.4581L53.4702 12.7604C52.241 14.8024 50.3871 17.8788 45.9069 17.8788C41.4266 17.8788 38.6794 14.1441 37.5643 12.5522L37.4165 12.344C37.0538 11.8335 36.4829 11.5178 35.8582 11.4909C35.2335 11.4573 34.6357 11.726 34.2327 12.2029C34.0379 12.438 33.8162 12.7268 33.561 13.0627C32.1101 14.977 29.9204 17.8721 25.8095 17.8721C20.2008 17.8721 17.7693 12.8477 17.6685 12.6395C17.3528 11.9678 16.6945 11.5245 15.9489 11.4842C15.2101 11.4506 14.5048 11.82 14.1219 12.4514L13.9473 12.7403C12.7382 14.7554 10.9112 17.7847 6.53839 17.8586C5.73906 13.9695 5.16811 11.1954 5.14796 11.108C4.9263 10.0199 3.85831 9.31458 2.77015 9.54296C1.68199 9.76463 0.976693 10.8326 1.20507 11.9208C1.26553 12.2231 7.40489 42.0131 7.8415 44.1826C9.36626 51.7057 13.1076 54.5 21.6315 54.5H50.0378C58.5617 54.5 62.2964 51.7057 63.8279 44.1826C64.2645 42.0131 70.4039 12.2231 70.4643 11.9208C70.686 10.8326 69.9874 9.76463 68.8992 9.54296L68.8858 9.55639ZM59.8648 43.3968C58.8036 48.6293 57.1579 50.4899 50.0244 50.4899H21.6181C14.4846 50.4899 12.839 48.6293 11.7777 43.3968C11.509 42.0869 9.17817 30.7486 7.35114 21.8754C11.65 21.5664 14.2361 19.2558 15.8482 17.1601C17.6551 19.3229 20.8524 21.9157 25.8028 21.9157C30.7533 21.9157 33.9103 19.014 35.7373 16.8242C37.6315 19.0744 40.896 21.9157 45.9069 21.9157C50.9178 21.9157 53.6583 19.4103 55.3846 17.1601C57.2519 19.3565 60.2343 21.5463 64.2981 21.8687C62.471 30.7419 60.1335 42.0869 59.8716 43.3968H59.8648Z" fill="#5A4499"/>
<line x1="64.2524" y1="63" x2="7.41455" y2="63" stroke="#5A4499" stroke-width="5"/>
</svg>
