<svg width="71" height="70" viewBox="0 0 71 70" fill="none" xmlns="http://www.w3.org/2000/svg">
<path d="M31.6112 35.5332H27.8832V39.2544H24.78L30.4693 29.3267H26.1973L19.9907 40.2015V42.9824H27.8832V46.7036H31.6112V42.9824H33.6464V39.2544H31.6112V35.5332Z" fill="#5A4499"/>
<path d="M41.0685 29.1252C37.0248 29.1252 35.0635 32.5979 35.0635 38.0118C35.0635 43.4257 37.0719 46.8984 41.1222 46.8984C45.1726 46.8984 47.0802 43.4257 47.0802 38.0118C47.0802 32.5979 45.1189 29.1252 41.0752 29.1252H41.0685ZM41.1155 43.4257C39.8729 43.4257 39.0332 42.0353 39.0332 38.0118C39.0332 33.9883 39.6781 32.5979 41.0685 32.5979C42.4589 32.5979 43.1038 33.9144 43.1038 38.0118C43.1038 42.1092 42.5328 43.4257 41.1155 43.4257Z" fill="#5A4499"/>
<path d="M53.4144 28.084C51.0097 28.084 48.9946 29.9984 48.9946 32.6046C48.9946 35.2108 51.003 37.0244 53.4144 37.0244C55.8258 37.0244 57.935 34.9623 57.935 32.43C57.935 29.8976 55.8997 28.084 53.4144 28.084ZM53.4614 33.7935C52.7897 33.7935 52.2188 33.2226 52.2188 32.5509C52.2188 31.8792 52.7897 31.3082 53.4614 31.3082C54.1331 31.3082 54.7041 31.8792 54.7041 32.5509C54.7041 33.2226 54.1331 33.7935 53.4614 33.7935Z" fill="#5A4499"/>
<path d="M68.2188 11.0564C67.1239 10.8347 66.0626 11.5333 65.841 12.6215C65.8208 12.7088 65.2499 15.4829 64.4506 19.3721C59.003 19.2444 56.6252 14.3612 56.5245 14.1462C56.2088 13.4745 55.5505 13.0312 54.8116 12.9909C54.0593 12.9439 53.3675 13.32 52.9846 13.9581L52.8032 14.2604C51.574 16.3024 49.7201 19.3788 45.2399 19.3788C40.7596 19.3788 38.0124 15.6441 36.8973 14.0522L36.7496 13.844C36.3868 13.3335 35.8159 13.0178 35.1912 12.9909C34.5665 12.9573 33.9687 13.226 33.5657 13.7029C33.3709 13.938 33.1492 14.2268 32.894 14.5627C31.4431 16.477 29.2534 19.3721 25.1425 19.3721C19.5338 19.3721 17.1023 14.3477 17.0015 14.1395C16.6858 13.4678 16.0275 13.0245 15.282 12.9842C14.5431 12.9506 13.8378 13.32 13.4549 13.9514L13.2803 14.2403C12.0712 16.2554 10.2442 19.2847 5.8714 19.3586C5.07207 15.4695 4.50112 12.6954 4.48097 12.608C4.25931 11.5199 3.19132 10.8146 2.10316 11.043C1.015 11.2646 0.309701 12.3326 0.53808 13.4208C0.598533 13.7231 6.7379 43.5131 7.1745 45.6826C8.69927 53.2057 12.4406 56 20.9646 56H49.3708C57.8948 56 61.6294 53.2057 63.1609 45.6826C63.5975 43.5131 69.7369 13.7231 69.7973 13.4208C70.019 12.3326 69.3204 11.2646 68.2322 11.043L68.2188 11.0564ZM59.1979 44.8968C58.1366 50.1293 56.4909 51.9899 49.3574 51.9899H20.9511C13.8176 51.9899 12.172 50.1293 11.1107 44.8968C10.842 43.5869 8.51118 32.2486 6.68415 23.3754C10.983 23.0664 13.5691 20.7558 15.1812 18.6601C16.9881 20.8229 20.1854 23.4157 25.1358 23.4157C30.0863 23.4157 33.2433 20.514 35.0703 18.3242C36.9645 20.5744 40.229 23.4157 45.2399 23.4157C50.2508 23.4157 52.9913 20.9103 54.7176 18.6601C56.5849 20.8565 59.5673 23.0463 63.6311 23.3687C61.804 32.2419 59.4665 43.5869 59.2046 44.8968H59.1979Z" fill="#5A4499"/>
<line x1="30.1665" y1="61" x2="12.9141" y2="61" stroke="#5A4499" stroke-width="5"/>
<line x1="57.4189" y1="61" x2="40.1665" y2="61" stroke="#5A4499" stroke-width="5"/>
</svg>
