<svg width="71" height="70" viewBox="0 0 71 70" fill="none" xmlns="http://www.w3.org/2000/svg">
<path d="M28.7138 39.1088V39.0349C30.4535 38.2423 31.2931 37.0265 31.2931 34.9644C31.2931 32.2305 29.1302 30.5177 26.0807 30.5177C23.6223 30.5177 21.7617 31.4111 20.6937 33.1239L22.7289 35.804C23.6962 34.6151 24.6634 34.2389 25.7314 34.2389C26.9002 34.2389 27.3234 34.9577 27.3234 35.7032C27.3234 36.8922 26.2554 37.443 24.9388 37.443H23.9447V41.1642H25.0396C26.9741 41.1642 27.9951 41.762 27.9951 43.0785C27.9951 43.9719 27.3234 44.7645 25.812 44.7645C24.3007 44.7645 23.2528 43.8443 22.3863 42.8502L20.3242 45.6041C21.2445 47.1692 23.1521 48.4857 26.0606 48.4857C29.3855 48.4857 31.9648 46.4975 31.9648 43.2263C31.9648 41.144 30.8498 39.5252 28.7138 39.1088Z" fill="#5A4499"/>
<path d="M39.9381 30.6252C35.8945 30.6252 33.9331 34.0979 33.9331 39.5119C33.9331 44.9258 35.9415 48.3985 39.9919 48.3985C44.0422 48.3985 45.9499 44.9258 45.9499 39.5119C45.9499 34.0979 43.9885 30.6252 39.9448 30.6252H39.9381ZM39.9852 44.9258C38.7425 44.9258 37.9029 43.5354 37.9029 39.5119C37.9029 35.4884 38.5477 34.0979 39.9381 34.0979C41.3286 34.0979 41.9734 35.4145 41.9734 39.5119C41.9734 43.6093 41.4024 44.9258 39.9852 44.9258Z" fill="#5A4499"/>
<path d="M52.2836 29.5773C49.8722 29.5773 47.8638 31.4917 47.8638 34.0979C47.8638 36.7041 49.8722 38.5177 52.2836 38.5177C54.695 38.5177 56.8041 36.4556 56.8041 33.9232C56.8041 31.3909 54.7689 29.5773 52.2836 29.5773ZM52.3306 35.2868C51.6589 35.2868 51.088 34.7159 51.088 34.0442C51.088 33.3724 51.6589 32.8015 52.3306 32.8015C53.0023 32.8015 53.5732 33.3724 53.5732 34.0442C53.5732 34.7159 53.0023 35.2868 52.3306 35.2868Z" fill="#5A4499"/>
<path d="M68.5523 12.5564C67.4574 12.3347 66.3961 13.0333 66.1745 14.1215C66.1543 14.2088 65.5834 16.9829 64.784 20.8721C59.3365 20.7445 56.9587 15.8612 56.858 15.6462C56.5423 14.9745 55.884 14.5312 55.1451 14.4909C54.3928 14.4439 53.701 14.82 53.3181 15.4582L53.1367 15.7604C51.9075 17.8024 50.0536 20.8788 45.5734 20.8788C41.0931 20.8788 38.3459 17.1441 37.2308 15.5522L37.0831 15.344C36.7203 14.8335 36.1494 14.5178 35.5247 14.4909C34.9 14.4573 34.3022 14.726 33.8992 15.2029C33.7044 15.438 33.4827 15.7268 33.2275 16.0627C31.7766 17.977 29.5869 20.8721 25.476 20.8721C19.8673 20.8721 17.4358 15.8477 17.335 15.6395C17.0193 14.9678 16.361 14.5245 15.6155 14.4842C14.8766 14.4506 14.1713 14.82 13.7884 15.4514L13.6138 15.7403C12.4047 17.7554 10.5777 20.7848 6.20489 20.8586C5.40557 16.9695 4.83462 14.1954 4.81447 14.108C4.5928 13.0199 3.52481 12.3146 2.43665 12.543C1.3485 12.7646 0.643197 13.8326 0.871576 14.9208C0.932029 15.2231 7.07139 45.0131 7.508 47.1827C9.03276 54.7057 12.7741 57.5 21.298 57.5H49.7043C58.2282 57.5 61.9629 54.7057 63.4944 47.1827C63.931 45.0131 70.0704 15.2231 70.1308 14.9208C70.3525 13.8326 69.6539 12.7646 68.5657 12.543L68.5523 12.5564ZM59.5314 46.3968C58.4701 51.6293 56.8244 53.4899 49.6909 53.4899H21.2846C14.1511 53.4899 12.5055 51.6293 11.4442 46.3968C11.1755 45.0869 8.84468 33.7486 7.01765 24.8754C11.3165 24.5664 13.9026 22.2558 15.5147 20.1601C17.3216 22.323 20.5189 24.9157 25.4693 24.9157C30.4198 24.9157 33.5768 22.014 35.4038 19.8242C37.298 22.0744 40.5625 24.9157 45.5734 24.9157C50.5843 24.9157 53.3248 22.4103 55.0511 20.1601C56.9184 22.3565 59.9008 24.5463 63.9646 24.8687C62.1375 33.7419 59.8 45.0869 59.5381 46.3968H59.5314Z" fill="#5A4499"/>
</svg>
