<svg width="71" height="70" viewBox="0 0 71 70" fill="none" xmlns="http://www.w3.org/2000/svg">
<path d="M69.1851 20.1864C68.0798 19.9626 67.0085 20.6678 66.7847 21.7663C66.7576 21.8951 65.5778 27.6179 64.2149 34.2426C61.1975 33.7748 59.2718 31.8423 58.2547 30.4794C57.9156 32.0321 57.5766 33.6527 57.2308 35.2936C58.8242 36.6498 60.8788 37.8025 63.3944 38.2364C61.8416 45.7765 60.2956 53.2895 60.0854 54.3472C59.0141 59.6294 57.3528 61.5076 50.1518 61.5076H21.4765C14.2754 61.5076 12.6142 59.6294 11.5428 54.3472C11.3258 53.2895 9.78663 45.7901 8.23386 38.25C11.8818 37.6397 14.1737 35.5513 15.6519 33.6324C17.4759 35.8158 20.7035 38.4331 25.7008 38.4331C27.0705 38.4331 28.291 38.2161 29.3895 37.8567L24.1752 48.3735C22.7105 50.9027 26.5687 53.4047 28.1622 50.6721L35.6683 36.6837L36.7261 36.9617L30.8812 53.52C29.8302 56.1577 33.7698 57.4731 34.7394 55.1202L41.3031 38.1754L42.3473 38.4534L38.0416 55.4321C37.4177 57.7647 41.2759 59.0394 42.0557 56.5848L46.9039 39.6604L47.9074 39.9248L46.1444 51.5468C45.7308 54.2116 49.7111 54.9304 50.2535 52.2995C50.2535 52.2995 55.6441 25.0481 57.5766 18.0301C56.451 13.7515 48.7618 10.0968 43.3373 10.2527C41.9676 12.5175 40.6589 13.9617 38.1026 16.7011C34.6784 20.3626 28.2775 24.3904 21.0018 26.6348C21.8291 29.8352 23.0564 30.9608 27.1044 30.6828C29.3285 30.5336 32.0543 29.4758 33.9189 28.7367L33.5528 29.4758C33.5528 29.4758 33.5325 29.503 33.5257 29.5097C32.0611 31.4422 29.8506 34.3647 25.7076 34.3647C20.0458 34.3647 17.5912 29.2928 17.4894 29.0826C17.1708 28.4045 16.5063 27.957 15.7536 27.9163C15.0009 27.8756 14.2958 28.2553 13.9093 28.8927L13.733 29.1843C12.6277 31.0286 11.0071 33.7137 7.42696 34.2562C6.06405 27.6315 4.88422 21.9019 4.8571 21.773C4.63334 20.6746 3.55522 19.9626 2.45676 20.1931C1.35829 20.4169 0.646324 21.495 0.876866 22.5935C0.937892 22.8986 7.13539 52.9708 7.57614 55.1609C9.11534 62.7552 12.8922 65.576 21.4968 65.576H50.1721C58.7768 65.576 62.5468 62.7552 64.0928 55.1609C64.5335 52.9708 70.7311 22.8986 70.7921 22.5935C71.0158 21.495 70.3106 20.4169 69.2122 20.1931L69.1851 20.1864Z" fill="#5A4499"/>
<path d="M58.9732 16.1926C61.1701 14.294 61.7329 13.0464 59.936 10.5918C57.2373 6.90312 51.9823 4.59768 47.2359 4.42816C44.5101 4.32645 43.6286 6.10977 43.4658 8.04226C48.5445 7.79815 56.8305 10.7613 58.9732 16.1926Z" fill="#5A4499"/>
</svg>
