<svg width="71" height="70" viewBox="0 0 71 70" fill="none" xmlns="http://www.w3.org/2000/svg">
<path d="M63.425 51.2673C63.8658 49.0768 70.0645 18.9988 70.1256 18.6936C70.3494 17.595 69.644 16.5166 68.5454 16.2928C67.4399 16.069 66.3684 16.7743 66.1378 17.873C66.131 17.9205 65.3714 21.6167 64.3609 26.4997C59.1252 26.1674 56.8194 21.4539 56.7244 21.2437C56.4735 20.7079 56.0055 20.3281 55.4562 20.1653L45.0391 30.5824C45.1408 30.5824 45.2358 30.596 45.3307 30.596C50.268 30.596 53.1571 28.0663 54.9001 25.7943C56.7312 27.951 59.6203 30.0941 63.5335 30.5146C61.7024 39.4125 59.5525 49.8499 59.4304 50.4535C58.9421 52.8679 58.3182 54.5702 57.1042 55.7028L36.3989 34.9974L67.8943 3.50203C68.2944 3.1019 68.2944 2.45762 67.8943 2.06426C67.4942 1.66413 66.8499 1.66413 66.4565 2.06426L42.5027 26.0181C39.5728 24.9398 37.7824 22.4034 36.9075 21.1487L36.7583 20.9385C36.3921 20.423 35.8156 20.1043 35.1849 20.0771C34.5542 20.0568 33.9506 20.3145 33.5437 20.8028C33.347 21.0402 33.1164 21.3318 32.8655 21.6777C31.7261 23.1765 30.1391 25.2721 27.5417 26.1334L3.47249 2.06426C3.07235 1.66413 2.42807 1.66413 2.03472 2.06426C1.64137 2.4644 1.63458 3.10868 2.03472 3.50203L33.5301 34.9974L13.0215 55.5129C11.9364 54.3803 11.3531 52.7391 10.892 50.4535C10.7699 49.8499 8.62 39.4261 6.78887 30.5214C10.9055 30.1009 13.4148 27.856 14.995 25.8011C16.799 27.9578 19.9865 30.5485 24.9035 30.596L14.4593 20.1518C13.9574 20.2874 13.5166 20.6061 13.2453 21.0605L13.069 21.3521C11.8821 23.3257 10.112 26.2691 5.96825 26.5065C4.96452 21.6167 4.19816 17.9137 4.19138 17.873C3.96757 16.7743 2.88924 16.0622 1.79057 16.2928C0.691891 16.5166 -0.0202158 17.595 0.210371 18.6936C0.271408 18.9988 6.47011 49.0768 6.91094 51.2673C7.54844 54.4142 8.58609 56.7268 10.1731 58.3681L2.0415 66.4996C1.64136 66.8998 1.64136 67.5441 2.0415 67.9374C2.23817 68.1341 2.50267 68.2359 2.76038 68.2359C3.0181 68.2359 3.28259 68.1341 3.47927 67.9374L34.9747 36.442L66.4701 67.9374C66.6668 68.1341 66.9313 68.2359 67.189 68.2359C67.4467 68.2359 67.7112 68.1341 67.9079 67.9374C68.308 67.5373 68.308 66.893 67.9079 66.4996L59.973 58.5647C61.6753 56.9099 62.7739 54.543 63.4385 51.2741L63.425 51.2673ZM30.6139 29.2125C32.5739 28.1613 34.032 26.7031 35.0628 25.462C36.0937 26.6828 37.5315 28.0731 39.4236 29.1039L34.9611 33.5665L30.6139 29.2125Z" fill="#5A4499"/>
<path d="M49.5084 57.6221H20.8275C19.8238 57.6221 18.9421 57.5814 18.1418 57.5068L14.6763 60.9723C16.3853 61.4606 18.4131 61.6913 20.8275 61.6913H49.5084C51.7803 61.6913 53.7064 61.4878 55.3544 61.0605L51.8346 57.5407C51.1293 57.5949 50.3629 57.6221 49.5084 57.6221Z" fill="#5A4499"/>
</svg>
