<svg width="43" height="43" viewBox="0 0 43 43" fill="none" xmlns="http://www.w3.org/2000/svg">
<path d="M21.4951 42.1935C33.0931 42.1935 42.4951 32.7915 42.4951 21.1935C42.4951 9.5955 33.0931 0.193481 21.4951 0.193481C9.89714 0.193481 0.495117 9.5955 0.495117 21.1935C0.495117 32.7915 9.89714 42.1935 21.4951 42.1935Z" fill="#5A4499"/>
<path d="M21.4951 2.81848C11.3451 2.81848 3.12012 11.0435 3.12012 21.1935C3.12012 31.3435 11.3451 39.5685 21.4951 39.5685C31.6451 39.5685 39.8701 31.3435 39.8701 21.1935C39.8701 11.0435 31.6451 2.81848 21.4951 2.81848ZM33.0701 25.3985C32.5251 25.3985 28.8151 26.5785 21.4951 26.5785C14.1751 26.5785 10.4651 25.3985 9.92011 25.3985C7.55011 25.3985 6.38011 24.9585 8.92011 22.8435C9.62011 19.6335 11.1651 17.0585 13.3801 15.2935C13.1451 14.8535 13.2951 14.3035 13.7301 14.0535L15.3401 13.1285C15.7851 12.8735 16.3501 13.0235 16.6051 13.4685L16.6201 13.4885C17.5601 13.1435 18.5701 12.9035 19.6401 12.7735V12.6535C19.6401 12.1385 20.0551 11.7235 20.5701 11.7235H22.4301C22.9401 11.7235 23.3551 12.1385 23.3551 12.6535V12.7735C24.4251 12.9035 25.4351 13.1435 26.3751 13.4885L26.3901 13.4685C26.6451 13.0235 27.2151 12.8735 27.6551 13.1285L29.2651 14.0535C29.7001 14.3085 29.8501 14.8535 29.6151 15.2935C31.8251 17.0585 33.3751 19.6335 34.0751 22.8435C36.6201 24.9585 35.4501 25.3985 33.0751 25.3985H33.0701Z" fill="#F5F5F5"/>
</svg>
