<svg width="43" height="43" viewBox="0 0 43 43" fill="none" xmlns="http://www.w3.org/2000/svg">
<path d="M21.4951 42.1935C33.0931 42.1935 42.4951 32.7915 42.4951 21.1935C42.4951 9.5955 33.0931 0.193481 21.4951 0.193481C9.89714 0.193481 0.495117 9.5955 0.495117 21.1935C0.495117 32.7915 9.89714 42.1935 21.4951 42.1935Z" fill="#5A4499"/>
<path d="M21.4951 2.81848C11.3451 2.81848 3.12012 11.0435 3.12012 21.1935C3.12012 31.3435 11.3451 39.5685 21.4951 39.5685C31.6451 39.5685 39.8701 31.3435 39.8701 21.1935C39.8701 11.0435 31.6451 2.81848 21.4951 2.81848Z" fill="#F5F5F5"/>
<path d="M20.7897 14.7635H14.5257V30.6935H11.0427V14.7635H4.80574V11.7935H20.7897V14.7635ZM31.0881 16.1135C32.4921 16.1135 33.7431 16.4195 34.8411 17.0315C35.9571 17.6435 36.8301 18.5075 37.4601 19.6235C38.0901 20.7395 38.4051 22.0265 38.4051 23.4845C38.4051 24.9425 38.0901 26.2385 37.4601 27.3725C36.8301 28.4885 35.9571 29.3525 34.8411 29.9645C33.7431 30.5765 32.4921 30.8825 31.0881 30.8825C29.1441 30.8825 27.6051 30.2345 26.4711 28.9385V35.9315H23.0961V16.2755H26.3091V18.1655C26.8671 17.4815 27.5511 16.9685 28.3611 16.6265C29.1891 16.2845 30.0981 16.1135 31.0881 16.1135ZM30.7101 27.9935C31.9521 27.9935 32.9691 27.5795 33.7611 26.7515C34.5711 25.9235 34.9761 24.8345 34.9761 23.4845C34.9761 22.1345 34.5711 21.0455 33.7611 20.2175C32.9691 19.3895 31.9521 18.9755 30.7101 18.9755C29.9001 18.9755 29.1711 19.1645 28.5231 19.5425C27.8751 19.9025 27.3621 20.4245 26.9841 21.1085C26.6061 21.7925 26.4171 22.5845 26.4171 23.4845C26.4171 24.3845 26.6061 25.1765 26.9841 25.8605C27.3621 26.5445 27.8751 27.0755 28.5231 27.4535C29.1711 27.8135 29.9001 27.9935 30.7101 27.9935Z" fill="#5A4499"/>
</svg>
