<svg width="43" height="43" viewBox="0 0 43 43" fill="none" xmlns="http://www.w3.org/2000/svg">
<path d="M21.4951 42.1935C33.0931 42.1935 42.4951 32.7915 42.4951 21.1935C42.4951 9.5955 33.0931 0.193481 21.4951 0.193481C9.89714 0.193481 0.495117 9.5955 0.495117 21.1935C0.495117 32.7915 9.89714 42.1935 21.4951 42.1935Z" fill="#5A4499"/>
<path d="M21.4951 2.81848C11.3451 2.81848 3.12012 11.0435 3.12012 21.1935C3.12012 31.3435 11.3451 39.5685 21.4951 39.5685C31.6451 39.5685 39.8701 31.3435 39.8701 21.1935C39.8701 11.0435 31.6451 2.81848 21.4951 2.81848Z" fill="#F5F5F5"/>
<path d="M19.9216 14.7635H13.6576V30.6935H10.1746V14.7635H3.93757V11.7935H19.9216V14.7635ZM22.228 16.2755H25.603V22.1345H32.866V16.2755H36.241V30.6935H32.866V24.9965H25.603V30.6935H22.228V16.2755Z" fill="#5A4499"/>
</svg>
