<svg width="43" height="43" viewBox="0 0 43 43" fill="none" xmlns="http://www.w3.org/2000/svg">
<path d="M21.4951 42.1935C33.0931 42.1935 42.4951 32.7915 42.4951 21.1935C42.4951 9.5955 33.0931 0.193481 21.4951 0.193481C9.89714 0.193481 0.495117 9.5955 0.495117 21.1935C0.495117 32.7915 9.89714 42.1935 21.4951 42.1935Z" fill="#5A4499"/>
<path d="M21.4951 2.81848C11.3451 2.81848 3.12012 11.0435 3.12012 21.1935C3.12012 31.3435 11.3451 39.5685 21.4951 39.5685C31.6451 39.5685 39.8701 31.3435 39.8701 21.1935C39.8701 11.0435 31.6451 2.81848 21.4951 2.81848Z" fill="#F5F5F5"/>
<path d="M25.0771 20.8385C26.2111 21.1985 27.0931 21.7835 27.7231 22.5935C28.3711 23.3855 28.6951 24.3215 28.6951 25.4015C28.6951 26.5355 28.3261 27.5255 27.5881 28.3715C26.8501 29.1995 25.8601 29.8385 24.6181 30.2885C23.3941 30.7385 22.0531 30.9635 20.5951 30.9635C19.3351 30.9635 18.0661 30.7925 16.7881 30.4505C15.5281 30.0905 14.3581 29.5595 13.2781 28.8575L14.4121 26.2925C15.2401 26.8505 16.1581 27.2825 17.1661 27.5885C18.1741 27.8765 19.1731 28.0205 20.1631 28.0205C21.5851 28.0205 22.7641 27.7415 23.7001 27.1835C24.6541 26.6255 25.1311 25.8605 25.1311 24.8885C25.1311 24.0605 24.7891 23.4305 24.1051 22.9985C23.4211 22.5665 22.4761 22.3505 21.2701 22.3505H16.8691V19.5965H21.0001C22.0441 19.5965 22.8631 19.3805 23.4571 18.9485C24.0511 18.5165 24.3481 17.9315 24.3481 17.1935C24.3481 16.3115 23.9431 15.6275 23.1331 15.1415C22.3411 14.6555 21.3241 14.4125 20.0821 14.4125C19.2361 14.4125 18.3631 14.5385 17.4631 14.7905C16.5631 15.0245 15.7171 15.3755 14.9251 15.8435L13.8181 13.0085C14.7901 12.4865 15.8161 12.0995 16.8961 11.8475C17.9941 11.5775 19.0831 11.4425 20.1631 11.4425C21.5671 11.4425 22.8541 11.6585 24.0241 12.0905C25.2121 12.5225 26.1571 13.1435 26.8591 13.9535C27.5611 14.7455 27.9121 15.6815 27.9121 16.7615C27.9121 17.6975 27.6601 18.5165 27.1561 19.2185C26.6521 19.9205 25.9591 20.4605 25.0771 20.8385Z" fill="#5A4499"/>
</svg>
