<svg width="43" height="43" viewBox="0 0 43 43" fill="none" xmlns="http://www.w3.org/2000/svg">
<path d="M21.4951 42.1935C33.0931 42.1935 42.4951 32.7915 42.4951 21.1935C42.4951 9.5955 33.0931 0.193481 21.4951 0.193481C9.89714 0.193481 0.495117 9.5955 0.495117 21.1935C0.495117 32.7915 9.89714 42.1935 21.4951 42.1935Z" fill="#5A4499"/>
<path d="M21.4951 2.81848C11.3451 2.81848 3.12012 11.0435 3.12012 21.1935C3.12012 31.3435 11.3451 39.5685 21.4951 39.5685C31.6451 39.5685 39.8701 31.3435 39.8701 21.1935C39.8701 11.0435 31.6451 2.81848 21.4951 2.81848Z" fill="#F5F5F5"/>
<path d="M14.2482 30.9635C12.3402 30.9635 10.6122 30.5495 9.06421 29.7215C7.53421 28.8755 6.32821 27.7145 5.44621 26.2385C4.58221 24.7625 4.15021 23.0975 4.15021 21.2435C4.15021 19.3895 4.59121 17.7245 5.47321 16.2485C6.35521 14.7725 7.56121 13.6205 9.09121 12.7925C10.6392 11.9465 12.3672 11.5235 14.2752 11.5235C15.8232 11.5235 17.2362 11.7935 18.5142 12.3335C19.7922 12.8735 20.8722 13.6565 21.7542 14.6825L19.4862 16.8155C18.1182 15.3395 16.4352 14.6015 14.4372 14.6015C13.1412 14.6015 11.9802 14.8895 10.9542 15.4655C9.92821 16.0235 9.12721 16.8065 8.55121 17.8145C7.97521 18.8225 7.68721 19.9655 7.68721 21.2435C7.68721 22.5215 7.97521 23.6645 8.55121 24.6725C9.12721 25.6805 9.92821 26.4725 10.9542 27.0485C11.9802 27.6065 13.1412 27.8855 14.4372 27.8855C16.4352 27.8855 18.1182 27.1385 19.4862 25.6445L21.7542 27.8045C20.8722 28.8305 19.7832 29.6135 18.4872 30.1535C17.2092 30.6935 15.7962 30.9635 14.2482 30.9635ZM30.5338 30.8825C29.0758 30.8825 27.7618 30.5675 26.5918 29.9375C25.4218 29.3075 24.5038 28.4345 23.8378 27.3185C23.1898 26.1845 22.8658 24.9065 22.8658 23.4845C22.8658 22.0625 23.1898 20.7935 23.8378 19.6775C24.5038 18.5615 25.4218 17.6885 26.5918 17.0585C27.7618 16.4285 29.0758 16.1135 30.5338 16.1135C32.0098 16.1135 33.3328 16.4285 34.5028 17.0585C35.6728 17.6885 36.5818 18.5615 37.2298 19.6775C37.8958 20.7935 38.2288 22.0625 38.2288 23.4845C38.2288 24.9065 37.8958 26.1845 37.2298 27.3185C36.5818 28.4345 35.6728 29.3075 34.5028 29.9375C33.3328 30.5675 32.0098 30.8825 30.5338 30.8825ZM30.5338 27.9935C31.7758 27.9935 32.8018 27.5795 33.6118 26.7515C34.4218 25.9235 34.8268 24.8345 34.8268 23.4845C34.8268 22.1345 34.4218 21.0455 33.6118 20.2175C32.8018 19.3895 31.7758 18.9755 30.5338 18.9755C29.2918 18.9755 28.2658 19.3895 27.4558 20.2175C26.6638 21.0455 26.2678 22.1345 26.2678 23.4845C26.2678 24.8345 26.6638 25.9235 27.4558 26.7515C28.2658 27.5795 29.2918 27.9935 30.5338 27.9935Z" fill="#5A4499"/>
</svg>
