<svg width="43" height="43" viewBox="0 0 43 43" fill="none" xmlns="http://www.w3.org/2000/svg">
<path d="M21.4951 42.1935C33.0931 42.1935 42.4951 32.7915 42.4951 21.1935C42.4951 9.5955 33.0931 0.193481 21.4951 0.193481C9.89714 0.193481 0.495117 9.5955 0.495117 21.1935C0.495117 32.7915 9.89714 42.1935 21.4951 42.1935Z" fill="#5A4499"/>
<path d="M21.4951 2.81848C11.3451 2.81848 3.12012 11.0435 3.12012 21.1935C3.12012 31.3435 11.3451 39.5685 21.4951 39.5685C31.6451 39.5685 39.8701 31.3435 39.8701 21.1935C39.8701 11.0435 31.6451 2.81848 21.4951 2.81848Z" fill="#F5F5F5"/>
<path fill-rule="evenodd" clip-rule="evenodd" d="M42.4951 21.1935C42.4951 32.7915 33.0931 42.1935 21.4951 42.1935C9.89714 42.1935 0.495117 32.7915 0.495117 21.1935C0.495117 9.5955 9.89714 0.193481 21.4951 0.193481C33.0931 0.193481 42.4951 9.5955 42.4951 21.1935ZM3.12041 21.1935C3.12041 11.0435 11.3504 2.81849 21.4954 2.81849C31.6454 2.81849 39.8704 11.0435 39.8704 21.1935C39.8704 31.3435 31.6454 39.5685 21.4954 39.5685C11.3454 39.5685 3.12041 31.3435 3.12041 21.1935ZM13.5654 15.2235C13.8954 17.9535 12.5054 20.5035 10.3304 21.4935L10.3354 21.4985V24.1535H17.6904L14.9204 9.09849L12.9604 9.37349L13.5654 15.2235ZM19.5254 33.7535C20.6154 33.7535 21.4954 32.7635 21.4954 31.5385V29.3185H10.3304V30.7985C10.3304 32.0185 11.2104 33.0135 12.3004 33.0135L19.5254 33.7535ZM10.3304 27.8435H21.4954V25.6285H10.3304V27.8435ZM19.2354 24.1485H21.4954V16.7635L18.2154 8.6335L16.4254 8.8835L19.2354 24.1485ZM24.7832 8.62889L21.9454 15.6485L22.3254 16.5935V24.1435H23.7604L26.5704 8.8785L24.7832 8.62889ZM30.6904 33.0135C31.7804 33.0135 32.6604 32.0235 32.6604 30.7985V30.7935V29.3135H22.3204V31.5335C22.3204 32.0585 22.2004 32.5535 21.9854 32.9835C22.3454 33.4535 22.8704 33.7535 23.4654 33.7535L30.6904 33.0135ZM22.3204 27.8385H32.6604V25.6235H22.3204V27.8385ZM25.3054 24.1435H32.6604L32.6654 24.1385V21.4835C30.4904 20.4935 29.1004 17.9485 29.4304 15.2135L30.0404 9.3635L28.0804 9.0885L25.3054 24.1435Z" fill="#5A4499"/>
</svg>
